<svg xmlns="http://www.w3.org/2000/svg" width="475" height="117" viewBox="0 0 475 117">
  <g id="Grupo_15884" data-name="Grupo 15884" transform="translate(-713 -1035)">
    <g id="Grupo_15883" data-name="Grupo 15883">
      <g id="Rectángulo_3741" data-name="Rectángulo 3741" transform="translate(713 1035)" fill="#ed8730" stroke="rgba(112,112,112,0.23)" stroke-width="1">
        <rect width="475" height="117" rx="25" stroke="none"/>
        <rect x="0.5" y="0.5" width="474" height="116" rx="24.5" fill="none"/>
      </g>
      <path id="Trazado_37979" data-name="Trazado 37979" d="M9.12,18,5.761,12.109H3.711V18H2.05V4.938H6.383A3.9,3.9,0,0,1,9.31,5.972,3.652,3.652,0,0,1,10.316,8.63,3.408,3.408,0,0,1,9.551,10.9a3.421,3.421,0,0,1-2.129,1.141L11.059,18ZM3.711,6.394V10.8H6.16a2.736,2.736,0,0,0,1.911-.589,2.068,2.068,0,0,0,.64-1.6A2.1,2.1,0,0,0,8.067,7a2.7,2.7,0,0,0-1.906-.6ZM19.139,8.88h1.6V18H19.2l-.037-1.206a2.847,2.847,0,0,1-1.132,1.025,3.481,3.481,0,0,1-1.6.357,3.172,3.172,0,0,1-2.3-.826,3.08,3.08,0,0,1-.858-2.329V8.88h1.6v5.78a2.164,2.164,0,0,0,.561,1.633,1.987,1.987,0,0,0,1.433.538A2.182,2.182,0,0,0,18.5,16.2a2.57,2.57,0,0,0,.635-1.865ZM26.923,18a2.4,2.4,0,0,1-1.781-.654,2.474,2.474,0,0,1-.649-1.823V10.161H22.627V8.88h.687a1.318,1.318,0,0,0,1.007-.32,1.575,1.575,0,0,0,.292-1.072V5.837h1.494V8.88h2.1v1.28h-2.1v5.2a1.383,1.383,0,0,0,.348,1.007,1.218,1.218,0,0,0,.914.357H28.2V18Zm5.594.176a3.1,3.1,0,0,1-2-.626,2.249,2.249,0,0,1-.784-1.869,2.656,2.656,0,0,1,.25-1.192,2.1,2.1,0,0,1,.742-.83,4.452,4.452,0,0,1,1.072-.515,9.9,9.9,0,0,1,1.387-.329l1.475-.241q.807-.148.807-.844a1.594,1.594,0,0,0-.571-1.359,2.325,2.325,0,0,0-1.443-.431,2.368,2.368,0,0,0-1.429.417,1.747,1.747,0,0,0-.677,1.28L29.9,11.33a2.785,2.785,0,0,1,1.141-1.953,4.263,4.263,0,0,1,2.486-.654,5.043,5.043,0,0,1,1.322.162,3.593,3.593,0,0,1,1.1.51,2.288,2.288,0,0,1,.789.983,3.659,3.659,0,0,1,.283,1.5v3.767a1.541,1.541,0,0,0,.209.951.9.9,0,0,0,.719.246H38.1V18h-.8a1.522,1.522,0,0,1-1.726-1.234H35.5A3.485,3.485,0,0,1,32.517,18.176Zm.371-1.3A2.433,2.433,0,0,0,34.846,16a3.628,3.628,0,0,0,.742-2.412l-2.412.464a3.247,3.247,0,0,0-1.415.506,1.176,1.176,0,0,0-.459,1,1.162,1.162,0,0,0,.441,1A1.884,1.884,0,0,0,32.888,16.877ZM52.037,3.75h1.6V18H52.092l-.037-1.772a3.356,3.356,0,0,1-1.3,1.438,3.619,3.619,0,0,1-1.93.529,4.144,4.144,0,0,1-3.01-1.285A4.391,4.391,0,0,1,44.9,15.4a5.515,5.515,0,0,1-.339-1.958A4.8,4.8,0,0,1,45.8,10.021,4,4,0,0,1,48.827,8.7a3.635,3.635,0,0,1,1.906.515,3.375,3.375,0,0,1,1.3,1.4ZM49.161,16.8a2.731,2.731,0,0,0,2.12-.96,3.466,3.466,0,0,0,.858-2.4,3.459,3.459,0,0,0-.863-2.394,2.729,2.729,0,0,0-2.115-.965,2.791,2.791,0,0,0-2.134.932,3.43,3.43,0,0,0-.863,2.426,3.43,3.43,0,0,0,.863,2.426A2.791,2.791,0,0,0,49.161,16.8Zm15.725-3.544-.019.436H57.742a3.223,3.223,0,0,0,.872,2.333,2.863,2.863,0,0,0,2.078.812A2.734,2.734,0,0,0,62.2,16.4,2.829,2.829,0,0,0,63.244,15.2l1.447.306a4.114,4.114,0,0,1-1.559,1.958,4.252,4.252,0,0,1-2.421.714,4.406,4.406,0,0,1-3.284-1.271,4.728,4.728,0,0,1-1.252-3.47,4.705,4.705,0,0,1,1.257-3.46A4.351,4.351,0,0,1,60.665,8.7a4.117,4.117,0,0,1,3.066,1.169A4.619,4.619,0,0,1,64.886,13.259ZM60.665,9.938a2.844,2.844,0,0,0-1.9.645,2.954,2.954,0,0,0-.96,1.879h5.464a2.71,2.71,0,0,0-.8-1.879A2.577,2.577,0,0,0,60.665,9.938ZM77.15,8.7a4.148,4.148,0,0,1,1.651.334,4.062,4.062,0,0,1,1.354.937,4.379,4.379,0,0,1,.914,1.5,5.542,5.542,0,0,1,.339,1.967,4.822,4.822,0,0,1-1.229,3.442,3.992,3.992,0,0,1-3.029,1.308,3.61,3.61,0,0,1-1.906-.52,3.4,3.4,0,0,1-1.3-1.4v6.318h-1.6V8.88h1.549l.037,1.772a3.338,3.338,0,0,1,1.3-1.424A3.643,3.643,0,0,1,77.15,8.7Zm-.315,8.1a2.769,2.769,0,0,0,2.111-.923,3.434,3.434,0,0,0,.858-2.435,3.417,3.417,0,0,0-.858-2.431,2.878,2.878,0,0,0-4.254.042,3.42,3.42,0,0,0-.872,2.389,3.433,3.433,0,0,0,.872,2.4A2.783,2.783,0,0,0,76.835,16.8Zm8.674-6.318a2.757,2.757,0,0,1,1.132-1.225,3.409,3.409,0,0,1,1.753-.482v1.512a3,3,0,0,0-2.12.677,2.829,2.829,0,0,0-.728,2.162V18h-1.6V8.88h1.568Zm8.5,7.691a4.807,4.807,0,0,1-2.338-.566,4.121,4.121,0,0,1-1.647-1.656,5.087,5.087,0,0,1-.608-2.519A4.646,4.646,0,0,1,90.709,10a4.855,4.855,0,0,1,6.6,0,4.655,4.655,0,0,1,1.29,3.437,4.658,4.658,0,0,1-1.294,3.447A4.467,4.467,0,0,1,94.007,18.176ZM94,16.84a2.8,2.8,0,0,0,2.157-.937,3.511,3.511,0,0,0,.858-2.468,3.5,3.5,0,0,0-.858-2.458A2.8,2.8,0,0,0,94,10.04a2.762,2.762,0,0,0-2.138.937,3.521,3.521,0,0,0-.849,2.458A3.534,3.534,0,0,0,91.86,15.9,2.762,2.762,0,0,0,94,16.84ZM110.438,8.7a2.94,2.94,0,0,1,2.125.775,2.873,2.873,0,0,1,.807,2.176V18h-1.6V12.072a2.061,2.061,0,0,0-.5-1.5,1.706,1.706,0,0,0-1.271-.51,1.8,1.8,0,0,0-1.392.575,2.473,2.473,0,0,0-.529,1.726V18h-1.633V12.137a2.156,2.156,0,0,0-.506-1.554,1.72,1.72,0,0,0-1.294-.524,1.784,1.784,0,0,0-1.387.589,2.559,2.559,0,0,0-.533,1.767V18h-1.6V8.88h1.6v1.178a2.77,2.77,0,0,1,1.044-1,2.976,2.976,0,0,1,1.452-.353,3.1,3.1,0,0,1,1.559.385,2.4,2.4,0,0,1,1.011,1.109,2.838,2.838,0,0,1,1.095-1.109A3.131,3.131,0,0,1,110.438,8.7Zm9.88,9.472a4.807,4.807,0,0,1-2.338-.566,4.121,4.121,0,0,1-1.647-1.656,5.087,5.087,0,0,1-.608-2.519A4.646,4.646,0,0,1,117.02,10a4.855,4.855,0,0,1,6.6,0,4.655,4.655,0,0,1,1.29,3.437,4.658,4.658,0,0,1-1.294,3.447A4.467,4.467,0,0,1,120.318,18.176Zm-.009-1.336a2.8,2.8,0,0,0,2.157-.937,3.511,3.511,0,0,0,.858-2.468,3.5,3.5,0,0,0-.858-2.458,2.8,2.8,0,0,0-2.157-.937,2.762,2.762,0,0,0-2.138.937,3.521,3.521,0,0,0-.849,2.458,3.534,3.534,0,0,0,.849,2.468A2.762,2.762,0,0,0,120.309,16.84Zm10.9,1.327a4.392,4.392,0,0,1-3.266-1.308,4.666,4.666,0,0,1-1.29-3.423,4.676,4.676,0,0,1,1.285-3.423,4.752,4.752,0,0,1,5.91-.51,4.026,4.026,0,0,1,1.535,2.217l-1.5.241a2.776,2.776,0,0,0-1.03-1.419,2.8,2.8,0,0,0-1.651-.5,2.7,2.7,0,0,0-2.111.937,3.57,3.57,0,0,0-.83,2.458,3.552,3.552,0,0,0,.83,2.454,2.7,2.7,0,0,0,2.111.932,2.8,2.8,0,0,0,1.651-.5,2.776,2.776,0,0,0,1.03-1.419l1.5.25a4.031,4.031,0,0,1-1.545,2.213A4.418,4.418,0,0,1,131.209,18.167Zm7.357-11.43a1.093,1.093,0,0,1-1.085-1.085,1.029,1.029,0,0,1,.32-.761,1.052,1.052,0,0,1,.765-.315,1.041,1.041,0,0,1,.756.315,1.029,1.029,0,0,1,.32.761,1.044,1.044,0,0,1-.32.765A1.034,1.034,0,0,1,138.566,6.737ZM137.75,18V8.88h1.614V18Zm8.108-10.687,2.329-3.024.854.622-2.078,2.4Zm.612,10.864a4.807,4.807,0,0,1-2.338-.566,4.121,4.121,0,0,1-1.647-1.656,5.087,5.087,0,0,1-.608-2.519A4.646,4.646,0,0,1,143.173,10a4.855,4.855,0,0,1,6.6,0,4.655,4.655,0,0,1,1.29,3.437,4.658,4.658,0,0,1-1.294,3.447A4.467,4.467,0,0,1,146.471,18.176Zm-.009-1.336a2.8,2.8,0,0,0,2.157-.937,3.511,3.511,0,0,0,.858-2.468,3.5,3.5,0,0,0-.858-2.458,2.8,2.8,0,0,0-2.157-.937,2.762,2.762,0,0,0-2.138.937,3.521,3.521,0,0,0-.849,2.458,3.534,3.534,0,0,0,.849,2.468A2.762,2.762,0,0,0,146.461,16.84ZM157.882,8.7a3.172,3.172,0,0,1,2.3.826,3.08,3.08,0,0,1,.858,2.329V18h-1.6V12.22a2.156,2.156,0,0,0-.557-1.633,1.99,1.99,0,0,0-1.429-.529,2.206,2.206,0,0,0-1.624.626,2.541,2.541,0,0,0-.64,1.86V18h-1.6V8.88h1.6v1.169A3.046,3.046,0,0,1,157.882,8.7Zm16.811.176h1.7L171.111,22.3h-1.661l1.828-4.518-3.544-8.9h1.781l2.57,7.1ZM192.579,8.7a2.94,2.94,0,0,1,2.125.775,2.873,2.873,0,0,1,.807,2.176V18h-1.6V12.072a2.061,2.061,0,0,0-.5-1.5,1.706,1.706,0,0,0-1.271-.51,1.8,1.8,0,0,0-1.392.575,2.473,2.473,0,0,0-.529,1.726V18h-1.633V12.137a2.156,2.156,0,0,0-.506-1.554,1.72,1.72,0,0,0-1.294-.524,1.784,1.784,0,0,0-1.387.589,2.559,2.559,0,0,0-.533,1.767V18h-1.6V8.88h1.6v1.178a2.77,2.77,0,0,1,1.044-1,2.976,2.976,0,0,1,1.452-.353,3.1,3.1,0,0,1,1.559.385,2.4,2.4,0,0,1,1.011,1.109,2.838,2.838,0,0,1,1.095-1.109A3.131,3.131,0,0,1,192.579,8.7Zm8.146,9.472a3.1,3.1,0,0,1-2-.626,2.249,2.249,0,0,1-.784-1.869,2.656,2.656,0,0,1,.25-1.192,2.1,2.1,0,0,1,.742-.83,4.452,4.452,0,0,1,1.072-.515,9.9,9.9,0,0,1,1.387-.329l1.475-.241q.807-.148.807-.844a1.594,1.594,0,0,0-.571-1.359,2.325,2.325,0,0,0-1.443-.431,2.368,2.368,0,0,0-1.429.417,1.747,1.747,0,0,0-.677,1.28l-1.447-.306a2.785,2.785,0,0,1,1.141-1.953,4.263,4.263,0,0,1,2.486-.654,5.043,5.043,0,0,1,1.322.162,3.593,3.593,0,0,1,1.1.51,2.288,2.288,0,0,1,.789.983,3.659,3.659,0,0,1,.283,1.5v3.767a1.541,1.541,0,0,0,.209.951.9.9,0,0,0,.719.246h.148V18h-.8a1.522,1.522,0,0,1-1.726-1.234h-.074A3.485,3.485,0,0,1,200.725,18.176Zm.371-1.3A2.433,2.433,0,0,0,203.053,16a3.628,3.628,0,0,0,.742-2.412l-2.412.464a3.247,3.247,0,0,0-1.415.506,1.176,1.176,0,0,0-.459,1,1.162,1.162,0,0,0,.441,1A1.884,1.884,0,0,0,201.1,16.877ZM212.878,8.7a3.172,3.172,0,0,1,2.3.826,3.08,3.08,0,0,1,.858,2.329V18h-1.6V12.22a2.156,2.156,0,0,0-.557-1.633,1.99,1.99,0,0,0-1.429-.529,2.206,2.206,0,0,0-1.624.626,2.541,2.541,0,0,0-.64,1.86V18h-1.6V8.88h1.6v1.169A3.046,3.046,0,0,1,212.878,8.7Zm9.166,9.3a2.4,2.4,0,0,1-1.781-.654,2.474,2.474,0,0,1-.649-1.823V10.161h-1.865V8.88h.687a1.318,1.318,0,0,0,1.007-.32,1.575,1.575,0,0,0,.292-1.072V5.837h1.494V8.88h2.1v1.28h-2.1v5.2a1.383,1.383,0,0,0,.348,1.007,1.218,1.218,0,0,0,.914.357h.835V18Zm11.467-4.741-.019.436h-7.125a3.223,3.223,0,0,0,.872,2.333,2.863,2.863,0,0,0,2.078.812,2.734,2.734,0,0,0,1.512-.436,2.829,2.829,0,0,0,1.039-1.206l1.447.306a4.114,4.114,0,0,1-1.559,1.958,4.252,4.252,0,0,1-2.421.714,4.406,4.406,0,0,1-3.284-1.271,4.728,4.728,0,0,1-1.252-3.47,4.705,4.705,0,0,1,1.257-3.46A4.351,4.351,0,0,1,229.29,8.7a4.117,4.117,0,0,1,3.066,1.169A4.619,4.619,0,0,1,233.511,13.259ZM229.29,9.938a2.844,2.844,0,0,0-1.9.645,2.954,2.954,0,0,0-.96,1.879H231.9a2.71,2.71,0,0,0-.8-1.879A2.577,2.577,0,0,0,229.29,9.938ZM240.33,8.7a3.172,3.172,0,0,1,2.3.826,3.08,3.08,0,0,1,.858,2.329V18h-1.6V12.22a2.156,2.156,0,0,0-.557-1.633,1.99,1.99,0,0,0-1.429-.529,2.206,2.206,0,0,0-1.624.626,2.541,2.541,0,0,0-.64,1.86V18h-1.6V8.88h1.6v1.169A3.046,3.046,0,0,1,240.33,8.7ZM247.4,6.737a1.093,1.093,0,0,1-1.085-1.085,1.029,1.029,0,0,1,.32-.761,1.052,1.052,0,0,1,.765-.315,1.041,1.041,0,0,1,.756.315,1.029,1.029,0,0,1,.32.761,1.044,1.044,0,0,1-.32.765A1.034,1.034,0,0,1,247.4,6.737ZM246.583,18V8.88H248.2V18Zm14.2-9.3a2.94,2.94,0,0,1,2.125.775,2.873,2.873,0,0,1,.807,2.176V18h-1.6V12.072a2.061,2.061,0,0,0-.5-1.5,1.706,1.706,0,0,0-1.271-.51,1.8,1.8,0,0,0-1.392.575,2.473,2.473,0,0,0-.529,1.726V18h-1.633V12.137a2.156,2.156,0,0,0-.506-1.554,1.72,1.72,0,0,0-1.294-.524,1.784,1.784,0,0,0-1.387.589,2.559,2.559,0,0,0-.533,1.767V18h-1.6V8.88h1.6v1.178a2.77,2.77,0,0,1,1.044-1,2.976,2.976,0,0,1,1.452-.353,3.1,3.1,0,0,1,1.559.385,2.4,2.4,0,0,1,1.011,1.109,2.838,2.838,0,0,1,1.095-1.109A3.131,3.131,0,0,1,260.786,8.7Zm6.856-1.967a1.093,1.093,0,0,1-1.085-1.085,1.029,1.029,0,0,1,.32-.761,1.052,1.052,0,0,1,.765-.315,1.041,1.041,0,0,1,.756.315,1.029,1.029,0,0,1,.32.761,1.044,1.044,0,0,1-.32.765A1.034,1.034,0,0,1,267.642,6.737ZM266.826,18V8.88h1.614V18Zm12.858-4.741-.019.436h-7.125a3.223,3.223,0,0,0,.872,2.333,2.863,2.863,0,0,0,2.078.812A2.734,2.734,0,0,0,277,16.4a2.829,2.829,0,0,0,1.039-1.206l1.447.306a4.114,4.114,0,0,1-1.559,1.958,4.252,4.252,0,0,1-2.421.714,4.406,4.406,0,0,1-3.284-1.271,4.728,4.728,0,0,1-1.252-3.47,4.705,4.705,0,0,1,1.257-3.46A4.351,4.351,0,0,1,275.463,8.7a4.117,4.117,0,0,1,3.066,1.169A4.619,4.619,0,0,1,279.684,13.259Zm-4.221-3.321a2.844,2.844,0,0,0-1.9.645,2.954,2.954,0,0,0-.96,1.879h5.464a2.71,2.71,0,0,0-.8-1.879A2.577,2.577,0,0,0,275.463,9.938ZM286.5,8.7a3.172,3.172,0,0,1,2.3.826,3.08,3.08,0,0,1,.858,2.329V18h-1.6V12.22a2.156,2.156,0,0,0-.557-1.633,1.99,1.99,0,0,0-1.429-.529,2.206,2.206,0,0,0-1.624.626,2.541,2.541,0,0,0-.64,1.86V18h-1.6V8.88h1.6v1.169A3.046,3.046,0,0,1,286.5,8.7Zm9.166,9.3a2.4,2.4,0,0,1-1.781-.654,2.474,2.474,0,0,1-.649-1.823V10.161h-1.865V8.88h.687a1.318,1.318,0,0,0,1.007-.32,1.575,1.575,0,0,0,.292-1.072V5.837h1.494V8.88h2.1v1.28h-2.1v5.2a1.383,1.383,0,0,0,.348,1.007,1.218,1.218,0,0,0,.914.357h.835V18Zm7.329.176a4.807,4.807,0,0,1-2.338-.566,4.121,4.121,0,0,1-1.647-1.656,5.087,5.087,0,0,1-.608-2.519A4.646,4.646,0,0,1,299.7,10a4.855,4.855,0,0,1,6.6,0,4.655,4.655,0,0,1,1.29,3.437,4.658,4.658,0,0,1-1.294,3.447A4.467,4.467,0,0,1,303,18.176Zm-.009-1.336a2.8,2.8,0,0,0,2.157-.937A3.511,3.511,0,0,0,306,13.436a3.5,3.5,0,0,0-.858-2.458,2.8,2.8,0,0,0-2.157-.937,2.762,2.762,0,0,0-2.138.937A3.521,3.521,0,0,0,300,13.436a3.534,3.534,0,0,0,.849,2.468A2.762,2.762,0,0,0,302.989,16.84ZM8.368,27.75h1.6V42H8.424l-.037-1.772a3.356,3.356,0,0,1-1.3,1.438,3.619,3.619,0,0,1-1.93.529,4.144,4.144,0,0,1-3.01-1.285A4.391,4.391,0,0,1,1.229,39.4a5.515,5.515,0,0,1-.339-1.958,4.8,4.8,0,0,1,1.239-3.423A4,4,0,0,1,5.158,32.7a3.635,3.635,0,0,1,1.906.515,3.375,3.375,0,0,1,1.3,1.4ZM5.492,40.8a2.731,2.731,0,0,0,2.12-.96,3.766,3.766,0,0,0,0-4.792,2.729,2.729,0,0,0-2.115-.965,2.791,2.791,0,0,0-2.134.932,3.842,3.842,0,0,0,0,4.852A2.791,2.791,0,0,0,5.492,40.8Zm15.725-3.544L21.2,37.7H14.074a3.223,3.223,0,0,0,.872,2.333,2.863,2.863,0,0,0,2.078.812,2.734,2.734,0,0,0,1.512-.436A2.829,2.829,0,0,0,19.575,39.2l1.447.306a4.114,4.114,0,0,1-1.559,1.958,4.252,4.252,0,0,1-2.421.714,4.406,4.406,0,0,1-3.284-1.271,4.728,4.728,0,0,1-1.252-3.47,4.705,4.705,0,0,1,1.257-3.46A4.351,4.351,0,0,1,17,32.7a4.117,4.117,0,0,1,3.066,1.169A4.619,4.619,0,0,1,21.217,37.259ZM17,33.938a2.844,2.844,0,0,0-1.9.645,2.954,2.954,0,0,0-.96,1.879H19.6a2.71,2.71,0,0,0-.8-1.879A2.577,2.577,0,0,0,17,33.938ZM28.667,42V27.75h1.624V42Zm7,.176a3.1,3.1,0,0,1-2-.626,2.249,2.249,0,0,1-.784-1.869,2.656,2.656,0,0,1,.25-1.192,2.1,2.1,0,0,1,.742-.83,4.452,4.452,0,0,1,1.072-.515,9.9,9.9,0,0,1,1.387-.329l1.475-.241q.807-.148.807-.844a1.594,1.594,0,0,0-.571-1.359,2.325,2.325,0,0,0-1.443-.431,2.368,2.368,0,0,0-1.429.417,1.747,1.747,0,0,0-.677,1.28l-1.447-.306a2.785,2.785,0,0,1,1.141-1.953,4.263,4.263,0,0,1,2.486-.654A5.043,5.043,0,0,1,38,32.885a3.593,3.593,0,0,1,1.1.51,2.288,2.288,0,0,1,.789.983,3.659,3.659,0,0,1,.283,1.5v3.767a1.541,1.541,0,0,0,.209.951.9.9,0,0,0,.719.246h.148V42h-.8a1.522,1.522,0,0,1-1.726-1.234h-.074A3.485,3.485,0,0,1,35.662,42.176Zm.371-1.3A2.433,2.433,0,0,0,37.991,40a3.628,3.628,0,0,0,.742-2.412l-2.412.464a3.247,3.247,0,0,0-1.415.506,1.176,1.176,0,0,0-.459,1,1.162,1.162,0,0,0,.441,1A1.884,1.884,0,0,0,36.033,40.877Zm15.3,1.3a4.323,4.323,0,0,1-2.458-.659,2.724,2.724,0,0,1-1.2-1.874l1.4-.4a1.954,1.954,0,0,0,.747,1.266,2.423,2.423,0,0,0,1.5.45,2.99,2.99,0,0,0,.877-.121,1.405,1.405,0,0,0,.673-.45,1.255,1.255,0,0,0,.195-1.206,1.611,1.611,0,0,0-.148-.3.919.919,0,0,0-.26-.25,3.426,3.426,0,0,0-.315-.195,3.238,3.238,0,0,0-.413-.172q-.274-.1-.441-.148t-.51-.148q-.343-.1-.529-.153a9.891,9.891,0,0,1-.946-.334,4.15,4.15,0,0,1-.77-.441,1.773,1.773,0,0,1-.6-.719,2.433,2.433,0,0,1-.2-1.021,2.358,2.358,0,0,1,.445-1.457,2.506,2.506,0,0,1,1.155-.858,4.617,4.617,0,0,1,1.619-.264,3.963,3.963,0,0,1,2.222.594A2.534,2.534,0,0,1,54.486,35.1l-1.317.334a1.747,1.747,0,0,0-.7-1.155,2.215,2.215,0,0,0-1.308-.385,2.258,2.258,0,0,0-1.225.32,1.076,1.076,0,0,0-.51.979.974.974,0,0,0,.135.506,1.606,1.606,0,0,0,.274.357,1.682,1.682,0,0,0,.5.274q.362.144.538.195t.668.172q.093.028.139.037.538.139.877.246a5.388,5.388,0,0,1,.789.334,2.622,2.622,0,0,1,.71.5,2.3,2.3,0,0,1,.445.705,2.489,2.489,0,0,1,.186.983,2.656,2.656,0,0,1-.274,1.229,2.141,2.141,0,0,1-.747.84,3.612,3.612,0,0,1-1.062.459A5.061,5.061,0,0,1,51.332,42.176Zm7.988,0a3.1,3.1,0,0,1-2-.626,2.249,2.249,0,0,1-.784-1.869,2.656,2.656,0,0,1,.25-1.192,2.1,2.1,0,0,1,.742-.83,4.452,4.452,0,0,1,1.072-.515,9.9,9.9,0,0,1,1.387-.329l1.475-.241q.807-.148.807-.844a1.594,1.594,0,0,0-.571-1.359,2.325,2.325,0,0,0-1.443-.431,2.368,2.368,0,0,0-1.429.417,1.747,1.747,0,0,0-.677,1.28L56.7,35.33a2.785,2.785,0,0,1,1.141-1.953,4.263,4.263,0,0,1,2.486-.654,5.043,5.043,0,0,1,1.322.162,3.593,3.593,0,0,1,1.1.51,2.288,2.288,0,0,1,.789.983,3.659,3.659,0,0,1,.283,1.5v3.767a1.541,1.541,0,0,0,.209.951.9.9,0,0,0,.719.246H64.9V42h-.8a1.522,1.522,0,0,1-1.726-1.234h-.074A3.485,3.485,0,0,1,59.319,42.176Zm.371-1.3A2.433,2.433,0,0,0,61.648,40a3.628,3.628,0,0,0,.742-2.412l-2.412.464a3.247,3.247,0,0,0-1.415.506,1.176,1.176,0,0,0-.459,1,1.162,1.162,0,0,0,.441,1A1.884,1.884,0,0,0,59.69,40.877ZM67.168,42V27.75h1.624V42Zm10.567-9.12h1.6V42H77.8l-.037-1.206a2.847,2.847,0,0,1-1.132,1.025,3.481,3.481,0,0,1-1.6.357,3.172,3.172,0,0,1-2.3-.826,3.08,3.08,0,0,1-.858-2.329V32.88h1.6v5.78a2.164,2.164,0,0,0,.561,1.633,1.987,1.987,0,0,0,1.433.538A2.182,2.182,0,0,0,77.1,40.2a2.57,2.57,0,0,0,.635-1.865Zm11.606-5.13h1.6V42H89.4l-.037-1.772a3.356,3.356,0,0,1-1.3,1.438,3.619,3.619,0,0,1-1.93.529,4.144,4.144,0,0,1-3.01-1.285A4.391,4.391,0,0,1,82.2,39.4a5.515,5.515,0,0,1-.339-1.958A4.8,4.8,0,0,1,83.1,34.021,4,4,0,0,1,86.131,32.7a3.635,3.635,0,0,1,1.906.515,3.375,3.375,0,0,1,1.3,1.4ZM86.465,40.8a2.731,2.731,0,0,0,2.12-.96,3.766,3.766,0,0,0,0-4.792,2.729,2.729,0,0,0-2.115-.965,2.791,2.791,0,0,0-2.134.932,3.842,3.842,0,0,0,0,4.852A2.791,2.791,0,0,0,86.465,40.8Zm9,4.546H94.295L95.427,39.6h1.679Zm17.683-8.09-.019.436H106a3.223,3.223,0,0,0,.872,2.333,2.863,2.863,0,0,0,2.078.812,2.734,2.734,0,0,0,1.512-.436A2.829,2.829,0,0,0,111.5,39.2l1.447.306a4.114,4.114,0,0,1-1.559,1.958,4.252,4.252,0,0,1-2.421.714,4.406,4.406,0,0,1-3.284-1.271,4.728,4.728,0,0,1-1.252-3.47,4.705,4.705,0,0,1,1.257-3.46,4.351,4.351,0,0,1,3.233-1.271,4.117,4.117,0,0,1,3.066,1.169A4.619,4.619,0,0,1,113.146,37.259Zm-4.221-3.321a2.844,2.844,0,0,0-1.9.645,2.954,2.954,0,0,0-.96,1.879h5.464a2.71,2.71,0,0,0-.8-1.879A2.577,2.577,0,0,0,108.925,33.938Zm9.621,8.238a4.323,4.323,0,0,1-2.458-.659,2.724,2.724,0,0,1-1.2-1.874l1.4-.4a1.954,1.954,0,0,0,.747,1.266,2.423,2.423,0,0,0,1.5.45,2.99,2.99,0,0,0,.877-.121,1.405,1.405,0,0,0,.673-.45,1.255,1.255,0,0,0,.195-1.206,1.611,1.611,0,0,0-.148-.3.919.919,0,0,0-.26-.25,3.426,3.426,0,0,0-.315-.195,3.237,3.237,0,0,0-.413-.172q-.274-.1-.441-.148t-.51-.148q-.343-.1-.529-.153a9.892,9.892,0,0,1-.946-.334,4.15,4.15,0,0,1-.77-.441,1.773,1.773,0,0,1-.6-.719,2.433,2.433,0,0,1-.2-1.021,2.358,2.358,0,0,1,.445-1.457,2.506,2.506,0,0,1,1.155-.858,4.617,4.617,0,0,1,1.619-.264,3.963,3.963,0,0,1,2.222.594A2.534,2.534,0,0,1,121.7,35.1l-1.317.334a1.747,1.747,0,0,0-.7-1.155,2.215,2.215,0,0,0-1.308-.385,2.258,2.258,0,0,0-1.225.32,1.076,1.076,0,0,0-.51.979.974.974,0,0,0,.135.506,1.606,1.606,0,0,0,.274.357,1.682,1.682,0,0,0,.5.274q.362.144.538.195t.668.172q.093.028.139.037.538.139.877.246a5.388,5.388,0,0,1,.789.334,2.622,2.622,0,0,1,.71.5,2.3,2.3,0,0,1,.445.705,2.489,2.489,0,0,1,.186.983,2.656,2.656,0,0,1-.274,1.229,2.141,2.141,0,0,1-.747.84,3.612,3.612,0,0,1-1.062.459A5.061,5.061,0,0,1,118.546,42.176ZM127.341,42a2.4,2.4,0,0,1-1.781-.654,2.474,2.474,0,0,1-.649-1.823V34.161h-1.865V32.88h.687a1.318,1.318,0,0,0,1.007-.32,1.575,1.575,0,0,0,.292-1.072V29.837h1.494V32.88h2.1v1.28h-2.1v5.2a1.383,1.383,0,0,0,.348,1.007,1.218,1.218,0,0,0,.914.357h.835V42Zm5.167-7.515a2.757,2.757,0,0,1,1.132-1.225,3.408,3.408,0,0,1,1.753-.482v1.512a3,3,0,0,0-2.12.677,2.829,2.829,0,0,0-.728,2.162V42h-1.6V32.88h1.568Zm6.763,7.691a3.1,3.1,0,0,1-2-.626,2.249,2.249,0,0,1-.784-1.869,2.656,2.656,0,0,1,.25-1.192,2.1,2.1,0,0,1,.742-.83,4.452,4.452,0,0,1,1.072-.515,9.9,9.9,0,0,1,1.387-.329l1.475-.241q.807-.148.807-.844a1.594,1.594,0,0,0-.571-1.359,2.325,2.325,0,0,0-1.443-.431,2.368,2.368,0,0,0-1.429.417,1.747,1.747,0,0,0-.677,1.28l-1.447-.306a2.785,2.785,0,0,1,1.141-1.953,4.263,4.263,0,0,1,2.486-.654,5.043,5.043,0,0,1,1.322.162,3.593,3.593,0,0,1,1.1.51,2.288,2.288,0,0,1,.789.983,3.659,3.659,0,0,1,.283,1.5v3.767a1.541,1.541,0,0,0,.209.951.9.9,0,0,0,.719.246h.148V42h-.8a1.522,1.522,0,0,1-1.726-1.234h-.074A3.485,3.485,0,0,1,139.271,42.176Zm.371-1.3A2.433,2.433,0,0,0,141.6,40a3.628,3.628,0,0,0,.742-2.412l-2.412.464a3.247,3.247,0,0,0-1.415.506,1.176,1.176,0,0,0-.459,1,1.162,1.162,0,0,0,.441,1A1.884,1.884,0,0,0,139.643,40.877ZM149.978,42a2.4,2.4,0,0,1-1.781-.654,2.474,2.474,0,0,1-.649-1.823V34.161h-1.865V32.88h.687a1.318,1.318,0,0,0,1.007-.32,1.575,1.575,0,0,0,.292-1.072V29.837h1.494V32.88h2.1v1.28h-2.1v5.2a1.383,1.383,0,0,0,.348,1.007,1.218,1.218,0,0,0,.914.357h.835V42Zm11.467-4.741-.019.436H154.3a3.223,3.223,0,0,0,.872,2.333,2.863,2.863,0,0,0,2.078.812,2.734,2.734,0,0,0,1.512-.436A2.829,2.829,0,0,0,159.8,39.2l1.447.306a4.114,4.114,0,0,1-1.559,1.958,4.252,4.252,0,0,1-2.421.714,4.406,4.406,0,0,1-3.284-1.271,4.728,4.728,0,0,1-1.252-3.47,4.705,4.705,0,0,1,1.257-3.46,4.351,4.351,0,0,1,3.233-1.271,4.117,4.117,0,0,1,3.066,1.169A4.619,4.619,0,0,1,161.444,37.259Zm-4.221-3.321a2.844,2.844,0,0,0-1.9.645,2.954,2.954,0,0,0-.96,1.879h5.464a2.71,2.71,0,0,0-.8-1.879A2.577,2.577,0,0,0,157.223,33.938Zm13.341-1.058h1.559v8.656a4.967,4.967,0,0,1-1.178,3.553,4.906,4.906,0,0,1-7.691-1.549l1.327-.649A3.015,3.015,0,0,0,167.632,45a2.618,2.618,0,0,0,2.138-.891,3.791,3.791,0,0,0,.738-2.486V39.931a3.214,3.214,0,0,1-1.3,1.313,3.779,3.779,0,0,1-1.9.5,3.91,3.91,0,0,1-2.95-1.285,4.914,4.914,0,0,1,0-6.476,3.948,3.948,0,0,1,2.964-1.276,3.684,3.684,0,0,1,1.911.51,3.285,3.285,0,0,1,1.29,1.345Zm-2.895,7.5a2.759,2.759,0,0,0,2.1-.937,3.31,3.31,0,0,0,0-4.462,2.859,2.859,0,0,0-4.207-.028,3.383,3.383,0,0,0,.009,4.513A2.78,2.78,0,0,0,167.669,40.376Zm8.535-9.639a1.093,1.093,0,0,1-1.085-1.085,1.029,1.029,0,0,1,.32-.761,1.052,1.052,0,0,1,.765-.315,1.041,1.041,0,0,1,.756.315,1.029,1.029,0,0,1,.32.761,1.044,1.044,0,0,1-.32.765A1.034,1.034,0,0,1,176.2,30.737ZM175.388,42V32.88H177V42Zm6.986.176a3.1,3.1,0,0,1-2-.626,2.249,2.249,0,0,1-.784-1.869,2.656,2.656,0,0,1,.25-1.192,2.1,2.1,0,0,1,.742-.83,4.452,4.452,0,0,1,1.072-.515,9.9,9.9,0,0,1,1.387-.329l1.475-.241q.807-.148.807-.844a1.594,1.594,0,0,0-.571-1.359,2.325,2.325,0,0,0-1.443-.431,2.368,2.368,0,0,0-1.429.417,1.747,1.747,0,0,0-.677,1.28l-1.447-.306a2.785,2.785,0,0,1,1.141-1.953,4.263,4.263,0,0,1,2.486-.654,5.043,5.043,0,0,1,1.322.162,3.593,3.593,0,0,1,1.1.51,2.288,2.288,0,0,1,.789.983,3.659,3.659,0,0,1,.283,1.5v3.767a1.541,1.541,0,0,0,.209.951.9.9,0,0,0,.719.246h.148V42h-.8a1.522,1.522,0,0,1-1.726-1.234h-.074A3.485,3.485,0,0,1,182.374,42.176Zm.371-1.3A2.433,2.433,0,0,0,184.7,40a3.628,3.628,0,0,0,.742-2.412l-2.412.464a3.247,3.247,0,0,0-1.415.506,1.176,1.176,0,0,0-.459,1,1.162,1.162,0,0,0,.441,1A1.884,1.884,0,0,0,182.745,40.877Zm10.363,1.3a4.323,4.323,0,0,1-2.458-.659,2.724,2.724,0,0,1-1.2-1.874l1.4-.4a1.954,1.954,0,0,0,.747,1.266,2.423,2.423,0,0,0,1.5.45,2.99,2.99,0,0,0,.877-.121,1.405,1.405,0,0,0,.673-.45,1.255,1.255,0,0,0,.195-1.206,1.611,1.611,0,0,0-.148-.3.919.919,0,0,0-.26-.25,3.425,3.425,0,0,0-.315-.195,3.238,3.238,0,0,0-.413-.172q-.274-.1-.441-.148t-.51-.148q-.343-.1-.529-.153a9.891,9.891,0,0,1-.946-.334,4.15,4.15,0,0,1-.77-.441,1.773,1.773,0,0,1-.6-.719,2.433,2.433,0,0,1-.2-1.021,2.358,2.358,0,0,1,.445-1.457,2.506,2.506,0,0,1,1.155-.858,4.617,4.617,0,0,1,1.619-.264,3.963,3.963,0,0,1,2.222.594,2.534,2.534,0,0,1,1.109,1.781l-1.317.334a1.747,1.747,0,0,0-.7-1.155,2.215,2.215,0,0,0-1.308-.385,2.258,2.258,0,0,0-1.225.32,1.076,1.076,0,0,0-.51.979.974.974,0,0,0,.135.506,1.606,1.606,0,0,0,.274.357,1.682,1.682,0,0,0,.5.274q.362.144.538.195t.668.172q.093.028.139.037.538.139.877.246a5.388,5.388,0,0,1,.789.334,2.622,2.622,0,0,1,.71.5,2.3,2.3,0,0,1,.445.705,2.489,2.489,0,0,1,.186.983,2.656,2.656,0,0,1-.274,1.229,2.141,2.141,0,0,1-.747.84,3.612,3.612,0,0,1-1.062.459A5.061,5.061,0,0,1,193.108,42.176ZM210.661,27.75h1.6V42h-1.549l-.037-1.772a3.356,3.356,0,0,1-1.3,1.438,3.619,3.619,0,0,1-1.93.529,4.144,4.144,0,0,1-3.01-1.285,4.392,4.392,0,0,1-.918-1.508,5.515,5.515,0,0,1-.339-1.958,4.8,4.8,0,0,1,1.239-3.423,4,4,0,0,1,3.029-1.317,3.635,3.635,0,0,1,1.906.515,3.375,3.375,0,0,1,1.3,1.4ZM207.785,40.8a2.731,2.731,0,0,0,2.12-.96,3.766,3.766,0,0,0,0-4.792,2.729,2.729,0,0,0-2.115-.965,2.791,2.791,0,0,0-2.134.932,3.842,3.842,0,0,0,0,4.852A2.791,2.791,0,0,0,207.785,40.8Zm8.563-10.066a1.093,1.093,0,0,1-1.085-1.085,1.029,1.029,0,0,1,.32-.761,1.052,1.052,0,0,1,.765-.315,1.041,1.041,0,0,1,.756.315,1.029,1.029,0,0,1,.32.761,1.044,1.044,0,0,1-.32.765A1.034,1.034,0,0,1,216.348,30.737ZM215.531,42V32.88h1.614V42Zm6.448-7.515a2.757,2.757,0,0,1,1.132-1.225,3.408,3.408,0,0,1,1.753-.482v1.512a3,3,0,0,0-2.12.677,2.829,2.829,0,0,0-.728,2.162V42h-1.6V32.88h1.568Zm5.585-3.748a1.093,1.093,0,0,1-1.085-1.085,1.029,1.029,0,0,1,.32-.761,1.052,1.052,0,0,1,.765-.315,1.041,1.041,0,0,1,.756.315,1.029,1.029,0,0,1,.32.761,1.044,1.044,0,0,1-.32.765A1.034,1.034,0,0,1,227.564,30.737ZM226.748,42V32.88h1.614V42Zm11.485-9.12h1.559v8.656a4.967,4.967,0,0,1-1.178,3.553,4.906,4.906,0,0,1-7.691-1.549l1.327-.649A3.015,3.015,0,0,0,235.3,45a2.618,2.618,0,0,0,2.138-.891,3.791,3.791,0,0,0,.738-2.486V39.931a3.214,3.214,0,0,1-1.3,1.313,3.779,3.779,0,0,1-1.9.5,3.91,3.91,0,0,1-2.95-1.285,4.914,4.914,0,0,1,0-6.476A3.948,3.948,0,0,1,235,32.7a3.684,3.684,0,0,1,1.911.51,3.285,3.285,0,0,1,1.29,1.345Zm-2.895,7.5a2.759,2.759,0,0,0,2.1-.937,3.31,3.31,0,0,0,0-4.462,2.859,2.859,0,0,0-4.207-.028,3.383,3.383,0,0,0,.009,4.513A2.78,2.78,0,0,0,235.338,40.376Zm8.535-9.639a1.093,1.093,0,0,1-1.085-1.085,1.029,1.029,0,0,1,.32-.761,1.052,1.052,0,0,1,.765-.315,1.041,1.041,0,0,1,.756.315,1.029,1.029,0,0,1,.32.761,1.044,1.044,0,0,1-.32.765A1.034,1.034,0,0,1,243.874,30.737ZM243.057,42V32.88h1.614V42Zm11.615-14.25h1.6V42h-1.549l-.037-1.772a3.356,3.356,0,0,1-1.3,1.438,3.619,3.619,0,0,1-1.93.529,4.144,4.144,0,0,1-3.01-1.285,4.392,4.392,0,0,1-.918-1.508,5.515,5.515,0,0,1-.339-1.958,4.8,4.8,0,0,1,1.239-3.423,4,4,0,0,1,3.029-1.317,3.635,3.635,0,0,1,1.906.515,3.375,3.375,0,0,1,1.3,1.4ZM251.8,40.8a2.731,2.731,0,0,0,2.12-.96,3.766,3.766,0,0,0,0-4.792,2.729,2.729,0,0,0-2.115-.965,2.791,2.791,0,0,0-2.134.932,3.842,3.842,0,0,0,0,4.852A2.791,2.791,0,0,0,251.8,40.8Zm9.853,1.373a3.1,3.1,0,0,1-2-.626,2.249,2.249,0,0,1-.784-1.869,2.656,2.656,0,0,1,.25-1.192,2.1,2.1,0,0,1,.742-.83,4.452,4.452,0,0,1,1.072-.515,9.906,9.906,0,0,1,1.387-.329l1.475-.241q.807-.148.807-.844a1.594,1.594,0,0,0-.571-1.359,2.325,2.325,0,0,0-1.443-.431,2.368,2.368,0,0,0-1.429.417,1.747,1.747,0,0,0-.677,1.28l-1.447-.306a2.785,2.785,0,0,1,1.141-1.953,4.263,4.263,0,0,1,2.486-.654,5.043,5.043,0,0,1,1.322.162,3.593,3.593,0,0,1,1.1.51,2.288,2.288,0,0,1,.789.983,3.659,3.659,0,0,1,.283,1.5v3.767a1.541,1.541,0,0,0,.209.951.9.9,0,0,0,.719.246h.148V42h-.8a1.522,1.522,0,0,1-1.726-1.234h-.074A3.485,3.485,0,0,1,261.649,42.176Zm.371-1.3A2.433,2.433,0,0,0,263.978,40a3.629,3.629,0,0,0,.742-2.412l-2.412.464a3.247,3.247,0,0,0-1.415.506,1.176,1.176,0,0,0-.459,1,1.162,1.162,0,0,0,.441,1A1.884,1.884,0,0,0,262.02,40.877Zm10.363,1.3a4.323,4.323,0,0,1-2.458-.659,2.724,2.724,0,0,1-1.2-1.874l1.4-.4a1.954,1.954,0,0,0,.747,1.266,2.423,2.423,0,0,0,1.5.45,2.99,2.99,0,0,0,.877-.121,1.405,1.405,0,0,0,.673-.45,1.255,1.255,0,0,0,.195-1.206,1.612,1.612,0,0,0-.148-.3.919.919,0,0,0-.26-.25,3.427,3.427,0,0,0-.315-.195,3.237,3.237,0,0,0-.413-.172q-.274-.1-.441-.148t-.51-.148q-.343-.1-.529-.153a9.894,9.894,0,0,1-.946-.334,4.15,4.15,0,0,1-.77-.441,1.773,1.773,0,0,1-.6-.719,2.433,2.433,0,0,1-.2-1.021,2.358,2.358,0,0,1,.445-1.457,2.506,2.506,0,0,1,1.155-.858,4.617,4.617,0,0,1,1.619-.264,3.963,3.963,0,0,1,2.222.594,2.534,2.534,0,0,1,1.109,1.781l-1.317.334a1.747,1.747,0,0,0-.7-1.155,2.215,2.215,0,0,0-1.308-.385,2.258,2.258,0,0,0-1.225.32,1.076,1.076,0,0,0-.51.979.974.974,0,0,0,.135.506,1.606,1.606,0,0,0,.274.357,1.682,1.682,0,0,0,.5.274q.362.144.538.195t.668.172q.093.028.139.037.538.139.877.246a5.388,5.388,0,0,1,.789.334,2.622,2.622,0,0,1,.71.5,2.3,2.3,0,0,1,.445.705,2.489,2.489,0,0,1,.186.983,2.656,2.656,0,0,1-.274,1.229,2.141,2.141,0,0,1-.747.84,3.612,3.612,0,0,1-1.062.459A5.061,5.061,0,0,1,272.383,42.176Zm12.923,0a3.1,3.1,0,0,1-2-.626,2.249,2.249,0,0,1-.784-1.869,2.656,2.656,0,0,1,.25-1.192,2.1,2.1,0,0,1,.742-.83,4.452,4.452,0,0,1,1.072-.515,9.906,9.906,0,0,1,1.387-.329l1.475-.241q.807-.148.807-.844a1.594,1.594,0,0,0-.571-1.359,2.325,2.325,0,0,0-1.443-.431,2.368,2.368,0,0,0-1.429.417,1.747,1.747,0,0,0-.677,1.28l-1.447-.306a2.785,2.785,0,0,1,1.141-1.953,4.263,4.263,0,0,1,2.486-.654,5.043,5.043,0,0,1,1.322.162,3.593,3.593,0,0,1,1.1.51,2.288,2.288,0,0,1,.789.983,3.659,3.659,0,0,1,.283,1.5v3.767a1.541,1.541,0,0,0,.209.951.9.9,0,0,0,.719.246h.148V42h-.8a1.522,1.522,0,0,1-1.726-1.234h-.074A3.485,3.485,0,0,1,285.306,42.176Zm.371-1.3A2.433,2.433,0,0,0,287.635,40a3.629,3.629,0,0,0,.742-2.412l-2.412.464a3.247,3.247,0,0,0-1.415.506,1.176,1.176,0,0,0-.459,1,1.162,1.162,0,0,0,.441,1A1.884,1.884,0,0,0,285.677,40.877ZM5.938,56.7a3.172,3.172,0,0,1,2.3.826,3.08,3.08,0,0,1,.858,2.329V66h-1.6V60.22a2.156,2.156,0,0,0-.557-1.633A1.99,1.99,0,0,0,5.5,58.059a2.206,2.206,0,0,0-1.624.626,2.541,2.541,0,0,0-.64,1.86V66h-1.6V56.88h1.6v1.169A3.046,3.046,0,0,1,5.938,56.7Zm7.069-1.967a1.093,1.093,0,0,1-1.085-1.085,1.029,1.029,0,0,1,.32-.761,1.052,1.052,0,0,1,.765-.315,1.041,1.041,0,0,1,.756.315,1.029,1.029,0,0,1,.32.761,1.044,1.044,0,0,1-.32.765A1.034,1.034,0,0,1,13.007,54.737ZM12.19,66V56.88H13.8V66Zm7.44-11.986a.676.676,0,0,0-.6.343,1.657,1.657,0,0,0-.218.9h-.891a2.448,2.448,0,0,1,.455-1.531,1.462,1.462,0,0,1,1.225-.594,1.682,1.682,0,0,1,1.5.909.855.855,0,0,0,.761.455.671.671,0,0,0,.594-.329,1.632,1.632,0,0,0,.213-.9h.9a2.436,2.436,0,0,1-.455,1.517,1.458,1.458,0,0,1-1.225.6,1.726,1.726,0,0,1-1.521-.9A.9.9,0,0,0,19.631,54.014Zm1.744,2.69a3.172,3.172,0,0,1,2.3.826,3.08,3.08,0,0,1,.858,2.329V66h-1.6V60.22a2.156,2.156,0,0,0-.557-1.633,1.99,1.99,0,0,0-1.429-.529,2.206,2.206,0,0,0-1.624.626,2.541,2.541,0,0,0-.64,1.86V66h-1.6V56.88h1.6v1.169A3.046,3.046,0,0,1,21.375,56.7Zm10.094,9.472a4.807,4.807,0,0,1-2.338-.566,4.121,4.121,0,0,1-1.647-1.656,5.087,5.087,0,0,1-.608-2.519A4.646,4.646,0,0,1,28.171,58a4.855,4.855,0,0,1,6.6,0,5.231,5.231,0,0,1,0,6.884A4.467,4.467,0,0,1,31.469,66.176Zm-.009-1.336a2.8,2.8,0,0,0,2.157-.937,3.964,3.964,0,0,0,0-4.926,2.8,2.8,0,0,0-2.157-.937,2.762,2.762,0,0,0-2.138.937,4,4,0,0,0,0,4.926A2.762,2.762,0,0,0,31.459,64.84Zm10,1.336A4.323,4.323,0,0,1,39,65.518a2.724,2.724,0,0,1-1.2-1.874l1.4-.4a1.954,1.954,0,0,0,.747,1.266,2.423,2.423,0,0,0,1.5.45,2.99,2.99,0,0,0,.877-.121A1.405,1.405,0,0,0,43,64.39a1.255,1.255,0,0,0,.195-1.206,1.611,1.611,0,0,0-.148-.3.919.919,0,0,0-.26-.25,3.426,3.426,0,0,0-.315-.195,3.238,3.238,0,0,0-.413-.172q-.274-.1-.441-.148t-.51-.148q-.343-.1-.529-.153a9.891,9.891,0,0,1-.946-.334,4.15,4.15,0,0,1-.77-.441,1.773,1.773,0,0,1-.6-.719,2.433,2.433,0,0,1-.2-1.021,2.358,2.358,0,0,1,.445-1.457,2.506,2.506,0,0,1,1.155-.858,4.617,4.617,0,0,1,1.619-.264,3.963,3.963,0,0,1,2.222.594A2.534,2.534,0,0,1,44.615,59.1l-1.317.334a1.747,1.747,0,0,0-.7-1.155,2.215,2.215,0,0,0-1.308-.385,2.258,2.258,0,0,0-1.225.32,1.076,1.076,0,0,0-.51.979.974.974,0,0,0,.135.506,1.606,1.606,0,0,0,.274.357,1.682,1.682,0,0,0,.5.274q.362.144.538.195t.668.172q.093.028.139.037.538.139.877.246a5.388,5.388,0,0,1,.789.334,2.622,2.622,0,0,1,.71.5,2.3,2.3,0,0,1,.445.705,2.489,2.489,0,0,1,.186.983,2.656,2.656,0,0,1-.274,1.229,2.141,2.141,0,0,1-.747.84,3.612,3.612,0,0,1-1.062.459A5.061,5.061,0,0,1,41.46,66.176ZM61.6,56.7a2.94,2.94,0,0,1,2.125.775,2.873,2.873,0,0,1,.807,2.176V66h-1.6V60.072a2.061,2.061,0,0,0-.5-1.5,1.706,1.706,0,0,0-1.271-.51,1.8,1.8,0,0,0-1.392.575,2.473,2.473,0,0,0-.529,1.726V66H57.6V60.137a2.156,2.156,0,0,0-.506-1.554,1.72,1.72,0,0,0-1.294-.524,1.784,1.784,0,0,0-1.387.589,2.559,2.559,0,0,0-.533,1.767V66h-1.6V56.88h1.6v1.178a2.77,2.77,0,0,1,1.044-1,2.976,2.976,0,0,1,1.452-.353,3.1,3.1,0,0,1,1.559.385A2.4,2.4,0,0,1,58.948,58.2a2.838,2.838,0,0,1,1.095-1.109A3.131,3.131,0,0,1,61.6,56.7ZM75.62,61.259,75.6,61.7H68.476a3.223,3.223,0,0,0,.872,2.333,2.863,2.863,0,0,0,2.078.812,2.734,2.734,0,0,0,1.512-.436A2.829,2.829,0,0,0,73.978,63.2l1.447.306a4.114,4.114,0,0,1-1.559,1.958,4.252,4.252,0,0,1-2.421.714,4.406,4.406,0,0,1-3.284-1.271,5.412,5.412,0,0,1,0-6.93A4.351,4.351,0,0,1,71.4,56.7a4.117,4.117,0,0,1,3.066,1.169A4.619,4.619,0,0,1,75.62,61.259ZM71.4,57.938a2.844,2.844,0,0,0-1.9.645,2.954,2.954,0,0,0-.96,1.879h5.464a2.71,2.71,0,0,0-.8-1.879A2.577,2.577,0,0,0,71.4,57.938ZM82.438,56.7a3.172,3.172,0,0,1,2.3.826,3.08,3.08,0,0,1,.858,2.329V66h-1.6V60.22a2.156,2.156,0,0,0-.557-1.633A1.99,1.99,0,0,0,82,58.059a2.206,2.206,0,0,0-1.624.626,2.541,2.541,0,0,0-.64,1.86V66h-1.6V56.88h1.6v1.169A3.046,3.046,0,0,1,82.438,56.7Zm10.094,9.472a4.807,4.807,0,0,1-2.338-.566,4.121,4.121,0,0,1-1.647-1.656,5.087,5.087,0,0,1-.608-2.519A4.646,4.646,0,0,1,89.234,58a4.855,4.855,0,0,1,6.6,0,5.231,5.231,0,0,1,0,6.884A4.467,4.467,0,0,1,92.532,66.176Zm-.009-1.336A2.8,2.8,0,0,0,94.68,63.9a3.964,3.964,0,0,0,0-4.926,2.8,2.8,0,0,0-2.157-.937,2.762,2.762,0,0,0-2.138.937,4,4,0,0,0,0,4.926A2.762,2.762,0,0,0,92.523,64.84Zm8.684-6.355a2.757,2.757,0,0,1,1.132-1.225,3.409,3.409,0,0,1,1.753-.482v1.512a3,3,0,0,0-2.12.677,2.829,2.829,0,0,0-.728,2.162V66h-1.6V56.88h1.568Zm12.636,2.774-.019.436H106.7a3.223,3.223,0,0,0,.872,2.333,2.863,2.863,0,0,0,2.078.812,2.734,2.734,0,0,0,1.512-.436A2.829,2.829,0,0,0,112.2,63.2l1.447.306a4.114,4.114,0,0,1-1.559,1.958,4.252,4.252,0,0,1-2.421.714,4.406,4.406,0,0,1-3.284-1.271,5.412,5.412,0,0,1,0-6.93,4.351,4.351,0,0,1,3.233-1.271,4.117,4.117,0,0,1,3.066,1.169A4.619,4.619,0,0,1,113.842,61.259Zm-4.221-3.321a2.844,2.844,0,0,0-1.9.645,2.954,2.954,0,0,0-.96,1.879h5.464a2.71,2.71,0,0,0-.8-1.879A2.577,2.577,0,0,0,109.621,57.938Zm9.621,8.238a4.323,4.323,0,0,1-2.458-.659,2.724,2.724,0,0,1-1.2-1.874l1.4-.4a1.954,1.954,0,0,0,.747,1.266,2.423,2.423,0,0,0,1.5.45,2.99,2.99,0,0,0,.877-.121,1.405,1.405,0,0,0,.673-.45,1.255,1.255,0,0,0,.195-1.206,1.611,1.611,0,0,0-.148-.3.919.919,0,0,0-.26-.25,3.426,3.426,0,0,0-.315-.195,3.237,3.237,0,0,0-.413-.172q-.274-.1-.441-.148t-.51-.148q-.343-.1-.529-.153a9.892,9.892,0,0,1-.946-.334,4.15,4.15,0,0,1-.77-.441,1.773,1.773,0,0,1-.6-.719,2.433,2.433,0,0,1-.2-1.021,2.358,2.358,0,0,1,.445-1.457,2.506,2.506,0,0,1,1.155-.858,4.617,4.617,0,0,1,1.619-.264,3.963,3.963,0,0,1,2.222.594A2.534,2.534,0,0,1,122.4,59.1l-1.317.334a1.747,1.747,0,0,0-.7-1.155,2.215,2.215,0,0,0-1.308-.385,2.258,2.258,0,0,0-1.225.32,1.076,1.076,0,0,0-.51.979.974.974,0,0,0,.135.506,1.606,1.606,0,0,0,.274.357,1.682,1.682,0,0,0,.5.274q.362.144.538.195t.668.172q.093.028.139.037.538.139.877.246a5.388,5.388,0,0,1,.789.334,2.622,2.622,0,0,1,.71.5,2.3,2.3,0,0,1,.445.705,2.489,2.489,0,0,1,.186.983,2.656,2.656,0,0,1-.274,1.229,2.141,2.141,0,0,1-.747.84,3.612,3.612,0,0,1-1.062.459A5.061,5.061,0,0,1,119.242,66.176ZM136.794,51.75h1.6V66H136.85l-.037-1.772a3.356,3.356,0,0,1-1.3,1.438,3.619,3.619,0,0,1-1.93.529,4.144,4.144,0,0,1-3.01-1.285,4.392,4.392,0,0,1-.918-1.508,5.515,5.515,0,0,1-.339-1.958,4.8,4.8,0,0,1,1.239-3.423,4,4,0,0,1,3.029-1.317,3.635,3.635,0,0,1,1.906.515,3.375,3.375,0,0,1,1.3,1.4ZM133.918,64.8a2.731,2.731,0,0,0,2.12-.96,3.766,3.766,0,0,0,0-4.792,2.729,2.729,0,0,0-2.115-.965,2.791,2.791,0,0,0-2.134.932,3.842,3.842,0,0,0,0,4.852A2.791,2.791,0,0,0,133.918,64.8Zm15.725-3.544-.019.436H142.5a3.223,3.223,0,0,0,.872,2.333,2.863,2.863,0,0,0,2.078.812,2.734,2.734,0,0,0,1.512-.436A2.829,2.829,0,0,0,148,63.2l1.447.306a4.114,4.114,0,0,1-1.559,1.958,4.252,4.252,0,0,1-2.421.714,4.406,4.406,0,0,1-3.284-1.271,5.412,5.412,0,0,1,0-6.93,4.351,4.351,0,0,1,3.233-1.271,4.117,4.117,0,0,1,3.066,1.169A4.619,4.619,0,0,1,149.644,61.259Zm-4.221-3.321a2.844,2.844,0,0,0-1.9.645,2.954,2.954,0,0,0-.96,1.879h5.464a2.71,2.71,0,0,0-.8-1.879A2.577,2.577,0,0,0,145.422,57.938Zm15.456,8.229a4.392,4.392,0,0,1-3.266-1.308,5.2,5.2,0,0,1,0-6.847,4.752,4.752,0,0,1,5.91-.51,4.026,4.026,0,0,1,1.535,2.217l-1.5.241a2.776,2.776,0,0,0-1.03-1.419,2.8,2.8,0,0,0-1.651-.5,2.7,2.7,0,0,0-2.111.937,4.048,4.048,0,0,0,0,4.912,2.7,2.7,0,0,0,2.111.932,2.8,2.8,0,0,0,1.651-.5,2.776,2.776,0,0,0,1.03-1.419l1.5.25a4.031,4.031,0,0,1-1.545,2.213A4.418,4.418,0,0,1,160.878,66.167Zm7.357-11.43a1.093,1.093,0,0,1-1.085-1.085,1.029,1.029,0,0,1,.32-.761,1.052,1.052,0,0,1,.765-.315,1.041,1.041,0,0,1,.756.315,1.029,1.029,0,0,1,.32.761,1.044,1.044,0,0,1-.32.765A1.034,1.034,0,0,1,168.235,54.737ZM167.419,66V56.88h1.614V66Zm9.185-9.3a3.172,3.172,0,0,1,2.3.826,3.08,3.08,0,0,1,.858,2.329V66h-1.6V60.22a2.156,2.156,0,0,0-.557-1.633,1.99,1.99,0,0,0-1.429-.529,2.206,2.206,0,0,0-1.624.626,2.541,2.541,0,0,0-.64,1.86V66h-1.6V56.88h1.6v1.169A3.046,3.046,0,0,1,176.6,56.7Zm10.038,9.463a4.392,4.392,0,0,1-3.266-1.308,5.2,5.2,0,0,1,0-6.847,4.752,4.752,0,0,1,5.91-.51,4.026,4.026,0,0,1,1.535,2.217l-1.5.241a2.776,2.776,0,0,0-1.03-1.419,2.8,2.8,0,0,0-1.651-.5,2.7,2.7,0,0,0-2.111.937,4.048,4.048,0,0,0,0,4.912,2.7,2.7,0,0,0,2.111.932,2.8,2.8,0,0,0,1.651-.5,2.776,2.776,0,0,0,1.03-1.419l1.5.25a4.031,4.031,0,0,1-1.545,2.213A4.418,4.418,0,0,1,186.642,66.167Zm10.381.009a4.807,4.807,0,0,1-2.338-.566,4.121,4.121,0,0,1-1.647-1.656,5.087,5.087,0,0,1-.608-2.519A4.646,4.646,0,0,1,193.725,58a4.855,4.855,0,0,1,6.6,0,5.231,5.231,0,0,1,0,6.884A4.467,4.467,0,0,1,197.023,66.176Zm-.009-1.336a2.8,2.8,0,0,0,2.157-.937,3.964,3.964,0,0,0,0-4.926,2.8,2.8,0,0,0-2.157-.937,2.762,2.762,0,0,0-2.138.937,4,4,0,0,0,0,4.926A2.762,2.762,0,0,0,197.014,64.84Zm14.157,1.336a3.1,3.1,0,0,1-2-.626,2.249,2.249,0,0,1-.784-1.869,2.656,2.656,0,0,1,.25-1.192,2.1,2.1,0,0,1,.742-.83,4.452,4.452,0,0,1,1.072-.515,9.9,9.9,0,0,1,1.387-.329l1.475-.241q.807-.148.807-.844a1.594,1.594,0,0,0-.571-1.359,2.325,2.325,0,0,0-1.443-.431,2.368,2.368,0,0,0-1.429.417,1.747,1.747,0,0,0-.677,1.28l-1.447-.306a2.785,2.785,0,0,1,1.141-1.953,4.263,4.263,0,0,1,2.486-.654,5.043,5.043,0,0,1,1.322.162,3.593,3.593,0,0,1,1.1.51,2.288,2.288,0,0,1,.789.983,3.659,3.659,0,0,1,.283,1.5v3.767a1.541,1.541,0,0,0,.209.951.9.9,0,0,0,.719.246h.148V66h-.8a1.522,1.522,0,0,1-1.726-1.234h-.074A3.485,3.485,0,0,1,211.171,66.176Zm.371-1.3A2.433,2.433,0,0,0,213.5,64a3.628,3.628,0,0,0,.742-2.412l-2.412.464a3.247,3.247,0,0,0-1.415.506,1.176,1.176,0,0,0-.459,1,1.162,1.162,0,0,0,.441,1A1.884,1.884,0,0,0,211.542,64.877ZM221.58,54.014a.676.676,0,0,0-.6.343,1.657,1.657,0,0,0-.218.9h-.891a2.448,2.448,0,0,1,.455-1.531,1.462,1.462,0,0,1,1.225-.594,1.682,1.682,0,0,1,1.5.909.855.855,0,0,0,.761.455.671.671,0,0,0,.594-.329,1.632,1.632,0,0,0,.213-.9h.9a2.436,2.436,0,0,1-.455,1.517,1.458,1.458,0,0,1-1.225.6,1.726,1.726,0,0,1-1.521-.9A.9.9,0,0,0,221.58,54.014Zm1.744,2.69a3.172,3.172,0,0,1,2.3.826,3.08,3.08,0,0,1,.858,2.329V66h-1.6V60.22a2.156,2.156,0,0,0-.557-1.633,1.99,1.99,0,0,0-1.429-.529,2.206,2.206,0,0,0-1.624.626,2.541,2.541,0,0,0-.64,1.86V66h-1.6V56.88h1.6v1.169A3.046,3.046,0,0,1,223.324,56.7Zm10.094,9.472a4.807,4.807,0,0,1-2.338-.566,4.121,4.121,0,0,1-1.647-1.656,5.087,5.087,0,0,1-.608-2.519A4.646,4.646,0,0,1,230.12,58a4.855,4.855,0,0,1,6.6,0,5.231,5.231,0,0,1,0,6.884A4.467,4.467,0,0,1,233.418,66.176Zm-.009-1.336a2.8,2.8,0,0,0,2.157-.937,3.964,3.964,0,0,0,0-4.926,2.8,2.8,0,0,0-2.157-.937,2.762,2.762,0,0,0-2.138.937,4,4,0,0,0,0,4.926A2.762,2.762,0,0,0,233.409,64.84Zm10,1.336a4.323,4.323,0,0,1-2.458-.659,2.724,2.724,0,0,1-1.2-1.874l1.4-.4a1.954,1.954,0,0,0,.747,1.266,2.423,2.423,0,0,0,1.5.45,2.99,2.99,0,0,0,.877-.121,1.405,1.405,0,0,0,.673-.45,1.255,1.255,0,0,0,.195-1.206,1.611,1.611,0,0,0-.148-.3.919.919,0,0,0-.26-.25,3.425,3.425,0,0,0-.315-.195,3.238,3.238,0,0,0-.413-.172q-.274-.1-.441-.148t-.51-.148q-.343-.1-.529-.153a9.891,9.891,0,0,1-.946-.334,4.15,4.15,0,0,1-.77-.441,1.773,1.773,0,0,1-.6-.719,2.433,2.433,0,0,1-.2-1.021,2.358,2.358,0,0,1,.445-1.457,2.506,2.506,0,0,1,1.155-.858,4.617,4.617,0,0,1,1.619-.264,3.963,3.963,0,0,1,2.222.594,2.534,2.534,0,0,1,1.109,1.781l-1.317.334a1.747,1.747,0,0,0-.7-1.155,2.215,2.215,0,0,0-1.308-.385,2.258,2.258,0,0,0-1.225.32,1.076,1.076,0,0,0-.51.979.974.974,0,0,0,.135.506,1.606,1.606,0,0,0,.274.357,1.682,1.682,0,0,0,.5.274q.362.144.538.195t.668.172q.093.028.139.037.538.139.877.246a5.388,5.388,0,0,1,.789.334,2.622,2.622,0,0,1,.71.5,2.3,2.3,0,0,1,.445.705,2.489,2.489,0,0,1,.186.983,2.656,2.656,0,0,1-.274,1.229,2.141,2.141,0,0,1-.747.84,3.612,3.612,0,0,1-1.062.459A5.061,5.061,0,0,1,243.41,66.176Z" transform="translate(830 1060)" fill="#fff"/>
    </g>
    <g id="Grupo_15863" data-name="Grupo 15863" transform="translate(429.003 -4550)">
      <path id="Trazado_37736" data-name="Trazado 37736" d="M328.689,5641.095a9.908,9.908,0,1,0-9.908-9.908A9.906,9.906,0,0,0,328.689,5641.095Z" transform="translate(-3.814 -2.785)" fill="#784112"/>
      <path id="Trazado_37737" data-name="Trazado 37737" d="M329.62,5652.531a2.416,2.416,0,0,0-.516-.017l-.1-.042h-8.257l-.1.042a2.415,2.415,0,0,0-.516.017c-9.916,1.322-12.414,17.765-12.666,19.634a2.568,2.568,0,0,0,2.2,2.888,2.439,2.439,0,0,0,.347.024,2.572,2.572,0,0,0,2.543-2.223c.345-2.529,1.655-8.305,4.06-11.982v33.105a3.3,3.3,0,0,0,6.607,0v-15.413h3.3v15.413a3.3,3.3,0,1,0,6.605,0v-15.413h0v-17.692c2.4,3.677,3.714,9.453,4.059,11.982a2.571,2.571,0,0,0,2.543,2.224,2.438,2.438,0,0,0,.345-.024,2.569,2.569,0,0,0,2.2-2.889C342.033,5670.3,339.536,5653.853,329.62,5652.531Z" transform="translate(0 -13.28)" fill="#784112"/>
      <path id="Trazado_37738" data-name="Trazado 37738" d="M398.075,5672.166c-.251-1.87-2.75-18.312-12.666-19.634a2.421,2.421,0,0,0-.516-.017l-.1-.042h-8.259l-.1.042a2.421,2.421,0,0,0-.516.017c-9.916,1.322-12.414,17.765-12.665,19.634a2.567,2.567,0,0,0,2.2,2.888,2.512,2.512,0,0,0,.35.024,2.568,2.568,0,0,0,2.541-2.223,34.92,34.92,0,0,1,3.719-11.435l-2.619,20.532h2.961v12.026a3.3,3.3,0,1,0,6.6,0v-12.026h3.3v12.026a3.3,3.3,0,1,0,6.6,0v-12.026h2.961l-2.619-20.532a34.921,34.921,0,0,1,3.719,11.435,2.569,2.569,0,0,0,2.541,2.224,2.447,2.447,0,0,0,.348-.024A2.571,2.571,0,0,0,398.075,5672.166Z" transform="translate(-18.77 -13.28)" fill="#784112"/>
      <path id="Trazado_37739" data-name="Trazado 37739" d="M375.272,5638.1a10.149,10.149,0,0,1,2.631-1.978,9.889,9.889,0,0,0,12.409,0,10.161,10.161,0,0,1,2.632,1.978c4.521-12.1-.405-16.746-4.206-18.5l3.83.331-.153-6.925-7.07,3.465a1.556,1.556,0,0,0-2.474,0L375.8,5613l-.154,6.925,3.83-.331C375.677,5621.353,370.751,5626,375.272,5638.1Z" transform="translate(-22.212)" fill="#784112"/>
    </g>
  </g>
</svg>
