<svg xmlns="http://www.w3.org/2000/svg" xmlns:xlink="http://www.w3.org/1999/xlink" width="730" height="160" viewBox="0 0 730 160">
  <defs>
    <radialGradient id="radial-gradient" cx="0.719" cy="0.562" r="0.375" gradientTransform="matrix(-0.999, -0.032, 0.1, -3.149, 0.95, 2.09)" gradientUnits="objectBoundingBox">
      <stop offset="0" stop-color="#92934e"/>
      <stop offset="1" stop-color="#415214"/>
    </radialGradient>
    <filter id="Rect치ngulo_3739" x="0" y="0" width="730" height="160" filterUnits="userSpaceOnUse">
      <feOffset dy="3" input="SourceAlpha"/>
      <feGaussianBlur stdDeviation="3" result="blur"/>
      <feFlood flood-opacity="0.161"/>
      <feComposite operator="in" in2="blur"/>
      <feComposite in="SourceGraphic"/>
    </filter>
  </defs>
  <g id="Grupo_15881" data-name="Grupo 15881" transform="translate(-335 -836)">
    <g transform="matrix(1, 0, 0, 1, 335, 836)" filter="url(#Rect치ngulo_3739)">
      <g id="Rect치ngulo_3739-2" data-name="Rect치ngulo 3739" transform="translate(9 6)" stroke="#707070" stroke-width="1" fill="url(#radial-gradient)">
        <rect width="712" height="142" rx="17" stroke="none"/>
        <rect x="0.5" y="0.5" width="711" height="141" rx="16.5" fill="none"/>
      </g>
    </g>
    <path id="Trazado_37977" data-name="Trazado 37977" d="M1.727,16V5H5.273a5.26,5.26,0,0,1,2.8.711A4.337,4.337,0,0,1,9.793,7.645a6.793,6.793,0,0,1,.559,2.848,7.2,7.2,0,0,1-.324,2.223,5.035,5.035,0,0,1-.949,1.738,4.164,4.164,0,0,1-1.6,1.141A5.681,5.681,0,0,1,5.273,16Zm1.4-1.273h2.1A3.35,3.35,0,0,0,7.973,13.6,4.756,4.756,0,0,0,8.9,10.492,4.716,4.716,0,0,0,7.969,7.4,3.352,3.352,0,0,0,5.227,6.273h-2.1Zm16.313-2.719-.016.367h-6a2.714,2.714,0,0,0,.734,1.965,2.411,2.411,0,0,0,1.75.684,2.3,2.3,0,0,0,1.273-.367,2.383,2.383,0,0,0,.875-1.016l1.219.258a3.464,3.464,0,0,1-1.312,1.648,3.581,3.581,0,0,1-2.039.6,3.71,3.71,0,0,1-2.766-1.07A3.982,3.982,0,0,1,12.1,12.156,3.962,3.962,0,0,1,13.16,9.242a3.664,3.664,0,0,1,2.723-1.07,3.467,3.467,0,0,1,2.582.984A3.889,3.889,0,0,1,19.438,12.008Zm-3.555-2.8a2.4,2.4,0,0,0-1.6.543,2.488,2.488,0,0,0-.809,1.582h4.6a2.282,2.282,0,0,0-.672-1.582A2.17,2.17,0,0,0,15.883,9.211Zm6.07-2.5a4.417,4.417,0,0,1,.082-.895,2.9,2.9,0,0,1,.219-.676,1.606,1.606,0,0,1,.363-.488,2.137,2.137,0,0,1,.473-.332,2.346,2.346,0,0,1,.582-.2,5.463,5.463,0,0,1,.66-.1Q24.656,4,25.078,4V5.133h-.293q-.09,0-.281.016a1.8,1.8,0,0,0-.281.039q-.09.023-.242.078a.618.618,0,0,0-.23.133q-.078.078-.18.2a.816.816,0,0,0-.152.281,2.689,2.689,0,0,0-.086.375,2.991,2.991,0,0,0-.035.48V8.32h1.781V9.4H23.3V16H21.953V9.4H20.469V8.32h1.484Zm5.375-.2a.92.92,0,0,1-.914-.914.867.867,0,0,1,.27-.641.886.886,0,0,1,.645-.266.877.877,0,0,1,.637.266.867.867,0,0,1,.27.641.88.88,0,0,1-.27.645A.871.871,0,0,1,27.328,6.516ZM26.641,16V8.32H28V16Zm7.734-7.828a2.671,2.671,0,0,1,1.934.7,2.594,2.594,0,0,1,.723,1.961V16H35.68V11.133a1.816,1.816,0,0,0-.469-1.375,1.676,1.676,0,0,0-1.2-.445,1.858,1.858,0,0,0-1.367.527,2.14,2.14,0,0,0-.539,1.566V16H30.75V8.32H32.1V9.3A2.565,2.565,0,0,1,34.375,8.172Zm5.953-1.656a.92.92,0,0,1-.914-.914.867.867,0,0,1,.27-.641.886.886,0,0,1,.645-.266.877.877,0,0,1,.637.266.867.867,0,0,1,.27.641.88.88,0,0,1-.27.645A.871.871,0,0,1,40.328,6.516ZM39.641,16V8.32H41V16Zm5.43-6.328a2.322,2.322,0,0,1,.953-1.031A2.87,2.87,0,0,1,47.5,8.234V9.508a2.53,2.53,0,0,0-1.785.57A2.382,2.382,0,0,0,45.1,11.9V16H43.75V8.32h1.32Zm3.938,9.148h-.984l.953-4.844h1.414Zm11.406-2.672a4.048,4.048,0,0,1-1.969-.477,3.47,3.47,0,0,1-1.387-1.395,4.283,4.283,0,0,1-.512-2.121,3.912,3.912,0,0,1,1.09-2.895,4.089,4.089,0,0,1,5.559,0,3.92,3.92,0,0,1,1.086,2.895,3.923,3.923,0,0,1-1.09,2.9A3.762,3.762,0,0,1,60.414,16.148Zm-.008-1.125a2.359,2.359,0,0,0,1.816-.789,2.957,2.957,0,0,0,.723-2.078,2.945,2.945,0,0,0-.723-2.07A2.359,2.359,0,0,0,60.406,9.3a2.326,2.326,0,0,0-1.8.789,2.965,2.965,0,0,0-.715,2.07,2.976,2.976,0,0,0,.715,2.078A2.326,2.326,0,0,0,60.406,15.023Zm7.313-5.352a2.322,2.322,0,0,1,.953-1.031,2.87,2.87,0,0,1,1.477-.406V9.508a2.53,2.53,0,0,0-1.785.57,2.382,2.382,0,0,0-.613,1.82V16H66.4V8.32h1.32ZM77.313,4h1.352V16h-1.3l-.031-1.492a2.826,2.826,0,0,1-1.094,1.211,3.048,3.048,0,0,1-1.625.445,3.49,3.49,0,0,1-2.535-1.082,3.7,3.7,0,0,1-.773-1.27,4.644,4.644,0,0,1-.285-1.648,4.038,4.038,0,0,1,1.043-2.883,3.367,3.367,0,0,1,2.551-1.109,3.061,3.061,0,0,1,1.605.434,2.842,2.842,0,0,1,1.1,1.176ZM74.891,14.992a2.3,2.3,0,0,0,1.785-.809,2.919,2.919,0,0,0,.723-2.02,2.913,2.913,0,0,0-.727-2.016,2.3,2.3,0,0,0-1.781-.812,2.35,2.35,0,0,0-1.8.785,2.889,2.889,0,0,0-.727,2.043,2.889,2.889,0,0,0,.727,2.043A2.35,2.35,0,0,0,74.891,14.992Zm13.242-2.984-.016.367h-6a2.714,2.714,0,0,0,.734,1.965,2.411,2.411,0,0,0,1.75.684,2.3,2.3,0,0,0,1.273-.367,2.383,2.383,0,0,0,.875-1.016l1.219.258a3.464,3.464,0,0,1-1.312,1.648,3.581,3.581,0,0,1-2.039.6,3.71,3.71,0,0,1-2.766-1.07A3.982,3.982,0,0,1,80.8,12.156a3.962,3.962,0,0,1,1.059-2.914,3.664,3.664,0,0,1,2.723-1.07,3.467,3.467,0,0,1,2.582.984A3.889,3.889,0,0,1,88.133,12.008Zm-3.555-2.8a2.4,2.4,0,0,0-1.6.543,2.488,2.488,0,0,0-.809,1.582h4.6A2.282,2.282,0,0,0,86.1,9.754,2.17,2.17,0,0,0,84.578,9.211Zm9.3-1.039a2.671,2.671,0,0,1,1.934.7,2.594,2.594,0,0,1,.723,1.961V16H95.18V11.133a1.816,1.816,0,0,0-.469-1.375,1.676,1.676,0,0,0-1.2-.445,1.858,1.858,0,0,0-1.367.527,2.14,2.14,0,0,0-.539,1.566V16H90.25V8.32H91.6V9.3A2.565,2.565,0,0,1,93.875,8.172Zm7.039,7.977a2.613,2.613,0,0,1-1.684-.527,1.894,1.894,0,0,1-.66-1.574,2.237,2.237,0,0,1,.211-1,1.77,1.77,0,0,1,.625-.7,3.749,3.749,0,0,1,.9-.434,8.341,8.341,0,0,1,1.168-.277l1.242-.2q.68-.125.68-.711a1.342,1.342,0,0,0-.48-1.145,1.958,1.958,0,0,0-1.215-.363,1.994,1.994,0,0,0-1.2.352,1.471,1.471,0,0,0-.57,1.078l-1.219-.258a2.346,2.346,0,0,1,.961-1.645,3.59,3.59,0,0,1,2.094-.551,4.247,4.247,0,0,1,1.113.137,3.025,3.025,0,0,1,.93.43,1.927,1.927,0,0,1,.664.828,3.081,3.081,0,0,1,.238,1.262v3.172a1.3,1.3,0,0,0,.176.8.759.759,0,0,0,.605.207h.125V16h-.672a1.281,1.281,0,0,1-1.453-1.039h-.062A2.935,2.935,0,0,1,100.914,16.148Zm.313-1.094a2.049,2.049,0,0,0,1.648-.742,3.056,3.056,0,0,0,.625-2.031l-2.031.391a2.734,2.734,0,0,0-1.191.426.99.99,0,0,0-.387.84.979.979,0,0,0,.371.844A1.586,1.586,0,0,0,101.227,15.055Zm7.617-5.383a2.322,2.322,0,0,1,.953-1.031,2.87,2.87,0,0,1,1.477-.406V9.508a2.53,2.53,0,0,0-1.785.57,2.382,2.382,0,0,0-.613,1.82V16h-1.352V8.32h1.32Zm14.891,2.336-.016.367h-6a2.714,2.714,0,0,0,.734,1.965,2.411,2.411,0,0,0,1.75.684,2.3,2.3,0,0,0,1.273-.367,2.383,2.383,0,0,0,.875-1.016l1.219.258a3.464,3.464,0,0,1-1.312,1.648,3.581,3.581,0,0,1-2.039.6,3.71,3.71,0,0,1-2.766-1.07,3.982,3.982,0,0,1-1.055-2.922,3.962,3.962,0,0,1,1.059-2.914,3.664,3.664,0,0,1,2.723-1.07,3.467,3.467,0,0,1,2.582.984A3.889,3.889,0,0,1,123.734,12.008Zm-3.555-2.8a2.4,2.4,0,0,0-1.6.543,2.488,2.488,0,0,0-.809,1.582h4.6a2.282,2.282,0,0,0-.672-1.582A2.17,2.17,0,0,0,120.18,9.211Zm10.516-2.7a.92.92,0,0,1-.914-.914.867.867,0,0,1,.27-.641A.886.886,0,0,1,130.7,4.7a.877.877,0,0,1,.637.266.867.867,0,0,1,.27.641.88.88,0,0,1-.27.645A.871.871,0,0,1,130.7,6.516ZM130.008,16V8.32h1.359V16Zm7.734-7.828a2.671,2.671,0,0,1,1.934.7,2.594,2.594,0,0,1,.723,1.961V16h-1.352V11.133a1.816,1.816,0,0,0-.469-1.375,1.676,1.676,0,0,0-1.2-.445,1.858,1.858,0,0,0-1.367.527,2.14,2.14,0,0,0-.539,1.566V16h-1.352V8.32h1.352V9.3A2.565,2.565,0,0,1,137.742,8.172ZM145.461,16a2.019,2.019,0,0,1-1.5-.551,2.084,2.084,0,0,1-.547-1.535V9.4h-1.57V8.32h.578a1.11,1.11,0,0,0,.848-.27,1.326,1.326,0,0,0,.246-.9V5.758h1.258V8.32h1.766V9.4h-1.766v4.375a1.164,1.164,0,0,0,.293.848,1.026,1.026,0,0,0,.77.3h.7V16Zm9.656-3.992-.016.367h-6a2.714,2.714,0,0,0,.734,1.965,2.411,2.411,0,0,0,1.75.684,2.3,2.3,0,0,0,1.273-.367,2.383,2.383,0,0,0,.875-1.016l1.219.258a3.464,3.464,0,0,1-1.312,1.648,3.581,3.581,0,0,1-2.039.6,3.71,3.71,0,0,1-2.766-1.07,3.982,3.982,0,0,1-1.055-2.922,3.962,3.962,0,0,1,1.059-2.914,3.664,3.664,0,0,1,2.723-1.07,3.467,3.467,0,0,1,2.582.984A3.889,3.889,0,0,1,155.117,12.008Zm-3.555-2.8a2.4,2.4,0,0,0-1.6.543,2.488,2.488,0,0,0-.809,1.582h4.6a2.282,2.282,0,0,0-.672-1.582A2.17,2.17,0,0,0,151.563,9.211ZM162.8,8.32h1.313v7.289a4.183,4.183,0,0,1-.992,2.992,4.131,4.131,0,0,1-6.477-1.3l1.117-.547a2.539,2.539,0,0,0,2.57,1.773,2.2,2.2,0,0,0,1.8-.75,3.192,3.192,0,0,0,.621-2.094V14.258a2.707,2.707,0,0,1-1.094,1.105,3.182,3.182,0,0,1-1.6.418A3.293,3.293,0,0,1,157.57,14.7a3.816,3.816,0,0,1-1.023-2.73,3.78,3.78,0,0,1,1.027-2.723,3.325,3.325,0,0,1,2.5-1.074,3.1,3.1,0,0,1,1.609.43,2.766,2.766,0,0,1,1.086,1.133Zm-2.437,6.313a2.323,2.323,0,0,0,1.77-.789,2.787,2.787,0,0,0,0-3.758,2.407,2.407,0,0,0-3.543-.023,2.67,2.67,0,0,0-.723,1.906,2.647,2.647,0,0,0,.73,1.895A2.341,2.341,0,0,0,160.359,14.633Zm7.82-4.961a2.322,2.322,0,0,1,.953-1.031,2.87,2.87,0,0,1,1.477-.406V9.508a2.53,2.53,0,0,0-1.785.57,2.382,2.382,0,0,0-.613,1.82V16h-1.352V8.32h1.32Zm5.7,6.477a2.613,2.613,0,0,1-1.684-.527,1.894,1.894,0,0,1-.66-1.574,2.237,2.237,0,0,1,.211-1,1.77,1.77,0,0,1,.625-.7,3.749,3.749,0,0,1,.9-.434,8.341,8.341,0,0,1,1.168-.277l1.242-.2q.68-.125.68-.711a1.342,1.342,0,0,0-.48-1.145,1.958,1.958,0,0,0-1.215-.363,1.994,1.994,0,0,0-1.2.352,1.471,1.471,0,0,0-.57,1.078l-1.219-.258a2.346,2.346,0,0,1,.961-1.645,3.59,3.59,0,0,1,2.094-.551,4.247,4.247,0,0,1,1.113.137,3.026,3.026,0,0,1,.93.43,1.927,1.927,0,0,1,.664.828,3.081,3.081,0,0,1,.238,1.262v3.172a1.3,1.3,0,0,0,.176.8.759.759,0,0,0,.605.207h.125V16h-.672a1.281,1.281,0,0,1-1.453-1.039h-.062A2.935,2.935,0,0,1,173.875,16.148Zm.313-1.094a2.049,2.049,0,0,0,1.648-.742,3.056,3.056,0,0,0,.625-2.031l-2.031.391a2.734,2.734,0,0,0-1.191.426.99.99,0,0,0-.387.84.979.979,0,0,0,.371.844A1.586,1.586,0,0,0,174.188,15.055ZM181.8,9.672a2.322,2.322,0,0,1,.953-1.031,2.87,2.87,0,0,1,1.477-.406V9.508a2.53,2.53,0,0,0-1.785.57,2.382,2.382,0,0,0-.613,1.82V16h-1.352V8.32h1.32ZM189.977,16V4h1.367V16Zm5.891.148a2.613,2.613,0,0,1-1.684-.527,1.894,1.894,0,0,1-.66-1.574,2.237,2.237,0,0,1,.211-1,1.77,1.77,0,0,1,.625-.7,3.749,3.749,0,0,1,.9-.434,8.341,8.341,0,0,1,1.168-.277l1.242-.2q.68-.125.68-.711a1.342,1.342,0,0,0-.48-1.145,1.958,1.958,0,0,0-1.215-.363,1.994,1.994,0,0,0-1.2.352,1.471,1.471,0,0,0-.57,1.078l-1.219-.258a2.346,2.346,0,0,1,.961-1.645,3.59,3.59,0,0,1,2.094-.551,4.247,4.247,0,0,1,1.113.137,3.026,3.026,0,0,1,.93.43,1.927,1.927,0,0,1,.664.828,3.081,3.081,0,0,1,.238,1.262v3.172a1.3,1.3,0,0,0,.176.8.759.759,0,0,0,.605.207h.125V16H199.9a1.281,1.281,0,0,1-1.453-1.039h-.062A2.935,2.935,0,0,1,195.867,16.148Zm.313-1.094a2.049,2.049,0,0,0,1.648-.742,3.056,3.056,0,0,0,.625-2.031l-2.031.391a2.734,2.734,0,0,0-1.191.426.99.99,0,0,0-.387.84.979.979,0,0,0,.371.844A1.586,1.586,0,0,0,196.18,15.055Zm8.727,1.094a3.641,3.641,0,0,1-2.07-.555,2.294,2.294,0,0,1-1.008-1.578l1.18-.336a1.645,1.645,0,0,0,.629,1.066,2.04,2.04,0,0,0,1.262.379,2.518,2.518,0,0,0,.738-.1,1.183,1.183,0,0,0,.566-.379,1.057,1.057,0,0,0,.164-1.016,1.356,1.356,0,0,0-.125-.254.774.774,0,0,0-.219-.211,2.884,2.884,0,0,0-.266-.164,2.727,2.727,0,0,0-.348-.145q-.23-.082-.371-.125t-.43-.125q-.289-.082-.445-.129a8.329,8.329,0,0,1-.8-.281,3.5,3.5,0,0,1-.648-.371,1.493,1.493,0,0,1-.5-.605,2.048,2.048,0,0,1-.168-.859,1.986,1.986,0,0,1,.375-1.227,2.11,2.11,0,0,1,.973-.723,3.888,3.888,0,0,1,1.363-.223,3.337,3.337,0,0,1,1.871.5,2.134,2.134,0,0,1,.934,1.5l-1.109.281a1.471,1.471,0,0,0-.586-.973,1.866,1.866,0,0,0-1.1-.324,1.9,1.9,0,0,0-1.031.27.906.906,0,0,0-.43.824.82.82,0,0,0,.113.426,1.352,1.352,0,0,0,.23.3,1.417,1.417,0,0,0,.422.23q.3.121.453.164t.563.145q.078.023.117.031.453.117.738.207a4.538,4.538,0,0,1,.664.281,2.208,2.208,0,0,1,.6.418,1.937,1.937,0,0,1,.375.594,2.1,2.1,0,0,1,.156.828,2.237,2.237,0,0,1-.23,1.035,1.8,1.8,0,0,1-.629.707,3.042,3.042,0,0,1-.895.387A4.262,4.262,0,0,1,204.906,16.148Zm9.8-9.633a.92.92,0,0,1-.914-.914.867.867,0,0,1,.27-.641A.886.886,0,0,1,214.7,4.7a.877.877,0,0,1,.637.266.867.867,0,0,1,.27.641.88.88,0,0,1-.27.645A.871.871,0,0,1,214.7,6.516ZM214.016,16V8.32h1.359V16Zm7.734-7.828a2.671,2.671,0,0,1,1.934.7,2.594,2.594,0,0,1,.723,1.961V16h-1.352V11.133a1.816,1.816,0,0,0-.469-1.375,1.676,1.676,0,0,0-1.2-.445,1.858,1.858,0,0,0-1.367.527,2.14,2.14,0,0,0-.539,1.566V16h-1.352V8.32h1.352V9.3A2.565,2.565,0,0,1,221.75,8.172ZM229.469,16a2.019,2.019,0,0,1-1.5-.551,2.084,2.084,0,0,1-.547-1.535V9.4h-1.57V8.32h.578a1.11,1.11,0,0,0,.848-.27,1.326,1.326,0,0,0,.246-.9V5.758h1.258V8.32h1.766V9.4h-1.766v4.375a1.164,1.164,0,0,0,.293.848,1.026,1.026,0,0,0,.77.3h.7V16Zm9.656-3.992-.016.367h-6a2.714,2.714,0,0,0,.734,1.965,2.411,2.411,0,0,0,1.75.684,2.3,2.3,0,0,0,1.273-.367,2.383,2.383,0,0,0,.875-1.016l1.219.258a3.464,3.464,0,0,1-1.312,1.648,3.581,3.581,0,0,1-2.039.6,3.71,3.71,0,0,1-2.766-1.07,3.982,3.982,0,0,1-1.055-2.922,3.962,3.962,0,0,1,1.059-2.914,3.664,3.664,0,0,1,2.723-1.07,3.467,3.467,0,0,1,2.582.984A3.889,3.889,0,0,1,239.125,12.008Zm-3.555-2.8a2.4,2.4,0,0,0-1.6.543,2.488,2.488,0,0,0-.809,1.582h4.6a2.282,2.282,0,0,0-.672-1.582A2.17,2.17,0,0,0,235.57,9.211Zm6.992.461a2.322,2.322,0,0,1,.953-1.031,2.87,2.87,0,0,1,1.477-.406V9.508a2.53,2.53,0,0,0-1.785.57,2.382,2.382,0,0,0-.613,1.82V16h-1.352V8.32h1.32Zm8.961-1.352h1.445L249.844,16H248.7l-3.109-7.68h1.438l2.25,6.109Zm9.461,3.688-.016.367h-6a2.714,2.714,0,0,0,.734,1.965,2.411,2.411,0,0,0,1.75.684,2.3,2.3,0,0,0,1.273-.367,2.383,2.383,0,0,0,.875-1.016l1.219.258a3.464,3.464,0,0,1-1.312,1.648,3.581,3.581,0,0,1-2.039.6,3.71,3.71,0,0,1-2.766-1.07,3.982,3.982,0,0,1-1.055-2.922,3.962,3.962,0,0,1,1.059-2.914,3.664,3.664,0,0,1,2.723-1.07,3.467,3.467,0,0,1,2.582.984A3.889,3.889,0,0,1,260.984,12.008Zm-3.555-2.8a2.4,2.4,0,0,0-1.6.543,2.488,2.488,0,0,0-.809,1.582h4.6a2.282,2.282,0,0,0-.672-1.582A2.17,2.17,0,0,0,257.43,9.211Zm9.3-1.039a2.671,2.671,0,0,1,1.934.7,2.594,2.594,0,0,1,.723,1.961V16h-1.352V11.133a1.816,1.816,0,0,0-.469-1.375,1.676,1.676,0,0,0-1.2-.445,1.858,1.858,0,0,0-1.367.527,2.14,2.14,0,0,0-.539,1.566V16H263.1V8.32h1.352V9.3A2.565,2.565,0,0,1,266.727,8.172Zm8.453,7.969a3.7,3.7,0,0,1-2.75-1.1,3.929,3.929,0,0,1-1.086-2.883,3.937,3.937,0,0,1,1.082-2.883,4,4,0,0,1,4.977-.43,3.391,3.391,0,0,1,1.293,1.867l-1.266.2a2.337,2.337,0,0,0-.867-1.2,2.361,2.361,0,0,0-1.391-.422,2.27,2.27,0,0,0-1.777.789,3.006,3.006,0,0,0-.7,2.07,2.991,2.991,0,0,0,.7,2.066,2.275,2.275,0,0,0,1.777.785,2.361,2.361,0,0,0,1.391-.422,2.337,2.337,0,0,0,.867-1.2l1.266.211a3.4,3.4,0,0,1-1.3,1.863A3.72,3.72,0,0,1,275.18,16.141Zm6.2-9.625a.92.92,0,0,1-.914-.914.867.867,0,0,1,.27-.641.886.886,0,0,1,.645-.266.877.877,0,0,1,.637.266.867.867,0,0,1,.27.641.88.88,0,0,1-.27.645A.871.871,0,0,1,281.375,6.516ZM280.688,16V8.32h1.359V16Zm7.344.148a4.048,4.048,0,0,1-1.969-.477,3.47,3.47,0,0,1-1.387-1.395,4.283,4.283,0,0,1-.512-2.121,3.912,3.912,0,0,1,1.09-2.895,4.089,4.089,0,0,1,5.559,0,3.92,3.92,0,0,1,1.086,2.895,3.923,3.923,0,0,1-1.09,2.9A3.762,3.762,0,0,1,288.031,16.148Zm-.008-1.125a2.359,2.359,0,0,0,1.816-.789,2.957,2.957,0,0,0,.723-2.078,2.945,2.945,0,0,0-.723-2.07,2.359,2.359,0,0,0-1.816-.789,2.326,2.326,0,0,0-1.8.789,2.965,2.965,0,0,0-.715,2.07,2.976,2.976,0,0,0,.715,2.078A2.326,2.326,0,0,0,288.023,15.023Zm9.617-6.852a2.671,2.671,0,0,1,1.934.7,2.594,2.594,0,0,1,.723,1.961V16h-1.352V11.133a1.816,1.816,0,0,0-.469-1.375,1.676,1.676,0,0,0-1.2-.445,1.858,1.858,0,0,0-1.367.527,2.14,2.14,0,0,0-.539,1.566V16h-1.352V8.32h1.352V9.3A2.565,2.565,0,0,1,297.641,8.172Zm11.984,3.836-.016.367h-6a2.714,2.714,0,0,0,.734,1.965,2.411,2.411,0,0,0,1.75.684,2.3,2.3,0,0,0,1.273-.367,2.383,2.383,0,0,0,.875-1.016l1.219.258a3.464,3.464,0,0,1-1.312,1.648,3.581,3.581,0,0,1-2.039.6,3.71,3.71,0,0,1-2.766-1.07,3.982,3.982,0,0,1-1.055-2.922,3.963,3.963,0,0,1,1.059-2.914,3.664,3.664,0,0,1,2.723-1.07,3.467,3.467,0,0,1,2.582.984A3.889,3.889,0,0,1,309.625,12.008Zm-3.555-2.8a2.4,2.4,0,0,0-1.6.543,2.488,2.488,0,0,0-.809,1.582h4.6a2.282,2.282,0,0,0-.672-1.582A2.17,2.17,0,0,0,306.07,9.211Zm8.1,6.938a3.641,3.641,0,0,1-2.07-.555,2.294,2.294,0,0,1-1.008-1.578l1.18-.336a1.645,1.645,0,0,0,.629,1.066,2.04,2.04,0,0,0,1.262.379,2.518,2.518,0,0,0,.738-.1,1.184,1.184,0,0,0,.566-.379,1.057,1.057,0,0,0,.164-1.016,1.357,1.357,0,0,0-.125-.254.773.773,0,0,0-.219-.211,2.886,2.886,0,0,0-.266-.164,2.726,2.726,0,0,0-.348-.145q-.23-.082-.371-.125t-.43-.125q-.289-.082-.445-.129a8.332,8.332,0,0,1-.8-.281,3.5,3.5,0,0,1-.648-.371,1.493,1.493,0,0,1-.5-.605,2.049,2.049,0,0,1-.168-.859,1.986,1.986,0,0,1,.375-1.227,2.11,2.11,0,0,1,.973-.723,3.888,3.888,0,0,1,1.363-.223,3.337,3.337,0,0,1,1.871.5,2.134,2.134,0,0,1,.934,1.5l-1.109.281a1.471,1.471,0,0,0-.586-.973,1.865,1.865,0,0,0-1.1-.324,1.9,1.9,0,0,0-1.031.27.906.906,0,0,0-.43.824.82.82,0,0,0,.113.426,1.352,1.352,0,0,0,.23.3,1.417,1.417,0,0,0,.422.23q.3.121.453.164t.563.145q.078.023.117.031.453.117.738.207a4.538,4.538,0,0,1,.664.281,2.208,2.208,0,0,1,.6.418,1.936,1.936,0,0,1,.375.594,2.1,2.1,0,0,1,.156.828,2.236,2.236,0,0,1-.23,1.035,1.8,1.8,0,0,1-.629.707,3.042,3.042,0,0,1-.895.387A4.262,4.262,0,0,1,314.172,16.148Zm9.8-9.633a.92.92,0,0,1-.914-.914.867.867,0,0,1,.27-.641.886.886,0,0,1,.645-.266.877.877,0,0,1,.637.266.867.867,0,0,1,.27.641.88.88,0,0,1-.27.645A.871.871,0,0,1,323.969,6.516ZM323.281,16V8.32h1.359V16Zm7.734-7.828a2.671,2.671,0,0,1,1.934.7,2.594,2.594,0,0,1,.723,1.961V16H332.32V11.133a1.816,1.816,0,0,0-.469-1.375,1.676,1.676,0,0,0-1.2-.445,1.858,1.858,0,0,0-1.367.527,2.14,2.14,0,0,0-.539,1.566V16h-1.352V8.32h1.352V9.3A2.565,2.565,0,0,1,331.016,8.172ZM341.953,4H343.3V16H342l-.031-1.492a2.826,2.826,0,0,1-1.094,1.211,3.048,3.048,0,0,1-1.625.445,3.49,3.49,0,0,1-2.535-1.082,3.7,3.7,0,0,1-.773-1.27,4.644,4.644,0,0,1-.285-1.648A4.038,4.038,0,0,1,336.7,9.281a3.367,3.367,0,0,1,2.551-1.109,3.061,3.061,0,0,1,1.605.434,2.842,2.842,0,0,1,1.1,1.176Zm-2.422,10.992a2.3,2.3,0,0,0,1.785-.809,2.919,2.919,0,0,0,.723-2.02,2.913,2.913,0,0,0-.727-2.016,2.3,2.3,0,0,0-1.781-.812,2.35,2.35,0,0,0-1.8.785,2.889,2.889,0,0,0-.727,2.043,2.889,2.889,0,0,0,.727,2.043A2.35,2.35,0,0,0,339.531,14.992Zm7.211-8.477a.92.92,0,0,1-.914-.914.867.867,0,0,1,.27-.641.886.886,0,0,1,.645-.266.877.877,0,0,1,.637.266.867.867,0,0,1,.27.641.88.88,0,0,1-.27.645A.871.871,0,0,1,346.742,6.516ZM346.055,16V8.32h1.359V16Zm8.9-7.68H356.4L353.273,16h-1.148l-3.109-7.68h1.438l2.25,6.109Zm3.734-1.8a.92.92,0,0,1-.914-.914.867.867,0,0,1,.27-.641.886.886,0,0,1,.645-.266.877.877,0,0,1,.637.266.867.867,0,0,1,.27.641.88.88,0,0,1-.27.645A.871.871,0,0,1,358.688,6.516ZM358,16V8.32h1.359V16Zm9.781-12h1.352V16h-1.3l-.031-1.492a2.826,2.826,0,0,1-1.094,1.211,3.048,3.048,0,0,1-1.625.445,3.49,3.49,0,0,1-2.535-1.082,3.7,3.7,0,0,1-.773-1.27,4.644,4.644,0,0,1-.285-1.648,4.038,4.038,0,0,1,1.043-2.883,3.367,3.367,0,0,1,2.551-1.109,3.061,3.061,0,0,1,1.605.434,2.842,2.842,0,0,1,1.1,1.176Zm-2.422,10.992a2.3,2.3,0,0,0,1.785-.809,2.919,2.919,0,0,0,.723-2.02,2.913,2.913,0,0,0-.727-2.016,2.3,2.3,0,0,0-1.781-.812,2.35,2.35,0,0,0-1.8.785,2.889,2.889,0,0,0-.727,2.043,2.889,2.889,0,0,0,.727,2.043A2.35,2.35,0,0,0,365.359,14.992Zm11.3-6.672h1.352V16h-1.3l-.031-1.016a2.4,2.4,0,0,1-.953.863,2.932,2.932,0,0,1-1.344.3,2.671,2.671,0,0,1-1.934-.7,2.594,2.594,0,0,1-.723-1.961V8.32h1.352v4.867a1.822,1.822,0,0,0,.473,1.375,1.673,1.673,0,0,0,1.207.453,1.837,1.837,0,0,0,1.363-.531,2.164,2.164,0,0,0,.535-1.57Zm5.875,7.828a2.613,2.613,0,0,1-1.684-.527,1.894,1.894,0,0,1-.66-1.574,2.237,2.237,0,0,1,.211-1,1.77,1.77,0,0,1,.625-.7,3.749,3.749,0,0,1,.9-.434,8.342,8.342,0,0,1,1.168-.277l1.242-.2q.68-.125.68-.711a1.342,1.342,0,0,0-.48-1.145,1.958,1.958,0,0,0-1.215-.363,1.994,1.994,0,0,0-1.2.352,1.471,1.471,0,0,0-.57,1.078l-1.219-.258a2.346,2.346,0,0,1,.961-1.645,3.59,3.59,0,0,1,2.094-.551,4.247,4.247,0,0,1,1.113.137,3.025,3.025,0,0,1,.93.43,1.927,1.927,0,0,1,.664.828,3.081,3.081,0,0,1,.238,1.262v3.172a1.3,1.3,0,0,0,.176.8.759.759,0,0,0,.605.207h.125V16h-.672a1.281,1.281,0,0,1-1.453-1.039h-.062A2.935,2.935,0,0,1,382.539,16.148Zm.313-1.094a2.049,2.049,0,0,0,1.648-.742,3.056,3.056,0,0,0,.625-2.031l-2.031.391a2.734,2.734,0,0,0-1.191.426.99.99,0,0,0-.387.84.979.979,0,0,0,.371.844A1.586,1.586,0,0,0,382.852,15.055Zm6.3.945V4h1.367V16Zm10.836-3.992-.016.367h-6a2.714,2.714,0,0,0,.734,1.965,2.411,2.411,0,0,0,1.75.684,2.3,2.3,0,0,0,1.273-.367,2.383,2.383,0,0,0,.875-1.016l1.219.258a3.464,3.464,0,0,1-1.312,1.648,3.581,3.581,0,0,1-2.039.6,3.71,3.71,0,0,1-2.766-1.07,3.982,3.982,0,0,1-1.055-2.922,3.963,3.963,0,0,1,1.059-2.914,3.664,3.664,0,0,1,2.723-1.07,3.467,3.467,0,0,1,2.582.984A3.889,3.889,0,0,1,399.984,12.008Zm-3.555-2.8a2.4,2.4,0,0,0-1.6.543,2.488,2.488,0,0,0-.809,1.582h4.6a2.282,2.282,0,0,0-.672-1.582A2.17,2.17,0,0,0,396.43,9.211Zm8.1,6.938a3.641,3.641,0,0,1-2.07-.555,2.294,2.294,0,0,1-1.008-1.578l1.18-.336a1.645,1.645,0,0,0,.629,1.066,2.04,2.04,0,0,0,1.262.379,2.518,2.518,0,0,0,.738-.1,1.184,1.184,0,0,0,.566-.379,1.057,1.057,0,0,0,.164-1.016,1.357,1.357,0,0,0-.125-.254.773.773,0,0,0-.219-.211,2.886,2.886,0,0,0-.266-.164,2.726,2.726,0,0,0-.348-.145q-.23-.082-.371-.125t-.43-.125q-.289-.082-.445-.129a8.332,8.332,0,0,1-.8-.281,3.5,3.5,0,0,1-.648-.371,1.493,1.493,0,0,1-.5-.605,2.049,2.049,0,0,1-.168-.859,1.986,1.986,0,0,1,.375-1.227,2.11,2.11,0,0,1,.973-.723,3.888,3.888,0,0,1,1.363-.223,3.337,3.337,0,0,1,1.871.5,2.134,2.134,0,0,1,.934,1.5l-1.109.281a1.471,1.471,0,0,0-.586-.973,1.865,1.865,0,0,0-1.1-.324,1.9,1.9,0,0,0-1.031.27.906.906,0,0,0-.43.824.82.82,0,0,0,.113.426,1.352,1.352,0,0,0,.23.3,1.417,1.417,0,0,0,.422.23q.3.121.453.164t.563.145q.078.023.117.031.453.117.738.207a4.538,4.538,0,0,1,.664.281,2.208,2.208,0,0,1,.6.418,1.936,1.936,0,0,1,.375.594,2.1,2.1,0,0,1,.156.828,2.236,2.236,0,0,1-.23,1.035,1.8,1.8,0,0,1-.629.707,3.042,3.042,0,0,1-.895.387A4.262,4.262,0,0,1,404.531,16.148Zm6.008,2.672h-.984l.953-4.844h1.414Zm11.359-2.68a3.7,3.7,0,0,1-2.75-1.1,3.929,3.929,0,0,1-1.086-2.883,3.937,3.937,0,0,1,1.082-2.883,4,4,0,0,1,4.977-.43,3.391,3.391,0,0,1,1.293,1.867l-1.266.2a2.337,2.337,0,0,0-.867-1.2,2.361,2.361,0,0,0-1.391-.422,2.27,2.27,0,0,0-1.777.789,3.006,3.006,0,0,0-.7,2.07,2.991,2.991,0,0,0,.7,2.066,2.275,2.275,0,0,0,1.777.785,2.361,2.361,0,0,0,1.391-.422,2.337,2.337,0,0,0,.867-1.2l1.266.211a3.4,3.4,0,0,1-1.3,1.863A3.72,3.72,0,0,1,421.9,16.141Zm8.742.008a4.048,4.048,0,0,1-1.969-.477,3.47,3.47,0,0,1-1.387-1.395,4.283,4.283,0,0,1-.512-2.121,3.912,3.912,0,0,1,1.09-2.895,4.089,4.089,0,0,1,5.559,0,3.92,3.92,0,0,1,1.086,2.895,3.923,3.923,0,0,1-1.09,2.9A3.762,3.762,0,0,1,430.641,16.148Zm-.008-1.125a2.359,2.359,0,0,0,1.816-.789,2.957,2.957,0,0,0,.723-2.078,2.945,2.945,0,0,0-.723-2.07,2.359,2.359,0,0,0-1.816-.789,2.326,2.326,0,0,0-1.8.789,2.965,2.965,0,0,0-.715,2.07,2.976,2.976,0,0,0,.715,2.078A2.326,2.326,0,0,0,430.633,15.023Zm5.992.977V4h1.367V16Zm10.836-3.992-.016.367h-6a2.714,2.714,0,0,0,.734,1.965,2.411,2.411,0,0,0,1.75.684,2.3,2.3,0,0,0,1.273-.367,2.383,2.383,0,0,0,.875-1.016l1.219.258a3.464,3.464,0,0,1-1.312,1.648,3.581,3.581,0,0,1-2.039.6,3.71,3.71,0,0,1-2.766-1.07,3.982,3.982,0,0,1-1.055-2.922,3.963,3.963,0,0,1,1.059-2.914,3.664,3.664,0,0,1,2.723-1.07,3.467,3.467,0,0,1,2.582.984A3.889,3.889,0,0,1,447.461,12.008Zm-3.555-2.8a2.4,2.4,0,0,0-1.6.543,2.488,2.488,0,0,0-.809,1.582h4.6a2.282,2.282,0,0,0-.672-1.582A2.17,2.17,0,0,0,443.906,9.211Zm8.859,6.93a3.7,3.7,0,0,1-2.75-1.1,3.929,3.929,0,0,1-1.086-2.883,3.937,3.937,0,0,1,1.082-2.883,4,4,0,0,1,4.977-.43,3.391,3.391,0,0,1,1.293,1.867l-1.266.2a2.337,2.337,0,0,0-.867-1.2,2.361,2.361,0,0,0-1.391-.422,2.27,2.27,0,0,0-1.777.789,3.006,3.006,0,0,0-.7,2.07,2.991,2.991,0,0,0,.7,2.066,2.275,2.275,0,0,0,1.777.785,2.361,2.361,0,0,0,1.391-.422,2.337,2.337,0,0,0,.867-1.2l1.266.211a3.4,3.4,0,0,1-1.3,1.863A3.72,3.72,0,0,1,452.766,16.141ZM460.727,16a2.019,2.019,0,0,1-1.5-.551,2.084,2.084,0,0,1-.547-1.535V9.4h-1.57V8.32h.578a1.11,1.11,0,0,0,.848-.27,1.326,1.326,0,0,0,.246-.9V5.758h1.258V8.32H461.8V9.4h-1.766v4.375a1.164,1.164,0,0,0,.293.848,1.026,1.026,0,0,0,.77.3h.7V16Zm3.719-9.484a.92.92,0,0,1-.914-.914.867.867,0,0,1,.27-.641.886.886,0,0,1,.645-.266.877.877,0,0,1,.637.266.867.867,0,0,1,.27.641.88.88,0,0,1-.27.645A.871.871,0,0,1,464.445,6.516ZM463.758,16V8.32h1.359V16Zm8.9-7.68H474.1L470.977,16h-1.148l-3.109-7.68h1.438l2.25,6.109Zm4.516,7.828a2.613,2.613,0,0,1-1.684-.527,1.894,1.894,0,0,1-.66-1.574,2.237,2.237,0,0,1,.211-1,1.77,1.77,0,0,1,.625-.7,3.749,3.749,0,0,1,.9-.434,8.342,8.342,0,0,1,1.168-.277l1.242-.2q.68-.125.68-.711a1.342,1.342,0,0,0-.48-1.145,1.958,1.958,0,0,0-1.215-.363,1.994,1.994,0,0,0-1.2.352,1.471,1.471,0,0,0-.57,1.078l-1.219-.258a2.346,2.346,0,0,1,.961-1.645,3.59,3.59,0,0,1,2.094-.551,4.247,4.247,0,0,1,1.113.137,3.025,3.025,0,0,1,.93.43,1.927,1.927,0,0,1,.664.828,3.081,3.081,0,0,1,.238,1.262v3.172a1.3,1.3,0,0,0,.176.8.759.759,0,0,0,.605.207h.125V16H481.2a1.281,1.281,0,0,1-1.453-1.039h-.062A2.935,2.935,0,0,1,477.172,16.148Zm.313-1.094a2.049,2.049,0,0,0,1.648-.742,3.056,3.056,0,0,0,.625-2.031l-2.031.391a2.734,2.734,0,0,0-1.191.426.99.99,0,0,0-.387.84.979.979,0,0,0,.371.844A1.586,1.586,0,0,0,477.484,15.055Zm8.727,1.094a3.641,3.641,0,0,1-2.07-.555,2.294,2.294,0,0,1-1.008-1.578l1.18-.336a1.645,1.645,0,0,0,.629,1.066,2.04,2.04,0,0,0,1.262.379,2.518,2.518,0,0,0,.738-.1,1.184,1.184,0,0,0,.566-.379,1.057,1.057,0,0,0,.164-1.016,1.357,1.357,0,0,0-.125-.254.773.773,0,0,0-.219-.211,2.886,2.886,0,0,0-.266-.164,2.726,2.726,0,0,0-.348-.145q-.23-.082-.371-.125t-.43-.125q-.289-.082-.445-.129a8.332,8.332,0,0,1-.8-.281,3.5,3.5,0,0,1-.648-.371,1.493,1.493,0,0,1-.5-.605,2.049,2.049,0,0,1-.168-.859,1.986,1.986,0,0,1,.375-1.227,2.11,2.11,0,0,1,.973-.723,3.888,3.888,0,0,1,1.363-.223,3.337,3.337,0,0,1,1.871.5,2.134,2.134,0,0,1,.934,1.5l-1.109.281a1.471,1.471,0,0,0-.586-.973,1.865,1.865,0,0,0-1.1-.324,1.9,1.9,0,0,0-1.031.27.906.906,0,0,0-.43.824.82.82,0,0,0,.113.426,1.352,1.352,0,0,0,.23.3,1.417,1.417,0,0,0,.422.23q.3.121.453.164t.563.145q.078.023.117.031.453.117.738.207a4.538,4.538,0,0,1,.664.281,2.208,2.208,0,0,1,.6.418,1.936,1.936,0,0,1,.375.594,2.1,2.1,0,0,1,.156.828,2.236,2.236,0,0,1-.23,1.035,1.8,1.8,0,0,1-.629.707,3.042,3.042,0,0,1-.895.387A4.262,4.262,0,0,1,486.211,16.148ZM6.109,32.32h1.43l-4.445,11.3H1.7l1.539-3.8L.25,32.32h1.5L3.914,38.3Zm11.266-.148a3.493,3.493,0,0,1,1.391.281,3.421,3.421,0,0,1,1.141.789,3.688,3.688,0,0,1,.77,1.266,4.667,4.667,0,0,1,.285,1.656,4.061,4.061,0,0,1-1.035,2.9,3.362,3.362,0,0,1-2.551,1.1,3.04,3.04,0,0,1-1.605-.437,2.867,2.867,0,0,1-1.1-1.18v5.32H13.32V32.32h1.3l.031,1.492a2.811,2.811,0,0,1,1.094-1.2A3.068,3.068,0,0,1,17.375,32.172Zm-.266,6.82a2.332,2.332,0,0,0,1.777-.777,3.266,3.266,0,0,0,0-4.1,2.423,2.423,0,0,0-3.582.035,3.133,3.133,0,0,0,0,4.031A2.343,2.343,0,0,0,17.109,38.992Zm9.219,1.156a4.048,4.048,0,0,1-1.969-.477,3.47,3.47,0,0,1-1.387-1.395,4.283,4.283,0,0,1-.512-2.121,3.912,3.912,0,0,1,1.09-2.895,4.089,4.089,0,0,1,5.559,0A3.92,3.92,0,0,1,30.2,36.156a3.923,3.923,0,0,1-1.09,2.9A3.762,3.762,0,0,1,26.328,40.148Zm-.008-1.125a2.359,2.359,0,0,0,1.816-.789,3.338,3.338,0,0,0,0-4.148A2.359,2.359,0,0,0,26.32,33.3a2.326,2.326,0,0,0-1.8.789,3.367,3.367,0,0,0,0,4.148A2.326,2.326,0,0,0,26.32,39.023Zm10.063-6.852a3.346,3.346,0,0,1,2.539,1.109,4.543,4.543,0,0,1,.008,5.773,3.339,3.339,0,0,1-2.547,1.109,3.082,3.082,0,0,1-1.637-.445,2.818,2.818,0,0,1-1.1-1.211L33.617,40h-1.3V28h1.344l.008,5.789a2.83,2.83,0,0,1,1.1-1.184A3.09,3.09,0,0,1,36.383,32.172Zm-.3,6.82a2.35,2.35,0,0,0,1.8-.785,3.236,3.236,0,0,0,0-4.086,2.35,2.35,0,0,0-1.8-.785,2.3,2.3,0,0,0-1.781.813,3.171,3.171,0,0,0,0,4.035A2.3,2.3,0,0,0,36.086,38.992Zm6,1.008V28h1.367V40Zm5.891.148a2.613,2.613,0,0,1-1.684-.527,1.894,1.894,0,0,1-.66-1.574,2.237,2.237,0,0,1,.211-1,1.77,1.77,0,0,1,.625-.7,3.749,3.749,0,0,1,.9-.434,8.341,8.341,0,0,1,1.168-.277l1.242-.2q.68-.125.68-.711a1.342,1.342,0,0,0-.48-1.145,1.958,1.958,0,0,0-1.215-.363,1.994,1.994,0,0,0-1.2.352,1.471,1.471,0,0,0-.57,1.078l-1.219-.258a2.346,2.346,0,0,1,.961-1.645,3.59,3.59,0,0,1,2.094-.551,4.247,4.247,0,0,1,1.113.137,3.025,3.025,0,0,1,.93.43,1.927,1.927,0,0,1,.664.828,3.081,3.081,0,0,1,.238,1.262v3.172a1.3,1.3,0,0,0,.176.8.759.759,0,0,0,.605.207h.125V40h-.672a1.281,1.281,0,0,1-1.453-1.039h-.062A2.935,2.935,0,0,1,47.977,40.148Zm.313-1.094a2.049,2.049,0,0,0,1.648-.742,3.056,3.056,0,0,0,.625-2.031l-2.031.391a2.734,2.734,0,0,0-1.191.426.99.99,0,0,0-.387.84.979.979,0,0,0,.371.844A1.586,1.586,0,0,0,48.289,39.055Zm9.328,1.086a3.7,3.7,0,0,1-2.75-1.1,4.375,4.375,0,0,1,0-5.766,4,4,0,0,1,4.977-.43,3.391,3.391,0,0,1,1.293,1.867l-1.266.2a2.337,2.337,0,0,0-.867-1.2,2.361,2.361,0,0,0-1.391-.422,2.27,2.27,0,0,0-1.777.789,3.409,3.409,0,0,0,0,4.137,2.275,2.275,0,0,0,1.777.785A2.361,2.361,0,0,0,59,38.586a2.337,2.337,0,0,0,.867-1.2l1.266.211a3.4,3.4,0,0,1-1.3,1.863A3.72,3.72,0,0,1,57.617,40.141Zm6.2-9.625A.92.92,0,0,1,62.9,29.6a.867.867,0,0,1,.27-.641.886.886,0,0,1,.645-.266.877.877,0,0,1,.637.266.867.867,0,0,1,.27.641.88.88,0,0,1-.27.645A.871.871,0,0,1,63.813,30.516ZM63.125,40V32.32h1.359V40Zm7.344.148a4.048,4.048,0,0,1-1.969-.477,3.47,3.47,0,0,1-1.387-1.395,4.283,4.283,0,0,1-.512-2.121,3.912,3.912,0,0,1,1.09-2.895,4.089,4.089,0,0,1,5.559,0,3.92,3.92,0,0,1,1.086,2.895,3.923,3.923,0,0,1-1.09,2.9A3.762,3.762,0,0,1,70.469,40.148Zm-.008-1.125a2.359,2.359,0,0,0,1.816-.789,3.338,3.338,0,0,0,0-4.148,2.359,2.359,0,0,0-1.816-.789,2.326,2.326,0,0,0-1.8.789,3.367,3.367,0,0,0,0,4.148A2.326,2.326,0,0,0,70.461,39.023Zm9.617-6.852a2.671,2.671,0,0,1,1.934.7,2.594,2.594,0,0,1,.723,1.961V40H81.383V35.133a1.816,1.816,0,0,0-.469-1.375,1.676,1.676,0,0,0-1.2-.445,1.858,1.858,0,0,0-1.367.527,2.14,2.14,0,0,0-.539,1.566V40H76.453V32.32H77.8V33.3A2.565,2.565,0,0,1,80.078,32.172Zm7.039,7.977a2.613,2.613,0,0,1-1.684-.527,1.894,1.894,0,0,1-.66-1.574,2.237,2.237,0,0,1,.211-1,1.77,1.77,0,0,1,.625-.7,3.749,3.749,0,0,1,.9-.434,8.342,8.342,0,0,1,1.168-.277l1.242-.2q.68-.125.68-.711a1.342,1.342,0,0,0-.48-1.145,1.958,1.958,0,0,0-1.215-.363,1.994,1.994,0,0,0-1.2.352,1.471,1.471,0,0,0-.57,1.078l-1.219-.258a2.346,2.346,0,0,1,.961-1.645,3.59,3.59,0,0,1,2.094-.551,4.247,4.247,0,0,1,1.113.137,3.025,3.025,0,0,1,.93.43,1.927,1.927,0,0,1,.664.828,3.081,3.081,0,0,1,.238,1.262v3.172a1.3,1.3,0,0,0,.176.8.759.759,0,0,0,.605.207h.125V40h-.672A1.281,1.281,0,0,1,89.7,38.961h-.062A2.935,2.935,0,0,1,87.117,40.148Zm.313-1.094a2.049,2.049,0,0,0,1.648-.742,3.056,3.056,0,0,0,.625-2.031l-2.031.391a2.734,2.734,0,0,0-1.191.426.99.99,0,0,0-.387.84.979.979,0,0,0,.371.844A1.586,1.586,0,0,0,87.43,39.055Zm6.3.945V28h1.367V40Zm10.836-3.992-.016.367h-6a2.714,2.714,0,0,0,.734,1.965,2.411,2.411,0,0,0,1.75.684,2.3,2.3,0,0,0,1.273-.367,2.383,2.383,0,0,0,.875-1.016l1.219.258a3.464,3.464,0,0,1-1.312,1.648,3.581,3.581,0,0,1-2.039.6,3.71,3.71,0,0,1-2.766-1.07,3.982,3.982,0,0,1-1.055-2.922,3.962,3.962,0,0,1,1.059-2.914,3.664,3.664,0,0,1,2.723-1.07,3.467,3.467,0,0,1,2.582.984A3.889,3.889,0,0,1,104.563,36.008Zm-3.555-2.8a2.4,2.4,0,0,0-1.6.543,2.488,2.488,0,0,0-.809,1.582h4.6a2.282,2.282,0,0,0-.672-1.582A2.17,2.17,0,0,0,101.008,33.211Zm8.1,6.938a3.641,3.641,0,0,1-2.07-.555,2.294,2.294,0,0,1-1.008-1.578l1.18-.336a1.645,1.645,0,0,0,.629,1.066,2.04,2.04,0,0,0,1.262.379,2.518,2.518,0,0,0,.738-.1,1.184,1.184,0,0,0,.566-.379,1.057,1.057,0,0,0,.164-1.016,1.357,1.357,0,0,0-.125-.254.774.774,0,0,0-.219-.211,2.885,2.885,0,0,0-.266-.164,2.726,2.726,0,0,0-.348-.145q-.23-.082-.371-.125t-.43-.125q-.289-.082-.445-.129a8.33,8.33,0,0,1-.8-.281,3.5,3.5,0,0,1-.648-.371,1.493,1.493,0,0,1-.5-.605,2.049,2.049,0,0,1-.168-.859,1.986,1.986,0,0,1,.375-1.227,2.11,2.11,0,0,1,.973-.723,3.888,3.888,0,0,1,1.363-.223,3.337,3.337,0,0,1,1.871.5,2.134,2.134,0,0,1,.934,1.5l-1.109.281a1.471,1.471,0,0,0-.586-.973,1.865,1.865,0,0,0-1.1-.324,1.9,1.9,0,0,0-1.031.27.906.906,0,0,0-.43.824.82.82,0,0,0,.113.426,1.352,1.352,0,0,0,.23.3,1.417,1.417,0,0,0,.422.23q.3.121.453.164t.563.145q.078.023.117.031.453.117.738.207a4.538,4.538,0,0,1,.664.281,2.208,2.208,0,0,1,.6.418,1.936,1.936,0,0,1,.375.594,2.1,2.1,0,0,1,.156.828,2.237,2.237,0,0,1-.23,1.035,1.8,1.8,0,0,1-.629.707,3.042,3.042,0,0,1-.895.387A4.262,4.262,0,0,1,109.109,40.148Zm13.164-7.977a3.493,3.493,0,0,1,1.391.281,3.421,3.421,0,0,1,1.141.789,3.688,3.688,0,0,1,.77,1.266,4.667,4.667,0,0,1,.285,1.656,4.061,4.061,0,0,1-1.035,2.9,3.362,3.362,0,0,1-2.551,1.1,3.04,3.04,0,0,1-1.605-.437,2.867,2.867,0,0,1-1.1-1.18v5.32h-1.352V32.32h1.3l.031,1.492a2.811,2.811,0,0,1,1.094-1.2A3.068,3.068,0,0,1,122.273,32.172Zm-.266,6.82a2.332,2.332,0,0,0,1.777-.777,3.266,3.266,0,0,0,0-4.1,2.423,2.423,0,0,0-3.582.035,3.133,3.133,0,0,0,0,4.031A2.343,2.343,0,0,0,122.008,38.992Zm7.758,1.156a2.613,2.613,0,0,1-1.684-.527,1.894,1.894,0,0,1-.66-1.574,2.237,2.237,0,0,1,.211-1,1.77,1.77,0,0,1,.625-.7,3.749,3.749,0,0,1,.9-.434,8.341,8.341,0,0,1,1.168-.277l1.242-.2q.68-.125.68-.711a1.342,1.342,0,0,0-.48-1.145,1.958,1.958,0,0,0-1.215-.363,1.994,1.994,0,0,0-1.2.352,1.471,1.471,0,0,0-.57,1.078l-1.219-.258a2.346,2.346,0,0,1,.961-1.645,3.59,3.59,0,0,1,2.094-.551,4.247,4.247,0,0,1,1.113.137,3.026,3.026,0,0,1,.93.43,1.927,1.927,0,0,1,.664.828,3.081,3.081,0,0,1,.238,1.262v3.172a1.3,1.3,0,0,0,.176.8.759.759,0,0,0,.605.207h.125V40H133.8a1.281,1.281,0,0,1-1.453-1.039h-.062A2.935,2.935,0,0,1,129.766,40.148Zm.313-1.094a2.049,2.049,0,0,0,1.648-.742,3.056,3.056,0,0,0,.625-2.031l-2.031.391a2.734,2.734,0,0,0-1.191.426.99.99,0,0,0-.387.84.979.979,0,0,0,.371.844A1.586,1.586,0,0,0,130.078,39.055Zm7.617-5.383a2.322,2.322,0,0,1,.953-1.031,2.87,2.87,0,0,1,1.477-.406v1.273a2.53,2.53,0,0,0-1.785.57,2.382,2.382,0,0,0-.613,1.82V40h-1.352V32.32h1.32Zm5.7,6.477a2.613,2.613,0,0,1-1.684-.527,1.894,1.894,0,0,1-.66-1.574,2.237,2.237,0,0,1,.211-1,1.77,1.77,0,0,1,.625-.7,3.749,3.749,0,0,1,.9-.434,8.341,8.341,0,0,1,1.168-.277l1.242-.2q.68-.125.68-.711a1.342,1.342,0,0,0-.48-1.145,1.958,1.958,0,0,0-1.215-.363,1.994,1.994,0,0,0-1.2.352,1.471,1.471,0,0,0-.57,1.078l-1.219-.258a2.346,2.346,0,0,1,.961-1.645,3.59,3.59,0,0,1,2.094-.551,4.247,4.247,0,0,1,1.113.137,3.026,3.026,0,0,1,.93.43,1.927,1.927,0,0,1,.664.828,3.081,3.081,0,0,1,.238,1.262v3.172a1.3,1.3,0,0,0,.176.8.759.759,0,0,0,.605.207h.125V40h-.672a1.281,1.281,0,0,1-1.453-1.039h-.062A2.935,2.935,0,0,1,143.391,40.148Zm.313-1.094a2.049,2.049,0,0,0,1.648-.742,3.056,3.056,0,0,0,.625-2.031l-2.031.391a2.734,2.734,0,0,0-1.191.426.99.99,0,0,0-.387.84.979.979,0,0,0,.371.844A1.586,1.586,0,0,0,143.7,39.055Zm12.227,1.094a2.613,2.613,0,0,1-1.684-.527,1.894,1.894,0,0,1-.66-1.574,2.237,2.237,0,0,1,.211-1,1.77,1.77,0,0,1,.625-.7,3.749,3.749,0,0,1,.9-.434,8.341,8.341,0,0,1,1.168-.277l1.242-.2q.68-.125.68-.711a1.342,1.342,0,0,0-.48-1.145,1.958,1.958,0,0,0-1.215-.363,1.994,1.994,0,0,0-1.2.352,1.471,1.471,0,0,0-.57,1.078l-1.219-.258a2.346,2.346,0,0,1,.961-1.645,3.59,3.59,0,0,1,2.094-.551,4.247,4.247,0,0,1,1.113.137,3.026,3.026,0,0,1,.93.43,1.927,1.927,0,0,1,.664.828,3.081,3.081,0,0,1,.238,1.262v3.172a1.3,1.3,0,0,0,.176.8.759.759,0,0,0,.605.207h.125V40h-.672a1.281,1.281,0,0,1-1.453-1.039h-.062A2.935,2.935,0,0,1,155.93,40.148Zm.313-1.094a2.049,2.049,0,0,0,1.648-.742,3.056,3.056,0,0,0,.625-2.031l-2.031.391a2.734,2.734,0,0,0-1.191.426.99.99,0,0,0-.387.84.979.979,0,0,0,.371.844A1.586,1.586,0,0,0,156.242,39.055Zm9.328,1.086a3.7,3.7,0,0,1-2.75-1.1,4.375,4.375,0,0,1,0-5.766,4,4,0,0,1,4.977-.43,3.391,3.391,0,0,1,1.293,1.867l-1.266.2a2.337,2.337,0,0,0-.867-1.2,2.361,2.361,0,0,0-1.391-.422,2.27,2.27,0,0,0-1.777.789,3.409,3.409,0,0,0,0,4.137,2.275,2.275,0,0,0,1.777.785,2.361,2.361,0,0,0,1.391-.422,2.337,2.337,0,0,0,.867-1.2l1.266.211a3.4,3.4,0,0,1-1.3,1.863A3.72,3.72,0,0,1,165.57,40.141Zm8.7,0a3.7,3.7,0,0,1-2.75-1.1,4.375,4.375,0,0,1,0-5.766,4,4,0,0,1,4.977-.43,3.391,3.391,0,0,1,1.293,1.867l-1.266.2a2.337,2.337,0,0,0-.867-1.2,2.361,2.361,0,0,0-1.391-.422,2.27,2.27,0,0,0-1.777.789,3.409,3.409,0,0,0,0,4.137,2.275,2.275,0,0,0,1.777.785,2.361,2.361,0,0,0,1.391-.422,2.337,2.337,0,0,0,.867-1.2l1.266.211a3.4,3.4,0,0,1-1.3,1.863A3.72,3.72,0,0,1,174.266,40.141Zm6.2-9.625a.92.92,0,0,1-.914-.914.867.867,0,0,1,.27-.641.886.886,0,0,1,.645-.266.877.877,0,0,1,.637.266.867.867,0,0,1,.27.641.88.88,0,0,1-.27.645A.871.871,0,0,1,180.461,30.516ZM179.773,40V32.32h1.359V40Zm7.344.148a4.048,4.048,0,0,1-1.969-.477,3.47,3.47,0,0,1-1.387-1.395,4.284,4.284,0,0,1-.512-2.121,3.912,3.912,0,0,1,1.09-2.895,4.089,4.089,0,0,1,5.559,0,3.92,3.92,0,0,1,1.086,2.895,3.923,3.923,0,0,1-1.09,2.9A3.762,3.762,0,0,1,187.117,40.148Zm-.008-1.125a2.359,2.359,0,0,0,1.816-.789,3.338,3.338,0,0,0,0-4.148,2.359,2.359,0,0,0-1.816-.789,2.326,2.326,0,0,0-1.8.789,3.367,3.367,0,0,0,0,4.148A2.326,2.326,0,0,0,187.109,39.023Zm9.617-6.852a2.671,2.671,0,0,1,1.934.7,2.594,2.594,0,0,1,.723,1.961V40h-1.352V35.133a1.816,1.816,0,0,0-.469-1.375,1.676,1.676,0,0,0-1.2-.445,1.858,1.858,0,0,0-1.367.527,2.14,2.14,0,0,0-.539,1.566V40H193.1V32.32h1.352V33.3A2.565,2.565,0,0,1,196.727,32.172Zm11.984,3.836-.016.367h-6a2.714,2.714,0,0,0,.734,1.965,2.411,2.411,0,0,0,1.75.684,2.3,2.3,0,0,0,1.273-.367,2.383,2.383,0,0,0,.875-1.016l1.219.258a3.464,3.464,0,0,1-1.312,1.648,3.581,3.581,0,0,1-2.039.6,3.71,3.71,0,0,1-2.766-1.07,3.982,3.982,0,0,1-1.055-2.922,3.962,3.962,0,0,1,1.059-2.914,3.664,3.664,0,0,1,2.723-1.07,3.467,3.467,0,0,1,2.582.984A3.889,3.889,0,0,1,208.711,36.008Zm-3.555-2.8a2.4,2.4,0,0,0-1.6.543,2.488,2.488,0,0,0-.809,1.582h4.6a2.282,2.282,0,0,0-.672-1.582A2.17,2.17,0,0,0,205.156,33.211Zm8.1,6.938a3.641,3.641,0,0,1-2.07-.555,2.294,2.294,0,0,1-1.008-1.578l1.18-.336a1.645,1.645,0,0,0,.629,1.066,2.04,2.04,0,0,0,1.262.379,2.518,2.518,0,0,0,.738-.1,1.183,1.183,0,0,0,.566-.379,1.057,1.057,0,0,0,.164-1.016,1.356,1.356,0,0,0-.125-.254.774.774,0,0,0-.219-.211,2.884,2.884,0,0,0-.266-.164,2.727,2.727,0,0,0-.348-.145q-.23-.082-.371-.125t-.43-.125q-.289-.082-.445-.129a8.329,8.329,0,0,1-.8-.281,3.5,3.5,0,0,1-.648-.371,1.493,1.493,0,0,1-.5-.605,2.048,2.048,0,0,1-.168-.859,1.986,1.986,0,0,1,.375-1.227,2.11,2.11,0,0,1,.973-.723,3.888,3.888,0,0,1,1.363-.223,3.337,3.337,0,0,1,1.871.5,2.134,2.134,0,0,1,.934,1.5l-1.109.281a1.471,1.471,0,0,0-.586-.973,1.866,1.866,0,0,0-1.1-.324,1.9,1.9,0,0,0-1.031.27.906.906,0,0,0-.43.824.82.82,0,0,0,.113.426,1.352,1.352,0,0,0,.23.3,1.417,1.417,0,0,0,.422.23q.3.121.453.164t.563.145q.078.023.117.031.453.117.738.207a4.538,4.538,0,0,1,.664.281,2.208,2.208,0,0,1,.6.418,1.937,1.937,0,0,1,.375.594,2.1,2.1,0,0,1,.156.828,2.237,2.237,0,0,1-.23,1.035,1.8,1.8,0,0,1-.629.707,3.042,3.042,0,0,1-.895.387A4.262,4.262,0,0,1,213.258,40.148ZM228.039,28h1.352V40h-1.3l-.031-1.492a2.826,2.826,0,0,1-1.094,1.211,3.048,3.048,0,0,1-1.625.445,3.49,3.49,0,0,1-2.535-1.082,3.7,3.7,0,0,1-.773-1.27,4.644,4.644,0,0,1-.285-1.648,4.038,4.038,0,0,1,1.043-2.883,3.367,3.367,0,0,1,2.551-1.109,3.061,3.061,0,0,1,1.605.434,2.842,2.842,0,0,1,1.1,1.176Zm-2.422,10.992a2.3,2.3,0,0,0,1.785-.809,3.171,3.171,0,0,0,0-4.035,2.3,2.3,0,0,0-1.781-.812,2.35,2.35,0,0,0-1.8.785,3.236,3.236,0,0,0,0,4.086A2.35,2.35,0,0,0,225.617,38.992Zm13.242-2.984-.016.367h-6a2.714,2.714,0,0,0,.734,1.965,2.411,2.411,0,0,0,1.75.684,2.3,2.3,0,0,0,1.273-.367,2.383,2.383,0,0,0,.875-1.016l1.219.258a3.464,3.464,0,0,1-1.312,1.648,3.581,3.581,0,0,1-2.039.6,3.71,3.71,0,0,1-2.766-1.07,3.982,3.982,0,0,1-1.055-2.922,3.962,3.962,0,0,1,1.059-2.914,3.664,3.664,0,0,1,2.723-1.07,3.467,3.467,0,0,1,2.582.984A3.889,3.889,0,0,1,238.859,36.008Zm-3.555-2.8a2.4,2.4,0,0,0-1.6.543,2.488,2.488,0,0,0-.809,1.582h4.6a2.282,2.282,0,0,0-.672-1.582A2.17,2.17,0,0,0,235.3,33.211ZM250.7,32.32h1.313v7.289a4.183,4.183,0,0,1-.992,2.992,4.131,4.131,0,0,1-6.477-1.3l1.117-.547a2.539,2.539,0,0,0,2.57,1.773,2.2,2.2,0,0,0,1.8-.75,3.192,3.192,0,0,0,.621-2.094V38.258a2.707,2.707,0,0,1-1.094,1.105,3.182,3.182,0,0,1-1.6.418,3.293,3.293,0,0,1-2.484-1.082,4.138,4.138,0,0,1,0-5.453,3.325,3.325,0,0,1,2.5-1.074,3.1,3.1,0,0,1,1.609.43,2.766,2.766,0,0,1,1.086,1.133Zm-2.437,6.313a2.323,2.323,0,0,0,1.77-.789,2.787,2.787,0,0,0,0-3.758,2.407,2.407,0,0,0-3.543-.023,2.849,2.849,0,0,0,.008,3.8A2.341,2.341,0,0,0,248.258,38.633Zm13.219-2.625-.016.367h-6a2.714,2.714,0,0,0,.734,1.965,2.411,2.411,0,0,0,1.75.684,2.3,2.3,0,0,0,1.273-.367,2.383,2.383,0,0,0,.875-1.016l1.219.258A3.464,3.464,0,0,1,260,39.547a3.581,3.581,0,0,1-2.039.6,3.71,3.71,0,0,1-2.766-1.07,3.982,3.982,0,0,1-1.055-2.922,3.962,3.962,0,0,1,1.059-2.914,3.664,3.664,0,0,1,2.723-1.07,3.467,3.467,0,0,1,2.582.984A3.889,3.889,0,0,1,261.477,36.008Zm-3.555-2.8a2.4,2.4,0,0,0-1.6.543,2.488,2.488,0,0,0-.809,1.582h4.6a2.282,2.282,0,0,0-.672-1.582A2.17,2.17,0,0,0,257.922,33.211Zm8.1,6.938a3.641,3.641,0,0,1-2.07-.555,2.294,2.294,0,0,1-1.008-1.578l1.18-.336a1.645,1.645,0,0,0,.629,1.066,2.04,2.04,0,0,0,1.262.379,2.518,2.518,0,0,0,.738-.1,1.184,1.184,0,0,0,.566-.379,1.057,1.057,0,0,0,.164-1.016,1.357,1.357,0,0,0-.125-.254.773.773,0,0,0-.219-.211,2.886,2.886,0,0,0-.266-.164,2.726,2.726,0,0,0-.348-.145q-.23-.082-.371-.125t-.43-.125q-.289-.082-.445-.129a8.332,8.332,0,0,1-.8-.281,3.5,3.5,0,0,1-.648-.371,1.493,1.493,0,0,1-.5-.605,2.049,2.049,0,0,1-.168-.859,1.986,1.986,0,0,1,.375-1.227,2.11,2.11,0,0,1,.973-.723,3.888,3.888,0,0,1,1.363-.223,3.337,3.337,0,0,1,1.871.5,2.134,2.134,0,0,1,.934,1.5l-1.109.281a1.471,1.471,0,0,0-.586-.973,1.865,1.865,0,0,0-1.1-.324,1.9,1.9,0,0,0-1.031.27.906.906,0,0,0-.43.824.82.82,0,0,0,.113.426,1.352,1.352,0,0,0,.23.3,1.417,1.417,0,0,0,.422.23q.3.121.453.164t.563.145q.078.023.117.031.453.117.738.207a4.538,4.538,0,0,1,.664.281,2.208,2.208,0,0,1,.6.418,1.936,1.936,0,0,1,.375.594,2.1,2.1,0,0,1,.156.828,2.236,2.236,0,0,1-.23,1.035,1.8,1.8,0,0,1-.629.707,3.042,3.042,0,0,1-.895.387A4.262,4.262,0,0,1,266.023,40.148ZM273.43,40a2.019,2.019,0,0,1-1.5-.551,2.084,2.084,0,0,1-.547-1.535V33.4h-1.57V32.32h.578a1.11,1.11,0,0,0,.848-.27,1.326,1.326,0,0,0,.246-.9V29.758h1.258V32.32h1.766V33.4h-1.766v4.375a1.164,1.164,0,0,0,.293.848,1.026,1.026,0,0,0,.77.3h.7V40Zm3.719-9.484a.92.92,0,0,1-.914-.914.867.867,0,0,1,.27-.641.886.886,0,0,1,.645-.266.877.877,0,0,1,.637.266.867.867,0,0,1,.27.641.88.88,0,0,1-.27.645A.871.871,0,0,1,277.148,30.516ZM276.461,40V32.32h1.359V40Zm6.828-9,1.961-2.547.719.523L284.219,31Zm.516,9.148a4.048,4.048,0,0,1-1.969-.477,3.47,3.47,0,0,1-1.387-1.395,4.283,4.283,0,0,1-.512-2.121,3.912,3.912,0,0,1,1.09-2.895,4.089,4.089,0,0,1,5.559,0,3.92,3.92,0,0,1,1.086,2.895,3.923,3.923,0,0,1-1.09,2.9A3.762,3.762,0,0,1,283.8,40.148Zm-.008-1.125a2.359,2.359,0,0,0,1.816-.789,3.338,3.338,0,0,0,0-4.148A2.359,2.359,0,0,0,283.8,33.3a2.326,2.326,0,0,0-1.8.789,3.367,3.367,0,0,0,0,4.148A2.326,2.326,0,0,0,283.8,39.023Zm9.617-6.852a2.671,2.671,0,0,1,1.934.7,2.594,2.594,0,0,1,.723,1.961V40h-1.352V35.133a1.816,1.816,0,0,0-.469-1.375,1.676,1.676,0,0,0-1.2-.445,1.858,1.858,0,0,0-1.367.527,2.14,2.14,0,0,0-.539,1.566V40h-1.352V32.32h1.352V33.3A2.565,2.565,0,0,1,293.414,32.172ZM308.508,28h1.352V40h-1.3l-.031-1.492a2.826,2.826,0,0,1-1.094,1.211,3.048,3.048,0,0,1-1.625.445,3.49,3.49,0,0,1-2.535-1.082,3.7,3.7,0,0,1-.773-1.27,4.644,4.644,0,0,1-.285-1.648,4.038,4.038,0,0,1,1.043-2.883,3.367,3.367,0,0,1,2.551-1.109,3.061,3.061,0,0,1,1.605.434,2.842,2.842,0,0,1,1.1,1.176Zm-2.422,10.992a2.3,2.3,0,0,0,1.785-.809,3.171,3.171,0,0,0,0-4.035,2.3,2.3,0,0,0-1.781-.812,2.35,2.35,0,0,0-1.8.785,3.236,3.236,0,0,0,0,4.086A2.35,2.35,0,0,0,306.086,38.992Zm13.242-2.984-.016.367h-6a2.714,2.714,0,0,0,.734,1.965,2.411,2.411,0,0,0,1.75.684,2.3,2.3,0,0,0,1.273-.367,2.383,2.383,0,0,0,.875-1.016l1.219.258a3.464,3.464,0,0,1-1.312,1.648,3.581,3.581,0,0,1-2.039.6,3.71,3.71,0,0,1-2.766-1.07,3.982,3.982,0,0,1-1.055-2.922,3.963,3.963,0,0,1,1.059-2.914,3.664,3.664,0,0,1,2.723-1.07,3.467,3.467,0,0,1,2.582.984A3.889,3.889,0,0,1,319.328,36.008Zm-3.555-2.8a2.4,2.4,0,0,0-1.6.543,2.488,2.488,0,0,0-.809,1.582h4.6a2.282,2.282,0,0,0-.672-1.582A2.17,2.17,0,0,0,315.773,33.211ZM325.6,40V28h1.367V40Zm5.891.148a2.613,2.613,0,0,1-1.684-.527,1.894,1.894,0,0,1-.66-1.574,2.237,2.237,0,0,1,.211-1,1.77,1.77,0,0,1,.625-.7,3.749,3.749,0,0,1,.9-.434,8.342,8.342,0,0,1,1.168-.277l1.242-.2q.68-.125.68-.711a1.342,1.342,0,0,0-.48-1.145,1.958,1.958,0,0,0-1.215-.363,1.994,1.994,0,0,0-1.2.352,1.471,1.471,0,0,0-.57,1.078l-1.219-.258a2.346,2.346,0,0,1,.961-1.645,3.59,3.59,0,0,1,2.094-.551,4.247,4.247,0,0,1,1.113.137,3.025,3.025,0,0,1,.93.43,1.927,1.927,0,0,1,.664.828,3.081,3.081,0,0,1,.238,1.262v3.172a1.3,1.3,0,0,0,.176.8.759.759,0,0,0,.605.207h.125V40h-.672a1.281,1.281,0,0,1-1.453-1.039h-.062A2.935,2.935,0,0,1,331.492,40.148Zm.313-1.094a2.049,2.049,0,0,0,1.648-.742,3.056,3.056,0,0,0,.625-2.031l-2.031.391a2.734,2.734,0,0,0-1.191.426.99.99,0,0,0-.387.84.979.979,0,0,0,.371.844A1.586,1.586,0,0,0,331.8,39.055Zm12.883,1.094a3.641,3.641,0,0,1-2.07-.555,2.294,2.294,0,0,1-1.008-1.578l1.18-.336a1.645,1.645,0,0,0,.629,1.066,2.04,2.04,0,0,0,1.262.379,2.518,2.518,0,0,0,.738-.1,1.184,1.184,0,0,0,.566-.379,1.057,1.057,0,0,0,.164-1.016,1.357,1.357,0,0,0-.125-.254.773.773,0,0,0-.219-.211,2.886,2.886,0,0,0-.266-.164,2.726,2.726,0,0,0-.348-.145q-.23-.082-.371-.125t-.43-.125q-.289-.082-.445-.129a8.332,8.332,0,0,1-.8-.281,3.5,3.5,0,0,1-.648-.371,1.493,1.493,0,0,1-.5-.605,2.049,2.049,0,0,1-.168-.859,1.986,1.986,0,0,1,.375-1.227,2.11,2.11,0,0,1,.973-.723,3.888,3.888,0,0,1,1.363-.223,3.337,3.337,0,0,1,1.871.5,2.134,2.134,0,0,1,.934,1.5l-1.109.281a1.471,1.471,0,0,0-.586-.973,1.865,1.865,0,0,0-1.1-.324,1.9,1.9,0,0,0-1.031.27.906.906,0,0,0-.43.824.82.82,0,0,0,.113.426,1.352,1.352,0,0,0,.23.3,1.417,1.417,0,0,0,.422.23q.3.121.453.164t.563.145q.078.023.117.031.453.117.738.207a4.538,4.538,0,0,1,.664.281,2.208,2.208,0,0,1,.6.418,1.936,1.936,0,0,1,.375.594,2.1,2.1,0,0,1,.156.828,2.236,2.236,0,0,1-.23,1.035,1.8,1.8,0,0,1-.629.707,3.042,3.042,0,0,1-.895.387A4.262,4.262,0,0,1,344.688,40.148Zm6.727,0a2.613,2.613,0,0,1-1.684-.527,1.894,1.894,0,0,1-.66-1.574,2.237,2.237,0,0,1,.211-1,1.77,1.77,0,0,1,.625-.7,3.749,3.749,0,0,1,.9-.434,8.342,8.342,0,0,1,1.168-.277l1.242-.2q.68-.125.68-.711a1.342,1.342,0,0,0-.48-1.145,1.958,1.958,0,0,0-1.215-.363,1.994,1.994,0,0,0-1.2.352,1.471,1.471,0,0,0-.57,1.078l-1.219-.258a2.346,2.346,0,0,1,.961-1.645,3.59,3.59,0,0,1,2.094-.551,4.247,4.247,0,0,1,1.113.137,3.025,3.025,0,0,1,.93.43,1.927,1.927,0,0,1,.664.828,3.081,3.081,0,0,1,.238,1.262v3.172a1.3,1.3,0,0,0,.176.8.759.759,0,0,0,.605.207h.125V40h-.672a1.281,1.281,0,0,1-1.453-1.039h-.062A2.935,2.935,0,0,1,351.414,40.148Zm.313-1.094a2.049,2.049,0,0,0,1.648-.742A3.056,3.056,0,0,0,354,36.281l-2.031.391a2.734,2.734,0,0,0-1.191.426.99.99,0,0,0-.387.84.979.979,0,0,0,.371.844A1.586,1.586,0,0,0,351.727,39.055Zm6.3.945V28h1.367V40Zm8.9-7.68h1.352V40h-1.3l-.031-1.016a2.4,2.4,0,0,1-.953.863,2.932,2.932,0,0,1-1.344.3,2.671,2.671,0,0,1-1.934-.7,2.594,2.594,0,0,1-.723-1.961V32.32h1.352v4.867a1.822,1.822,0,0,0,.473,1.375,1.673,1.673,0,0,0,1.207.453,1.837,1.837,0,0,0,1.363-.531,2.164,2.164,0,0,0,.535-1.57ZM376.7,28h1.352V40h-1.3l-.031-1.492a2.826,2.826,0,0,1-1.094,1.211,3.048,3.048,0,0,1-1.625.445,3.49,3.49,0,0,1-2.535-1.082,3.7,3.7,0,0,1-.773-1.27,4.644,4.644,0,0,1-.285-1.648,4.038,4.038,0,0,1,1.043-2.883,3.367,3.367,0,0,1,2.551-1.109,3.061,3.061,0,0,1,1.605.434,2.842,2.842,0,0,1,1.1,1.176Zm-2.422,10.992a2.3,2.3,0,0,0,1.785-.809,3.171,3.171,0,0,0,0-4.035,2.3,2.3,0,0,0-1.781-.812,2.35,2.35,0,0,0-1.8.785,3.236,3.236,0,0,0,0,4.086A2.35,2.35,0,0,0,374.273,38.992Zm14.734-6.82a3.493,3.493,0,0,1,1.391.281,3.421,3.421,0,0,1,1.141.789,3.688,3.688,0,0,1,.77,1.266,4.667,4.667,0,0,1,.285,1.656,4.061,4.061,0,0,1-1.035,2.9,3.362,3.362,0,0,1-2.551,1.1,3.04,3.04,0,0,1-1.605-.437,2.867,2.867,0,0,1-1.1-1.18v5.32h-1.352V32.32h1.3l.031,1.492a2.811,2.811,0,0,1,1.094-1.2A3.068,3.068,0,0,1,389.008,32.172Zm-.266,6.82a2.332,2.332,0,0,0,1.777-.777,3.266,3.266,0,0,0,0-4.1,2.423,2.423,0,0,0-3.582.035,3.133,3.133,0,0,0,0,4.031A2.343,2.343,0,0,0,388.742,38.992Zm11.234-10.023-1.75,2.023h-.93l1.961-2.547Zm-.469,3.352h1.352V40h-1.3l-.031-1.016a2.4,2.4,0,0,1-.953.863,2.932,2.932,0,0,1-1.344.3,2.671,2.671,0,0,1-1.934-.7,2.594,2.594,0,0,1-.723-1.961V32.32h1.352v4.867a1.822,1.822,0,0,0,.473,1.375,1.673,1.673,0,0,0,1.207.453,1.837,1.837,0,0,0,1.363-.531,2.164,2.164,0,0,0,.535-1.57Zm8.172-.148a3.346,3.346,0,0,1,2.539,1.109,4.543,4.543,0,0,1,.008,5.773,3.339,3.339,0,0,1-2.547,1.109,3.082,3.082,0,0,1-1.637-.445,2.818,2.818,0,0,1-1.1-1.211L404.914,40h-1.3V28h1.344l.008,5.789a2.83,2.83,0,0,1,1.1-1.184A3.09,3.09,0,0,1,407.68,32.172Zm-.3,6.82a2.35,2.35,0,0,0,1.8-.785,3.236,3.236,0,0,0,0-4.086,2.35,2.35,0,0,0-1.8-.785,2.3,2.3,0,0,0-1.781.813,3.171,3.171,0,0,0,0,4.035A2.3,2.3,0,0,0,407.383,38.992Zm6,1.008V28h1.367V40Zm4.8-9.484a.92.92,0,0,1-.914-.914.867.867,0,0,1,.27-.641.886.886,0,0,1,.645-.266.877.877,0,0,1,.637.266.867.867,0,0,1,.27.641.88.88,0,0,1-.27.645A.871.871,0,0,1,418.188,30.516ZM417.5,40V32.32h1.359V40Zm7.3.141a3.7,3.7,0,0,1-2.75-1.1,4.375,4.375,0,0,1,0-5.766,4,4,0,0,1,4.977-.43,3.391,3.391,0,0,1,1.293,1.867l-1.266.2a2.337,2.337,0,0,0-.867-1.2,2.361,2.361,0,0,0-1.391-.422,2.27,2.27,0,0,0-1.777.789,3.409,3.409,0,0,0,0,4.137,2.275,2.275,0,0,0,1.777.785,2.361,2.361,0,0,0,1.391-.422,2.337,2.337,0,0,0,.867-1.2l1.266.211a3.4,3.4,0,0,1-1.3,1.863A3.72,3.72,0,0,1,424.8,40.141Zm7.281.008a2.613,2.613,0,0,1-1.684-.527,1.894,1.894,0,0,1-.66-1.574,2.237,2.237,0,0,1,.211-1,1.77,1.77,0,0,1,.625-.7,3.749,3.749,0,0,1,.9-.434,8.342,8.342,0,0,1,1.168-.277l1.242-.2q.68-.125.68-.711a1.342,1.342,0,0,0-.48-1.145,1.958,1.958,0,0,0-1.215-.363,1.994,1.994,0,0,0-1.2.352,1.471,1.471,0,0,0-.57,1.078l-1.219-.258a2.346,2.346,0,0,1,.961-1.645,3.59,3.59,0,0,1,2.094-.551,4.247,4.247,0,0,1,1.113.137,3.025,3.025,0,0,1,.93.43,1.927,1.927,0,0,1,.664.828,3.081,3.081,0,0,1,.238,1.262v3.172a1.3,1.3,0,0,0,.176.8.759.759,0,0,0,.605.207h.125V40h-.672a1.281,1.281,0,0,1-1.453-1.039h-.062A2.935,2.935,0,0,1,432.078,40.148Zm.313-1.094a2.049,2.049,0,0,0,1.648-.742,3.056,3.056,0,0,0,.625-2.031l-2.031.391a2.734,2.734,0,0,0-1.191.426.99.99,0,0,0-.387.84.979.979,0,0,0,.371.844A1.586,1.586,0,0,0,432.391,39.055Zm7.352,3.766h-.984l.953-4.844h1.414ZM2.7,57.672a2.322,2.322,0,0,1,.953-1.031,2.87,2.87,0,0,1,1.477-.406v1.273a2.53,2.53,0,0,0-1.785.57,2.382,2.382,0,0,0-.613,1.82V64H1.375V56.32H2.7Zm10.641,2.336-.016.367h-6a2.714,2.714,0,0,0,.734,1.965,2.411,2.411,0,0,0,1.75.684,2.3,2.3,0,0,0,1.273-.367,2.383,2.383,0,0,0,.875-1.016l1.219.258a3.464,3.464,0,0,1-1.312,1.648,3.581,3.581,0,0,1-2.039.6,3.71,3.71,0,0,1-2.766-1.07,4.557,4.557,0,0,1,0-5.836,3.664,3.664,0,0,1,2.723-1.07,3.467,3.467,0,0,1,2.582.984A3.889,3.889,0,0,1,13.336,60.008Zm-3.555-2.8a2.4,2.4,0,0,0-1.6.543,2.488,2.488,0,0,0-.809,1.582h4.6a2.282,2.282,0,0,0-.672-1.582A2.17,2.17,0,0,0,9.781,57.211Zm11.375-.891h1.3V67.867H21.109v-5.3a2.806,2.806,0,0,1-1.094,1.16,3.053,3.053,0,0,1-1.594.434,3.371,3.371,0,0,1-2.559-1.1,4.061,4.061,0,0,1-1.035-2.9,4.667,4.667,0,0,1,.285-1.656,3.656,3.656,0,0,1,.773-1.266,3.5,3.5,0,0,1,2.535-1.07,3.06,3.06,0,0,1,1.609.438,2.808,2.808,0,0,1,1.094,1.18ZM18.68,62.992a2.328,2.328,0,0,0,1.8-.809,3.153,3.153,0,0,0,0-4.031,2.419,2.419,0,0,0-3.578-.035,3.271,3.271,0,0,0,0,4.1A2.337,2.337,0,0,0,18.68,62.992ZM30,56.32h1.352V64h-1.3l-.031-1.016a2.4,2.4,0,0,1-.953.863,2.932,2.932,0,0,1-1.344.3,2.671,2.671,0,0,1-1.934-.7,2.594,2.594,0,0,1-.723-1.961V56.32h1.352v4.867a1.822,1.822,0,0,0,.473,1.375,1.673,1.673,0,0,0,1.207.453,1.837,1.837,0,0,0,1.363-.531A2.164,2.164,0,0,0,30,60.914Zm10.82,3.688-.016.367h-6a2.714,2.714,0,0,0,.734,1.965,2.411,2.411,0,0,0,1.75.684,2.3,2.3,0,0,0,1.273-.367,2.383,2.383,0,0,0,.875-1.016l1.219.258a3.464,3.464,0,0,1-1.312,1.648,3.581,3.581,0,0,1-2.039.6,3.71,3.71,0,0,1-2.766-1.07,4.557,4.557,0,0,1,0-5.836,3.664,3.664,0,0,1,2.723-1.07,3.467,3.467,0,0,1,2.582.984A3.889,3.889,0,0,1,40.82,60.008Zm-3.555-2.8a2.4,2.4,0,0,0-1.6.543,2.488,2.488,0,0,0-.809,1.582h4.6a2.282,2.282,0,0,0-.672-1.582A2.17,2.17,0,0,0,37.266,57.211Zm6.992.461a2.322,2.322,0,0,1,.953-1.031,2.87,2.87,0,0,1,1.477-.406v1.273a2.53,2.53,0,0,0-1.785.57,2.382,2.382,0,0,0-.613,1.82V64H42.938V56.32h1.32Zm4.7-3.156a.92.92,0,0,1-.914-.914.867.867,0,0,1,.27-.641.886.886,0,0,1,.645-.266.877.877,0,0,1,.637.266.867.867,0,0,1,.27.641.88.88,0,0,1-.27.645A.871.871,0,0,1,48.961,54.516ZM48.273,64V56.32h1.359V64Zm9.781-12h1.352V64H58.1l-.031-1.492a2.826,2.826,0,0,1-1.094,1.211,3.048,3.048,0,0,1-1.625.445,3.49,3.49,0,0,1-2.535-1.082,3.7,3.7,0,0,1-.773-1.27,4.644,4.644,0,0,1-.285-1.648A4.038,4.038,0,0,1,52.8,57.281a3.367,3.367,0,0,1,2.551-1.109,3.061,3.061,0,0,1,1.605.434,2.842,2.842,0,0,1,1.1,1.176ZM55.633,62.992a2.3,2.3,0,0,0,1.785-.809,3.171,3.171,0,0,0,0-4.035,2.3,2.3,0,0,0-1.781-.812,2.35,2.35,0,0,0-1.8.785,3.236,3.236,0,0,0,0,4.086A2.35,2.35,0,0,0,55.633,62.992Zm8.3,1.156a2.613,2.613,0,0,1-1.684-.527,1.894,1.894,0,0,1-.66-1.574,2.237,2.237,0,0,1,.211-1,1.77,1.77,0,0,1,.625-.7,3.749,3.749,0,0,1,.9-.434,8.341,8.341,0,0,1,1.168-.277l1.242-.2q.68-.125.68-.711a1.342,1.342,0,0,0-.48-1.145,1.958,1.958,0,0,0-1.215-.363,1.994,1.994,0,0,0-1.2.352,1.471,1.471,0,0,0-.57,1.078l-1.219-.258a2.346,2.346,0,0,1,.961-1.645,3.59,3.59,0,0,1,2.094-.551,4.247,4.247,0,0,1,1.113.137,3.025,3.025,0,0,1,.93.43,1.927,1.927,0,0,1,.664.828,3.081,3.081,0,0,1,.238,1.262v3.172a1.3,1.3,0,0,0,.176.8.759.759,0,0,0,.605.207h.125V64h-.672a1.281,1.281,0,0,1-1.453-1.039h-.062A2.935,2.935,0,0,1,63.93,64.148Zm.313-1.094a2.049,2.049,0,0,0,1.648-.742,3.056,3.056,0,0,0,.625-2.031l-2.031.391a2.734,2.734,0,0,0-1.191.426.99.99,0,0,0-.387.84.979.979,0,0,0,.371.844A1.586,1.586,0,0,0,64.242,63.055Zm8.727,1.094a3.641,3.641,0,0,1-2.07-.555,2.294,2.294,0,0,1-1.008-1.578l1.18-.336a1.645,1.645,0,0,0,.629,1.066,2.04,2.04,0,0,0,1.262.379,2.518,2.518,0,0,0,.738-.1,1.184,1.184,0,0,0,.566-.379,1.057,1.057,0,0,0,.164-1.016,1.357,1.357,0,0,0-.125-.254.774.774,0,0,0-.219-.211A2.885,2.885,0,0,0,73.82,61a2.726,2.726,0,0,0-.348-.145q-.23-.082-.371-.125t-.43-.125q-.289-.082-.445-.129a8.33,8.33,0,0,1-.8-.281,3.5,3.5,0,0,1-.648-.371,1.493,1.493,0,0,1-.5-.605,2.049,2.049,0,0,1-.168-.859,1.986,1.986,0,0,1,.375-1.227,2.11,2.11,0,0,1,.973-.723,3.888,3.888,0,0,1,1.363-.223,3.337,3.337,0,0,1,1.871.5,2.134,2.134,0,0,1,.934,1.5l-1.109.281a1.471,1.471,0,0,0-.586-.973,1.865,1.865,0,0,0-1.1-.324,1.9,1.9,0,0,0-1.031.27.906.906,0,0,0-.43.824.82.82,0,0,0,.113.426,1.352,1.352,0,0,0,.23.3,1.417,1.417,0,0,0,.422.23q.3.121.453.164t.563.145q.078.023.117.031.453.117.738.207a4.538,4.538,0,0,1,.664.281,2.208,2.208,0,0,1,.6.418,1.936,1.936,0,0,1,.375.594,2.1,2.1,0,0,1,.156.828,2.237,2.237,0,0,1-.23,1.035,1.8,1.8,0,0,1-.629.707,3.042,3.042,0,0,1-.895.387A4.262,4.262,0,0,1,72.969,64.148ZM88.8,60.008l-.016.367h-6a2.714,2.714,0,0,0,.734,1.965,2.411,2.411,0,0,0,1.75.684,2.3,2.3,0,0,0,1.273-.367,2.383,2.383,0,0,0,.875-1.016l1.219.258a3.464,3.464,0,0,1-1.312,1.648,3.581,3.581,0,0,1-2.039.6,3.71,3.71,0,0,1-2.766-1.07,4.557,4.557,0,0,1,0-5.836,3.664,3.664,0,0,1,2.723-1.07,3.467,3.467,0,0,1,2.582.984A3.889,3.889,0,0,1,88.8,60.008Zm-3.555-2.8a2.4,2.4,0,0,0-1.6.543,2.488,2.488,0,0,0-.809,1.582h4.6a2.282,2.282,0,0,0-.672-1.582A2.17,2.17,0,0,0,85.242,57.211Zm9.3-1.039a2.671,2.671,0,0,1,1.934.7,2.594,2.594,0,0,1,.723,1.961V64H95.844V59.133a1.816,1.816,0,0,0-.469-1.375,1.676,1.676,0,0,0-1.2-.445,1.858,1.858,0,0,0-1.367.527,2.14,2.14,0,0,0-.539,1.566V64H90.914V56.32h1.352V57.3A2.565,2.565,0,0,1,94.539,56.172ZM103.961,64V52h1.367V64Zm5.891.148a2.613,2.613,0,0,1-1.684-.527,1.894,1.894,0,0,1-.66-1.574,2.237,2.237,0,0,1,.211-1,1.77,1.77,0,0,1,.625-.7,3.749,3.749,0,0,1,.9-.434,8.342,8.342,0,0,1,1.168-.277l1.242-.2q.68-.125.68-.711a1.342,1.342,0,0,0-.48-1.145,1.958,1.958,0,0,0-1.215-.363,1.994,1.994,0,0,0-1.2.352,1.471,1.471,0,0,0-.57,1.078l-1.219-.258a2.346,2.346,0,0,1,.961-1.645,3.59,3.59,0,0,1,2.094-.551,4.247,4.247,0,0,1,1.113.137,3.025,3.025,0,0,1,.93.43,1.927,1.927,0,0,1,.664.828,3.081,3.081,0,0,1,.238,1.262v3.172a1.3,1.3,0,0,0,.176.8.759.759,0,0,0,.605.207h.125V64h-.672a1.281,1.281,0,0,1-1.453-1.039h-.062A2.935,2.935,0,0,1,109.852,64.148Zm.313-1.094a2.049,2.049,0,0,0,1.648-.742,3.056,3.056,0,0,0,.625-2.031l-2.031.391a2.734,2.734,0,0,0-1.191.426.99.99,0,0,0-.387.84.979.979,0,0,0,.371.844A1.586,1.586,0,0,0,110.164,63.055Zm14.508-6.883a3.493,3.493,0,0,1,1.391.281,3.421,3.421,0,0,1,1.141.789,3.688,3.688,0,0,1,.77,1.266,4.667,4.667,0,0,1,.285,1.656,4.061,4.061,0,0,1-1.035,2.9,3.362,3.362,0,0,1-2.551,1.1,3.04,3.04,0,0,1-1.605-.437,2.867,2.867,0,0,1-1.1-1.18v5.32h-1.352V56.32h1.3l.031,1.492a2.811,2.811,0,0,1,1.094-1.2A3.068,3.068,0,0,1,124.672,56.172Zm-.266,6.82a2.332,2.332,0,0,0,1.777-.777,3.266,3.266,0,0,0,0-4.1,2.423,2.423,0,0,0-3.582.035,3.133,3.133,0,0,0,0,4.031A2.343,2.343,0,0,0,124.406,62.992Zm7.3-5.32a2.322,2.322,0,0,1,.953-1.031,2.87,2.87,0,0,1,1.477-.406v1.273a2.53,2.53,0,0,0-1.785.57,2.382,2.382,0,0,0-.613,1.82V64h-1.352V56.32h1.32Zm7.156,6.477a4.048,4.048,0,0,1-1.969-.477,3.47,3.47,0,0,1-1.387-1.395A4.284,4.284,0,0,1,135,60.156a3.912,3.912,0,0,1,1.09-2.895,4.089,4.089,0,0,1,5.559,0,4.405,4.405,0,0,1,0,5.8A3.762,3.762,0,0,1,138.867,64.148Zm-.008-1.125a2.359,2.359,0,0,0,1.816-.789,3.338,3.338,0,0,0,0-4.148,2.359,2.359,0,0,0-1.816-.789,2.326,2.326,0,0,0-1.8.789,3.367,3.367,0,0,0,0,4.148A2.326,2.326,0,0,0,138.859,63.023ZM152.7,56.172a2.476,2.476,0,0,1,1.789.652,2.42,2.42,0,0,1,.68,1.832V64H153.82V59.008a1.735,1.735,0,0,0-.422-1.266,1.436,1.436,0,0,0-1.07-.43,1.517,1.517,0,0,0-1.172.484,2.083,2.083,0,0,0-.445,1.453V64h-1.375V59.063a1.815,1.815,0,0,0-.426-1.309,1.448,1.448,0,0,0-1.09-.441,1.5,1.5,0,0,0-1.168.5A2.155,2.155,0,0,0,146.2,59.3V64h-1.352V56.32H146.2v.992a2.333,2.333,0,0,1,.879-.844,2.506,2.506,0,0,1,1.223-.3,2.609,2.609,0,0,1,1.313.324,2.018,2.018,0,0,1,.852.934,2.39,2.39,0,0,1,.922-.934A2.637,2.637,0,0,1,152.7,56.172Zm8.32,7.977a4.048,4.048,0,0,1-1.969-.477,3.47,3.47,0,0,1-1.387-1.395,4.284,4.284,0,0,1-.512-2.121,3.912,3.912,0,0,1,1.09-2.895,4.089,4.089,0,0,1,5.559,0,4.405,4.405,0,0,1,0,5.8A3.762,3.762,0,0,1,161.023,64.148Zm-.008-1.125a2.359,2.359,0,0,0,1.816-.789,3.338,3.338,0,0,0,0-4.148,2.359,2.359,0,0,0-1.816-.789,2.326,2.326,0,0,0-1.8.789,3.367,3.367,0,0,0,0,4.148A2.326,2.326,0,0,0,161.016,63.023Zm9.18,1.117a3.7,3.7,0,0,1-2.75-1.1,4.375,4.375,0,0,1,0-5.766,4,4,0,0,1,4.977-.43,3.391,3.391,0,0,1,1.293,1.867l-1.266.2a2.337,2.337,0,0,0-.867-1.2,2.361,2.361,0,0,0-1.391-.422,2.27,2.27,0,0,0-1.777.789,3.409,3.409,0,0,0,0,4.137,2.275,2.275,0,0,0,1.777.785,2.361,2.361,0,0,0,1.391-.422,2.337,2.337,0,0,0,.867-1.2l1.266.211a3.4,3.4,0,0,1-1.3,1.863A3.72,3.72,0,0,1,170.2,64.141Zm6.2-9.625a.92.92,0,0,1-.914-.914.867.867,0,0,1,.27-.641.886.886,0,0,1,.645-.266.877.877,0,0,1,.637.266.867.867,0,0,1,.27.641.88.88,0,0,1-.27.645A.871.871,0,0,1,176.391,54.516ZM175.7,64V56.32h1.359V64Zm6.828-9,1.961-2.547.719.523L183.461,55Zm.516,9.148a4.048,4.048,0,0,1-1.969-.477,3.47,3.47,0,0,1-1.387-1.395,4.284,4.284,0,0,1-.512-2.121,3.912,3.912,0,0,1,1.09-2.895,4.089,4.089,0,0,1,5.559,0,4.405,4.405,0,0,1,0,5.8A3.762,3.762,0,0,1,183.047,64.148Zm-.008-1.125a2.359,2.359,0,0,0,1.816-.789,3.338,3.338,0,0,0,0-4.148,2.359,2.359,0,0,0-1.816-.789,2.326,2.326,0,0,0-1.8.789,3.367,3.367,0,0,0,0,4.148A2.326,2.326,0,0,0,183.039,63.023Zm9.617-6.852a2.671,2.671,0,0,1,1.934.7,2.594,2.594,0,0,1,.723,1.961V64h-1.352V59.133a1.816,1.816,0,0,0-.469-1.375,1.676,1.676,0,0,0-1.2-.445,1.858,1.858,0,0,0-1.367.527,2.14,2.14,0,0,0-.539,1.566V64h-1.352V56.32h1.352V57.3A2.565,2.565,0,0,1,192.656,56.172Zm14.156.148h1.43l-4.445,11.3h-1.4l1.539-3.8-2.984-7.492h1.5l2.164,5.977Zm9.641,7.828a3.641,3.641,0,0,1-2.07-.555,2.294,2.294,0,0,1-1.008-1.578l1.18-.336a1.645,1.645,0,0,0,.629,1.066,2.04,2.04,0,0,0,1.262.379,2.518,2.518,0,0,0,.738-.1,1.183,1.183,0,0,0,.566-.379,1.057,1.057,0,0,0,.164-1.016,1.356,1.356,0,0,0-.125-.254.774.774,0,0,0-.219-.211A2.884,2.884,0,0,0,217.3,61a2.727,2.727,0,0,0-.348-.145q-.23-.082-.371-.125t-.43-.125q-.289-.082-.445-.129a8.329,8.329,0,0,1-.8-.281,3.5,3.5,0,0,1-.648-.371,1.493,1.493,0,0,1-.5-.605,2.048,2.048,0,0,1-.168-.859,1.986,1.986,0,0,1,.375-1.227,2.11,2.11,0,0,1,.973-.723,3.888,3.888,0,0,1,1.363-.223,3.337,3.337,0,0,1,1.871.5,2.134,2.134,0,0,1,.934,1.5L218,58.469a1.471,1.471,0,0,0-.586-.973,1.866,1.866,0,0,0-1.1-.324,1.9,1.9,0,0,0-1.031.27.906.906,0,0,0-.43.824.82.82,0,0,0,.113.426,1.352,1.352,0,0,0,.23.3,1.417,1.417,0,0,0,.422.23q.3.121.453.164t.563.145q.078.023.117.031.453.117.738.207a4.538,4.538,0,0,1,.664.281,2.208,2.208,0,0,1,.6.418,1.937,1.937,0,0,1,.375.594,2.1,2.1,0,0,1,.156.828,2.237,2.237,0,0,1-.23,1.035,1.8,1.8,0,0,1-.629.707,3.042,3.042,0,0,1-.895.387A4.262,4.262,0,0,1,216.453,64.148Zm11.672-4.141-.016.367h-6a2.714,2.714,0,0,0,.734,1.965,2.411,2.411,0,0,0,1.75.684,2.3,2.3,0,0,0,1.273-.367,2.383,2.383,0,0,0,.875-1.016l1.219.258a3.464,3.464,0,0,1-1.312,1.648,3.581,3.581,0,0,1-2.039.6,3.71,3.71,0,0,1-2.766-1.07,4.557,4.557,0,0,1,0-5.836,3.664,3.664,0,0,1,2.723-1.07,3.467,3.467,0,0,1,2.582.984A3.889,3.889,0,0,1,228.125,60.008Zm-3.555-2.8a2.4,2.4,0,0,0-1.6.543,2.488,2.488,0,0,0-.809,1.582h4.6a2.282,2.282,0,0,0-.672-1.582A2.17,2.17,0,0,0,224.57,57.211Zm6.992.461a2.322,2.322,0,0,1,.953-1.031,2.87,2.87,0,0,1,1.477-.406v1.273a2.53,2.53,0,0,0-1.785.57,2.382,2.382,0,0,0-.613,1.82V64h-1.352V56.32h1.32Zm8.961-1.352h1.445L238.844,64H237.7l-3.109-7.68h1.438l2.25,6.109Zm3.734-1.8a.92.92,0,0,1-.914-.914.867.867,0,0,1,.27-.641.886.886,0,0,1,.645-.266.877.877,0,0,1,.637.266.867.867,0,0,1,.27.641.88.88,0,0,1-.27.645A.871.871,0,0,1,244.258,54.516ZM243.57,64V56.32h1.359V64Zm7.3.141a3.7,3.7,0,0,1-2.75-1.1,4.375,4.375,0,0,1,0-5.766,4,4,0,0,1,4.977-.43,3.391,3.391,0,0,1,1.293,1.867l-1.266.2a2.337,2.337,0,0,0-.867-1.2,2.361,2.361,0,0,0-1.391-.422,2.27,2.27,0,0,0-1.777.789,3.409,3.409,0,0,0,0,4.137,2.275,2.275,0,0,0,1.777.785,2.361,2.361,0,0,0,1.391-.422,2.337,2.337,0,0,0,.867-1.2l1.266.211a3.4,3.4,0,0,1-1.3,1.863A3.72,3.72,0,0,1,250.867,64.141Zm6.2-9.625a.92.92,0,0,1-.914-.914.867.867,0,0,1,.27-.641.886.886,0,0,1,.645-.266.877.877,0,0,1,.637.266.867.867,0,0,1,.27.641.88.88,0,0,1-.27.645A.871.871,0,0,1,257.063,54.516ZM256.375,64V56.32h1.359V64Zm7.344.148a4.048,4.048,0,0,1-1.969-.477,3.47,3.47,0,0,1-1.387-1.395,4.283,4.283,0,0,1-.512-2.121,3.912,3.912,0,0,1,1.09-2.895,4.089,4.089,0,0,1,5.559,0,4.405,4.405,0,0,1,0,5.8A3.762,3.762,0,0,1,263.719,64.148Zm-.008-1.125a2.359,2.359,0,0,0,1.816-.789,3.338,3.338,0,0,0,0-4.148,2.359,2.359,0,0,0-1.816-.789,2.326,2.326,0,0,0-1.8.789,3.367,3.367,0,0,0,0,4.148A2.326,2.326,0,0,0,263.711,63.023Zm13.383,1.125a4.048,4.048,0,0,1-1.969-.477,3.47,3.47,0,0,1-1.387-1.395,4.283,4.283,0,0,1-.512-2.121,3.912,3.912,0,0,1,1.09-2.895,4.089,4.089,0,0,1,5.559,0,4.405,4.405,0,0,1,0,5.8A3.762,3.762,0,0,1,277.094,64.148Zm-.008-1.125a2.359,2.359,0,0,0,1.816-.789,3.338,3.338,0,0,0,0-4.148,2.359,2.359,0,0,0-1.816-.789,2.326,2.326,0,0,0-1.8.789,3.367,3.367,0,0,0,0,4.148A2.326,2.326,0,0,0,277.086,63.023Zm10.047-6.852a3.493,3.493,0,0,1,1.391.281,3.421,3.421,0,0,1,1.141.789,3.688,3.688,0,0,1,.77,1.266,4.667,4.667,0,0,1,.285,1.656,4.061,4.061,0,0,1-1.035,2.9,3.362,3.362,0,0,1-2.551,1.1,3.04,3.04,0,0,1-1.605-.437,2.867,2.867,0,0,1-1.1-1.18v5.32h-1.352V56.32h1.3l.031,1.492a2.811,2.811,0,0,1,1.094-1.2A3.068,3.068,0,0,1,287.133,56.172Zm-.266,6.82a2.332,2.332,0,0,0,1.777-.777,3.266,3.266,0,0,0,0-4.1,2.423,2.423,0,0,0-3.582.035,3.133,3.133,0,0,0,0,4.031A2.343,2.343,0,0,0,286.867,62.992Zm9.219,1.156a4.048,4.048,0,0,1-1.969-.477,3.47,3.47,0,0,1-1.387-1.395,4.283,4.283,0,0,1-.512-2.121,3.912,3.912,0,0,1,1.09-2.895,4.089,4.089,0,0,1,5.559,0,4.405,4.405,0,0,1,0,5.8A3.762,3.762,0,0,1,296.086,64.148Zm-.008-1.125a2.359,2.359,0,0,0,1.816-.789,3.338,3.338,0,0,0,0-4.148,2.359,2.359,0,0,0-1.816-.789,2.326,2.326,0,0,0-1.8.789,3.367,3.367,0,0,0,0,4.148A2.326,2.326,0,0,0,296.078,63.023Zm7.313-5.352a2.322,2.322,0,0,1,.953-1.031,2.87,2.87,0,0,1,1.477-.406v1.273a2.53,2.53,0,0,0-1.785.57,2.382,2.382,0,0,0-.613,1.82V64H302.07V56.32h1.32ZM310.3,64a2.019,2.019,0,0,1-1.5-.551,2.084,2.084,0,0,1-.547-1.535V57.4h-1.57V56.32h.578a1.11,1.11,0,0,0,.848-.27,1.326,1.326,0,0,0,.246-.9V53.758h1.258V56.32h1.766V57.4h-1.766v4.375a1.164,1.164,0,0,0,.293.848,1.026,1.026,0,0,0,.77.3h.7V64Zm7.813-7.68h1.352V64h-1.3l-.031-1.016a2.4,2.4,0,0,1-.953.863,2.932,2.932,0,0,1-1.344.3,2.671,2.671,0,0,1-1.934-.7,2.594,2.594,0,0,1-.723-1.961V56.32h1.352v4.867a1.822,1.822,0,0,0,.473,1.375,1.673,1.673,0,0,0,1.207.453,1.837,1.837,0,0,0,1.363-.531,2.164,2.164,0,0,0,.535-1.57Zm7.727-.148a2.671,2.671,0,0,1,1.934.7,2.594,2.594,0,0,1,.723,1.961V64h-1.352V59.133a1.816,1.816,0,0,0-.469-1.375,1.676,1.676,0,0,0-1.2-.445,1.858,1.858,0,0,0-1.367.527,2.14,2.14,0,0,0-.539,1.566V64h-1.352V56.32h1.352V57.3A2.565,2.565,0,0,1,325.844,56.172Zm8.5,7.977a4.048,4.048,0,0,1-1.969-.477,3.47,3.47,0,0,1-1.387-1.395,4.283,4.283,0,0,1-.512-2.121,3.912,3.912,0,0,1,1.09-2.895,4.089,4.089,0,0,1,5.559,0,4.405,4.405,0,0,1,0,5.8A3.762,3.762,0,0,1,334.344,64.148Zm-.008-1.125a2.359,2.359,0,0,0,1.816-.789,3.338,3.338,0,0,0,0-4.148,2.359,2.359,0,0,0-1.816-.789,2.326,2.326,0,0,0-1.8.789,3.367,3.367,0,0,0,0,4.148A2.326,2.326,0,0,0,334.336,63.023Zm6.844,1.133a.877.877,0,0,1-.637-.266.908.908,0,0,1,.637-1.547.884.884,0,0,1,.641.27.887.887,0,0,1,0,1.277A.886.886,0,0,1,341.18,64.156Z" transform="translate(536 879.5)" fill="#fff"/>
    <g id="Grupo_15858" data-name="Grupo 15858" transform="translate(-407.578 -4574)">
      <path id="Trazado_37731" data-name="Trazado 37731" d="M890.677,5469.035a39.392,39.392,0,1,1-16.694-16.694l5.782-5.783a47.278,47.278,0,1,0,16.7,16.695Z" fill="#92934e"/>
      <path id="Trazado_37732" data-name="Trazado 37732" d="M901.987,5451.048H891.971v-10.017l-15.862,15.86v6.678l-19.755,19.756,3.339,3.338,19.757-19.756h6.677Z" fill="#92934e"/>
      <circle id="_1" data-name="1" cx="7.87" cy="7.87" r="7.87" transform="translate(847.928 5479.351)" fill="#92934e"/>
      <path id="Trazado_37733" data-name="Trazado 37733" d="M873.775,5479.26a19.722,19.722,0,1,1-10.017-10.017l5.83-5.83A27.635,27.635,0,1,0,879.6,5473.43Z" fill="#92934e"/>
    </g>
  </g>
</svg>
