<svg xmlns="http://www.w3.org/2000/svg" width="475" height="117" viewBox="0 0 475 117">
  <g id="Grupo_15882" data-name="Grupo 15882" transform="translate(-215 -1035)">
    <rect id="Rectángulo_3740" data-name="Rectángulo 3740" width="475" height="117" rx="25" transform="translate(215 1035)" fill="#92934e"/>
    <path id="Trazado_37978" data-name="Trazado 37978" d="M9.12,18,5.761,12.109H3.711V18H2.05V4.938H6.383A3.9,3.9,0,0,1,9.31,5.972,3.652,3.652,0,0,1,10.316,8.63,3.408,3.408,0,0,1,9.551,10.9a3.421,3.421,0,0,1-2.129,1.141L11.059,18ZM3.711,6.394V10.8H6.16a2.736,2.736,0,0,0,1.911-.589,2.068,2.068,0,0,0,.64-1.6A2.1,2.1,0,0,0,8.067,7a2.7,2.7,0,0,0-1.906-.6ZM19.139,8.88h1.6V18H19.2l-.037-1.206a2.847,2.847,0,0,1-1.132,1.025,3.481,3.481,0,0,1-1.6.357,3.172,3.172,0,0,1-2.3-.826,3.08,3.08,0,0,1-.858-2.329V8.88h1.6v5.78a2.164,2.164,0,0,0,.561,1.633,1.987,1.987,0,0,0,1.433.538A2.182,2.182,0,0,0,18.5,16.2a2.57,2.57,0,0,0,.635-1.865ZM26.923,18a2.4,2.4,0,0,1-1.781-.654,2.474,2.474,0,0,1-.649-1.823V10.161H22.627V8.88h.687a1.318,1.318,0,0,0,1.007-.32,1.575,1.575,0,0,0,.292-1.072V5.837h1.494V8.88h2.1v1.28h-2.1v5.2a1.383,1.383,0,0,0,.348,1.007,1.218,1.218,0,0,0,.914.357H28.2V18Zm5.594.176a3.1,3.1,0,0,1-2-.626,2.249,2.249,0,0,1-.784-1.869,2.656,2.656,0,0,1,.25-1.192,2.1,2.1,0,0,1,.742-.83,4.452,4.452,0,0,1,1.072-.515,9.9,9.9,0,0,1,1.387-.329l1.475-.241q.807-.148.807-.844a1.594,1.594,0,0,0-.571-1.359,2.325,2.325,0,0,0-1.443-.431,2.368,2.368,0,0,0-1.429.417,1.747,1.747,0,0,0-.677,1.28L29.9,11.33a2.785,2.785,0,0,1,1.141-1.953,4.263,4.263,0,0,1,2.486-.654,5.043,5.043,0,0,1,1.322.162,3.593,3.593,0,0,1,1.1.51,2.288,2.288,0,0,1,.789.983,3.659,3.659,0,0,1,.283,1.5v3.767a1.541,1.541,0,0,0,.209.951.9.9,0,0,0,.719.246H38.1V18h-.8a1.522,1.522,0,0,1-1.726-1.234H35.5A3.485,3.485,0,0,1,32.517,18.176Zm.371-1.3A2.433,2.433,0,0,0,34.846,16a3.628,3.628,0,0,0,.742-2.412l-2.412.464a3.247,3.247,0,0,0-1.415.506,1.176,1.176,0,0,0-.459,1,1.162,1.162,0,0,0,.441,1A1.884,1.884,0,0,0,32.888,16.877ZM52.037,3.75h1.6V18H52.092l-.037-1.772a3.356,3.356,0,0,1-1.3,1.438,3.619,3.619,0,0,1-1.93.529,4.144,4.144,0,0,1-3.01-1.285A4.391,4.391,0,0,1,44.9,15.4a5.515,5.515,0,0,1-.339-1.958A4.8,4.8,0,0,1,45.8,10.021,4,4,0,0,1,48.827,8.7a3.635,3.635,0,0,1,1.906.515,3.375,3.375,0,0,1,1.3,1.4ZM49.161,16.8a2.731,2.731,0,0,0,2.12-.96,3.466,3.466,0,0,0,.858-2.4,3.459,3.459,0,0,0-.863-2.394,2.729,2.729,0,0,0-2.115-.965,2.791,2.791,0,0,0-2.134.932,3.43,3.43,0,0,0-.863,2.426,3.43,3.43,0,0,0,.863,2.426A2.791,2.791,0,0,0,49.161,16.8Zm15.725-3.544-.019.436H57.742a3.223,3.223,0,0,0,.872,2.333,2.863,2.863,0,0,0,2.078.812A2.734,2.734,0,0,0,62.2,16.4,2.829,2.829,0,0,0,63.244,15.2l1.447.306a4.114,4.114,0,0,1-1.559,1.958,4.252,4.252,0,0,1-2.421.714,4.406,4.406,0,0,1-3.284-1.271,4.728,4.728,0,0,1-1.252-3.47,4.705,4.705,0,0,1,1.257-3.46A4.351,4.351,0,0,1,60.665,8.7a4.117,4.117,0,0,1,3.066,1.169A4.619,4.619,0,0,1,64.886,13.259ZM60.665,9.938a2.844,2.844,0,0,0-1.9.645,2.954,2.954,0,0,0-.96,1.879h5.464a2.71,2.71,0,0,0-.8-1.879A2.577,2.577,0,0,0,60.665,9.938Zm13.777,8.238a3.1,3.1,0,0,1-2-.626,2.249,2.249,0,0,1-.784-1.869,2.656,2.656,0,0,1,.25-1.192,2.1,2.1,0,0,1,.742-.83,4.452,4.452,0,0,1,1.072-.515,9.9,9.9,0,0,1,1.387-.329l1.475-.241q.807-.148.807-.844a1.594,1.594,0,0,0-.571-1.359,2.325,2.325,0,0,0-1.443-.431,2.368,2.368,0,0,0-1.429.417,1.747,1.747,0,0,0-.677,1.28l-1.447-.306a2.785,2.785,0,0,1,1.141-1.953,4.263,4.263,0,0,1,2.486-.654,5.043,5.043,0,0,1,1.322.162,3.593,3.593,0,0,1,1.1.51,2.288,2.288,0,0,1,.789.983,3.659,3.659,0,0,1,.283,1.5v3.767a1.541,1.541,0,0,0,.209.951.9.9,0,0,0,.719.246h.148V18h-.8A1.522,1.522,0,0,1,77.5,16.766h-.074A3.485,3.485,0,0,1,74.441,18.176Zm.371-1.3A2.433,2.433,0,0,0,76.77,16a3.628,3.628,0,0,0,.742-2.412l-2.412.464a3.247,3.247,0,0,0-1.415.506,1.176,1.176,0,0,0-.459,1,1.162,1.162,0,0,0,.441,1A1.884,1.884,0,0,0,74.813,16.877ZM85.147,18a2.4,2.4,0,0,1-1.781-.654,2.474,2.474,0,0,1-.649-1.823V10.161H80.852V8.88h.687a1.318,1.318,0,0,0,1.007-.32,1.575,1.575,0,0,0,.292-1.072V5.837h1.494V8.88h2.1v1.28h-2.1v5.2a1.383,1.383,0,0,0,.348,1.007,1.218,1.218,0,0,0,.914.357h.835V18Zm11.467-4.741L96.6,13.7H89.471a3.223,3.223,0,0,0,.872,2.333,2.863,2.863,0,0,0,2.078.812,2.734,2.734,0,0,0,1.512-.436A2.829,2.829,0,0,0,94.972,15.2l1.447.306a4.114,4.114,0,0,1-1.559,1.958,4.252,4.252,0,0,1-2.421.714,4.406,4.406,0,0,1-3.284-1.271,4.728,4.728,0,0,1-1.252-3.47,4.705,4.705,0,0,1,1.257-3.46A4.351,4.351,0,0,1,92.393,8.7a4.117,4.117,0,0,1,3.066,1.169A4.619,4.619,0,0,1,96.614,13.259ZM92.393,9.938a2.844,2.844,0,0,0-1.9.645,2.954,2.954,0,0,0-.96,1.879H95a2.71,2.71,0,0,0-.8-1.879A2.577,2.577,0,0,0,92.393,9.938ZM103.433,8.7a3.172,3.172,0,0,1,2.3.826,3.08,3.08,0,0,1,.858,2.329V18h-1.6V12.22a2.156,2.156,0,0,0-.557-1.633A1.99,1.99,0,0,0,103,10.059a2.206,2.206,0,0,0-1.624.626,2.541,2.541,0,0,0-.64,1.86V18h-1.6V8.88h1.6v1.169A3.046,3.046,0,0,1,103.433,8.7Zm10.038,9.463a4.392,4.392,0,0,1-3.266-1.308,4.666,4.666,0,0,1-1.29-3.423,4.676,4.676,0,0,1,1.285-3.423,4.752,4.752,0,0,1,5.91-.51,4.026,4.026,0,0,1,1.535,2.217l-1.5.241a2.776,2.776,0,0,0-1.03-1.419,2.8,2.8,0,0,0-1.651-.5,2.7,2.7,0,0,0-2.111.937,3.57,3.57,0,0,0-.83,2.458,3.552,3.552,0,0,0,.83,2.454,2.7,2.7,0,0,0,2.111.932,2.8,2.8,0,0,0,1.651-.5,2.776,2.776,0,0,0,1.03-1.419l1.5.25a4.031,4.031,0,0,1-1.545,2.213A4.418,4.418,0,0,1,113.471,18.167Zm7.357-11.43a1.093,1.093,0,0,1-1.085-1.085,1.029,1.029,0,0,1,.32-.761,1.052,1.052,0,0,1,.765-.315,1.041,1.041,0,0,1,.756.315,1.029,1.029,0,0,1,.32.761,1.044,1.044,0,0,1-.32.765A1.034,1.034,0,0,1,120.828,6.737ZM120.012,18V8.88h1.614V18ZM128.12,7.313l2.329-3.024.854.622-2.078,2.4Zm.612,10.864a4.807,4.807,0,0,1-2.338-.566,4.121,4.121,0,0,1-1.647-1.656,5.087,5.087,0,0,1-.608-2.519A4.646,4.646,0,0,1,125.434,10a4.855,4.855,0,0,1,6.6,0,4.655,4.655,0,0,1,1.29,3.437,4.658,4.658,0,0,1-1.294,3.447A4.467,4.467,0,0,1,128.732,18.176Zm-.009-1.336a2.8,2.8,0,0,0,2.157-.937,3.511,3.511,0,0,0,.858-2.468,3.5,3.5,0,0,0-.858-2.458,2.8,2.8,0,0,0-2.157-.937,2.762,2.762,0,0,0-2.138.937,3.521,3.521,0,0,0-.849,2.458,3.534,3.534,0,0,0,.849,2.468A2.762,2.762,0,0,0,128.723,16.84ZM140.144,8.7a3.172,3.172,0,0,1,2.3.826,3.08,3.08,0,0,1,.858,2.329V18h-1.6V12.22a2.156,2.156,0,0,0-.557-1.633,1.99,1.99,0,0,0-1.429-.529,2.206,2.206,0,0,0-1.624.626,2.541,2.541,0,0,0-.64,1.86V18h-1.6V8.88h1.6v1.169A3.046,3.046,0,0,1,140.144,8.7Zm19.167,4.555-.019.436h-7.125a3.223,3.223,0,0,0,.872,2.333,2.863,2.863,0,0,0,2.078.812,2.734,2.734,0,0,0,1.512-.436,2.829,2.829,0,0,0,1.039-1.206l1.447.306a4.114,4.114,0,0,1-1.559,1.958,4.252,4.252,0,0,1-2.421.714,4.406,4.406,0,0,1-3.284-1.271,4.728,4.728,0,0,1-1.252-3.47,4.705,4.705,0,0,1,1.257-3.46A4.351,4.351,0,0,1,155.089,8.7a4.117,4.117,0,0,1,3.066,1.169A4.619,4.619,0,0,1,159.311,13.259Zm-4.221-3.321a2.844,2.844,0,0,0-1.9.645,2.954,2.954,0,0,0-.96,1.879H157.7a2.71,2.71,0,0,0-.8-1.879A2.577,2.577,0,0,0,155.089,9.938ZM166.129,8.7a3.172,3.172,0,0,1,2.3.826,3.08,3.08,0,0,1,.858,2.329V18h-1.6V12.22a2.156,2.156,0,0,0-.557-1.633,1.99,1.99,0,0,0-1.429-.529,2.206,2.206,0,0,0-1.624.626,2.541,2.541,0,0,0-.64,1.86V18h-1.6V8.88h1.6v1.169A3.046,3.046,0,0,1,166.129,8.7ZM180.2,18.176a4.323,4.323,0,0,1-2.458-.659,2.724,2.724,0,0,1-1.2-1.874l1.4-.4a1.954,1.954,0,0,0,.747,1.266,2.423,2.423,0,0,0,1.5.45,2.99,2.99,0,0,0,.877-.121,1.405,1.405,0,0,0,.673-.45,1.255,1.255,0,0,0,.195-1.206,1.611,1.611,0,0,0-.148-.3.919.919,0,0,0-.26-.25,3.425,3.425,0,0,0-.315-.195,3.238,3.238,0,0,0-.413-.172q-.274-.1-.441-.148t-.51-.148q-.343-.1-.529-.153a9.891,9.891,0,0,1-.946-.334,4.15,4.15,0,0,1-.77-.441,1.773,1.773,0,0,1-.6-.719,2.433,2.433,0,0,1-.2-1.021,2.358,2.358,0,0,1,.445-1.457,2.506,2.506,0,0,1,1.155-.858,4.617,4.617,0,0,1,1.619-.264,3.963,3.963,0,0,1,2.222.594,2.534,2.534,0,0,1,1.109,1.781l-1.317.334a1.747,1.747,0,0,0-.7-1.155,2.215,2.215,0,0,0-1.308-.385,2.258,2.258,0,0,0-1.225.32,1.076,1.076,0,0,0-.51.979.974.974,0,0,0,.135.506,1.606,1.606,0,0,0,.274.357,1.682,1.682,0,0,0,.5.274q.362.144.538.195t.668.172q.093.028.139.037.538.139.877.246a5.389,5.389,0,0,1,.789.334,2.622,2.622,0,0,1,.71.5,2.3,2.3,0,0,1,.445.705,2.489,2.489,0,0,1,.186.983,2.656,2.656,0,0,1-.274,1.229,2.141,2.141,0,0,1-.747.84,3.612,3.612,0,0,1-1.062.459A5.061,5.061,0,0,1,180.2,18.176Zm7.988,0a3.1,3.1,0,0,1-2-.626,2.249,2.249,0,0,1-.784-1.869,2.656,2.656,0,0,1,.25-1.192,2.1,2.1,0,0,1,.742-.83,4.452,4.452,0,0,1,1.072-.515,9.9,9.9,0,0,1,1.387-.329l1.475-.241q.807-.148.807-.844a1.594,1.594,0,0,0-.571-1.359,2.325,2.325,0,0,0-1.443-.431,2.368,2.368,0,0,0-1.429.417,1.747,1.747,0,0,0-.677,1.28l-1.447-.306a2.785,2.785,0,0,1,1.141-1.953,4.263,4.263,0,0,1,2.486-.654,5.043,5.043,0,0,1,1.322.162,3.593,3.593,0,0,1,1.1.51,2.288,2.288,0,0,1,.789.983,3.659,3.659,0,0,1,.283,1.5v3.767a1.541,1.541,0,0,0,.209.951.9.9,0,0,0,.719.246h.148V18h-.8a1.522,1.522,0,0,1-1.726-1.234h-.074A3.485,3.485,0,0,1,188.191,18.176Zm.371-1.3A2.433,2.433,0,0,0,190.52,16a3.628,3.628,0,0,0,.742-2.412l-2.412.464a3.247,3.247,0,0,0-1.415.506,1.176,1.176,0,0,0-.459,1,1.162,1.162,0,0,0,.441,1A1.884,1.884,0,0,0,188.562,16.877ZM196.04,18V3.75h1.624V18Zm10.567-9.12h1.6V18h-1.54l-.037-1.206a2.847,2.847,0,0,1-1.132,1.025,3.481,3.481,0,0,1-1.6.357,3.172,3.172,0,0,1-2.3-.826,3.08,3.08,0,0,1-.858-2.329V8.88h1.6v5.78a2.164,2.164,0,0,0,.561,1.633,1.987,1.987,0,0,0,1.433.538,2.182,2.182,0,0,0,1.619-.631,2.57,2.57,0,0,0,.635-1.865Zm11.606-5.13h1.6V18h-1.549l-.037-1.772a3.356,3.356,0,0,1-1.3,1.438,3.619,3.619,0,0,1-1.93.529,4.144,4.144,0,0,1-3.01-1.285,4.392,4.392,0,0,1-.918-1.508,5.515,5.515,0,0,1-.339-1.958,4.8,4.8,0,0,1,1.239-3.423A4,4,0,0,1,215,8.7a3.635,3.635,0,0,1,1.906.515,3.375,3.375,0,0,1,1.3,1.4ZM215.336,16.8a2.731,2.731,0,0,0,2.12-.96,3.466,3.466,0,0,0,.858-2.4,3.459,3.459,0,0,0-.863-2.394,2.729,2.729,0,0,0-2.115-.965,2.791,2.791,0,0,0-2.134.932,3.43,3.43,0,0,0-.863,2.426,3.43,3.43,0,0,0,.863,2.426A2.791,2.791,0,0,0,215.336,16.8Zm17.5-8.1a4.148,4.148,0,0,1,1.651.334,4.062,4.062,0,0,1,1.354.937,4.379,4.379,0,0,1,.914,1.5,5.542,5.542,0,0,1,.339,1.967,4.822,4.822,0,0,1-1.229,3.442,3.992,3.992,0,0,1-3.029,1.308,3.61,3.61,0,0,1-1.906-.52,3.405,3.405,0,0,1-1.3-1.4v6.318h-1.6V8.88h1.549l.037,1.772a3.338,3.338,0,0,1,1.3-1.424A3.643,3.643,0,0,1,232.833,8.7Zm-.315,8.1a2.769,2.769,0,0,0,2.111-.923,3.434,3.434,0,0,0,.858-2.435,3.417,3.417,0,0,0-.858-2.431,2.878,2.878,0,0,0-4.254.042,3.42,3.42,0,0,0-.872,2.389,3.433,3.433,0,0,0,.872,2.4A2.783,2.783,0,0,0,232.518,16.8Zm9.212,1.373a3.1,3.1,0,0,1-2-.626,2.249,2.249,0,0,1-.784-1.869,2.656,2.656,0,0,1,.25-1.192,2.1,2.1,0,0,1,.742-.83,4.452,4.452,0,0,1,1.072-.515,9.9,9.9,0,0,1,1.387-.329l1.475-.241q.807-.148.807-.844a1.594,1.594,0,0,0-.571-1.359,2.325,2.325,0,0,0-1.443-.431,2.368,2.368,0,0,0-1.429.417,1.747,1.747,0,0,0-.677,1.28l-1.447-.306a2.785,2.785,0,0,1,1.141-1.953,4.263,4.263,0,0,1,2.486-.654,5.043,5.043,0,0,1,1.322.162,3.593,3.593,0,0,1,1.1.51,2.288,2.288,0,0,1,.789.983,3.659,3.659,0,0,1,.283,1.5v3.767a1.541,1.541,0,0,0,.209.951.9.9,0,0,0,.719.246h.148V18h-.8a1.522,1.522,0,0,1-1.726-1.234h-.074A3.485,3.485,0,0,1,241.73,18.176Zm.371-1.3A2.433,2.433,0,0,0,244.059,16a3.628,3.628,0,0,0,.742-2.412l-2.412.464a3.247,3.247,0,0,0-1.415.506,1.176,1.176,0,0,0-.459,1,1.162,1.162,0,0,0,.441,1A1.884,1.884,0,0,0,242.1,16.877Zm9.045-6.392a2.757,2.757,0,0,1,1.132-1.225,3.409,3.409,0,0,1,1.753-.482v1.512a3,3,0,0,0-2.12.677,2.829,2.829,0,0,0-.728,2.162V18h-1.6V8.88h1.568Zm6.763,7.691a3.1,3.1,0,0,1-2-.626,2.249,2.249,0,0,1-.784-1.869,2.656,2.656,0,0,1,.25-1.192,2.1,2.1,0,0,1,.742-.83,4.452,4.452,0,0,1,1.072-.515,9.906,9.906,0,0,1,1.387-.329l1.475-.241q.807-.148.807-.844a1.594,1.594,0,0,0-.571-1.359,2.325,2.325,0,0,0-1.443-.431,2.368,2.368,0,0,0-1.429.417,1.747,1.747,0,0,0-.677,1.28l-1.447-.306a2.785,2.785,0,0,1,1.141-1.953,4.263,4.263,0,0,1,2.486-.654,5.043,5.043,0,0,1,1.322.162,3.593,3.593,0,0,1,1.1.51,2.288,2.288,0,0,1,.789.983,3.659,3.659,0,0,1,.283,1.5v3.767a1.541,1.541,0,0,0,.209.951.9.9,0,0,0,.719.246h.148V18h-.8a1.522,1.522,0,0,1-1.726-1.234H260.9A3.485,3.485,0,0,1,257.91,18.176Zm.371-1.3A2.433,2.433,0,0,0,260.239,16a3.629,3.629,0,0,0,.742-2.412l-2.412.464a3.247,3.247,0,0,0-1.415.506,1.176,1.176,0,0,0-.459,1,1.162,1.162,0,0,0,.441,1A1.884,1.884,0,0,0,258.281,16.877ZM270.694,18V3.75h1.624V18Zm7,.176a3.1,3.1,0,0,1-2-.626,2.249,2.249,0,0,1-.784-1.869,2.656,2.656,0,0,1,.25-1.192,2.1,2.1,0,0,1,.742-.83,4.452,4.452,0,0,1,1.072-.515,9.906,9.906,0,0,1,1.387-.329l1.475-.241q.807-.148.807-.844a1.594,1.594,0,0,0-.571-1.359,2.325,2.325,0,0,0-1.443-.431,2.368,2.368,0,0,0-1.429.417,1.747,1.747,0,0,0-.677,1.28l-1.447-.306a2.785,2.785,0,0,1,1.141-1.953,4.263,4.263,0,0,1,2.486-.654,5.043,5.043,0,0,1,1.322.162,3.593,3.593,0,0,1,1.1.51,2.288,2.288,0,0,1,.789.983,3.659,3.659,0,0,1,.283,1.5v3.767a1.541,1.541,0,0,0,.209.951.9.9,0,0,0,.719.246h.148V18h-.8a1.522,1.522,0,0,1-1.726-1.234h-.074A3.485,3.485,0,0,1,277.689,18.176Zm.371-1.3A2.433,2.433,0,0,0,280.018,16a3.629,3.629,0,0,0,.742-2.412l-2.412.464a3.247,3.247,0,0,0-1.415.506,1.176,1.176,0,0,0-.459,1,1.162,1.162,0,0,0,.441,1A1.884,1.884,0,0,0,278.061,16.877ZM6.448,32.7a4.148,4.148,0,0,1,1.651.334,4.062,4.062,0,0,1,1.354.937,4.379,4.379,0,0,1,.914,1.5,5.542,5.542,0,0,1,.339,1.967,4.822,4.822,0,0,1-1.229,3.442,3.992,3.992,0,0,1-3.029,1.308,3.61,3.61,0,0,1-1.906-.52,3.4,3.4,0,0,1-1.3-1.4v6.318h-1.6V32.88H3.182l.037,1.772a3.338,3.338,0,0,1,1.3-1.424A3.643,3.643,0,0,1,6.448,32.7Zm-.315,8.1a2.769,2.769,0,0,0,2.111-.923,3.878,3.878,0,0,0,0-4.866A2.775,2.775,0,0,0,6.132,34.1a2.783,2.783,0,0,0-2.143.96,3.721,3.721,0,0,0,0,4.787A2.783,2.783,0,0,0,6.132,40.8ZM17.08,42.176a4.807,4.807,0,0,1-2.338-.566,4.121,4.121,0,0,1-1.647-1.656,5.087,5.087,0,0,1-.608-2.519A4.646,4.646,0,0,1,13.781,34a4.467,4.467,0,0,1,3.3-1.294A4.463,4.463,0,0,1,20.382,34a4.655,4.655,0,0,1,1.29,3.437,4.658,4.658,0,0,1-1.294,3.447A4.467,4.467,0,0,1,17.08,42.176ZM17.07,40.84a2.8,2.8,0,0,0,2.157-.937,3.964,3.964,0,0,0,0-4.926,2.8,2.8,0,0,0-2.157-.937,2.762,2.762,0,0,0-2.138.937,4,4,0,0,0,0,4.926A2.762,2.762,0,0,0,17.07,40.84ZM29.02,32.7a3.973,3.973,0,0,1,3.015,1.317,4.806,4.806,0,0,1,1.234,3.423,4.84,4.84,0,0,1-1.225,3.433,3.965,3.965,0,0,1-3.024,1.317,3.66,3.66,0,0,1-1.944-.529,3.347,3.347,0,0,1-1.3-1.438L25.735,42H24.186V27.75h1.6l.009,6.875a3.361,3.361,0,0,1,1.3-1.406A3.669,3.669,0,0,1,29.02,32.7Zm-.353,8.1a2.791,2.791,0,0,0,2.134-.932,3.842,3.842,0,0,0,0-4.852,2.791,2.791,0,0,0-2.134-.932,2.729,2.729,0,0,0-2.115.965,3.766,3.766,0,0,0,0,4.792A2.731,2.731,0,0,0,28.667,40.8ZM35.792,42V27.75h1.624V42Zm7,.176a3.1,3.1,0,0,1-2-.626A2.249,2.249,0,0,1,40,39.681a2.656,2.656,0,0,1,.25-1.192,2.1,2.1,0,0,1,.742-.83,4.452,4.452,0,0,1,1.072-.515,9.9,9.9,0,0,1,1.387-.329l1.475-.241q.807-.148.807-.844a1.594,1.594,0,0,0-.571-1.359,2.325,2.325,0,0,0-1.443-.431,2.368,2.368,0,0,0-1.429.417,1.747,1.747,0,0,0-.677,1.28l-1.447-.306a2.785,2.785,0,0,1,1.141-1.953,4.263,4.263,0,0,1,2.486-.654,5.043,5.043,0,0,1,1.322.162,3.593,3.593,0,0,1,1.1.51,2.288,2.288,0,0,1,.789.983,3.659,3.659,0,0,1,.283,1.5v3.767a1.541,1.541,0,0,0,.209.951.9.9,0,0,0,.719.246h.148V42h-.8a1.522,1.522,0,0,1-1.726-1.234h-.074A3.485,3.485,0,0,1,42.787,42.176Zm.371-1.3A2.433,2.433,0,0,0,45.116,40a3.628,3.628,0,0,0,.742-2.412l-2.412.464a3.247,3.247,0,0,0-1.415.506,1.176,1.176,0,0,0-.459,1,1.162,1.162,0,0,0,.441,1A1.884,1.884,0,0,0,43.158,40.877Zm11.077,1.29a4.392,4.392,0,0,1-3.266-1.308,4.666,4.666,0,0,1-1.29-3.423,4.676,4.676,0,0,1,1.285-3.423,4.752,4.752,0,0,1,5.91-.51,4.026,4.026,0,0,1,1.535,2.217l-1.5.241a2.776,2.776,0,0,0-1.03-1.419,2.8,2.8,0,0,0-1.651-.5,2.7,2.7,0,0,0-2.111.937,4.048,4.048,0,0,0,0,4.912,2.7,2.7,0,0,0,2.111.932,2.8,2.8,0,0,0,1.651-.5,2.776,2.776,0,0,0,1.03-1.419l1.5.25a4.031,4.031,0,0,1-1.545,2.213A4.418,4.418,0,0,1,54.235,42.167Zm7.357-11.43a1.093,1.093,0,0,1-1.085-1.085,1.029,1.029,0,0,1,.32-.761,1.052,1.052,0,0,1,.765-.315,1.041,1.041,0,0,1,.756.315,1.029,1.029,0,0,1,.32.761,1.044,1.044,0,0,1-.32.765A1.034,1.034,0,0,1,61.592,30.737ZM60.776,42V32.88H62.39V42Zm8.108-10.687,2.329-3.024.854.622-2.078,2.4ZM69.5,42.176a4.807,4.807,0,0,1-2.338-.566,4.121,4.121,0,0,1-1.647-1.656,5.087,5.087,0,0,1-.608-2.519A4.646,4.646,0,0,1,66.2,34a4.855,4.855,0,0,1,6.6,0,4.655,4.655,0,0,1,1.29,3.437,4.658,4.658,0,0,1-1.294,3.447A4.467,4.467,0,0,1,69.5,42.176Zm-.009-1.336a2.8,2.8,0,0,0,2.157-.937,3.964,3.964,0,0,0,0-4.926,2.8,2.8,0,0,0-2.157-.937,2.762,2.762,0,0,0-2.138.937,4,4,0,0,0,0,4.926A2.762,2.762,0,0,0,69.487,40.84ZM80.908,32.7a3.172,3.172,0,0,1,2.3.826,3.08,3.08,0,0,1,.858,2.329V42h-1.6V36.22a2.156,2.156,0,0,0-.557-1.633,1.99,1.99,0,0,0-1.429-.529,2.206,2.206,0,0,0-1.624.626,2.541,2.541,0,0,0-.64,1.86V42H76.6V32.88h1.6v1.169A3.046,3.046,0,0,1,80.908,32.7Zm20.512,0a2.94,2.94,0,0,1,2.125.775,2.873,2.873,0,0,1,.807,2.176V42h-1.6V36.072a2.061,2.061,0,0,0-.5-1.5,1.706,1.706,0,0,0-1.271-.51,1.8,1.8,0,0,0-1.392.575,2.473,2.473,0,0,0-.529,1.726V42H97.421V36.137a2.156,2.156,0,0,0-.506-1.554,1.72,1.72,0,0,0-1.294-.524,1.784,1.784,0,0,0-1.387.589,2.559,2.559,0,0,0-.533,1.767V42H92.1V32.88h1.6v1.178a2.77,2.77,0,0,1,1.044-1A2.976,2.976,0,0,1,96.2,32.7a3.1,3.1,0,0,1,1.559.385A2.4,2.4,0,0,1,98.767,34.2a2.838,2.838,0,0,1,1.095-1.109A3.131,3.131,0,0,1,101.42,32.7Zm8.146,9.472a3.1,3.1,0,0,1-2-.626,2.249,2.249,0,0,1-.784-1.869,2.656,2.656,0,0,1,.25-1.192,2.1,2.1,0,0,1,.742-.83,4.452,4.452,0,0,1,1.072-.515,9.906,9.906,0,0,1,1.387-.329l1.475-.241q.807-.148.807-.844a1.594,1.594,0,0,0-.571-1.359,2.325,2.325,0,0,0-1.443-.431,2.368,2.368,0,0,0-1.429.417,1.747,1.747,0,0,0-.677,1.28l-1.447-.306a2.785,2.785,0,0,1,1.141-1.953,4.263,4.263,0,0,1,2.486-.654,5.043,5.043,0,0,1,1.322.162,3.593,3.593,0,0,1,1.1.51,2.288,2.288,0,0,1,.789.983,3.659,3.659,0,0,1,.283,1.5v3.767a1.541,1.541,0,0,0,.209.951.9.9,0,0,0,.719.246h.148V42h-.8a1.522,1.522,0,0,1-1.726-1.234h-.074A3.485,3.485,0,0,1,109.565,42.176Zm.371-1.3A2.433,2.433,0,0,0,111.894,40a3.628,3.628,0,0,0,.742-2.412l-2.412.464a3.247,3.247,0,0,0-1.415.506,1.176,1.176,0,0,0-.459,1,1.162,1.162,0,0,0,.441,1A1.884,1.884,0,0,0,109.937,40.877ZM120.271,42a2.4,2.4,0,0,1-1.781-.654,2.474,2.474,0,0,1-.649-1.823V34.161h-1.865V32.88h.687a1.318,1.318,0,0,0,1.007-.32,1.575,1.575,0,0,0,.292-1.072V29.837h1.494V32.88h2.1v1.28h-2.1v5.2a1.383,1.383,0,0,0,.348,1.007,1.218,1.218,0,0,0,.914.357h.835V42Zm11.467-4.741-.019.436h-7.125a3.223,3.223,0,0,0,.872,2.333,2.863,2.863,0,0,0,2.078.812,2.734,2.734,0,0,0,1.512-.436A2.829,2.829,0,0,0,130.1,39.2l1.447.306a4.114,4.114,0,0,1-1.559,1.958,4.252,4.252,0,0,1-2.421.714,4.406,4.406,0,0,1-3.284-1.271,4.728,4.728,0,0,1-1.252-3.47,4.705,4.705,0,0,1,1.257-3.46,4.351,4.351,0,0,1,3.233-1.271,4.117,4.117,0,0,1,3.066,1.169A4.619,4.619,0,0,1,131.738,37.259Zm-4.221-3.321a2.844,2.844,0,0,0-1.9.645,2.954,2.954,0,0,0-.96,1.879h5.464a2.71,2.71,0,0,0-.8-1.879A2.577,2.577,0,0,0,127.517,33.938Zm8.3.547a2.757,2.757,0,0,1,1.132-1.225,3.408,3.408,0,0,1,1.753-.482v1.512a3,3,0,0,0-2.12.677,2.829,2.829,0,0,0-.728,2.162V42h-1.6V32.88h1.568Zm9.073-1.781a3.172,3.172,0,0,1,2.3.826,3.08,3.08,0,0,1,.858,2.329V42h-1.6V36.22a2.156,2.156,0,0,0-.557-1.633,1.99,1.99,0,0,0-1.429-.529,2.206,2.206,0,0,0-1.624.626,2.541,2.541,0,0,0-.64,1.86V42h-1.6V32.88h1.6v1.169A3.046,3.046,0,0,1,144.894,32.7Zm10.094,9.472a4.807,4.807,0,0,1-2.338-.566A4.121,4.121,0,0,1,151,39.954a5.087,5.087,0,0,1-.608-2.519A4.646,4.646,0,0,1,151.689,34a4.855,4.855,0,0,1,6.6,0,4.655,4.655,0,0,1,1.29,3.437,4.658,4.658,0,0,1-1.294,3.447A4.467,4.467,0,0,1,154.987,42.176Zm-.009-1.336a2.8,2.8,0,0,0,2.157-.937,3.964,3.964,0,0,0,0-4.926,2.8,2.8,0,0,0-2.157-.937,2.762,2.762,0,0,0-2.138.937,4,4,0,0,0,0,4.926A2.762,2.762,0,0,0,154.978,40.84ZM171.844,32.7a4.148,4.148,0,0,1,1.651.334,4.062,4.062,0,0,1,1.354.937,4.379,4.379,0,0,1,.914,1.5,5.542,5.542,0,0,1,.339,1.967,4.822,4.822,0,0,1-1.229,3.442,3.992,3.992,0,0,1-3.029,1.308,3.61,3.61,0,0,1-1.906-.52,3.405,3.405,0,0,1-1.3-1.4v6.318h-1.6V32.88h1.549l.037,1.772a3.338,3.338,0,0,1,1.3-1.424A3.643,3.643,0,0,1,171.844,32.7Zm-.315,8.1a2.769,2.769,0,0,0,2.111-.923,3.878,3.878,0,0,0,0-4.866,2.878,2.878,0,0,0-4.254.042,3.721,3.721,0,0,0,0,4.787A2.783,2.783,0,0,0,171.529,40.8Zm15.085-3.544-.019.436H179.47a3.223,3.223,0,0,0,.872,2.333,2.863,2.863,0,0,0,2.078.812,2.734,2.734,0,0,0,1.512-.436,2.829,2.829,0,0,0,1.039-1.206l1.447.306a4.114,4.114,0,0,1-1.559,1.958,4.252,4.252,0,0,1-2.421.714,4.406,4.406,0,0,1-3.284-1.271,4.728,4.728,0,0,1-1.252-3.47,4.705,4.705,0,0,1,1.257-3.46,4.351,4.351,0,0,1,3.233-1.271,4.117,4.117,0,0,1,3.066,1.169A4.619,4.619,0,0,1,186.614,37.259Zm-4.221-3.321a2.844,2.844,0,0,0-1.9.645,2.954,2.954,0,0,0-.96,1.879H185a2.71,2.71,0,0,0-.8-1.879A2.577,2.577,0,0,0,182.393,33.938Zm8.3.547a2.757,2.757,0,0,1,1.132-1.225,3.408,3.408,0,0,1,1.753-.482v1.512a3,3,0,0,0-2.12.677,2.829,2.829,0,0,0-.728,2.162V42h-1.6V32.88H190.7Zm5.585-3.748a1.093,1.093,0,0,1-1.085-1.085,1.029,1.029,0,0,1,.32-.761,1.052,1.052,0,0,1,.765-.315,1.041,1.041,0,0,1,.756.315,1.029,1.029,0,0,1,.32.761,1.044,1.044,0,0,1-.32.765A1.034,1.034,0,0,1,196.281,30.737ZM195.464,42V32.88h1.614V42Zm9.185-9.3a3.172,3.172,0,0,1,2.3.826,3.08,3.08,0,0,1,.858,2.329V42h-1.6V36.22a2.156,2.156,0,0,0-.557-1.633,1.99,1.99,0,0,0-1.429-.529,2.206,2.206,0,0,0-1.624.626,2.541,2.541,0,0,0-.64,1.86V42h-1.6V32.88h1.6v1.169A3.046,3.046,0,0,1,204.649,32.7Zm8.359,9.472a3.1,3.1,0,0,1-2-.626,2.249,2.249,0,0,1-.784-1.869,2.656,2.656,0,0,1,.25-1.192,2.1,2.1,0,0,1,.742-.83,4.452,4.452,0,0,1,1.072-.515,9.9,9.9,0,0,1,1.387-.329l1.475-.241q.807-.148.807-.844a1.594,1.594,0,0,0-.571-1.359,2.325,2.325,0,0,0-1.443-.431,2.368,2.368,0,0,0-1.429.417,1.747,1.747,0,0,0-.677,1.28l-1.447-.306a2.785,2.785,0,0,1,1.141-1.953,4.263,4.263,0,0,1,2.486-.654,5.043,5.043,0,0,1,1.322.162,3.593,3.593,0,0,1,1.1.51,2.288,2.288,0,0,1,.789.983,3.659,3.659,0,0,1,.283,1.5v3.767a1.541,1.541,0,0,0,.209.951.9.9,0,0,0,.719.246h.148V42h-.8a1.522,1.522,0,0,1-1.726-1.234H216A3.485,3.485,0,0,1,213.008,42.176Zm.371-1.3A2.433,2.433,0,0,0,215.336,40a3.628,3.628,0,0,0,.742-2.412l-2.412.464a3.247,3.247,0,0,0-1.415.506,1.176,1.176,0,0,0-.459,1,1.162,1.162,0,0,0,.441,1A1.884,1.884,0,0,0,213.379,40.877ZM223.714,42a2.4,2.4,0,0,1-1.781-.654,2.474,2.474,0,0,1-.649-1.823V34.161h-1.865V32.88h.687a1.318,1.318,0,0,0,1.007-.32,1.575,1.575,0,0,0,.292-1.072V29.837H222.9V32.88h2.1v1.28h-2.1v5.2a1.383,1.383,0,0,0,.348,1.007,1.218,1.218,0,0,0,.914.357h.835V42Zm5.594.176a3.1,3.1,0,0,1-2-.626,2.249,2.249,0,0,1-.784-1.869,2.656,2.656,0,0,1,.25-1.192,2.1,2.1,0,0,1,.742-.83,4.452,4.452,0,0,1,1.072-.515,9.9,9.9,0,0,1,1.387-.329l1.475-.241q.807-.148.807-.844a1.594,1.594,0,0,0-.571-1.359,2.325,2.325,0,0,0-1.443-.431,2.368,2.368,0,0,0-1.429.417,1.747,1.747,0,0,0-.677,1.28l-1.447-.306a2.785,2.785,0,0,1,1.141-1.953,4.263,4.263,0,0,1,2.486-.654,5.043,5.043,0,0,1,1.322.162,3.593,3.593,0,0,1,1.1.51,2.288,2.288,0,0,1,.789.983,3.659,3.659,0,0,1,.283,1.5v3.767a1.541,1.541,0,0,0,.209.951.9.9,0,0,0,.719.246h.148V42h-.8a1.522,1.522,0,0,1-1.726-1.234H232.3A3.485,3.485,0,0,1,229.308,42.176Zm.371-1.3A2.433,2.433,0,0,0,231.637,40a3.628,3.628,0,0,0,.742-2.412l-2.412.464a3.247,3.247,0,0,0-1.415.506,1.176,1.176,0,0,0-.459,1,1.162,1.162,0,0,0,.441,1A1.884,1.884,0,0,0,229.679,40.877ZM237.157,42V27.75h1.624V42Z" transform="translate(349 1071)" fill="#fff"/>
    <g id="Grupo_15862" data-name="Grupo 15862" transform="translate(84.513 -4548)">
      <g id="Grupo_15860" data-name="Grupo 15860" transform="translate(178.087 5607)">
        <path id="Trazado_37734" data-name="Trazado 37734" d="M179.171,5633.506c.087.008.706.068,1.645.068,2.526,0,7.367-.431,10.373-3.437a12.361,12.361,0,0,0,2.972-5.181,12.047,12.047,0,1,0-1.491-7.1c-2.148.074-6.855.614-10,3.76-4.034,4.035-4.557,10.333-4.578,10.6A1.208,1.208,0,0,0,179.171,5633.506Z" transform="translate(-178.087 -5607)" fill="#415214"/>
      </g>
      <g id="Grupo_15861" data-name="Grupo 15861" transform="translate(178.088 5633.512)">
        <path id="Trazado_37735" data-name="Trazado 37735" d="M216.425,5647.209a8.524,8.524,0,0,0-3.942-.976H198.307a10.81,10.81,0,0,0-8.589,4.223c-4.342,5.589-11.629,16.229-11.629,24.7,0,12.291,14.783,16.871,24.1,16.871a4.82,4.82,0,1,0,0-9.641,19.767,19.767,0,0,1-9.93-2.731,14.035,14.035,0,0,0,5.924-2.654,17.955,17.955,0,0,1-3.224-10.28,3.615,3.615,0,0,1,7.23,0,10.846,10.846,0,0,0,21.691,0,1.205,1.205,0,0,1,2.41,0,13.247,13.247,0,0,1-17.108,12.681c.018.006.034.015.053.021a4.819,4.819,0,0,0,3.8,7.786h2.431c.181,0,18.055-.527,18.055-18.077C233.523,5660.543,227.77,5653.168,216.425,5647.209Zm-3.39,27.946a8.436,8.436,0,1,1,8.436-8.436A8.446,8.446,0,0,1,213.036,5675.155Z" transform="translate(-178.089 -5646.233)" fill="#415214"/>
      </g>
    </g>
  </g>
</svg>
