<svg xmlns="http://www.w3.org/2000/svg" xmlns:xlink="http://www.w3.org/1999/xlink" width="186" height="158" viewBox="0 0 186 158">
  <defs>
    <filter id="Rectángulo_25856" x="0" y="0" width="186" height="54" filterUnits="userSpaceOnUse">
      <feOffset dy="3" input="SourceAlpha"/>
      <feGaussianBlur stdDeviation="3" result="blur"/>
      <feFlood flood-opacity="0.161"/>
      <feComposite operator="in" in2="blur"/>
      <feComposite in="SourceGraphic"/>
    </filter>
    <filter id="Rectángulo_25857" x="0" y="52" width="186" height="54" filterUnits="userSpaceOnUse">
      <feOffset dy="3" input="SourceAlpha"/>
      <feGaussianBlur stdDeviation="3" result="blur-2"/>
      <feFlood flood-opacity="0.161"/>
      <feComposite operator="in" in2="blur-2"/>
      <feComposite in="SourceGraphic"/>
    </filter>
    <filter id="Rectángulo_25858" x="0" y="104" width="186" height="54" filterUnits="userSpaceOnUse">
      <feOffset dy="3" input="SourceAlpha"/>
      <feGaussianBlur stdDeviation="3" result="blur-3"/>
      <feFlood flood-opacity="0.161"/>
      <feComposite operator="in" in2="blur-3"/>
      <feComposite in="SourceGraphic"/>
    </filter>
  </defs>
  <g id="Grupo_25332" data-name="Grupo 25332" transform="translate(-607 -3977)">
    <g id="Grupo_25153" data-name="Grupo 25153" transform="translate(-205 116)">
      <line id="Línea_265" data-name="Línea 265" y2="106" transform="translate(905.5 3875.5)" fill="none" stroke="#8d85ac" stroke-width="2"/>
      <g transform="matrix(1, 0, 0, 1, 812, 3861)" filter="url(#Rectángulo_25856)">
        <g id="Rectángulo_25856-2" data-name="Rectángulo 25856" transform="translate(9 6)" fill="#8d85ac" stroke="#8d85ac" stroke-width="1">
          <rect width="168" height="36" rx="7" stroke="none"/>
          <rect x="0.5" y="0.5" width="167" height="35" rx="6.5" fill="none"/>
        </g>
      </g>
      <g transform="matrix(1, 0, 0, 1, 812, 3861)" filter="url(#Rectángulo_25857)">
        <g id="Rectángulo_25857-2" data-name="Rectángulo 25857" transform="translate(9 58)" fill="#fff" stroke="#8d85ac" stroke-width="1">
          <rect width="168" height="36" rx="7" stroke="none"/>
          <rect x="0.5" y="0.5" width="167" height="35" rx="6.5" fill="none"/>
        </g>
      </g>
      <g transform="matrix(1, 0, 0, 1, 812, 3861)" filter="url(#Rectángulo_25858)">
        <g id="Rectángulo_25858-2" data-name="Rectángulo 25858" transform="translate(9 110)" fill="#fff" stroke="#8d85ac" stroke-width="1">
          <rect width="168" height="36" rx="7" stroke="none"/>
          <rect x="0.5" y="0.5" width="167" height="35" rx="6.5" fill="none"/>
        </g>
      </g>
      <path id="Trazado_67272" data-name="Trazado 67272" d="M35.976,14.13a5.14,5.14,0,0,1-1.876-.338,4.472,4.472,0,0,1-1.511-.957,4.313,4.313,0,0,1-1-1.552,5.622,5.622,0,0,1-.366-2.068,5.376,5.376,0,0,1,.636-2.659A4.271,4.271,0,0,1,33.57,4.83a5.344,5.344,0,0,1,4.84-.01A4.159,4.159,0,0,1,40.1,6.487l-1.08.581A3.077,3.077,0,0,0,37.774,5.8a3.633,3.633,0,0,0-1.764-.427,3.828,3.828,0,0,0-1.4.253,3.175,3.175,0,0,0-1.887,1.935,4.637,4.637,0,0,0-.273,1.634,4.611,4.611,0,0,0,.27,1.62,3.314,3.314,0,0,0,.752,1.207,3.267,3.267,0,0,0,1.142.738,3.92,3.92,0,0,0,1.432.256,3.28,3.28,0,0,0,2.2-.749,3.145,3.145,0,0,0,1.036-2.136H36.038V9.092h4.443V14h-1V12.2A3.37,3.37,0,0,1,38.1,13.627,4.282,4.282,0,0,1,35.976,14.13ZM48.6,10.507l-.014.321h-5.25a2.375,2.375,0,0,0,.643,1.719,2.11,2.11,0,0,0,1.531.6,2.015,2.015,0,0,0,1.114-.321,2.085,2.085,0,0,0,.766-.889l1.066.226A3.031,3.031,0,0,1,47.31,13.6a3.133,3.133,0,0,1-1.784.526,3.246,3.246,0,0,1-2.42-.937,3.484,3.484,0,0,1-.923-2.557,3.467,3.467,0,0,1,.926-2.55,3.206,3.206,0,0,1,2.382-.937,3.034,3.034,0,0,1,2.259.861A3.4,3.4,0,0,1,48.6,10.507ZM45.492,8.06a2.1,2.1,0,0,0-1.4.475,2.177,2.177,0,0,0-.708,1.384h4.026a2,2,0,0,0-.588-1.384A1.9,1.9,0,0,0,45.492,8.06Zm6.118.4a2.032,2.032,0,0,1,.834-.9,2.512,2.512,0,0,1,1.292-.355V8.319a2.214,2.214,0,0,0-1.562.5,2.084,2.084,0,0,0-.537,1.593V14H50.455V7.28H51.61Zm9.311,2.044-.014.321h-5.25a2.375,2.375,0,0,0,.643,1.719,2.11,2.11,0,0,0,1.531.6,2.015,2.015,0,0,0,1.114-.321,2.085,2.085,0,0,0,.766-.889l1.066.226A3.031,3.031,0,0,1,59.628,13.6a3.133,3.133,0,0,1-1.784.526,3.246,3.246,0,0,1-2.42-.937,3.484,3.484,0,0,1-.923-2.557,3.467,3.467,0,0,1,.926-2.55A3.206,3.206,0,0,1,57.81,7.15a3.034,3.034,0,0,1,2.259.861A3.4,3.4,0,0,1,60.92,10.507ZM57.81,8.06a2.1,2.1,0,0,0-1.4.475A2.177,2.177,0,0,0,55.7,9.919h4.026a2,2,0,0,0-.588-1.384A1.9,1.9,0,0,0,57.81,8.06Zm8.135-.909a2.337,2.337,0,0,1,1.692.608,2.269,2.269,0,0,1,.632,1.716V14H67.086V9.741a1.589,1.589,0,0,0-.41-1.2,1.466,1.466,0,0,0-1.053-.39,1.626,1.626,0,0,0-1.2.461,1.872,1.872,0,0,0-.472,1.371V14H62.773V7.28h1.183v.861A2.244,2.244,0,0,1,65.945,7.15ZM72.7,14a1.766,1.766,0,0,1-1.312-.482,1.823,1.823,0,0,1-.479-1.343V8.224H69.534V7.28h.506a.971.971,0,0,0,.742-.236A1.161,1.161,0,0,0,71,6.255V5.038h1.1V7.28h1.545v.943H72.1v3.828a1.019,1.019,0,0,0,.256.742.9.9,0,0,0,.673.263h.615V14Zm8.449-3.493-.014.321h-5.25a2.374,2.374,0,0,0,.643,1.719,2.11,2.11,0,0,0,1.531.6,2.015,2.015,0,0,0,1.114-.321,2.085,2.085,0,0,0,.766-.889L81,12.161A3.031,3.031,0,0,1,79.856,13.6a3.133,3.133,0,0,1-1.784.526,3.246,3.246,0,0,1-2.42-.937,3.484,3.484,0,0,1-.923-2.557,3.467,3.467,0,0,1,.926-2.55,3.206,3.206,0,0,1,2.382-.937,3.034,3.034,0,0,1,2.259.861A3.4,3.4,0,0,1,81.148,10.507ZM78.038,8.06a2.1,2.1,0,0,0-1.4.475,2.177,2.177,0,0,0-.708,1.384h4.026a2,2,0,0,0-.588-1.384A1.9,1.9,0,0,0,78.038,8.06ZM91.5,7.28h1.148v6.378a3.66,3.66,0,0,1-.868,2.618,3.615,3.615,0,0,1-5.667-1.142l.978-.479a2.222,2.222,0,0,0,2.249,1.552,1.929,1.929,0,0,0,1.576-.656,2.793,2.793,0,0,0,.543-1.832V12.476a2.368,2.368,0,0,1-.957.967,2.785,2.785,0,0,1-1.4.366,2.881,2.881,0,0,1-2.174-.947,3.339,3.339,0,0,1-.9-2.389,3.308,3.308,0,0,1,.9-2.382,2.909,2.909,0,0,1,2.184-.94,2.715,2.715,0,0,1,1.408.376,2.42,2.42,0,0,1,.95.991ZM89.372,12.8a2.033,2.033,0,0,0,1.548-.69,2.439,2.439,0,0,0,0-3.288,2.106,2.106,0,0,0-3.1-.021,2.336,2.336,0,0,0-.632,1.668,2.316,2.316,0,0,0,.639,1.658A2.049,2.049,0,0,0,89.372,12.8Zm11.566-2.3-.014.321h-5.25a2.374,2.374,0,0,0,.643,1.719,2.11,2.11,0,0,0,1.531.6,2.015,2.015,0,0,0,1.114-.321,2.085,2.085,0,0,0,.766-.889l1.066.226A3.031,3.031,0,0,1,99.646,13.6a3.133,3.133,0,0,1-1.784.526,3.246,3.246,0,0,1-2.42-.937,3.484,3.484,0,0,1-.923-2.557,3.467,3.467,0,0,1,.926-2.55,3.206,3.206,0,0,1,2.382-.937,3.034,3.034,0,0,1,2.259.861A3.4,3.4,0,0,1,100.938,10.507ZM97.828,8.06a2.1,2.1,0,0,0-1.4.475,2.177,2.177,0,0,0-.708,1.384h4.026a2,2,0,0,0-.588-1.384A1.9,1.9,0,0,0,97.828,8.06Zm8.135-.909a2.337,2.337,0,0,1,1.692.608,2.269,2.269,0,0,1,.632,1.716V14H107.1V9.741a1.589,1.589,0,0,0-.41-1.2,1.466,1.466,0,0,0-1.053-.39,1.626,1.626,0,0,0-1.2.461,1.872,1.872,0,0,0-.472,1.371V14h-1.183V7.28h1.183v.861A2.244,2.244,0,0,1,105.962,7.15Zm10.486,3.356-.014.321h-5.25a2.374,2.374,0,0,0,.643,1.719,2.11,2.11,0,0,0,1.531.6,2.015,2.015,0,0,0,1.114-.321,2.085,2.085,0,0,0,.766-.889l1.066.226a3.031,3.031,0,0,1-1.148,1.442,3.133,3.133,0,0,1-1.784.526,3.246,3.246,0,0,1-2.42-.937,3.484,3.484,0,0,1-.923-2.557,3.467,3.467,0,0,1,.926-2.55,3.206,3.206,0,0,1,2.382-.937,3.034,3.034,0,0,1,2.259.861A3.4,3.4,0,0,1,116.449,10.507Zm-3.11-2.447a2.1,2.1,0,0,0-1.4.475,2.177,2.177,0,0,0-.708,1.384h4.026a2,2,0,0,0-.588-1.384A1.9,1.9,0,0,0,113.338,8.06Zm6.118.4a2.032,2.032,0,0,1,.834-.9,2.512,2.512,0,0,1,1.292-.355V8.319a2.214,2.214,0,0,0-1.562.5,2.084,2.084,0,0,0-.537,1.593V14H118.3V7.28h1.155Zm4.983,5.667a2.287,2.287,0,0,1-1.473-.461,1.657,1.657,0,0,1-.578-1.377,1.957,1.957,0,0,1,.185-.878,1.549,1.549,0,0,1,.547-.612,3.281,3.281,0,0,1,.79-.379,7.3,7.3,0,0,1,1.022-.243L126.019,10q.595-.109.595-.622a1.174,1.174,0,0,0-.42-1,1.713,1.713,0,0,0-1.063-.318,1.745,1.745,0,0,0-1.053.308,1.287,1.287,0,0,0-.5.943l-1.066-.226a2.052,2.052,0,0,1,.841-1.439,3.141,3.141,0,0,1,1.832-.482,3.716,3.716,0,0,1,.974.12,2.647,2.647,0,0,1,.813.376,1.686,1.686,0,0,1,.581.725,2.7,2.7,0,0,1,.208,1.1v2.775a1.136,1.136,0,0,0,.154.7.664.664,0,0,0,.53.181h.109V14h-.588a1.121,1.121,0,0,1-1.271-.909h-.055A2.568,2.568,0,0,1,124.44,14.13Zm.273-.957a1.793,1.793,0,0,0,1.442-.649,2.674,2.674,0,0,0,.547-1.777l-1.777.342a2.392,2.392,0,0,0-1.042.373.867.867,0,0,0-.338.735.857.857,0,0,0,.325.738A1.388,1.388,0,0,0,124.713,13.173Zm5.51.827V3.5h1.2V14Z" transform="translate(824 3875)" fill="#fff"/>
      <path id="Trazado_67273" data-name="Trazado 67273" d="M51.441,13.121a4.079,4.079,0,0,1-2.333-.632,2.674,2.674,0,0,1-1.165-1.736l1.149-.273A1.884,1.884,0,0,0,49.9,11.7a2.726,2.726,0,0,0,1.581.444,3.3,3.3,0,0,0,.59-.051,2.258,2.258,0,0,0,.536-.168,1.642,1.642,0,0,0,.441-.289,1.205,1.205,0,0,0,.292-.438,1.5,1.5,0,0,0,.1-.6,1.29,1.29,0,0,0-.079-.422,1.34,1.34,0,0,0-.178-.333,1.2,1.2,0,0,0-.3-.27,4.04,4.04,0,0,0-.362-.216,3.271,3.271,0,0,0-.448-.181q-.282-.1-.473-.149l-.514-.143q-.063-.019-.1-.025-.368-.1-.6-.165T49.835,8.5a3.654,3.654,0,0,1-.53-.244,3.588,3.588,0,0,1-.435-.3,1.561,1.561,0,0,1-.359-.4,2.094,2.094,0,0,1-.216-.5,2.246,2.246,0,0,1-.086-.635,2.267,2.267,0,0,1,.416-1.371A2.433,2.433,0,0,1,49.7,4.208a3.894,3.894,0,0,1,1.476-.267,4.041,4.041,0,0,1,2.149.549,2.447,2.447,0,0,1,1.139,1.622l-1.1.279a1.681,1.681,0,0,0-.743-1.1,2.545,2.545,0,0,0-1.4-.368,2.766,2.766,0,0,0-.686.083,2.037,2.037,0,0,0-.594.254,1.232,1.232,0,0,0-.428.467,1.419,1.419,0,0,0-.159.682,1.1,1.1,0,0,0,.063.378,1.159,1.159,0,0,0,.159.3,1.13,1.13,0,0,0,.273.248,2.772,2.772,0,0,0,.333.2A3.377,3.377,0,0,0,50.6,7.7q.26.086.444.14t.489.13a10.341,10.341,0,0,1,1.72.571,2.177,2.177,0,0,1,1.327,1.644,2.834,2.834,0,0,1,.025.387,2.5,2.5,0,0,1-.257,1.155,2.084,2.084,0,0,1-.7.8,3.368,3.368,0,0,1-1,.448A4.6,4.6,0,0,1,51.441,13.121Zm8.906-6.36h1.1V13H60.391l-.025-.825a1.948,1.948,0,0,1-.774.7,2.382,2.382,0,0,1-1.092.244,2.171,2.171,0,0,1-1.571-.565,2.107,2.107,0,0,1-.587-1.593V6.76h1.1v3.955a1.481,1.481,0,0,0,.384,1.117,1.359,1.359,0,0,0,.981.368,1.493,1.493,0,0,0,1.108-.432,1.758,1.758,0,0,0,.435-1.276Zm6.64-.121a2.719,2.719,0,0,1,2.063.9,3.288,3.288,0,0,1,.844,2.342,3.312,3.312,0,0,1-.838,2.349,2.713,2.713,0,0,1-2.069.9,2.5,2.5,0,0,1-1.33-.362,2.29,2.29,0,0,1-.892-.984L64.739,13h-1.06V3.25h1.092l.006,4.7a2.3,2.3,0,0,1,.892-.962A2.51,2.51,0,0,1,66.986,6.64Zm-.241,5.542a1.91,1.91,0,0,0,1.46-.638,2.347,2.347,0,0,0,.59-1.66,2.347,2.347,0,0,0-.59-1.66,1.91,1.91,0,0,0-1.46-.638,1.868,1.868,0,0,0-1.447.66,2.367,2.367,0,0,0-.59,1.638,2.371,2.371,0,0,0,.587,1.641A1.869,1.869,0,0,0,66.745,12.181ZM76.139,6.76h1.066v5.922a3.4,3.4,0,0,1-.806,2.431,3.357,3.357,0,0,1-5.262-1.06l.908-.444a2.063,2.063,0,0,0,2.088,1.441,1.791,1.791,0,0,0,1.463-.609,2.594,2.594,0,0,0,.5-1.7V11.584a2.2,2.2,0,0,1-.889.9,2.586,2.586,0,0,1-1.3.34,2.675,2.675,0,0,1-2.019-.879,3.1,3.1,0,0,1-.832-2.219A3.072,3.072,0,0,1,71.9,7.512a2.7,2.7,0,0,1,2.028-.873,2.521,2.521,0,0,1,1.308.349,2.248,2.248,0,0,1,.882.92Zm-1.98,5.129a1.888,1.888,0,0,0,1.438-.641,2.265,2.265,0,0,0,0-3.053,1.956,1.956,0,0,0-2.879-.019,2.169,2.169,0,0,0-.587,1.549,2.151,2.151,0,0,0,.594,1.539A1.9,1.9,0,0,0,74.159,11.889ZM84.9,9.756l-.013.3H80.011a2.2,2.2,0,0,0,.6,1.6,1.959,1.959,0,0,0,1.422.555,1.871,1.871,0,0,0,1.035-.3,1.936,1.936,0,0,0,.711-.825l.99.209A2.815,2.815,0,0,1,83.7,12.632a2.909,2.909,0,0,1-1.657.489,3.014,3.014,0,0,1-2.247-.87,3.235,3.235,0,0,1-.857-2.374,3.22,3.22,0,0,1,.86-2.368,2.977,2.977,0,0,1,2.212-.87,2.817,2.817,0,0,1,2.1.8A3.16,3.16,0,0,1,84.9,9.756ZM82.011,7.484a1.946,1.946,0,0,0-1.3.441,2.021,2.021,0,0,0-.657,1.285h3.739a1.854,1.854,0,0,0-.546-1.285A1.763,1.763,0,0,0,82.011,7.484Zm5.681.375a1.886,1.886,0,0,1,.774-.838,2.332,2.332,0,0,1,1.2-.33V7.725a2.056,2.056,0,0,0-1.45.463,1.936,1.936,0,0,0-.5,1.479V13h-1.1V6.76h1.073Zm8.646,1.9-.013.3H91.45a2.2,2.2,0,0,0,.6,1.6,1.959,1.959,0,0,0,1.422.555,1.871,1.871,0,0,0,1.035-.3,1.936,1.936,0,0,0,.711-.825l.99.209a2.815,2.815,0,0,1-1.066,1.339,2.909,2.909,0,0,1-1.657.489,3.014,3.014,0,0,1-2.247-.87,3.235,3.235,0,0,1-.857-2.374,3.22,3.22,0,0,1,.86-2.368,2.977,2.977,0,0,1,2.212-.87,2.817,2.817,0,0,1,2.1.8A3.16,3.16,0,0,1,96.338,9.756ZM93.449,7.484a1.946,1.946,0,0,0-1.3.441,2.021,2.021,0,0,0-.657,1.285h3.739a1.854,1.854,0,0,0-.546-1.285A1.763,1.763,0,0,0,93.449,7.484ZM101,6.64a2.171,2.171,0,0,1,1.571.565,2.107,2.107,0,0,1,.587,1.593V13h-1.1V9.045a1.475,1.475,0,0,0-.381-1.117,1.362,1.362,0,0,0-.978-.362,1.51,1.51,0,0,0-1.111.428,1.739,1.739,0,0,0-.438,1.273V13h-1.1V6.76h1.1v.8A2.084,2.084,0,0,1,101,6.64ZM107.275,13a1.64,1.64,0,0,1-1.219-.448,1.693,1.693,0,0,1-.444-1.247V7.636h-1.276V6.76h.47a.9.9,0,0,0,.689-.219,1.078,1.078,0,0,0,.2-.733V4.678h1.022V6.76h1.435v.876h-1.435v3.555a.946.946,0,0,0,.238.689.833.833,0,0,0,.625.244h.571V13Zm7.846-3.244-.013.3h-4.875a2.2,2.2,0,0,0,.6,1.6,1.959,1.959,0,0,0,1.422.555,1.871,1.871,0,0,0,1.035-.3,1.936,1.936,0,0,0,.711-.825l.99.209a2.815,2.815,0,0,1-1.066,1.339,2.909,2.909,0,0,1-1.657.489,3.014,3.014,0,0,1-2.247-.87,3.235,3.235,0,0,1-.857-2.374,3.22,3.22,0,0,1,.86-2.368,2.977,2.977,0,0,1,2.212-.87,2.817,2.817,0,0,1,2.1.8A3.16,3.16,0,0,1,115.12,9.756Zm-2.888-2.272a1.946,1.946,0,0,0-1.3.441,2.021,2.021,0,0,0-.657,1.285h3.739a1.854,1.854,0,0,0-.546-1.285A1.763,1.763,0,0,0,112.232,7.484Z" transform="translate(824 3928)" fill="#767676"/>
      <path id="Trazado_67274" data-name="Trazado 67274" d="M19.28,13.121a3.967,3.967,0,0,1-1.955-.527l.5-.965a2.4,2.4,0,0,0,1.377.438,1.4,1.4,0,0,0,1.139-.492,2.067,2.067,0,0,0,.409-1.362V4.063h1.136V10.41a2.715,2.715,0,0,1-.711,1.984A2.526,2.526,0,0,1,19.28,13.121ZM29.729,9.756l-.013.3H24.841a2.2,2.2,0,0,0,.6,1.6,1.959,1.959,0,0,0,1.422.555,1.871,1.871,0,0,0,1.035-.3,1.936,1.936,0,0,0,.711-.825l.99.209a2.815,2.815,0,0,1-1.066,1.339,2.909,2.909,0,0,1-1.657.489,3.014,3.014,0,0,1-2.247-.87,3.235,3.235,0,0,1-.857-2.374,3.22,3.22,0,0,1,.86-2.368,2.977,2.977,0,0,1,2.212-.87,2.817,2.817,0,0,1,2.1.8A3.16,3.16,0,0,1,29.729,9.756ZM26.84,7.484a1.946,1.946,0,0,0-1.3.441,2.021,2.021,0,0,0-.657,1.285h3.739a1.854,1.854,0,0,0-.546-1.285A1.763,1.763,0,0,0,26.84,7.484ZM34.312,4.17h-.238q-.073,0-.229.013a1.465,1.465,0,0,0-.229.032q-.073.019-.2.063a.5.5,0,0,0-.187.108q-.063.063-.146.162a.663.663,0,0,0-.124.229,2.184,2.184,0,0,0-.07.3,2.43,2.43,0,0,0-.029.39V6.76h1.447v.876H32.864V13H31.772V7.636H30.566V6.76h1.206V5.453a3.588,3.588,0,0,1,.067-.727,2.357,2.357,0,0,1,.178-.549,1.3,1.3,0,0,1,.3-.4,1.737,1.737,0,0,1,.384-.27,1.906,1.906,0,0,1,.473-.159,4.439,4.439,0,0,1,.536-.079q.263-.022.606-.022Zm6.652,5.586-.013.3H36.076a2.2,2.2,0,0,0,.6,1.6,1.959,1.959,0,0,0,1.422.555,1.871,1.871,0,0,0,1.035-.3,1.936,1.936,0,0,0,.711-.825l.99.209a2.815,2.815,0,0,1-1.066,1.339,2.909,2.909,0,0,1-1.657.489,3.014,3.014,0,0,1-2.247-.87A3.235,3.235,0,0,1,35,9.877a3.219,3.219,0,0,1,.86-2.368,2.977,2.977,0,0,1,2.212-.87,2.817,2.817,0,0,1,2.1.8A3.16,3.16,0,0,1,40.964,9.756ZM38.076,7.484a1.946,1.946,0,0,0-1.3.441,2.021,2.021,0,0,0-.657,1.285h3.739a1.854,1.854,0,0,0-.546-1.285A1.763,1.763,0,0,0,38.076,7.484ZM50.669,3.25h1.1V13h-1.06l-.025-1.212a2.3,2.3,0,0,1-.889.984,2.476,2.476,0,0,1-1.32.362,2.836,2.836,0,0,1-2.06-.879,3,3,0,0,1-.628-1.031,3.773,3.773,0,0,1-.232-1.339A3.281,3.281,0,0,1,46.4,7.541a2.736,2.736,0,0,1,2.073-.9,2.487,2.487,0,0,1,1.3.352,2.309,2.309,0,0,1,.892.955ZM48.7,12.181a1.869,1.869,0,0,0,1.45-.657,2.371,2.371,0,0,0,.587-1.641,2.367,2.367,0,0,0-.59-1.638,1.868,1.868,0,0,0-1.447-.66,1.91,1.91,0,0,0-1.46.638,2.347,2.347,0,0,0-.59,1.66,2.347,2.347,0,0,0,.59,1.66A1.91,1.91,0,0,0,48.7,12.181ZM59.461,9.756l-.013.3H54.573a2.2,2.2,0,0,0,.6,1.6,1.959,1.959,0,0,0,1.422.555,1.871,1.871,0,0,0,1.035-.3,1.936,1.936,0,0,0,.711-.825l.99.209a2.815,2.815,0,0,1-1.066,1.339,2.909,2.909,0,0,1-1.657.489,3.014,3.014,0,0,1-2.247-.87A3.235,3.235,0,0,1,53.5,9.877a3.219,3.219,0,0,1,.86-2.368,2.977,2.977,0,0,1,2.212-.87,2.817,2.817,0,0,1,2.1.8A3.16,3.16,0,0,1,59.461,9.756ZM56.573,7.484a1.946,1.946,0,0,0-1.3.441,2.021,2.021,0,0,0-.657,1.285h3.739a1.854,1.854,0,0,0-.546-1.285A1.763,1.763,0,0,0,56.573,7.484ZM69.167,3.25h1.1V13H69.2l-.025-1.212a2.3,2.3,0,0,1-.889.984,2.476,2.476,0,0,1-1.32.362,2.836,2.836,0,0,1-2.06-.879,3,3,0,0,1-.628-1.031,3.773,3.773,0,0,1-.232-1.339A3.281,3.281,0,0,1,64.9,7.541a2.736,2.736,0,0,1,2.073-.9,2.487,2.487,0,0,1,1.3.352,2.309,2.309,0,0,1,.892.955ZM67.2,12.181a1.869,1.869,0,0,0,1.45-.657,2.371,2.371,0,0,0,.587-1.641,2.367,2.367,0,0,0-.59-1.638,1.868,1.868,0,0,0-1.447-.66,1.91,1.91,0,0,0-1.46.638,2.347,2.347,0,0,0-.59,1.66,2.347,2.347,0,0,0,.59,1.66A1.91,1.91,0,0,0,67.2,12.181ZM77.958,9.756l-.013.3H73.07a2.2,2.2,0,0,0,.6,1.6,1.959,1.959,0,0,0,1.422.555,1.871,1.871,0,0,0,1.035-.3,1.936,1.936,0,0,0,.711-.825l.99.209a2.815,2.815,0,0,1-1.066,1.339,2.909,2.909,0,0,1-1.657.489,3.014,3.014,0,0,1-2.247-.87A3.235,3.235,0,0,1,72,9.877a3.22,3.22,0,0,1,.86-2.368,2.977,2.977,0,0,1,2.212-.87,2.817,2.817,0,0,1,2.1.8A3.16,3.16,0,0,1,77.958,9.756ZM75.07,7.484a1.946,1.946,0,0,0-1.3.441,2.021,2.021,0,0,0-.657,1.285h3.739a1.854,1.854,0,0,0-.546-1.285A1.763,1.763,0,0,0,75.07,7.484Zm7.9-.844a2.838,2.838,0,0,1,1.13.229,2.779,2.779,0,0,1,.927.641,3,3,0,0,1,.625,1.028,3.792,3.792,0,0,1,.232,1.346,3.3,3.3,0,0,1-.841,2.355,2.732,2.732,0,0,1-2.073.9,2.47,2.47,0,0,1-1.3-.355,2.33,2.33,0,0,1-.892-.958v4.323h-1.1V6.76h1.06l.025,1.212A2.284,2.284,0,0,1,81.652,7,2.493,2.493,0,0,1,82.973,6.64Zm-.216,5.542A1.9,1.9,0,0,0,84.2,11.55a2.349,2.349,0,0,0,.587-1.666A2.338,2.338,0,0,0,84.2,8.22a1.969,1.969,0,0,0-2.91.029,2.34,2.34,0,0,0-.6,1.635,2.349,2.349,0,0,0,.6,1.641A1.9,1.9,0,0,0,82.757,12.181Zm6.3.939a2.123,2.123,0,0,1-1.368-.428,1.539,1.539,0,0,1-.536-1.279,1.818,1.818,0,0,1,.171-.816,1.438,1.438,0,0,1,.508-.568,3.046,3.046,0,0,1,.733-.352,6.777,6.777,0,0,1,.949-.225l1.009-.165q.552-.1.552-.578a1.09,1.09,0,0,0-.39-.93,1.591,1.591,0,0,0-.987-.3,1.62,1.62,0,0,0-.978.286,1.2,1.2,0,0,0-.463.876l-.99-.209A1.906,1.906,0,0,1,88.051,7.1a2.917,2.917,0,0,1,1.7-.448,3.45,3.45,0,0,1,.9.111,2.458,2.458,0,0,1,.755.349,1.566,1.566,0,0,1,.54.673,2.5,2.5,0,0,1,.194,1.025v2.577a1.054,1.054,0,0,0,.143.651.617.617,0,0,0,.492.168h.1V13h-.546a1.041,1.041,0,0,1-1.181-.844H91.1A2.385,2.385,0,0,1,89.06,13.121Zm.254-.889a1.665,1.665,0,0,0,1.339-.6,2.483,2.483,0,0,0,.508-1.65l-1.65.317a2.222,2.222,0,0,0-.968.346.8.8,0,0,0-.314.682.8.8,0,0,0,.3.686A1.289,1.289,0,0,0,89.314,12.232ZM95.5,7.858a1.886,1.886,0,0,1,.774-.838,2.332,2.332,0,0,1,1.2-.33V7.725a2.056,2.056,0,0,0-1.45.463,1.936,1.936,0,0,0-.5,1.479V13h-1.1V6.76H95.5ZM101.121,13a1.64,1.64,0,0,1-1.219-.448,1.693,1.693,0,0,1-.444-1.247V7.636H98.182V6.76h.47a.9.9,0,0,0,.689-.219,1.078,1.078,0,0,0,.2-.733V4.678h1.022V6.76H102v.876h-1.435v3.555a.946.946,0,0,0,.238.689.833.833,0,0,0,.625.244H102V13Zm3.828.121a2.123,2.123,0,0,1-1.368-.428,1.539,1.539,0,0,1-.536-1.279,1.818,1.818,0,0,1,.171-.816,1.438,1.438,0,0,1,.508-.568,3.046,3.046,0,0,1,.733-.352,6.777,6.777,0,0,1,.949-.225l1.009-.165q.552-.1.552-.578a1.09,1.09,0,0,0-.39-.93,1.591,1.591,0,0,0-.987-.3,1.62,1.62,0,0,0-.978.286,1.2,1.2,0,0,0-.463.876l-.99-.209a1.906,1.906,0,0,1,.781-1.336,2.917,2.917,0,0,1,1.7-.448,3.45,3.45,0,0,1,.9.111,2.458,2.458,0,0,1,.755.349,1.566,1.566,0,0,1,.54.673,2.5,2.5,0,0,1,.194,1.025v2.577a1.054,1.054,0,0,0,.143.651.617.617,0,0,0,.492.168h.1V13h-.546a1.041,1.041,0,0,1-1.181-.844h-.051A2.385,2.385,0,0,1,104.948,13.121Zm.254-.889a1.665,1.665,0,0,0,1.339-.6,2.483,2.483,0,0,0,.508-1.65l-1.65.317a2.222,2.222,0,0,0-.968.346.8.8,0,0,0-.314.682.8.8,0,0,0,.3.686A1.289,1.289,0,0,0,105.2,12.232ZM116.7,6.64a2.011,2.011,0,0,1,1.454.53,1.966,1.966,0,0,1,.552,1.489V13h-1.1V8.944a1.41,1.41,0,0,0-.343-1.028,1.167,1.167,0,0,0-.87-.349,1.232,1.232,0,0,0-.952.394,1.692,1.692,0,0,0-.362,1.181V13h-1.117V8.988a1.475,1.475,0,0,0-.346-1.063,1.177,1.177,0,0,0-.885-.359,1.221,1.221,0,0,0-.949.4,1.751,1.751,0,0,0-.365,1.209V13h-1.1V6.76h1.1v.806a1.9,1.9,0,0,1,.714-.686,2.036,2.036,0,0,1,.993-.241,2.12,2.12,0,0,1,1.066.263,1.64,1.64,0,0,1,.692.759,1.942,1.942,0,0,1,.749-.759A2.142,2.142,0,0,1,116.7,6.64Zm9.591,3.117-.013.3H121.4a2.2,2.2,0,0,0,.6,1.6,1.959,1.959,0,0,0,1.422.555,1.871,1.871,0,0,0,1.035-.3,1.936,1.936,0,0,0,.711-.825l.99.209a2.815,2.815,0,0,1-1.066,1.339,2.909,2.909,0,0,1-1.657.489,3.014,3.014,0,0,1-2.247-.87,3.235,3.235,0,0,1-.857-2.374,3.22,3.22,0,0,1,.86-2.368,2.977,2.977,0,0,1,2.212-.87,2.817,2.817,0,0,1,2.1.8A3.16,3.16,0,0,1,126.289,9.756ZM123.4,7.484a1.946,1.946,0,0,0-1.3.441,2.021,2.021,0,0,0-.657,1.285h3.739a1.854,1.854,0,0,0-.546-1.285A1.763,1.763,0,0,0,123.4,7.484Zm7.554-.844a2.171,2.171,0,0,1,1.571.565,2.107,2.107,0,0,1,.587,1.593V13h-1.1V9.045a1.475,1.475,0,0,0-.381-1.117,1.362,1.362,0,0,0-.978-.362,1.51,1.51,0,0,0-1.111.428,1.739,1.739,0,0,0-.438,1.273V13h-1.1V6.76h1.1v.8A2.084,2.084,0,0,1,130.955,6.64ZM137.226,13a1.64,1.64,0,0,1-1.219-.448,1.693,1.693,0,0,1-.444-1.247V7.636h-1.276V6.76h.47a.9.9,0,0,0,.689-.219,1.078,1.078,0,0,0,.2-.733V4.678h1.022V6.76H138.1v.876h-1.435v3.555a.946.946,0,0,0,.238.689.833.833,0,0,0,.625.244h.571V13Zm5.015.121a3.289,3.289,0,0,1-1.6-.387,2.819,2.819,0,0,1-1.127-1.133,3.48,3.48,0,0,1-.416-1.723,3.179,3.179,0,0,1,.885-2.352,3.322,3.322,0,0,1,4.516,0,3.185,3.185,0,0,1,.882,2.352,3.187,3.187,0,0,1-.885,2.358A3.057,3.057,0,0,1,142.241,13.121Zm-.006-.914a1.916,1.916,0,0,0,1.476-.641,2.4,2.4,0,0,0,.587-1.688,2.393,2.393,0,0,0-.587-1.682,1.916,1.916,0,0,0-1.476-.641,1.89,1.89,0,0,0-1.463.641,2.409,2.409,0,0,0-.581,1.682,2.418,2.418,0,0,0,.581,1.688A1.89,1.89,0,0,0,142.234,12.207Z" transform="translate(824 3981)" fill="#767676"/>
    </g>
  </g>
</svg>
