<svg xmlns="http://www.w3.org/2000/svg" xmlns:xlink="http://www.w3.org/1999/xlink" width="552" height="198" viewBox="0 0 552 198">
  <defs>
    <filter id="Rectángulo_25856" x="184" y="0" width="186" height="54" filterUnits="userSpaceOnUse">
      <feOffset dy="3" input="SourceAlpha"/>
      <feGaussianBlur stdDeviation="3" result="blur"/>
      <feFlood flood-opacity="0.161"/>
      <feComposite operator="in" in2="blur"/>
      <feComposite in="SourceGraphic"/>
    </filter>
    <filter id="Rectángulo_25857" x="184" y="52" width="186" height="54" filterUnits="userSpaceOnUse">
      <feOffset dy="3" input="SourceAlpha"/>
      <feGaussianBlur stdDeviation="3" result="blur-2"/>
      <feFlood flood-opacity="0.161"/>
      <feComposite operator="in" in2="blur-2"/>
      <feComposite in="SourceGraphic"/>
    </filter>
    <filter id="Rectángulo_25858" x="184" y="144" width="186" height="54" filterUnits="userSpaceOnUse">
      <feOffset dy="3" input="SourceAlpha"/>
      <feGaussianBlur stdDeviation="3" result="blur-3"/>
      <feFlood flood-opacity="0.161"/>
      <feComposite operator="in" in2="blur-3"/>
      <feComposite in="SourceGraphic"/>
    </filter>
    <filter id="Rectángulo_25859" x="0" y="144" width="186" height="54" filterUnits="userSpaceOnUse">
      <feOffset dy="3" input="SourceAlpha"/>
      <feGaussianBlur stdDeviation="3" result="blur-4"/>
      <feFlood flood-opacity="0.161"/>
      <feComposite operator="in" in2="blur-4"/>
      <feComposite in="SourceGraphic"/>
    </filter>
    <filter id="Rectángulo_25860" x="366" y="144" width="186" height="54" filterUnits="userSpaceOnUse">
      <feOffset dy="3" input="SourceAlpha"/>
      <feGaussianBlur stdDeviation="3" result="blur-5"/>
      <feFlood flood-opacity="0.161"/>
      <feComposite operator="in" in2="blur-5"/>
      <feComposite in="SourceGraphic"/>
    </filter>
  </defs>
  <g id="Grupo_25154" data-name="Grupo 25154" transform="translate(-629 -4633)">
    <line id="Línea_265" data-name="Línea 265" y2="149" transform="translate(905.5 4647.5)" fill="none" stroke="#8d85ac" stroke-width="2"/>
    <g transform="matrix(1, 0, 0, 1, 629, 4633)" filter="url(#Rectángulo_25856)">
      <g id="Rectángulo_25856-2" data-name="Rectángulo 25856" transform="translate(193 6)" fill="#8d85ac" stroke="#8d85ac" stroke-width="1">
        <rect width="168" height="36" rx="7" stroke="none"/>
        <rect x="0.5" y="0.5" width="167" height="35" rx="6.5" fill="none"/>
      </g>
    </g>
    <g transform="matrix(1, 0, 0, 1, 629, 4633)" filter="url(#Rectángulo_25857)">
      <g id="Rectángulo_25857-2" data-name="Rectángulo 25857" transform="translate(193 58)" fill="#fff" stroke="#8d85ac" stroke-width="1">
        <rect width="168" height="36" rx="7" stroke="none"/>
        <rect x="0.5" y="0.5" width="167" height="35" rx="6.5" fill="none"/>
      </g>
    </g>
    <path id="Trazado_67275" data-name="Trazado 67275" d="M29.95,14.13a5.14,5.14,0,0,1-1.876-.338,4.472,4.472,0,0,1-1.511-.957,4.313,4.313,0,0,1-1-1.552,5.622,5.622,0,0,1-.366-2.068,5.376,5.376,0,0,1,.636-2.659A4.271,4.271,0,0,1,27.544,4.83a5.344,5.344,0,0,1,4.84-.01,4.159,4.159,0,0,1,1.688,1.668l-1.08.581A3.077,3.077,0,0,0,31.748,5.8a3.633,3.633,0,0,0-1.764-.427,3.828,3.828,0,0,0-1.4.253A3.175,3.175,0,0,0,26.7,7.561a4.637,4.637,0,0,0-.273,1.634,4.611,4.611,0,0,0,.27,1.62,3.314,3.314,0,0,0,.752,1.207,3.267,3.267,0,0,0,1.142.738,3.92,3.92,0,0,0,1.432.256,3.28,3.28,0,0,0,2.2-.749,3.145,3.145,0,0,0,1.036-2.136H30.012V9.092h4.443V14h-1V12.2a3.37,3.37,0,0,1-1.377,1.432A4.282,4.282,0,0,1,29.95,14.13Zm12.626-3.623-.014.321h-5.25a2.375,2.375,0,0,0,.643,1.719,2.11,2.11,0,0,0,1.531.6,2.015,2.015,0,0,0,1.114-.321,2.085,2.085,0,0,0,.766-.889l1.066.226A3.031,3.031,0,0,1,41.284,13.6a3.133,3.133,0,0,1-1.784.526,3.246,3.246,0,0,1-2.42-.937,3.484,3.484,0,0,1-.923-2.557,3.467,3.467,0,0,1,.926-2.55,3.206,3.206,0,0,1,2.382-.937,3.034,3.034,0,0,1,2.259.861A3.4,3.4,0,0,1,42.576,10.507ZM39.466,8.06a2.1,2.1,0,0,0-1.4.475,2.177,2.177,0,0,0-.708,1.384h4.026A2,2,0,0,0,40.8,8.535,1.9,1.9,0,0,0,39.466,8.06Zm6.118.4a2.032,2.032,0,0,1,.834-.9,2.512,2.512,0,0,1,1.292-.355V8.319a2.214,2.214,0,0,0-1.562.5,2.084,2.084,0,0,0-.537,1.593V14H44.429V7.28h1.155Zm9.311,2.044-.014.321h-5.25a2.375,2.375,0,0,0,.643,1.719,2.11,2.11,0,0,0,1.531.6,2.015,2.015,0,0,0,1.114-.321,2.085,2.085,0,0,0,.766-.889l1.066.226A3.031,3.031,0,0,1,53.6,13.6a3.133,3.133,0,0,1-1.784.526,3.246,3.246,0,0,1-2.42-.937,3.484,3.484,0,0,1-.923-2.557,3.467,3.467,0,0,1,.926-2.55,3.206,3.206,0,0,1,2.382-.937,3.034,3.034,0,0,1,2.259.861A3.4,3.4,0,0,1,54.895,10.507ZM51.784,8.06a2.1,2.1,0,0,0-1.4.475,2.177,2.177,0,0,0-.708,1.384h4.026a2,2,0,0,0-.588-1.384A1.9,1.9,0,0,0,51.784,8.06Zm8.135-.909a2.337,2.337,0,0,1,1.692.608,2.269,2.269,0,0,1,.632,1.716V14H61.061V9.741a1.589,1.589,0,0,0-.41-1.2,1.466,1.466,0,0,0-1.053-.39,1.626,1.626,0,0,0-1.2.461A1.872,1.872,0,0,0,57.93,9.98V14H56.747V7.28H57.93v.861A2.244,2.244,0,0,1,59.919,7.15ZM66.673,14a1.766,1.766,0,0,1-1.312-.482,1.823,1.823,0,0,1-.479-1.343V8.224H63.508V7.28h.506a.971.971,0,0,0,.742-.236,1.161,1.161,0,0,0,.215-.79V5.038h1.1V7.28h1.545v.943H66.071v3.828a1.019,1.019,0,0,0,.256.742.9.9,0,0,0,.673.263h.615V14Zm8.449-3.493-.014.321h-5.25a2.374,2.374,0,0,0,.643,1.719,2.11,2.11,0,0,0,1.531.6,2.015,2.015,0,0,0,1.114-.321,2.085,2.085,0,0,0,.766-.889l1.066.226A3.031,3.031,0,0,1,73.83,13.6a3.133,3.133,0,0,1-1.784.526,3.246,3.246,0,0,1-2.42-.937,3.484,3.484,0,0,1-.923-2.557,3.467,3.467,0,0,1,.926-2.55,3.206,3.206,0,0,1,2.382-.937,3.034,3.034,0,0,1,2.259.861A3.4,3.4,0,0,1,75.122,10.507ZM72.012,8.06a2.1,2.1,0,0,0-1.4.475,2.177,2.177,0,0,0-.708,1.384h4.026a2,2,0,0,0-.588-1.384A1.9,1.9,0,0,0,72.012,8.06ZM85.574,3.5h1.183V14H85.615l-.027-1.306a2.473,2.473,0,0,1-.957,1.06,2.667,2.667,0,0,1-1.422.39,3.054,3.054,0,0,1-2.218-.947,3.236,3.236,0,0,1-.677-1.111,4.063,4.063,0,0,1-.25-1.442,3.533,3.533,0,0,1,.913-2.522,2.946,2.946,0,0,1,2.232-.971,2.678,2.678,0,0,1,1.4.379,2.487,2.487,0,0,1,.96,1.029Zm-2.119,9.618a2.012,2.012,0,0,0,1.562-.708,2.554,2.554,0,0,0,.632-1.767,2.549,2.549,0,0,0-.636-1.764,2.011,2.011,0,0,0-1.559-.711,2.056,2.056,0,0,0-1.572.687,2.528,2.528,0,0,0-.636,1.788,2.528,2.528,0,0,0,.636,1.788A2.056,2.056,0,0,0,83.455,13.118Zm11.587-2.611-.014.321h-5.25a2.374,2.374,0,0,0,.643,1.719,2.11,2.11,0,0,0,1.531.6,2.015,2.015,0,0,0,1.114-.321,2.085,2.085,0,0,0,.766-.889l1.066.226A3.031,3.031,0,0,1,93.75,13.6a3.133,3.133,0,0,1-1.784.526,3.246,3.246,0,0,1-2.42-.937,3.484,3.484,0,0,1-.923-2.557,3.467,3.467,0,0,1,.926-2.55,3.206,3.206,0,0,1,2.382-.937,3.034,3.034,0,0,1,2.259.861A3.4,3.4,0,0,1,95.042,10.507ZM91.932,8.06a2.1,2.1,0,0,0-1.4.475,2.177,2.177,0,0,0-.708,1.384h4.026a2,2,0,0,0-.588-1.384A1.9,1.9,0,0,0,91.932,8.06Zm12.147-.909A3.056,3.056,0,0,1,105.3,7.4a2.993,2.993,0,0,1,1,.69,3.227,3.227,0,0,1,.673,1.107,4.083,4.083,0,0,1,.25,1.449,3.553,3.553,0,0,1-.906,2.536,2.942,2.942,0,0,1-2.232.964,2.66,2.66,0,0,1-1.4-.383,2.509,2.509,0,0,1-.96-1.032v4.655h-1.183V7.28h1.142l.027,1.306a2.46,2.46,0,0,1,.957-1.049A2.685,2.685,0,0,1,104.079,7.15Zm-.232,5.968a2.04,2.04,0,0,0,1.555-.68,2.53,2.53,0,0,0,.632-1.794,2.518,2.518,0,0,0-.632-1.791,2.121,2.121,0,0,0-3.134.031,2.52,2.52,0,0,0-.643,1.76,2.53,2.53,0,0,0,.643,1.767A2.05,2.05,0,0,0,103.847,13.118Zm5.236.882V3.5h1.2V14Zm5.154.13a2.287,2.287,0,0,1-1.473-.461,1.657,1.657,0,0,1-.578-1.377,1.957,1.957,0,0,1,.185-.878,1.549,1.549,0,0,1,.547-.612,3.281,3.281,0,0,1,.79-.379,7.3,7.3,0,0,1,1.022-.243L115.816,10q.595-.109.595-.622a1.174,1.174,0,0,0-.42-1,1.713,1.713,0,0,0-1.063-.318,1.745,1.745,0,0,0-1.053.308,1.287,1.287,0,0,0-.5.943l-1.066-.226a2.052,2.052,0,0,1,.841-1.439,3.141,3.141,0,0,1,1.832-.482,3.716,3.716,0,0,1,.974.12,2.647,2.647,0,0,1,.813.376,1.686,1.686,0,0,1,.581.725,2.7,2.7,0,0,1,.208,1.1v2.775a1.136,1.136,0,0,0,.154.7.664.664,0,0,0,.53.181h.109V14h-.588a1.121,1.121,0,0,1-1.271-.909h-.055A2.568,2.568,0,0,1,114.237,14.13Zm.273-.957a1.793,1.793,0,0,0,1.442-.649,2.674,2.674,0,0,0,.547-1.777l-1.777.342a2.392,2.392,0,0,0-1.042.373.867.867,0,0,0-.338.735.857.857,0,0,0,.325.738A1.388,1.388,0,0,0,114.511,13.173Zm8.682-6.022a2.337,2.337,0,0,1,1.692.608,2.269,2.269,0,0,1,.632,1.716V14h-1.183V9.741a1.589,1.589,0,0,0-.41-1.2,1.466,1.466,0,0,0-1.053-.39,1.626,1.626,0,0,0-1.2.461A1.872,1.872,0,0,0,121.2,9.98V14h-1.183V7.28H121.2v.861A2.244,2.244,0,0,1,123.192,7.15ZM129.946,14a1.766,1.766,0,0,1-1.312-.482,1.823,1.823,0,0,1-.479-1.343V8.224h-1.374V7.28h.506a.971.971,0,0,0,.742-.236,1.161,1.161,0,0,0,.215-.79V5.038h1.1V7.28h1.545v.943h-1.545v3.828a1.019,1.019,0,0,0,.256.742.9.9,0,0,0,.673.263h.615V14Zm4.122.13a2.287,2.287,0,0,1-1.473-.461,1.657,1.657,0,0,1-.578-1.377,1.957,1.957,0,0,1,.185-.878,1.549,1.549,0,0,1,.547-.612,3.28,3.28,0,0,1,.79-.379,7.3,7.3,0,0,1,1.022-.243L135.647,10q.595-.109.595-.622a1.174,1.174,0,0,0-.42-1,1.713,1.713,0,0,0-1.063-.318,1.745,1.745,0,0,0-1.053.308,1.287,1.287,0,0,0-.5.943l-1.066-.226a2.052,2.052,0,0,1,.841-1.439,3.141,3.141,0,0,1,1.832-.482,3.716,3.716,0,0,1,.974.12,2.647,2.647,0,0,1,.813.376,1.686,1.686,0,0,1,.581.725,2.7,2.7,0,0,1,.208,1.1v2.775a1.136,1.136,0,0,0,.154.7.664.664,0,0,0,.53.181h.109V14H137.6a1.121,1.121,0,0,1-1.271-.909h-.055A2.568,2.568,0,0,1,134.068,14.13Zm.273-.957a1.793,1.793,0,0,0,1.442-.649,2.674,2.674,0,0,0,.547-1.777l-1.777.342a2.392,2.392,0,0,0-1.042.373.867.867,0,0,0-.338.735.857.857,0,0,0,.325.738A1.388,1.388,0,0,0,134.342,13.173Z" transform="translate(824 4647)" fill="#fff"/>
    <path id="Trazado_67276" data-name="Trazado 67276" d="M27.037,13.121a3.967,3.967,0,0,1-1.955-.527l.5-.965a2.4,2.4,0,0,0,1.377.438,1.4,1.4,0,0,0,1.139-.492,2.067,2.067,0,0,0,.409-1.362V4.063H29.64V10.41a2.715,2.715,0,0,1-.711,1.984A2.526,2.526,0,0,1,27.037,13.121ZM37.485,9.756l-.013.3H32.6a2.2,2.2,0,0,0,.6,1.6,1.959,1.959,0,0,0,1.422.555,1.871,1.871,0,0,0,1.035-.3,1.936,1.936,0,0,0,.711-.825l.99.209a2.815,2.815,0,0,1-1.066,1.339,2.909,2.909,0,0,1-1.657.489,3.014,3.014,0,0,1-2.247-.87,3.235,3.235,0,0,1-.857-2.374,3.22,3.22,0,0,1,.86-2.368A2.977,2.977,0,0,1,34.6,6.64a2.817,2.817,0,0,1,2.1.8A3.16,3.16,0,0,1,37.485,9.756ZM34.6,7.484a1.946,1.946,0,0,0-1.3.441,2.021,2.021,0,0,0-.657,1.285h3.739a1.854,1.854,0,0,0-.546-1.285A1.763,1.763,0,0,0,34.6,7.484ZM42.068,4.17H41.83q-.073,0-.229.013a1.465,1.465,0,0,0-.229.032q-.073.019-.2.063a.5.5,0,0,0-.187.108q-.063.063-.146.162a.663.663,0,0,0-.124.229,2.184,2.184,0,0,0-.07.3,2.43,2.43,0,0,0-.029.39V6.76h1.447v.876H40.621V13H39.529V7.636H38.323V6.76h1.206V5.453a3.588,3.588,0,0,1,.067-.727,2.357,2.357,0,0,1,.178-.549,1.3,1.3,0,0,1,.3-.4,1.737,1.737,0,0,1,.384-.27,1.906,1.906,0,0,1,.473-.159,4.439,4.439,0,0,1,.536-.079q.263-.022.606-.022Zm6.652,5.586-.013.3H43.833a2.2,2.2,0,0,0,.6,1.6,1.959,1.959,0,0,0,1.422.555,1.871,1.871,0,0,0,1.035-.3,1.936,1.936,0,0,0,.711-.825l.99.209a2.815,2.815,0,0,1-1.066,1.339,2.909,2.909,0,0,1-1.657.489,3.014,3.014,0,0,1-2.247-.87,3.235,3.235,0,0,1-.857-2.374,3.219,3.219,0,0,1,.86-2.368,2.977,2.977,0,0,1,2.212-.87,2.817,2.817,0,0,1,2.1.8A3.16,3.16,0,0,1,48.721,9.756ZM45.833,7.484a1.946,1.946,0,0,0-1.3.441,2.021,2.021,0,0,0-.657,1.285h3.739a1.854,1.854,0,0,0-.546-1.285A1.763,1.763,0,0,0,45.833,7.484ZM58.426,3.25h1.1V13h-1.06l-.025-1.212a2.3,2.3,0,0,1-.889.984,2.476,2.476,0,0,1-1.32.362,2.836,2.836,0,0,1-2.06-.879,3,3,0,0,1-.628-1.031,3.773,3.773,0,0,1-.232-1.339,3.281,3.281,0,0,1,.847-2.342,2.736,2.736,0,0,1,2.073-.9,2.487,2.487,0,0,1,1.3.352,2.309,2.309,0,0,1,.892.955Zm-1.968,8.931a1.869,1.869,0,0,0,1.45-.657A2.371,2.371,0,0,0,58.5,9.883a2.367,2.367,0,0,0-.59-1.638,1.868,1.868,0,0,0-1.447-.66A1.91,1.91,0,0,0,55,8.223a2.347,2.347,0,0,0-.59,1.66,2.347,2.347,0,0,0,.59,1.66A1.91,1.91,0,0,0,56.458,12.181ZM67.218,9.756l-.013.3H62.33a2.2,2.2,0,0,0,.6,1.6,1.959,1.959,0,0,0,1.422.555,1.871,1.871,0,0,0,1.035-.3,1.936,1.936,0,0,0,.711-.825l.99.209a2.815,2.815,0,0,1-1.066,1.339,2.909,2.909,0,0,1-1.657.489,3.014,3.014,0,0,1-2.247-.87,3.235,3.235,0,0,1-.857-2.374,3.219,3.219,0,0,1,.86-2.368,2.977,2.977,0,0,1,2.212-.87,2.817,2.817,0,0,1,2.1.8A3.16,3.16,0,0,1,67.218,9.756ZM64.33,7.484a1.946,1.946,0,0,0-1.3.441,2.021,2.021,0,0,0-.657,1.285h3.739a1.854,1.854,0,0,0-.546-1.285A1.763,1.763,0,0,0,64.33,7.484Zm11.28-.844a2.838,2.838,0,0,1,1.13.229,2.779,2.779,0,0,1,.927.641,3,3,0,0,1,.625,1.028,3.792,3.792,0,0,1,.232,1.346,3.3,3.3,0,0,1-.841,2.355,2.732,2.732,0,0,1-2.073.9,2.47,2.47,0,0,1-1.3-.355,2.33,2.33,0,0,1-.892-.958v4.323h-1.1V6.76h1.06L73.4,7.973A2.284,2.284,0,0,1,74.289,7,2.493,2.493,0,0,1,75.609,6.64Zm-.216,5.542a1.9,1.9,0,0,0,1.444-.632,2.349,2.349,0,0,0,.587-1.666,2.338,2.338,0,0,0-.587-1.663,1.969,1.969,0,0,0-2.91.029,2.34,2.34,0,0,0-.6,1.635,2.349,2.349,0,0,0,.6,1.641A1.9,1.9,0,0,0,75.394,12.181Zm5.935-4.323a1.886,1.886,0,0,1,.774-.838,2.332,2.332,0,0,1,1.2-.33V7.725a2.056,2.056,0,0,0-1.45.463,1.936,1.936,0,0,0-.5,1.479V13h-1.1V6.76h1.073Zm5.814,5.262a3.289,3.289,0,0,1-1.6-.387A2.819,2.819,0,0,1,84.417,11.6,3.48,3.48,0,0,1,84,9.877a3.179,3.179,0,0,1,.885-2.352,3.322,3.322,0,0,1,4.516,0,3.185,3.185,0,0,1,.882,2.352,3.187,3.187,0,0,1-.885,2.358A3.057,3.057,0,0,1,87.143,13.121Zm-.006-.914a1.917,1.917,0,0,0,1.476-.641A2.4,2.4,0,0,0,89.2,9.877a2.393,2.393,0,0,0-.587-1.682,1.917,1.917,0,0,0-1.476-.641,1.89,1.89,0,0,0-1.463.641,2.409,2.409,0,0,0-.581,1.682,2.418,2.418,0,0,0,.581,1.688A1.89,1.89,0,0,0,87.137,12.207ZM96.614,3.25h1.1V13h-1.06l-.025-1.212a2.3,2.3,0,0,1-.889.984,2.476,2.476,0,0,1-1.32.362,2.836,2.836,0,0,1-2.06-.879,3,3,0,0,1-.628-1.031A3.773,3.773,0,0,1,91.5,9.883a3.281,3.281,0,0,1,.847-2.342,2.736,2.736,0,0,1,2.073-.9,2.487,2.487,0,0,1,1.3.352,2.309,2.309,0,0,1,.892.955Zm-1.968,8.931a1.869,1.869,0,0,0,1.45-.657,2.371,2.371,0,0,0,.587-1.641,2.367,2.367,0,0,0-.59-1.638,1.868,1.868,0,0,0-1.447-.66,1.91,1.91,0,0,0-1.46.638,2.347,2.347,0,0,0-.59,1.66,2.347,2.347,0,0,0,.59,1.66A1.91,1.91,0,0,0,94.646,12.181Zm9.185-5.421h1.1V13h-1.054l-.025-.825a1.948,1.948,0,0,1-.774.7,2.382,2.382,0,0,1-1.092.244,2.171,2.171,0,0,1-1.571-.565,2.107,2.107,0,0,1-.587-1.593V6.76h1.1v3.955a1.481,1.481,0,0,0,.384,1.117,1.359,1.359,0,0,0,.981.368,1.493,1.493,0,0,0,1.108-.432,1.758,1.758,0,0,0,.435-1.276Zm5.922,6.354a3.005,3.005,0,0,1-2.234-.9,3.193,3.193,0,0,1-.882-2.342,3.2,3.2,0,0,1,.879-2.342,3.251,3.251,0,0,1,4.043-.349A2.755,2.755,0,0,1,112.61,8.7l-1.028.165a1.9,1.9,0,0,0-.7-.971,1.918,1.918,0,0,0-1.13-.343,1.845,1.845,0,0,0-1.444.641,2.442,2.442,0,0,0-.568,1.682,2.43,2.43,0,0,0,.568,1.679,1.849,1.849,0,0,0,1.444.638,1.918,1.918,0,0,0,1.13-.343,1.9,1.9,0,0,0,.7-.971l1.028.171a2.758,2.758,0,0,1-1.057,1.514A3.023,3.023,0,0,1,109.753,13.114Zm7.065,0a3.005,3.005,0,0,1-2.234-.9,3.193,3.193,0,0,1-.882-2.342,3.2,3.2,0,0,1,.879-2.342,3.251,3.251,0,0,1,4.043-.349A2.755,2.755,0,0,1,119.675,8.7l-1.028.165a1.9,1.9,0,0,0-.7-.971,1.918,1.918,0,0,0-1.13-.343,1.845,1.845,0,0,0-1.444.641,2.442,2.442,0,0,0-.568,1.682,2.43,2.43,0,0,0,.568,1.679,1.849,1.849,0,0,0,1.444.638,1.918,1.918,0,0,0,1.13-.343,1.9,1.9,0,0,0,.7-.971l1.028.171a2.758,2.758,0,0,1-1.057,1.514A3.023,3.023,0,0,1,116.818,13.114Zm5.034-7.82a.748.748,0,0,1-.743-.743.7.7,0,0,1,.219-.521.72.72,0,0,1,.524-.216.713.713,0,0,1,.517.216.7.7,0,0,1,.219.521.715.715,0,0,1-.219.524A.707.707,0,0,1,121.852,5.294ZM121.293,13V6.76h1.1V13Zm5.548-7.312,1.593-2.069.584.425L127.6,5.688Zm.419,7.433a3.289,3.289,0,0,1-1.6-.387,2.819,2.819,0,0,1-1.127-1.133,3.48,3.48,0,0,1-.416-1.723A3.179,3.179,0,0,1,125,7.525a3.322,3.322,0,0,1,4.516,0,3.185,3.185,0,0,1,.882,2.352,3.187,3.187,0,0,1-.885,2.358A3.057,3.057,0,0,1,127.26,13.121Zm-.006-.914a1.916,1.916,0,0,0,1.476-.641,2.4,2.4,0,0,0,.587-1.688,2.393,2.393,0,0,0-.587-1.682,1.916,1.916,0,0,0-1.476-.641,1.89,1.89,0,0,0-1.463.641,2.409,2.409,0,0,0-.581,1.682,2.418,2.418,0,0,0,.581,1.688A1.89,1.89,0,0,0,127.254,12.207Zm7.814-5.567a2.171,2.171,0,0,1,1.571.565,2.107,2.107,0,0,1,.587,1.593V13h-1.1V9.045a1.475,1.475,0,0,0-.381-1.117,1.362,1.362,0,0,0-.978-.362,1.51,1.51,0,0,0-1.111.428,1.739,1.739,0,0,0-.438,1.273V13h-1.1V6.76h1.1v.8A2.084,2.084,0,0,1,135.068,6.64Z" transform="translate(824 4700)" fill="#767676"/>
    <line id="Línea_267" data-name="Línea 267" y1="41" transform="translate(1088.5 4750.5)" fill="none" stroke="#8d85ac" stroke-width="2"/>
    <line id="Línea_266" data-name="Línea 266" x2="366" transform="translate(723 4751.5)" fill="none" stroke="#8d85ac" stroke-width="2"/>
    <line id="Línea_268" data-name="Línea 268" y1="41" transform="translate(723 4750.5)" fill="none" stroke="#8d85ac" stroke-width="2"/>
    <g transform="matrix(1, 0, 0, 1, 629, 4633)" filter="url(#Rectángulo_25858)">
      <g id="Rectángulo_25858-2" data-name="Rectángulo 25858" transform="translate(193 150)" fill="#fff" stroke="#8d85ac" stroke-width="1">
        <rect width="168" height="36" rx="7" stroke="none"/>
        <rect x="0.5" y="0.5" width="167" height="35" rx="6.5" fill="none"/>
      </g>
    </g>
    <g transform="matrix(1, 0, 0, 1, 629, 4633)" filter="url(#Rectángulo_25859)">
      <g id="Rectángulo_25859-2" data-name="Rectángulo 25859" transform="translate(9 150)" fill="#fff" stroke="#8d85ac" stroke-width="1">
        <rect width="168" height="36" rx="7" stroke="none"/>
        <rect x="0.5" y="0.5" width="167" height="35" rx="6.5" fill="none"/>
      </g>
    </g>
    <g transform="matrix(1, 0, 0, 1, 629, 4633)" filter="url(#Rectángulo_25860)">
      <g id="Rectángulo_25860-2" data-name="Rectángulo 25860" transform="translate(375 150)" fill="#fff" stroke="#8d85ac" stroke-width="1">
        <rect width="168" height="36" rx="7" stroke="none"/>
        <rect x="0.5" y="0.5" width="167" height="35" rx="6.5" fill="none"/>
      </g>
    </g>
    <path id="Trazado_67278" data-name="Trazado 67278" d="M62.524,4.063a2.646,2.646,0,0,1,1.4.371,2.508,2.508,0,0,1,.939.993A2.915,2.915,0,0,1,65.19,6.8a2.712,2.712,0,0,1-.74,1.946,2.538,2.538,0,0,1-1.927.778H60.277V13H59.14V4.063Zm-.165,4.475A1.625,1.625,0,0,0,63.6,8.058a1.773,1.773,0,0,0,.451-1.266,1.778,1.778,0,0,0-.451-1.26,1.614,1.614,0,0,0-1.244-.486H60.277V8.538Zm5.611-.679a1.886,1.886,0,0,1,.774-.838,2.332,2.332,0,0,1,1.2-.33V7.725a2.056,2.056,0,0,0-1.45.463A1.936,1.936,0,0,0,68,9.667V13H66.9V6.76H67.97Zm5.814,5.262a3.289,3.289,0,0,1-1.6-.387A2.819,2.819,0,0,1,71.058,11.6a3.48,3.48,0,0,1-.416-1.723,3.179,3.179,0,0,1,.885-2.352,3.322,3.322,0,0,1,4.516,0,3.185,3.185,0,0,1,.882,2.352,3.187,3.187,0,0,1-.885,2.358A3.057,3.057,0,0,1,73.784,13.121Zm-.006-.914a1.917,1.917,0,0,0,1.476-.641,2.4,2.4,0,0,0,.587-1.688,2.393,2.393,0,0,0-.587-1.682,1.917,1.917,0,0,0-1.476-.641,1.89,1.89,0,0,0-1.463.641,2.409,2.409,0,0,0-.581,1.682,2.418,2.418,0,0,0,.581,1.688A1.89,1.89,0,0,0,73.778,12.207Zm7.458.908a3.005,3.005,0,0,1-2.234-.9,3.193,3.193,0,0,1-.882-2.342A3.2,3.2,0,0,1,79,7.535a3.251,3.251,0,0,1,4.043-.349A2.755,2.755,0,0,1,84.093,8.7l-1.028.165a1.9,1.9,0,0,0-.7-.971,1.918,1.918,0,0,0-1.13-.343,1.845,1.845,0,0,0-1.444.641,2.442,2.442,0,0,0-.568,1.682,2.43,2.43,0,0,0,.568,1.679,1.849,1.849,0,0,0,1.444.638,1.918,1.918,0,0,0,1.13-.343,1.9,1.9,0,0,0,.7-.971l1.028.171a2.758,2.758,0,0,1-1.057,1.514A3.023,3.023,0,0,1,81.237,13.114Zm9.934-3.358-.013.3H86.283a2.2,2.2,0,0,0,.6,1.6,1.959,1.959,0,0,0,1.422.555,1.871,1.871,0,0,0,1.035-.3,1.936,1.936,0,0,0,.711-.825l.99.209a2.815,2.815,0,0,1-1.066,1.339,2.909,2.909,0,0,1-1.657.489,3.014,3.014,0,0,1-2.247-.87,3.235,3.235,0,0,1-.857-2.374,3.22,3.22,0,0,1,.86-2.368,2.977,2.977,0,0,1,2.212-.87,2.817,2.817,0,0,1,2.1.8A3.16,3.16,0,0,1,91.171,9.756ZM88.282,7.484a1.946,1.946,0,0,0-1.3.441,2.021,2.021,0,0,0-.657,1.285h3.739a1.854,1.854,0,0,0-.546-1.285A1.763,1.763,0,0,0,88.282,7.484Zm6.583,5.637a2.958,2.958,0,0,1-1.682-.451,1.864,1.864,0,0,1-.819-1.282l.958-.273a1.337,1.337,0,0,0,.511.866,1.658,1.658,0,0,0,1.025.308,2.046,2.046,0,0,0,.6-.083.962.962,0,0,0,.46-.308.859.859,0,0,0,.133-.825,1.1,1.1,0,0,0-.1-.206.629.629,0,0,0-.178-.171,2.344,2.344,0,0,0-.216-.133,2.215,2.215,0,0,0-.282-.117q-.187-.067-.3-.1t-.349-.1l-.362-.1a6.769,6.769,0,0,1-.647-.229,2.84,2.84,0,0,1-.527-.3,1.213,1.213,0,0,1-.409-.492,1.665,1.665,0,0,1-.136-.7,1.614,1.614,0,0,1,.3-1,1.714,1.714,0,0,1,.79-.587,3.159,3.159,0,0,1,1.108-.181,2.711,2.711,0,0,1,1.52.406,1.734,1.734,0,0,1,.759,1.219l-.9.229a1.2,1.2,0,0,0-.476-.79,1.516,1.516,0,0,0-.9-.263,1.545,1.545,0,0,0-.838.219.736.736,0,0,0-.349.67.666.666,0,0,0,.092.346,1.1,1.1,0,0,0,.187.244,1.151,1.151,0,0,0,.343.187q.248.1.368.133t.457.117q.063.019.1.025.368.1.6.168a3.687,3.687,0,0,1,.54.229,1.794,1.794,0,0,1,.486.34,1.573,1.573,0,0,1,.3.482,1.7,1.7,0,0,1,.127.673,1.817,1.817,0,0,1-.187.841,1.465,1.465,0,0,1-.511.574,2.471,2.471,0,0,1-.727.314A3.463,3.463,0,0,1,94.865,13.121Zm6.652,0a3.289,3.289,0,0,1-1.6-.387A2.819,2.819,0,0,1,98.791,11.6a3.48,3.48,0,0,1-.416-1.723,3.179,3.179,0,0,1,.885-2.352,3.322,3.322,0,0,1,4.516,0,3.185,3.185,0,0,1,.882,2.352,3.187,3.187,0,0,1-.885,2.358A3.057,3.057,0,0,1,101.517,13.121Zm-.006-.914a1.917,1.917,0,0,0,1.476-.641,2.4,2.4,0,0,0,.587-1.688,2.393,2.393,0,0,0-.587-1.682,1.917,1.917,0,0,0-1.476-.641,1.89,1.89,0,0,0-1.463.641,2.409,2.409,0,0,0-.581,1.682,2.418,2.418,0,0,0,.581,1.688A1.89,1.89,0,0,0,101.511,12.207Z" transform="translate(824 4793)" fill="#767676"/>
    <path id="Trazado_67277" data-name="Trazado 67277" d="M60.362,13.121A4.748,4.748,0,0,1,58.6,12.8a4.246,4.246,0,0,1-1.412-.9,4.021,4.021,0,0,1-.939-1.45,5.246,5.246,0,0,1-.34-1.923,5.16,5.16,0,0,1,.343-1.914A4.013,4.013,0,0,1,58.6,4.259a4.79,4.79,0,0,1,1.758-.317,4.541,4.541,0,0,1,2.377.628,3.915,3.915,0,0,1,1.571,1.746l-1.047.432a2.943,2.943,0,0,0-1.171-1.273,3.361,3.361,0,0,0-1.73-.448,3.554,3.554,0,0,0-1.3.235,3.118,3.118,0,0,0-1.054.673,3.038,3.038,0,0,0-.708,1.1,4.1,4.1,0,0,0-.257,1.485,4.124,4.124,0,0,0,.257,1.489,3.033,3.033,0,0,0,.708,1.108,3.159,3.159,0,0,0,1.054.676,3.512,3.512,0,0,0,1.3.238,3.361,3.361,0,0,0,1.73-.448,2.95,2.95,0,0,0,1.171-1.266l1.047.425A3.9,3.9,0,0,1,62.743,12.5,4.554,4.554,0,0,1,60.362,13.121Zm8.239,0a3.289,3.289,0,0,1-1.6-.387A2.819,2.819,0,0,1,65.875,11.6a3.48,3.48,0,0,1-.416-1.723,3.179,3.179,0,0,1,.885-2.352,3.322,3.322,0,0,1,4.516,0,3.185,3.185,0,0,1,.882,2.352,3.187,3.187,0,0,1-.885,2.358A3.057,3.057,0,0,1,68.6,13.121Zm-.006-.914a1.917,1.917,0,0,0,1.476-.641,2.4,2.4,0,0,0,.587-1.688,2.393,2.393,0,0,0-.587-1.682A1.917,1.917,0,0,0,68.6,7.554a1.89,1.89,0,0,0-1.463.641,2.409,2.409,0,0,0-.581,1.682,2.418,2.418,0,0,0,.581,1.688A1.89,1.89,0,0,0,68.6,12.207ZM79.843,6.64a2.011,2.011,0,0,1,1.454.53,1.966,1.966,0,0,1,.552,1.489V13h-1.1V8.944a1.41,1.41,0,0,0-.343-1.028,1.167,1.167,0,0,0-.87-.349,1.232,1.232,0,0,0-.952.394,1.692,1.692,0,0,0-.362,1.181V13H77.107V8.988a1.475,1.475,0,0,0-.346-1.063,1.177,1.177,0,0,0-.885-.359,1.221,1.221,0,0,0-.949.4,1.751,1.751,0,0,0-.365,1.209V13h-1.1V6.76h1.1v.806a1.9,1.9,0,0,1,.714-.686,2.036,2.036,0,0,1,.993-.241,2.12,2.12,0,0,1,1.066.263,1.64,1.64,0,0,1,.692.759,1.942,1.942,0,0,1,.749-.759A2.142,2.142,0,0,1,79.843,6.64Zm7.427,0a2.838,2.838,0,0,1,1.13.229,2.779,2.779,0,0,1,.927.641,3,3,0,0,1,.625,1.028,3.792,3.792,0,0,1,.232,1.346,3.3,3.3,0,0,1-.841,2.355,2.732,2.732,0,0,1-2.073.9,2.47,2.47,0,0,1-1.3-.355,2.33,2.33,0,0,1-.892-.958v4.323h-1.1V6.76h1.06l.025,1.212A2.284,2.284,0,0,1,85.95,7,2.493,2.493,0,0,1,87.27,6.64Zm-.216,5.542A1.9,1.9,0,0,0,88.5,11.55a2.349,2.349,0,0,0,.587-1.666A2.338,2.338,0,0,0,88.5,8.22a1.969,1.969,0,0,0-2.91.029,2.34,2.34,0,0,0-.6,1.635,2.349,2.349,0,0,0,.6,1.641A1.9,1.9,0,0,0,87.054,12.181Zm5.935-4.323a1.886,1.886,0,0,1,.774-.838,2.332,2.332,0,0,1,1.2-.33V7.725a2.056,2.056,0,0,0-1.45.463,1.936,1.936,0,0,0-.5,1.479V13h-1.1V6.76h1.073Zm4.627,5.262a2.123,2.123,0,0,1-1.368-.428,1.539,1.539,0,0,1-.536-1.279,1.818,1.818,0,0,1,.171-.816,1.438,1.438,0,0,1,.508-.568,3.046,3.046,0,0,1,.733-.352,6.777,6.777,0,0,1,.949-.225l1.009-.165q.552-.1.552-.578a1.09,1.09,0,0,0-.39-.93,1.591,1.591,0,0,0-.987-.3,1.62,1.62,0,0,0-.978.286,1.2,1.2,0,0,0-.463.876l-.99-.209A1.906,1.906,0,0,1,96.607,7.1a2.917,2.917,0,0,1,1.7-.448,3.45,3.45,0,0,1,.9.111,2.458,2.458,0,0,1,.755.349,1.566,1.566,0,0,1,.54.673,2.5,2.5,0,0,1,.194,1.025v2.577a1.054,1.054,0,0,0,.143.651.617.617,0,0,0,.492.168h.1V13h-.546a1.041,1.041,0,0,1-1.181-.844h-.051A2.385,2.385,0,0,1,97.617,13.121Zm.254-.889a1.665,1.665,0,0,0,1.339-.6,2.483,2.483,0,0,0,.508-1.65l-1.65.317a2.222,2.222,0,0,0-.968.346.8.8,0,0,0-.314.682.8.8,0,0,0,.3.686A1.289,1.289,0,0,0,97.871,12.232Zm7.09.889a2.958,2.958,0,0,1-1.682-.451,1.864,1.864,0,0,1-.819-1.282l.958-.273a1.337,1.337,0,0,0,.511.866,1.658,1.658,0,0,0,1.025.308,2.046,2.046,0,0,0,.6-.083.962.962,0,0,0,.46-.308.859.859,0,0,0,.133-.825,1.1,1.1,0,0,0-.1-.206.629.629,0,0,0-.178-.171,2.344,2.344,0,0,0-.216-.133,2.215,2.215,0,0,0-.282-.117q-.187-.067-.3-.1t-.349-.1l-.362-.1a6.769,6.769,0,0,1-.647-.229,2.84,2.84,0,0,1-.527-.3,1.213,1.213,0,0,1-.409-.492,1.665,1.665,0,0,1-.136-.7,1.614,1.614,0,0,1,.3-1,1.714,1.714,0,0,1,.79-.587,3.159,3.159,0,0,1,1.108-.181,2.711,2.711,0,0,1,1.52.406,1.734,1.734,0,0,1,.759,1.219l-.9.229a1.2,1.2,0,0,0-.476-.79,1.516,1.516,0,0,0-.9-.263,1.545,1.545,0,0,0-.838.219.736.736,0,0,0-.349.67.666.666,0,0,0,.092.346,1.1,1.1,0,0,0,.187.244,1.151,1.151,0,0,0,.343.187q.248.1.368.133t.457.117q.063.019.1.025.368.1.6.168a3.687,3.687,0,0,1,.54.229,1.794,1.794,0,0,1,.486.34,1.573,1.573,0,0,1,.3.482,1.7,1.7,0,0,1,.127.673,1.817,1.817,0,0,1-.187.841,1.465,1.465,0,0,1-.511.574,2.471,2.471,0,0,1-.727.314A3.463,3.463,0,0,1,104.961,13.121Z" transform="translate(641 4793)" fill="#767676"/>
    <path id="Trazado_67279" data-name="Trazado 67279" d="M28.113,4.063a2.646,2.646,0,0,1,1.4.371,2.508,2.508,0,0,1,.939.993A2.915,2.915,0,0,1,30.779,6.8a2.712,2.712,0,0,1-.74,1.946,2.538,2.538,0,0,1-1.927.778H25.866V13H24.73V4.063Zm-.165,4.475a1.625,1.625,0,0,0,1.244-.479,1.773,1.773,0,0,0,.451-1.266,1.779,1.779,0,0,0-.451-1.26,1.614,1.614,0,0,0-1.244-.486H25.866V8.538Zm5.611-.679a1.886,1.886,0,0,1,.774-.838,2.332,2.332,0,0,1,1.2-.33V7.725a2.056,2.056,0,0,0-1.45.463,1.936,1.936,0,0,0-.5,1.479V13h-1.1V6.76h1.073Zm5.814,5.262a3.289,3.289,0,0,1-1.6-.387A2.819,2.819,0,0,1,36.647,11.6a3.48,3.48,0,0,1-.416-1.723,3.179,3.179,0,0,1,.885-2.352,3.322,3.322,0,0,1,4.516,0,3.185,3.185,0,0,1,.882,2.352,3.187,3.187,0,0,1-.885,2.358A3.057,3.057,0,0,1,39.374,13.121Zm-.006-.914a1.916,1.916,0,0,0,1.476-.641,2.4,2.4,0,0,0,.587-1.688,2.393,2.393,0,0,0-.587-1.682,1.916,1.916,0,0,0-1.476-.641,1.89,1.89,0,0,0-1.463.641,2.409,2.409,0,0,0-.581,1.682,2.418,2.418,0,0,0,.581,1.688A1.89,1.89,0,0,0,39.367,12.207ZM48.844,3.25h1.1V13h-1.06l-.025-1.212a2.3,2.3,0,0,1-.889.984,2.476,2.476,0,0,1-1.32.362,2.836,2.836,0,0,1-2.06-.879,3,3,0,0,1-.628-1.031,3.773,3.773,0,0,1-.232-1.339,3.281,3.281,0,0,1,.847-2.342,2.736,2.736,0,0,1,2.073-.9,2.487,2.487,0,0,1,1.3.352,2.309,2.309,0,0,1,.892.955Zm-1.968,8.931a1.869,1.869,0,0,0,1.45-.657,2.371,2.371,0,0,0,.587-1.641,2.367,2.367,0,0,0-.59-1.638,1.868,1.868,0,0,0-1.447-.66,1.91,1.91,0,0,0-1.46.638,2.347,2.347,0,0,0-.59,1.66,2.347,2.347,0,0,0,.59,1.66A1.91,1.91,0,0,0,46.877,12.181ZM56.062,6.76h1.1V13H56.106l-.025-.825a1.948,1.948,0,0,1-.774.7,2.382,2.382,0,0,1-1.092.244,2.171,2.171,0,0,1-1.571-.565,2.107,2.107,0,0,1-.587-1.593V6.76h1.1v3.955a1.481,1.481,0,0,0,.384,1.117,1.359,1.359,0,0,0,.981.368,1.493,1.493,0,0,0,1.108-.432,1.758,1.758,0,0,0,.435-1.276Zm5.922,6.354a3.005,3.005,0,0,1-2.234-.9,3.193,3.193,0,0,1-.882-2.342,3.2,3.2,0,0,1,.879-2.342,3.251,3.251,0,0,1,4.043-.349A2.755,2.755,0,0,1,64.841,8.7l-1.028.165a1.9,1.9,0,0,0-.7-.971,1.918,1.918,0,0,0-1.13-.343,1.845,1.845,0,0,0-1.444.641,2.442,2.442,0,0,0-.568,1.682,2.43,2.43,0,0,0,.568,1.679,1.849,1.849,0,0,0,1.444.638,1.918,1.918,0,0,0,1.13-.343,1.9,1.9,0,0,0,.7-.971l1.028.171a2.758,2.758,0,0,1-1.057,1.514A3.023,3.023,0,0,1,61.984,13.114ZM68.452,13a1.64,1.64,0,0,1-1.219-.448,1.693,1.693,0,0,1-.444-1.247V7.636H65.513V6.76h.47a.9.9,0,0,0,.689-.219,1.078,1.078,0,0,0,.2-.733V4.678h1.022V6.76h1.435v.876H67.894v3.555a.946.946,0,0,0,.238.689.833.833,0,0,0,.625.244h.571V13Zm5.015.121a3.289,3.289,0,0,1-1.6-.387A2.819,2.819,0,0,1,70.741,11.6a3.48,3.48,0,0,1-.416-1.723,3.179,3.179,0,0,1,.885-2.352,3.322,3.322,0,0,1,4.516,0,3.185,3.185,0,0,1,.882,2.352,3.187,3.187,0,0,1-.885,2.358A3.057,3.057,0,0,1,73.467,13.121Zm-.006-.914a1.917,1.917,0,0,0,1.476-.641,2.4,2.4,0,0,0,.587-1.688,2.393,2.393,0,0,0-.587-1.682,1.917,1.917,0,0,0-1.476-.641A1.89,1.89,0,0,0,72,8.195a2.409,2.409,0,0,0-.581,1.682A2.418,2.418,0,0,0,72,11.565,1.89,1.89,0,0,0,73.461,12.207ZM83.7,13a1.64,1.64,0,0,1-1.219-.448,1.693,1.693,0,0,1-.444-1.247V7.636H80.76V6.76h.47a.9.9,0,0,0,.689-.219,1.078,1.078,0,0,0,.2-.733V4.678h1.022V6.76h1.435v.876H83.141v3.555a.946.946,0,0,0,.238.689.833.833,0,0,0,.625.244h.571V13Zm7.846-3.244-.013.3H86.657a2.2,2.2,0,0,0,.6,1.6,1.959,1.959,0,0,0,1.422.555,1.871,1.871,0,0,0,1.035-.3,1.936,1.936,0,0,0,.711-.825l.99.209a2.815,2.815,0,0,1-1.066,1.339,2.909,2.909,0,0,1-1.657.489,3.014,3.014,0,0,1-2.247-.87,3.235,3.235,0,0,1-.857-2.374,3.22,3.22,0,0,1,.86-2.368,2.977,2.977,0,0,1,2.212-.87,2.817,2.817,0,0,1,2.1.8A3.16,3.16,0,0,1,91.545,9.756ZM88.657,7.484a1.946,1.946,0,0,0-1.3.441A2.021,2.021,0,0,0,86.7,9.21h3.739a1.854,1.854,0,0,0-.546-1.285A1.763,1.763,0,0,0,88.657,7.484Zm5.681.375a1.886,1.886,0,0,1,.774-.838,2.332,2.332,0,0,1,1.2-.33V7.725a2.056,2.056,0,0,0-1.45.463,1.936,1.936,0,0,0-.5,1.479V13h-1.1V6.76h1.073ZM103.98,6.64a2.011,2.011,0,0,1,1.454.53,1.966,1.966,0,0,1,.552,1.489V13h-1.1V8.944a1.41,1.41,0,0,0-.343-1.028,1.167,1.167,0,0,0-.87-.349,1.232,1.232,0,0,0-.952.394,1.692,1.692,0,0,0-.362,1.181V13h-1.117V8.988a1.475,1.475,0,0,0-.346-1.063,1.177,1.177,0,0,0-.885-.359,1.221,1.221,0,0,0-.949.4A1.751,1.751,0,0,0,98.7,9.179V13H97.6V6.76h1.1v.806a1.9,1.9,0,0,1,.714-.686,2.036,2.036,0,0,1,.993-.241,2.12,2.12,0,0,1,1.066.263,1.64,1.64,0,0,1,.692.759,1.942,1.942,0,0,1,.749-.759A2.142,2.142,0,0,1,103.98,6.64Zm4.691-1.346a.748.748,0,0,1-.743-.743.7.7,0,0,1,.219-.521.72.72,0,0,1,.524-.216.713.713,0,0,1,.517.216.7.7,0,0,1,.219.521.715.715,0,0,1-.219.524A.707.707,0,0,1,108.671,5.294ZM108.113,13V6.76h1.1V13ZM114.4,6.64a2.171,2.171,0,0,1,1.571.565,2.107,2.107,0,0,1,.587,1.593V13h-1.1V9.045a1.475,1.475,0,0,0-.381-1.117,1.362,1.362,0,0,0-.978-.362,1.51,1.51,0,0,0-1.111.428,1.739,1.739,0,0,0-.438,1.273V13h-1.1V6.76h1.1v.8A2.084,2.084,0,0,1,114.4,6.64Zm5.719,6.481a2.123,2.123,0,0,1-1.368-.428,1.539,1.539,0,0,1-.536-1.279,1.818,1.818,0,0,1,.171-.816,1.438,1.438,0,0,1,.508-.568,3.046,3.046,0,0,1,.733-.352,6.777,6.777,0,0,1,.949-.225l1.009-.165q.552-.1.552-.578a1.09,1.09,0,0,0-.39-.93,1.591,1.591,0,0,0-.987-.3,1.62,1.62,0,0,0-.978.286,1.2,1.2,0,0,0-.463.876l-.99-.209a1.906,1.906,0,0,1,.781-1.336,2.917,2.917,0,0,1,1.7-.448,3.45,3.45,0,0,1,.9.111,2.458,2.458,0,0,1,.755.349,1.566,1.566,0,0,1,.54.673,2.5,2.5,0,0,1,.194,1.025v2.577a1.054,1.054,0,0,0,.143.651.617.617,0,0,0,.492.168h.1V13h-.546a1.041,1.041,0,0,1-1.181-.844h-.051A2.385,2.385,0,0,1,120.116,13.121Zm.254-.889a1.665,1.665,0,0,0,1.339-.6,2.483,2.483,0,0,0,.508-1.65l-1.65.317a2.222,2.222,0,0,0-.968.346.8.8,0,0,0-.314.682.8.8,0,0,0,.3.686A1.289,1.289,0,0,0,120.37,12.232Zm9.6-8.982h1.1V13h-1.06l-.025-1.212a2.3,2.3,0,0,1-.889.984,2.476,2.476,0,0,1-1.32.362,2.836,2.836,0,0,1-2.06-.879,3,3,0,0,1-.628-1.031,3.773,3.773,0,0,1-.232-1.339,3.281,3.281,0,0,1,.847-2.342,2.736,2.736,0,0,1,2.073-.9,2.487,2.487,0,0,1,1.3.352,2.309,2.309,0,0,1,.892.955ZM128,12.181a1.869,1.869,0,0,0,1.45-.657,2.371,2.371,0,0,0,.587-1.641,2.367,2.367,0,0,0-.59-1.638A1.868,1.868,0,0,0,128,7.585a1.91,1.91,0,0,0-1.46.638,2.347,2.347,0,0,0-.59,1.66,2.347,2.347,0,0,0,.59,1.66A1.91,1.91,0,0,0,128,12.181Zm7.928.939a3.289,3.289,0,0,1-1.6-.387A2.819,2.819,0,0,1,133.2,11.6a3.48,3.48,0,0,1-.416-1.723,3.179,3.179,0,0,1,.885-2.352,3.322,3.322,0,0,1,4.516,0,3.185,3.185,0,0,1,.882,2.352,3.187,3.187,0,0,1-.885,2.358A3.057,3.057,0,0,1,135.928,13.121Zm-.006-.914a1.916,1.916,0,0,0,1.476-.641,2.4,2.4,0,0,0,.587-1.688,2.393,2.393,0,0,0-.587-1.682,1.916,1.916,0,0,0-1.476-.641,1.89,1.89,0,0,0-1.463.641,2.409,2.409,0,0,0-.581,1.682,2.418,2.418,0,0,0,.581,1.688A1.89,1.89,0,0,0,135.922,12.207Z" transform="translate(1007 4793)" fill="#767676"/>
  </g>
</svg>
