<svg xmlns="http://www.w3.org/2000/svg" xmlns:xlink="http://www.w3.org/1999/xlink" width="242" height="242" viewBox="0 0 242 242">
  <defs>
    <clipPath id="clip-path">
      <rect id="Rectángulo_26081" data-name="Rectángulo 26081" width="144.57" height="145.122" fill="none"/>
    </clipPath>
  </defs>
  <g id="Grupo_25335" data-name="Grupo 25335" transform="translate(-111 -5859)">
    <g id="Elipse_81" data-name="Elipse 81" transform="translate(111 5859)" fill="#fff" stroke="#48a5d9" stroke-width="4">
      <circle cx="121" cy="121" r="121" stroke="none"/>
      <circle cx="121" cy="121" r="119" fill="none"/>
    </g>
    <g id="Grupo_25224" data-name="Grupo 25224" transform="translate(163 5913)">
      <g id="Grupo_25223" data-name="Grupo 25223" clip-path="url(#clip-path)">
        <path id="Trazado_66627" data-name="Trazado 66627" d="M26.025.361A20.741,20.741,0,1,0,50.247,16.9,20.764,20.764,0,0,0,26.025.361" transform="translate(-7.716 0)" fill="#e9f6ff"/>
        <path id="Trazado_66628" data-name="Trazado 66628" d="M135,27.517,133.888,31l-1.812,6.552-2.594-3.371-2.437,2.411-2.523-3.013-1.214,2.336-.846-.047-2.778-.516,1.014,2.6,2.131.409L120.991,47.5l-1.336,1.265-1.992-2.888-1.921-5.111-2.623.383-1.491-1.745.7-4.319,2.078-.921,1.521.634,3.053-1.388-3.889-1.269-3.036.056-.322-.858,2.525-2.177L112.7,27.538l2.383-3.157,3.274.5,4.8-2.557s1.877-1.506,3.979-3.17A20.764,20.764,0,0,1,135,27.517" transform="translate(-94.415 -16.197)" fill="#d4edff"/>
        <path id="Trazado_66629" data-name="Trazado 66629" d="M14.147,47.541l-.782,2.22-1.318,4.06a.325.325,0,0,0,.068.314l1.84,1.993a.356.356,0,0,0,.3.094.326.326,0,0,0,.236-.2l.818-2.183L18.262,56.3,14.4,61.343l-2.586.746a.323.323,0,0,0-.228.26l-.258,1.718a.322.322,0,0,0,.1.289l2.185,1.907-3.087-.769-.993-.826a20.689,20.689,0,0,1,4.614-17.128" transform="translate(-7.779 -40.21)" fill="#d4edff"/>
        <path id="Trazado_66630" data-name="Trazado 66630" d="M54.551,167.188l-2.468-3.168,1.075-4.591,6.478,3.958-2.845,10.458-1.364-1.99-.815-4.528a.32.32,0,0,0-.062-.14" transform="translate(-44.052 -134.845)" fill="#d4edff"/>
        <path id="Trazado_66631" data-name="Trazado 66631" d="M57.247,36.953l-3.208-4.368a19.081,19.081,0,0,1,6-3.367L59.9,33.833Z" transform="translate(-45.706 -24.712)" fill="#d4edff"/>
        <path id="Trazado_66632" data-name="Trazado 66632" d="M181.3,121.022A53.662,53.662,0,1,1,127.641,67.36,53.662,53.662,0,0,1,181.3,121.022" transform="translate(-62.571 -56.973)" fill="#fec00f"/>
        <path id="Trazado_66633" data-name="Trazado 66633" d="M574.448,192.94A26.388,26.388,0,0,0,584.66,173.4c.029-.487.052-.976.062-1.473v0a26.115,26.115,0,0,0-1.222-8.485c-.026-.077-.055-.151-.077-.227.022.075.05.147.073.222l-8.076,2.5a18.91,18.91,0,0,1,.846,5.87v0a18.935,18.935,0,0,1-8.034,15.225l4.874,6.913c.459-.324.909-.66,1.342-1" transform="translate(-480.61 -138.044)" fill="#0253a2"/>
        <path id="Trazado_66634" data-name="Trazado 66634" d="M331.469,77.745A18.961,18.961,0,1,1,365.08,61.216l8.076-2.5c-.023-.075-.051-.147-.073-.222-.109-.34-.221-.675-.34-1.008-.034-.094-.072-.188-.106-.284a26.912,26.912,0,0,0-24.165-17.761c-.261-.014-.519-.02-.779-.025-.115,0-.229-.011-.344-.013-.021,0-.042,0-.065,0-.367,0-.731,0-1.1.011-.108.005-.218,0-.327.009-.286.011-.569.033-.854.053-.2.013-.4.025-.595.043-.158.015-.317.037-.473.054-.327.037-.656.074-.981.12l-.056.01a27.366,27.366,0,0,0-6.688,1.891c-.258.112-.519.221-.777.34a.147.147,0,0,0-.022.011,27.425,27.425,0,0,0-15.676,21.619c-.008.055-.013.109-.019.163-.037.323-.065.65-.089.974-.013.168-.025.333-.035.5-.015.218-.019.44-.028.661,0,.191-.018.378-.021.57a27.282,27.282,0,0,0,5.01,16.186Z" transform="translate(-270.27 -33.326)" fill="#f99b1c"/>
        <path id="Trazado_66635" data-name="Trazado 66635" d="M390.261,299.54l-4.874-6.913a18.873,18.873,0,0,1-11.2,3.466h0a18.928,18.928,0,0,1-15.227-8.034l-6.912,4.873s0,0,.006.007c.308.438.627.862.952,1.276a26.325,26.325,0,0,0,18.239,10.155c.05,0,.1.008.151.013.375.039.751.078,1.133.1.023,0,.042,0,.062,0,.111.007.225.007.335.013.38.022.758.047,1.143.051a27.286,27.286,0,0,0,15.908-4.81c.555-.382.738-.526.28-.2" transform="translate(-297.764 -243.64)" fill="#e9f6ff"/>
        <path id="Trazado_66636" data-name="Trazado 66636" d="M500.934,42.933l29.812,9.689a31.346,31.346,0,0,0-20.126-39.5,29.841,29.841,0,0,0-9.686-1.533Z" transform="translate(-423.689 -9.803)" fill="#2b83fd"/>
        <path id="Trazado_66637" data-name="Trazado 66637" d="M213.715,495.868l-11.235.288-2.5,12s12.675.384,15.076-1.056-1.344-11.235-1.344-11.235" transform="translate(-169.146 -419.405)" fill="#0063cb"/>
        <path id="Trazado_66638" data-name="Trazado 66638" d="M289.058,429.47c2.186,1.838,4.763,11.072,4.763,11.072s1.18,6.16-5.369-7.531c-1.625-3.4.067-3.994.606-3.541" transform="translate(-243.39 -363.133)" fill="#e9d6b8"/>
        <path id="Trazado_66639" data-name="Trazado 66639" d="M316.245,500.764l.618-1.069.251-.977-.224-1.624a10.909,10.909,0,0,0-.849-2.263,29.79,29.79,0,0,1-1.051-3.405,7.972,7.972,0,0,0-1.879-.954s1.311,3.1,1.73,4.118a24.272,24.272,0,0,1,.665,3.089,4.823,4.823,0,0,0,.65,1.2s-.2-1.142-.29-1.435.285-.236.285-.236a9.622,9.622,0,0,1,.39,1.987,2.614,2.614,0,0,1-.258.829Z" transform="translate(-264.83 -414.84)" fill="#e9d6b8"/>
        <path id="Trazado_66640" data-name="Trazado 66640" d="M269.582,355.12l2.924,13.152.1.773,3.784-.695c-2.685-7.574-3.264-9.072-3.492-10.5-.083-.521-.707-4.791-.748-5.571a4.344,4.344,0,0,0-2.737-3.978c-2.37-1.043.174,6.82.174,6.82" transform="translate(-227.011 -294.511)" fill="#387bff"/>
        <path id="Trazado_66641" data-name="Trazado 66641" d="M224.507,310.62a5.344,5.344,0,1,0,5.343-5.232,5.288,5.288,0,0,0-5.343,5.232" transform="translate(-189.888 -258.297)" fill="#163f59"/>
        <path id="Trazado_66642" data-name="Trazado 66642" d="M251.86,795.837l-.056,6.4a22.589,22.589,0,0,0,3.116,3.228c.835.445.724.056.668-.167a16.122,16.122,0,0,1-1.67-2.727c-.223-.89.278-6.344.222-6.623s-2.282-.111-2.282-.111" transform="translate(-212.976 -673.076)" fill="#e9d6b8"/>
        <path id="Trazado_66643" data-name="Trazado 66643" d="M186.627,799.843a46.948,46.948,0,0,0-.891,4.842c-.056,1.224.167,1.614-.167,2s-2.671,3.451-3.228,3.451a.545.545,0,0,1-.557-.557,18.894,18.894,0,0,0,2.115-3.228,52.184,52.184,0,0,0,.334-6.344c0-.5,2.393-.167,2.393-.167" transform="translate(-153.754 -676.414)" fill="#e9d6b8"/>
        <path id="Trazado_66644" data-name="Trazado 66644" d="M197.921,434.822s.9.116.426,4.921A99.135,99.135,0,0,1,196.1,451.5l.145-11.18s.241-4.274,1.674-5.5" transform="translate(-165.863 -367.772)" fill="#e9d6b8"/>
        <path id="Trazado_66645" data-name="Trazado 66645" d="M250.631,498.187l-.371,23-.742,22.039,3.265.148s2.3-22.261,2.6-24.191,3.636-17.438,1.707-21.3-6.455.3-6.455.3" transform="translate(-211.042 -419.727)" fill="#194866"/>
        <path id="Trazado_66646" data-name="Trazado 66646" d="M262.25,497.89a3.455,3.455,0,0,1,.163.387c-2.092,3.25-4.062,6-4.514,6.7-.258.4-1.121,1.867-2.276,3.849l.172-10.637s4.526-4.155,6.455-.3" transform="translate(-216.205 -419.727)" fill="#163f59"/>
        <path id="Trazado_66647" data-name="Trazado 66647" d="M198.7,505.447s-.965,9.8-.965,16.474-.668,26.194-.668,26.194v3.414l2.523-.074,3.933-24.933,3.265-21.075Z" transform="translate(-166.677 -427.507)" fill="#194866"/>
        <path id="Trazado_66648" data-name="Trazado 66648" d="M199.95,309.047a5.344,5.344,0,1,0,5.343-5.232,5.289,5.289,0,0,0-5.343,5.232" transform="translate(-169.117 -256.966)" fill="#163f59"/>
        <path id="Trazado_66649" data-name="Trazado 66649" d="M224.014,275.118a4.685,4.685,0,1,0,4.674-4.99,4.84,4.84,0,0,0-4.674,4.99" transform="translate(-189.471 -228.474)" fill="#163f59"/>
        <path id="Trazado_66650" data-name="Trazado 66650" d="M215.258,309.071s-.445,2.672-.074,3.414,2.894,2.449,3.265,2.968-.742,4.527-4.378,3.933-6.9-2.894-6.9-3.488.074-1.188,1.261-1.632,3.117-.742,3.636-1.336a4.4,4.4,0,0,0,.816-3.636c-.371-1.558,2.374-.223,2.374-.223" transform="translate(-175.224 -260.962)" fill="#e9d6b8"/>
        <path id="Trazado_66651" data-name="Trazado 66651" d="M190.875,355.207,189.6,368.62v.779l-3.84-.223s1.113-10.352,1.28-10.853a43.075,43.075,0,0,0,.5-5.621c-.056-.779.111-4.675,2.672-4.285s.668,6.79.668,6.79" transform="translate(-157.111 -294.668)" fill="#387bff"/>
        <path id="Trazado_66652" data-name="Trazado 66652" d="M237.295,277.185c.076-.021.153-.039.233-.053a5.026,5.026,0,0,0,2.021,2.856,6.752,6.752,0,0,0,.837.539v.861a2.414,2.414,0,0,1-4.824,0v-1.941a5.155,5.155,0,0,0,1.733-2.262" transform="translate(-199.238 -234.398)" fill="#e9d6b8"/>
        <path id="Trazado_66653" data-name="Trazado 66653" d="M214.268,389.735h11.965l-1.728-10.142.392-11.9a16.76,16.76,0,0,1-4.174.98,14.212,14.212,0,0,1-4.007-.98Z" transform="translate(-181.228 -310.997)" fill="#8dcfff"/>
        <path id="Trazado_66654" data-name="Trazado 66654" d="M195.48,543.952a13.333,13.333,0,0,0,.472,2.1c.131.223.924,1.173.924,1.173a2.416,2.416,0,0,0-.348-1.061,20.23,20.23,0,0,1-1.049-2.212" transform="translate(-165.337 -460.074)" fill="#e9d6b8"/>
        <path id="Trazado_66655" data-name="Trazado 66655" d="M270.667,345.242s-.371,7.346-.148,10.018,1.618,7.538,2.273,12.866c.429,3.5.394,9.5.394,9.5a5.771,5.771,0,0,1-1.484.668c-.519.074-1.51-.426-1.855-2.226-.427-2.226-1.515-18.007-1.777-19.394-.371-1.967-.1-7.654-.143-8.452a23.329,23.329,0,0,1-.256-3.521,8.2,8.2,0,0,0,.029-1.9s2.375,1.039,2.968,2.449" transform="translate(-226.366 -289.934)" fill="#0063cb"/>
        <path id="Trazado_66656" data-name="Trazado 66656" d="M203.013,339.775a2.736,2.736,0,0,0,.834,1.078c.445.223.223,2.671,0,3.006s-.612,7.847-.668,9.628-.976,17.848-1.254,19.129-.111,2.783-1.447,3.283a10,10,0,0,1-3.005.5s1.365-13.452,1.7-14.954a50.75,50.75,0,0,0,1.5-7.4c.111-2.282-.222-5.732-.334-7.569a25.378,25.378,0,0,0-1.225-5.12c-.111-.334,3.452-1.412,3.9-1.579" transform="translate(-167.022 -287.381)" fill="#0063cb"/>
        <path id="Trazado_66657" data-name="Trazado 66657" d="M250.507,835.452a1.394,1.394,0,0,0-.159.8c.051.334.326,1.313.326,1.313l.612.278V837.4a14.286,14.286,0,0,0,1.67,1.725c.557.39,1.723,1.36,2.393,1.113a.406.406,0,0,0,.223-.279s-1.058-1.169-1.224-1.336-.557.167-1-.111a16.494,16.494,0,0,1-2.059-1.893,6.955,6.955,0,0,1-.779-1.168" transform="translate(-211.734 -706.624)" fill="#161711"/>
        <path id="Trazado_66658" data-name="Trazado 66658" d="M181.259,839.368a2.213,2.213,0,0,1,.064.828,4.027,4.027,0,0,1-.3.869l-.558.315a14.647,14.647,0,0,1-1.562,1.688c-.517.39-1.6,1.36-2.224,1.113a.4.4,0,0,1-.207-.278s.983-1.168,1.138-1.336.517.167.931-.111a15.715,15.715,0,0,0,1.913-1.893,11.771,11.771,0,0,0,.808-1.2" transform="translate(-149.257 -709.936)" fill="#161711"/>
        <path id="Trazado_66659" data-name="Trazado 66659" d="M196.1,514.213c-.26,2.283.667,3.373.887,4.312a16.609,16.609,0,0,0,.6,1.894c-.829-.6-.771-1.344-1.017-1.743s-.112-.289-.26.518c-.085.459.564,1.351.907,1.98a1.948,1.948,0,0,1,.29.865,9.439,9.439,0,0,1-1.2-1.489,11.763,11.763,0,0,1-1.17-2.453,9.85,9.85,0,0,1,.264-3.11c.289-1.211.883-2.417.7-.773" transform="translate(-165.008 -434.243)" fill="#e9d6b8"/>
        <path id="Trazado_66660" data-name="Trazado 66660" d="M263.681,338.944a22.433,22.433,0,0,0,.256,3.521,23.9,23.9,0,0,1,.512,5.761,53.5,53.5,0,0,0,.768,8.386s.22-8.279.448-10.563c.128-1.28.128-2.817.128-2.817l-1.28-1.088,1.216.384a11.618,11.618,0,0,1-.384-1.537,6.707,6.707,0,0,0-.448-1.472Z" transform="translate(-223.017 -286.678)" fill="#387bff"/>
        <path id="Trazado_66661" data-name="Trazado 66661" d="M230.968,337.02l-1.108.553-.064,2.432.768.064-.9.576.512,14.211a21.66,21.66,0,0,0,.256-4.289,78.142,78.142,0,0,1,.9-10.371Z" transform="translate(-194.252 -285.051)" fill="#387bff"/>
        <path id="Trazado_66662" data-name="Trazado 66662" d="M896.971,861.524l.19,2.214.406,1.839.746.495.561.168.162.312,1.935,1.28a3.36,3.36,0,0,0,2.15.131c.3-.073-.119-.9-.225-1.027a15.293,15.293,0,0,0-1.542-1.5l-1.509-1.858-1.706-2.326Z" transform="translate(-758.657 -728.443)" fill="#161711"/>
        <path id="Trazado_66663" data-name="Trazado 66663" d="M745.38,847.424l.484.888.262,1-.036,1.594-.859.127-.651-.136-.424.3s-2.438.487-3.353.52c-1.518.052-2.351-.1-2.649-.395-.167-.163.54-.487.773-.521a8.943,8.943,0,0,0,2.765-1.077l1.109-1.259.212-.889Z" transform="translate(-624.308 -716.75)" fill="#161711"/>
        <path id="Trazado_66664" data-name="Trazado 66664" d="M787.5,534.592l13.972,52.6-3.55.226-6.781-16.736L789.5,565.64l-8.061-19.8-1.553-10.89Z" transform="translate(-659.626 -452.157)" fill="#0253a2"/>
        <path id="Trazado_66665" data-name="Trazado 66665" d="M751.946,570.242l-1-20.223.881-9.268,1.071-12.718-1.62-8.514-5.55.889-.627,13.715.344,13.007.274,4.9,2.095,19.3Z" transform="translate(-630.205 -439.408)" fill="#0253a2"/>
        <path id="Trazado_66666" data-name="Trazado 66666" d="M648.5,356.439s-3.2-.8-6.905-5.757c-1.252-1.674-.69.1-.575,2.118s3.581,5.429,7.611,6.767-.131-3.129-.131-3.129" transform="translate(-541.98 -296.043)" fill="#e9d6b8"/>
        <path id="Trazado_66667" data-name="Trazado 66667" d="M614.041,330.012s.754-2.116.454-2.671-1.52-2.5-1.52-2.5l-.355-.469s-.7.14.137,1.441.1.909.1.909l-1.176-.865-1.518-.942-.624-.51s-.334-.317-.473-.32c-.4-.006-.262.328-.262.328l2.266,2.206-2.608-1.418s-.362-.122-.489.046-.012.225-.012.225l2.595,2.355-1.424-.569s-.358-.109-.487.049c-.142.173-.184.216-.184.216l5.2,3.007Z" transform="translate(-514.179 -274.106)" fill="#e9d6b8"/>
        <rect id="Rectángulo_26064" data-name="Rectángulo 26064" width="2.764" height="2.226" transform="matrix(0.835, -0.551, 0.551, 0.835, 98.389, 56.898)" fill="#fff"/>
        <path id="Trazado_66668" data-name="Trazado 66668" d="M610.19,337.027l-1.891-.883a1.592,1.592,0,0,0-.656-.235.289.289,0,0,0-.293.285l2.726,1.633Z" transform="translate(-513.696 -284.11)" fill="#e9d6b8"/>
        <path id="Trazado_66669" data-name="Trazado 66669" d="M661.2,353.991s.258,1.707-6.252,8.185c-3.638,3.62-5.827,5.963-7.978,5.249-3.685-1.224-10.446-11.341-10.446-11.341l3.431-3.655s5.473,6.482,7.948,6.436c.579-.011,4.1-3.223,7.657-7.624,1.5-1.861,5.252,2.265,5.64,2.75" transform="translate(-538.372 -296.674)" fill="#12344a"/>
        <path id="Trazado_66670" data-name="Trazado 66670" d="M730.061,390.094l2.061,2.135,1.673-5.607,1.643,6.475,13.128-1.769s-1.943-11.43-3.188-16.727l4.214-13.3s3.585-9.375-2.268-9.821-12.605-.817-12.605-.817-8.224,22.268-4.657,39.43" transform="translate(-616.726 -296.591)" fill="#163f59"/>
        <path id="Trazado_66671" data-name="Trazado 66671" d="M784.664,353.834l-.969,12.486,6.485-9.943.113-2.579Z" transform="translate(-662.848 -299.242)" fill="#e9f6ff"/>
        <path id="Trazado_66672" data-name="Trazado 66672" d="M836.473,552.656l1.991-.97.242-.227-.246-.444-.428.029.146-1.254-2-.471-1.01-.544.77,3.468" transform="translate(-706.381 -464.152)" fill="#e9d6b8"/>
        <path id="Trazado_66673" data-name="Trazado 66673" d="M842.929,495.141l-7.46,8.121s.184,1.254.781.626c.072-.074-.252-.343.186-.552,1.77-.842,5.881-2.063,7.456-3.423a24.943,24.943,0,0,0,3.588-3.944Z" transform="translate(-706.639 -418.79)" fill="#e9d6b8"/>
        <rect id="Rectángulo_26065" data-name="Rectángulo 26065" width="2.764" height="2.507" transform="matrix(0.721, -0.693, 0.693, 0.721, 130.411, 82.405)" fill="#e7f5fe"/>
        <path id="Trazado_66674" data-name="Trazado 66674" d="M785.227,367.108s-4.122,9.388-1.576,18.98c.2.755,1.177,1.2,1.177,1.2l1.133-1.239s-1.339-11.03-.735-18.943" transform="translate(-662.109 -310.5)" fill="#387bff"/>
        <path id="Trazado_66675" data-name="Trazado 66675" d="M801.358,355.461l.25,1.617,3.609-2.475.027-.8Z" transform="translate(-677.788 -299.247)" fill="#d1dbea"/>
        <path id="Trazado_66676" data-name="Trazado 66676" d="M792.809,353.268l-.829,3.151.822-1.079Z" transform="translate(-669.856 -298.794)" fill="#d1dbea"/>
        <path id="Trazado_66677" data-name="Trazado 66677" d="M845.927,365.791l3.228,11.268-4.587,5.928s1.809,2.686,2.56,2.371c5.2-2.174,9.306-9.629,9.306-9.629l-4.7-15.309a9.867,9.867,0,0,0-6.7-4.059c-3.43-.569.665,8.494.891,9.429" transform="translate(-713.577 -301.389)" fill="#12344a"/>
        <path id="Trazado_66678" data-name="Trazado 66678" d="M801.557,339.185a12.349,12.349,0,0,1-.709,2.063c-.43.834-3.8,1.752-4.318,1.846s.269-2.562.3-3.173c.025-.467.317-.3-.007-1Z" transform="translate(-673.555 -286.662)" fill="#e9d6b8"/>
        <path id="Trazado_66679" data-name="Trazado 66679" d="M775.307,351.8l-1,2.789-1.282,10.694-1.843-8.405,1.516-1.454-.822-1.353,1.813-2.206Z" transform="translate(-652.265 -297.555)" fill="#194866"/>
        <path id="Trazado_66680" data-name="Trazado 66680" d="M758.632,383.74l-.153,5.894,1.156-5.32,10.88,7s.9-7.947-.345-13.244l4.214-13.3s3.585-9.375-2.268-9.821c-.825-.062-1.667-.124-2.5-.182-1.185-.083-3.4,3.317-3.929,4.293-.57,1.045-4.272,10.529-4.272,10.529Z" transform="translate(-641.521 -300.064)" fill="#12344a"/>
        <path id="Trazado_66681" data-name="Trazado 66681" d="M786.311,353.3l1.94.433-1.56,2.912-2.227,1.324.014,2.52-5.787,8.256,3.779-10.886Z" transform="translate(-658.617 -298.822)" fill="#163f59"/>
        <path id="Trazado_66682" data-name="Trazado 66682" d="M786.521,352.3l1.94.433-1.553,2.921-2.222,1.262.021,2.41-5.766,7.883,3.753-10.4Z" transform="translate(-658.827 -297.976)" fill="#194866"/>
        <path id="Trazado_66683" data-name="Trazado 66683" d="M794.239,365.615l.6-.064-.06,1.468-.718.509-.411-.617Z" transform="translate(-671.265 -309.183)" fill="#387bff"/>
        <path id="Trazado_66684" data-name="Trazado 66684" d="M793.765,293.9a.961.961,0,0,0,.734,1.146l4.235.921a.964.964,0,0,0,1.145-.736l1.364-6.271a.963.963,0,0,0-.736-1.146l-4.234-.919a.961.961,0,0,0-1.145.735Z" transform="translate(-671.346 -242.638)" fill="#e9d6b8"/>
        <path id="Trazado_66685" data-name="Trazado 66685" d="M798.346,288.082a3.658,3.658,0,0,1-.46-1.127,1.436,1.436,0,0,1,.857-1.045c.531-.171.81.423.81.423s-.842.255-.914.4-.293,1.346-.293,1.346" transform="translate(-674.851 -241.797)" fill="#163f59"/>
        <path id="Trazado_66686" data-name="Trazado 66686" d="M807.746,279.689a14.364,14.364,0,0,0,1.2-3c.035-.733.063-1.239-.781-1.505-1.265-.4-1.341-.127-1.883-.656a19.728,19.728,0,0,0-1.832-1.9,1.323,1.323,0,0,0-1.976.9,1.384,1.384,0,0,1-.83,1.024c.027.12.239.274.605.569a3.654,3.654,0,0,0,2.681,1.076c.954-.038,2.742-.184,2.793.526s-.47,2.731-.427,2.9.264.141.448.055" transform="translate(-678.031 -230.45)" fill="#194866"/>
        <path id="Trazado_66687" data-name="Trazado 66687" d="M829.861,319.09a.323.323,0,0,0,.246.382l.914.2a.321.321,0,0,0,.382-.245l.364-1.672a.323.323,0,0,0-.245-.384l-.915-.2a.319.319,0,0,0-.381.245Z" transform="translate(-701.89 -268.258)" fill="#e9d6b8"/>
        <path id="Trazado_66688" data-name="Trazado 66688" d="M794.5,311.384a.319.319,0,0,0,.244.382l.914.2a.322.322,0,0,0,.383-.247l.363-1.672a.321.321,0,0,0-.245-.382l-.915-.2a.323.323,0,0,0-.381.247Z" transform="translate(-671.978 -261.74)" fill="#e9d6b8"/>
        <path id="Trazado_66689" data-name="Trazado 66689" d="M795.4,321.315l-.716,3.292c-.162.745-.815,2.313-5.019,1.4-2.488-.539-2-2.349-1.869-2.95a5.464,5.464,0,0,1,1.235-1.92c.011-.006-.221,1.02-.221,1.02a2.035,2.035,0,0,1,1.916-.623c1.909.414,2.1,1.626,2.945,1.79.652.126,1.367-.824,1.729-2" transform="translate(-666.21 -271.614)" fill="#194866"/>
        <path id="Trazado_66690" data-name="Trazado 66690" d="M801.747,330.656l-1.306-.285a.321.321,0,0,1-.245-.383l.04-.183,1.934.423-.04.182a.322.322,0,0,1-.382.245" transform="translate(-676.799 -278.95)" fill="#e9d6b8"/>
        <rect id="Rectángulo_26066" data-name="Rectángulo 26066" width="1.389" height="4.583" transform="translate(126.244 64.94) rotate(-81.64)" fill="#194866"/>
        <path id="Trazado_66691" data-name="Trazado 66691" d="M435.735,791.307l-1.4,2.129,11.727,3.756s.783-.749-2.095-2.253c-3.35-1.753-8.236-3.632-8.236-3.632" transform="translate(-367.363 -669.287)" fill="#88bdda"/>
        <path id="Trazado_66692" data-name="Trazado 66692" d="M372.7,791.307l1.4,2.129-11.725,3.756s-.784-.749,2.094-2.253c3.35-1.753,8.236-3.632,8.236-3.632" transform="translate(-306.409 -669.287)" fill="#88bdda"/>
        <rect id="Rectángulo_26067" data-name="Rectángulo 26067" width="2.45" height="8.724" transform="translate(66.106 115.687)" fill="#88bdda"/>
        <path id="Trazado_66693" data-name="Trazado 66693" d="M437.859,794.217l-1.2,2.031,10.037,3.585s.671-.715-1.791-2.151a78.454,78.454,0,0,0-7.051-3.465" transform="translate(-369.329 -671.748)" fill="#acd5f4"/>
        <path id="Trazado_66694" data-name="Trazado 66694" d="M379.912,794.217l1.194,2.031-10.039,3.585s-.67-.715,1.793-2.151a78.318,78.318,0,0,1,7.051-3.465" transform="translate(-313.779 -671.748)" fill="#acd5f4"/>
        <path id="Trazado_66695" data-name="Trazado 66695" d="M494.389,831.2a.851.851,0,1,0,.851-.852.851.851,0,0,0-.851.852" transform="translate(-418.154 -702.307)" fill="#001f46"/>
        <path id="Trazado_66696" data-name="Trazado 66696" d="M368.261,831.2a.852.852,0,1,0,.852-.852.852.852,0,0,0-.852.852" transform="translate(-311.475 -702.307)" fill="#001f46"/>
        <path id="Trazado_66697" data-name="Trazado 66697" d="M507.755,831.2a.852.852,0,1,0,.852-.852.852.852,0,0,0-.852.852" transform="translate(-429.459 -702.307)" fill="#367082"/>
        <path id="Trazado_66698" data-name="Trazado 66698" d="M354.895,831.2a.852.852,0,1,0,.852-.852.851.851,0,0,0-.852.852" transform="translate(-300.17 -702.307)" fill="#367082"/>
        <rect id="Rectángulo_26068" data-name="Rectángulo 26068" width="1.792" height="3.137" transform="translate(66.467 112.49)" fill="#0054df"/>
        <path id="Trazado_66699" data-name="Trazado 66699" d="M422.315,709.169a1.748,1.748,0,0,0,1.748,1.748h.986a1.748,1.748,0,1,0,0-3.5h-.986a1.747,1.747,0,0,0-1.748,1.747" transform="translate(-357.194 -598.337)" fill="#0054df"/>
        <path id="Trazado_66700" data-name="Trazado 66700" d="M350.09,684.953c-.042-.206-.068-1.5-.068-1.717a2.34,2.34,0,0,1,2.037-2.555h22.7a2.34,2.34,0,0,1,2.037,2.555c0,.222-.025,1.512-.068,1.717Z" transform="translate(-296.048 -575.719)" fill="#8cc3ff"/>
        <path id="Trazado_66701" data-name="Trazado 66701" d="M375.858,708.586c0,.432-.252.782-.564.782H349.226c-.311,0-.564-.35-.564-.782s.253-.783.564-.783h26.068c.312,0,.564.35.564.783" transform="translate(-294.898 -598.659)" fill="#0054df"/>
        <path id="Trazado_66702" data-name="Trazado 66702" d="M342.336,626.247s-14.085.03-19.523.112c-3.762.057-4.1-5.306-2.62-6.114,4.5-2.451,18.559-3.712,18.559-3.712l9.56,8.781s-.536-.015-5.977.933" transform="translate(-270.126 -521.463)" fill="#194866"/>
        <path id="Trazado_66703" data-name="Trazado 66703" d="M531.044,835.612c.217.263.059.955.059.955a25.39,25.39,0,0,1-5.011.135,6.411,6.411,0,0,1-1.357-.636c-.086-.049-.236-.34-.319-.388-.153-.091-.232.06-.363-.022a4.25,4.25,0,0,1-.578-.4,3.623,3.623,0,0,1,.11-2.44s3.228-1.073,3.834-.325c1.424,1.761,3.152,2.546,3.626,3.121" transform="translate(-442.649 -703.896)" fill="#161711"/>
        <path id="Trazado_66704" data-name="Trazado 66704" d="M279.408,832.853l-.262,2.864-2.868.281s-.2-.383-.44-.359c-.2.02-.43.444-.708.472l-1.54.15-5.754.563s-.187-.578-.049-.8a2.788,2.788,0,0,1,.843-.462c1.441-.561,5.553-2.274,6.152-3.764.727-1.809,4.627,1.053,4.627,1.053" transform="translate(-226.45 -703.029)" fill="#161711"/>
        <path id="Trazado_66705" data-name="Trazado 66705" d="M514.274,641.768s.934,8.854.8,13.533a101.781,101.781,0,0,0,.729,16.064c.051.353,4.563.088,4.563.088s1.618-21.949,2.1-25.564-.917-6.222-8.189-4.12" transform="translate(-434.972 -542.171)" fill="#194866"/>
        <path id="Trazado_66706" data-name="Trazado 66706" d="M315.125,651.222s1.454,2.3,5.44,2.839c1.441.2-2.324,25.692-2.324,25.692l-5.889-1.886,1.137-28.2Z" transform="translate(-264.187 -549.492)" fill="#163f59"/>
        <path id="Trazado_66707" data-name="Trazado 66707" d="M432.465,625.961s7.7,1.1,12.838,1.637c1.884.2,3.515-5.077,3.734-5.306a3.878,3.878,0,0,1,2.685-1.31c-1.113-1.2-6.879-2.32-12.9-3.734s-6.944-.523-6.944-.523Z" transform="translate(-365.28 -521.391)" fill="#163f59"/>
        <path id="Trazado_66708" data-name="Trazado 66708" d="M519.807,668.726l.59,17.227.589,4,.065-4-.13-2.489L522.3,679.6l.721-8.975-1.048.393.131-3.93Z" transform="translate(-439.652 -564.223)" fill="#163f59"/>
        <path id="Trazado_66709" data-name="Trazado 66709" d="M320.842,645.845l-1.441.394-.525,20.7,3.014,7.4-1.441-5.044.588-10.415s2.1,5.044,2.1,4.782-1.768-10.939-1.768-10.939a22.649,22.649,0,0,1,1.768,1.572c-.2-.066-1.179-7.468-2.292-8.451" transform="translate(-269.705 -546.255)" fill="#194866"/>
        <path id="Trazado_66710" data-name="Trazado 66710" d="M440.3,617.244c6.025,1.414,11.791,2.53,12.9,3.734a3.878,3.878,0,0,0-2.685,1.31c-.06.063-.406,1.753-.655,2.359.982-1.77-13.178-6.761-16.238-8.054.57-.182,2.237-.39,6.674.651" transform="translate(-366.76 -521.388)" fill="#194866"/>
        <path id="Trazado_66711" data-name="Trazado 66711" d="M485.658,488.9s5.5.909,6.123,2.075a124.679,124.679,0,0,1,7.07,15.641c.539,1.556,1.947,7.345-1.573,7.773a17.9,17.9,0,0,1-3.051-.513l-1.725-.59.72-1.384.039-1.094s-2.2-5.305-4.9-10.321-2.7-11.587-2.7-11.587" transform="translate(-410.769 -413.515)" fill="#d4edff"/>
        <path id="Trazado_66712" data-name="Trazado 66712" d="M353.887,493.135s-4.317.085-5.2,3.716c-1.743,7.193-1.51,8.488-1.869,15.331-.035.67.038,2.459,4.085,2.545,1.64.034,1.566-3.031,1.566-3.031a76.4,76.4,0,0,0,2.173-8.038c1.121-5.053-.758-10.523-.758-10.523" transform="translate(-293.337 -417.093)" fill="#d4edff"/>
        <path id="Trazado_66713" data-name="Trazado 66713" d="M371.862,477.074l8.01-3.364,7.031-.473,7.661,3.581s1.226.192.768,6.23c-.478,6.3-1.987,14.175-1.987,14.175l-19.872.636s.522-11.482-.417-16.6c-.33-1.8-.328-3.145-1.194-4.182" transform="translate(-314.52 -400.263)" fill="#e9f6ff"/>
        <path id="Trazado_66714" data-name="Trazado 66714" d="M357.864,606.747l9.7,3.96s-6.877.98-11.178.1c-2.906-.593,1.35-4.19,1.482-4.065" transform="translate(-300.571 -513.183)" fill="#e9d6b8"/>
        <path id="Trazado_66715" data-name="Trazado 66715" d="M485.7,619.665l-10.048.524s9.678,4.44,10,3.676c1.813-4.337.05-4.2.05-4.2" transform="translate(-402.305 -524.112)" fill="#e9d6b8"/>
        <path id="Trazado_66716" data-name="Trazado 66716" d="M465.749,616.09c-.587-.282-.534-.287-.534-.287a2.408,2.408,0,0,1-1.314.757c-.386.06-1.633.075-1.633.075l-1.85.045-.859-.048a1.575,1.575,0,0,0-.613.019c-.373.24-.054.432-.054.432l3.317.471-3.188.394s-.4.119-.419.335.116.2.116.2l3.7.4-1.623.388s-.389.124-.418.336c-.033.229-.048.291-.048.291l3.4-.333s2.6-3.183,2.012-3.466" transform="translate(-387.884 -520.846)" fill="#e9d6b8"/>
        <path id="Trazado_66717" data-name="Trazado 66717" d="M464.045,630.96l-2.228.407a1.848,1.848,0,0,0-.736.2.3.3,0,0,0-.105.415l3.416-.286Z" transform="translate(-389.856 -533.665)" fill="#e9d6b8"/>
        <path id="Trazado_66718" data-name="Trazado 66718" d="M505.733,621.244s3.243,1.793,3.072-4.694c-.028-1.079-4.249-.767-4.249-.767l-4.968.255-1.536,3.755Z" transform="translate(-421.252 -520.793)" fill="#d4edff"/>
        <path id="Trazado_66719" data-name="Trazado 66719" d="M508.634,618.648l-5.346-.688.729-1.781,4.968-.255s.494-.172,2.542.6c3.073,1.963-2.893,2.128-2.893,2.128" transform="translate(-425.68 -520.934)" fill="#e9f6ff"/>
        <path id="Trazado_66720" data-name="Trazado 66720" d="M348.648,607.132s-.964-1.324-.9-1.73c.387-2.424,3.209-2.881,3.209-2.881l7.42,1.994-1.707,3.755Z" transform="translate(-294.123 -509.612)" fill="#d4edff"/>
        <path id="Trazado_66721" data-name="Trazado 66721" d="M429.875,478.384s-8.108-2.475-8.279.086,1.28,13.484,2.048,15.191,3.414-1.365,4.694-6.913a70.249,70.249,0,0,0,1.536-8.364" transform="translate(-356.574 -403.708)" fill="#7dc2f5"/>
        <path id="Trazado_66722" data-name="Trazado 66722" d="M457.919,475.568l-1.761,7.321-.171,6.145,3.5-9.729-.939-.939L460,478.28s-.086-3.5-1.024-4.609-2.619-1-1.792-.256a2.88,2.88,0,0,1,.737,2.153" transform="translate(-385.673 -399.934)" fill="#d4edff"/>
        <path id="Trazado_66723" data-name="Trazado 66723" d="M411.972,476.523a1.753,1.753,0,0,0-1.707,1.024,23.29,23.29,0,0,0-.768,3.67l1.28.6-1.024.939,3.841,10.583s-.256-8.534-.6-10.241-1.024-6.572-1.024-6.572" transform="translate(-346.352 -403.041)" fill="#d4edff"/>
        <path id="Trazado_66724" data-name="Trazado 66724" d="M422.724,438.07a2.307,2.307,0,0,0,1.937,2.049h2.626a2.305,2.305,0,0,0,1.936-2.049q.322-2.655.645-5.313c.144-1.061-.487-3.195-1.883-3.824a5.019,5.019,0,0,0-4.02,0c-1.4.63-2.028,2.763-1.885,3.824q.323,2.657.645,5.313" transform="translate(-356.977 -362.435)" fill="#e2c59c"/>
        <path id="Trazado_66725" data-name="Trazado 66725" d="M446.762,409.38a2.1,2.1,0,0,1,1.757.95h.721a1.628,1.628,0,0,1,1.628,1.629v4.02h-1.145v-1.634a1.147,1.147,0,0,0-1.146-1.146h-.309a2.1,2.1,0,0,1-2.1-2.1V409.38Z" transform="translate(-377.368 -346.253)" fill="#163f59"/>
        <path id="Trazado_66726" data-name="Trazado 66726" d="M463.186,449.786a1,1,0,0,0,1,1h.083a1,1,0,0,0,1-1v-1.211a1,1,0,0,0-1-1h-.083a1,1,0,0,0-.912.594" transform="translate(-391.762 -378.563)" fill="#e2c59c"/>
        <path id="Trazado_66727" data-name="Trazado 66727" d="M425.367,410.979v-1.6h-3.449a2.1,2.1,0,0,0-2.1,2.1v1.6h3.45a2.1,2.1,0,0,0,2.1-2.1" transform="translate(-355.081 -346.253)" fill="#163f59"/>
        <path id="Trazado_66728" data-name="Trazado 66728" d="M421.733,424.189a3.282,3.282,0,0,0,1.7,2.7,6.1,6.1,0,0,0,4.577,0,3.277,3.277,0,0,0,1.7-2.7v-7.112a1.762,1.762,0,0,0-1.868-1.567H423.6a1.761,1.761,0,0,0-1.868,1.567Z" transform="translate(-356.701 -351.439)" fill="#e9d6b8"/>
        <path id="Trazado_66729" data-name="Trazado 66729" d="M419.783,409.38a2.1,2.1,0,0,0-1.757.95H417.3a1.628,1.628,0,0,0-1.628,1.629v4.02h1.146v-1.634a1.146,1.146,0,0,1,1.146-1.146h1.463a2.1,2.1,0,0,0,2.1-2.1V409.38Z" transform="translate(-351.579 -346.253)" fill="#163f59"/>
        <path id="Trazado_66730" data-name="Trazado 66730" d="M417.653,448.576a1,1,0,0,0-1-1h-.083a1,1,0,0,0-1,1v1.211a1,1,0,0,0,1,1h.083a1,1,0,0,0,.912-.593" transform="translate(-351.495 -378.564)" fill="#e9d6b8"/>
        <path id="Trazado_66731" data-name="Trazado 66731" d="M453.42,411.391a2.127,2.127,0,0,1-.042-.412v-1.6h1.488a2.1,2.1,0,0,1,2.1,2.1v1.6h-1.488a2.09,2.09,0,0,1-.431-.044,2.1,2.1,0,0,0-1.628-1.642" transform="translate(-383.467 -346.253)" fill="#163f59"/>
        <path id="Trazado_66732" data-name="Trazado 66732" d="M390.469,638.739a.192.192,0,0,0-.011-.021l.011-.633h19.8v.633a.035.035,0,0,1,0,.021l-.067.118a1.72,1.72,0,0,1-1.635.648H392.171a1.724,1.724,0,0,1-1.635-.648Z" transform="translate(-330.249 -539.692)" fill="#b6c2c9"/>
        <rect id="Rectángulo_26069" data-name="Rectángulo 26069" width="13.109" height="0.447" transform="translate(63.56 98.541)" fill="#879ba6"/>
        <path id="Trazado_66733" data-name="Trazado 66733" d="M390.314,563.94l-.054-12.979a.617.617,0,0,1,.618-.619h18.53a.622.622,0,0,1,.622.619l.053,12.979Z" transform="translate(-330.082 -465.479)" fill="#d7dfe2"/>
        <path id="Trazado_66734" data-name="Trazado 66734" d="M446.751,587.853a1.2,1.2,0,1,0,1.194-1.2,1.193,1.193,0,0,0-1.194,1.2" transform="translate(-377.862 -496.191)" fill="#b6c2c9"/>
        <path id="Trazado_66735" data-name="Trazado 66735" d="M592.677,692.737h2.834l-4.676-45.284h-4.109Z" transform="translate(-496.253 -547.615)" fill="#93cef5"/>
        <path id="Trazado_66736" data-name="Trazado 66736" d="M588.5,649.541l1.8,13.714,2.138-14.779-.1-1.022h-3.592Z" transform="translate(-497.753 -547.616)" fill="#86bbd8"/>
        <path id="Trazado_66737" data-name="Trazado 66737" d="M119.68,692.737h-2.834l4.676-45.284h4.109Z" transform="translate(-98.828 -547.615)" fill="#93cef5"/>
        <path id="Trazado_66738" data-name="Trazado 66738" d="M141.873,649.541l-5.5,13.975,1.56-15.041.105-1.022h3.592Z" transform="translate(-115.344 -547.616)" fill="#86bbd8"/>
        <rect id="Rectángulo_26070" data-name="Rectángulo 26070" width="82.236" height="2.646" transform="translate(15.725 98.368)" fill="#8cc3ff"/>
        <path id="Trazado_66739" data-name="Trazado 66739" d="M220.774,157.344l-.046-2.177-1.939-.12a5.91,5.91,0,0,0-.8-1.962l1.26-1.554-1.571-1.507-1.456,1.285a5.886,5.886,0,0,0-1.955-.816l-.209-1.992-2.178.047-.12,1.938a5.924,5.924,0,0,0-1.961.8l-1.555-1.26-1.507,1.572,1.286,1.456a5.888,5.888,0,0,0-.817,1.955l-1.991.209.046,2.176,1.938.122a5.871,5.871,0,0,0,.805,1.96l-1.26,1.555,1.572,1.507,1.456-1.285a5.87,5.87,0,0,0,1.957.815l.207,1.991,2.179-.045.12-1.939a5.907,5.907,0,0,0,1.96-.805l1.555,1.261,1.507-1.571-1.286-1.457a5.939,5.939,0,0,0,.817-1.956Zm-7.721,1.815a2.876,2.876,0,1,1,2.815-2.936,2.876,2.876,0,0,1-2.815,2.936" transform="translate(-173.566 -125.602)" fill="#f99b1c"/>
        <path id="Trazado_66740" data-name="Trazado 66740" d="M248.885,194.788l-.928-.928.485-.485.443.443,1.472-1.473.485.485Z" transform="translate(-209.721 -162.685)" fill="#fff"/>
        <path id="Trazado_66741" data-name="Trazado 66741" d="M44.507,239.294l-2.221-2.219,4.358-4.357,2.218,2.221Z" transform="translate(-35.766 -196.832)" fill="#0253a2"/>
        <path id="Trazado_66742" data-name="Trazado 66742" d="M73.235,141.454a10.335,10.335,0,1,0-3.024,7.3,10.242,10.242,0,0,0,3.024-7.3m-10.3,8.178a8.16,8.16,0,1,1,5.764-2.39,8.125,8.125,0,0,1-5.764,2.39" transform="translate(-44.475 -110.91)" fill="#0063cb"/>
        <rect id="Rectángulo_26071" data-name="Rectángulo 26071" width="9.735" height="5.464" transform="translate(0.275 44.844) rotate(-45.001)" fill="#0063cb"/>
        <path id="Trazado_66743" data-name="Trazado 66743" d="M5.647,264.862,1.783,261l5.436-5.436,3.863,3.865Z" transform="translate(-1.508 -216.154)" fill="#387bff"/>
        <line id="Línea_348" data-name="Línea 348" y1="2.897" x2="2.898" transform="translate(5.247 42.211)" fill="none" stroke="#fff" stroke-width="4.449"/>
        <path id="Trazado_66744" data-name="Trazado 66744" d="M2.982,297.375A2.982,2.982,0,0,1,0,294.392q.357-.358.716-.715,1.491,1.492,2.982,2.981l-.716.716" transform="translate(0 -248.392)" fill="#0063cb"/>
        <rect id="Rectángulo_26072" data-name="Rectángulo 26072" width="1.997" height="2.053" transform="translate(89.448 19.013)" fill="#0063cb"/>
        <rect id="Rectángulo_26073" data-name="Rectángulo 26073" width="1.996" height="4.591" transform="translate(93.442 16.474)" fill="#f99b1c"/>
        <rect id="Rectángulo_26074" data-name="Rectángulo 26074" width="1.998" height="8.446" transform="translate(97.434 12.62)" fill="#73a9ff"/>
        <rect id="Rectángulo_26075" data-name="Rectángulo 26075" width="1.996" height="6.224" transform="translate(101.429 14.841)" fill="#e9f6ff"/>
        <rect id="Rectángulo_26076" data-name="Rectángulo 26076" width="1.996" height="10.669" transform="translate(105.423 10.397)" fill="#f99b1c"/>
        <rect id="Rectángulo_26077" data-name="Rectángulo 26077" width="1.997" height="5.303" transform="translate(109.416 15.763)" fill="#0063cb"/>
        <rect id="Rectángulo_26078" data-name="Rectángulo 26078" width="1.997" height="15.789" transform="translate(113.41 5.277)" fill="#73a9ff"/>
        <rect id="Rectángulo_26079" data-name="Rectángulo 26079" width="1.997" height="4.758" transform="translate(117.404 16.308)" fill="#e9f6ff"/>
        <rect id="Rectángulo_26080" data-name="Rectángulo 26080" width="1.997" height="7.503" transform="translate(121.397 13.562)" fill="#f99b1c"/>
      </g>
    </g>
  </g>
</svg>
