<svg xmlns="http://www.w3.org/2000/svg" xmlns:xlink="http://www.w3.org/1999/xlink" width="548" height="251.5" viewBox="0 0 548 251.5">
  <defs>
    <filter id="Rectángulo_25856" x="181" y="0" width="186" height="54" filterUnits="userSpaceOnUse">
      <feOffset dy="3" input="SourceAlpha"/>
      <feGaussianBlur stdDeviation="3" result="blur"/>
      <feFlood flood-opacity="0.161"/>
      <feComposite operator="in" in2="blur"/>
      <feComposite in="SourceGraphic"/>
    </filter>
    <filter id="Rectángulo_25861" x="0" y="88" width="143" height="67" filterUnits="userSpaceOnUse">
      <feOffset dy="3" input="SourceAlpha"/>
      <feGaussianBlur stdDeviation="3" result="blur-2"/>
      <feFlood flood-opacity="0.161"/>
      <feComposite operator="in" in2="blur-2"/>
      <feComposite in="SourceGraphic"/>
    </filter>
    <filter id="Rectángulo_25862" x="135" y="88" width="143" height="67" filterUnits="userSpaceOnUse">
      <feOffset dy="3" input="SourceAlpha"/>
      <feGaussianBlur stdDeviation="3" result="blur-3"/>
      <feFlood flood-opacity="0.161"/>
      <feComposite operator="in" in2="blur-3"/>
      <feComposite in="SourceGraphic"/>
    </filter>
    <filter id="Rectángulo_25863" x="270" y="88" width="143" height="67" filterUnits="userSpaceOnUse">
      <feOffset dy="3" input="SourceAlpha"/>
      <feGaussianBlur stdDeviation="3" result="blur-4"/>
      <feFlood flood-opacity="0.161"/>
      <feComposite operator="in" in2="blur-4"/>
      <feComposite in="SourceGraphic"/>
    </filter>
    <filter id="Rectángulo_25865" x="270" y="164" width="143" height="67" filterUnits="userSpaceOnUse">
      <feOffset dy="3" input="SourceAlpha"/>
      <feGaussianBlur stdDeviation="3" result="blur-5"/>
      <feFlood flood-opacity="0.161"/>
      <feComposite operator="in" in2="blur-5"/>
      <feComposite in="SourceGraphic"/>
    </filter>
    <filter id="Rectángulo_25864" x="405" y="88" width="143" height="67" filterUnits="userSpaceOnUse">
      <feOffset dy="3" input="SourceAlpha"/>
      <feGaussianBlur stdDeviation="3" result="blur-6"/>
      <feFlood flood-opacity="0.161"/>
      <feComposite operator="in" in2="blur-6"/>
      <feComposite in="SourceGraphic"/>
    </filter>
    <filter id="Rectángulo_25866" x="135" y="164" width="143" height="67" filterUnits="userSpaceOnUse">
      <feOffset dy="3" input="SourceAlpha"/>
      <feGaussianBlur stdDeviation="3" result="blur-7"/>
      <feFlood flood-opacity="0.161"/>
      <feComposite operator="in" in2="blur-7"/>
      <feComposite in="SourceGraphic"/>
    </filter>
  </defs>
  <g id="Grupo_25156" data-name="Grupo 25156" transform="translate(-473 -4974)">
    <line id="Línea_267" data-name="Línea 267" y1="187" transform="translate(948.5 5037.5)" fill="none" stroke="#8d85ac" stroke-width="2"/>
    <line id="Línea_271" data-name="Línea 271" y1="140" transform="translate(814.5 5037.5)" fill="none" stroke="#8d85ac" stroke-width="2"/>
    <line id="Línea_272" data-name="Línea 272" y1="187" transform="translate(680.5 5037.5)" fill="none" stroke="#8d85ac" stroke-width="2"/>
    <line id="Línea_273" data-name="Línea 273" y1="131" transform="translate(545.5 5037.5)" fill="none" stroke="#8d85ac" stroke-width="2"/>
    <line id="Línea_265" data-name="Línea 265" y2="23" transform="translate(746.5 5015.5)" fill="none" stroke="#8d85ac" stroke-width="2"/>
    <g transform="matrix(1, 0, 0, 1, 473, 4974)" filter="url(#Rectángulo_25856)">
      <g id="Rectángulo_25856-2" data-name="Rectángulo 25856" transform="translate(190 6)" fill="#8d85ac" stroke="#8d85ac" stroke-width="1">
        <rect width="168" height="36" rx="7" stroke="none"/>
        <rect x="0.5" y="0.5" width="167" height="35" rx="6.5" fill="none"/>
      </g>
    </g>
    <path id="Trazado_67285" data-name="Trazado 67285" d="M26.99,14V4.375h3.1A4.6,4.6,0,0,1,32.544,5a3.8,3.8,0,0,1,1.5,1.692,5.944,5.944,0,0,1,.489,2.492,6.3,6.3,0,0,1-.284,1.945,4.406,4.406,0,0,1-.831,1.521,3.644,3.644,0,0,1-1.4,1A4.971,4.971,0,0,1,30.094,14Zm1.224-1.114h1.839a2.931,2.931,0,0,0,2.4-.984,4.161,4.161,0,0,0,.81-2.721,4.126,4.126,0,0,0-.813-2.707,2.933,2.933,0,0,0-2.4-.984H28.214Zm9-7.185a.805.805,0,0,1-.8-.8.758.758,0,0,1,.236-.561.775.775,0,0,1,.564-.232.767.767,0,0,1,.557.232A.758.758,0,0,1,38,4.9a.77.77,0,0,1-.236.564A.762.762,0,0,1,37.21,5.7Zm-.6,8.3V7.28H37.8V14Zm4.751-5.537a2.032,2.032,0,0,1,.834-.9,2.512,2.512,0,0,1,1.292-.355V8.319a2.214,2.214,0,0,0-1.562.5,2.084,2.084,0,0,0-.537,1.593V14H40.2V7.28h1.155Zm9.311,2.044-.014.321h-5.25a2.375,2.375,0,0,0,.643,1.719,2.11,2.11,0,0,0,1.531.6,2.015,2.015,0,0,0,1.114-.321,2.085,2.085,0,0,0,.766-.889l1.066.226A3.031,3.031,0,0,1,49.378,13.6a3.133,3.133,0,0,1-1.784.526,3.246,3.246,0,0,1-2.42-.937,3.484,3.484,0,0,1-.923-2.557,3.467,3.467,0,0,1,.926-2.55A3.206,3.206,0,0,1,47.56,7.15a3.034,3.034,0,0,1,2.259.861A3.4,3.4,0,0,1,50.67,10.507ZM47.56,8.06a2.1,2.1,0,0,0-1.4.475,2.177,2.177,0,0,0-.708,1.384H49.48a2,2,0,0,0-.588-1.384A1.9,1.9,0,0,0,47.56,8.06Zm7.752,6.063a3.237,3.237,0,0,1-2.406-.964,3.438,3.438,0,0,1-.95-2.522A3.445,3.445,0,0,1,52.9,8.114a3.5,3.5,0,0,1,4.354-.376,2.967,2.967,0,0,1,1.131,1.634L57.28,9.55A2.045,2.045,0,0,0,56.521,8.5,2.066,2.066,0,0,0,55.3,8.135a1.987,1.987,0,0,0-1.555.69,2.63,2.63,0,0,0-.612,1.812,2.617,2.617,0,0,0,.612,1.808,1.991,1.991,0,0,0,1.555.687,2.066,2.066,0,0,0,1.217-.369,2.045,2.045,0,0,0,.759-1.046l1.107.185a2.97,2.97,0,0,1-1.138,1.63A3.255,3.255,0,0,1,55.312,14.123ZM62.277,14a1.766,1.766,0,0,1-1.312-.482,1.823,1.823,0,0,1-.479-1.343V8.224H59.112V7.28h.506a.971.971,0,0,0,.742-.236,1.161,1.161,0,0,0,.215-.79V5.038h1.1V7.28h1.545v.943H61.676v3.828a1.019,1.019,0,0,0,.256.742.9.9,0,0,0,.673.263h.615V14Zm5.4.13a3.542,3.542,0,0,1-1.723-.417,3.036,3.036,0,0,1-1.213-1.22,3.748,3.748,0,0,1-.448-1.856A3.423,3.423,0,0,1,65.248,8.1a3.578,3.578,0,0,1,4.864,0,3.43,3.43,0,0,1,.95,2.533,3.432,3.432,0,0,1-.954,2.54A3.292,3.292,0,0,1,67.678,14.13Zm-.007-.984a2.064,2.064,0,0,0,1.589-.69,2.587,2.587,0,0,0,.632-1.818,2.577,2.577,0,0,0-.632-1.812,2.064,2.064,0,0,0-1.589-.69,2.035,2.035,0,0,0-1.576.69,2.594,2.594,0,0,0-.625,1.812,2.6,2.6,0,0,0,.625,1.818A2.035,2.035,0,0,0,67.671,13.146Zm6.4-4.683a2.032,2.032,0,0,1,.834-.9A2.512,2.512,0,0,1,76.2,7.205V8.319a2.214,2.214,0,0,0-1.562.5,2.084,2.084,0,0,0-.537,1.593V14H72.914V7.28h1.155ZM87.1,10.507l-.014.321h-5.25a2.374,2.374,0,0,0,.643,1.719,2.11,2.11,0,0,0,1.531.6,2.015,2.015,0,0,0,1.114-.321,2.085,2.085,0,0,0,.766-.889l1.066.226A3.031,3.031,0,0,1,85.807,13.6a3.133,3.133,0,0,1-1.784.526,3.246,3.246,0,0,1-2.42-.937,3.484,3.484,0,0,1-.923-2.557,3.467,3.467,0,0,1,.926-2.55,3.206,3.206,0,0,1,2.382-.937,3.034,3.034,0,0,1,2.259.861A3.4,3.4,0,0,1,87.1,10.507ZM83.988,8.06a2.1,2.1,0,0,0-1.4.475,2.177,2.177,0,0,0-.708,1.384h4.026a2,2,0,0,0-.588-1.384A1.9,1.9,0,0,0,83.988,8.06ZM89.56,5.7a.805.805,0,0,1-.8-.8A.758.758,0,0,1,89,4.341a.775.775,0,0,1,.564-.232.767.767,0,0,1,.557.232.758.758,0,0,1,.236.561.77.77,0,0,1-.236.564A.762.762,0,0,1,89.56,5.7ZM87.406,17.145v-1a1.923,1.923,0,0,0,.964-.191,1.048,1.048,0,0,0,.451-.656,5.527,5.527,0,0,0,.13-1.388V7.28h1.2V13.9a3.908,3.908,0,0,1-.622,2.509A2.654,2.654,0,0,1,87.406,17.145Zm11.033-6.638-.014.321h-5.25a2.374,2.374,0,0,0,.643,1.719,2.11,2.11,0,0,0,1.531.6,2.015,2.015,0,0,0,1.114-.321,2.085,2.085,0,0,0,.766-.889l1.066.226A3.031,3.031,0,0,1,97.147,13.6a3.133,3.133,0,0,1-1.784.526,3.246,3.246,0,0,1-2.42-.937,3.484,3.484,0,0,1-.923-2.557,3.467,3.467,0,0,1,.926-2.55,3.206,3.206,0,0,1,2.382-.937,3.034,3.034,0,0,1,2.259.861A3.4,3.4,0,0,1,98.439,10.507ZM95.329,8.06a2.1,2.1,0,0,0-1.4.475,2.177,2.177,0,0,0-.708,1.384H97.25a2,2,0,0,0-.588-1.384A1.9,1.9,0,0,0,95.329,8.06Zm7.752,6.063a3.237,3.237,0,0,1-2.406-.964,3.438,3.438,0,0,1-.95-2.522,3.445,3.445,0,0,1,.947-2.522,3.5,3.5,0,0,1,4.354-.376,2.967,2.967,0,0,1,1.131,1.634l-1.107.178a2.045,2.045,0,0,0-.759-1.046,2.066,2.066,0,0,0-1.217-.369,1.987,1.987,0,0,0-1.555.69,2.63,2.63,0,0,0-.612,1.812,2.617,2.617,0,0,0,.612,1.808,1.991,1.991,0,0,0,1.555.687,2.066,2.066,0,0,0,1.217-.369,2.045,2.045,0,0,0,.759-1.046l1.107.185a2.97,2.97,0,0,1-1.138,1.63A3.255,3.255,0,0,1,103.081,14.123Zm9-6.843h1.183V14h-1.135l-.027-.889a2.1,2.1,0,0,1-.834.755,2.565,2.565,0,0,1-1.176.263,2.337,2.337,0,0,1-1.692-.608,2.269,2.269,0,0,1-.632-1.716V7.28h1.183v4.259a1.6,1.6,0,0,0,.414,1.2,1.464,1.464,0,0,0,1.056.4,1.608,1.608,0,0,0,1.193-.465,1.893,1.893,0,0,0,.468-1.374ZM117.819,14a1.766,1.766,0,0,1-1.312-.482,1.823,1.823,0,0,1-.479-1.343V8.224h-1.374V7.28h.506a.971.971,0,0,0,.742-.236,1.161,1.161,0,0,0,.215-.79V5.038h1.1V7.28h1.545v.943h-1.545v3.828a1.019,1.019,0,0,0,.256.742.9.9,0,0,0,.673.263h.615V14Zm3.254-8.3a.805.805,0,0,1-.8-.8.758.758,0,0,1,.236-.561.775.775,0,0,1,.564-.232.767.767,0,0,1,.557.232.758.758,0,0,1,.236.561.77.77,0,0,1-.236.564A.762.762,0,0,1,121.073,5.7Zm-.6,8.3V7.28h1.189V14Zm7.786-6.72h1.265L126.788,14h-1l-2.721-6.72h1.258l1.969,5.346Zm5.229,6.85a3.542,3.542,0,0,1-1.723-.417,3.036,3.036,0,0,1-1.213-1.22,3.748,3.748,0,0,1-.448-1.856,3.423,3.423,0,0,1,.954-2.533,3.578,3.578,0,0,1,4.864,0,3.43,3.43,0,0,1,.95,2.533,3.432,3.432,0,0,1-.954,2.54A3.292,3.292,0,0,1,133.487,14.13Zm-.007-.984a2.064,2.064,0,0,0,1.589-.69,2.587,2.587,0,0,0,.632-1.818,2.577,2.577,0,0,0-.632-1.812,2.064,2.064,0,0,0-1.589-.69,2.035,2.035,0,0,0-1.576.69,2.594,2.594,0,0,0-.625,1.812,2.6,2.6,0,0,0,.625,1.818A2.035,2.035,0,0,0,133.48,13.146Z" transform="translate(665 4988)" fill="#fff"/>
    <line id="Línea_266" data-name="Línea 266" x2="405" transform="translate(544.5 5038.5)" fill="none" stroke="#8d85ac" stroke-width="2"/>
    <line id="Línea_270" data-name="Línea 270" x2="270" transform="translate(679.5 5224.5)" fill="none" stroke="#8d85ac" stroke-width="2"/>
    <g transform="matrix(1, 0, 0, 1, 473, 4974)" filter="url(#Rectángulo_25861)">
      <g id="Rectángulo_25861-2" data-name="Rectángulo 25861" transform="translate(9 94)" fill="#fff" stroke="#8d85ac" stroke-width="1">
        <rect width="125" height="49" rx="7" stroke="none"/>
        <rect x="0.5" y="0.5" width="124" height="48" rx="6.5" fill="none"/>
      </g>
    </g>
    <g transform="matrix(1, 0, 0, 1, 473, 4974)" filter="url(#Rectángulo_25862)">
      <g id="Rectángulo_25862-2" data-name="Rectángulo 25862" transform="translate(144 94)" fill="#fff" stroke="#8d85ac" stroke-width="1">
        <rect width="125" height="49" rx="7" stroke="none"/>
        <rect x="0.5" y="0.5" width="124" height="48" rx="6.5" fill="none"/>
      </g>
    </g>
    <g transform="matrix(1, 0, 0, 1, 473, 4974)" filter="url(#Rectángulo_25863)">
      <g id="Rectángulo_25863-2" data-name="Rectángulo 25863" transform="translate(279 94)" fill="#fff" stroke="#8d85ac" stroke-width="1">
        <rect width="125" height="49" rx="7" stroke="none"/>
        <rect x="0.5" y="0.5" width="124" height="48" rx="6.5" fill="none"/>
      </g>
    </g>
    <g transform="matrix(1, 0, 0, 1, 473, 4974)" filter="url(#Rectángulo_25865)">
      <g id="Rectángulo_25865-2" data-name="Rectángulo 25865" transform="translate(279 170)" fill="#fff" stroke="#8d85ac" stroke-width="1">
        <rect width="125" height="49" rx="7" stroke="none"/>
        <rect x="0.5" y="0.5" width="124" height="48" rx="6.5" fill="none"/>
      </g>
    </g>
    <g transform="matrix(1, 0, 0, 1, 473, 4974)" filter="url(#Rectángulo_25864)">
      <g id="Rectángulo_25864-2" data-name="Rectángulo 25864" transform="translate(414 94)" fill="#fff" stroke="#8d85ac" stroke-width="1">
        <rect width="125" height="49" rx="7" stroke="none"/>
        <rect x="0.5" y="0.5" width="124" height="48" rx="6.5" fill="none"/>
      </g>
    </g>
    <path id="Trazado_67286" data-name="Trazado 67286" d="M33.314,13V4.063H36.2a4.274,4.274,0,0,1,2.276.578,3.524,3.524,0,0,1,1.4,1.571,5.519,5.519,0,0,1,.454,2.314,5.854,5.854,0,0,1-.263,1.806,4.091,4.091,0,0,1-.771,1.412,3.383,3.383,0,0,1-1.3.927A4.616,4.616,0,0,1,36.2,13Zm1.136-1.035h1.708a2.722,2.722,0,0,0,2.231-.914,3.864,3.864,0,0,0,.752-2.526,3.832,3.832,0,0,0-.755-2.514A2.724,2.724,0,0,0,36.158,5.1H34.451ZM42.8,5.294a.748.748,0,0,1-.743-.743.7.7,0,0,1,.219-.521.72.72,0,0,1,.524-.216.713.713,0,0,1,.517.216.7.7,0,0,1,.219.521.715.715,0,0,1-.219.524A.707.707,0,0,1,42.8,5.294ZM42.246,13V6.76h1.1V13Zm4.412-5.142a1.886,1.886,0,0,1,.774-.838,2.332,2.332,0,0,1,1.2-.33V7.725a2.056,2.056,0,0,0-1.45.463,1.936,1.936,0,0,0-.5,1.479V13h-1.1V6.76h1.073Zm8.646,1.9-.013.3H50.415a2.2,2.2,0,0,0,.6,1.6,1.959,1.959,0,0,0,1.422.555,1.871,1.871,0,0,0,1.035-.3,1.936,1.936,0,0,0,.711-.825l.99.209A2.815,2.815,0,0,1,54.1,12.632a2.909,2.909,0,0,1-1.657.489,3.014,3.014,0,0,1-2.247-.87,3.235,3.235,0,0,1-.857-2.374,3.219,3.219,0,0,1,.86-2.368,2.977,2.977,0,0,1,2.212-.87,2.817,2.817,0,0,1,2.1.8A3.16,3.16,0,0,1,55.3,9.756ZM52.415,7.484a1.946,1.946,0,0,0-1.3.441,2.021,2.021,0,0,0-.657,1.285H54.2a1.854,1.854,0,0,0-.546-1.285A1.763,1.763,0,0,0,52.415,7.484Zm7.2,5.63a3.005,3.005,0,0,1-2.234-.9A3.193,3.193,0,0,1,56.5,9.877a3.2,3.2,0,0,1,.879-2.342,3.251,3.251,0,0,1,4.043-.349A2.755,2.755,0,0,1,62.469,8.7l-1.028.165a1.9,1.9,0,0,0-.7-.971,1.918,1.918,0,0,0-1.13-.343,1.845,1.845,0,0,0-1.444.641,2.442,2.442,0,0,0-.568,1.682,2.43,2.43,0,0,0,.568,1.679,1.849,1.849,0,0,0,1.444.638,1.918,1.918,0,0,0,1.13-.343,1.9,1.9,0,0,0,.7-.971l1.028.171a2.758,2.758,0,0,1-1.057,1.514A3.023,3.023,0,0,1,59.613,13.114Zm7.065,0a3.005,3.005,0,0,1-2.234-.9,3.193,3.193,0,0,1-.882-2.342,3.2,3.2,0,0,1,.879-2.342,3.251,3.251,0,0,1,4.043-.349A2.755,2.755,0,0,1,69.534,8.7l-1.028.165a1.9,1.9,0,0,0-.7-.971,1.918,1.918,0,0,0-1.13-.343,1.845,1.845,0,0,0-1.444.641,2.442,2.442,0,0,0-.568,1.682,2.43,2.43,0,0,0,.568,1.679,1.849,1.849,0,0,0,1.444.638,1.918,1.918,0,0,0,1.13-.343,1.9,1.9,0,0,0,.7-.971l1.028.171a2.758,2.758,0,0,1-1.057,1.514A3.023,3.023,0,0,1,66.678,13.114Zm5.034-7.82a.748.748,0,0,1-.743-.743.7.7,0,0,1,.219-.521.72.72,0,0,1,.524-.216.713.713,0,0,1,.517.216.7.7,0,0,1,.219.521.715.715,0,0,1-.219.524A.707.707,0,0,1,71.711,5.294ZM71.153,13V6.76h1.1V13ZM76.7,5.688l1.593-2.069.584.425L77.456,5.688Zm.419,7.433a3.289,3.289,0,0,1-1.6-.387A2.819,2.819,0,0,1,74.393,11.6a3.48,3.48,0,0,1-.416-1.723,3.179,3.179,0,0,1,.885-2.352,3.322,3.322,0,0,1,4.516,0,3.185,3.185,0,0,1,.882,2.352,3.187,3.187,0,0,1-.885,2.358A3.057,3.057,0,0,1,77.12,13.121Zm-.006-.914a1.917,1.917,0,0,0,1.476-.641,2.4,2.4,0,0,0,.587-1.688,2.393,2.393,0,0,0-.587-1.682,1.917,1.917,0,0,0-1.476-.641,1.89,1.89,0,0,0-1.463.641,2.409,2.409,0,0,0-.581,1.682,2.418,2.418,0,0,0,.581,1.688A1.89,1.89,0,0,0,77.113,12.207ZM84.927,6.64A2.171,2.171,0,0,1,86.5,7.2,2.107,2.107,0,0,1,87.085,8.8V13h-1.1V9.045a1.475,1.475,0,0,0-.381-1.117,1.362,1.362,0,0,0-.978-.362,1.51,1.51,0,0,0-1.111.428,1.739,1.739,0,0,0-.438,1.273V13h-1.1V6.76h1.1v.8A2.084,2.084,0,0,1,84.927,6.64ZM38.221,19.25h1.1V29h-1.06l-.025-1.212a2.3,2.3,0,0,1-.889.984,2.476,2.476,0,0,1-1.32.362,2.836,2.836,0,0,1-2.06-.879,3,3,0,0,1-.628-1.031,3.773,3.773,0,0,1-.232-1.339,3.281,3.281,0,0,1,.847-2.342,2.736,2.736,0,0,1,2.073-.9,2.487,2.487,0,0,1,1.3.352,2.309,2.309,0,0,1,.892.955Zm-1.968,8.931a1.869,1.869,0,0,0,1.45-.657,2.577,2.577,0,0,0,0-3.279,1.868,1.868,0,0,0-1.447-.66,1.91,1.91,0,0,0-1.46.638,2.629,2.629,0,0,0,0,3.32A1.91,1.91,0,0,0,36.253,28.181Zm10.759-2.425-.013.3H42.125a2.2,2.2,0,0,0,.6,1.6,1.959,1.959,0,0,0,1.422.555,1.871,1.871,0,0,0,1.035-.3,1.936,1.936,0,0,0,.711-.825l.99.209a2.815,2.815,0,0,1-1.066,1.339,2.909,2.909,0,0,1-1.657.489,3.014,3.014,0,0,1-2.247-.87,3.235,3.235,0,0,1-.857-2.374,3.219,3.219,0,0,1,.86-2.368,2.977,2.977,0,0,1,2.212-.87,2.817,2.817,0,0,1,2.1.8A3.16,3.16,0,0,1,47.013,25.756Zm-2.888-2.272a1.946,1.946,0,0,0-1.3.441,2.021,2.021,0,0,0-.657,1.285h3.739a1.854,1.854,0,0,0-.546-1.285A1.763,1.763,0,0,0,44.125,23.484ZM55.4,22.64a2.838,2.838,0,0,1,1.13.229,2.779,2.779,0,0,1,.927.641,3,3,0,0,1,.625,1.028,3.792,3.792,0,0,1,.232,1.346,3.3,3.3,0,0,1-.841,2.355,2.732,2.732,0,0,1-2.073.9,2.47,2.47,0,0,1-1.3-.355,2.33,2.33,0,0,1-.892-.958v4.323h-1.1V22.76h1.06l.025,1.212A2.284,2.284,0,0,1,54.084,23,2.493,2.493,0,0,1,55.4,22.64Zm-.216,5.542a1.9,1.9,0,0,0,1.444-.632,2.653,2.653,0,0,0,0-3.329,1.969,1.969,0,0,0-2.91.029,2.546,2.546,0,0,0,0,3.275A1.9,1.9,0,0,0,55.188,28.181ZM60.051,29V19.25h1.111V29Zm4.786.121a2.123,2.123,0,0,1-1.368-.428,1.539,1.539,0,0,1-.536-1.279A1.818,1.818,0,0,1,63.1,26.6a1.438,1.438,0,0,1,.508-.568,3.046,3.046,0,0,1,.733-.352,6.777,6.777,0,0,1,.949-.225l1.009-.165q.552-.1.552-.578a1.09,1.09,0,0,0-.39-.93,1.591,1.591,0,0,0-.987-.3,1.62,1.62,0,0,0-.978.286,1.2,1.2,0,0,0-.463.876l-.99-.209a1.906,1.906,0,0,1,.781-1.336,2.917,2.917,0,0,1,1.7-.448,3.45,3.45,0,0,1,.9.111,2.458,2.458,0,0,1,.755.349,1.566,1.566,0,0,1,.54.673,2.5,2.5,0,0,1,.194,1.025v2.577a1.054,1.054,0,0,0,.143.651.617.617,0,0,0,.492.168h.1V29h-.546a1.041,1.041,0,0,1-1.181-.844h-.051A2.385,2.385,0,0,1,64.837,29.121Zm.254-.889a1.665,1.665,0,0,0,1.339-.6,2.483,2.483,0,0,0,.508-1.65l-1.65.317a2.222,2.222,0,0,0-.968.346.8.8,0,0,0-.314.682.8.8,0,0,0,.3.686A1.289,1.289,0,0,0,65.091,28.232Zm8.062-5.592a2.171,2.171,0,0,1,1.571.565,2.107,2.107,0,0,1,.587,1.593V29h-1.1V25.045a1.475,1.475,0,0,0-.381-1.117,1.362,1.362,0,0,0-.978-.362,1.51,1.51,0,0,0-1.111.428,1.739,1.739,0,0,0-.438,1.273V29h-1.1V22.76h1.1v.8A2.084,2.084,0,0,1,73.152,22.64ZM79.424,29a1.64,1.64,0,0,1-1.219-.448,1.693,1.693,0,0,1-.444-1.247V23.636H76.485V22.76h.47a.9.9,0,0,0,.689-.219,1.078,1.078,0,0,0,.2-.733v-1.13h1.022V22.76H80.3v.876H78.865v3.555a.946.946,0,0,0,.238.689.833.833,0,0,0,.625.244H80.3V29Zm3.828.121a2.123,2.123,0,0,1-1.368-.428,1.539,1.539,0,0,1-.536-1.279,1.818,1.818,0,0,1,.171-.816,1.438,1.438,0,0,1,.508-.568,3.046,3.046,0,0,1,.733-.352,6.777,6.777,0,0,1,.949-.225l1.009-.165q.552-.1.552-.578a1.09,1.09,0,0,0-.39-.93,1.591,1.591,0,0,0-.987-.3,1.62,1.62,0,0,0-.978.286,1.2,1.2,0,0,0-.463.876l-.99-.209a1.906,1.906,0,0,1,.781-1.336,2.917,2.917,0,0,1,1.7-.448,3.45,3.45,0,0,1,.9.111,2.458,2.458,0,0,1,.755.349,1.566,1.566,0,0,1,.54.673,2.5,2.5,0,0,1,.194,1.025v2.577a1.054,1.054,0,0,0,.143.651.617.617,0,0,0,.492.168h.1V29h-.546a1.041,1.041,0,0,1-1.181-.844H85.3A2.385,2.385,0,0,1,83.251,29.121Zm.254-.889a1.665,1.665,0,0,0,1.339-.6,2.483,2.483,0,0,0,.508-1.65L83.7,26.3a2.222,2.222,0,0,0-.968.346.8.8,0,0,0-.314.682.8.8,0,0,0,.3.686A1.289,1.289,0,0,0,83.505,28.232Z" transform="translate(485 5076)" fill="#767676"/>
    <path id="Trazado_67287" data-name="Trazado 67287" d="M33.314,13V4.063H36.2a4.274,4.274,0,0,1,2.276.578,3.524,3.524,0,0,1,1.4,1.571,5.519,5.519,0,0,1,.454,2.314,5.854,5.854,0,0,1-.263,1.806,4.091,4.091,0,0,1-.771,1.412,3.383,3.383,0,0,1-1.3.927A4.616,4.616,0,0,1,36.2,13Zm1.136-1.035h1.708a2.722,2.722,0,0,0,2.231-.914,3.864,3.864,0,0,0,.752-2.526,3.832,3.832,0,0,0-.755-2.514A2.724,2.724,0,0,0,36.158,5.1H34.451ZM42.8,5.294a.748.748,0,0,1-.743-.743.7.7,0,0,1,.219-.521.72.72,0,0,1,.524-.216.713.713,0,0,1,.517.216.7.7,0,0,1,.219.521.715.715,0,0,1-.219.524A.707.707,0,0,1,42.8,5.294ZM42.246,13V6.76h1.1V13Zm4.412-5.142a1.886,1.886,0,0,1,.774-.838,2.332,2.332,0,0,1,1.2-.33V7.725a2.056,2.056,0,0,0-1.45.463,1.936,1.936,0,0,0-.5,1.479V13h-1.1V6.76h1.073Zm8.646,1.9-.013.3H50.415a2.2,2.2,0,0,0,.6,1.6,1.959,1.959,0,0,0,1.422.555,1.871,1.871,0,0,0,1.035-.3,1.936,1.936,0,0,0,.711-.825l.99.209A2.815,2.815,0,0,1,54.1,12.632a2.909,2.909,0,0,1-1.657.489,3.014,3.014,0,0,1-2.247-.87,3.235,3.235,0,0,1-.857-2.374,3.219,3.219,0,0,1,.86-2.368,2.977,2.977,0,0,1,2.212-.87,2.817,2.817,0,0,1,2.1.8A3.16,3.16,0,0,1,55.3,9.756ZM52.415,7.484a1.946,1.946,0,0,0-1.3.441,2.021,2.021,0,0,0-.657,1.285H54.2a1.854,1.854,0,0,0-.546-1.285A1.763,1.763,0,0,0,52.415,7.484Zm7.2,5.63a3.005,3.005,0,0,1-2.234-.9A3.193,3.193,0,0,1,56.5,9.877a3.2,3.2,0,0,1,.879-2.342,3.251,3.251,0,0,1,4.043-.349A2.755,2.755,0,0,1,62.469,8.7l-1.028.165a1.9,1.9,0,0,0-.7-.971,1.918,1.918,0,0,0-1.13-.343,1.845,1.845,0,0,0-1.444.641,2.442,2.442,0,0,0-.568,1.682,2.43,2.43,0,0,0,.568,1.679,1.849,1.849,0,0,0,1.444.638,1.918,1.918,0,0,0,1.13-.343,1.9,1.9,0,0,0,.7-.971l1.028.171a2.758,2.758,0,0,1-1.057,1.514A3.023,3.023,0,0,1,59.613,13.114Zm7.065,0a3.005,3.005,0,0,1-2.234-.9,3.193,3.193,0,0,1-.882-2.342,3.2,3.2,0,0,1,.879-2.342,3.251,3.251,0,0,1,4.043-.349A2.755,2.755,0,0,1,69.534,8.7l-1.028.165a1.9,1.9,0,0,0-.7-.971,1.918,1.918,0,0,0-1.13-.343,1.845,1.845,0,0,0-1.444.641,2.442,2.442,0,0,0-.568,1.682,2.43,2.43,0,0,0,.568,1.679,1.849,1.849,0,0,0,1.444.638,1.918,1.918,0,0,0,1.13-.343,1.9,1.9,0,0,0,.7-.971l1.028.171a2.758,2.758,0,0,1-1.057,1.514A3.023,3.023,0,0,1,66.678,13.114Zm5.034-7.82a.748.748,0,0,1-.743-.743.7.7,0,0,1,.219-.521.72.72,0,0,1,.524-.216.713.713,0,0,1,.517.216.7.7,0,0,1,.219.521.715.715,0,0,1-.219.524A.707.707,0,0,1,71.711,5.294ZM71.153,13V6.76h1.1V13ZM76.7,5.688l1.593-2.069.584.425L77.456,5.688Zm.419,7.433a3.289,3.289,0,0,1-1.6-.387A2.819,2.819,0,0,1,74.393,11.6a3.48,3.48,0,0,1-.416-1.723,3.179,3.179,0,0,1,.885-2.352,3.322,3.322,0,0,1,4.516,0,3.185,3.185,0,0,1,.882,2.352,3.187,3.187,0,0,1-.885,2.358A3.057,3.057,0,0,1,77.12,13.121Zm-.006-.914a1.917,1.917,0,0,0,1.476-.641,2.4,2.4,0,0,0,.587-1.688,2.393,2.393,0,0,0-.587-1.682,1.917,1.917,0,0,0-1.476-.641,1.89,1.89,0,0,0-1.463.641,2.409,2.409,0,0,0-.581,1.682,2.418,2.418,0,0,0,.581,1.688A1.89,1.89,0,0,0,77.113,12.207ZM84.927,6.64A2.171,2.171,0,0,1,86.5,7.2,2.107,2.107,0,0,1,87.085,8.8V13h-1.1V9.045a1.475,1.475,0,0,0-.381-1.117,1.362,1.362,0,0,0-.978-.362,1.51,1.51,0,0,0-1.111.428,1.739,1.739,0,0,0-.438,1.273V13h-1.1V6.76h1.1v.8A2.084,2.084,0,0,1,84.927,6.64ZM37.621,19.25h1.1V29h-1.06l-.025-1.212a2.3,2.3,0,0,1-.889.984,2.476,2.476,0,0,1-1.32.362,2.836,2.836,0,0,1-2.06-.879,3,3,0,0,1-.628-1.031,3.773,3.773,0,0,1-.232-1.339,3.281,3.281,0,0,1,.847-2.342,2.736,2.736,0,0,1,2.073-.9,2.487,2.487,0,0,1,1.3.352,2.309,2.309,0,0,1,.892.955Zm-1.968,8.931a1.869,1.869,0,0,0,1.45-.657,2.577,2.577,0,0,0,0-3.279,1.868,1.868,0,0,0-1.447-.66,1.91,1.91,0,0,0-1.46.638,2.629,2.629,0,0,0,0,3.32A1.91,1.91,0,0,0,35.654,28.181Zm10.759-2.425-.013.3H41.525a2.2,2.2,0,0,0,.6,1.6,1.959,1.959,0,0,0,1.422.555,1.871,1.871,0,0,0,1.035-.3,1.936,1.936,0,0,0,.711-.825l.99.209a2.815,2.815,0,0,1-1.066,1.339,2.909,2.909,0,0,1-1.657.489,3.014,3.014,0,0,1-2.247-.87,3.235,3.235,0,0,1-.857-2.374,3.219,3.219,0,0,1,.86-2.368,2.977,2.977,0,0,1,2.212-.87,2.817,2.817,0,0,1,2.1.8A3.16,3.16,0,0,1,46.413,25.756Zm-2.888-2.272a1.946,1.946,0,0,0-1.3.441,2.021,2.021,0,0,0-.657,1.285h3.739a1.854,1.854,0,0,0-.546-1.285A1.763,1.763,0,0,0,43.525,23.484ZM55.4,22.76h1.174L54.036,29H53.1l-2.526-6.24h1.168l1.828,4.964Zm7.687,3-.013.3H58.2a2.2,2.2,0,0,0,.6,1.6,1.959,1.959,0,0,0,1.422.555,1.871,1.871,0,0,0,1.035-.3,1.936,1.936,0,0,0,.711-.825l.99.209a2.815,2.815,0,0,1-1.066,1.339,2.909,2.909,0,0,1-1.657.489,3.014,3.014,0,0,1-2.247-.87,3.235,3.235,0,0,1-.857-2.374,3.219,3.219,0,0,1,.86-2.368,2.977,2.977,0,0,1,2.212-.87,2.817,2.817,0,0,1,2.1.8A3.16,3.16,0,0,1,63.088,25.756ZM60.2,23.484a1.946,1.946,0,0,0-1.3.441,2.021,2.021,0,0,0-.657,1.285h3.739a1.854,1.854,0,0,0-.546-1.285A1.763,1.763,0,0,0,60.2,23.484Zm7.554-.844a2.171,2.171,0,0,1,1.571.565,2.107,2.107,0,0,1,.587,1.593V29h-1.1V25.045a1.475,1.475,0,0,0-.381-1.117,1.362,1.362,0,0,0-.978-.362,1.51,1.51,0,0,0-1.111.428,1.739,1.739,0,0,0-.438,1.273V29h-1.1V22.76h1.1v.8A2.084,2.084,0,0,1,67.754,22.64ZM74.025,29a1.64,1.64,0,0,1-1.219-.448,1.693,1.693,0,0,1-.444-1.247V23.636H71.086V22.76h.47a.9.9,0,0,0,.689-.219,1.078,1.078,0,0,0,.2-.733v-1.13h1.022V22.76H74.9v.876H73.467v3.555a.946.946,0,0,0,.238.689.833.833,0,0,0,.625.244H74.9V29Zm3.828.121a2.123,2.123,0,0,1-1.368-.428,1.539,1.539,0,0,1-.536-1.279,1.818,1.818,0,0,1,.171-.816,1.438,1.438,0,0,1,.508-.568,3.046,3.046,0,0,1,.733-.352,6.777,6.777,0,0,1,.949-.225l1.009-.165q.552-.1.552-.578a1.09,1.09,0,0,0-.39-.93,1.591,1.591,0,0,0-.987-.3,1.62,1.62,0,0,0-.978.286,1.2,1.2,0,0,0-.463.876l-.99-.209a1.906,1.906,0,0,1,.781-1.336,2.917,2.917,0,0,1,1.7-.448,3.45,3.45,0,0,1,.9.111,2.458,2.458,0,0,1,.755.349,1.566,1.566,0,0,1,.54.673,2.5,2.5,0,0,1,.194,1.025v2.577a1.054,1.054,0,0,0,.143.651.617.617,0,0,0,.492.168h.1V29h-.546a1.041,1.041,0,0,1-1.181-.844H79.9A2.385,2.385,0,0,1,77.853,29.121Zm.254-.889a1.665,1.665,0,0,0,1.339-.6,2.483,2.483,0,0,0,.508-1.65L78.3,26.3a2.222,2.222,0,0,0-.968.346.8.8,0,0,0-.314.682.8.8,0,0,0,.3.686A1.289,1.289,0,0,0,78.107,28.232Zm7.09.889a2.958,2.958,0,0,1-1.682-.451,1.864,1.864,0,0,1-.819-1.282l.958-.273a1.337,1.337,0,0,0,.511.866,1.658,1.658,0,0,0,1.025.308,2.046,2.046,0,0,0,.6-.083.962.962,0,0,0,.46-.308.859.859,0,0,0,.133-.825,1.1,1.1,0,0,0-.1-.206A.629.629,0,0,0,86.1,26.7a2.344,2.344,0,0,0-.216-.133,2.215,2.215,0,0,0-.282-.117q-.187-.067-.3-.1t-.349-.1l-.362-.1a6.769,6.769,0,0,1-.647-.229,2.84,2.84,0,0,1-.527-.3,1.213,1.213,0,0,1-.409-.492,1.665,1.665,0,0,1-.136-.7,1.614,1.614,0,0,1,.3-1,1.714,1.714,0,0,1,.79-.587,3.159,3.159,0,0,1,1.108-.181,2.711,2.711,0,0,1,1.52.406,1.734,1.734,0,0,1,.759,1.219l-.9.229a1.2,1.2,0,0,0-.476-.79,1.516,1.516,0,0,0-.9-.263,1.545,1.545,0,0,0-.838.219.736.736,0,0,0-.349.67.666.666,0,0,0,.092.346,1.1,1.1,0,0,0,.187.244,1.151,1.151,0,0,0,.343.187q.248.1.368.133t.457.117q.063.019.1.025.368.1.6.168a3.687,3.687,0,0,1,.54.229,1.794,1.794,0,0,1,.486.34,1.573,1.573,0,0,1,.3.482,1.7,1.7,0,0,1,.127.673,1.817,1.817,0,0,1-.187.841,1.465,1.465,0,0,1-.511.574,2.471,2.471,0,0,1-.727.314A3.463,3.463,0,0,1,85.2,29.121Z" transform="translate(620 5076)" fill="#767676"/>
    <path id="Trazado_67288" data-name="Trazado 67288" d="M33.314,13V4.063H36.2a4.274,4.274,0,0,1,2.276.578,3.524,3.524,0,0,1,1.4,1.571,5.519,5.519,0,0,1,.454,2.314,5.854,5.854,0,0,1-.263,1.806,4.091,4.091,0,0,1-.771,1.412,3.383,3.383,0,0,1-1.3.927A4.616,4.616,0,0,1,36.2,13Zm1.136-1.035h1.708a2.722,2.722,0,0,0,2.231-.914,3.864,3.864,0,0,0,.752-2.526,3.832,3.832,0,0,0-.755-2.514A2.724,2.724,0,0,0,36.158,5.1H34.451ZM42.8,5.294a.748.748,0,0,1-.743-.743.7.7,0,0,1,.219-.521.72.72,0,0,1,.524-.216.713.713,0,0,1,.517.216.7.7,0,0,1,.219.521.715.715,0,0,1-.219.524A.707.707,0,0,1,42.8,5.294ZM42.246,13V6.76h1.1V13Zm4.412-5.142a1.886,1.886,0,0,1,.774-.838,2.332,2.332,0,0,1,1.2-.33V7.725a2.056,2.056,0,0,0-1.45.463,1.936,1.936,0,0,0-.5,1.479V13h-1.1V6.76h1.073Zm8.646,1.9-.013.3H50.415a2.2,2.2,0,0,0,.6,1.6,1.959,1.959,0,0,0,1.422.555,1.871,1.871,0,0,0,1.035-.3,1.936,1.936,0,0,0,.711-.825l.99.209A2.815,2.815,0,0,1,54.1,12.632a2.909,2.909,0,0,1-1.657.489,3.014,3.014,0,0,1-2.247-.87,3.235,3.235,0,0,1-.857-2.374,3.219,3.219,0,0,1,.86-2.368,2.977,2.977,0,0,1,2.212-.87,2.817,2.817,0,0,1,2.1.8A3.16,3.16,0,0,1,55.3,9.756ZM52.415,7.484a1.946,1.946,0,0,0-1.3.441,2.021,2.021,0,0,0-.657,1.285H54.2a1.854,1.854,0,0,0-.546-1.285A1.763,1.763,0,0,0,52.415,7.484Zm7.2,5.63a3.005,3.005,0,0,1-2.234-.9A3.193,3.193,0,0,1,56.5,9.877a3.2,3.2,0,0,1,.879-2.342,3.251,3.251,0,0,1,4.043-.349A2.755,2.755,0,0,1,62.469,8.7l-1.028.165a1.9,1.9,0,0,0-.7-.971,1.918,1.918,0,0,0-1.13-.343,1.845,1.845,0,0,0-1.444.641,2.442,2.442,0,0,0-.568,1.682,2.43,2.43,0,0,0,.568,1.679,1.849,1.849,0,0,0,1.444.638,1.918,1.918,0,0,0,1.13-.343,1.9,1.9,0,0,0,.7-.971l1.028.171a2.758,2.758,0,0,1-1.057,1.514A3.023,3.023,0,0,1,59.613,13.114Zm7.065,0a3.005,3.005,0,0,1-2.234-.9,3.193,3.193,0,0,1-.882-2.342,3.2,3.2,0,0,1,.879-2.342,3.251,3.251,0,0,1,4.043-.349A2.755,2.755,0,0,1,69.534,8.7l-1.028.165a1.9,1.9,0,0,0-.7-.971,1.918,1.918,0,0,0-1.13-.343,1.845,1.845,0,0,0-1.444.641,2.442,2.442,0,0,0-.568,1.682,2.43,2.43,0,0,0,.568,1.679,1.849,1.849,0,0,0,1.444.638,1.918,1.918,0,0,0,1.13-.343,1.9,1.9,0,0,0,.7-.971l1.028.171a2.758,2.758,0,0,1-1.057,1.514A3.023,3.023,0,0,1,66.678,13.114Zm5.034-7.82a.748.748,0,0,1-.743-.743.7.7,0,0,1,.219-.521.72.72,0,0,1,.524-.216.713.713,0,0,1,.517.216.7.7,0,0,1,.219.521.715.715,0,0,1-.219.524A.707.707,0,0,1,71.711,5.294ZM71.153,13V6.76h1.1V13ZM76.7,5.688l1.593-2.069.584.425L77.456,5.688Zm.419,7.433a3.289,3.289,0,0,1-1.6-.387A2.819,2.819,0,0,1,74.393,11.6a3.48,3.48,0,0,1-.416-1.723,3.179,3.179,0,0,1,.885-2.352,3.322,3.322,0,0,1,4.516,0,3.185,3.185,0,0,1,.882,2.352,3.187,3.187,0,0,1-.885,2.358A3.057,3.057,0,0,1,77.12,13.121Zm-.006-.914a1.917,1.917,0,0,0,1.476-.641,2.4,2.4,0,0,0,.587-1.688,2.393,2.393,0,0,0-.587-1.682,1.917,1.917,0,0,0-1.476-.641,1.89,1.89,0,0,0-1.463.641,2.409,2.409,0,0,0-.581,1.682,2.418,2.418,0,0,0,.581,1.688A1.89,1.89,0,0,0,77.113,12.207ZM84.927,6.64A2.171,2.171,0,0,1,86.5,7.2,2.107,2.107,0,0,1,87.085,8.8V13h-1.1V9.045a1.475,1.475,0,0,0-.381-1.117,1.362,1.362,0,0,0-.978-.362,1.51,1.51,0,0,0-1.111.428,1.739,1.739,0,0,0-.438,1.273V13h-1.1V6.76h1.1v.8A2.084,2.084,0,0,1,84.927,6.64ZM30.858,19.25h1.1V29H30.9l-.025-1.212a2.3,2.3,0,0,1-.889.984,2.476,2.476,0,0,1-1.32.362,2.836,2.836,0,0,1-2.06-.879,3,3,0,0,1-.628-1.031,3.773,3.773,0,0,1-.232-1.339,3.281,3.281,0,0,1,.847-2.342,2.736,2.736,0,0,1,2.073-.9,2.487,2.487,0,0,1,1.3.352,2.309,2.309,0,0,1,.892.955ZM28.89,28.181a1.869,1.869,0,0,0,1.45-.657,2.577,2.577,0,0,0,0-3.279,1.868,1.868,0,0,0-1.447-.66,1.91,1.91,0,0,0-1.46.638,2.629,2.629,0,0,0,0,3.32A1.91,1.91,0,0,0,28.89,28.181Zm10.759-2.425-.013.3H34.762a2.2,2.2,0,0,0,.6,1.6,1.959,1.959,0,0,0,1.422.555,1.871,1.871,0,0,0,1.035-.3,1.936,1.936,0,0,0,.711-.825l.99.209a2.815,2.815,0,0,1-1.066,1.339,2.909,2.909,0,0,1-1.657.489,3.014,3.014,0,0,1-2.247-.87,3.235,3.235,0,0,1-.857-2.374,3.219,3.219,0,0,1,.86-2.368,2.977,2.977,0,0,1,2.212-.87,2.817,2.817,0,0,1,2.1.8A3.16,3.16,0,0,1,39.649,25.756Zm-2.888-2.272a1.946,1.946,0,0,0-1.3.441,2.021,2.021,0,0,0-.657,1.285h3.739A1.854,1.854,0,0,0,38,23.925,1.763,1.763,0,0,0,36.761,23.484Zm9.959,5.637a2.958,2.958,0,0,1-1.682-.451,1.864,1.864,0,0,1-.819-1.282l.958-.273a1.337,1.337,0,0,0,.511.866,1.658,1.658,0,0,0,1.025.308,2.046,2.046,0,0,0,.6-.083.962.962,0,0,0,.46-.308.859.859,0,0,0,.133-.825,1.1,1.1,0,0,0-.1-.206.629.629,0,0,0-.178-.171,2.343,2.343,0,0,0-.216-.133,2.215,2.215,0,0,0-.282-.117q-.187-.067-.3-.1t-.349-.1l-.362-.1a6.769,6.769,0,0,1-.647-.229,2.84,2.84,0,0,1-.527-.3,1.213,1.213,0,0,1-.409-.492,1.664,1.664,0,0,1-.136-.7,1.614,1.614,0,0,1,.3-1,1.714,1.714,0,0,1,.79-.587,3.159,3.159,0,0,1,1.108-.181,2.711,2.711,0,0,1,1.52.406,1.734,1.734,0,0,1,.759,1.219l-.9.229a1.2,1.2,0,0,0-.476-.79,1.516,1.516,0,0,0-.9-.263,1.545,1.545,0,0,0-.838.219.736.736,0,0,0-.349.67.666.666,0,0,0,.092.346,1.1,1.1,0,0,0,.187.244,1.151,1.151,0,0,0,.343.187q.248.1.368.133t.457.117q.063.019.1.025.368.1.6.168a3.687,3.687,0,0,1,.54.229,1.794,1.794,0,0,1,.486.34,1.573,1.573,0,0,1,.3.482,1.7,1.7,0,0,1,.127.673,1.817,1.817,0,0,1-.187.841,1.465,1.465,0,0,1-.511.574,2.471,2.471,0,0,1-.727.314A3.463,3.463,0,0,1,46.721,29.121ZM56.2,25.756l-.013.3H51.316a2.2,2.2,0,0,0,.6,1.6,1.959,1.959,0,0,0,1.422.555,1.871,1.871,0,0,0,1.035-.3,1.936,1.936,0,0,0,.711-.825l.99.209A2.815,2.815,0,0,1,55,28.632a2.909,2.909,0,0,1-1.657.489,3.014,3.014,0,0,1-2.247-.87,3.235,3.235,0,0,1-.857-2.374,3.219,3.219,0,0,1,.86-2.368,2.977,2.977,0,0,1,2.212-.87,2.817,2.817,0,0,1,2.1.8A3.16,3.16,0,0,1,56.2,25.756Zm-2.888-2.272a1.946,1.946,0,0,0-1.3.441,2.021,2.021,0,0,0-.657,1.285H55.1a1.854,1.854,0,0,0-.546-1.285A1.763,1.763,0,0,0,53.316,23.484ZM59,23.858a1.886,1.886,0,0,1,.774-.838,2.332,2.332,0,0,1,1.2-.33v1.035a2.056,2.056,0,0,0-1.45.463,1.936,1.936,0,0,0-.5,1.479V29h-1.1V22.76H59Zm7.281-1.1h1.174L64.913,29H63.98l-2.526-6.24h1.168l1.828,4.964Zm3.034-1.466a.748.748,0,0,1-.743-.743.7.7,0,0,1,.219-.521.72.72,0,0,1,.524-.216.713.713,0,0,1,.517.216.7.7,0,0,1,.219.521.715.715,0,0,1-.219.524A.707.707,0,0,1,69.312,21.294ZM68.753,29V22.76h1.1V29Zm5.929.114a3.005,3.005,0,0,1-2.234-.9,3.193,3.193,0,0,1-.882-2.342,3.2,3.2,0,0,1,.879-2.342,3.251,3.251,0,0,1,4.043-.349A2.755,2.755,0,0,1,77.539,24.7l-1.028.165a1.9,1.9,0,0,0-.7-.971,1.918,1.918,0,0,0-1.13-.343,1.845,1.845,0,0,0-1.444.641,2.77,2.77,0,0,0,0,3.361,1.849,1.849,0,0,0,1.444.638,1.918,1.918,0,0,0,1.13-.343,1.9,1.9,0,0,0,.7-.971l1.028.171a2.758,2.758,0,0,1-1.057,1.514A3.023,3.023,0,0,1,74.682,29.114Zm5.034-7.82a.748.748,0,0,1-.743-.743.7.7,0,0,1,.219-.521.72.72,0,0,1,.524-.216.713.713,0,0,1,.517.216.7.7,0,0,1,.219.521.715.715,0,0,1-.219.524A.707.707,0,0,1,79.716,21.294ZM79.157,29V22.76h1.1V29Zm5.967.121a3.289,3.289,0,0,1-1.6-.387A2.819,2.819,0,0,1,82.4,27.6a3.48,3.48,0,0,1-.416-1.723,3.179,3.179,0,0,1,.885-2.352,3.322,3.322,0,0,1,4.516,0,3.185,3.185,0,0,1,.882,2.352,3.187,3.187,0,0,1-.885,2.358A3.057,3.057,0,0,1,85.124,29.121Zm-.006-.914a1.917,1.917,0,0,0,1.476-.641,2.712,2.712,0,0,0,0-3.371,1.917,1.917,0,0,0-1.476-.641,1.89,1.89,0,0,0-1.463.641,2.735,2.735,0,0,0,0,3.371A1.89,1.89,0,0,0,85.118,28.207Zm6.843.914a2.958,2.958,0,0,1-1.682-.451,1.864,1.864,0,0,1-.819-1.282l.958-.273a1.337,1.337,0,0,0,.511.866,1.658,1.658,0,0,0,1.025.308,2.046,2.046,0,0,0,.6-.083.962.962,0,0,0,.46-.308.859.859,0,0,0,.133-.825,1.1,1.1,0,0,0-.1-.206.629.629,0,0,0-.178-.171,2.344,2.344,0,0,0-.216-.133,2.215,2.215,0,0,0-.282-.117q-.187-.067-.3-.1t-.349-.1l-.362-.1a6.769,6.769,0,0,1-.647-.229,2.84,2.84,0,0,1-.527-.3,1.213,1.213,0,0,1-.409-.492,1.665,1.665,0,0,1-.136-.7,1.614,1.614,0,0,1,.3-1,1.714,1.714,0,0,1,.79-.587,3.159,3.159,0,0,1,1.108-.181,2.711,2.711,0,0,1,1.52.406,1.734,1.734,0,0,1,.759,1.219l-.9.229a1.2,1.2,0,0,0-.476-.79,1.516,1.516,0,0,0-.9-.263,1.545,1.545,0,0,0-.838.219.736.736,0,0,0-.349.67.666.666,0,0,0,.092.346,1.1,1.1,0,0,0,.187.244,1.151,1.151,0,0,0,.343.187q.248.1.368.133t.457.117q.063.019.1.025.368.1.6.168a3.687,3.687,0,0,1,.54.229,1.794,1.794,0,0,1,.486.34,1.573,1.573,0,0,1,.3.482,1.7,1.7,0,0,1,.127.673,1.817,1.817,0,0,1-.187.841,1.465,1.465,0,0,1-.511.574,2.471,2.471,0,0,1-.727.314A3.463,3.463,0,0,1,91.96,29.121Z" transform="translate(755 5076)" fill="#767676"/>
    <path id="Trazado_67291" data-name="Trazado 67291" d="M47.187,4.063h1.2L45.112,13H43.944L40.668,4.063h1.193l2.666,7.516ZM54.7,9.756l-.013.3H49.809a2.2,2.2,0,0,0,.6,1.6,1.959,1.959,0,0,0,1.422.555,1.871,1.871,0,0,0,1.035-.3,1.936,1.936,0,0,0,.711-.825l.99.209A2.815,2.815,0,0,1,53.5,12.632a2.909,2.909,0,0,1-1.657.489,3.014,3.014,0,0,1-2.247-.87,3.235,3.235,0,0,1-.857-2.374,3.219,3.219,0,0,1,.86-2.368,2.977,2.977,0,0,1,2.212-.87,2.817,2.817,0,0,1,2.1.8A3.16,3.16,0,0,1,54.7,9.756ZM51.808,7.484a1.946,1.946,0,0,0-1.3.441,2.021,2.021,0,0,0-.657,1.285h3.739a1.854,1.854,0,0,0-.546-1.285A1.763,1.763,0,0,0,51.808,7.484Zm7.554-.844a2.171,2.171,0,0,1,1.571.565A2.107,2.107,0,0,1,61.52,8.8V13h-1.1V9.045a1.475,1.475,0,0,0-.381-1.117,1.362,1.362,0,0,0-.978-.362,1.51,1.51,0,0,0-1.111.428,1.739,1.739,0,0,0-.438,1.273V13h-1.1V6.76h1.1v.8A2.084,2.084,0,0,1,59.362,6.64ZM65.634,13a1.64,1.64,0,0,1-1.219-.448,1.693,1.693,0,0,1-.444-1.247V7.636H62.695V6.76h.47a.9.9,0,0,0,.689-.219,1.078,1.078,0,0,0,.2-.733V4.678h1.022V6.76H66.51v.876H65.075v3.555a.946.946,0,0,0,.238.689.833.833,0,0,0,.625.244h.571V13Zm3.828.121a2.123,2.123,0,0,1-1.368-.428,1.539,1.539,0,0,1-.536-1.279,1.818,1.818,0,0,1,.171-.816,1.438,1.438,0,0,1,.508-.568,3.046,3.046,0,0,1,.733-.352,6.777,6.777,0,0,1,.949-.225l1.009-.165q.552-.1.552-.578a1.09,1.09,0,0,0-.39-.93,1.591,1.591,0,0,0-.987-.3,1.62,1.62,0,0,0-.978.286,1.2,1.2,0,0,0-.463.876l-.99-.209A1.906,1.906,0,0,1,68.452,7.1a2.917,2.917,0,0,1,1.7-.448,3.45,3.45,0,0,1,.9.111,2.458,2.458,0,0,1,.755.349,1.566,1.566,0,0,1,.54.673,2.5,2.5,0,0,1,.194,1.025v2.577a1.054,1.054,0,0,0,.143.651.617.617,0,0,0,.492.168h.1V13h-.546a1.041,1.041,0,0,1-1.181-.844h-.051A2.385,2.385,0,0,1,69.461,13.121Zm.254-.889a1.665,1.665,0,0,0,1.339-.6,2.483,2.483,0,0,0,.508-1.65l-1.65.317a2.222,2.222,0,0,0-.968.346.8.8,0,0,0-.314.682.8.8,0,0,0,.3.686A1.289,1.289,0,0,0,69.715,12.232Zm7.09.889a2.958,2.958,0,0,1-1.682-.451,1.864,1.864,0,0,1-.819-1.282l.958-.273a1.337,1.337,0,0,0,.511.866,1.658,1.658,0,0,0,1.025.308,2.046,2.046,0,0,0,.6-.083.962.962,0,0,0,.46-.308.859.859,0,0,0,.133-.825,1.1,1.1,0,0,0-.1-.206.629.629,0,0,0-.178-.171,2.344,2.344,0,0,0-.216-.133,2.215,2.215,0,0,0-.282-.117q-.187-.067-.3-.1t-.349-.1l-.362-.1a6.769,6.769,0,0,1-.647-.229,2.84,2.84,0,0,1-.527-.3,1.213,1.213,0,0,1-.409-.492,1.665,1.665,0,0,1-.136-.7,1.614,1.614,0,0,1,.3-1,1.714,1.714,0,0,1,.79-.587,3.159,3.159,0,0,1,1.108-.181,2.711,2.711,0,0,1,1.52.406,1.734,1.734,0,0,1,.759,1.219l-.9.229a1.2,1.2,0,0,0-.476-.79,1.516,1.516,0,0,0-.9-.263,1.545,1.545,0,0,0-.838.219.736.736,0,0,0-.349.67.666.666,0,0,0,.092.346,1.1,1.1,0,0,0,.187.244,1.151,1.151,0,0,0,.343.187q.248.1.368.133t.457.117q.063.019.1.025.368.1.6.168a3.687,3.687,0,0,1,.54.229,1.794,1.794,0,0,1,.486.34,1.573,1.573,0,0,1,.3.482,1.7,1.7,0,0,1,.127.673,1.817,1.817,0,0,1-.187.841,1.465,1.465,0,0,1-.511.574,2.471,2.471,0,0,1-.727.314A3.463,3.463,0,0,1,76.805,13.121ZM29.979,19.25h1.1V29h-1.06l-.025-1.212a2.3,2.3,0,0,1-.889.984,2.476,2.476,0,0,1-1.32.362,2.836,2.836,0,0,1-2.06-.879,3,3,0,0,1-.628-1.031,3.773,3.773,0,0,1-.232-1.339,3.281,3.281,0,0,1,.847-2.342,2.736,2.736,0,0,1,2.073-.9,2.487,2.487,0,0,1,1.3.352,2.309,2.309,0,0,1,.892.955Zm-1.968,8.931a1.869,1.869,0,0,0,1.45-.657,2.577,2.577,0,0,0,0-3.279,1.868,1.868,0,0,0-1.447-.66,1.91,1.91,0,0,0-1.46.638,2.629,2.629,0,0,0,0,3.32A1.91,1.91,0,0,0,28.011,28.181ZM38.77,25.756l-.013.3H33.883a2.2,2.2,0,0,0,.6,1.6,1.959,1.959,0,0,0,1.422.555,1.871,1.871,0,0,0,1.035-.3,1.936,1.936,0,0,0,.711-.825l.99.209a2.815,2.815,0,0,1-1.066,1.339,2.909,2.909,0,0,1-1.657.489,3.014,3.014,0,0,1-2.247-.87,3.235,3.235,0,0,1-.857-2.374,3.219,3.219,0,0,1,.86-2.368,2.977,2.977,0,0,1,2.212-.87,2.817,2.817,0,0,1,2.1.8A3.16,3.16,0,0,1,38.77,25.756Zm-2.888-2.272a1.946,1.946,0,0,0-1.3.441,2.021,2.021,0,0,0-.657,1.285h3.739a1.854,1.854,0,0,0-.546-1.285A1.763,1.763,0,0,0,35.882,23.484Zm10.575,5.63a3.005,3.005,0,0,1-2.234-.9,3.193,3.193,0,0,1-.882-2.342,3.2,3.2,0,0,1,.879-2.342,3.251,3.251,0,0,1,4.043-.349A2.755,2.755,0,0,1,49.314,24.7l-1.028.165a1.9,1.9,0,0,0-.7-.971,1.918,1.918,0,0,0-1.13-.343,1.845,1.845,0,0,0-1.444.641,2.77,2.77,0,0,0,0,3.361,1.849,1.849,0,0,0,1.444.638,1.918,1.918,0,0,0,1.13-.343,1.9,1.9,0,0,0,.7-.971l1.028.171a2.758,2.758,0,0,1-1.057,1.514A3.023,3.023,0,0,1,46.457,29.114Zm7.1.006a3.289,3.289,0,0,1-1.6-.387A2.819,2.819,0,0,1,50.834,27.6a3.48,3.48,0,0,1-.416-1.723,3.179,3.179,0,0,1,.885-2.352,3.322,3.322,0,0,1,4.516,0,3.185,3.185,0,0,1,.882,2.352,3.187,3.187,0,0,1-.885,2.358A3.057,3.057,0,0,1,53.56,29.121Zm-.006-.914a1.916,1.916,0,0,0,1.476-.641,2.712,2.712,0,0,0,0-3.371,1.916,1.916,0,0,0-1.476-.641,1.89,1.89,0,0,0-1.463.641,2.735,2.735,0,0,0,0,3.371A1.89,1.89,0,0,0,53.554,28.207Zm7.814-5.567a2.171,2.171,0,0,1,1.571.565,2.107,2.107,0,0,1,.587,1.593V29h-1.1V25.045a1.475,1.475,0,0,0-.381-1.117,1.362,1.362,0,0,0-.978-.362,1.51,1.51,0,0,0-1.111.428,1.739,1.739,0,0,0-.438,1.273V29h-1.1V22.76h1.1v.8A2.084,2.084,0,0,1,61.368,22.64Zm6.252,6.481a2.958,2.958,0,0,1-1.682-.451,1.864,1.864,0,0,1-.819-1.282l.958-.273a1.337,1.337,0,0,0,.511.866,1.658,1.658,0,0,0,1.025.308,2.046,2.046,0,0,0,.6-.083.962.962,0,0,0,.46-.308.859.859,0,0,0,.133-.825,1.1,1.1,0,0,0-.1-.206.629.629,0,0,0-.178-.171,2.344,2.344,0,0,0-.216-.133,2.215,2.215,0,0,0-.282-.117q-.187-.067-.3-.1t-.349-.1l-.362-.1a6.769,6.769,0,0,1-.647-.229,2.84,2.84,0,0,1-.527-.3,1.213,1.213,0,0,1-.409-.492,1.665,1.665,0,0,1-.136-.7,1.614,1.614,0,0,1,.3-1,1.714,1.714,0,0,1,.79-.587,3.159,3.159,0,0,1,1.108-.181,2.711,2.711,0,0,1,1.52.406,1.734,1.734,0,0,1,.759,1.219l-.9.229a1.2,1.2,0,0,0-.476-.79,1.516,1.516,0,0,0-.9-.263,1.545,1.545,0,0,0-.838.219.736.736,0,0,0-.349.67.666.666,0,0,0,.092.346,1.1,1.1,0,0,0,.187.244,1.151,1.151,0,0,0,.343.187q.248.1.368.133t.457.117q.063.019.1.025.368.1.6.168a3.687,3.687,0,0,1,.54.229,1.794,1.794,0,0,1,.486.34,1.573,1.573,0,0,1,.3.482,1.7,1.7,0,0,1,.127.673,1.817,1.817,0,0,1-.187.841,1.465,1.465,0,0,1-.511.574,2.471,2.471,0,0,1-.727.314A3.463,3.463,0,0,1,67.62,29.121Zm7.909-6.36h1.1V29H75.574l-.025-.825a1.948,1.948,0,0,1-.774.7,2.382,2.382,0,0,1-1.092.244,2.171,2.171,0,0,1-1.571-.565,2.107,2.107,0,0,1-.587-1.593v-4.2h1.1v3.955a1.481,1.481,0,0,0,.384,1.117,1.359,1.359,0,0,0,.981.368,1.493,1.493,0,0,0,1.108-.432,1.758,1.758,0,0,0,.435-1.276Zm9.712-.121a2.011,2.011,0,0,1,1.454.53,1.966,1.966,0,0,1,.552,1.489V29h-1.1V24.944a1.41,1.41,0,0,0-.343-1.028,1.167,1.167,0,0,0-.87-.349,1.232,1.232,0,0,0-.952.394,1.692,1.692,0,0,0-.362,1.181V29H82.506V24.988a1.475,1.475,0,0,0-.346-1.063,1.177,1.177,0,0,0-.885-.359,1.221,1.221,0,0,0-.949.4,1.751,1.751,0,0,0-.365,1.209V29h-1.1V22.76h1.1v.806a1.9,1.9,0,0,1,.714-.686,2.036,2.036,0,0,1,.993-.241,2.12,2.12,0,0,1,1.066.263,1.64,1.64,0,0,1,.692.759,1.942,1.942,0,0,1,.749-.759A2.142,2.142,0,0,1,85.241,22.64ZM92,29.121a3.289,3.289,0,0,1-1.6-.387A2.819,2.819,0,0,1,89.275,27.6a3.48,3.48,0,0,1-.416-1.723,3.179,3.179,0,0,1,.885-2.352,3.322,3.322,0,0,1,4.516,0,3.185,3.185,0,0,1,.882,2.352,3.187,3.187,0,0,1-.885,2.358A3.057,3.057,0,0,1,92,29.121ZM92,28.207a1.917,1.917,0,0,0,1.476-.641,2.712,2.712,0,0,0,0-3.371A1.917,1.917,0,0,0,92,23.554a1.89,1.89,0,0,0-1.463.641,2.735,2.735,0,0,0,0,3.371A1.89,1.89,0,0,0,92,28.207Z" transform="translate(755 5152)" fill="#767676"/>
    <path id="Trazado_67289" data-name="Trazado 67289" d="M33.314,13V4.063H36.2a4.274,4.274,0,0,1,2.276.578,3.524,3.524,0,0,1,1.4,1.571,5.519,5.519,0,0,1,.454,2.314,5.854,5.854,0,0,1-.263,1.806,4.091,4.091,0,0,1-.771,1.412,3.383,3.383,0,0,1-1.3.927A4.616,4.616,0,0,1,36.2,13Zm1.136-1.035h1.708a2.722,2.722,0,0,0,2.231-.914,3.864,3.864,0,0,0,.752-2.526,3.832,3.832,0,0,0-.755-2.514A2.724,2.724,0,0,0,36.158,5.1H34.451ZM42.8,5.294a.748.748,0,0,1-.743-.743.7.7,0,0,1,.219-.521.72.72,0,0,1,.524-.216.713.713,0,0,1,.517.216.7.7,0,0,1,.219.521.715.715,0,0,1-.219.524A.707.707,0,0,1,42.8,5.294ZM42.246,13V6.76h1.1V13Zm4.412-5.142a1.886,1.886,0,0,1,.774-.838,2.332,2.332,0,0,1,1.2-.33V7.725a2.056,2.056,0,0,0-1.45.463,1.936,1.936,0,0,0-.5,1.479V13h-1.1V6.76h1.073Zm8.646,1.9-.013.3H50.415a2.2,2.2,0,0,0,.6,1.6,1.959,1.959,0,0,0,1.422.555,1.871,1.871,0,0,0,1.035-.3,1.936,1.936,0,0,0,.711-.825l.99.209A2.815,2.815,0,0,1,54.1,12.632a2.909,2.909,0,0,1-1.657.489,3.014,3.014,0,0,1-2.247-.87,3.235,3.235,0,0,1-.857-2.374,3.219,3.219,0,0,1,.86-2.368,2.977,2.977,0,0,1,2.212-.87,2.817,2.817,0,0,1,2.1.8A3.16,3.16,0,0,1,55.3,9.756ZM52.415,7.484a1.946,1.946,0,0,0-1.3.441,2.021,2.021,0,0,0-.657,1.285H54.2a1.854,1.854,0,0,0-.546-1.285A1.763,1.763,0,0,0,52.415,7.484Zm7.2,5.63a3.005,3.005,0,0,1-2.234-.9A3.193,3.193,0,0,1,56.5,9.877a3.2,3.2,0,0,1,.879-2.342,3.251,3.251,0,0,1,4.043-.349A2.755,2.755,0,0,1,62.469,8.7l-1.028.165a1.9,1.9,0,0,0-.7-.971,1.918,1.918,0,0,0-1.13-.343,1.845,1.845,0,0,0-1.444.641,2.442,2.442,0,0,0-.568,1.682,2.43,2.43,0,0,0,.568,1.679,1.849,1.849,0,0,0,1.444.638,1.918,1.918,0,0,0,1.13-.343,1.9,1.9,0,0,0,.7-.971l1.028.171a2.758,2.758,0,0,1-1.057,1.514A3.023,3.023,0,0,1,59.613,13.114Zm7.065,0a3.005,3.005,0,0,1-2.234-.9,3.193,3.193,0,0,1-.882-2.342,3.2,3.2,0,0,1,.879-2.342,3.251,3.251,0,0,1,4.043-.349A2.755,2.755,0,0,1,69.534,8.7l-1.028.165a1.9,1.9,0,0,0-.7-.971,1.918,1.918,0,0,0-1.13-.343,1.845,1.845,0,0,0-1.444.641,2.442,2.442,0,0,0-.568,1.682,2.43,2.43,0,0,0,.568,1.679,1.849,1.849,0,0,0,1.444.638,1.918,1.918,0,0,0,1.13-.343,1.9,1.9,0,0,0,.7-.971l1.028.171a2.758,2.758,0,0,1-1.057,1.514A3.023,3.023,0,0,1,66.678,13.114Zm5.034-7.82a.748.748,0,0,1-.743-.743.7.7,0,0,1,.219-.521.72.72,0,0,1,.524-.216.713.713,0,0,1,.517.216.7.7,0,0,1,.219.521.715.715,0,0,1-.219.524A.707.707,0,0,1,71.711,5.294ZM71.153,13V6.76h1.1V13ZM76.7,5.688l1.593-2.069.584.425L77.456,5.688Zm.419,7.433a3.289,3.289,0,0,1-1.6-.387A2.819,2.819,0,0,1,74.393,11.6a3.48,3.48,0,0,1-.416-1.723,3.179,3.179,0,0,1,.885-2.352,3.322,3.322,0,0,1,4.516,0,3.185,3.185,0,0,1,.882,2.352,3.187,3.187,0,0,1-.885,2.358A3.057,3.057,0,0,1,77.12,13.121Zm-.006-.914a1.917,1.917,0,0,0,1.476-.641,2.4,2.4,0,0,0,.587-1.688,2.393,2.393,0,0,0-.587-1.682,1.917,1.917,0,0,0-1.476-.641,1.89,1.89,0,0,0-1.463.641,2.409,2.409,0,0,0-.581,1.682,2.418,2.418,0,0,0,.581,1.688A1.89,1.89,0,0,0,77.113,12.207ZM84.927,6.64A2.171,2.171,0,0,1,86.5,7.2,2.107,2.107,0,0,1,87.085,8.8V13h-1.1V9.045a1.475,1.475,0,0,0-.381-1.117,1.362,1.362,0,0,0-.978-.362,1.51,1.51,0,0,0-1.111.428,1.739,1.739,0,0,0-.438,1.273V13h-1.1V6.76h1.1v.8A2.084,2.084,0,0,1,84.927,6.64ZM32.962,19.25h1.1V29H33l-.025-1.212a2.3,2.3,0,0,1-.889.984,2.476,2.476,0,0,1-1.32.362,2.836,2.836,0,0,1-2.06-.879,3,3,0,0,1-.628-1.031,3.773,3.773,0,0,1-.232-1.339,3.281,3.281,0,0,1,.847-2.342,2.736,2.736,0,0,1,2.073-.9,2.487,2.487,0,0,1,1.3.352,2.309,2.309,0,0,1,.892.955Zm-1.968,8.931a1.869,1.869,0,0,0,1.45-.657,2.577,2.577,0,0,0,0-3.279,1.868,1.868,0,0,0-1.447-.66,1.91,1.91,0,0,0-1.46.638,2.629,2.629,0,0,0,0,3.32A1.91,1.91,0,0,0,30.994,28.181Zm10.759-2.425-.013.3H36.866a2.2,2.2,0,0,0,.6,1.6,1.959,1.959,0,0,0,1.422.555,1.871,1.871,0,0,0,1.035-.3,1.936,1.936,0,0,0,.711-.825l.99.209a2.815,2.815,0,0,1-1.066,1.339,2.909,2.909,0,0,1-1.657.489,3.014,3.014,0,0,1-2.247-.87,3.235,3.235,0,0,1-.857-2.374,3.219,3.219,0,0,1,.86-2.368,2.977,2.977,0,0,1,2.212-.87,2.817,2.817,0,0,1,2.1.8A3.16,3.16,0,0,1,41.754,25.756Zm-2.888-2.272a1.946,1.946,0,0,0-1.3.441,2.021,2.021,0,0,0-.657,1.285h3.739a1.854,1.854,0,0,0-.546-1.285A1.763,1.763,0,0,0,38.865,23.484Zm8.309-2.031a3.588,3.588,0,0,1,.067-.727,2.357,2.357,0,0,1,.178-.549,1.3,1.3,0,0,1,.3-.4,1.737,1.737,0,0,1,.384-.27,1.906,1.906,0,0,1,.473-.159,4.438,4.438,0,0,1,.536-.079q.263-.022.606-.022v.92h-.238q-.073,0-.229.013a1.465,1.465,0,0,0-.229.032q-.073.019-.2.063a.5.5,0,0,0-.187.108q-.063.063-.146.162a.663.663,0,0,0-.124.229,2.184,2.184,0,0,0-.07.3,2.43,2.43,0,0,0-.029.39V22.76h1.447v.876H48.266V29H47.175V23.636H45.969V22.76h1.206Zm4.367-.159a.748.748,0,0,1-.743-.743.7.7,0,0,1,.219-.521.72.72,0,0,1,.524-.216.713.713,0,0,1,.517.216.7.7,0,0,1,.219.521.715.715,0,0,1-.219.524A.707.707,0,0,1,51.542,21.294ZM50.983,29V22.76h1.1V29Zm6.284-6.36a2.171,2.171,0,0,1,1.571.565,2.107,2.107,0,0,1,.587,1.593V29h-1.1V25.045a1.475,1.475,0,0,0-.381-1.117,1.362,1.362,0,0,0-.978-.362,1.51,1.51,0,0,0-1.111.428,1.739,1.739,0,0,0-.438,1.273V29h-1.1V22.76h1.1v.8A2.084,2.084,0,0,1,57.267,22.64Zm5.719,6.481a2.123,2.123,0,0,1-1.368-.428,1.539,1.539,0,0,1-.536-1.279,1.818,1.818,0,0,1,.171-.816,1.438,1.438,0,0,1,.508-.568,3.046,3.046,0,0,1,.733-.352,6.777,6.777,0,0,1,.949-.225l1.009-.165q.552-.1.552-.578a1.09,1.09,0,0,0-.39-.93,1.591,1.591,0,0,0-.987-.3,1.62,1.62,0,0,0-.978.286,1.2,1.2,0,0,0-.463.876l-.99-.209a1.906,1.906,0,0,1,.781-1.336,2.917,2.917,0,0,1,1.7-.448,3.45,3.45,0,0,1,.9.111,2.458,2.458,0,0,1,.755.349,1.566,1.566,0,0,1,.54.673,2.5,2.5,0,0,1,.194,1.025v2.577a1.054,1.054,0,0,0,.143.651.617.617,0,0,0,.492.168h.1V29h-.546a1.041,1.041,0,0,1-1.181-.844h-.051A2.385,2.385,0,0,1,62.987,29.121Zm.254-.889a1.665,1.665,0,0,0,1.339-.6,2.483,2.483,0,0,0,.508-1.65l-1.65.317a2.222,2.222,0,0,0-.968.346.8.8,0,0,0-.314.682.8.8,0,0,0,.3.686A1.289,1.289,0,0,0,63.24,28.232ZM71.3,22.64a2.171,2.171,0,0,1,1.571.565A2.107,2.107,0,0,1,73.46,24.8V29h-1.1V25.045a1.475,1.475,0,0,0-.381-1.117A1.362,1.362,0,0,0,71,23.566a1.51,1.51,0,0,0-1.111.428,1.739,1.739,0,0,0-.438,1.273V29h-1.1V22.76h1.1v.8A2.084,2.084,0,0,1,71.3,22.64Zm5.142,5.472H79.77V29H74.793l3.288-5.345h-3.1v-.9h4.78Zm6.068,1.009a2.123,2.123,0,0,1-1.368-.428,1.539,1.539,0,0,1-.536-1.279,1.818,1.818,0,0,1,.171-.816,1.438,1.438,0,0,1,.508-.568,3.046,3.046,0,0,1,.733-.352,6.777,6.777,0,0,1,.949-.225l1.009-.165q.552-.1.552-.578a1.09,1.09,0,0,0-.39-.93,1.591,1.591,0,0,0-.987-.3,1.62,1.62,0,0,0-.978.286,1.2,1.2,0,0,0-.463.876l-.99-.209A1.906,1.906,0,0,1,81.5,23.1a2.917,2.917,0,0,1,1.7-.448,3.45,3.45,0,0,1,.9.111,2.458,2.458,0,0,1,.755.349,1.566,1.566,0,0,1,.54.673,2.5,2.5,0,0,1,.194,1.025v2.577a1.054,1.054,0,0,0,.143.651.617.617,0,0,0,.492.168h.1V29h-.546a1.041,1.041,0,0,1-1.181-.844h-.051A2.385,2.385,0,0,1,82.512,29.121Zm.254-.889a1.665,1.665,0,0,0,1.339-.6,2.483,2.483,0,0,0,.508-1.65l-1.65.317a2.222,2.222,0,0,0-.968.346.8.8,0,0,0-.314.682.8.8,0,0,0,.3.686A1.289,1.289,0,0,0,82.766,28.232Zm7.09.889a2.958,2.958,0,0,1-1.682-.451,1.864,1.864,0,0,1-.819-1.282l.958-.273a1.337,1.337,0,0,0,.511.866,1.658,1.658,0,0,0,1.025.308,2.046,2.046,0,0,0,.6-.083.962.962,0,0,0,.46-.308.859.859,0,0,0,.133-.825,1.1,1.1,0,0,0-.1-.206.629.629,0,0,0-.178-.171,2.344,2.344,0,0,0-.216-.133,2.215,2.215,0,0,0-.282-.117q-.187-.067-.3-.1t-.349-.1l-.362-.1a6.769,6.769,0,0,1-.647-.229,2.84,2.84,0,0,1-.527-.3,1.213,1.213,0,0,1-.409-.492,1.665,1.665,0,0,1-.136-.7,1.614,1.614,0,0,1,.3-1,1.714,1.714,0,0,1,.79-.587,3.159,3.159,0,0,1,1.108-.181,2.711,2.711,0,0,1,1.52.406,1.734,1.734,0,0,1,.759,1.219l-.9.229a1.2,1.2,0,0,0-.476-.79,1.516,1.516,0,0,0-.9-.263,1.545,1.545,0,0,0-.838.219.736.736,0,0,0-.349.67.666.666,0,0,0,.092.346,1.1,1.1,0,0,0,.187.244,1.151,1.151,0,0,0,.343.187q.248.1.368.133t.457.117q.063.019.1.025.368.1.6.168a3.687,3.687,0,0,1,.54.229,1.794,1.794,0,0,1,.486.34,1.573,1.573,0,0,1,.3.482,1.7,1.7,0,0,1,.127.673,1.817,1.817,0,0,1-.187.841,1.465,1.465,0,0,1-.511.574,2.471,2.471,0,0,1-.727.314A3.463,3.463,0,0,1,89.856,29.121Z" transform="translate(890 5076)" fill="#767676"/>
    <path id="Trazado_66102" data-name="Trazado 66102" d="M2713-1569.5h-73.35" transform="translate(-2095 6738)" fill="none" stroke="#8d85ac" stroke-width="2"/>
    <g transform="matrix(1, 0, 0, 1, 473, 4974)" filter="url(#Rectángulo_25866)">
      <g id="Rectángulo_25866-2" data-name="Rectángulo 25866" transform="translate(144 170)" fill="#fff" stroke="#8d85ac" stroke-width="1">
        <rect width="125" height="49" rx="7" stroke="none"/>
        <rect x="0.5" y="0.5" width="124" height="48" rx="6.5" fill="none"/>
      </g>
    </g>
    <path id="Trazado_67290" data-name="Trazado 67290" d="M42.75,5.1H39.119V8.023h3.2V9.045h-3.2v2.92H42.75V13H37.958V4.063H42.75ZM49.276,6.76h1.06v9.382h-1.1v-4.3a2.28,2.28,0,0,1-.889.943,2.48,2.48,0,0,1-1.295.352,2.739,2.739,0,0,1-2.079-.9,3.3,3.3,0,0,1-.841-2.355,3.792,3.792,0,0,1,.232-1.346,2.97,2.97,0,0,1,.628-1.028,2.844,2.844,0,0,1,2.06-.87A2.486,2.486,0,0,1,48.362,7a2.281,2.281,0,0,1,.889.958Zm-2.012,5.421a1.892,1.892,0,0,0,1.466-.657,2.364,2.364,0,0,0,.59-1.641,2.348,2.348,0,0,0-.594-1.635,1.965,1.965,0,0,0-2.907-.029,2.338,2.338,0,0,0-.587,1.663,2.347,2.347,0,0,0,.587,1.669A1.9,1.9,0,0,0,47.263,12.181Zm9.2-5.421h1.1V13H56.506l-.025-.825a1.948,1.948,0,0,1-.774.7,2.382,2.382,0,0,1-1.092.244,2.171,2.171,0,0,1-1.571-.565,2.107,2.107,0,0,1-.587-1.593V6.76h1.1v3.955a1.481,1.481,0,0,0,.384,1.117,1.359,1.359,0,0,0,.981.368,1.493,1.493,0,0,0,1.108-.432,1.758,1.758,0,0,0,.435-1.276Zm3.891-1.466a.748.748,0,0,1-.743-.743.7.7,0,0,1,.219-.521.72.72,0,0,1,.524-.216.713.713,0,0,1,.517.216.7.7,0,0,1,.219.521.715.715,0,0,1-.219.524A.707.707,0,0,1,60.352,5.294ZM59.794,13V6.76h1.1V13Zm6.633-6.36a2.838,2.838,0,0,1,1.13.229,2.779,2.779,0,0,1,.927.641,3,3,0,0,1,.625,1.028,3.792,3.792,0,0,1,.232,1.346,3.3,3.3,0,0,1-.841,2.355,2.732,2.732,0,0,1-2.073.9,2.47,2.47,0,0,1-1.3-.355,2.33,2.33,0,0,1-.892-.958v4.323h-1.1V6.76h1.06l.025,1.212A2.284,2.284,0,0,1,65.107,7,2.493,2.493,0,0,1,66.427,6.64Zm-.216,5.542a1.9,1.9,0,0,0,1.444-.632,2.349,2.349,0,0,0,.587-1.666,2.338,2.338,0,0,0-.587-1.663,1.969,1.969,0,0,0-2.91.029,2.34,2.34,0,0,0-.6,1.635,2.349,2.349,0,0,0,.6,1.641A1.9,1.9,0,0,0,66.211,12.181Zm7.49.939a3.289,3.289,0,0,1-1.6-.387A2.819,2.819,0,0,1,70.975,11.6a3.48,3.48,0,0,1-.416-1.723,3.179,3.179,0,0,1,.885-2.352,3.322,3.322,0,0,1,4.516,0,3.185,3.185,0,0,1,.882,2.352,3.187,3.187,0,0,1-.885,2.358A3.057,3.057,0,0,1,73.7,13.121Zm-.006-.914a1.917,1.917,0,0,0,1.476-.641,2.4,2.4,0,0,0,.587-1.688,2.393,2.393,0,0,0-.587-1.682A1.917,1.917,0,0,0,73.7,7.554a1.89,1.89,0,0,0-1.463.641,2.409,2.409,0,0,0-.581,1.682,2.418,2.418,0,0,0,.581,1.688A1.89,1.89,0,0,0,73.7,12.207Zm6.843.914a2.958,2.958,0,0,1-1.682-.451,1.864,1.864,0,0,1-.819-1.282L79,11.115a1.337,1.337,0,0,0,.511.866,1.658,1.658,0,0,0,1.025.308,2.046,2.046,0,0,0,.6-.083.962.962,0,0,0,.46-.308.859.859,0,0,0,.133-.825,1.1,1.1,0,0,0-.1-.206.629.629,0,0,0-.178-.171,2.344,2.344,0,0,0-.216-.133,2.215,2.215,0,0,0-.282-.117q-.187-.067-.3-.1t-.349-.1l-.362-.1a6.769,6.769,0,0,1-.647-.229,2.84,2.84,0,0,1-.527-.3,1.213,1.213,0,0,1-.409-.492,1.665,1.665,0,0,1-.136-.7,1.614,1.614,0,0,1,.3-1,1.714,1.714,0,0,1,.79-.587,3.159,3.159,0,0,1,1.108-.181,2.711,2.711,0,0,1,1.52.406A1.734,1.734,0,0,1,82.7,8.277l-.9.229a1.2,1.2,0,0,0-.476-.79,1.516,1.516,0,0,0-.9-.263,1.545,1.545,0,0,0-.838.219.736.736,0,0,0-.349.67.666.666,0,0,0,.092.346,1.1,1.1,0,0,0,.187.244,1.151,1.151,0,0,0,.343.187q.248.1.368.133t.457.117q.063.019.1.025.368.1.6.168a3.687,3.687,0,0,1,.54.229,1.794,1.794,0,0,1,.486.34,1.573,1.573,0,0,1,.3.482,1.7,1.7,0,0,1,.127.673,1.817,1.817,0,0,1-.187.841,1.465,1.465,0,0,1-.511.574,2.471,2.471,0,0,1-.727.314A3.463,3.463,0,0,1,80.538,13.121ZM28.084,21.294a.748.748,0,0,1-.743-.743.7.7,0,0,1,.219-.521.72.72,0,0,1,.524-.216.713.713,0,0,1,.517.216.7.7,0,0,1,.219.521.715.715,0,0,1-.219.524A.707.707,0,0,1,28.084,21.294ZM27.525,29V22.76h1.1V29Zm6.284-6.36a2.171,2.171,0,0,1,1.571.565,2.107,2.107,0,0,1,.587,1.593V29h-1.1V25.045a1.475,1.475,0,0,0-.381-1.117,1.362,1.362,0,0,0-.978-.362,1.51,1.51,0,0,0-1.111.428,1.739,1.739,0,0,0-.438,1.273V29h-1.1V22.76h1.1v.8A2.084,2.084,0,0,1,33.81,22.64ZM42.7,19.25h1.1V29h-1.06l-.025-1.212a2.3,2.3,0,0,1-.889.984,2.476,2.476,0,0,1-1.32.362,2.836,2.836,0,0,1-2.06-.879,3,3,0,0,1-.628-1.031,3.773,3.773,0,0,1-.232-1.339,3.281,3.281,0,0,1,.847-2.342,2.736,2.736,0,0,1,2.073-.9,2.487,2.487,0,0,1,1.3.352,2.309,2.309,0,0,1,.892.955Zm-1.968,8.931a1.869,1.869,0,0,0,1.45-.657,2.577,2.577,0,0,0,0-3.279,1.868,1.868,0,0,0-1.447-.66,1.91,1.91,0,0,0-1.46.638,2.629,2.629,0,0,0,0,3.32A1.91,1.91,0,0,0,40.729,28.181Zm9.185-5.421h1.1V29H49.958l-.025-.825a1.948,1.948,0,0,1-.774.7,2.382,2.382,0,0,1-1.092.244,2.171,2.171,0,0,1-1.571-.565,2.107,2.107,0,0,1-.587-1.593v-4.2h1.1v3.955a1.481,1.481,0,0,0,.384,1.117,1.359,1.359,0,0,0,.981.368,1.493,1.493,0,0,0,1.108-.432,1.758,1.758,0,0,0,.435-1.276Zm5.307,6.36a2.958,2.958,0,0,1-1.682-.451,1.864,1.864,0,0,1-.819-1.282l.958-.273a1.337,1.337,0,0,0,.511.866,1.658,1.658,0,0,0,1.025.308,2.046,2.046,0,0,0,.6-.083.962.962,0,0,0,.46-.308.859.859,0,0,0,.133-.825,1.1,1.1,0,0,0-.1-.206.629.629,0,0,0-.178-.171,2.343,2.343,0,0,0-.216-.133,2.215,2.215,0,0,0-.282-.117q-.187-.067-.3-.1t-.349-.1l-.362-.1a6.769,6.769,0,0,1-.647-.229,2.84,2.84,0,0,1-.527-.3,1.213,1.213,0,0,1-.409-.492,1.664,1.664,0,0,1-.136-.7,1.614,1.614,0,0,1,.3-1,1.714,1.714,0,0,1,.79-.587,3.159,3.159,0,0,1,1.108-.181,2.711,2.711,0,0,1,1.52.406,1.734,1.734,0,0,1,.759,1.219l-.9.229a1.2,1.2,0,0,0-.476-.79,1.516,1.516,0,0,0-.9-.263,1.545,1.545,0,0,0-.838.219.736.736,0,0,0-.349.67.666.666,0,0,0,.092.346,1.1,1.1,0,0,0,.187.244,1.151,1.151,0,0,0,.343.187q.248.1.368.133t.457.117q.063.019.1.025.368.1.6.168a3.687,3.687,0,0,1,.54.229,1.794,1.794,0,0,1,.486.34,1.573,1.573,0,0,1,.3.482,1.7,1.7,0,0,1,.127.673,1.817,1.817,0,0,1-.187.841,1.465,1.465,0,0,1-.511.574,2.471,2.471,0,0,1-.727.314A3.463,3.463,0,0,1,55.22,29.121ZM61.238,29a1.64,1.64,0,0,1-1.219-.448,1.693,1.693,0,0,1-.444-1.247V23.636H58.3V22.76h.47a.9.9,0,0,0,.689-.219,1.078,1.078,0,0,0,.2-.733v-1.13h1.022V22.76h1.435v.876H60.679v3.555a.946.946,0,0,0,.238.689.833.833,0,0,0,.625.244h.571V29Zm3.536-5.142a1.886,1.886,0,0,1,.774-.838,2.332,2.332,0,0,1,1.2-.33v1.035a2.056,2.056,0,0,0-1.45.463,1.936,1.936,0,0,0-.5,1.479V29H63.7V22.76h1.073Zm3.821-2.564a.748.748,0,0,1-.743-.743.7.7,0,0,1,.219-.521.72.72,0,0,1,.524-.216.713.713,0,0,1,.517.216.7.7,0,0,1,.219.521.715.715,0,0,1-.219.524A.707.707,0,0,1,68.595,21.294ZM68.036,29V22.76h1.1V29Zm4.78.121a2.123,2.123,0,0,1-1.368-.428,1.539,1.539,0,0,1-.536-1.279,1.818,1.818,0,0,1,.171-.816,1.438,1.438,0,0,1,.508-.568,3.046,3.046,0,0,1,.733-.352,6.777,6.777,0,0,1,.949-.225l1.009-.165q.552-.1.552-.578a1.09,1.09,0,0,0-.39-.93,1.591,1.591,0,0,0-.987-.3,1.62,1.62,0,0,0-.978.286,1.2,1.2,0,0,0-.463.876l-.99-.209a1.906,1.906,0,0,1,.781-1.336,2.917,2.917,0,0,1,1.7-.448,3.45,3.45,0,0,1,.9.111,2.458,2.458,0,0,1,.755.349,1.566,1.566,0,0,1,.54.673,2.5,2.5,0,0,1,.194,1.025v2.577a1.054,1.054,0,0,0,.143.651.617.617,0,0,0,.492.168h.1V29h-.546a1.041,1.041,0,0,1-1.181-.844H74.86A2.385,2.385,0,0,1,72.816,29.121Zm.254-.889a1.665,1.665,0,0,0,1.339-.6,2.483,2.483,0,0,0,.508-1.65l-1.65.317a2.222,2.222,0,0,0-.968.346.8.8,0,0,0-.314.682.8.8,0,0,0,.3.686A1.289,1.289,0,0,0,73.07,28.232ZM78.186,29V19.25H79.3V29Zm8.8-3.244-.013.3H82.1a2.2,2.2,0,0,0,.6,1.6,1.959,1.959,0,0,0,1.422.555,1.871,1.871,0,0,0,1.035-.3,1.936,1.936,0,0,0,.711-.825l.99.209a2.815,2.815,0,0,1-1.066,1.339,2.909,2.909,0,0,1-1.657.489,3.014,3.014,0,0,1-2.247-.87,3.235,3.235,0,0,1-.857-2.374,3.22,3.22,0,0,1,.86-2.368,2.977,2.977,0,0,1,2.212-.87,2.817,2.817,0,0,1,2.1.8A3.16,3.16,0,0,1,86.99,25.756ZM84.1,23.484a1.946,1.946,0,0,0-1.3.441,2.021,2.021,0,0,0-.657,1.285h3.739a1.854,1.854,0,0,0-.546-1.285A1.763,1.763,0,0,0,84.1,23.484Zm6.583,5.637A2.958,2.958,0,0,1,89,28.67a1.864,1.864,0,0,1-.819-1.282l.958-.273a1.337,1.337,0,0,0,.511.866,1.658,1.658,0,0,0,1.025.308,2.046,2.046,0,0,0,.6-.083.962.962,0,0,0,.46-.308.859.859,0,0,0,.133-.825,1.1,1.1,0,0,0-.1-.206.629.629,0,0,0-.178-.171,2.344,2.344,0,0,0-.216-.133,2.215,2.215,0,0,0-.282-.117q-.187-.067-.3-.1t-.349-.1l-.362-.1a6.769,6.769,0,0,1-.647-.229,2.84,2.84,0,0,1-.527-.3,1.213,1.213,0,0,1-.409-.492,1.665,1.665,0,0,1-.136-.7,1.614,1.614,0,0,1,.3-1,1.714,1.714,0,0,1,.79-.587,3.159,3.159,0,0,1,1.108-.181,2.711,2.711,0,0,1,1.52.406,1.734,1.734,0,0,1,.759,1.219l-.9.229a1.2,1.2,0,0,0-.476-.79,1.516,1.516,0,0,0-.9-.263,1.545,1.545,0,0,0-.838.219.736.736,0,0,0-.349.67.666.666,0,0,0,.092.346,1.1,1.1,0,0,0,.187.244,1.151,1.151,0,0,0,.343.187q.248.1.368.133t.457.117q.063.019.1.025.368.1.6.168a3.687,3.687,0,0,1,.54.229,1.794,1.794,0,0,1,.486.34,1.573,1.573,0,0,1,.3.482,1.7,1.7,0,0,1,.127.673,1.817,1.817,0,0,1-.187.841,1.465,1.465,0,0,1-.511.574,2.471,2.471,0,0,1-.727.314A3.463,3.463,0,0,1,90.685,29.121Z" transform="translate(620 5152)" fill="#767676"/>
  </g>
</svg>
