<svg xmlns="http://www.w3.org/2000/svg" xmlns:xlink="http://www.w3.org/1999/xlink" width="242" height="242" viewBox="0 0 242 242">
  <defs>
    <radialGradient id="radial-gradient" cx="0.5" cy="0.5" r="0.5" gradientUnits="objectBoundingBox">
      <stop offset="0" stop-color="#fff"/>
      <stop offset="0.806" stop-color="#f9f9f9"/>
      <stop offset="1" stop-color="#e5e5e5"/>
    </radialGradient>
    <clipPath id="clip-path">
      <rect id="Rectángulo_25970" data-name="Rectángulo 25970" width="133.574" height="131.437" fill="none"/>
    </clipPath>
  </defs>
  <g id="Grupo_25333" data-name="Grupo 25333" transform="translate(-191 -3617)">
    <g id="Elipse_79" data-name="Elipse 79" transform="translate(191 3617)" stroke="#8d85ac" stroke-width="4" fill="url(#radial-gradient)">
      <circle cx="121" cy="121" r="121" stroke="none"/>
      <circle cx="121" cy="121" r="119" fill="none"/>
    </g>
    <g id="Grupo_25190" data-name="Grupo 25190" transform="translate(238.867 3663.893)">
      <g id="Grupo_25189" data-name="Grupo 25189" clip-path="url(#clip-path)">
        <path id="Trazado_66308" data-name="Trazado 66308" d="M563.368,61.217a1.757,1.757,0,0,1-1.757,1.757H560.44v4.1l-4.1-4.1H542.868a1.756,1.756,0,0,1-1.756-1.757V46.575a1.756,1.756,0,0,1,1.756-1.757h18.743a1.757,1.757,0,0,1,1.757,1.757Z" transform="translate(-446.071 -36.946)" fill="#d4edff"/>
        <rect id="Rectángulo_25966" data-name="Rectángulo 25966" width="15.228" height="1.171" transform="translate(98.555 13.143)" fill="#8dcfff"/>
        <rect id="Rectángulo_25967" data-name="Rectángulo 25967" width="15.228" height="1.172" transform="translate(98.555 16.071)" fill="#8dcfff"/>
        <rect id="Rectángulo_25968" data-name="Rectángulo 25968" width="15.228" height="1.172" transform="translate(98.555 18.999)" fill="#8dcfff"/>
        <path id="Trazado_66309" data-name="Trazado 66309" d="M203.024,651.287c.146.2.037.712.037.712a15.765,15.765,0,0,1-3.4.113,4.168,4.168,0,0,1-.92-.471c-.058-.037-.159-.253-.215-.289-.1-.067-.158.046-.246-.015a2.759,2.759,0,0,1-.393-.3,2.944,2.944,0,0,1,.08-1.818s2.2-.807,2.605-.251a17.864,17.864,0,0,0,2.456,2.317" transform="translate(-163.059 -534.824)" fill="#163f59"/>
        <path id="Trazado_66310" data-name="Trazado 66310" d="M304.8,646.5l.382,2.1h1.005s.113-.3.285-.3c.146,0,.333.3.531.3h5.181s.093-.441-.02-.593a1.927,1.927,0,0,0-.626-.281c-1.051-.31-4.063-1.279-4.586-2.334-.637-1.283-2.151,1.112-2.151,1.112" transform="translate(-251.265 -531.722)" fill="#163f59"/>
        <path id="Trazado_66311" data-name="Trazado 66311" d="M213.7,371l-2.147-1.194-.253-.267.3-.478.471.058-.082-1.4,2.249-.4,1.152-.538-1.064,3.792" transform="translate(-174.189 -302.361)" fill="#e9d6b8"/>
        <path id="Trazado_66312" data-name="Trazado 66312" d="M279.891,182.258s-2.407,2.65,5,9.649,8.76,4.95,8.76,4.95l2.238-1.49,1.66-7.788-3.577-.829-.388.459a1.356,1.356,0,0,1-1.156-.471,64.164,64.164,0,0,1-6.378-6.937c-1.633-2.1-5.7,1.944-6.163,2.457" transform="translate(-230.423 -147.727)" fill="#d4edff"/>
        <path id="Trazado_66313" data-name="Trazado 66313" d="M363.484,187.7s7.472-.136,8.068-7.915c.177-2.312.769-.075,1.176,2.133s-.957,8.433-4.95,10.933-5.7,3.115-7.24,2.095,2.945-7.246,2.945-7.246" transform="translate(-296.947 -147.406)" fill="#e9d6b8"/>
        <path id="Trazado_66314" data-name="Trazado 66314" d="M283.145,519.827s-1.16,1.681-2.013.109c-1.968-3.626-4.89-12.582-4.989-16.659a41.771,41.771,0,0,1,.849-9.909l6.228-2.033Z" transform="translate(-227.629 -405.037)" fill="#163f59"/>
        <path id="Trazado_66315" data-name="Trazado 66315" d="M271.293,335.99l.283,26.785-5.662,3.127a38.581,38.581,0,0,1-3.823-14.548c-.18-3.464-.269-11.232,1.668-13.874,2.625-3.58,7.533-1.49,7.533-1.49" transform="translate(-215.985 -276.477)" fill="#163f59"/>
        <path id="Trazado_66316" data-name="Trazado 66316" d="M216.454,335.007l-.926,9.272-2.516,10.057-2.678,9.4-9.565,26.09-2.783.227s.351-19.585,3.748-25.3c1.8-3.023,1.8-9.729,2.627-16.952.149-1.3-.588-4.239-.469-5.426a19.345,19.345,0,0,1,2.879-8.186Z" transform="translate(-163.212 -275.494)" fill="#194866"/>
        <path id="Trazado_66317" data-name="Trazado 66317" d="M229.106,206.507l-12.266-.272L211.6,188.7s-3.4-10.606,3.113-10.741,14.016-.136,14.016-.136,5.378,9.892.375,28.689" transform="translate(-173.705 -146.586)" fill="#d4edff"/>
        <path id="Trazado_66318" data-name="Trazado 66318" d="M166.2,311.984l7.768,9.455s-.279,1.377-.9.646c-.076-.088.3-.365-.172-.624-1.909-1.041-6.391-2.645-8.05-4.249a27.655,27.655,0,0,1-3.735-4.588Z" transform="translate(-132.811 -257.187)" fill="#e9d6b8"/>
        <path id="Trazado_66319" data-name="Trazado 66319" d="M277.475,191.844s5.708,11.287,4.087,23.779a2.874,2.874,0,0,1-1.149,1.687l-1.405-1.407s.113-14.137-1.533-24.059" transform="translate(-228.739 -158.148)" fill="#387bff"/>
        <path id="Trazado_66320" data-name="Trazado 66320" d="M257.353,181.431l-.311,2.174-3.729-3.532v-.544Z" transform="translate(-208.822 -147.997)" fill="#acd4f8"/>
        <path id="Trazado_66321" data-name="Trazado 66321" d="M278.3,182.37l.654,2.829-1.655-1.426Z" transform="translate(-228.593 -150.338)" fill="#acd4f8"/>
        <path id="Trazado_66322" data-name="Trazado 66322" d="M345.978,225.562l.973-1.759.429-.681a1.465,1.465,0,0,0,.994.294l-.969,1.173-.889,1.592-.5,2.428Z" transform="translate(-285.21 -183.934)" fill="#acd4f8"/>
        <path id="Trazado_66323" data-name="Trazado 66323" d="M161.636,189.142l-4.267,12.287-.925.367.515.816-5.262.915-2.311-4.015,6.145-16.677a10.949,10.949,0,0,1,7.667-4.086c3.837-.422-1.255,9.37-1.562,10.392" transform="translate(-123.148 -147.343)" fill="#d4edff"/>
        <path id="Trazado_66324" data-name="Trazado 66324" d="M160.719,303.66s3.588.673,5.471.958l-.4.161.515.816-1.822.3-2.653.059-.414-.982.775-.194Z" transform="translate(-132.49 -250.325)" fill="#b0bfde"/>
        <path id="Trazado_66325" data-name="Trazado 66325" d="M250.688,164.564a13.723,13.723,0,0,0,.661,2.328c.424.951,4.1,2.175,4.671,2.311s-.142-2.856-.142-3.535c0-.519-.335-.358.068-1.1Z" transform="translate(-206.657 -135.66)" fill="#e9d6b8"/>
        <path id="Trazado_66326" data-name="Trazado 66326" d="M248.958,118.72a1.07,1.07,0,0,1-.886,1.225l-4.747.761a1.068,1.068,0,0,1-1.224-.886l-1.128-7.032a1.068,1.068,0,0,1,.885-1.224l4.747-.762a1.068,1.068,0,0,1,1.224.886Z" transform="translate(-198.637 -91.33)" fill="#e9d6b8"/>
        <path id="Trazado_66327" data-name="Trazado 66327" d="M275.657,112.53a4.086,4.086,0,0,0,.578-1.22,1.591,1.591,0,0,0-.885-1.21c-.577-.224-.925.418-.925.418s.917.334.99.5.242,1.509.242,1.509" transform="translate(-226.225 -90.723)" fill="#163f59"/>
        <path id="Trazado_66328" data-name="Trazado 66328" d="M235.792,104.194a15.864,15.864,0,0,1-1.147-3.4c.005-.812.005-1.376.957-1.619,1.427-.364,1.493-.06,2.126-.612a21.682,21.682,0,0,1,2.145-1.99,1.469,1.469,0,0,1,2.134,1.123,1.529,1.529,0,0,0,.857,1.185c-.037.133-.283.29-.706.594a4.053,4.053,0,0,1-3.035,1.028c-1.054-.1-3.028-.371-3.128.412s.355,3.054.3,3.243-.3.139-.5.035" transform="translate(-193.432 -79.494)" fill="#194866"/>
        <path id="Trazado_66329" data-name="Trazado 66329" d="M242.062,141.066a.356.356,0,0,1-.295.408l-1.026.165a.356.356,0,0,1-.408-.3l-.3-1.875a.357.357,0,0,1,.295-.408l1.026-.165a.355.355,0,0,1,.408.295Z" transform="translate(-197.869 -114.496)" fill="#e9d6b8"/>
        <path id="Trazado_66330" data-name="Trazado 66330" d="M276.886,135.479a.355.355,0,0,1-.295.408l-1.025.165a.356.356,0,0,1-.408-.3l-.3-1.875a.356.356,0,0,1,.295-.409l1.025-.164a.356.356,0,0,1,.408.3Z" transform="translate(-226.577 -109.89)" fill="#e9d6b8"/>
        <path id="Trazado_66331" data-name="Trazado 66331" d="M244.322,143.72s.444,2.769.592,3.691c.134.835.76,2.613,5.474,1.857,2.791-.448,2.36-2.483,2.251-3.157a6.063,6.063,0,0,0-1.251-2.2c-.011-.008.183,1.143.183,1.143a2.258,2.258,0,0,0-2.085-.807c-2.141.344-2.425,1.675-3.373,1.8-.728.1-1.463-1-1.792-2.327" transform="translate(-201.409 -118.477)" fill="#194866"/>
        <path id="Trazado_66332" data-name="Trazado 66332" d="M268.3,153.866l1.465-.235a.355.355,0,0,0,.295-.408l-.033-.2-2.168.348.033.2a.355.355,0,0,0,.408.3" transform="translate(-220.816 -126.143)" fill="#e9d6b8"/>
        <path id="Trazado_66333" data-name="Trazado 66333" d="M422.022,162.4s-.706-2.39-.341-2.988,1.838-2.683,1.838-2.683l.422-.5s.764.2-.24,1.589-.17,1-.17,1l1.354-.888,1.741-.949.721-.527s.389-.332.544-.326c.448.018.27.38.27.38l-2.645,2.3,2.977-1.412s.409-.112.538.082,0,.251,0,.251l-3.019,2.45,1.612-.543s.4-.1.538.083c.146.2.191.251.191.251l-5.942,3.013Z" transform="translate(-347.53 -128.709)" fill="#e9d6b8"/>
        <path id="Trazado_66334" data-name="Trazado 66334" d="M446.4,169.04l2.148-.863a1.769,1.769,0,0,1,.742-.223.321.321,0,0,1,.307.334l-3.121,1.643Z" transform="translate(-367.994 -138.454)" fill="#e9d6b8"/>
        <path id="Trazado_66335" data-name="Trazado 66335" d="M235.543,647.479l1.47,7.984,5.063,1.3,2.695.084s-4.935-2.121-5.908-3.211c-1.475-1.652-1.063-8.2-1.063-8.2Z" transform="translate(-194.172 -532.073)" fill="#e9d6b8"/>
        <path id="Trazado_66336" data-name="Trazado 66336" d="M242.72,700.326l1.062.084.571-.737L248.845,701l2.859.225a2.385,2.385,0,0,0-.388-.593,16.035,16.035,0,0,0-2.593-1.2s.04.654-.285.735a23.97,23.97,0,0,1-4.165-1.062c-1.264-.492-1.557-.886-1.633-.816-.2.184.081,2.04.081,2.04" transform="translate(-199.961 -575.632)" fill="#161711"/>
        <path id="Trazado_66337" data-name="Trazado 66337" d="M182.941,355.911l2.591,26.753,2.946,25.6-3.907.486s-4.838-25.7-5.375-27.923-5.994-19.958-4.036-24.637,7.782-.275,7.782-.275" transform="translate(-144.047 -291.85)" fill="#163f59"/>
        <path id="Trazado_66338" data-name="Trazado 66338" d="M155.219,650.088l.407,8.493,5.065,1.307,2.694.082s-4.794-1.991-5.548-3.242c-1-1.661,0-7.257,0-7.257Z" transform="translate(-127.956 -535.397)" fill="#e9d6b8"/>
        <path id="Trazado_66339" data-name="Trazado 66339" d="M156.349,699.161l1.062.081.571-.735,4.063,1.145,3.451.162a.617.617,0,0,0-.143-.387,15.207,15.207,0,0,0-3.043-1.206s.1.775-.224.859a25.475,25.475,0,0,1-4.186-1.144c-1.265-.493-1.556-.887-1.633-.818-.2.183.082,2.042.082,2.042" transform="translate(-128.76 -574.67)" fill="#161711"/>
        <path id="Trazado_66340" data-name="Trazado 66340" d="M150.143,351.185l.735,23.4s-.972,6.346-1.05,8.459c-.178,4.763.026,19.054.026,19.054l4.229.172s2.98-25.831,3.364-28.07,4.711-20.233,2.211-24.711-9.516,1.7-9.516,1.7" transform="translate(-123.452 -286.76)" fill="#194866"/>
        <path id="Trazado_66341" data-name="Trazado 66341" d="M125.926,203.747a6.307,6.307,0,1,1-6.306-6.174,6.241,6.241,0,0,1,6.306,6.174" transform="translate(-93.412 -162.871)" fill="#194866"/>
        <path id="Trazado_66342" data-name="Trazado 66342" d="M163.548,121.448a4.54,4.54,0,0,1-4.541,4.54l-1.135-2.157a4.539,4.539,0,0,1-4.54-4.541v-1.7a4.54,4.54,0,0,1,4.54-4.54h1.135a4.541,4.541,0,0,1,4.541,4.54Z" transform="translate(-126.401 -93.191)" fill="#194866"/>
        <path id="Trazado_66343" data-name="Trazado 66343" d="M153.333,119.289v-1.7a4.54,4.54,0,0,1,4.54-4.54h1.135a4.51,4.51,0,0,1,2.755.938,10.168,10.168,0,0,1-.235,3.1c-.76,3.307-2.977,5.769-5.442,6.382a4.541,4.541,0,0,1-2.753-4.175" transform="translate(-126.401 -93.191)" fill="#194866"/>
        <path id="Trazado_66344" data-name="Trazado 66344" d="M128.007,158.229a6.039,6.039,0,1,1-6.038-5.911,5.976,5.976,0,0,1,6.038,5.911" transform="translate(-95.569 -125.565)" fill="#194866"/>
        <path id="Trazado_66345" data-name="Trazado 66345" d="M132.551,202.263a6.224,6.224,0,1,1-6.222-6.092,6.158,6.158,0,0,1,6.222,6.092" transform="translate(-99.011 -161.715)" fill="#163f59"/>
        <path id="Trazado_66346" data-name="Trazado 66346" d="M137.211,161.184c2.244-1.521,4.853-1.586,5.828-.149s-.055,3.838-2.3,5.357-4.855,1.588-5.828.15.055-3.837,2.3-5.358" transform="translate(-110.913 -131.896)" fill="#163f59"/>
        <path id="Trazado_66347" data-name="Trazado 66347" d="M170,122.868a8.822,8.822,0,0,1-.108,1.279c-.459,2.915-2.23,5.128-4.168,5.4a13.8,13.8,0,0,1-.643,3.517,6.914,6.914,0,0,1-1.708,2.366c-.328,2.035,6.6,5.024,6.437,4.7a19.92,19.92,0,0,1-2.43-4.928,4.476,4.476,0,0,1,.7-3.669,3.713,3.713,0,0,1,2.654-1.256.524.524,0,0,0,.382-.167,3.224,3.224,0,0,0,.143-.95v-3.744A3.206,3.206,0,0,0,170,122.868" transform="translate(-134.669 -101.287)" fill="#e9d6b8"/>
        <path id="Trazado_66348" data-name="Trazado 66348" d="M189.6,236.923l3.251.834s-2.118-9.245-2.71-12.858-.526-4.8-.329-5.913.722-2.43,0-3.679-1.849-3.318-2.3-3.481a5.558,5.558,0,0,1-2.1-1.181c-.325-.325,4.187,26.278,4.187,26.278" transform="translate(-152.835 -173.645)" fill="#0253a2"/>
        <path id="Trazado_66349" data-name="Trazado 66349" d="M157.553,222.5s-1.577-8.672-2.278-13.051-2.627-12.7-2.8-13.75a12.956,12.956,0,0,0-.788-2.453,4.942,4.942,0,0,0-3.153-.963c-1.489.263-2.715,3.591-3.329,6.832s3.854,12.261,3.854,13.049-3.152,7.444-3.152,9.371v2.19s7.794-3.766,11.648-1.226" transform="translate(-119.652 -158.48)" fill="#fec00f"/>
        <path id="Trazado_66350" data-name="Trazado 66350" d="M162.588,185.228l1.271.792,1.816,1.244-.347,1.929-3.4-3.045Z" transform="translate(-133.489 -152.695)" fill="#f99b1c"/>
        <path id="Trazado_66351" data-name="Trazado 66351" d="M115.17,306.578s2.848,3.8,4.342,3.647a12.388,12.388,0,0,0,1.456-.253c1.019-.2,1.215-.185,2.026-.295a7.486,7.486,0,0,1,.908-.1s0,.46-.307.581c-.275.108-.963.2-1.193.294s.58-.065,1.8.034a17.192,17.192,0,0,1,2.9.493c.319.089.362.109.362.125,0,.149-.011.285-.159.313-.129.024-.591-.012-.564.01a6.207,6.207,0,0,0,.952.357c.132.032.312.07.423.109.223.077.12.35-.269.459-.005,0-.091.191-.208.231-.061.02-.1.037-.164.054s-.151.021-.22.038a4.929,4.929,0,0,1-.776.11,6.968,6.968,0,0,0-1.013,0,3.534,3.534,0,0,1,.7.215c-.029.122-.165.272-.29.262-.231-.021-.581-.045-1.533-.165a7.5,7.5,0,0,0-2.617-.076c-1.174.143-1.059.387-1.893.065-1.116-.429-5.179-3.58-5.933-4.073s1.273-2.43,1.273-2.43" transform="translate(-93.753 -252.73)" fill="#e9d6b8"/>
        <path id="Trazado_66352" data-name="Trazado 66352" d="M81.183,211.565l9.131-9.919a13.336,13.336,0,0,0,1.051-3.941c-.066-1.576-1.949-2.76-1.949-2.76s-4.16,3.745-9.087,9.131-7.619,7.751-4.927,9.853,6.963,4.795,6.963,4.795l1.642-4.2Z" transform="translate(-61.28 -160.706)" fill="#f99b1c"/>
        <path id="Trazado_66353" data-name="Trazado 66353" d="M0,425.72H88.351L106.3,357.647H17.951Z" transform="translate(0 -294.829)" fill="#cee5ff"/>
        <path id="Trazado_66354" data-name="Trazado 66354" d="M0,699.958H88.351l17.952-9.643H59.049Z" transform="translate(0 -569.067)" fill="#acd4f8"/>
        <path id="Trazado_66355" data-name="Trazado 66355" d="M210.578,425.72H122.227l-17.952-68.073h88.351Z" transform="translate(-85.96 -294.829)" fill="#387bff"/>
        <path id="Trazado_66356" data-name="Trazado 66356" d="M174.96,425.509h-8.484l-2.273-8.621h8.484Z" transform="translate(-135.363 -343.665)" fill="#0063cb"/>
        <path id="Trazado_66357" data-name="Trazado 66357" d="M235.974,425.509H227.49l-2.274-8.621H233.7Z" transform="translate(-185.659 -343.665)" fill="#0063cb"/>
        <path id="Trazado_66358" data-name="Trazado 66358" d="M296.994,425.509H288.51l-2.273-8.621h8.484Z" transform="translate(-235.962 -343.665)" fill="#8dcfff"/>
        <path id="Trazado_66359" data-name="Trazado 66359" d="M358.018,425.509h-8.485l-2.272-8.621h8.484Z" transform="translate(-286.267 -343.665)" fill="#8dcfff"/>
        <path id="Trazado_66360" data-name="Trazado 66360" d="M419.032,425.509h-8.484l-2.273-8.621h8.484Z" transform="translate(-336.565 -343.665)" fill="#8dcfff"/>
        <path id="Trazado_66361" data-name="Trazado 66361" d="M480.048,425.509h-8.485l-2.274-8.621h8.485Z" transform="translate(-386.863 -343.665)" fill="#8dcfff"/>
        <path id="Trazado_66362" data-name="Trazado 66362" d="M541.068,425.509h-8.485l-2.273-8.621h8.484Z" transform="translate(-437.166 -343.665)" fill="#73a9ff"/>
        <path id="Trazado_66363" data-name="Trazado 66363" d="M191.007,486.357h-8.484l-2.273-8.621h8.484Z" transform="translate(-148.59 -393.826)" fill="#8dcfff"/>
        <path id="Trazado_66364" data-name="Trazado 66364" d="M252.023,486.357h-8.485l-2.273-8.621h8.485Z" transform="translate(-198.889 -393.826)" fill="#8dcfff"/>
        <path id="Trazado_66365" data-name="Trazado 66365" d="M313.042,486.357h-8.484l-2.273-8.621h8.484Z" transform="translate(-249.191 -393.826)" fill="#fec00f"/>
        <path id="Trazado_66366" data-name="Trazado 66366" d="M374.062,486.357h-8.486l-2.273-8.621h8.484Z" transform="translate(-299.492 -393.826)" fill="#fec00f"/>
        <path id="Trazado_66367" data-name="Trazado 66367" d="M435.081,486.357H426.6l-2.273-8.621h8.484Z" transform="translate(-349.795 -393.826)" fill="#e9f6ff"/>
        <path id="Trazado_66368" data-name="Trazado 66368" d="M496.092,486.357h-8.485l-2.274-8.621h8.485Z" transform="translate(-400.089 -393.826)" fill="#8dcfff"/>
        <path id="Trazado_66369" data-name="Trazado 66369" d="M557.111,486.357h-8.484l-2.274-8.621h8.485Z" transform="translate(-450.391 -393.826)" fill="#73a9ff"/>
        <path id="Trazado_66370" data-name="Trazado 66370" d="M207.047,547.2h-8.485l-2.275-8.621h8.485Z" transform="translate(-161.812 -443.986)" fill="#e9f6ff"/>
        <path id="Trazado_66371" data-name="Trazado 66371" d="M268.071,547.2h-8.484l-2.273-8.621H265.8Z" transform="translate(-212.119 -443.986)" fill="#8dcfff"/>
        <path id="Trazado_66372" data-name="Trazado 66372" d="M329.091,547.2h-8.485l-2.272-8.621h8.484Z" transform="translate(-262.421 -443.986)" fill="#e9f6ff"/>
        <path id="Trazado_66373" data-name="Trazado 66373" d="M390.1,547.2h-8.484l-2.274-8.621h8.485Z" transform="translate(-312.716 -443.986)" fill="#8dcfff"/>
        <path id="Trazado_66374" data-name="Trazado 66374" d="M451.126,547.2h-8.485l-2.272-8.621h8.484Z" transform="translate(-363.022 -443.986)" fill="#8dcfff"/>
        <path id="Trazado_66375" data-name="Trazado 66375" d="M512.139,547.2h-8.485l-2.274-8.621h8.486Z" transform="translate(-413.317 -443.986)" fill="#8dcfff"/>
        <path id="Trazado_66376" data-name="Trazado 66376" d="M573.158,547.2h-8.484l-2.274-8.621h8.485Z" transform="translate(-463.619 -443.986)" fill="#73a9ff"/>
        <path id="Trazado_66377" data-name="Trazado 66377" d="M223.1,608.056h-8.484l-2.273-8.62h8.485Z" transform="translate(-175.044 -494.15)" fill="#8dcfff"/>
        <path id="Trazado_66378" data-name="Trazado 66378" d="M284.117,608.056h-8.484l-2.274-8.62h8.484Z" transform="translate(-225.347 -494.15)" fill="#fec00f"/>
        <path id="Trazado_66379" data-name="Trazado 66379" d="M345.131,608.056h-8.485l-2.274-8.62h8.485Z" transform="translate(-275.643 -494.15)" fill="#8dcfff"/>
        <path id="Trazado_66380" data-name="Trazado 66380" d="M406.153,608.056h-8.484l-2.273-8.62h8.485Z" transform="translate(-325.948 -494.15)" fill="#8dcfff"/>
        <path id="Trazado_66381" data-name="Trazado 66381" d="M467.169,608.056h-8.484l-2.274-8.62H464.9Z" transform="translate(-376.247 -494.15)" fill="#8dcfff"/>
        <path id="Trazado_66382" data-name="Trazado 66382" d="M528.188,608.056H519.7l-2.273-8.62h8.485Z" transform="translate(-426.549 -494.15)" fill="#8dcfff"/>
        <path id="Trazado_66383" data-name="Trazado 66383" d="M589.2,608.056H580.72l-2.273-8.62h8.485Z" transform="translate(-476.848 -494.15)" fill="#73a9ff"/>
        <path id="Trazado_66384" data-name="Trazado 66384" d="M239.147,668.9h-8.484l-2.273-8.621h8.484Z" transform="translate(-188.275 -544.311)" fill="#8dcfff"/>
        <path id="Trazado_66385" data-name="Trazado 66385" d="M300.161,668.9h-8.484l-2.274-8.621h8.485Z" transform="translate(-238.572 -544.311)" fill="#8dcfff"/>
        <path id="Trazado_66386" data-name="Trazado 66386" d="M361.181,668.9H352.7l-2.273-8.621h8.485Z" transform="translate(-288.875 -544.311)" fill="#8dcfff"/>
        <path id="Trazado_66387" data-name="Trazado 66387" d="M422.2,668.9h-8.485l-2.274-8.621h8.486Z" transform="translate(-339.174 -544.311)" fill="#8dcfff"/>
        <path id="Trazado_66388" data-name="Trazado 66388" d="M483.217,668.9h-8.484l-2.273-8.621h8.484Z" transform="translate(-389.476 -544.311)" fill="#0063cb"/>
        <path id="Trazado_66389" data-name="Trazado 66389" d="M544.236,668.9h-8.484l-2.273-8.621h8.485Z" transform="translate(-439.777 -544.311)" fill="#0063cb"/>
        <path id="Trazado_66390" data-name="Trazado 66390" d="M605.253,668.9h-8.485l-2.274-8.621h8.485Z" transform="translate(-490.077 -544.311)" fill="#0063cb"/>
        <line id="Línea_310" data-name="Línea 310" x2="5.869" y2="4.702" transform="translate(76.721 85.655)" fill="none" stroke="#387bff" stroke-width="2.53"/>
        <line id="Línea_311" data-name="Línea 311" x1="3.388" y2="4.702" transform="translate(77.961 85.655)" fill="none" stroke="#387bff" stroke-width="2.53"/>
        <path id="Trazado_66391" data-name="Trazado 66391" d="M592.278,356.793s-6.677-.01-9.291-.6a32.217,32.217,0,0,0-5.369-.677,10.175,10.175,0,0,1-1.881.638c-.5.036-1.482-.748-1.482-.748l-1.892.5s-1.235,1.069-1.447.713c-.082-.137.759-.841.894-.958.268-.234,1.313-.6,1.439-.82.178-.315-1.68-.019-2.016.255a15.212,15.212,0,0,1-1.528,1.077s-.563.112-.507-.106a15.978,15.978,0,0,1,1.953-1.607l1.65-.371-1.873-.219s-1.484.573-1.517.111a9.528,9.528,0,0,1,1.547-.684l2.126-.228s1.132-.021,1.563.019,2.269.628,2.269.628,4.256-.384,5.97-.367c2.5.024,7.2-.1,8.711,0s1.392,3.4.682,3.449" transform="translate(-469.22 -291.044)" fill="#e9d6b8"/>
        <path id="Trazado_66392" data-name="Trazado 66392" d="M592.269,347.766c-.032.181-.012.448.153.516.454.187,1.235.418-.109.7-.5.107,2.97.452,2.97.452s-1.049-.853-1.971-1.435c0,0-1.024-.354-1.043-.237" transform="translate(-488.232 -286.665)" fill="#e9d6b8"/>
        <path id="Trazado_66393" data-name="Trazado 66393" d="M568.937,357.471l1.448-1.07,2.273-.033.117.5s-2.049.177-2.157.158-1.188.6-1.4.665-.383-.106-.284-.22" transform="translate(-468.985 -293.775)" fill="#e9d6b8"/>
        <path id="Trazado_66394" data-name="Trazado 66394" d="M691.3,150.342s-2.915.246-3.825-.863,1.764-.748.557.053-3.9-.639-3.181-1.987,1.852-1.924,2.946-1.136.2,1.234-.214.464,1.251-2.643,2.651.029.643,2.876.165,1.108.642-2.885,1.476-.806-.448,3.1-.768,2.173,2.4-2.888,2.613-1.114.375,3.9-.973,3.923,1.8-4.621,3.032-.82-1.251,2.643-1.346,1.788,4.538.738.943,1.982-2.243-.275-2.545-1.142,3.027,1.418,1.221,3.262-3.527,1.5-3.167-.432,2.4-.919,1.744.681a2.052,2.052,0,0,0,.734,2.716c.384.168-2.481,1.349-3.035-.2s-1.318-9.132.973-9.684" transform="translate(-564.468 -119.957)" fill="#163f59"/>
        <path id="Trazado_66395" data-name="Trazado 66395" d="M682.772,165.069l-1.656,2.142.016.809-1.439,1.948.64,1.114-.3,3.4s-.251,1.83,1.466,1.163l1.718-.668s1.447,4.564.446,5.377-1.708,1.737-1.3,2.242c.37.459,1.352.123,2.359.012a15.981,15.981,0,0,1,3.753.177c.556.027-.214-.308-.366-1.455s-1.095-7.854-1.095-7.854a1.012,1.012,0,0,0,.729-.062c.425-.182,2.333-1.647,1.7-2.492a1.576,1.576,0,0,0-2.486.333c-.461.8-1.3-.054-1.1-1.8s3.7-2.773-.286-3.312c-2.672-.361-2.8-1.073-2.8-1.073" transform="translate(-560.311 -136.076)" fill="#e9d6b8"/>
        <path id="Trazado_66396" data-name="Trazado 66396" d="M569.167,234.244l-9.157-8.375a1.709,1.709,0,0,0-.379,1.408c.627,1.822,3.173,4.546,4.6,6.089a29.481,29.481,0,0,0,4.45,3.8Z" transform="translate(-461.294 -186.197)" fill="#e9d6b8"/>
        <path id="Trazado_66397" data-name="Trazado 66397" d="M550.478,215.965l-1.156-.984a5.2,5.2,0,0,1-1.049-1.175,1.515,1.515,0,0,1,.413-2.037,2.261,2.261,0,0,1,1.081-.654s1,.441.87,1.332.771,2.856.431,3a1.552,1.552,0,0,0-.589.52" transform="translate(-451.774 -174.035)" fill="#e9d6b8"/>
        <path id="Trazado_66398" data-name="Trazado 66398" d="M549.009,201.115l-1.15-1.24-1.122-1.105-.143.324.687.9.367,1.871.454-.249Z" transform="translate(-450.59 -163.857)" fill="#e9d6b8"/>
        <path id="Trazado_66399" data-name="Trazado 66399" d="M541.395,205.289l-1.237-.647-.224.272,1.1.858.8,1.26.772-.58Z" transform="translate(-445.099 -168.699)" fill="#e9d6b8"/>
        <path id="Trazado_66400" data-name="Trazado 66400" d="M538.6,209.38l1.019.453.717.208.494.659-.46.656-.51-.726-1.239-.825Z" transform="translate(-443.998 -172.604)" fill="#e9d6b8"/>
        <path id="Trazado_66401" data-name="Trazado 66401" d="M537.318,215.607l1.947.5.319.491-.289.467-.79-.547-1.047-.589Z" transform="translate(-442.943 -177.738)" fill="#e9d6b8"/>
        <path id="Trazado_66402" data-name="Trazado 66402" d="M558.707,211.171a2.045,2.045,0,0,1-.492-1.591s.286-2.378-.063-2.77a4.113,4.113,0,0,1-.567-1.408s-.3-.379-.425.583a3.991,3.991,0,0,0,.036,1.191,5.886,5.886,0,0,0-.594,1.718c.1.867,1.659,2.39,1.659,2.39s.526-.032.445-.114" transform="translate(-458.838 -169.265)" fill="#e9d6b8"/>
        <path id="Trazado_66403" data-name="Trazado 66403" d="M580.69,237.114l-4.245,1.023-3.991.755-9.9-6.648-2.291,3.951,11.434,9.277,13.375-1.726a28.084,28.084,0,0,0,3.128-7.227c.745-2.872-6.669.475-7.513.595" transform="translate(-461.86 -191.453)" fill="#12344a"/>
        <path id="Trazado_66404" data-name="Trazado 66404" d="M701.712,731.584l.025,1.166,6.478-.138.085-3.134-3.908-.047a15.942,15.942,0,0,1-2.68,2.153" transform="translate(-578.463 -601.313)" fill="#161711"/>
        <path id="Trazado_66405" data-name="Trazado 66405" d="M667.795,392.743s-2.947,19.27-6.266,27.769c-2.939,7.532-6.76-2.1-6.76-2.1l4.972-32.333,9.308-.905s.646.223-1.255,7.571" transform="translate(-539.765 -317.52)" fill="#163f59"/>
        <path id="Trazado_66406" data-name="Trazado 66406" d="M690.036,388.834l-.884,12.4,1.636.917s1.326,18.367,1.652,19.291c1.86,5.285,6.316,2,6.9.208s1.328-14.938.92-24.514l-.41-9.578Z" transform="translate(-568.109 -319.489)" fill="#194866"/>
        <path id="Trazado_66407" data-name="Trazado 66407" d="M707.2,545.261a43.752,43.752,0,0,0-.44,9.483c.152,3.923.756,14.309,1.64,22.031.055.473,3.911.032,3.911.032s1.82-25.164,1.925-30.032c.031-1.466-4.024-5.045-7.037-1.515" transform="translate(-582.584 -448.248)" fill="#194866"/>
        <path id="Trazado_66408" data-name="Trazado 66408" d="M666.74,241.5l.478.459,3.547-2.047,5.147,3.73a43.74,43.74,0,0,1,1.029,10.416c.051,6.962-.54,31.929-.54,31.929l-13.268,1.079-1.4-9.493-.971,8.522-1.618-1.295s3.59-40.163,7.6-43.3" transform="translate(-543.37 -197.775)" fill="#12344a"/>
        <path id="Trazado_66409" data-name="Trazado 66409" d="M643.84,565.408a19.694,19.694,0,0,0,4.535.379c3.434.051-3.833,27.825-3.833,27.825l-4.912-1.687,2.92-27.867Z" transform="translate(-527.285 -464.986)" fill="#163f59"/>
        <path id="Trazado_66410" data-name="Trazado 66410" d="M625.751,722.88l-.412,2.43-2.467.053-2.313.049-3.239.068-.019-.889s3.827-1.415,4.567-2.913,3.883,1.2,3.883,1.2" transform="translate(-508.878 -594.549)" fill="#161711"/>
        <path id="Trazado_66411" data-name="Trazado 66411" d="M694.347,249.215l-1.787-.261-1.84,2.263-.257,6.627,1.942-3.452,2.373-3.775Z" transform="translate(-569.19 -205.228)" fill="#d1dbea"/>
        <path id="Trazado_66412" data-name="Trazado 66412" d="M703.3,239.672l-.243,2.265,4.938-2.772-.57-1.623Z" transform="translate(-579.569 -195.82)" fill="#b0bfde"/>
        <path id="Trazado_66413" data-name="Trazado 66413" d="M699.257,245.987l.243.647-.971,2.1-.081-1.86Z" transform="translate(-575.772 -202.782)" fill="#b0bfde"/>
        <path id="Trazado_66414" data-name="Trazado 66414" d="M686.627,238.769l-4.53,5.07-2.265,5.609L677.566,259.8l5.286-13.268-.539-.431.863-.54a29.013,29.013,0,0,1,3.128-3.775c1.4-1.294,1.4-1.51,1.4-1.51Z" transform="translate(-558.558 -196.831)" fill="#194866"/>
        <path id="Trazado_66415" data-name="Trazado 66415" d="M646.367,259.654s2.68,1.379,1.393,5.36a45.876,45.876,0,0,1-7.623,13.5c-.861,1.119-3.736,3.445-5.872,2.933-1.348-.323-8.575-.646-8.575-.646l-.323-4.854,8.085-.056.789-.148s2.778-4.408,5.1-8.7a24.165,24.165,0,0,1,7.027-7.382" transform="translate(-515.527 -214.048)" fill="#194866"/>
        <path id="Trazado_66416" data-name="Trazado 66416" d="M685.649,255.937s.521-6.836.907-7.247-1.015.775-1.015.775l-.391,1.463-.472,1.773-.971,11Z" transform="translate(-563.62 -204.938)" fill="#194866"/>
        <rect id="Rectángulo_25969" data-name="Rectángulo 25969" width="6.31" height="1.375" transform="translate(120.815 78.074)" fill="#194866"/>
        <path id="Trazado_66417" data-name="Trazado 66417" d="M393.387,1.68l6.74,11.675,6.74,11.675H379.905l6.741-11.675Z" transform="translate(-313.179 -1.385)" fill="none" stroke="#cdd5d7" stroke-miterlimit="10" stroke-width="1.68"/>
        <path id="Trazado_66418" data-name="Trazado 66418" d="M345.518,98.166a7.432,7.432,0,1,1-7.432-7.432,7.433,7.433,0,0,1,7.432,7.432" transform="translate(-272.577 -74.797)" fill="#fdbf14"/>
        <path id="Trazado_66419" data-name="Trazado 66419" d="M512.9,98.166a7.432,7.432,0,1,1-7.432-7.432,7.432,7.432,0,0,1,7.432,7.432" transform="translate(-410.559 -74.797)" fill="#387bff"/>
        <path id="Trazado_66420" data-name="Trazado 66420" d="M530.6,125.094l1.072,1.072,3.217-3.217" transform="translate(-437.409 -101.354)" fill="none" stroke="#fff" stroke-width="4.067"/>
        <path id="Trazado_66421" data-name="Trazado 66421" d="M365.535,123.494h-2.72v-.572l.977-.988q.434-.444.567-.616a1.359,1.359,0,0,0,.192-.318.812.812,0,0,0,.058-.3.443.443,0,0,0-.129-.349.5.5,0,0,0-.345-.114.994.994,0,0,0-.439.1,2.284,2.284,0,0,0-.444.3l-.447-.529a2.918,2.918,0,0,1,.477-.346,1.754,1.754,0,0,1,.413-.156,2.113,2.113,0,0,1,.5-.055,1.479,1.479,0,0,1,.644.133,1.029,1.029,0,0,1,.434.373.99.99,0,0,1,.154.548,1.343,1.343,0,0,1-.095.5,1.934,1.934,0,0,1-.293.483,7.1,7.1,0,0,1-.7.705l-.5.471v.037h1.7Z" transform="translate(-299.081 -98.55)" fill="#fff"/>
      </g>
    </g>
  </g>
</svg>
