<svg id="Grupo_24995" data-name="Grupo 24995" xmlns="http://www.w3.org/2000/svg" xmlns:xlink="http://www.w3.org/1999/xlink" width="305.733" height="291.113" viewBox="0 0 305.733 291.113">
  <defs>
    <clipPath id="clip-path">
      <rect id="Rectángulo_25682" data-name="Rectángulo 25682" width="305.733" height="291.113" fill="none"/>
    </clipPath>
    <clipPath id="clip-path-3">
      <rect id="Rectángulo_25650" data-name="Rectángulo 25650" width="22.957" height="19.536" fill="none"/>
    </clipPath>
    <clipPath id="clip-path-4">
      <rect id="Rectángulo_25651" data-name="Rectángulo 25651" width="39.294" height="50.277" fill="none"/>
    </clipPath>
    <clipPath id="clip-path-5">
      <rect id="Rectángulo_25652" data-name="Rectángulo 25652" width="57.224" height="45.504" fill="none"/>
    </clipPath>
    <clipPath id="clip-path-6">
      <rect id="Rectángulo_25655" data-name="Rectángulo 25655" width="80.64" height="71.149" fill="none"/>
    </clipPath>
    <clipPath id="clip-path-7">
      <rect id="Rectángulo_25653" data-name="Rectángulo 25653" width="69.946" height="62.595" fill="none"/>
    </clipPath>
    <clipPath id="clip-path-8">
      <rect id="Rectángulo_25654" data-name="Rectángulo 25654" width="35.494" height="32.31" fill="none"/>
    </clipPath>
    <clipPath id="clip-path-9">
      <rect id="Rectángulo_25657" data-name="Rectángulo 25657" width="62.468" height="91.327" fill="none"/>
    </clipPath>
    <clipPath id="clip-path-10">
      <rect id="Rectángulo_25671" data-name="Rectángulo 25671" width="56.671" height="66.082" fill="none"/>
    </clipPath>
    <clipPath id="clip-path-11">
      <rect id="Rectángulo_25680" data-name="Rectángulo 25680" width="57.355" height="57.354" fill="none"/>
    </clipPath>
    <clipPath id="clip-path-12">
      <path id="Trazado_64876" data-name="Trazado 64876" d="M15.385,242.963a28.678,28.678,0,1,0,28.677-28.68,28.677,28.677,0,0,0-28.677,28.68" transform="translate(-15.385 -214.283)" fill="none"/>
    </clipPath>
  </defs>
  <g id="Grupo_24994" data-name="Grupo 24994" clip-path="url(#clip-path)">
    <rect id="Rectángulo_25633" data-name="Rectángulo 25633" width="7.427" height="2.036" transform="translate(240.543 45.25) rotate(-83.77)" fill="#5e6178"/>
    <rect id="Rectángulo_25634" data-name="Rectángulo 25634" width="2.033" height="7.428" transform="translate(235.209 38.587) rotate(-83.787)" fill="#5e6178"/>
    <rect id="Rectángulo_25635" data-name="Rectángulo 25635" width="37.568" height="2.033" transform="translate(212.392 61.069) rotate(-38.755)" fill="#5e6178"/>
    <rect id="Rectángulo_25636" data-name="Rectángulo 25636" width="6.873" height="1.39" transform="translate(185.575 7.818) rotate(-83.786)" fill="#5e6178"/>
    <path id="Trazado_64792" data-name="Trazado 64792" d="M210.038,0l-.149,1.381,6.829.744.152-1.381L210.045,0Z" transform="translate(-29.469 0)" fill="#5e6178"/>
    <rect id="Rectángulo_25637" data-name="Rectángulo 25637" width="17.378" height="1.389" transform="matrix(0.779, -0.627, 0.627, 0.779, 172.994, 11.742)" fill="#5e6178"/>
    <rect id="Rectángulo_25638" data-name="Rectángulo 25638" width="9.052" height="2.035" transform="translate(192.978 33.893) rotate(-83.767)" fill="#2c5871"/>
    <rect id="Rectángulo_25639" data-name="Rectángulo 25639" width="2.034" height="9.05" transform="translate(186.278 25.528) rotate(-83.778)" fill="#2c5871"/>
    <rect id="Rectángulo_25640" data-name="Rectángulo 25640" width="22.893" height="2.034" transform="translate(176.443 38.997) rotate(-38.807)" fill="#5e6178"/>
    <rect id="Rectángulo_25641" data-name="Rectángulo 25641" width="7.397" height="1.495" transform="translate(260.264 69.533) rotate(-83.824)" fill="#2c5871"/>
    <rect id="Rectángulo_25642" data-name="Rectángulo 25642" width="1.497" height="7.395" transform="translate(254.711 62.602) rotate(-83.775)" fill="#2c5871"/>
    <rect id="Rectángulo_25643" data-name="Rectángulo 25643" width="19.05" height="1.497" transform="translate(246.462 73.986) rotate(-38.866)" fill="#5e6178"/>
    <rect id="Rectángulo_25644" data-name="Rectángulo 25644" width="7.695" height="1.557" transform="matrix(0.108, -0.994, 0.994, 0.108, 276.67, 38.134)" fill="#5e6178"/>
    <rect id="Rectángulo_25645" data-name="Rectángulo 25645" width="1.556" height="7.694" transform="translate(270.896 30.925) rotate(-83.784)" fill="#5e6178"/>
    <rect id="Rectángulo_25646" data-name="Rectángulo 25646" width="19.799" height="1.556" transform="matrix(0.79, -0.613, 0.613, 0.79, 262.114, 42.463)" fill="#5e6178"/>
    <rect id="Rectángulo_25647" data-name="Rectángulo 25647" width="8.608" height="1.741" transform="translate(238.986 14.386) rotate(-83.817)" fill="#5e6178"/>
    <rect id="Rectángulo_25648" data-name="Rectángulo 25648" width="1.742" height="8.607" transform="translate(232.525 6.321) rotate(-83.769)" fill="#5e6178"/>
    <rect id="Rectángulo_25649" data-name="Rectángulo 25649" width="33.833" height="1.74" transform="translate(213.701 26.702) rotate(-38.457)" fill="#5e6178"/>
    <g id="Grupo_24991" data-name="Grupo 24991">
      <g id="Grupo_24990" data-name="Grupo 24990" clip-path="url(#clip-path)">
        <path id="Trazado_64793" data-name="Trazado 64793" d="M58.6,295.161a2.072,2.072,0,0,1,1.892-1.406,28.459,28.459,0,0,0,6.458-.8,2.086,2.086,0,0,1,2.209.87c.819,1.445,2.053,3.558,2.053,3.558a1.513,1.513,0,0,0,2.061.561l7.945-4.52a1.478,1.478,0,0,0,.525-2.035l-2.035-3.544a2.008,2.008,0,0,1,.311-2.326,27.182,27.182,0,0,0,3.97-5.1,2.075,2.075,0,0,1,2.175-.915l3.99,1.083A1.487,1.487,0,0,0,92,279.532l2.379-8.762a1.527,1.527,0,0,0-1.081-1.849l-3.961-1.049a2.089,2.089,0,0,1-1.432-1.894,26.816,26.816,0,0,0-.836-6.41,2.017,2.017,0,0,1,.879-2.186c1.443-.8,3.57-2.005,3.57-2.005a1.488,1.488,0,0,0,.55-2.042L87.5,245.45a1.523,1.523,0,0,0-2.073-.568L81.857,246.9a2.052,2.052,0,0,1-2.341-.341,28.784,28.784,0,0,0-5.174-3.973,2.008,2.008,0,0,1-.918-2.146l1.067-3.942a1.549,1.549,0,0,0-1.07-1.843l-8.837-2.391a1.505,1.505,0,0,0-1.849,1.033l-1.065,3.958a2.054,2.054,0,0,1-1.912,1.407,26.521,26.521,0,0,0-6.452.815,2.145,2.145,0,0,1-2.2-.879l-2.052-3.568a1.517,1.517,0,0,0-2.059-.55l-7.928,4.494a1.5,1.5,0,0,0-.556,2.06l2.052,3.535a2.023,2.023,0,0,1-.334,2.329,27.491,27.491,0,0,0-3.956,5.119,2.1,2.1,0,0,1-2.215.907l-3.943-1.081a1.507,1.507,0,0,0-1.851,1.045l-2.379,8.748a1.508,1.508,0,0,0,1.064,1.847l3.965,1.068a2.027,2.027,0,0,1,1.423,1.894,27.415,27.415,0,0,0,.874,6.417,1.991,1.991,0,0,1-.915,2.177l-3.556,2.019a1.477,1.477,0,0,0-.522,2.059l4.554,7.855a1.483,1.483,0,0,0,2.046.565l3.571-2.009a2.037,2.037,0,0,1,2.36.33,28.81,28.81,0,0,0,5.15,3.965,2,2,0,0,1,.931,2.171l-1.065,3.924a1.511,1.511,0,0,0,1.072,1.843l8.848,2.4a1.524,1.524,0,0,0,1.843-1.05ZM44.208,261.913a16.489,16.489,0,1,1,11.64,20.072,16.425,16.425,0,0,1-11.64-20.072" transform="translate(-3.627 -32.603)" fill="#5e6178"/>
        <path id="Trazado_64794" data-name="Trazado 64794" d="M106.551,318.489a1.167,1.167,0,0,1,1.2-.334,14.314,14.314,0,0,0,3.34.815,1.065,1.065,0,0,1,.921.842c.149.848.35,2.121.35,2.121a.8.8,0,0,0,.912.647l4.759-.73a.777.777,0,0,0,.65-.906l-.328-2.133a1.036,1.036,0,0,1,.593-1.082,13.525,13.525,0,0,0,2.912-1.784,1.093,1.093,0,0,1,1.261-.038l1.757,1.266A.824.824,0,0,0,126,317l2.807-3.885a.77.77,0,0,0-.176-1.1l-1.755-1.251a1.062,1.062,0,0,1-.36-1.2,15.585,15.585,0,0,0,.8-3.295,1.022,1.022,0,0,1,.844-.909c.886-.162,2.134-.346,2.134-.346a.791.791,0,0,0,.664-.909l-.785-4.72a.789.789,0,0,0-.921-.649l-2.125.321a1.034,1.034,0,0,1-1.093-.6,15.332,15.332,0,0,0-1.815-2.915,1.078,1.078,0,0,1-.041-1.24l1.262-1.742a.785.785,0,0,0-.17-1.092l-3.93-2.819a.807.807,0,0,0-1.093.165l-1.283,1.758a1.062,1.062,0,0,1-1.191.324,15.079,15.079,0,0,0-3.336-.769,1.176,1.176,0,0,1-.94-.845l-.346-2.133a.791.791,0,0,0-.9-.654l-4.777.745a.765.765,0,0,0-.64.908l.346,2.116a1.042,1.042,0,0,1-.619,1.069,16.333,16.333,0,0,0-2.911,1.821,1.086,1.086,0,0,1-1.243.009l-1.757-1.247a.8.8,0,0,0-1.117.179l-2.832,3.875a.757.757,0,0,0,.211,1.071l1.756,1.282a1.1,1.1,0,0,1,.333,1.2,13.756,13.756,0,0,0-.776,3.293,1.1,1.1,0,0,1-.866.928l-2.122.327a.772.772,0,0,0-.656.9l.777,4.734a.759.759,0,0,0,.9.64l2.158-.314a1.056,1.056,0,0,1,1.072.589,14.735,14.735,0,0,0,1.826,2.917,1.047,1.047,0,0,1,.033,1.216l-1.272,1.758a.792.792,0,0,0,.188,1.082l3.913,2.826a.788.788,0,0,0,1.116-.173Zm-.85-19.017a8.708,8.708,0,0,1,12.124-1.887,8.568,8.568,0,0,1,1.988,12.032,8.71,8.71,0,0,1-12.132,1.894,8.571,8.571,0,0,1-1.98-12.039" transform="translate(-13.277 -40.224)" fill="#5e6178"/>
        <path id="Trazado_64795" data-name="Trazado 64795" d="M284.057,155.4A126.015,126.015,0,1,1,158.04,29.394,126.017,126.017,0,0,1,284.057,155.4" transform="translate(-4.497 -4.127)" fill="#5e6178"/>
        <path id="Trazado_64796" data-name="Trazado 64796" d="M75.431,45.465A4.177,4.177,0,0,0,71.2,41.341a4.226,4.226,0,0,0-3.943,2.641A2.759,2.759,0,0,0,63.71,46.55a2.6,2.6,0,0,0,.088.668c-.073-.005-.149-.01-.229-.01a2.181,2.181,0,1,0,0,4.361H75.431a3.052,3.052,0,1,0,0-6.1" transform="translate(-8.612 -5.804)" fill="#5e6178"/>
        <path id="Trazado_64797" data-name="Trazado 64797" d="M56.3,59.491A2.924,2.924,0,0,1,59.264,56.6a2.957,2.957,0,0,1,2.759,1.853,1.922,1.922,0,0,1,.566-.083,1.9,1.9,0,0,1,1.919,1.879,1.946,1.946,0,0,1-.058.47c.051-.005.106-.005.159-.005a1.525,1.525,0,1,1,0,3.05H56.3a2.137,2.137,0,1,1,0-4.273" transform="translate(-7.598 -7.947)" fill="#5e6178"/>
        <path id="Trazado_64798" data-name="Trazado 64798" d="M166.728,34.915A25.12,25.12,0,1,1,141.607,9.8a25.12,25.12,0,0,1,25.121,25.117" transform="translate(-16.355 -1.376)" fill="#f5f5f5"/>
        <path id="Trazado_64799" data-name="Trazado 64799" d="M140.615,65.381a31.005,31.005,0,1,1,31-31.006,31.039,31.039,0,0,1-31,31.006m0-57.712a26.707,26.707,0,1,0,26.707,26.707A26.736,26.736,0,0,0,140.615,7.669" transform="translate(-15.39 -0.473)" fill="#5e6178"/>
        <path id="Trazado_64800" data-name="Trazado 64800" d="M141.138,62.437a27.991,27.991,0,1,1,27.991-27.993,28.022,28.022,0,0,1-27.991,27.993m0-50.808a22.817,22.817,0,1,0,22.817,22.815,22.842,22.842,0,0,0-22.817-22.815" transform="translate(-15.886 -0.906)" fill="#fe5d27"/>
        <path id="Trazado_64801" data-name="Trazado 64801" d="M141.138,62.437a27.991,27.991,0,1,1,27.991-27.994,28.023,28.023,0,0,1-27.991,27.994m0-49.9a21.9,21.9,0,1,0,21.9,21.9,21.929,21.929,0,0,0-21.9-21.9" transform="translate(-15.886 -0.906)" fill="#d9a171"/>
        <path id="Trazado_64802" data-name="Trazado 64802" d="M142.675,54.567A18.585,18.585,0,1,1,161.261,35.98a18.605,18.605,0,0,1-18.586,18.587m0-34.581a16,16,0,1,0,16,15.994,16.012,16.012,0,0,0-16-15.994" transform="translate(-17.423 -2.443)" fill="#d9a171"/>
        <path id="Trazado_64803" data-name="Trazado 64803" d="M143.87,48.448a11.268,11.268,0,1,1,11.268-11.272A11.281,11.281,0,0,1,143.87,48.448m0-19.948a8.678,8.678,0,1,0,8.681,8.676A8.685,8.685,0,0,0,143.87,28.5" transform="translate(-18.618 -3.638)" fill="#d9a171"/>
        <path id="Trazado_64804" data-name="Trazado 64804" d="M145.144,41.917a3.466,3.466,0,1,1,3.466-3.468,3.47,3.47,0,0,1-3.466,3.468" transform="translate(-19.892 -4.912)" fill="#d9a171"/>
        <g id="Grupo_24965" data-name="Grupo 24965" transform="translate(124.455 32.439)" opacity="0.4" style="mix-blend-mode: multiply;isolation: isolate">
          <g id="Grupo_24964" data-name="Grupo 24964">
            <g id="Grupo_24963" data-name="Grupo 24963" clip-path="url(#clip-path-3)">
              <path id="Trazado_64805" data-name="Trazado 64805" d="M167.74,55.926,146.2,37.864c-.365-.3-.908-.014-1.215.351a.865.865,0,0,0,.107,1.216l21.535,17.842c.447-.471,1.062-1.28,1.113-1.347" transform="translate(-144.783 -37.737)" fill="#999c9b"/>
            </g>
          </g>
        </g>
        <path id="Trazado_64806" data-name="Trazado 64806" d="M165.555,9.579l-20.57,24.538a.866.866,0,0,0,.107,1.216l21.593-25.9a.856.856,0,0,0-1.13.15" transform="translate(-20.328 -1.303)" fill="#fcfcfc"/>
        <path id="Trazado_64807" data-name="Trazado 64807" d="M166.735,9.453l-21.593,25.9a.869.869,0,0,0,1.217-.106l20.572-24.538a.863.863,0,0,0-.108-1.214c-.028-.022-.059-.028-.088-.046" transform="translate(-20.379 -1.327)" fill="#c2c2c1"/>
        <path id="Trazado_64808" data-name="Trazado 64808" d="M166.142,10.5,160.581,17.1,159.46,9.473l5.559-6.6Z" transform="translate(-22.389 -0.404)" fill="#dfe3e2"/>
        <path id="Trazado_64809" data-name="Trazado 64809" d="M167.986,12.781l-5.543,6.609,7.7-.2,5.54-6.612Z" transform="translate(-22.808 -1.766)" fill="#9da1a0"/>
        <path id="Trazado_64810" data-name="Trazado 64810" d="M160.494,141.723l-12.3,3.362c-.936-2.339,3.977-12.163,4.47-16.3.732-6.134,12.041-8.809,12.041-8.809s8.293-6.98,28.5,1.78c18.1,2.995,35.861-18.5,35.861-18.5l36.313,48.468s-14.28,9.37-21.971,15.98c-13.192,11.323-8.628,12.961-24.657,28.391L196.5,210.819c-10.633,5.88-25.71,6.337-34.354-3.989L141.228,183.8c-9.544-12.747,5.611-21.9,19.266-42.079" transform="translate(-19.409 -14.498)" fill="#f7ce97"/>
        <g id="Grupo_24968" data-name="Grupo 24968" transform="translate(182.334 106.286)" opacity="0.23" style="mix-blend-mode: multiply;isolation: isolate">
          <g id="Grupo_24967" data-name="Grupo 24967">
            <g id="Grupo_24966" data-name="Grupo 24966" clip-path="url(#clip-path-4)">
              <path id="Trazado_64811" data-name="Trazado 64811" d="M214.766,123.646s31.034,20.175,36.644,49.03c-.282.317-1.362.907-1.554,1.247-.65-8.17-31.368-43.433-37.74-49.55,1.192-.276,2.65-.727,2.65-.727" transform="translate(-212.116 -123.646)" fill="#e0b886"/>
            </g>
          </g>
        </g>
        <path id="Trazado_64812" data-name="Trazado 64812" d="M191.959,215.491l-17.212-14.156,17.721,13.136,2.8,1.446c5.322,4.179,12.9,1.607,15.184-1.7,2.042-2.965,3.054-6.933-1.151-10.829l-8.769-6.44-10.492-8.227L206.769,201c5.447,4.284,12.811,3.617,16.035-.865,2.364-3.283,2.483-9.993-6.751-16.831-8.554-6.334-11.372-7.911-16.959-11.565,0,0-37.158-26.279-44.764-44.457a31.608,31.608,0,0,0-22.141-.4c-8.038,1.445-26.231-10.221-26.231-10.221L77.306,157.083s13.6,3.916,17.617,18.281c2.9,10.388,20.55,28.4,45.257,46.87,0,0,10.246,5.959,15.563,10.182,4.6,3.654,12.771,5.021,16.965.258,6.591-7.489-7.992-13.715-12.511-17.79l16.947,11.8c5.287,4.166,11.774,3.321,15.169-.6,1.209-1.393,4.151-5.585-.354-10.594" transform="translate(-10.854 -16.379)" fill="#ffe6b5"/>
        <path id="Trazado_64813" data-name="Trazado 64813" d="M208.455,200.49l10.492,8.226,5.318,3.905.375-.252Z" transform="translate(-29.268 -28.15)" fill="#ebc68f"/>
        <path id="Trazado_64814" data-name="Trazado 64814" d="M204.075,226.2c.291-.146.579-.29.869-.443l-14.282-10.589Z" transform="translate(-26.77 -30.21)" fill="#ebc68f"/>
        <path id="Trazado_64815" data-name="Trazado 64815" d="M225.724,191.675c-5.812-4.191-12.585-8.894-19.133-13,2.212,4.339,4.945,9.725,2.2,13.041-4.345,5.242-9.854,2.058-11.986,1.524.915,2.58,4.066,7.258-1.27,12.069-4.1,4.4-10.975,2.132-17.341-1.315,5.39,5.391,4.073,13.619,1.281,15.927-3.45,4.146-11.126,5.911-15.62.517,3.937,10.368-5.773,15.433-14.939,9.628l1.319.993s10.247,5.96,15.564,10.18c4.6,3.658,12.77,5.022,16.964.259,6.591-7.486-7.992-13.716-12.51-17.789L187.2,235.5c5.287,4.166,11.773,3.321,15.168-.6,1.209-1.4,4.151-5.584-.354-10.595L184.8,210.159,202.523,223.3l2.8,1.446c5.322,4.179,12.9,1.6,15.184-1.7,2.042-2.961,3.054-6.931-1.15-10.828l-8.768-6.441L200.1,197.543l16.728,12.276c5.446,4.285,12.747,3.572,16.034-.864,3.04-4.1,1.032-11.388-7.134-17.28" transform="translate(-20.908 -25.087)" fill="#f7d69f"/>
        <g id="Grupo_24971" data-name="Grupo 24971" transform="translate(154.291 125.161)" opacity="0.23" style="mix-blend-mode: multiply;isolation: isolate">
          <g id="Grupo_24970" data-name="Grupo 24970">
            <g id="Grupo_24969" data-name="Grupo 24969" clip-path="url(#clip-path-5)">
              <path id="Trazado_64816" data-name="Trazado 64816" d="M220.551,177.268c-14.058-10.718-31.653-22.426-36.688-31.663h0a23.059,23.059,0,0,1-4.373.876c13.4,15.086,33.5,29.054,33.5,29.054,5.368,3.1,9.219,6.079,17.414,11.831a21.418,21.418,0,0,1,4.149,3.743c.739-.977,1.577-2.145,2.167-3,0,0-13.355-8.7-16.165-10.84" transform="translate(-179.492 -145.605)" fill="#e0b886"/>
            </g>
          </g>
        </g>
        <path id="Trazado_64817" data-name="Trazado 64817" d="M177.156,121.669c.193-5.944-28.894,3.729-28.894,3.729-7.953,3.71-7.7,8.618-22.245,14.964-10.6,4.631-7.766,7.614-3.849,11.672s19.115,5.2,27.485-2.538c7.093-6.556,15.3-6.077,21.295-6.646,4.3-.407,24.44-5.7,6.027-10.962-3.34-.954-4.793.225-5.785-.807Z" transform="translate(-16.658 -16.812)" fill="#f7ce97"/>
        <g id="Grupo_24980" data-name="Grupo 24980" transform="translate(83.988 147.244)" opacity="0.32" style="mix-blend-mode: multiply;isolation: isolate">
          <g id="Grupo_24979" data-name="Grupo 24979">
            <g id="Grupo_24978" data-name="Grupo 24978" clip-path="url(#clip-path-6)">
              <g id="Grupo_24974" data-name="Grupo 24974" opacity="0.42" style="mix-blend-mode: multiply;isolation: isolate">
                <g id="Grupo_24973" data-name="Grupo 24973">
                  <g id="Grupo_24972" data-name="Grupo 24972" clip-path="url(#clip-path-7)">
                    <path id="Trazado_64818" data-name="Trazado 64818" d="M165.575,198.057c-3.412-4.047-9.826-4.258-14.325-.461l-1.2,1.013c3.927-3.746,4.736-9.549,1.641-13.473-3.311-4.185-9.754-4.6-14.413-.921l-1.982,1.563a9.7,9.7,0,0,0,.07-10.23c-2.952-4.575-9.473-5.623-14.554-2.34l-17.793,11.48c-5.091,3.276-6.825,9.65-3.867,14.225s9.467,5.625,14.554,2.342L124.5,194.3l-11.532,9.1c-4.645,3.67-5.738,10.044-2.437,14.233s9.77,4.6,14.412.93l22.719-17.94L128.8,216.52c-4.494,3.787-5.38,10.143-1.965,14.195s9.828,4.257,14.33.459l22.437-18.92c4.5-3.787,5.378-10.146,1.968-14.2" transform="translate(-97.706 -171.294)" fill="#ab763a"/>
                  </g>
                </g>
              </g>
              <g id="Grupo_24977" data-name="Grupo 24977" transform="translate(45.147 38.839)" opacity="0.42" style="mix-blend-mode: multiply;isolation: isolate">
                <g id="Grupo_24976" data-name="Grupo 24976">
                  <g id="Grupo_24975" data-name="Grupo 24975" clip-path="url(#clip-path-8)">
                    <path id="Trazado_64819" data-name="Trazado 64819" d="M182.143,231.768c3.965-3.323,4.753-8.908,1.768-12.48s-8.621-3.77-12.587-.45L153.812,233.5c-3.968,3.313-4.766,8.9-1.773,12.472s8.625,3.775,12.586.455Z" transform="translate(-150.227 -216.477)" fill="#ab763a"/>
                  </g>
                </g>
              </g>
            </g>
          </g>
        </g>
        <path id="Trazado_64820" data-name="Trazado 64820" d="M130.78,175.754c-2.95-4.578-9.469-5.625-14.551-2.34L98.437,184.9c-5.091,3.275-6.823,9.649-3.866,14.223s9.466,5.63,14.555,2.345l17.794-11.476c5.087-3.281,6.821-9.651,3.86-14.232" transform="translate(-13.075 -24.079)" fill="#f7ce97"/>
        <path id="Trazado_64821" data-name="Trazado 64821" d="M148.888,187.043c-3.3-4.184-9.753-4.6-14.409-.924l-24.31,19.188c-4.646,3.668-5.738,10.038-2.437,14.227s9.767,4.6,14.413.932l24.307-19.19c4.649-3.68,5.744-10.043,2.437-14.233" transform="translate(-14.858 -25.78)" fill="#f7ce97"/>
        <path id="Trazado_64822" data-name="Trazado 64822" d="M165.413,202.114c-3.411-4.042-9.827-4.249-14.327-.459L128.64,220.581c-4.491,3.783-5.376,10.143-1.962,14.2,3.411,4.038,9.829,4.257,14.329.456l22.44-18.919c4.5-3.789,5.378-10.145,1.966-14.2" transform="translate(-17.494 -27.932)" fill="#f7ce97"/>
        <path id="Trazado_64823" data-name="Trazado 64823" d="M179.332,219.5c-2.985-3.566-8.621-3.776-12.59-.449L149.229,233.7c-3.964,3.315-4.761,8.9-1.772,12.469s8.629,3.781,12.588.46l17.515-14.656c3.969-3.325,4.756-8.911,1.772-12.48" transform="translate(-20.449 -30.423)" fill="#f7ce97"/>
        <path id="Trazado_64824" data-name="Trazado 64824" d="M132.807,147.091c-4.95,1.922-15.789-.321-10.481-2.764,7.708-3.573,5.3-2.22,7.884-3.536a35.906,35.906,0,0,0,9.2-6.378c1.074,2.761-1.664,10.757-6.606,12.678" transform="translate(-16.974 -18.872)" fill="#f7dfc1"/>
        <path id="Trazado_64825" data-name="Trazado 64825" d="M123.838,183.314c1.95,3.018,5.5,4.194,7.931,2.623s2.825-5.285.876-8.307-5.5-4.185-7.931-2.619-2.822,5.287-.875,8.3" transform="translate(-17.213 -24.475)" fill="#f7dfc1"/>
        <path id="Trazado_64826" data-name="Trazado 64826" d="M143.676,194.916c1.944,3.017,5.5,4.191,7.926,2.627s2.825-5.293.881-8.306-5.5-4.191-7.932-2.622-2.823,5.287-.875,8.3" transform="translate(-19.999 -26.104)" fill="#f7dfc1"/>
        <path id="Trazado_64827" data-name="Trazado 64827" d="M160.243,210.506c1.95,3.019,5.5,4.191,7.926,2.622s2.826-5.281.88-8.308-5.5-4.185-7.929-2.623c-2.435,1.58-2.823,5.294-.878,8.309" transform="translate(-22.325 -28.292)" fill="#f7dfc1"/>
        <path id="Trazado_64828" data-name="Trazado 64828" d="M173.891,227.416c1.754,2.716,4.944,3.771,7.126,2.36s2.549-4.755.8-7.468-4.946-3.767-7.133-2.355-2.537,4.754-.788,7.464" transform="translate(-24.259 -30.794)" fill="#f7dfc1"/>
        <path id="Trazado_64829" data-name="Trazado 64829" d="M262.731,165.926l5.289-3.962L228.6,109.545l-5.286,3.966Z" transform="translate(-31.354 -15.381)" fill="#fff"/>
        <rect id="Rectángulo_25656" data-name="Rectángulo 25656" width="60.89" height="6.128" transform="matrix(0.618, -0.787, 0.787, 0.618, 68.309, 148.031)" fill="#fff"/>
        <path id="Trazado_64830" data-name="Trazado 64830" d="M271.058,158.787l36.321-28.259A125.63,125.63,0,0,0,269.4,67.753l-42.139,32.792Z" transform="translate(-31.908 -9.513)" fill="#d9a171"/>
        <path id="Trazado_64831" data-name="Trazado 64831" d="M251.968,133.208l22.559,30,36.321-28.259a124.988,124.988,0,0,0-15.225-35.711Z" transform="translate(-35.377 -13.933)" fill="#a66d58"/>
        <path id="Trazado_64832" data-name="Trazado 64832" d="M257.2,100.1a4.439,4.439,0,1,0,.888-6.214,4.445,4.445,0,0,0-.888,6.214" transform="translate(-35.987 -13.057)" fill="#fff"/>
        <path id="Trazado_64833" data-name="Trazado 64833" d="M244.08,109.967a4.436,4.436,0,1,0,.882-6.211,4.441,4.441,0,0,0-.882,6.211" transform="translate(-34.145 -14.443)" fill="#fff"/>
        <path id="Trazado_64834" data-name="Trazado 64834" d="M51.668,99.309l42.871,34.3,23.243-29.619L75.038,69.79a126.218,126.218,0,0,0-23.37,29.519" transform="translate(-7.254 -9.799)" fill="#aed3f2"/>
        <path id="Trazado_64835" data-name="Trazado 64835" d="M68.768,168.347l23.477-29.915-42.871-34.3a124.845,124.845,0,0,0-14.05,37.46Z" transform="translate(-4.96 -14.62)" fill="#6595bf"/>
        <g id="Grupo_24983" data-name="Grupo 24983" transform="translate(243.266 122.903)" opacity="0.24" style="mix-blend-mode: multiply;isolation: isolate">
          <g id="Grupo_24982" data-name="Grupo 24982">
            <g id="Grupo_24981" data-name="Grupo 24981" clip-path="url(#clip-path-9)">
              <path id="Trazado_64836" data-name="Trazado 64836" d="M340.589,152.74H318.781a6.366,6.366,0,0,1-.348-3.7,4.5,4.5,0,0,0,.232-.966c.046-.143.076-.231.078-.237l-.052-.02c.008-.108.034-.211.034-.324a4.512,4.512,0,0,0-9.024,0c0,.117.027.224.033.338l-.056.022c0,.005.037.1.085.25a4.445,4.445,0,0,0,.226.928,6.36,6.36,0,0,1-.344,3.713H287.88a4.881,4.881,0,0,0-4.88,4.88v71.807a4.879,4.879,0,0,0,4.88,4.878h52.71a4.879,4.879,0,0,0,4.879-4.878V157.62a4.881,4.881,0,0,0-4.879-4.88M314.213,144.8l.022,0v5.383h-.022a2.687,2.687,0,0,1-2.6-2.017c-.021-.1-.04-.2-.058-.281a2.726,2.726,0,0,1-.04-.395,2.7,2.7,0,0,1,2.693-2.693m-2.42,6.488a4.442,4.442,0,0,0,4.845,0l.435,1.459h-5.542a8.164,8.164,0,0,0,.262-1.455" transform="translate(-283 -142.978)" fill="#636363"/>
            </g>
          </g>
        </g>
        <path id="Rectángulo_25658" data-name="Rectángulo 25658" d="M5.675,0H56.791a5.677,5.677,0,0,1,5.677,5.677V75.889a5.676,5.676,0,0,1-5.676,5.676H5.676A5.676,5.676,0,0,1,0,75.889V5.675A5.675,5.675,0,0,1,5.675,0Z" transform="translate(239.83 127.479)" fill="#6595bf"/>
        <path id="Trazado_64837" data-name="Trazado 64837" d="M338.6,153.736H283v72.222h44.185l11.412-12.9Z" transform="translate(-39.734 -21.585)" fill="#f5f5f5"/>
        <path id="Trazado_64838" data-name="Trazado 64838" d="M302.558,156.023h21.33a2.285,2.285,0,0,0,2.286-2.287h-25.9a2.284,2.284,0,0,0,2.284,2.287" transform="translate(-42.16 -21.585)" fill="#919191"/>
        <rect id="Rectángulo_25659" data-name="Rectángulo 25659" width="11.111" height="9.751" transform="translate(247.904 143.579)" fill="#c9c9c9"/>
        <rect id="Rectángulo_25660" data-name="Rectángulo 25660" width="29.718" height="0.913" transform="translate(263.437 144.16)" fill="#454545"/>
        <rect id="Rectángulo_25661" data-name="Rectángulo 25661" width="29.718" height="0.915" transform="translate(263.437 147.998)" fill="#454545"/>
        <rect id="Rectángulo_25662" data-name="Rectángulo 25662" width="29.718" height="0.914" transform="translate(263.437 151.836)" fill="#454545"/>
        <path id="Trazado_64839" data-name="Trazado 64839" d="M294.157,172.593l.44-.58.454-.592c.306-.394.617-.793.932-1.193.628-.8,1.27-1.6,1.91-2.386,1.278-1.573,2.545-3.087,3.664-4.408,2.238-2.642,3.893-4.505,3.893-4.505l-11.058,16-7.573-7.526s6.7,4.662,7.011,4.925l.236.2.059.05.022.017h0l0,0Z" transform="translate(-40.271 -22.314)" fill="#de6747"/>
        <rect id="Rectángulo_25663" data-name="Rectángulo 25663" width="11.111" height="9.752" transform="translate(247.904 164.146)" fill="#c9c9c9"/>
        <rect id="Rectángulo_25664" data-name="Rectángulo 25664" width="29.718" height="0.915" transform="translate(263.437 164.729)" fill="#454545"/>
        <rect id="Rectángulo_25665" data-name="Rectángulo 25665" width="29.718" height="0.913" transform="translate(263.437 168.569)" fill="#454545"/>
        <rect id="Rectángulo_25666" data-name="Rectángulo 25666" width="29.718" height="0.914" transform="translate(263.437 172.405)" fill="#454545"/>
        <path id="Trazado_64840" data-name="Trazado 64840" d="M294.157,196.522l.44-.58.454-.593q.459-.593.932-1.193c.628-.8,1.27-1.6,1.91-2.386,1.278-1.573,2.545-3.087,3.664-4.408,2.238-2.641,3.893-4.505,3.893-4.505l-11.058,16-7.573-7.526s6.7,4.662,7.011,4.925l.236.2.059.051c.009.005.027.022.022.018h0l0,0Z" transform="translate(-40.271 -25.674)" fill="#de6747"/>
        <rect id="Rectángulo_25667" data-name="Rectángulo 25667" width="11.111" height="9.751" transform="translate(247.904 184.715)" fill="#c9c9c9"/>
        <rect id="Rectángulo_25668" data-name="Rectángulo 25668" width="29.718" height="0.913" transform="translate(263.437 185.297)" fill="#454545"/>
        <rect id="Rectángulo_25669" data-name="Rectángulo 25669" width="29.718" height="0.913" transform="translate(263.437 189.136)" fill="#454545"/>
        <rect id="Rectángulo_25670" data-name="Rectángulo 25670" width="29.718" height="0.915" transform="translate(263.437 192.972)" fill="#454545"/>
        <path id="Trazado_64841" data-name="Trazado 64841" d="M294.157,220.449l.44-.579.454-.593q.459-.594.932-1.193c.628-.8,1.27-1.6,1.91-2.385,1.278-1.576,2.545-3.089,3.664-4.409,2.238-2.642,3.893-4.506,3.893-4.506L294.392,222.79l-7.573-7.527s6.7,4.662,7.011,4.926l.236.2.059.052.022.017h0l0,0Z" transform="translate(-40.271 -29.033)" fill="#de6747"/>
        <path id="Trazado_64842" data-name="Trazado 64842" d="M345.938,222.857l-11.409-.265-.3,12.9Z" transform="translate(-46.927 -31.253)" fill="#cfcfcf"/>
        <path id="Trazado_64843" data-name="Trazado 64843" d="M325.223,151.378h.951a2.284,2.284,0,0,0-2.286-2.284H320.07a5.5,5.5,0,0,1-2-1.83,6.052,6.052,0,0,1-.649-4.261,4.582,4.582,0,0,0,.231-.966c.046-.144.077-.231.078-.237l-.052-.02c.008-.108.034-.212.034-.325a4.512,4.512,0,0,0-9.023,0c0,.118.027.226.034.338l-.057.022c0,.006.037.1.085.251a4.459,4.459,0,0,0,.225.928,6.044,6.044,0,0,1-.643,4.273,5.486,5.486,0,0,1-1.982,1.827h-3.793a2.284,2.284,0,0,0-2.285,2.284ZM313.2,138.764l.021,0v5.382H313.2a2.689,2.689,0,0,1-2.6-2.017c-.019-.1-.039-.2-.058-.281a2.621,2.621,0,0,1-.04-.4,2.7,2.7,0,0,1,2.693-2.691m3.312,9.457a5.991,5.991,0,0,0,.612.873h-7.852a6.444,6.444,0,0,0,.612-.86,7.1,7.1,0,0,0,.9-2.984,4.447,4.447,0,0,0,4.845,0Z" transform="translate(-42.16 -19.228)" fill="#bfbfbf"/>
        <path id="Trazado_64844" data-name="Trazado 64844" d="M226.217,315.837a3.386,3.386,0,0,0,3.385,3.386h20.62l11.463,12.07-.738-12.07h4.267a3.385,3.385,0,0,0,3.388-3.386V289.56a3.389,3.389,0,0,0-3.388-3.388H229.6a3.39,3.39,0,0,0-3.385,3.388Z" transform="translate(-31.762 -40.18)" fill="#5e6178"/>
        <path id="Trazado_64845" data-name="Trazado 64845" d="M226.217,289.808v25.833h29.005a3.7,3.7,0,0,0,3.744-3.694V286.114c0-.017-.009-.038-.009-.054H229.964a3.75,3.75,0,0,0-3.747,3.748" transform="translate(-31.762 -40.164)" fill="#525466"/>
        <path id="Trazado_64846" data-name="Trazado 64846" d="M250.351,307.312a3.744,3.744,0,0,1-3.744,3.741H221.8l-12.687,13.354.82-13.354h-4.725a3.743,3.743,0,0,1-3.744-3.741v-27.24a3.743,3.743,0,0,1,3.744-3.743h41.4a3.744,3.744,0,0,1,3.744,3.743Z" transform="translate(-28.286 -38.798)" fill="#fff"/>
        <path id="Trazado_64847" data-name="Trazado 64847" d="M201.465,296.5v13.643a3.743,3.743,0,0,0,3.744,3.741h4.726l-.821,13.354L221.8,313.885h24.805a3.745,3.745,0,0,0,3.744-3.741V296.5Z" transform="translate(-28.286 -41.63)" fill="#e9f0f5"/>
        <path id="Trazado_64848" data-name="Trazado 64848" d="M221.541,296.03a2.884,2.884,0,1,1-2.887-2.883,2.887,2.887,0,0,1,2.887,2.883" transform="translate(-30.295 -41.159)" fill="#6595bf"/>
        <path id="Trazado_64849" data-name="Trazado 64849" d="M232.315,296.03a2.882,2.882,0,1,1-2.88-2.883,2.884,2.884,0,0,1,2.88,2.883" transform="translate(-31.809 -41.159)" fill="#6595bf"/>
        <path id="Trazado_64850" data-name="Trazado 64850" d="M243.09,296.03a2.882,2.882,0,1,1-2.879-2.883,2.881,2.881,0,0,1,2.879,2.883" transform="translate(-33.322 -41.159)" fill="#6595bf"/>
        <g id="Grupo_24986" data-name="Grupo 24986" transform="translate(4.057 89.682)" opacity="0.24" style="mix-blend-mode: multiply;isolation: isolate">
          <g id="Grupo_24985" data-name="Grupo 24985">
            <g id="Grupo_24984" data-name="Grupo 24984" clip-path="url(#clip-path-10)">
              <path id="Trazado_64851" data-name="Trazado 64851" d="M56.334,125.923V111.435H40.716l-7.659-7.1-7.66,7.1H9.778v14.488l-5.058,4.69V169.56a.861.861,0,0,0,.87.851H60.521a.862.862,0,0,0,.871-.851V130.613Z" transform="translate(-4.72 -104.33)" fill="#636363"/>
            </g>
          </g>
        </g>
        <path id="Trazado_64852" data-name="Trazado 64852" d="M56.671,169.053a.862.862,0,0,1-.87.851H.869A.861.861,0,0,1,0,169.053V130.1H56.671Z" transform="translate(0 -18.267)" fill="#c1906b"/>
        <path id="Trazado_64853" data-name="Trazado 64853" d="M28.337,99.53l28.334,26.283H0Z" transform="translate(0 -13.974)" fill="#d9a171"/>
        <rect id="Rectángulo_25672" data-name="Rectángulo 25672" width="46.557" height="49.465" transform="translate(5.057 92.66)" fill="#fff"/>
        <rect id="Rectángulo_25673" data-name="Rectángulo 25673" width="24.267" height="0.86" transform="translate(22.1 97.795)" fill="#f2e9e4"/>
        <rect id="Rectángulo_25674" data-name="Rectángulo 25674" width="27.768" height="0.86" transform="translate(18.599 102.867)" fill="#f2e9e4"/>
        <rect id="Rectángulo_25675" data-name="Rectángulo 25675" width="36.064" height="0.86" transform="translate(10.303 107.939)" fill="#f2e9e4"/>
        <rect id="Rectángulo_25676" data-name="Rectángulo 25676" width="36.064" height="0.86" transform="translate(10.303 113.01)" fill="#f2e9e4"/>
        <rect id="Rectángulo_25677" data-name="Rectángulo 25677" width="36.064" height="0.86" transform="translate(10.303 118.083)" fill="#f2e9e4"/>
        <rect id="Rectángulo_25678" data-name="Rectángulo 25678" width="36.064" height="0.86" transform="translate(10.303 123.154)" fill="#f2e9e4"/>
        <rect id="Rectángulo_25679" data-name="Rectángulo 25679" width="36.064" height="0.86" transform="translate(10.303 128.223)" fill="#f2e9e4"/>
        <path id="Trazado_64854" data-name="Trazado 64854" d="M56.671,172.466v-1.173l-20.606-16.88h-15.5L0,171.251v1.215a.861.861,0,0,0,.869.851H55.8a.862.862,0,0,0,.87-.851" transform="translate(0 -21.68)" fill="#d9a171"/>
        <path id="Trazado_64855" data-name="Trazado 64855" d="M62.561,167.905V130.283L41.955,151.026Z" transform="translate(-5.891 -18.292)" fill="#a66d58"/>
        <path id="Trazado_64856" data-name="Trazado 64856" d="M0,167.905V130.283l20.609,20.742Z" transform="translate(0 -18.292)" fill="#a66d58"/>
        <g id="Grupo_24989" data-name="Grupo 24989" transform="translate(17.843 186.911)" opacity="0.24" style="mix-blend-mode: multiply;isolation: isolate">
          <g id="Grupo_24988" data-name="Grupo 24988">
            <g id="Grupo_24987" data-name="Grupo 24987" clip-path="url(#clip-path-11)">
              <path id="Trazado_64857" data-name="Trazado 64857" d="M49.434,217.44a28.677,28.677,0,1,0,28.678,28.679A28.679,28.679,0,0,0,49.434,217.44" transform="translate(-20.757 -217.44)" fill="#636363" fill-rule="evenodd"/>
            </g>
          </g>
        </g>
        <path id="Trazado_64858" data-name="Trazado 64858" d="M72.741,242.963a28.678,28.678,0,1,1-28.679-28.68,28.678,28.678,0,0,1,28.679,28.68" transform="translate(-2.16 -30.086)" fill="#fff" fill-rule="evenodd"/>
      </g>
    </g>
    <g id="Grupo_24993" data-name="Grupo 24993" transform="translate(13.225 184.197)">
      <g id="Grupo_24992" data-name="Grupo 24992" clip-path="url(#clip-path-12)">
        <path id="Trazado_64859" data-name="Trazado 64859" d="M40.7,221.018c.095.413.536.371.87.466-.354.322-.412,1.01-.689,1.427-.85-.185-1.032.832-1.417,1.369-.337.147-.895-.094-1.161.21a1.745,1.745,0,0,1-.037.509c-.289.376-.9.2-1.272.685-.382.5-.584,1.13-.868,1.3-.452.26-1.19-.305-.615-.866.006-.218-.183-.178-.146-.442,1.08-.619.6-2.236,0-2.907-.28.014-.623.118-.723-.1.3-.924,1.515-.727,2.136-1.171,1.086.07,2.329-.327,3.378-.166a.488.488,0,0,0,.544-.307" transform="translate(-18.088 -215.229)" fill="#aed3f2" fill-rule="evenodd"/>
        <path id="Trazado_64860" data-name="Trazado 64860" d="M63.651,224.028c-.017.359-.384.243-.4.61.732.372,2.653-.008,3.781.694.621.384,1.234,1.019,2.186.8.128-.028.248-.258.394-.261a6.524,6.524,0,0,1,.966.309c1.283.309,3.37,1.76,4.658,1.789.123.006.189-.143.32-.162.7-.078,1.619.806,2.223,1.105.005.278-.238.236-.28.458.028.3.479.254.6.477-.178.62-.835.4-1.552.341-.023-.5-.6-1.146-.847-.563-.468-.384-.947-.168-.958.4-1.982-1.52-3.453,1.693-1.135,1.624.7.5,1.216,2.124.494,2.855-.739-.283-.811.877-.78,1.429-.257-.162-.3-.548-.605-.667-.166-.045-.227.038-.357.048-.781-1.058-1.871.932-.389,1.019-.015.973.779,1.414.891,2.373-.126.755-.294,1.458-.854,1.7-.145-.021-.312-.178-.429-.1-.394.833-2.1-.046-1.715,1.65.142.621,1.246.664,1,1.834a2.281,2.281,0,0,1-.68.542c-.521-.238-.849-1.356-1.541-.873a3.282,3.282,0,0,0-.571-1.363c-.243-.067-.218.193-.43.165a4.156,4.156,0,0,0-1.365-2.178c-.174,0-.126.277-.217.382-.143.027-.209-.045-.321-.051-.446.858-1.219,1.307-1.661,2.071-.176.306.07,2.35-.468,2.291a12.274,12.274,0,0,1-1.227-3.553c-.027-.754-.12-1.162-.578-.542-.144-.139.02-.26,0-.5-.879-.681-1.454-1.371-2.932-.964-.223-.144-.27-.511-.471-.695-.2-.01-.3.1-.433.174-.5.09-1.575-2.117-1.779-.954-.151.879,1.177,2.963,1.924,1.959a3.473,3.473,0,0,1,.8.607c-.5,1.76-1.817,2.492-3.228,3.132-.453-2.276-1.651-3.627-2.324-5.654-.181-.138-.324.234-.435-.054a3.015,3.015,0,0,0,.545-2.589c-.607-.066-1.981.507-2-.778.315-.01.3-.308.545-.456.762-.466,2.544.909,2.582-.358.017-.694-.614-.689-.873-1.134-.018-.26.157-.454.073-.648-1.163.05-2.718-.291-2.546,1.943-.491-.066-1.068-.077-1.124.544-.006-.5-2.048-3.014-2.219-1.925-.1.633.5.738.579,1.26-.68.043-.554-1.029-1.055-1.119a8.069,8.069,0,0,0-1.27.284c-.74.242-.864,2.745-2.075,2.493-.67-.138-.646-1.027-.4-2.042,1.2.372,2.213-.518,1.419-1.7.652-.49.984-1.052,1.633-1.6.891-.757,2.953.258,3.24-1.291.418.052.564-.311.509-.739a.946.946,0,0,0,.946-.3c-.1-.785-.913-.469-1.346-.309-.655-.681.426-.861.4-1.343-.055-1.033-2.458.578-1.6,1.607-.28.26-.165,1.031-.655,1.025-.164-.859-.526-1.4-1.2-.793-.083-.287.087-.48,0-.839.908-.2,1.279-1.7,2.074-2.14,1.2-.669,2.6-.015,3.707.559-.365.446-1.025-.486-1.381-.049.225.885,1.43,1.753,1.853.577,1.1-.537,2.281-.411,3.377-.867.954.652,1.678.32.76-.678.476-.2.676.658.944.992-1.021.5.64,1.3.725.291.211.038.48.307.651.107.059-.517-.4-.444-.47-.815.07-.225.311-.214.507-.267.6-1.426,2.415-.987,3.868-.606" transform="translate(-19.337 -215.598)" fill="#aed3f2" fill-rule="evenodd"/>
        <path id="Trazado_64861" data-name="Trazado 64861" d="M30.308,225.257a.461.461,0,0,1-.505.158c.01-.318.555-.785.505-.158" transform="translate(-17.409 -215.78)" fill="#aed3f2" fill-rule="evenodd"/>
        <path id="Trazado_64862" data-name="Trazado 64862" d="M25.3,225.975c-.246.877-1.252.337-1.723.257.39-.447,1.263-.142,1.723-.257" transform="translate(-16.535 -215.925)" fill="#aed3f2" fill-rule="evenodd"/>
        <path id="Trazado_64863" data-name="Trazado 64863" d="M31.961,225.45c.05.125-.021.2,0,.4.1.263.455.187.506.525-.2.143-.235-.223-.432-.219-.7.4-.784-.668-1.264-.831.377-.578.787.07,1.191.121" transform="translate(-17.545 -215.8)" fill="#aed3f2" fill-rule="evenodd"/>
        <path id="Trazado_64864" data-name="Trazado 64864" d="M22.007,227.683a2.567,2.567,0,0,1,2.118-.374,6.893,6.893,0,0,0,1-.885c.126.179.371.193.4.512-.159.335-.557.013-.791.2-.124.124-.043.295-.036.481a2.71,2.71,0,0,1-.684.139c-.141.9-1.326,1.031-1.364,1.9-.046,1.063,1.419,1.148,1.582,2.244,1.1-.443,1.821-2.152,2.3-3.481a.928.928,0,0,1,.828-.094c-.062,1.074.6,1.223,1.23.714.047.435-.019.849.25,1.137.023.262-.227.215-.18.505.134.348.446-.175.65-.011-.837,1.177-3.061.621-3.533,2.25.274.434,1.05-.849,1.115.126-.712.361-1.5.64-1.765,1.5a.983.983,0,0,0-.862.716l-.394.031c-.467.413-.285,1.027-.575,1.584-.388.739-1.845.719-1.4,2.374-.268-.081-.086-.707-.321-.826-1.172.018-3.212.006-3.57,1.191a3.687,3.687,0,0,0,.145,2.82c1.107.441,1.236-.773,1.887-.864a10.8,10.8,0,0,0-.5,1.491c.82.128,1.579.376,1,1.613-.178-.359-.413-.654-.6-.992-.8.147-.942-.879-1.64-.928a2.362,2.362,0,0,1-2.135-.91c.311-.729-.252-1.065-.5-1.585-.3-.652-.469-1.871-1.2-1.815a2.605,2.605,0,0,1-.318-2.985c.305-.642,1.331-1.275,1.413-1.9.038-.266-.211-.545-.246-.737-.129-.689.151-1.546-.037-2.093-1.191-.227-2.406-.476-3.49.471-.318.279-.557.7-1.086.468a1,1,0,0,0-.071-.522c.554-.432,1.528-.525,1.65-1.316.277-.058.536-.132.633-.339.03-.227-.132-.2-.142-.377,1.429-1.535,3.54-.738,5.6-1.385a10.456,10.456,0,0,1,1.925-.54c.326-.032.548.333.822.351.407.022.718-.262.894.14" transform="translate(-14.717 -215.988)" fill="#aed3f2" fill-rule="evenodd"/>
        <path id="Trazado_64865" data-name="Trazado 64865" d="M31.744,227.447c-.339-.043-.52-.053-.725.212-.1-.137-.287-.147-.25-.46.323-.152.987-.358.975.248" transform="translate(-17.544 -216.074)" fill="#aed3f2" fill-rule="evenodd"/>
        <path id="Trazado_64866" data-name="Trazado 64866" d="M81.79,231.452c.21.653,1.136,1.052.847,1.879-.651-.348-1.36-1.145-.847-1.879" transform="translate(-24.684 -216.694)" fill="#aed3f2" fill-rule="evenodd"/>
        <path id="Trazado_64867" data-name="Trazado 64867" d="M81.507,238.427c.2.089.254.441.176.67-.081.12-.406.123-.564.021-.04-.434.3-.421.388-.692" transform="translate(-24.614 -217.673)" fill="#aed3f2" fill-rule="evenodd"/>
        <path id="Trazado_64868" data-name="Trazado 64868" d="M78.555,238.251c.177.155.381.273.393.592-.261.238-.531-.295-.393-.592" transform="translate(-24.249 -217.648)" fill="#aed3f2" fill-rule="evenodd"/>
        <path id="Trazado_64869" data-name="Trazado 64869" d="M47.179,237.334c-.211,1.066.077,1.116.839,1.494.732.369,1.465,1.447,1.815-.037a4.667,4.667,0,0,0,2.4.628,7.8,7.8,0,0,0,.8,2.56,12.614,12.614,0,0,0,1.015,2.828c.42.4.931.421.8,1.294.422.864,1.231-.043,1.959.179.033,2.465-2.624,3.224-2.9,5.421-.165,1.275.86,2.486.288,3.646-.254.518-1.261.78-1.381,1.426-.154.852.464,1.859-.507,2.147a2.679,2.679,0,0,1-3.055,2.765c-.144-1.765-1.286-3.648-1.454-5.728-.068-.822.458-1.282.472-2.053a12.7,12.7,0,0,0-.253-1.868c-.109-.588-.79-1.013-.839-1.585-.068-.792.437-2.73-.763-2.243-.865-1.443-2.288.117-3.455-.011-.725-.079-1.981-2.468-2.035-3.39-.015-.25.233-.6.254-.832.046-.49-.159-1.025-.144-1.479.027-.9.932-1.665,1.379-2.24.558-.723.538-2.189,1.344-2.388,1.139.2,2.183-.721,3.419-.535" transform="translate(-18.971 -217.516)" fill="#aed3f2" fill-rule="evenodd"/>
        <path id="Trazado_64870" data-name="Trazado 64870" d="M28.077,248.676c.215,1.243,2.241.518,2.055,2.12-.051.447-.6.44-.5,1.009.709.887,1.624-.732,1.951.686a1.975,1.975,0,0,1,2.279,1.207c.145.885-.8,1.362-.941,2.091-.249,1.254.217,2.44-.507,2.957a2.47,2.47,0,0,0-1.518,1.013c-.11,1.526-.485,3.234-1.769,2.63-.025.566.517.71.325,1.324-.164.2-.656-.031-.866.112-.079.175.005.355,0,.574-.1.092-.356-.159-.432.028.549.952-.557,1.861.361,2.513a6.632,6.632,0,0,0-.361,1.044c-1.271-.316-.726-2.907-1.654-3.7-.63-2.424.286-4.993-.542-7.276-.206-.575-.933-.749-1.293-1.27a6.95,6.95,0,0,1-.285-.787c-.55-1.264-1.394-2.1-1.185-3.536.381-.73,1.157-1.378.826-2.711a.917.917,0,0,1,1.4-.364c.251-1.338,2-.064,2.661.337" transform="translate(-16.476 -218.981)" fill="#aed3f2" fill-rule="evenodd"/>
        <path id="Trazado_64871" data-name="Trazado 64871" d="M77.607,249.508c-.2.861.154,1.693-.5,2.443a5.711,5.711,0,0,1-1.071-.1c-.006-.373-.358-.589-.179-.936.112-.11.239.045.358-.055.313-.56.971-1.322,1.388-1.349" transform="translate(-23.869 -219.229)" fill="#aed3f2" fill-rule="evenodd"/>
        <path id="Trazado_64872" data-name="Trazado 64872" d="M85.329,253.1c-.563-.444-.968.41-1.547.228a1.557,1.557,0,0,0-.772-1.093c.54-.8,2.357.1,2.319.866" transform="translate(-24.88 -219.568)" fill="#aed3f2" fill-rule="evenodd"/>
        <path id="Trazado_64873" data-name="Trazado 64873" d="M83.242,255.4c.507.243.356.867.563,1.392.25.628.981,1.074,1.018,1.778.04.759-.762,1.523-1.264,2.192-.467.624-.486,1.318-1.336,1.574-.19.058-.171-.154-.352-.108-.229.182-.612.383-.776.137.03-.468-.068-.949,0-1.417-.3-.095-.543.353-.707.373-.989-1.344-2.856.863-4.227,1.14.33-.979-.124-2.209.175-3.381.488-.881,1.907-.817,2.174-1.893.667-.064.588-.866,1.1-1.08.151.41.924.239.886-.295a5.734,5.734,0,0,0,.918-.071c.329,1.191,1.772,1.219,1.831-.34" transform="translate(-23.918 -220.056)" fill="#aed3f2" fill-rule="evenodd"/>
        <path id="Trazado_64874" data-name="Trazado 64874" d="M58.736,257.564c.058-.015.062.043.107.043-.2,1.444-.305,3.017-1.124,3.722-.62-.768.225-1.791.072-2.717a1.721,1.721,0,0,0,.945-1.048" transform="translate(-21.297 -220.359)" fill="#aed3f2" fill-rule="evenodd"/>
        <path id="Trazado_64875" data-name="Trazado 64875" d="M72.958,250.87c.718.1,1.116,1.163,1.324,1.864-.61-.241-.994-1.124-1.324-1.864" transform="translate(-23.468 -219.42)" fill="#aed3f2" fill-rule="evenodd"/>
      </g>
    </g>
  </g>
</svg>
