<svg xmlns="http://www.w3.org/2000/svg" xmlns:xlink="http://www.w3.org/1999/xlink" width="106.988" height="116.896" viewBox="0 0 106.988 116.896">
  <defs>
    <clipPath id="clip-path">
      <rect id="Rectángulo_25623" data-name="Rectángulo 25623" width="106.988" height="116.896" fill="none"/>
    </clipPath>
  </defs>
  <g id="Grupo_24947" data-name="Grupo 24947" transform="translate(0)">
    <g id="Grupo_24946" data-name="Grupo 24946" transform="translate(0)" clip-path="url(#clip-path)">
      <path id="Trazado_64715" data-name="Trazado 64715" d="M101.677,80.251c6.7-5,8.594-12.112,8.608-18.505a34.159,34.159,0,0,0-6.923-20.376L88.515,17.352h-24.9L48.459,41.369a34.171,34.171,0,0,0-6.923,20.376c.017,7.07,2.325,15.02,10.9,20.019" transform="translate(-4.631 -1.935)" fill="none" stroke="#344154" stroke-linecap="round" stroke-linejoin="round" stroke-width="3"/>
      <path id="Trazado_64716" data-name="Trazado 64716" d="M90.132,15.585l9.205-8.922-3.3-3.3a6.343,6.343,0,0,0-8.97,0L84.4,6.025,83.224,4.852a7.835,7.835,0,0,0-11.08,0L70.972,6.025,68.3,3.358a6.343,6.343,0,0,0-8.97,0l-3.3,3.3,9.205,8.922" transform="translate(-6.247 -0.167)" fill="none" stroke="#344154" stroke-linecap="round" stroke-linejoin="round" stroke-width="3"/>
      <path id="Trazado_64717" data-name="Trazado 64717" d="M63.322,104.112h4.8a22.87,22.87,0,0,0,12.845-3.947l3.508-2.379a1.294,1.294,0,0,0,.39-1.765,6.02,6.02,0,0,0-2.008-1.87,5.933,5.933,0,0,0-5.6-.043,15.249,15.249,0,0,1-12.285.5,39.666,39.666,0,0,0-6.023-3.124A25.334,25.334,0,0,0,34.7,94.446" transform="translate(-3.868 -9.994)" fill="none" stroke="#344154" stroke-linecap="round" stroke-linejoin="round" stroke-width="3"/>
      <path id="Trazado_64718" data-name="Trazado 64718" d="M34.7,111.079s10.849-2.107,29.823-1.025a27.606,27.606,0,0,0,14.433-3.176l28.853-15.222a1.136,1.136,0,0,0,.358-1.709c-1.032-1.323-3.383-3.154-8.086-1.914a11.314,11.314,0,0,0-1.559.558L84,94.781" transform="translate(-3.868 -9.768)" fill="none" stroke="#344154" stroke-linecap="round" stroke-linejoin="round" stroke-width="3"/>
      <path id="Trazado_64719" data-name="Trazado 64719" d="M22.358,118.388H33.032V90.851H22.358" transform="translate(-2.493 -10.129)" fill="none" stroke="#344154" stroke-linecap="round" stroke-linejoin="round" stroke-width="3"/>
      <path id="Trazado_64720" data-name="Trazado 64720" d="M1.5,124.682H20.032V81.79H1.5" transform="translate(-0.167 -9.118)" fill="none" stroke="#344154" stroke-linecap="round" stroke-linejoin="round" stroke-width="3"/>
      <path id="Trazado_64721" data-name="Trazado 64721" d="M72.607,65.927a6.925,6.925,0,0,0,13.849,0c0-3.824-2.839-5.591-6.924-6.924-3.636-1.187-6.925-3.1-6.925-6.925a6.925,6.925,0,0,1,13.849,0" transform="translate(-8.095 -5.034)" fill="none" stroke="#344154" stroke-linecap="round" stroke-linejoin="round" stroke-width="3"/>
      <line id="Línea_146" data-name="Línea 146" y2="3.907" transform="translate(71.437 36.26)" fill="none" stroke="#344154" stroke-linecap="round" stroke-linejoin="round" stroke-width="3"/>
      <line id="Línea_147" data-name="Línea 147" y2="3.907" transform="translate(71.437 67.817)" fill="none" stroke="#344154" stroke-linecap="round" stroke-linejoin="round" stroke-width="3"/>
      <path id="Trazado_64722" data-name="Trazado 64722" d="M77.745,23.352H68.393l-10.4,16.484,7.732-3.906a28.1,28.1,0,0,1,24.548-.383L96.8,38.594,87.378,23.352Z" transform="translate(-6.465 -2.603)" fill="#8d85ac"/>
    </g>
  </g>
</svg>
