<svg xmlns="http://www.w3.org/2000/svg" xmlns:xlink="http://www.w3.org/1999/xlink" width="242" height="242" viewBox="0 0 242 242">
  <defs>
    <clipPath id="clip-path">
      <rect id="Rectángulo_25707" data-name="Rectángulo 25707" width="180.3" height="166.905" fill="none"/>
    </clipPath>
    <clipPath id="clip-path-3">
      <rect id="Rectángulo_25697" data-name="Rectángulo 25697" width="50.523" height="2.121" fill="none"/>
    </clipPath>
    <clipPath id="clip-path-7">
      <rect id="Rectángulo_25704" data-name="Rectángulo 25704" width="0.214" height="10.189" fill="none"/>
    </clipPath>
    <clipPath id="clip-path-8">
      <rect id="Rectángulo_25705" data-name="Rectángulo 25705" width="2.878" height="10.279" fill="none"/>
    </clipPath>
  </defs>
  <g id="Grupo_25334" data-name="Grupo 25334" transform="translate(-305 -7107)">
    <g id="Elipse_60" data-name="Elipse 60" transform="translate(305 7107)" fill="#fff" stroke="#d9a171" stroke-width="4">
      <circle cx="121" cy="121" r="121" stroke="none"/>
      <circle cx="121" cy="121" r="119" fill="none"/>
    </g>
    <g id="Grupo_25024" data-name="Grupo 25024" transform="translate(336 7156.99)">
      <g id="Grupo_25023" data-name="Grupo 25023" clip-path="url(#clip-path)">
        <g id="Grupo_25022" data-name="Grupo 25022">
          <g id="Grupo_25021" data-name="Grupo 25021" clip-path="url(#clip-path)">
            <path id="Trazado_64890" data-name="Trazado 64890" d="M68.092,140.475S44.7,103.918,14.242,106.164C-1.287,139.446,33.2,162.406,33.2,162.406l37.248,7.286Z" transform="translate(-6.057 -62.839)" fill="#6595bf"/>
            <path id="Trazado_64891" data-name="Trazado 64891" d="M46.277,117.3l-5.071,18.566L14.975,106.213c-.24.013-.48.021-.721.039-.062.131-.115.26-.174.391l14.049,15.88-17.88.043c0,.17,0,.338-.005.507v.448l18.726-.045,23.413,26.463-31.377,1.077c.257.315.514.626.771.929l31.426-1.078,16.626,18.791.63.123-.076-.94L41.963,136.717l5.134-18.8q-.407-.314-.82-.625" transform="translate(-6.069 -62.927)" fill="#fff"/>
            <path id="Trazado_64892" data-name="Trazado 64892" d="M63.2,231.672S29.617,218.1,12.956,235.829c12.857,47.989,74.806,35.023,74.806,35.023Z" transform="translate(-7.676 -134.314)" fill="#053c5e"/>
            <path id="Trazado_64893" data-name="Trazado 64893" d="M12.956,236.06c.049.185.1.366.153.549l46.767,14.825L37.681,266.285q.5.241,1.014.471L61.042,251.8l18.266,5.791-.784-1.252L42.96,245.069l-9.441-17.975q-.515.041-1.03.094l9.176,17.47-28.333-8.982c-.125.128-.252.251-.375.382Z" transform="translate(-7.676 -134.545)" fill="#fff"/>
            <path id="Trazado_64894" data-name="Trazado 64894" d="M317.538,37.019S330.638,2.392,358.753,0c16.437,25.311-9.006,47.933-9.006,47.933L320.268,58.115Z" transform="translate(-188.129)" fill="#a66d58"/>
            <path id="Trazado_64895" data-name="Trazado 64895" d="M337.858,12.643,344.1,27.173,362.065.051c.2-.017.393-.037.592-.051.065.1.123.2.187.3l-9.62,14.526,14.555-2.006c.023.138.041.275.062.412l.05.365-15.244,2.1L336.615,39.9,362.272,37.2c-.173.286-.347.569-.522.844l-25.7,2.711L324.67,57.943l-.5.172-.045-.774,19.46-29.386-6.324-14.71q.3-.3.6-.6" transform="translate(-192.032)" fill="#fff"/>
            <path id="Trazado_64896" data-name="Trazado 64896" d="M305.37,110.441l-23.322,10.492c7.478,4.241,13.636,11.513,13.8,20.39q.016.855-.026,1.679a47.309,47.309,0,0,0,24.01-2.359c12.48-4.657,24.618-13.986,26.9-32.558-15.582-12.525-41.365,2.355-41.365,2.355" transform="translate(-167.103 -61.066)" fill="#6595bf"/>
            <path id="Trazado_64897" data-name="Trazado 64897" d="M363.472,108.127h0c-.115-.092-.232-.179-.348-.269L341.092,118.4l5.472-15.264q-.425.016-.849.041l-5.631,15.706-29.787,13.6q.248.48.471.973l15.371-7.025,19.892,9.615q.388-.245.772-.5L327.046,126l36.365-17.4c.02-.154.042-.308.062-.464" transform="translate(-183.84 -61.105)" fill="#fff"/>
            <path id="Trazado_64898" data-name="Trazado 64898" d="M67.1,4.462V14.6H81.961V28.645h-.468V131.5a14.682,14.682,0,0,0,14.639,14.639c1.276,0,78.954.072,78.954.072V27.994A23.532,23.532,0,0,0,151.553,4.462Z" transform="translate(-39.756 -2.644)" fill="#f2e9e4"/>
            <path id="Trazado_64899" data-name="Trazado 64899" d="M42.236,23.27V13.864A10.715,10.715,0,0,1,52.9,3.184,14.621,14.621,0,0,1,67.535,17.7V23.27Z" transform="translate(-25.023 -1.886)" fill="#d9a171"/>
            <g id="Grupo_25005" data-name="Grupo 25005" transform="translate(66.231 27.998)" opacity="0.5">
              <g id="Grupo_25004" data-name="Grupo 25004">
                <g id="Grupo_25003" data-name="Grupo 25003" clip-path="url(#clip-path-3)">
                  <rect id="Rectángulo_25696" data-name="Rectángulo 25696" width="50.524" height="2.121" transform="translate(0)" fill="#d9a171"/>
                </g>
              </g>
            </g>
            <g id="Grupo_25008" data-name="Grupo 25008" transform="translate(66.231 36.482)" opacity="0.5">
              <g id="Grupo_25007" data-name="Grupo 25007">
                <g id="Grupo_25006" data-name="Grupo 25006" clip-path="url(#clip-path-3)">
                  <rect id="Rectángulo_25698" data-name="Rectángulo 25698" width="50.524" height="2.121" transform="translate(0 0)" fill="#d9a171"/>
                </g>
              </g>
            </g>
            <g id="Grupo_25011" data-name="Grupo 25011" transform="translate(66.231 46.026)" opacity="0.5">
              <g id="Grupo_25010" data-name="Grupo 25010">
                <g id="Grupo_25009" data-name="Grupo 25009" clip-path="url(#clip-path-3)">
                  <rect id="Rectángulo_25700" data-name="Rectángulo 25700" width="50.524" height="2.121" transform="translate(0 0)" fill="#d9a171"/>
                </g>
              </g>
            </g>
            <g id="Grupo_25014" data-name="Grupo 25014" transform="translate(66.231 54.509)" opacity="0.5">
              <g id="Grupo_25013" data-name="Grupo 25013">
                <g id="Grupo_25012" data-name="Grupo 25012" clip-path="url(#clip-path-3)">
                  <rect id="Rectángulo_25702" data-name="Rectángulo 25702" width="50.524" height="2.121" transform="translate(0)" fill="#d9a171"/>
                </g>
              </g>
            </g>
            <path id="Trazado_64900" data-name="Trazado 64900" d="M227.271,319.113h-78.46s15.86-3.259,10.574-22.818h83.524s5.286,22.818-15.638,22.818" transform="translate(-88.165 -175.544)" fill="#d9a171"/>
            <path id="Trazado_64901" data-name="Trazado 64901" d="M185.423,184.673,155.9,158.609H104.6v22.96l6.413.413,5.377,2.276,30.2,17.994,7.839,4.762c1.026.895,2.776.314,3.589-.617l.8-.915a2.181,2.181,0,0,0-.231-3.173L151.8,196.4l.865-.97,9.073,7.907a3.107,3.107,0,0,0,4.526-.289l1.137-1.3a3.108,3.108,0,0,0-.331-4.523l-9.005-7.849.759-.853,11.845,10.325a3.407,3.407,0,0,0,4.96-.317l1.246-1.429a3.407,3.407,0,0,0-.363-4.957l-11.772-10.26.921-1.033,13.121,11.436a3.7,3.7,0,0,0,5.357-.6l1.415-1.624a3.7,3.7,0,0,0-.136-5.388" transform="translate(-61.972 -93.97)" fill="#f7b58e"/>
            <path id="Trazado_64902" data-name="Trazado 64902" d="M234.432,179.555,233.4,154.32h-12.41l-20.705-7.032s-25.855-.243-26.327,0a33.532,33.532,0,0,0-.333,3.621l.436,2.152A6.943,6.943,0,0,0,180.642,157l15.483-.205c.923-.011,4.661-.337,5.33-.873l26.091,23.639Z" transform="translate(-102.865 -87.199)" fill="#f39f85"/>
            <path id="Trazado_64903" data-name="Trazado 64903" d="M177.728,244.589a3.539,3.539,0,0,1-5.76-4.012l3.439-4.937c.975-1.4,2.873-1.375,4.463-.267s2.271,2.88,1.3,4.278Z" transform="translate(-101.59 -138.97)" fill="#f39f85"/>
            <path id="Trazado_64904" data-name="Trazado 64904" d="M160.807,230.477a3.513,3.513,0,1,1-5.759-4.011l4.1-5.884a3.516,3.516,0,0,1,5.758,4.013Z" transform="translate(-91.454 -129.847)" fill="#f39f85"/>
            <path id="Trazado_64905" data-name="Trazado 64905" d="M143.31,221.737a3.538,3.538,0,0,1-5.586-4.249l3.642-4.788c1.033-1.357,2.929-1.253,4.471-.08s2.147,2.973,1.115,4.33Z" transform="translate(-81.26 -125.431)" fill="#f39f85"/>
            <path id="Trazado_64906" data-name="Trazado 64906" d="M194.944,257.042a2.921,2.921,0,0,1-4.754-3.312l2.839-4.075c.8-1.155,2.371-1.136,3.684-.22s1.874,2.378,1.07,3.532Z" transform="translate(-112.436 -147.385)" fill="#f39f85"/>
            <path id="Trazado_64907" data-name="Trazado 64907" d="M353.467,163.893l-34.439-.122-.1,29.594,37.042.13a13.005,13.005,0,0,0,12.4-8.94,15.742,15.742,0,0,0-14.9-20.662" transform="translate(-188.95 -97.028)" fill="#053c5e"/>
            <path id="Trazado_64908" data-name="Trazado 64908" d="M368.736,200.123c-10.62-.192-49.764.289-49.764.289l-.052,14.634,36.38.128a13.858,13.858,0,0,0,13.833-11.781c.214-1.516.151-2.729-.4-3.27" transform="translate(-188.949 -118.538)" fill="#212b53"/>
            <path id="Trazado_64909" data-name="Trazado 64909" d="M330.06,162.852l.06,30.523-11.666-.195-.059-30.524Z" transform="translate(-188.636 -96.368)" fill="#fff"/>
            <path id="Trazado_64910" data-name="Trazado 64910" d="M330,219.509a1.857,1.857,0,1,1-1.864,1.851A1.859,1.859,0,0,1,330,219.509" transform="translate(-194.409 -130.051)" fill="#053c5e"/>
            <path id="Trazado_64911" data-name="Trazado 64911" d="M16.26,157.528l34.328.151-.13,29.593-37.151-.163a12.854,12.854,0,0,1-12.185-8.932A15.822,15.822,0,0,1,16.26,157.528" transform="translate(-0.211 -93.329)" fill="#c19485"/>
            <path id="Trazado_64912" data-name="Trazado 64912" d="M.2,193.932c4.319-.423,50.11.373,50.11.373l-.064,14.632-35.194-.155A15.123,15.123,0,0,1,.077,195.774c-.124-.931-.107-1.6.123-1.842" transform="translate(0 -114.824)" fill="#a66d58"/>
            <path id="Trazado_64913" data-name="Trazado 64913" d="M95.776,157.043l.176,30.369,11.191.049-.176-30.368Z" transform="translate(-56.744 -93.042)" fill="#fff"/>
            <path id="Trazado_64914" data-name="Trazado 64914" d="M89.343,361.972s.309.428,1.767.8c.321.082.667.138.667.667H90.337l-1.471-.254v.254h-.794s-.221-1.3.243-1.466Z" transform="translate(-52.148 -214.455)" fill="#212b53"/>
            <path id="Trazado_64915" data-name="Trazado 64915" d="M89.848,359.682l-.076.933a.9.9,0,0,1-.973.033l-.055-.033v-.933Z" transform="translate(-52.577 -213.098)" fill="#f7b58e"/>
            <path id="Trazado_64916" data-name="Trazado 64916" d="M71.236,362.429s.309.428,1.767.8c.321.081.667.137.667.667H72.231l-1.47-.254v.254h-.795s-.221-1.3.243-1.466Z" transform="translate(-41.421 -214.725)" fill="#212b53"/>
            <path id="Trazado_64917" data-name="Trazado 64917" d="M71.742,360.139l-.076.933a.9.9,0,0,1-.973.033l-.055-.033v-.933Z" transform="translate(-41.851 -213.369)" fill="#f7b58e"/>
            <path id="Trazado_64918" data-name="Trazado 64918" d="M86.8,300.486l-.358,23.442H84.736s-2.6-18.926-2.045-23.442,4.111,0,4.111,0" transform="translate(-48.945 -176.838)" fill="#212b53"/>
            <path id="Trazado_64919" data-name="Trazado 64919" d="M77.472,303.391s-.595,7.2-1.96,11.188-3.831,12.26-3.831,12.26H69.913s2.952-17.289,2.277-23.447Z" transform="translate(-41.421 -179.748)" fill="#053c5e"/>
            <path id="Trazado_64920" data-name="Trazado 64920" d="M90.87,274.114s2.1,4.908,2.639,4.908c.427,0-.16-4.008-.16-4.008h1.763s2.217,6.87.454,8.125-5.636-3.552-5.636-3.552Z" transform="translate(-53.28 -162.402)" fill="#f2e9e4"/>
            <path id="Trazado_64921" data-name="Trazado 64921" d="M76.837,304.765l.638,1.577c.307.619,1.436.635,2.186.439a.156.156,0,0,0,.073-.256,21.609,21.609,0,0,0-1.85-1.867Z" transform="translate(-45.523 -180.498)" fill="#f7b58e"/>
            <path id="Trazado_64922" data-name="Trazado 64922" d="M81.363,271.586a1.979,1.979,0,0,1,1.695.939,1.333,1.333,0,0,1,.207.673v11.345H76.823V273.936a2.451,2.451,0,0,1,2.437-2.358c.981,0,1.653,0,2.1.008" transform="translate(-45.515 -160.9)" fill="#f2e9e4"/>
            <g id="Grupo_25017" data-name="Grupo 25017" transform="translate(37.643 113.459)" opacity="0.5">
              <g id="Grupo_25016" data-name="Grupo 25016">
                <g id="Grupo_25015" data-name="Grupo 25015" clip-path="url(#clip-path-7)">
                  <path id="Trazado_64923" data-name="Trazado 64923" d="M92.366,288.591V278.4l.214.007v10.182Z" transform="translate(-92.366 -278.402)" fill="#9e9590"/>
                </g>
              </g>
            </g>
            <path id="Trazado_64924" data-name="Trazado 64924" d="M82.182,266.266l.687,2.586a1.635,1.635,0,0,0,1.363.27c.777-.206.628-.766.628-.766l-.44-1.657-1.229.006Z" transform="translate(-48.69 -157.753)" fill="#f39f85"/>
            <path id="Trazado_64925" data-name="Trazado 64925" d="M83.844,262.159a.991.991,0,0,0,.536-.3c.4-1.282-1.174-4.036-1.174-4.036l-2.384,1.113.447,2.007a1.726,1.726,0,0,0,.988,1.2,2.771,2.771,0,0,0,1.586.016" transform="translate(-47.885 -152.749)" fill="#f7b58e"/>
            <path id="Trazado_64926" data-name="Trazado 64926" d="M81.119,257.505a5.54,5.54,0,0,0,1.705-.453c.833-.388.018-1.2.018-1.2a3.56,3.56,0,0,1-1.763.6c-.806.091-1.055,0-1.481.393-.58.54-.093,1.719-.093,1.719l1.06,2.486.139-.037s-.373-1.546-.512-2.069c.083-.277.241-.319.379-.292a.406.406,0,0,1,.3.3l.713,2.683a6.869,6.869,0,0,0,2.3.034c.4-.249-.419-2.16-.419-2.16a.826.826,0,0,0-.832.454c-.271.533-.857.209-.857.209Z" transform="translate(-46.99 -151.581)" fill="#212b53"/>
            <path id="Trazado_64927" data-name="Trazado 64927" d="M98.348,273.03l-.062-.339a2.82,2.82,0,0,0-1.576-1.926h-.748l.231,1.6,1.056.666Z" transform="translate(-56.854 -160.418)" fill="#f7b58e"/>
            <path id="Trazado_64928" data-name="Trazado 64928" d="M81.523,262.676a.451.451,0,0,1,.521.3.389.389,0,0,1-.159.544.452.452,0,0,1-.521-.3.389.389,0,0,1,.159-.543" transform="translate(-48.178 -155.615)" fill="#f7b58e"/>
            <path id="Trazado_64929" data-name="Trazado 64929" d="M95.811,273.44l1.458.844s-.915-.009-.93,0L94.8,272.993s.112-.225.462-.035a1.781,1.781,0,0,1,.553.483" transform="translate(-56.163 -161.672)" fill="#f7b58e"/>
            <path id="Trazado_64930" data-name="Trazado 64930" d="M73.212,273.32s-3.642,4.045-3.642,6.47,2.956,6.7,2.956,6.7l1.46-.428a55.87,55.87,0,0,1-1.318-6.7c0-1.407,2.706-3.469,2.706-3.469" transform="translate(-41.218 -161.932)" fill="#f2e9e4"/>
            <g id="Grupo_25020" data-name="Grupo 25020" transform="translate(31.344 113.88)" opacity="0.5">
              <g id="Grupo_25019" data-name="Grupo 25019">
                <g id="Grupo_25018" data-name="Grupo 25018" clip-path="url(#clip-path-8)">
                  <path id="Trazado_64931" data-name="Trazado 64931" d="M77.125,282.988a54.729,54.729,0,0,0,1.324,6.671l-.216.054a54.46,54.46,0,0,1-1.321-6.725c0-1.443,2.636-3.469,2.749-3.555l.129.17c-.026.02-2.664,2.046-2.664,3.385" transform="translate(-76.911 -279.433)" fill="#9e9590"/>
                </g>
              </g>
            </g>
            <path id="Trazado_64932" data-name="Trazado 64932" d="M94.944,268.219a3.863,3.863,0,0,0,1.013,2.721.422.422,0,0,0,.289.116,1.068,1.068,0,0,0,.489-.146.467.467,0,0,0,.275-.255.2.2,0,0,0-.047-.207,2.863,2.863,0,0,1-.794-2.1,1.584,1.584,0,0,0-1.225-.126" transform="translate(-56.249 -158.868)" fill="#00666b"/>
            <path id="Trazado_64933" data-name="Trazado 64933" d="M97.774,270.849a.31.31,0,0,0,.149-.184.2.2,0,0,0-.047-.207,2.863,2.863,0,0,1-.794-2.1,1.333,1.333,0,0,0-.6-.19,4.362,4.362,0,0,0,1.294,2.685" transform="translate(-57.161 -158.877)" fill="#01888b"/>
            <path id="Trazado_64934" data-name="Trazado 64934" d="M97.374,270.552c.074.217.2.369.288.34s.095-.228.021-.445-.2-.369-.288-.34-.095.228-.021.445" transform="translate(-57.661 -160.026)" fill="#00666b"/>
            <path id="Trazado_64935" data-name="Trazado 64935" d="M97.457,270.085l.09-.033v.047l-.058.032Z" transform="translate(-57.74 -159.995)" fill="#f49b42"/>
            <path id="Trazado_64936" data-name="Trazado 64936" d="M98.072,271.991l.109-.035-.129,0Z" transform="translate(-58.092 -161.122)" fill="#e7375e"/>
            <path id="Trazado_64937" data-name="Trazado 64937" d="M97.553,270.491c.074.217.2.369.288.34s.095-.228.021-.445-.2-.369-.288-.34-.095.228-.021.445" transform="translate(-57.767 -159.99)" fill="#6595bf"/>
            <path id="Trazado_64938" data-name="Trazado 64938" d="M92.57,265.226l-.172.022a.587.587,0,0,0-.524.641l.057.451a.588.588,0,0,0,.666.492l.172-.021Z" transform="translate(-54.43 -157.136)" fill="#00666b"/>
            <path id="Trazado_64939" data-name="Trazado 64939" d="M104.651,261.587c.154,1.23,0,2.261-.352,2.305s-.756-.917-.91-2.147,0-2.261.352-2.305.756.917.91,2.147" transform="translate(-61.219 -153.707)" fill="#212b53"/>
            <path id="Trazado_64940" data-name="Trazado 64940" d="M102.978,263.094l.54.262.09.72-.456.531-.3-.914Z" transform="translate(-60.939 -155.873)" fill="#fff"/>
            <path id="Trazado_64941" data-name="Trazado 64941" d="M97.476,261.884a3.644,3.644,0,0,1,.2-2.209h0a10.261,10.261,0,0,1-4.327,2.291l.2,1.571s3.293-.6,4.67.441h0a3.637,3.637,0,0,1-.74-2.092" transform="translate(-55.305 -153.847)" fill="#6595bf"/>
            <path id="Trazado_64942" data-name="Trazado 64942" d="M104.538,264.083c.025.2.015.366-.023.37s-.088-.153-.113-.353-.015-.366.023-.37.088.153.113.353" transform="translate(-61.846 -156.25)" fill="#6595bf"/>
            <path id="Trazado_64943" data-name="Trazado 64943" d="M97.615,271.917a1.717,1.717,0,0,1-.814.133c-.424,0-.615-.521-.688-.8-.025-.1-.048-.242.077-.3l.681-.095Z" transform="translate(-56.932 -160.466)" fill="#f7b58e"/>
            <path id="Trazado_64944" data-name="Trazado 64944" d="M299.646,386.375a6.28,6.28,0,0,1-2.578,1.186c-.395.1-.82-.034-.82.617h2.175l1.809-.313v.313h.977s.272-1.6-.3-1.8Z" transform="translate(-175.516 -228.913)" fill="#212b53"/>
            <path id="Trazado_64945" data-name="Trazado 64945" d="M304.779,383.559l-.192,1.148a1.106,1.106,0,0,0,1.2.04l.067-.04-.1-1.148Z" transform="translate(-180.456 -227.244)" fill="#f7b58e"/>
            <path id="Trazado_64946" data-name="Trazado 64946" d="M320.768,386.375a6.283,6.283,0,0,1-2.578,1.186c-.394.1-.82-.034-.82.617h2.175l1.809-.313v.313h.977s.272-1.6-.3-1.8Z" transform="translate(-188.03 -228.913)" fill="#212b53"/>
            <path id="Trazado_64947" data-name="Trazado 64947" d="M325.9,383.559l-.192,1.148a1.106,1.106,0,0,0,1.2.04l.067-.04-.1-1.148Z" transform="translate(-192.97 -227.244)" fill="#f7b58e"/>
            <path id="Trazado_64948" data-name="Trazado 64948" d="M304.24,274.66a.329.329,0,0,0,.04-.3l-.4-1.122a.328.328,0,0,0-.488-.163l-1.737,1.137a.328.328,0,0,0-.149.275v1.705s-.87,4.612-.461,6.423,1.714.414,2.069.106a17.414,17.414,0,0,1-.385-5.894Z" transform="translate(-178.29 -161.756)" fill="#f7b58e"/>
            <path id="Trazado_64949" data-name="Trazado 64949" d="M295.679,287.148s-2.833-.9-3.721-2.116.615-7.852.615-7.852l-.194-1.195a1.113,1.113,0,0,1,1.088-1.291l.757-.007a.433.433,0,0,1,.4.609l-1,2.24s-.747,5.029.3,5.41a11.8,11.8,0,0,0,2.661.552Z" transform="translate(-172.808 -162.742)" fill="#f7b58e"/>
            <path id="Trazado_64950" data-name="Trazado 64950" d="M312.647,328.271a53.264,53.264,0,0,1-.9,7.182,6.421,6.421,0,0,0,.221,3.3c1.692,5.026,3.8,12.583,3.8,12.583h-1.575s-5.047-8.932-6.279-13.362-1.443-5.837-1.443-5.837l1.466-3.868Z" transform="translate(-181.573 -194.488)" fill="#212b53"/>
            <path id="Trazado_64951" data-name="Trazado 64951" d="M311.244,282.362l2.838,1.851-.876,2.243c-.012.032-.029.061-.043.092-.062,0-.125-.008-.188-.008h-.06a2.19,2.19,0,0,0-1.809,1.1,3.781,3.781,0,0,1-1.34-.348,1.392,1.392,0,0,1-.631-.478c-.3-1.591,2.109-4.449,2.109-4.449" transform="translate(-183.135 -167.289)" fill="#f7b58e"/>
            <path id="Trazado_64952" data-name="Trazado 64952" d="M312.826,294.8l.248,1.549H310.88l-.158-1.9Z" transform="translate(-184.091 -174.452)" fill="#f39f85"/>
            <path id="Trazado_64953" data-name="Trazado 64953" d="M312.561,286.335l.667-1.479-.433-.272a.815.815,0,0,1-.338-.953l.475-1.394s-1.35-.165-1.31-1.423c0-.648.892-.652.892-.652a1.3,1.3,0,0,0,1.093.648,2.151,2.151,0,0,1,1.988,1.234,3.545,3.545,0,0,1-.137,2.889,2.634,2.634,0,0,1-2.1,1.4Z" transform="translate(-184.623 -165.986)" fill="#212b53"/>
            <path id="Trazado_64954" data-name="Trazado 64954" d="M314.953,289.652a.628.628,0,0,1-.359.689c-.278.148-.567.078-.646-.155a.627.627,0,0,1,.358-.689c.278-.148.568-.078.647.155" transform="translate(-185.99 -171.47)" fill="#f7b58e"/>
            <path id="Trazado_64955" data-name="Trazado 64955" d="M299.757,309.178h6.879v-8.826a3.744,3.744,0,0,0-3.4-3.729l-4.784-.579s-.562.861-2.13,2.862a16.143,16.143,0,0,0,4.064,1.7Z" transform="translate(-175.562 -175.395)" fill="#f2e9e4"/>
            <path id="Trazado_64956" data-name="Trazado 64956" d="M307.94,328.271a20.522,20.522,0,0,1-4.557,7.458,4.612,4.612,0,0,0-1.338,3.584l.472,12.026h-1.605s-2.876-9.987-2.313-14.909a22.592,22.592,0,0,1,2.461-8.158Z" transform="translate(-176.866 -194.488)" fill="#053c5e"/>
            <path id="Trazado_64957" data-name="Trazado 64957" d="M370.534,359.839s0,1.1-2.217,1.763c-.454.135-.306.27-.391.461h2.545l1-1.12.31.266.719-.706s-.336-1.022-.883-1.031l-1.08.368" transform="translate(-217.982 -212.973)" fill="#212b53"/>
            <path id="Trazado_64958" data-name="Trazado 64958" d="M373.311,357.459l.414.954a1,1,0,0,0,1.034-.314l.045-.054-.334-.981Z" transform="translate(-221.173 -211.547)" fill="#f7b58e"/>
            <path id="Trazado_64959" data-name="Trazado 64959" d="M341.829,361.447a6.34,6.34,0,0,1-2.6,1.2c-.4.1-.828-.034-.828.623h2.2l1.827-.316v.316h.987s.275-1.613-.3-1.82Z" transform="translate(-200.487 -214.144)" fill="#212b53"/>
            <path id="Trazado_64960" data-name="Trazado 64960" d="M347.013,358.6l-.194,1.159a1.115,1.115,0,0,0,1.209.041l.068-.041L348,358.6Z" transform="translate(-205.477 -212.458)" fill="#f7b58e"/>
            <path id="Trazado_64961" data-name="Trazado 64961" d="M352.254,300.243a34.979,34.979,0,0,1,2.862,9.851,7.844,7.844,0,0,0,1.327,3.43c2.023,2.885,3.818,10.108,3.818,10.108l-1.393.4-9.9-15.875.067-7.66Z" transform="translate(-206.75 -177.883)" fill="#212b53"/>
            <path id="Trazado_64962" data-name="Trazado 64962" d="M346.6,300.46a27.642,27.642,0,0,1-.522,10.308,6.712,6.712,0,0,0-.125,2.844c.589,3.559-1.066,10.887-1.066,10.887h-1.318l-2.292-23.612Z" transform="translate(-202.196 -178.011)" fill="#053c5e"/>
            <path id="Trazado_64963" data-name="Trazado 64963" d="M345.638,265.1s2.115-.421,1.771-1.76-4.3-6.2-4.3-6.2l-3.095-.344s.2.749,2.148,1.089,3.474,7.22,3.474,7.22" transform="translate(-201.447 -152.139)" fill="#f7b58e"/>
            <path id="Trazado_64964" data-name="Trazado 64964" d="M342.564,258.044c.186-.3.366-.6.549-.906l0,0-3.095-.344s.2.748,2.148,1.089a1.116,1.116,0,0,1,.4.164" transform="translate(-201.447 -152.139)" fill="#f39f85"/>
            <path id="Trazado_64965" data-name="Trazado 64965" d="M346.13,265.569l.2,2.245,2.171-.688-.559-1.789Z" transform="translate(-205.069 -157.202)" fill="#f39f85"/>
            <path id="Trazado_64966" data-name="Trazado 64966" d="M344.2,256.369s-1.662,2.5-1.2,3.965c.516.734,2.636-.286,2.636-.286v-3.392Z" transform="translate(-203.163 -151.889)" fill="#f7b58e"/>
            <path id="Trazado_64967" data-name="Trazado 64967" d="M345.286,255.285a2.035,2.035,0,0,1,.947.442c.4.361.057,1.812.057,1.812l-.018.511a1.122,1.122,0,0,0,1.121,1.16h.042s2.751-2.738,1.6-4a2.581,2.581,0,0,0-3.755.074" transform="translate(-204.569 -150.731)" fill="#212b53"/>
            <path id="Trazado_64968" data-name="Trazado 64968" d="M346.615,261.2a.46.46,0,0,1,.318-.475c.216-.085.423-.01.463.167a.46.46,0,0,1-.318.475c-.216.085-.423.01-.463-.167" transform="translate(-205.352 -154.447)" fill="#f7b58e"/>
            <path id="Trazado_64969" data-name="Trazado 64969" d="M343.953,254.245c0,.38.42.688.939.688s2.314-.308,2.314-.688-1.8-.688-2.314-.688-.939.308-.939.688" transform="translate(-203.779 -150.223)" fill="#212b53"/>
            <path id="Trazado_64970" data-name="Trazado 64970" d="M346.926,281.769s2.2-13.765-3.381-12.643c-5.45,1.1-3.037,13.159-3.037,13.159Z" transform="translate(-201.423 -159.409)" fill="#aed3f2"/>
            <path id="Trazado_64971" data-name="Trazado 64971" d="M343.946,272.07s3.575,4.406,3.032,5.637-5.172,6.2-5.435,6.48c-.4.579.284,2.8-1.092,1.983s-.261-2.379.053-2.737l3.454-5.668L341.9,275Z" transform="translate(-201.307 -161.191)" fill="#f7b58e"/>
            <path id="Trazado_64972" data-name="Trazado 64972" d="M346.918,272.68l-2.359,2.671-.955-.972a2.367,2.367,0,0,1-.6-2.384,1.961,1.961,0,0,1,.481-.789l.029-.028a1.6,1.6,0,0,1,2.339.179Z" transform="translate(-203.151 -160.409)" fill="#d6e7f2"/>
            <path id="Trazado_64973" data-name="Trazado 64973" d="M178.29,301.186q.381.2.779.379l-.052.011-2.431,5.146.99,1.436-2.16.279s-.9-1.092-.747-1.674,3.588-5.5,3.588-5.5Z" transform="translate(-103.474 -178.441)" fill="#f7b58e"/>
            <path id="Trazado_64974" data-name="Trazado 64974" d="M184.6,323.875c-1.848-.3-5.326-1.13-5.763-1.187a25.556,25.556,0,0,1-3.106-4.807l2.484.168,4.294,4.331a27.692,27.692,0,0,1,2.387,1.556c-.1-.022-.2-.044-.3-.061" transform="translate(-104.116 -188.332)" fill="#fff"/>
            <path id="Trazado_64975" data-name="Trazado 64975" d="M182.843,299.317l-.146-1.166a.3.3,0,0,1,.112-.268l.193-.15a.3.3,0,0,1,.217-.06l1.15.139a.3.3,0,0,1,.259.261l.016.143a.294.294,0,0,1-.059.213l-.887,1.159Z" transform="translate(-108.24 -176.358)" fill="#f7b58e"/>
            <path id="Trazado_64976" data-name="Trazado 64976" d="M184.258,300.365l.82-.639a.284.284,0,0,0,0-.444l-.351-.284c-.093-.075-.7.164-.7.164s.05.476.581.2c.014.082.134.183.134.183a1.275,1.275,0,0,0-1.107.626Z" transform="translate(-108.8 -177.136)" fill="#f7b58e"/>
            <path id="Trazado_64977" data-name="Trazado 64977" d="M201.493,300.585q-.381.2-.779.379l.052.011,2.431,5.146-.99,1.435,2.16.279s.9-1.092.747-1.674-3.588-5.5-3.588-5.5Z" transform="translate(-118.915 -178.085)" fill="#f7b58e"/>
            <path id="Trazado_64978" data-name="Trazado 64978" d="M188.279,323.274c1.848-.3,5.326-1.13,5.763-1.187a25.582,25.582,0,0,0,3.106-4.807l-2.484.168-4.294,4.331a27.657,27.657,0,0,0-2.387,1.556c.1-.022.2-.044.3-.061" transform="translate(-111.373 -187.976)" fill="#fff"/>
            <path id="Trazado_64979" data-name="Trazado 64979" d="M200.526,298.715l.146-1.166a.3.3,0,0,0-.112-.268l-.194-.15a.3.3,0,0,0-.217-.06l-1.15.139a.3.3,0,0,0-.259.261l-.016.143a.3.3,0,0,0,.06.213l.887,1.159Z" transform="translate(-117.735 -176.001)" fill="#f7b58e"/>
            <path id="Trazado_64980" data-name="Trazado 64980" d="M199.7,299.763l-.82-.639a.284.284,0,0,1,0-.444l.351-.284c.093-.075.7.164.7.164s-.05.476-.581.2c-.014.081-.134.183-.134.183a1.273,1.273,0,0,1,1.106.626Z" transform="translate(-117.763 -176.779)" fill="#f7b58e"/>
            <path id="Trazado_64981" data-name="Trazado 64981" d="M162.958,389.466l.845,2.237a.738.738,0,0,1-.241.872,2.784,2.784,0,0,1-.443.2,26.619,26.619,0,0,1-1.129-3.053l.009-.018a.8.8,0,0,1,.959-.241" transform="translate(-95.973 -230.703)" fill="#212b53"/>
            <path id="Trazado_64982" data-name="Trazado 64982" d="M162.9,393.256l-1.129-3.053-.149.086,1.138,3.025Z" transform="translate(-95.757 -231.18)" fill="#212b53"/>
            <path id="Trazado_64983" data-name="Trazado 64983" d="M164.626,391.737l.074.2-.39.075-.073-.2Z" transform="translate(-97.304 -232.089)" fill="#fff"/>
            <path id="Trazado_64984" data-name="Trazado 64984" d="M165.024,392.8l.074.2-.39.075-.074-.2Z" transform="translate(-97.54 -232.718)" fill="#fff"/>
            <path id="Trazado_64985" data-name="Trazado 64985" d="M165.278,388.27l-.937.528a.6.6,0,0,0,.207.607l.033.026,1.035-.267Z" transform="translate(-97.356 -230.035)" fill="#f7b58e"/>
            <path id="Trazado_64986" data-name="Trazado 64986" d="M174.15,353.637a5.382,5.382,0,0,0-1.169,2.764,36.076,36.076,0,0,0,.328,4.489,3.763,3.763,0,0,1-1.615,3.208l-5.029,3.654.337.9s6.882-1.032,8.69-4.115,2.236-10.061,2.236-10.061Z" transform="translate(-98.743 -209.517)" fill="#5e6178"/>
            <path id="Trazado_64987" data-name="Trazado 64987" d="M189.042,353.908s-.8.96-.319,3.193c.305,1.425,1.646,3.218,2.547,4.453a3.919,3.919,0,0,1,.465,3.078,26.518,26.518,0,0,0,.442,9.1h.957s1.435-7.334,1.86-12.489a14.875,14.875,0,0,0-1.647-8.132Z" transform="translate(-111.721 -209.207)" fill="#6d7189"/>
            <path id="Trazado_64988" data-name="Trazado 64988" d="M183.39,330.373a13.626,13.626,0,0,0,.044-1.719,5.527,5.527,0,0,0-.834-2.725,3.17,3.17,0,0,1,.556-.557,19.154,19.154,0,0,1,3.24-1.3,6.583,6.583,0,0,0,1.413,1.676,6,6,0,0,0,2.638,1.254c-.011.315-.033.675-.071,1.091-.266,2.854-.355,8.238-.355,8.238a10.194,10.194,0,0,1-3.4,1.276c-2.055.39-3.323.515-3.589-.6a31.61,31.61,0,0,0,.358-6.638" transform="translate(-108.184 -192.003)" fill="#fff"/>
            <path id="Trazado_64989" data-name="Trazado 64989" d="M191.281,309.735l1.269,1.254a2.2,2.2,0,0,1,.6,2.044L193,313.7Z" transform="translate(-113.327 -183.506)" fill="#f7b58e"/>
            <path id="Trazado_64990" data-name="Trazado 64990" d="M184.532,308.571c-3.082,0-1.772,5.918-1.772,5.918s.549,3.838,1.772,5.379c1.058,1.334,3.151.932,4.143.292a3.787,3.787,0,0,1,1.6-.591,1.827,1.827,0,0,0,1.838-1.987c0-1.426-1.7-2.529-2.823-3.317a3.7,3.7,0,0,1-1.453-2.148c-.359-1.461-1.234-3.547-3.307-3.547" transform="translate(-108.115 -182.817)" fill="#212b53"/>
            <path id="Trazado_64991" data-name="Trazado 64991" d="M197.478,406.489l2.549,0c.339.047.717.176.78.567a3.022,3.022,0,0,1,.037.518,28.3,28.3,0,0,1-3.47-.019l-.015-.016a.856.856,0,0,1,.119-1.047" transform="translate(-116.849 -240.827)" fill="#12375a"/>
            <path id="Trazado_64992" data-name="Trazado 64992" d="M201.059,409.123l-3.47-.019.031.18h3.444Z" transform="translate(-117.064 -242.379)" fill="#053c5e"/>
            <path id="Trazado_64993" data-name="Trazado 64993" d="M200.227,406.486l.229,0-.071.417h-.223Z" transform="translate(-118.589 -240.827)" fill="#fff"/>
            <path id="Trazado_64994" data-name="Trazado 64994" d="M201.435,406.486l.229,0-.071.417h-.223Z" transform="translate(-119.304 -240.827)" fill="#fff"/>
            <path id="Trazado_64995" data-name="Trazado 64995" d="M197.416,403.714l.175,1.133a.64.64,0,0,0,.683.022l.039-.023.123-1.132Z" transform="translate(-116.961 -239.185)" fill="#f7b58e"/>
            <path id="Trazado_64996" data-name="Trazado 64996" d="M130.769,274.532l.107,7.61-2.066-.55,1.166-7.419Z" transform="translate(-76.315 -162.437)" fill="#f39f85"/>
            <path id="Trazado_64997" data-name="Trazado 64997" d="M130.822,269.407a1.109,1.109,0,0,0,.05.789l.269,1,.189.1.605.218c-.095-.191-.038.015-.038.015l.22-1.538s.647-.9-.777-1.289a.34.34,0,0,0-.37.121.868.868,0,0,0-.148.591" transform="translate(-77.478 -159.184)" fill="#f39f85"/>
            <path id="Trazado_64998" data-name="Trazado 64998" d="M128.527,298.238a44.7,44.7,0,0,0,1.149-5.985l-1.992-1.014-.9,2.629Z" transform="translate(-75.115 -172.548)" fill="#00666b"/>
            <path id="Trazado_64999" data-name="Trazado 64999" d="M120.991,361.075l.866.15c.179-1.074,2.873-6.168,3.092-8.813a59.861,59.861,0,0,1,.925-6.207l-2.9-.862s-.734,0,.072,5.986c-1.812,2.378-2.3,7.775-2.058,9.746" transform="translate(-71.649 -204.603)" fill="#f39f85"/>
            <path id="Trazado_65000" data-name="Trazado 65000" d="M126.309,340s.681,4.095,1.627,8.474c-.989,2.645.518,10.024.546,10,.113-.107.634.534.634.534s1.1-6.512,1.342-9.449.3-6.518.3-6.518Z" transform="translate(-74.833 -201.438)" fill="#f7b58e"/>
            <path id="Trazado_65001" data-name="Trazado 65001" d="M130.836,384.313a.966.966,0,0,0-.337.8c.075.445.183,1.49.183,1.49h.424l-.013-.974c0-.063.909.974,1.063.974H134.4s.149-.657-1.168-.868a4.807,4.807,0,0,1-2.4-1.418" transform="translate(-77.31 -227.691)" fill="#053c5e"/>
            <path id="Trazado_65002" data-name="Trazado 65002" d="M122.038,381.98l-.06.929a.863.863,0,0,0,.153.55,3.473,3.473,0,0,0,.674.7c-.651.21-1.242-.52-1.553-1.005a1.158,1.158,0,0,1-.168-.8l.11-.732Z" transform="translate(-71.73 -226.1)" fill="#f39f85"/>
            <path id="Trazado_65003" data-name="Trazado 65003" d="M119.572,383.746s-.572.051-.667.487-.366,1.316-.366,1.316l.312.249.441-.873a13,13,0,0,0,1.1,1.338h2.449s0-.81-1.533-.847c-1.413-.034-1.733-1.669-1.733-1.669" transform="translate(-70.23 -227.355)" fill="#212b53"/>
            <path id="Trazado_65004" data-name="Trazado 65004" d="M145.139,276.555l-2.72,7.108-1.715-1.276,3.831-6.459Z" transform="translate(-83.362 -163.477)" fill="#f7b58e"/>
            <path id="Trazado_65005" data-name="Trazado 65005" d="M150.227,271.4a1.108,1.108,0,0,0-.246.751l-.12,1.026.14.159.482.427c-.017-.212-.041,0-.041,0l.774-1.347s.936-.6-.245-1.485a.339.339,0,0,0-.388-.025.866.866,0,0,0-.356.494" transform="translate(-88.787 -160.473)" fill="#f7b58e"/>
            <path id="Trazado_65006" data-name="Trazado 65006" d="M130.509,296.189h-1.753l.7-2.06,1.371.842Z" transform="translate(-76.283 -174.26)" fill="#f39f85"/>
            <path id="Trazado_65007" data-name="Trazado 65007" d="M130.541,296.425c-.009-.052-.021-.1-.031-.143a26.48,26.48,0,0,0,2.533-3.815l-1.475-1.68-2.678,3.185-.984,0a1.971,1.971,0,0,0-2.49.32,3.492,3.492,0,0,0-.423,2.878,10.734,10.734,0,0,1,.17,5.286l4.523,1.686s.1-3.006.174-5.115v-.007a2.354,2.354,0,0,1,.367-1.154,2.061,2.061,0,0,0,.314-1.445" transform="translate(-73.986 -172.28)" fill="#5e6178"/>
            <path id="Trazado_65008" data-name="Trazado 65008" d="M130.39,285.041l-2.875,1.006.283,2.146c0,.031.012.06.018.089.055.01.11.02.165.034l.027.008.026.005a1.967,1.967,0,0,1,1.344,1.345,3.387,3.387,0,0,0,1.244-.016,1.25,1.25,0,0,0,.654-.282c.607-1.323-.886-4.336-.886-4.336" transform="translate(-75.548 -168.876)" fill="#f7b58e"/>
            <path id="Trazado_65009" data-name="Trazado 65009" d="M125.441,285.835c-.774.379-.591,4.367-.725,7.083a3.087,3.087,0,0,1-2.614,2.887,4.757,4.757,0,0,1-2.828-.193,11.1,11.1,0,0,0,2.092-8.637,3.946,3.946,0,0,1,.93-3.284c1.16-1.041,3.554.317,3.554.317s.654,1.307-.409,1.826" transform="translate(-70.665 -167.844)" fill="#212b53"/>
            <path id="Trazado_65010" data-name="Trazado 65010" d="M127.944,319.17a33.56,33.56,0,0,1,.6,4.888c0,1-.246,7.312-.246,7.312s-4.3.311-5.132.311c-.207-5.171-1.386-5.33-1.386-7.742a6.874,6.874,0,0,1,.95-2.988,4.377,4.377,0,0,0,.6-1.677l.028-.1Z" transform="translate(-72.152 -189.096)" fill="#5e6178"/>
            <path id="Trazado_65011" data-name="Trazado 65011" d="M261.463,368.986a53.569,53.569,0,0,1-.088,13.42,3.059,3.059,0,0,0-.738,0s-1.023-8.047-1.263-10.734,0-2.865,0-2.865,1.163-6.442,2.088.179" transform="translate(-153.607 -216.839)" fill="#f39f85"/>
            <path id="Trazado_65012" data-name="Trazado 65012" d="M265.251,325.745l2.264,1.444.955-1.99-2.925-3.352Z" transform="translate(-157.151 -190.682)" fill="#d6e7f2"/>
            <path id="Trazado_65013" data-name="Trazado 65013" d="M235.934,297.805l2.772,7.242,1.77-1.317-3.955-6.667Z" transform="translate(-139.782 -175.999)" fill="#f7b58e"/>
            <path id="Trazado_65014" data-name="Trazado 65014" d="M233.566,289.942a1.143,1.143,0,0,1,.408.706l.339,1.011-.108.19-.479.551a.732.732,0,0,0-.189-.379l-.754-.844s-1.237-1.442-.082-1.932c-.677-1.34-.193-1.305-.193-1.305l.607,1.148Z" transform="translate(-137.575 -170.594)" fill="#f7b58e"/>
            <path id="Trazado_65015" data-name="Trazado 65015" d="M235.042,291.587s.249-.235.027-.794.114-.52.114-.52.925,2.18.628,2.427-.77-1.113-.77-1.113" transform="translate(-139.225 -171.976)" fill="#f7b58e"/>
            <path id="Trazado_65016" data-name="Trazado 65016" d="M247.907,315.622l-.83.065-2.82-3.287-1.523,1.734a46.024,46.024,0,0,0,3.441,5.369c.117.555.722,6.143.722,6.143h4.89s-.779-4.1.6-6.382-4.477-3.641-4.477-3.641" transform="translate(-143.811 -185.085)" fill="#d6e7f2"/>
            <path id="Trazado_65017" data-name="Trazado 65017" d="M256.168,368.986a53.58,53.58,0,0,1-.087,13.42,3.062,3.062,0,0,0-.738,0s-1.023-8.047-1.263-10.734,0-2.865,0-2.865,1.163-6.442,2.088.179" transform="translate(-150.47 -216.839)" fill="#f7b58e"/>
            <path id="Trazado_65018" data-name="Trazado 65018" d="M253.521,307.761l2.816.986-.277,2.1c0,.03-.012.058-.018.088-.054.01-.108.02-.162.033l-.026.008-.026,0a1.926,1.926,0,0,0-1.316,1.318,3.326,3.326,0,0,1-1.219-.015,1.223,1.223,0,0,1-.64-.276c-.594-1.3.868-4.248.868-4.248" transform="translate(-149.603 -182.337)" fill="#f7b58e"/>
            <path id="Trazado_65019" data-name="Trazado 65019" d="M254.342,308.226a1.855,1.855,0,0,1,.058,1.619,2.721,2.721,0,0,0-.095,2.219,2.969,2.969,0,0,0,1.031.931,1.591,1.591,0,0,1,.748,1.206c.063.684.128,1.523.714,1.725,1.7.585,2.323.529,2.55-.888a2.874,2.874,0,0,0-.146-1.388,2.48,2.48,0,0,1,.053-1.86,3.245,3.245,0,0,0,.321-1.111,2.343,2.343,0,0,0-.6-1.158,2.382,2.382,0,0,1-.5-1.706,2.189,2.189,0,0,0-.653-1.928c-1.161-.991-3.74.568-3.74.568a2.487,2.487,0,0,0,.263,1.77" transform="translate(-150.497 -181.031)" fill="#212b53"/>
            <path id="Trazado_65020" data-name="Trazado 65020" d="M268.21,330.073,269.3,331.2c.722.748.945,1.789.077,2.361l-3.552,2.822.326.611a1.491,1.491,0,0,1-.13,1.607l-.375.492-.832-2.853,2.576-3.216a.617.617,0,0,0-.133-.96Z" transform="translate(-156.891 -195.556)" fill="#f7b58e"/>
            <path id="Trazado_65021" data-name="Trazado 65021" d="M251.908,344.9a11.928,11.928,0,0,0-.716,3.74c0,1.034.9,8.832.9,8.832h4.655c-.315-5.759,1.43-6.465,1.43-8.954A7.335,7.335,0,0,0,256.8,344.9Z" transform="translate(-148.822 -204.341)" fill="#053c5e"/>
            <path id="Trazado_65022" data-name="Trazado 65022" d="M259.32,404.136a.86.86,0,0,1,.332.727c-.074.408-.18,1.363-.18,1.363h-.418l.013-.891c0-.058-.9.891-1.049.891H255.8s-.147-.6,1.153-.793a4.8,4.8,0,0,0,2.364-1.3" transform="translate(-151.551 -239.435)" fill="#212b53"/>
            <path id="Trazado_65023" data-name="Trazado 65023" d="M253.517,404.136a.861.861,0,0,1,.332.727c-.075.408-.18,1.363-.18,1.363h-.419l.013-.891c0-.058-.9.891-1.049.891H250s-.147-.6,1.153-.793a4.8,4.8,0,0,0,2.364-1.3" transform="translate(-148.112 -239.435)" fill="#12375a"/>
            <path id="Trazado_65024" data-name="Trazado 65024" d="M111.78,198.131l.192,1.144a1.1,1.1,0,0,1-1.192.04l-.067-.04-.283-1.144Z" transform="translate(-65.425 -117.385)" fill="#f7b58e"/>
            <path id="Trazado_65025" data-name="Trazado 65025" d="M90.528,131.8c1.016,3.353,4.425,8.5,4.425,8.5l-2.693-1.1-1.9-4.4s-.845-6.353.171-3" transform="translate(-53.338 -77.505)" fill="#afd8c7"/>
            <path id="Trazado_65026" data-name="Trazado 65026" d="M102.742,161.856l2.124,13.095h-1.888s-4.24-11.782-4.685-15.246c0-1.962,4.286,0,4.286,0Z" transform="translate(-58.235 -94.103)" fill="#212b53"/>
            <path id="Trazado_65027" data-name="Trazado 65027" d="M88.715,118.153l-.7,1.824-1.525-1.1,1.029-2.151Z" transform="translate(-51.239 -69.154)" fill="#f39f85"/>
            <path id="Trazado_65028" data-name="Trazado 65028" d="M90.783,114.631a1.04,1.04,0,0,0,.6-.015c.884-.844.668-3.664.668-3.664l-.988-.683-1.557.571-.451,1.765a1.476,1.476,0,0,0,.358,1.358,2.879,2.879,0,0,0,1.375.67" transform="translate(-52.733 -65.33)" fill="#f7b58e"/>
            <path id="Trazado_65029" data-name="Trazado 65029" d="M88.787,110.322a.609.609,0,0,1,.765-.3,4.818,4.818,0,0,0,.73.223c.611.128,1.75.117,1.944-.813s-1.014-.85-1.014-.85l-1.605.111a2.965,2.965,0,0,1-1.385-.254.651.651,0,0,0-.811.429,4.068,4.068,0,0,0,.166,2,2.914,2.914,0,0,0,.443.926Z" transform="translate(-51.743 -64.219)" fill="#212b53"/>
            <path id="Trazado_65030" data-name="Trazado 65030" d="M88.495,114.048a.47.47,0,0,1,.558.17c.147.186.136.41-.026.5a.47.47,0,0,1-.558-.17c-.147-.185-.136-.41.026-.5" transform="translate(-52.353 -67.546)" fill="#f7b58e"/>
            <path id="Trazado_65031" data-name="Trazado 65031" d="M111.149,200.049s.005,1.216,2.447,1.946c.5.15.338.3.432.509h-2.81l-1.1-1.237-.342.294-.793-.78s.137-1.128.742-1.138c.5.17,1.425.406,1.425.406" transform="translate(-64.568 -118.281)" fill="#212b53"/>
            <path id="Trazado_65032" data-name="Trazado 65032" d="M94.876,196.622l-.456,1.053a1.1,1.1,0,0,1-1.142-.347l-.051-.059.369-1.082Z" transform="translate(-55.233 -116.233)" fill="#f7b58e"/>
            <path id="Trazado_65033" data-name="Trazado 65033" d="M83.794,121.721s.194-.3-1.533-1.192c-2.6,2.6-3.458,12.568-3.458,12.568H85.61a34.443,34.443,0,0,0-1.816-11.376" transform="translate(-46.688 -71.409)" fill="#fff"/>
            <path id="Trazado_65034" data-name="Trazado 65034" d="M102.071,149.041a.3.3,0,0,0-.142-.328l-1.109-.643a1.291,1.291,0,0,0-.909-.147l-1.2.048-.157.19-.25,1.063c.241-.058.383-.1.383-.1l.764.021s1.442,1.339,2.156.174c.03,1.239.392,1.144.392,1.144Z" transform="translate(-58.24 -87.622)" fill="#f7b58e"/>
            <path id="Trazado_65035" data-name="Trazado 65035" d="M78.619,151.368l-.1.844c0,.011,0,.023,0,.034a3.33,3.33,0,0,0,2.441,3.544,29.979,29.979,0,0,0,7.009,1.24c-2.567,3.3-3.277,12.545-3.277,12.545l1.654.6,6.387-15.213a1.68,1.68,0,0,0-1.2-2.295l-6.1-1.3Z" transform="translate(-46.504 -89.68)" fill="#053c5e"/>
            <path id="Trazado_65036" data-name="Trazado 65036" d="M80.381,126.238a13.68,13.68,0,0,0-2.013,2.35.888.888,0,0,0,.079,1.053c1.417,1.632,6.468,3.2,6.468,3.2l-.327,1.842s-7.168-1.41-9.706-3.956c-2.605-2.613,4.13-8.07,4.13-8.07" transform="translate(-44.01 -72.671)" fill="#fff"/>
            <path id="Trazado_65037" data-name="Trazado 65037" d="M84.045,133.739a.782.782,0,0,0,.071.933,11.579,11.579,0,0,0,3.878,2.117c0,.093,0,.1,0,.209a11.467,11.467,0,0,1-4.03-2.193.983.983,0,0,1-.089-1.173,13.886,13.886,0,0,1,2.03-2.371l.137.149a13.694,13.694,0,0,0-2,2.329" transform="translate(-49.601 -77.767)" fill="#aaa"/>
            <path id="Trazado_65038" data-name="Trazado 65038" d="M79.381,144.973a36.069,36.069,0,0,0,8.227,2.851,1.508,1.508,0,0,1-.043.195,35.85,35.85,0,0,1-8.211-2.813,1.934,1.934,0,0,1,.027-.233" transform="translate(-47.014 -85.891)" fill="#aaa"/>
            <path id="Trazado_65039" data-name="Trazado 65039" d="M104.744,144.974l2.122-7.585-.389-.109-2.023,7.233-6.09-1.058-.069.4Z" transform="translate(-58.235 -81.333)" fill="#aaa"/>
            <path id="Trazado_65040" data-name="Trazado 65040" d="M93.1,198.692s-.1,1.226,2.346,1.956c.5.15.338.3.432.509h-2.81l-1.1-1.237-.342.294-.793-.78s.37-1.128.974-1.137c.5.17,1.294.4,1.294.4" transform="translate(-53.817 -117.483)" fill="#212b53"/>
          </g>
        </g>
      </g>
    </g>
  </g>
</svg>
