<svg xmlns="http://www.w3.org/2000/svg" xmlns:xlink="http://www.w3.org/1999/xlink" width="105.487" height="115.405" viewBox="0 0 105.487 115.405">
  <defs>
    <clipPath id="clip-path">
      <rect id="Rectángulo_25630" data-name="Rectángulo 25630" width="105.487" height="115.405" fill="none"/>
    </clipPath>
  </defs>
  <g id="Grupo_24958" data-name="Grupo 24958" transform="translate(0)">
    <g id="Grupo_24957" data-name="Grupo 24957" transform="translate(0)" clip-path="url(#clip-path)">
      <path id="Trazado_64764" data-name="Trazado 64764" d="M91.108,24.428a6.066,6.066,0,0,0,12.133,0c0-3.351-2.487-4.9-6.067-6.066-3.184-1.04-6.066-2.716-6.066-6.066a6.066,6.066,0,1,1,12.133,0" transform="translate(-10.157 -0.694)" fill="none" stroke="#344154" stroke-linecap="round" stroke-linejoin="round" stroke-width="3"/>
      <line id="Línea_164" data-name="Línea 164" y2="3.423" transform="translate(87.017 2.153)" fill="none" stroke="#344154" stroke-linecap="round" stroke-linejoin="round" stroke-width="3"/>
      <line id="Línea_165" data-name="Línea 165" y2="3.423" transform="translate(87.017 29.799)" fill="none" stroke="#344154" stroke-linecap="round" stroke-linejoin="round" stroke-width="3"/>
      <path id="Trazado_64765" data-name="Trazado 64765" d="M1.5,125.278V105.628a5.116,5.116,0,0,1,5.116-5.116H35.774" transform="translate(-0.167 -11.206)" fill="none" stroke="#344154" stroke-linecap="round" stroke-linejoin="round" stroke-width="3"/>
      <path id="Trazado_64766" data-name="Trazado 64766" d="M40.074,97.4V77.755a5.116,5.116,0,0,1,5.116-5.116H74.348" transform="translate(-4.468 -8.098)" fill="none" stroke="#344154" stroke-linecap="round" stroke-linejoin="round" stroke-width="3"/>
      <path id="Trazado_64767" data-name="Trazado 64767" d="M78.648,69.532V49.882a5.116,5.116,0,0,1,5.116-5.116h29.157" transform="translate(-8.768 -4.991)" fill="none" stroke="#344154" stroke-linecap="round" stroke-linejoin="round" stroke-width="3"/>
      <path id="Trazado_64768" data-name="Trazado 64768" d="M25.5,9.613A8.113,8.113,0,1,1,17.392,1.5,8.113,8.113,0,0,1,25.5,9.613Z" transform="translate(-1.034 -0.167)" fill="none" stroke="#344154" stroke-linecap="round" stroke-linejoin="round" stroke-width="3"/>
      <line id="Línea_166" data-name="Línea 166" y2="28.169" transform="translate(22.161 53.906)" fill="none" stroke="#344154" stroke-linecap="round" stroke-linejoin="round" stroke-width="3"/>
      <line id="Línea_167" data-name="Línea 167" y1="27.689" transform="translate(10.553 53.906)" fill="none" stroke="#344154" stroke-linecap="round" stroke-linejoin="round" stroke-width="3"/>
      <path id="Trazado_64769" data-name="Trazado 64769" d="M18.41,33.793v3.384a5.991,5.991,0,0,0,5.99,5.989H37.589" transform="translate(-2.052 -3.767)" fill="none" stroke="#344154" stroke-linecap="round" stroke-linejoin="round" stroke-width="3"/>
      <path id="Trazado_64770" data-name="Trazado 64770" d="M11.877,99.544V91.833h8.944a7.712,7.712,0,0,1,7.711,7.711" transform="translate(-1.324 -10.238)" fill="none" stroke="#344154" stroke-linecap="round" stroke-linejoin="round" stroke-width="3"/>
      <path id="Trazado_64771" data-name="Trazado 64771" d="M26.629,36.791V33.817a9.4,9.4,0,0,0-18.8,0v8.422a30.6,30.6,0,0,0,3.594,14.389H23.034a30.553,30.553,0,0,0,3.147-9.175" transform="translate(-0.873 -2.722)" fill="none" stroke="#344154" stroke-linecap="round" stroke-linejoin="round" stroke-width="3"/>
      <path id="Trazado_64772" data-name="Trazado 64772" d="M56.3,112.9H24.942a4.442,4.442,0,0,1,4.443-4.443H56.3A28.739,28.739,0,0,0,84.713,83.8a4.75,4.75,0,0,1,4.725-4.037A33.174,33.174,0,0,1,56.3,112.9" transform="translate(-2.781 -8.892)" fill="#f9a44a"/>
      <path id="Trazado_64773" data-name="Trazado 64773" d="M24.941,117.188H56.3A38.912,38.912,0,0,0,95.214,78.276V66.447" transform="translate(-2.781 -7.408)" fill="none" stroke="#344154" stroke-linecap="round" stroke-linejoin="round" stroke-width="3"/>
      <path id="Trazado_64774" data-name="Trazado 64774" d="M94.485,67.29l8.589-8.588,8,8" transform="translate(-10.534 -6.544)" fill="none" stroke="#344154" stroke-linecap="round" stroke-linejoin="round" stroke-width="3"/>
    </g>
  </g>
</svg>
