<svg xmlns="http://www.w3.org/2000/svg" width="734" height="392.328" viewBox="0 0 734 392.328">
  <g id="Grupo_15880" data-name="Grupo 15880" transform="translate(-50 -2976.756)">
    <g id="Grupo_15871" data-name="Grupo 15871">
      <rect id="Rectángulo_3752" data-name="Rectángulo 3752" width="487.14" height="392.328" rx="12.472" transform="translate(50 2976.756)" fill="#eae699"/>
      <rect id="Rectángulo_3753" data-name="Rectángulo 3753" width="220.412" height="119.115" rx="5.883" transform="translate(563.588 3139.517)" fill="#ed8730"/>
      <g id="Grupo_15868" data-name="Grupo 15868">
        <path id="Trazado_37740" data-name="Trazado 37740" d="M641.868,3347.3v-2.085h.99c.75,0,1.23.4,1.23,1.049a1.068,1.068,0,0,1-1.2,1.036Zm0,4.425v-2.4h1.17c1.125,0,1.695.36,1.695,1.2,0,.765-.555,1.2-1.65,1.2Zm-.78,2.086h2.4c2.475,0,3.8-1.26,3.8-3.211a2.612,2.612,0,0,0-2.161-2.7,2.062,2.062,0,0,0,1.32-2.1c0-1.606-1.14-2.656-3.33-2.656h-1.995c-1.351,0-1.681.525-1.681,1.71v7.427C639.437,3353.436,639.8,3353.811,641.088,3353.811Z" fill-rule="evenodd"/>
        <path id="Trazado_37741" data-name="Trazado 37741" d="M650.784,3352.221v-7.487c0-1.155-.39-1.725-1.216-1.725s-1.215.57-1.215,1.725v7.487c0,1.155.39,1.725,1.215,1.725S650.784,3353.376,650.784,3352.221Z" fill-rule="evenodd"/>
        <path id="Trazado_37742" data-name="Trazado 37742" d="M656.764,3343.144h-2.73c-1.351,0-1.681.525-1.681,1.71v7.427c0,1.155.36,1.53,1.651,1.53h2.835c1.155,0,1.725-.36,1.725-1.125s-.57-1.125-1.725-1.125h-2.055v-2h1.71c1.155,0,1.725-.36,1.725-1.125s-.57-1.125-1.725-1.125h-1.71v-1.905h1.98c1.155,0,1.725-.361,1.725-1.126S657.919,3343.144,656.764,3343.144Z" fill-rule="evenodd"/>
        <path id="Trazado_37743" data-name="Trazado 37743" d="M661.97,3352.221v-4.906l4.4,5.806a1.75,1.75,0,0,0,1.4.885c.781,0,1.111-.51,1.111-1.515v-7.757c0-1.155-.391-1.725-1.215-1.725s-1.216.57-1.216,1.725v5l-4.486-5.926a1.564,1.564,0,0,0-1.29-.78c-.78,0-1.125.555-1.125,1.62v7.577c0,1.155.39,1.725,1.215,1.725S661.97,3353.376,661.97,3352.221Z" fill-rule="evenodd"/>
        <path id="Trazado_37744" data-name="Trazado 37744" d="M674.784,3343.144h-2.731c-1.35,0-1.68.525-1.68,1.71v7.427c0,1.155.36,1.53,1.651,1.53h2.835c1.155,0,1.725-.36,1.725-1.125s-.57-1.125-1.725-1.125H672.8v-2h1.71c1.155,0,1.725-.36,1.725-1.125s-.57-1.125-1.725-1.125H672.8v-1.905h1.98c1.155,0,1.725-.361,1.725-1.126S675.939,3343.144,674.784,3343.144Z" fill-rule="evenodd"/>
        <path id="Trazado_37745" data-name="Trazado 37745" d="M684.58,3350.51c0-1.6-.96-2.58-2.94-3.24-1.216-.405-1.936-.5-1.936-1.261,0-.524.435-.915,1.186-.915.645,0,1.32.376,1.9.376a.979.979,0,0,0,1.1-1.036c0-.855-1.14-1.575-2.91-1.575-2.356,0-3.871,1.455-3.871,3.376,0,1.665.96,2.415,3.015,3.03,1.156.345,1.861.615,1.861,1.47a1.128,1.128,0,0,1-1.2,1.1,26.053,26.053,0,0,1-2.595-.54,1.078,1.078,0,0,0-1.2,1.095c0,.87,1.455,1.71,3.451,1.71C682.99,3354.1,684.58,3352.581,684.58,3350.51Z" fill-rule="evenodd"/>
        <path id="Trazado_37746" data-name="Trazado 37746" d="M686.821,3345.41v6.811c0,1.155.39,1.725,1.215,1.725s1.215-.57,1.215-1.725v-6.811h.9c1.156,0,1.726-.361,1.726-1.126s-.57-1.14-1.726-1.14h-4.23c-1.155,0-1.726.375-1.726,1.14s.571,1.126,1.726,1.126Z" fill-rule="evenodd"/>
        <path id="Trazado_37747" data-name="Trazado 37747" d="M692.983,3351.8h3.946l.3.99c.24.795.645,1.185,1.275,1.185a1.127,1.127,0,0,0,1.2-1.14,2.429,2.429,0,0,0-.165-.765l-2.7-7.667a1.872,1.872,0,0,0-1.786-1.41c-.9,0-1.47.51-1.86,1.575l-2.775,7.532a1.884,1.884,0,0,0-.12.7,1.111,1.111,0,0,0,1.155,1.155c.525,0,.93-.36,1.17-1.08Zm.69-2.236,1.32-3.96,1.231,3.96Z" fill-rule="evenodd"/>
        <path id="Trazado_37748" data-name="Trazado 37748" d="M702.669,3349.595l2.835,3.556c.45.555.825.87,1.3.87a1.124,1.124,0,0,0,1.155-1.14,2.3,2.3,0,0,0-.72-1.4l-1.92-2.131a2.813,2.813,0,0,0,2.551-2.88c0-1.966-1.441-3.331-4.066-3.331h-1.891c-1.35,0-1.68.525-1.68,1.71v7.367c0,1.155.39,1.725,1.215,1.725s1.216-.57,1.216-1.725Zm0-1.62v-2.6h1.155c.975,0,1.515.48,1.515,1.275,0,.825-.555,1.32-1.545,1.32Z" fill-rule="evenodd"/>
        <path id="Trazado_37749" data-name="Trazado 37749" d="M643.995,3357.909h-2.73c-1.351,0-1.681.525-1.681,1.71v7.366c0,1.155.39,1.726,1.215,1.726s1.216-.571,1.216-1.726v-2.655h1.71c1.155,0,1.725-.36,1.725-1.125s-.57-1.125-1.725-1.125h-1.71v-1.906h1.98c1.155,0,1.725-.36,1.725-1.125S645.15,3357.909,643.995,3357.909Z" fill-rule="evenodd"/>
        <path id="Trazado_37750" data-name="Trazado 37750" d="M648.97,3366.565h3.946l.3.991c.24.8.645,1.185,1.275,1.185a1.127,1.127,0,0,0,1.2-1.14,2.431,2.431,0,0,0-.165-.765l-2.7-7.667a1.871,1.871,0,0,0-1.786-1.41c-.9,0-1.47.51-1.86,1.575l-2.776,7.531a1.914,1.914,0,0,0-.119.706,1.111,1.111,0,0,0,1.155,1.155c.525,0,.93-.36,1.17-1.08Zm.69-2.235,1.32-3.961,1.231,3.961Z" fill-rule="evenodd"/>
        <path id="Trazado_37751" data-name="Trazado 37751" d="M656.927,3366.715a4,4,0,0,0-.09.736,1.147,1.147,0,0,0,1.185,1.26c.75,0,1.125-.495,1.275-1.56l.84-6.226,1.575,6.571c.225.915.631,1.23,1.426,1.23a1.058,1.058,0,0,0,1.02-.435c.36-.571.975-3.031,1.98-7.366l.765,6.375c.12.946.51,1.426,1.2,1.426a1.178,1.178,0,0,0,1.23-1.275,3.474,3.474,0,0,0-.06-.586l-1.185-7.336c-.2-1.185-.646-1.755-1.711-1.755a1.609,1.609,0,0,0-1.665,1.425l-1.515,6.391-1.621-6.376a1.627,1.627,0,0,0-1.7-1.44c-1.035,0-1.455.555-1.65,1.665Z" fill-rule="evenodd"/>
        <path id="Trazado_37752" data-name="Trazado 37752" d="M673.949,3366.985V3359.5c0-1.155-.39-1.725-1.215-1.725s-1.215.57-1.215,1.725v7.486c0,1.155.39,1.726,1.215,1.726S673.949,3368.14,673.949,3366.985Z" fill-rule="evenodd"/>
        <path id="Trazado_37753" data-name="Trazado 37753" d="M676.85,3359.5v7.546c0,1.156.361,1.531,1.651,1.531h2.835c1.155,0,1.726-.36,1.726-1.125s-.571-1.125-1.726-1.125h-2.055V3359.5c0-1.155-.39-1.725-1.215-1.725S676.85,3358.344,676.85,3359.5Z" fill-rule="evenodd"/>
        <path id="Trazado_37754" data-name="Trazado 37754" d="M687.2,3366.985V3359.5c0-1.155-.39-1.725-1.216-1.725s-1.215.57-1.215,1.725v7.486c0,1.155.39,1.726,1.215,1.726S687.2,3368.14,687.2,3366.985Z" fill-rule="evenodd"/>
        <path id="Trazado_37755" data-name="Trazado 37755" d="M691.84,3366.565h3.946l.3.991c.24.8.645,1.185,1.275,1.185a1.127,1.127,0,0,0,1.2-1.14,2.431,2.431,0,0,0-.165-.765l-2.7-7.667a1.87,1.87,0,0,0-1.785-1.41c-.9,0-1.471.51-1.861,1.575l-2.775,7.531a1.894,1.894,0,0,0-.12.706,1.111,1.111,0,0,0,1.155,1.155c.525,0,.93-.36,1.17-1.08Zm.69-2.235,1.321-3.961,1.23,3.961Z" fill-rule="evenodd"/>
        <path id="Trazado_37756" data-name="Trazado 37756" d="M702.857,3364.36l2.836,3.556c.45.555.825.87,1.3.87a1.124,1.124,0,0,0,1.155-1.14,2.3,2.3,0,0,0-.72-1.4l-1.92-2.13a2.812,2.812,0,0,0,2.55-2.88c0-1.966-1.44-3.331-4.066-3.331h-1.89c-1.35,0-1.68.525-1.68,1.71v7.366c0,1.155.39,1.726,1.215,1.726s1.215-.571,1.215-1.726Zm0-1.62v-2.6h1.156c.975,0,1.515.48,1.515,1.275,0,.826-.555,1.321-1.545,1.321Z" fill-rule="evenodd"/>
        <rect id="Rectángulo_3754" data-name="Rectángulo 3754" width="68.476" height="1.142" transform="translate(639.435 3355.096)" fill="#52a228"/>
        <path id="Trazado_37757" data-name="Trazado 37757" d="M650.715,3289.286s-6.881,17.1-7.432,18.8c-1.486,4.59,2.71,9.232,2.71,9.232-.013-.036,14.206,14.076,14.206,22.047l12.558,0s-.158-12.464-.143-12.482c-.186-4.031-.821-4.869-2.309-6.843-.526-.7-2.5-2.716-3.772-3.967-3.215-3.157-8.868-8.86-9.431-9.357-.787-.693-2.838-2.536-4.29-.945-1.27,1.391.3,3.716.3,3.716l6.029,7.546s.665.79.127,1.229c-.51.413-.94.017-1.218-.317-2.015-2.42-7.016-8.407-7.1-8.492-1.516-1.467-.188-4.378-.188-4.378s3.421-9.423,3.571-10.312c.123-.725.1-.991-.17-1.361a2.626,2.626,0,0,0-1.1-.643l.185-.882a1.792,1.792,0,0,0-.625-1.688A6.282,6.282,0,0,0,650.715,3289.286Z" fill="#52a228" fill-rule="evenodd"/>
        <path id="Trazado_37758" data-name="Trazado 37758" d="M696.394,3289.286s6.88,17.1,7.432,18.8c1.486,4.59-2.71,9.232-2.71,9.232.012-.036-14.206,14.076-14.206,22.047l-12.558,0s.158-12.464.143-12.482c.186-4.031.821-4.869,2.309-6.843.525-.7,2.5-2.716,3.772-3.967,3.214-3.157,8.868-8.86,9.431-9.357.787-.693,2.838-2.536,4.29-.945,1.269,1.391-.3,3.716-.3,3.716l-6.029,7.546s-.666.79-.127,1.229c.51.413.94.017,1.218-.317,2.015-2.42,7.015-8.407,7.1-8.492,1.517-1.467.188-4.378.188-4.378s-3.42-9.423-3.571-10.312c-.123-.725-.1-.991.171-1.361a2.625,2.625,0,0,1,1.1-.643l-.184-.882a1.789,1.789,0,0,1,.625-1.688A6.282,6.282,0,0,1,696.394,3289.286Z" fill="#52a228" fill-rule="evenodd"/>
        <path id="Trazado_37759" data-name="Trazado 37759" d="M661.774,3292.207a3.212,3.212,0,1,1,3.212,3.212A3.212,3.212,0,0,1,661.774,3292.207Zm15.295-2.958a3.843,3.843,0,1,1,3.843,3.843A3.843,3.843,0,0,1,677.069,3289.249Zm2.359,18.026s.108,3.082.219,7.406l-.223.225a39.79,39.79,0,0,0-4.26,4.522,10.509,10.509,0,0,0-1.6,2.667,10.27,10.27,0,0,0-1.153-2.074c-.047-6.866-.117-12.358-.13-12.74.012-.283.018-.57.018-.859,0-4.5-1.658-9.407-4.767-11.161a5.7,5.7,0,0,1,4.413-2.565c4.15,0,7.514,6.025,7.514,13.458Q679.454,3306.719,679.428,3307.275Zm-11.708-19.8a4.221,4.221,0,1,1,4.22,4.221A4.221,4.221,0,0,1,667.72,3287.476Zm-8.452,18.946c0-5.657,2.56-10.242,5.718-10.242s5.718,4.585,5.718,10.242c0,.287-.006.572-.019.853,0,0,.061,4.61.111,10.76-.867-.952-1.9-1.942-3.111-3.129-2.506-2.462-6.486-6.46-8.417-8.371Zm28.483.092c-2.245,2.032-4.835,4.741-6.58,6.575-.071-3.964-.127-6.821-.127-6.935a21.289,21.289,0,0,0-2.892-11.114,4.425,4.425,0,0,1,2.76-1.038c3.778,0,6.841,5.485,6.841,12.252Z" fill-rule="evenodd"/>
      </g>
      <rect id="Rectángulo_3755" data-name="Rectángulo 3755" width="179.817" height="85.004" rx="6.921" transform="translate(345.472 3035.06)" fill="#92934e"/>
      <rect id="Rectángulo_3756" data-name="Rectángulo 3756" width="179.817" height="85.004" rx="6.921" transform="translate(345.472 3153.485)" fill="#92934e"/>
      <rect id="Rectángulo_3757" data-name="Rectángulo 3757" width="179.817" height="85.004" rx="6.921" transform="translate(345.336 3272)" fill="#92934e"/>
      <rect id="Rectángulo_3758" data-name="Rectángulo 3758" width="179.817" height="85.004" rx="6.921" transform="translate(122.291 3035.06)" fill="#92934e"/>
      <rect id="Rectángulo_3759" data-name="Rectángulo 3759" width="179.817" height="85.004" rx="6.921" transform="translate(122.291 3153.485)" fill="#92934e"/>
      <rect id="Rectángulo_3760" data-name="Rectángulo 3760" width="179.817" height="85.004" rx="6.921" transform="translate(122.291 3272)" fill="#415214"/>
      <path id="Trazado_37760" data-name="Trazado 37760" d="M113.993,3072.924,100.745,3054.4,87.5,3035.871,74.248,3054.4,61,3072.924H78.233v281.168H96.76V3072.924Z" fill="#fff" fill-rule="evenodd"/>
      <g id="Grupo_15870" data-name="Grupo 15870">
        <g id="Grupo_15869" data-name="Grupo 15869">
          <path id="Trazado_37761" data-name="Trazado 37761" d="M201.064,3011.405v-10.676h3.726a5.389,5.389,0,0,1,2.789.678,4.157,4.157,0,0,1,1.7,1.866,6.571,6.571,0,0,1,.551,2.79,5.628,5.628,0,0,1-1.292,3.9,4.759,4.759,0,0,1-3.743,1.445Zm1.937-1.72h1.7a2.832,2.832,0,0,0,2.328-.943,5.036,5.036,0,0,0,0-5.356,2.833,2.833,0,0,0-2.328-.943H203Z" fill="#415214"/>
          <path id="Trazado_37762" data-name="Trazado 37762" d="M218.728,3007.509l-.03.462h-5.692a2.161,2.161,0,0,0,.641,1.553,2.073,2.073,0,0,0,1.46.54,1.983,1.983,0,0,0,1.077-.291,1.848,1.848,0,0,0,.711-.834l1.7.276a3.3,3.3,0,0,1-1.312,1.721,3.806,3.806,0,0,1-2.16.619,3.939,3.939,0,0,1-2.868-1.043,3.935,3.935,0,0,1,2.808-6.81,4.307,4.307,0,0,1,1.457.235,3.32,3.32,0,0,1,1.154.693,3.059,3.059,0,0,1,.772,1.191A4.915,4.915,0,0,1,218.728,3007.509Zm-3.658-2.466a1.879,1.879,0,0,0-2,1.684h3.814a1.7,1.7,0,0,0-1.81-1.684Z" fill="#415214"/>
          <path id="Trazado_37763" data-name="Trazado 37763" d="M222.273,3005.1a2.37,2.37,0,0,1,.973-.936,2.993,2.993,0,0,1,1.471-.39v1.683a2.726,2.726,0,0,0-1.788.487,2.1,2.1,0,0,0-.574,1.673v3.792h-1.869v-7.547h1.787Z" fill="#415214"/>
          <path id="Trazado_37764" data-name="Trazado 37764" d="M232.941,3007.509l-.029.462H227.22a2.161,2.161,0,0,0,.641,1.553,2.073,2.073,0,0,0,1.46.54,1.977,1.977,0,0,0,1.076-.291,1.844,1.844,0,0,0,.712-.834l1.7.276a3.3,3.3,0,0,1-1.312,1.721,3.808,3.808,0,0,1-2.16.619,3.939,3.939,0,0,1-2.868-1.043,3.935,3.935,0,0,1,2.808-6.81,4.307,4.307,0,0,1,1.457.235,3.32,3.32,0,0,1,1.154.693,3.059,3.059,0,0,1,.772,1.191A4.892,4.892,0,0,1,232.941,3007.509Zm-3.657-2.466a1.879,1.879,0,0,0-2,1.684h3.814a1.7,1.7,0,0,0-1.81-1.684Z" fill="#415214"/>
          <path id="Trazado_37765" data-name="Trazado 37765" d="M238.022,3011.547a3.9,3.9,0,0,1-2.846-1.088,4.174,4.174,0,0,1,0-5.669,4.3,4.3,0,0,1,5.208-.376,3.24,3.24,0,0,1,1.259,1.978l-1.721.209a1.88,1.88,0,0,0-.7-1.051,2.038,2.038,0,0,0-1.211-.358,1.9,1.9,0,0,0-1.505.67,2.958,2.958,0,0,0,0,3.521,1.906,1.906,0,0,0,1.505.667,2.025,2.025,0,0,0,1.211-.359,1.875,1.875,0,0,0,.7-1.049l1.721.208a3.257,3.257,0,0,1-1.27,1.985A3.89,3.89,0,0,1,238.022,3011.547Z" fill="#415214"/>
          <path id="Trazado_37766" data-name="Trazado 37766" d="M247.55,3003.71a2.628,2.628,0,0,1,1.956.711,2.828,2.828,0,0,1,.7,2.075v4.909h-1.862v-4.589a1.6,1.6,0,0,0-.4-1.214,1.477,1.477,0,0,0-1.057-.38,1.741,1.741,0,0,0-1.226.455,1.905,1.905,0,0,0-.5,1.452v4.276H243.3v-11.443h1.862v4.828A2.839,2.839,0,0,1,247.55,3003.71Z" fill="#415214"/>
          <path id="Trazado_37767" data-name="Trazado 37767" d="M258.733,3010.492a4.5,4.5,0,0,1-5.811,0,4.208,4.208,0,0,1,0-5.724,4.528,4.528,0,0,1,5.818,0,4.207,4.207,0,0,1,0,5.724Zm-2.928-.435a2.062,2.062,0,0,0,1.591-.67,2.836,2.836,0,0,0,0-3.525,2.063,2.063,0,0,0-1.591-.67,2,2,0,0,0-1.553.67,2.862,2.862,0,0,0,0,3.525A2,2,0,0,0,255.8,3010.057Z" fill="#415214"/>
          <path id="Trazado_37768" data-name="Trazado 37768" d="M269.8,3003.71a2.628,2.628,0,0,1,1.956.711,2.828,2.828,0,0,1,.7,2.075v4.909H270.6v-4.589a1.6,1.6,0,0,0-.4-1.214,1.477,1.477,0,0,0-1.057-.38,1.741,1.741,0,0,0-1.226.455,1.9,1.9,0,0,0-.5,1.452v4.276H265.55v-11.443h1.862v4.828A2.839,2.839,0,0,1,269.8,3003.71Z" fill="#415214"/>
          <path id="Trazado_37769" data-name="Trazado 37769" d="M279.57,3003.858h1.863v7.547h-1.766l-.052-.931a2.468,2.468,0,0,1-.987.8,3.221,3.221,0,0,1-1.367.281,2.827,2.827,0,0,1-2.023-.682,2.541,2.541,0,0,1-.719-1.934v-5.081h1.863v4.679a1.458,1.458,0,0,0,.406,1.136,1.5,1.5,0,0,0,1.046.369,1.731,1.731,0,0,0,1.245-.462,1.941,1.941,0,0,0,.491-1.445Z" fill="#415214"/>
          <path id="Trazado_37770" data-name="Trazado 37770" d="M292.332,3003.71a2.725,2.725,0,0,1,1.885.625,2.256,2.256,0,0,1,.7,1.773v5.3h-1.862v-4.783a1.4,1.4,0,0,0-.362-1.046,1.251,1.251,0,0,0-.912-.354,1.407,1.407,0,0,0-1.07.436,1.921,1.921,0,0,0-.413,1.36v4.387h-1.885v-4.745a1.462,1.462,0,0,0-.361-1.077,1.268,1.268,0,0,0-.935-.361,1.376,1.376,0,0,0-1.062.451,2.068,2.068,0,0,0-.413,1.427v4.3h-1.855v-7.547h1.855v.91a2.477,2.477,0,0,1,2.146-1.058,2.983,2.983,0,0,1,1.378.3,1.946,1.946,0,0,1,.871.864A2.567,2.567,0,0,1,292.332,3003.71Z" fill="#415214"/>
          <path id="Trazado_37771" data-name="Trazado 37771" d="M303.089,3009.289a6.981,6.981,0,0,0,.194,1.915v.2h-1.765l-.179-.849a2.5,2.5,0,0,1-1.062.749,3.782,3.782,0,0,1-1.36.25,3.1,3.1,0,0,1-.871-.117,2.379,2.379,0,0,1-.737-.353,1.593,1.593,0,0,1-.526-.655,2.576,2.576,0,0,1,0-1.952,1.7,1.7,0,0,1,.585-.69,3.784,3.784,0,0,1,.853-.443,7.519,7.519,0,0,1,1.117-.3l1.259-.261a1.186,1.186,0,0,0,.544-.231.52.52,0,0,0,.164-.4,1.137,1.137,0,0,0-.119-.533.878.878,0,0,0-.324-.35,1.54,1.54,0,0,0-.444-.179,2.23,2.23,0,0,0-.506-.056,1.371,1.371,0,0,0-1.564,1.222l-1.655-.312q.439-2.221,3.316-2.221a5.665,5.665,0,0,1,.9.067,3.322,3.322,0,0,1,.831.253,2.286,2.286,0,0,1,.7.478,2.132,2.132,0,0,1,.466.774,3.22,3.22,0,0,1,.178,1.117Zm-3.6.977a1.751,1.751,0,0,0,1.4-.589,2.748,2.748,0,0,0,.5-1.811l-1.833.47a2.312,2.312,0,0,0-.89.353.762.762,0,0,0-.3.645.816.816,0,0,0,.313.693A1.283,1.283,0,0,0,299.491,3010.266Z" fill="#415214"/>
          <path id="Trazado_37772" data-name="Trazado 37772" d="M309.489,3003.71a2.82,2.82,0,0,1,2.018.682,2.525,2.525,0,0,1,.723,1.932v5.081h-1.862v-4.678a1.458,1.458,0,0,0-.407-1.14,1.494,1.494,0,0,0-1.039-.365,1.74,1.74,0,0,0-1.247.462,1.926,1.926,0,0,0-.5,1.445v4.276h-1.862v-7.547h1.862v.872A2.781,2.781,0,0,1,309.489,3003.71Z" fill="#415214"/>
          <path id="Trazado_37773" data-name="Trazado 37773" d="M320.76,3010.492a4.5,4.5,0,0,1-5.811,0,4.208,4.208,0,0,1,0-5.724,4.529,4.529,0,0,1,5.819,0,4.208,4.208,0,0,1,0,5.724Zm-2.927-.435a2.062,2.062,0,0,0,1.59-.67,2.833,2.833,0,0,0,0-3.525,2.062,2.062,0,0,0-1.59-.67,2.006,2.006,0,0,0-1.554.67,2.862,2.862,0,0,0,0,3.525A2.006,2.006,0,0,0,317.833,3010.057Z" fill="#415214"/>
          <path id="Trazado_37774" data-name="Trazado 37774" d="M333.529,3009.289a6.981,6.981,0,0,0,.194,1.915v.2h-1.765l-.179-.849a2.5,2.5,0,0,1-1.062.749,3.782,3.782,0,0,1-1.36.25,3.1,3.1,0,0,1-.871-.117,2.378,2.378,0,0,1-.737-.353,1.593,1.593,0,0,1-.526-.655,2.576,2.576,0,0,1,0-1.952,1.7,1.7,0,0,1,.585-.69,3.762,3.762,0,0,1,.853-.443,7.519,7.519,0,0,1,1.117-.3l1.259-.261a1.186,1.186,0,0,0,.544-.231.52.52,0,0,0,.164-.4,1.137,1.137,0,0,0-.119-.533.878.878,0,0,0-.324-.35,1.54,1.54,0,0,0-.444-.179,2.23,2.23,0,0,0-.506-.056,1.371,1.371,0,0,0-1.564,1.222l-1.655-.312q.439-2.221,3.316-2.221a5.665,5.665,0,0,1,.9.067,3.322,3.322,0,0,1,.831.253,2.3,2.3,0,0,1,.7.478,2.146,2.146,0,0,1,.466.774,3.22,3.22,0,0,1,.178,1.117Zm-3.6.977a1.748,1.748,0,0,0,1.4-.589,2.742,2.742,0,0,0,.5-1.811l-1.833.47a2.312,2.312,0,0,0-.89.353.763.763,0,0,0-.3.645.819.819,0,0,0,.313.693A1.288,1.288,0,0,0,329.931,3010.266Z" fill="#415214"/>
          <path id="Trazado_37775" data-name="Trazado 37775" d="M339.72,3011.405v-11.443H341.6v11.443Z" fill="#415214"/>
          <path id="Trazado_37776" data-name="Trazado 37776" d="M349.9,3009.289a6.941,6.941,0,0,0,.194,1.915v.2h-1.766l-.179-.849a2.494,2.494,0,0,1-1.061.749,3.782,3.782,0,0,1-1.36.25,3.106,3.106,0,0,1-.872-.117,2.379,2.379,0,0,1-.737-.353,1.583,1.583,0,0,1-.525-.655,2.576,2.576,0,0,1,0-1.952,1.688,1.688,0,0,1,.584-.69,3.805,3.805,0,0,1,.853-.443,7.535,7.535,0,0,1,1.118-.3l1.259-.261a1.182,1.182,0,0,0,.543-.231.517.517,0,0,0,.165-.4,1.138,1.138,0,0,0-.12-.533.871.871,0,0,0-.324-.35,1.534,1.534,0,0,0-.443-.179,2.239,2.239,0,0,0-.507-.056,1.372,1.372,0,0,0-1.564,1.222l-1.654-.312q.439-2.221,3.315-2.221a5.677,5.677,0,0,1,.9.067,3.3,3.3,0,0,1,.83.253,2.286,2.286,0,0,1,.7.478,2.118,2.118,0,0,1,.466.774,3.219,3.219,0,0,1,.179,1.117Zm-3.6.977a1.749,1.749,0,0,0,1.4-.589,2.742,2.742,0,0,0,.5-1.811l-1.833.47a2.312,2.312,0,0,0-.89.353.763.763,0,0,0-.3.645.816.816,0,0,0,.313.693A1.284,1.284,0,0,0,346.306,3010.266Z" fill="#415214"/>
          <path id="Trazado_37777" data-name="Trazado 37777" d="M362.047,3009.289a6.941,6.941,0,0,0,.194,1.915v.2h-1.766l-.179-.849a2.494,2.494,0,0,1-1.061.749,3.782,3.782,0,0,1-1.36.25,3.106,3.106,0,0,1-.872-.117,2.378,2.378,0,0,1-.737-.353,1.583,1.583,0,0,1-.525-.655,2.576,2.576,0,0,1,0-1.952,1.7,1.7,0,0,1,.584-.69,3.805,3.805,0,0,1,.853-.443,7.535,7.535,0,0,1,1.118-.3l1.259-.261a1.191,1.191,0,0,0,.544-.231.52.52,0,0,0,.164-.4,1.126,1.126,0,0,0-.12-.533.871.871,0,0,0-.324-.35,1.523,1.523,0,0,0-.443-.179,2.237,2.237,0,0,0-.506-.056,1.372,1.372,0,0,0-1.565,1.222l-1.654-.312q.439-2.221,3.315-2.221a5.678,5.678,0,0,1,.9.067,3.3,3.3,0,0,1,.83.253,2.286,2.286,0,0,1,.7.478,2.118,2.118,0,0,1,.466.774,3.219,3.219,0,0,1,.179,1.117Zm-3.6.977a1.749,1.749,0,0,0,1.4-.589,2.742,2.742,0,0,0,.5-1.811l-1.833.47a2.312,2.312,0,0,0-.89.353.763.763,0,0,0-.3.645.819.819,0,0,0,.313.693A1.286,1.286,0,0,0,358.449,3010.266Z" fill="#415214"/>
          <path id="Trazado_37778" data-name="Trazado 37778" d="M364.274,3011.405v-11.443h1.877v11.443Z" fill="#415214"/>
          <path id="Trazado_37779" data-name="Trazado 37779" d="M369.459,3002.518a1.077,1.077,0,0,1-.79-.329,1.1,1.1,0,0,1,0-1.567,1.117,1.117,0,0,1,1.573,0,1.115,1.115,0,0,1-.783,1.9Zm-.953,8.887v-7.547h1.869v7.547Z" fill="#415214"/>
          <path id="Trazado_37780" data-name="Trazado 37780" d="M381.275,3003.71a2.727,2.727,0,0,1,1.885.625,2.259,2.259,0,0,1,.7,1.773v5.3H382v-4.783a1.4,1.4,0,0,0-.362-1.046,1.251,1.251,0,0,0-.912-.354,1.407,1.407,0,0,0-1.07.436,1.921,1.921,0,0,0-.413,1.36v4.387h-1.885v-4.745a1.462,1.462,0,0,0-.361-1.077,1.269,1.269,0,0,0-.935-.361,1.376,1.376,0,0,0-1.062.451,2.068,2.068,0,0,0-.413,1.427v4.3H372.73v-7.547h1.855v.91a2.475,2.475,0,0,1,2.145-1.058,2.977,2.977,0,0,1,1.378.3,1.944,1.944,0,0,1,.872.864A2.567,2.567,0,0,1,381.275,3003.71Z" fill="#415214"/>
          <path id="Trazado_37781" data-name="Trazado 37781" d="M393.023,3007.509l-.03.462H387.3a2.16,2.16,0,0,0,.64,1.553,2.073,2.073,0,0,0,1.46.54,1.981,1.981,0,0,0,1.077-.291,1.842,1.842,0,0,0,.711-.834l1.7.276a3.29,3.29,0,0,1-1.311,1.721,3.809,3.809,0,0,1-2.161.619,3.941,3.941,0,0,1-2.868-1.043,3.936,3.936,0,0,1,2.809-6.81,4.3,4.3,0,0,1,1.456.235,3.315,3.315,0,0,1,1.155.693,3.068,3.068,0,0,1,.771,1.191A4.891,4.891,0,0,1,393.023,3007.509Zm-3.658-2.466a2.048,2.048,0,0,0-1.326.421,2.028,2.028,0,0,0-.678,1.263h3.815a1.7,1.7,0,0,0-1.811-1.684Z" fill="#415214"/>
          <path id="Trazado_37782" data-name="Trazado 37782" d="M398.953,3003.71a2.825,2.825,0,0,1,2.019.682,2.525,2.525,0,0,1,.722,1.932v5.081h-1.862v-4.678a1.458,1.458,0,0,0-.406-1.14,1.5,1.5,0,0,0-1.039-.365,1.741,1.741,0,0,0-1.248.462,1.922,1.922,0,0,0-.495,1.445v4.276h-1.863v-7.547h1.863v.872A2.78,2.78,0,0,1,398.953,3003.71Z" fill="#415214"/>
          <path id="Trazado_37783" data-name="Trazado 37783" d="M406.589,3011.405a2.179,2.179,0,0,1-1.631-.592,2.275,2.275,0,0,1-.582-1.665V3005.3h-1.5v-1.439h.507a1.193,1.193,0,0,0,.9-.3,1.521,1.521,0,0,0,.283-1.051v-1.11h1.691v2.458h1.609v1.439h-1.609v3.65a1.077,1.077,0,0,0,.246.771.9.9,0,0,0,.685.257h.678v1.43Z" fill="#415214"/>
          <path id="Trazado_37784" data-name="Trazado 37784" d="M415.506,3009.289a6.941,6.941,0,0,0,.194,1.915v.2h-1.766l-.179-.849a2.494,2.494,0,0,1-1.061.749,3.782,3.782,0,0,1-1.36.25,3.106,3.106,0,0,1-.872-.117,2.378,2.378,0,0,1-.737-.353,1.583,1.583,0,0,1-.525-.655,2.576,2.576,0,0,1,0-1.952,1.7,1.7,0,0,1,.584-.69,3.806,3.806,0,0,1,.853-.443,7.536,7.536,0,0,1,1.118-.3l1.259-.261a1.191,1.191,0,0,0,.544-.231.52.52,0,0,0,.164-.4,1.126,1.126,0,0,0-.12-.533.871.871,0,0,0-.324-.35,1.523,1.523,0,0,0-.443-.179,2.237,2.237,0,0,0-.506-.056,1.372,1.372,0,0,0-1.565,1.222l-1.654-.312q.439-2.221,3.315-2.221a5.677,5.677,0,0,1,.9.067,3.3,3.3,0,0,1,.83.253,2.285,2.285,0,0,1,.7.478,2.117,2.117,0,0,1,.466.774,3.218,3.218,0,0,1,.179,1.117Zm-3.6.977a1.749,1.749,0,0,0,1.4-.589,2.742,2.742,0,0,0,.5-1.811l-1.833.47a2.312,2.312,0,0,0-.89.353.763.763,0,0,0-.3.645.819.819,0,0,0,.313.693A1.286,1.286,0,0,0,411.908,3010.266Z" fill="#415214"/>
          <path id="Trazado_37785" data-name="Trazado 37785" d="M420.885,3011.547a3.893,3.893,0,0,1-2.846-1.088,4.174,4.174,0,0,1,0-5.669,4.3,4.3,0,0,1,5.208-.376,3.234,3.234,0,0,1,1.258,1.978l-1.72.209a1.885,1.885,0,0,0-.7-1.051,2.037,2.037,0,0,0-1.211-.358,1.9,1.9,0,0,0-1.505.67,2.958,2.958,0,0,0,0,3.521,1.905,1.905,0,0,0,1.505.667,2.025,2.025,0,0,0,1.211-.359,1.88,1.88,0,0,0,.7-1.049l1.72.208a3.248,3.248,0,0,1-1.27,1.985A3.885,3.885,0,0,1,420.885,3011.547Z" fill="#415214"/>
          <path id="Trazado_37786" data-name="Trazado 37786" d="M427.113,3002.518a1.077,1.077,0,0,1-.79-.329,1.1,1.1,0,0,1,0-1.567,1.117,1.117,0,0,1,1.573,0,1.115,1.115,0,0,1-.783,1.9Zm-.953,8.887v-7.547h1.869v7.547Z" fill="#415214"/>
          <path id="Trazado_37787" data-name="Trazado 37787" d="M436.7,3010.492a4.5,4.5,0,0,1-5.811,0,4.208,4.208,0,0,1,0-5.724,4.529,4.529,0,0,1,5.819,0,4.208,4.208,0,0,1,0,5.724Zm-2.928-.435a2.062,2.062,0,0,0,1.591-.67,2.833,2.833,0,0,0,0-3.525,2.063,2.063,0,0,0-1.591-.67,2.006,2.006,0,0,0-1.553.67,2.862,2.862,0,0,0,0,3.525A2.005,2.005,0,0,0,433.773,3010.057Zm-.588-7.316,1.929-2.637.931.67-1.676,1.967Z" fill="#415214"/>
          <path id="Trazado_37788" data-name="Trazado 37788" d="M443.727,3003.71a2.822,2.822,0,0,1,2.018.682,2.525,2.525,0,0,1,.723,1.932v5.081h-1.863v-4.678a1.458,1.458,0,0,0-.406-1.14,1.494,1.494,0,0,0-1.039-.365,1.74,1.74,0,0,0-1.247.462,1.926,1.926,0,0,0-.5,1.445v4.276h-1.862v-7.547h1.862v.872A2.781,2.781,0,0,1,443.727,3003.71Z" fill="#415214"/>
        </g>
      </g>
      <line id="Línea_167" data-name="Línea 167" y2="33.239" transform="translate(212.199 3120.064)" fill="none" stroke="#92934e" stroke-miterlimit="10" stroke-width="1.635"/>
      <line id="Línea_168" data-name="Línea 168" y2="33.239" transform="translate(212.199 3238.852)" fill="none" stroke="#92934e" stroke-miterlimit="10" stroke-width="1.635"/>
      <line id="Línea_169" data-name="Línea 169" x2="42.703" transform="translate(301.88 3079.742)" fill="none" stroke="#92934e" stroke-miterlimit="10" stroke-width="1.635"/>
      <line id="Línea_170" data-name="Línea 170" x2="42.703" transform="translate(301.88 3314.502)" fill="none" stroke="#92934e" stroke-miterlimit="10" stroke-width="1.635"/>
      <line id="Línea_171" data-name="Línea 171" x2="42.703" transform="translate(301.88 3195.987)" fill="none" stroke="#92934e" stroke-miterlimit="10" stroke-width="1.635"/>
    </g>
    <g id="Grupo_15872" data-name="Grupo 15872">
      <path id="Trazado_37789" data-name="Trazado 37789" d="M184.408,3071.5a4.426,4.426,0,0,0,2.119.56c1.027,0,1.6-.482,1.6-1.2,0-.663-.442-1.052-1.56-1.456-1.443-.52-2.366-1.287-2.366-2.548,0-1.43,1.2-2.522,3.094-2.522a4.626,4.626,0,0,1,2.106.442l-.39,1.287a3.7,3.7,0,0,0-1.742-.416c-1.014,0-1.456.546-1.456,1.053,0,.676.507.988,1.677,1.443,1.521.572,2.262,1.339,2.262,2.6,0,1.4-1.066,2.639-3.328,2.639a5.191,5.191,0,0,1-2.366-.559Z" fill="#fff"/>
      <path id="Trazado_37790" data-name="Trazado 37790" d="M197.227,3070.018a3.137,3.137,0,0,1-3.251,3.367,3.061,3.061,0,0,1-3.172-3.263,3.126,3.126,0,0,1,3.276-3.354A3.038,3.038,0,0,1,197.227,3070.018Zm-4.772.065c0,1.222.6,2.146,1.573,2.146.91,0,1.547-.9,1.547-2.172,0-.988-.442-2.119-1.534-2.119C192.91,3067.938,192.455,3069.03,192.455,3070.083Z" fill="#fff"/>
      <path id="Trazado_37791" data-name="Trazado 37791" d="M198.539,3064.012h1.6v3.77h.026a2.29,2.29,0,0,1,2.028-1.014c1.547,0,2.652,1.287,2.64,3.211,0,2.275-1.444,3.406-2.874,3.406a2.178,2.178,0,0,1-2-1.092h-.026l-.078.949h-1.365c.026-.429.052-1.131.052-1.781Zm1.6,6.617a1.767,1.767,0,0,0,.039.377,1.474,1.474,0,0,0,1.417,1.118c1,0,1.613-.806,1.613-2.08,0-1.118-.534-2.028-1.6-2.028a1.5,1.5,0,0,0-1.417,1.17,1.91,1.91,0,0,0-.052.416Z" fill="#fff"/>
      <path id="Trazado_37792" data-name="Trazado 37792" d="M207.275,3070.525a1.72,1.72,0,0,0,1.95,1.638,4.731,4.731,0,0,0,1.755-.286l.234,1.1a5.938,5.938,0,0,1-2.21.4,3,3,0,0,1-3.263-3.211,3.135,3.135,0,0,1,3.094-3.406c2.067,0,2.73,1.69,2.73,3.081a3.832,3.832,0,0,1-.052.676Zm2.782-1.118a1.36,1.36,0,0,0-1.313-1.547,1.564,1.564,0,0,0-1.469,1.547Z" fill="#fff"/>
      <path id="Trazado_37793" data-name="Trazado 37793" d="M212.852,3068.952c0-.858-.013-1.469-.052-2.041h1.391l.052,1.209h.052a1.888,1.888,0,0,1,1.729-1.352,1.687,1.687,0,0,1,.377.039v1.508a2.231,2.231,0,0,0-.468-.052,1.41,1.41,0,0,0-1.43,1.209,2.745,2.745,0,0,0-.052.494v3.276h-1.6Z" fill="#fff"/>
      <path id="Trazado_37794" data-name="Trazado 37794" d="M222.277,3071.721a10.142,10.142,0,0,0,.091,1.521h-1.443l-.1-.7h-.039a2.352,2.352,0,0,1-1.872.845,1.879,1.879,0,0,1-1.989-1.885c0-1.6,1.417-2.405,3.757-2.392v-.1c0-.416-.169-1.1-1.287-1.1a3.354,3.354,0,0,0-1.7.468l-.312-1.04a4.56,4.56,0,0,1,2.288-.559,2.368,2.368,0,0,1,2.613,2.665Zm-1.56-1.573c-1.131-.026-2.21.221-2.21,1.183a.839.839,0,0,0,.91.91,1.3,1.3,0,0,0,1.248-.871,1.149,1.149,0,0,0,.052-.35Z" fill="#fff"/>
      <path id="Trazado_37795" data-name="Trazado 37795" d="M223.967,3068.8c0-.728-.013-1.339-.052-1.885h1.4l.078.949h.039a2.282,2.282,0,0,1,2.015-1.092c1.1,0,2.249.715,2.249,2.717v3.757h-1.6v-3.575c0-.91-.338-1.6-1.209-1.6a1.342,1.342,0,0,0-1.248.936,1.63,1.63,0,0,0-.065.52v3.718h-1.612Z" fill="#fff"/>
      <path id="Trazado_37796" data-name="Trazado 37796" d="M231.4,3073.242v-6.331h1.612v6.331Zm2.756-9.074-1.6,1.924h-1.1l1.131-1.924Z" fill="#fff"/>
      <path id="Trazado_37797" data-name="Trazado 37797" d="M239.646,3071.721a10.159,10.159,0,0,0,.09,1.521h-1.443l-.1-.7h-.039a2.352,2.352,0,0,1-1.872.845,1.879,1.879,0,0,1-1.989-1.885c0-1.6,1.417-2.405,3.757-2.392v-.1c0-.416-.169-1.1-1.287-1.1a3.354,3.354,0,0,0-1.7.468l-.312-1.04a4.56,4.56,0,0,1,2.288-.559,2.368,2.368,0,0,1,2.614,2.665Zm-1.561-1.573c-1.131-.026-2.21.221-2.21,1.183a.839.839,0,0,0,.91.91,1.3,1.3,0,0,0,1.248-.871,1.149,1.149,0,0,0,.052-.35Z" fill="#fff"/>
      <path id="Trazado_37798" data-name="Trazado 37798" d="M185.721,3087.321a10.158,10.158,0,0,0,.091,1.522h-1.443l-.1-.7h-.039a2.351,2.351,0,0,1-1.872.844,1.879,1.879,0,0,1-1.989-1.884c0-1.6,1.417-2.406,3.757-2.392v-.1c0-.416-.169-1.1-1.287-1.1a3.344,3.344,0,0,0-1.7.468l-.312-1.04a4.558,4.558,0,0,1,2.288-.56,2.368,2.368,0,0,1,2.613,2.665Zm-1.56-1.572c-1.131-.026-2.21.221-2.21,1.183a.839.839,0,0,0,.91.91,1.3,1.3,0,0,0,1.248-.871,1.148,1.148,0,0,0,.052-.351Z" fill="#fff"/>
      <path id="Trazado_37799" data-name="Trazado 37799" d="M187.411,3079.612h1.612v9.231h-1.612Z" fill="#fff"/>
      <path id="Trazado_37800" data-name="Trazado 37800" d="M192.455,3080.743a.9.9,0,1,1-.9-.871A.848.848,0,0,1,192.455,3080.743Zm-1.7,8.1v-6.331h1.613v6.331Z" fill="#fff"/>
      <path id="Trazado_37801" data-name="Trazado 37801" d="M194.08,3084.4c0-.727-.013-1.338-.052-1.884h1.378l.065.935h.039a2.19,2.19,0,0,1,1.95-1.079,1.826,1.826,0,0,1,1.755,1.171h.026a2.408,2.408,0,0,1,.78-.794,2.114,2.114,0,0,1,1.274-.377c1.053,0,2.119.716,2.119,2.743v3.732h-1.56v-3.5c0-1.053-.364-1.677-1.131-1.677a1.22,1.22,0,0,0-1.118.845,2.283,2.283,0,0,0-.078.533v3.8h-1.56v-3.666c0-.884-.351-1.508-1.092-1.508a1.249,1.249,0,0,0-1.144.909,1.374,1.374,0,0,0-.091.521v3.744h-1.56Z" fill="#fff"/>
      <path id="Trazado_37802" data-name="Trazado 37802" d="M206.235,3086.126a1.72,1.72,0,0,0,1.95,1.638,4.76,4.76,0,0,0,1.755-.286l.234,1.1a5.94,5.94,0,0,1-2.21.4,3,3,0,0,1-3.263-3.211,3.135,3.135,0,0,1,3.094-3.406c2.067,0,2.73,1.691,2.73,3.081a3.95,3.95,0,0,1-.052.677Zm2.782-1.118a1.361,1.361,0,0,0-1.313-1.547,1.564,1.564,0,0,0-1.469,1.547Z" fill="#fff"/>
      <path id="Trazado_37803" data-name="Trazado 37803" d="M211.812,3084.4c0-.727-.013-1.338-.052-1.884h1.4l.078.949h.039a2.283,2.283,0,0,1,2.015-1.093c1.1,0,2.249.716,2.249,2.718v3.757h-1.6v-3.575c0-.911-.338-1.6-1.209-1.6a1.342,1.342,0,0,0-1.248.935,1.635,1.635,0,0,0-.065.521v3.718h-1.612Z" fill="#fff"/>
      <path id="Trazado_37804" data-name="Trazado 37804" d="M221.016,3080.887v1.625h1.521v1.2h-1.521v2.795c0,.767.208,1.17.819,1.17a2,2,0,0,0,.624-.078l.026,1.221a3.422,3.422,0,0,1-1.157.169,1.86,1.86,0,0,1-1.378-.532,2.522,2.522,0,0,1-.494-1.768v-2.977h-.91v-1.2h.91v-1.17Z" fill="#fff"/>
      <path id="Trazado_37805" data-name="Trazado 37805" d="M228.66,3087.321a10.158,10.158,0,0,0,.091,1.522h-1.443l-.1-.7h-.039a2.351,2.351,0,0,1-1.872.844,1.879,1.879,0,0,1-1.989-1.884c0-1.6,1.417-2.406,3.757-2.392v-.1c0-.416-.169-1.1-1.287-1.1a3.344,3.344,0,0,0-1.7.468l-.312-1.04a4.559,4.559,0,0,1,2.288-.56,2.368,2.368,0,0,1,2.613,2.665Zm-1.56-1.572c-1.131-.026-2.21.221-2.21,1.183a.839.839,0,0,0,.91.91,1.3,1.3,0,0,0,1.248-.871,1.148,1.148,0,0,0,.052-.351Z" fill="#fff"/>
      <path id="Trazado_37806" data-name="Trazado 37806" d="M230.35,3084.553c0-.859-.013-1.469-.052-2.041h1.391l.052,1.209h.052a1.888,1.888,0,0,1,1.729-1.353,1.746,1.746,0,0,1,.377.039v1.509a2.208,2.208,0,0,0-.468-.053,1.41,1.41,0,0,0-1.43,1.209,2.765,2.765,0,0,0-.052.494v3.277h-1.6Z" fill="#fff"/>
      <path id="Trazado_37807" data-name="Trazado 37807" d="M236.681,3080.743a.9.9,0,1,1-.9-.871A.848.848,0,0,1,236.681,3080.743Zm-1.7,8.1v-6.331h1.612v6.331Z" fill="#fff"/>
      <path id="Trazado_37808" data-name="Trazado 37808" d="M243.22,3087.321a10.158,10.158,0,0,0,.091,1.522h-1.443l-.1-.7h-.039a2.351,2.351,0,0,1-1.872.844,1.879,1.879,0,0,1-1.989-1.884c0-1.6,1.417-2.406,3.757-2.392v-.1c0-.416-.169-1.1-1.287-1.1a3.344,3.344,0,0,0-1.7.468l-.312-1.04a4.559,4.559,0,0,1,2.288-.56,2.368,2.368,0,0,1,2.613,2.665Zm-1.56-1.572c-1.131-.026-2.21.221-2.21,1.183a.839.839,0,0,0,.91.91,1.3,1.3,0,0,0,1.248-.871,1.148,1.148,0,0,0,.052-.351Z" fill="#fff"/>
    </g>
    <g id="Grupo_15873" data-name="Grupo 15873">
      <path id="Trazado_37809" data-name="Trazado 37809" d="M400.349,3072.6a13.863,13.863,0,0,1,2.444-.182,3.966,3.966,0,0,1,2.587.715,2.476,2.476,0,0,1,.858,1.937,2.651,2.651,0,0,1-.754,1.989,3.862,3.862,0,0,1-2.769.936,4.5,4.5,0,0,1-.779-.052v3.3h-1.587Zm1.587,4.082a3.218,3.218,0,0,0,.779.065c1.2,0,1.925-.585,1.925-1.612,0-.975-.677-1.5-1.782-1.5a4.4,4.4,0,0,0-.922.078Z" fill="#fff"/>
      <path id="Trazado_37810" data-name="Trazado 37810" d="M412.192,3079.721a10.127,10.127,0,0,0,.092,1.521h-1.443l-.105-.7H410.7a2.352,2.352,0,0,1-1.872.845,1.88,1.88,0,0,1-1.99-1.885c0-1.6,1.417-2.405,3.758-2.392v-.1c0-.416-.169-1.1-1.287-1.1a3.351,3.351,0,0,0-1.7.468l-.312-1.04a4.557,4.557,0,0,1,2.288-.559,2.367,2.367,0,0,1,2.612,2.665Zm-1.559-1.573c-1.132-.026-2.211.221-2.211,1.183a.84.84,0,0,0,.911.91,1.3,1.3,0,0,0,1.248-.871,1.149,1.149,0,0,0,.052-.35Z" fill="#fff"/>
      <path id="Trazado_37811" data-name="Trazado 37811" d="M413.882,3081.242v-6.331h1.613v6.331Zm2.757-9.074-1.6,1.924h-1.105l1.13-1.924Z" fill="#fff"/>
      <path id="Trazado_37812" data-name="Trazado 37812" d="M417.133,3079.773a3.568,3.568,0,0,0,1.625.456c.7,0,1.013-.287,1.013-.7s-.259-.65-1.04-.922c-1.234-.43-1.754-1.106-1.741-1.847a2.118,2.118,0,0,1,2.392-1.989,3.72,3.72,0,0,1,1.677.377l-.312,1.131a2.846,2.846,0,0,0-1.339-.364c-.573,0-.885.273-.885.663s.3.6,1.106.884c1.143.416,1.677,1,1.69,1.937,0,1.144-.9,1.989-2.574,1.989a4.086,4.086,0,0,1-1.925-.455Z" fill="#fff"/>
      <path id="Trazado_37813" data-name="Trazado 37813" d="M428.169,3077.225v1.1h-3.315v-1.1Z" fill="#fff"/>
      <path id="Trazado_37814" data-name="Trazado 37814" d="M432.173,3081.242v-8.763h1.82l2.262,3.758a24.161,24.161,0,0,1,1.495,2.938h.026c-.1-1.17-.143-2.3-.143-3.64v-3.056h1.482v8.763h-1.651l-2.288-3.861a28.983,28.983,0,0,1-1.573-3.016l-.039.013c.065,1.131.078,2.288.078,3.731v3.133Z" fill="#fff"/>
      <path id="Trazado_37815" data-name="Trazado 37815" d="M445.811,3079.721a10.157,10.157,0,0,0,.09,1.521h-1.443l-.1-.7h-.039a2.352,2.352,0,0,1-1.872.845,1.879,1.879,0,0,1-1.989-1.885c0-1.6,1.417-2.405,3.757-2.392v-.1c0-.416-.169-1.1-1.287-1.1a3.353,3.353,0,0,0-1.7.468l-.312-1.04a4.56,4.56,0,0,1,2.288-.559,2.368,2.368,0,0,1,2.614,2.665Zm-1.561-1.573c-1.131-.026-2.21.221-2.21,1.183a.839.839,0,0,0,.91.91,1.3,1.3,0,0,0,1.248-.871,1.149,1.149,0,0,0,.052-.35Z" fill="#fff"/>
      <path id="Trazado_37816" data-name="Trazado 37816" d="M452.154,3081.047a4.59,4.59,0,0,1-1.794.338,3.05,3.05,0,0,1-3.263-3.237,3.273,3.273,0,0,1,3.523-3.38,3.991,3.991,0,0,1,1.547.3l-.286,1.2a2.818,2.818,0,0,0-1.209-.247,2.051,2.051,0,0,0,0,4.095,3.129,3.129,0,0,0,1.261-.247Z" fill="#fff"/>
      <path id="Trazado_37817" data-name="Trazado 37817" d="M455.04,3073.143a.9.9,0,1,1-.9-.872A.847.847,0,0,1,455.04,3073.143Zm-1.7,8.1v-6.331h1.612v6.331Z" fill="#fff"/>
      <path id="Trazado_37818" data-name="Trazado 37818" d="M462.685,3078.018a3.137,3.137,0,0,1-3.251,3.367,3.061,3.061,0,0,1-3.172-3.263,3.126,3.126,0,0,1,3.276-3.354A3.038,3.038,0,0,1,462.685,3078.018Zm-4.772.065c0,1.222.6,2.146,1.573,2.146.91,0,1.547-.9,1.547-2.172,0-.988-.442-2.119-1.534-2.119C458.368,3075.938,457.913,3077.03,457.913,3078.083Zm3.471-5.915-1.6,1.924H458.68l1.132-1.924Z" fill="#fff"/>
      <path id="Trazado_37819" data-name="Trazado 37819" d="M464,3076.8c0-.728-.013-1.339-.052-1.885h1.4l.078.949h.039a2.282,2.282,0,0,1,2.015-1.092c1.105,0,2.249.715,2.249,2.717v3.757h-1.6v-3.575c0-.91-.338-1.6-1.209-1.6a1.342,1.342,0,0,0-1.248.936,1.63,1.63,0,0,0-.065.52v3.718H464Z" fill="#fff"/>
    </g>
    <g id="Grupo_15874" data-name="Grupo 15874">
      <path id="Trazado_37820" data-name="Trazado 37820" d="M403.307,3196.982a5.488,5.488,0,0,1-2.262.4,4.145,4.145,0,0,1-4.473-4.42,4.408,4.408,0,0,1,4.681-4.628,5.034,5.034,0,0,1,2.132.39l-.351,1.274a4.259,4.259,0,0,0-1.716-.338,2.918,2.918,0,0,0-3.068,3.224,2.876,2.876,0,0,0,3.055,3.159,4.475,4.475,0,0,0,1.742-.325Z" fill="#fff"/>
      <path id="Trazado_37821" data-name="Trazado 37821" d="M410.418,3194.018a3.137,3.137,0,0,1-3.251,3.367,3.061,3.061,0,0,1-3.171-3.263,3.125,3.125,0,0,1,3.275-3.354A3.038,3.038,0,0,1,410.418,3194.018Zm-4.772.065c0,1.222.6,2.146,1.574,2.146.91,0,1.547-.9,1.547-2.172,0-.988-.442-2.119-1.535-2.119C406.1,3191.938,405.646,3193.03,405.646,3194.083Z" fill="#fff"/>
      <path id="Trazado_37822" data-name="Trazado 37822" d="M411.73,3192.8c0-.728-.012-1.339-.051-1.885h1.378l.065.936h.039a2.19,2.19,0,0,1,1.95-1.079,1.825,1.825,0,0,1,1.755,1.17h.026a2.4,2.4,0,0,1,.78-.793,2.114,2.114,0,0,1,1.274-.377c1.053,0,2.119.715,2.119,2.743v3.731h-1.56v-3.5c0-1.053-.364-1.677-1.131-1.677a1.219,1.219,0,0,0-1.118.845,2.288,2.288,0,0,0-.078.533v3.8h-1.56v-3.666c0-.884-.351-1.508-1.092-1.508a1.247,1.247,0,0,0-1.144.911,1.341,1.341,0,0,0-.091.519v3.744H411.73Z" fill="#fff"/>
      <path id="Trazado_37823" data-name="Trazado 37823" d="M428.423,3195.344c0,.754.026,1.379.052,1.9h-1.4l-.078-.962h-.026a2.29,2.29,0,0,1-2.029,1.1c-1.156,0-2.209-.689-2.209-2.756v-3.718h1.6v3.445c0,1.053.338,1.729,1.183,1.729a1.348,1.348,0,0,0,1.221-.857,1.44,1.44,0,0,0,.092-.5v-3.822h1.6Z" fill="#fff"/>
      <path id="Trazado_37824" data-name="Trazado 37824" d="M430.151,3192.8c0-.728-.012-1.339-.051-1.885h1.4l.079.949h.039a2.282,2.282,0,0,1,2.015-1.092c1.105,0,2.249.715,2.249,2.717v3.757h-1.6v-3.575c0-.91-.338-1.6-1.209-1.6a1.341,1.341,0,0,0-1.248.936,1.6,1.6,0,0,0-.065.52v3.718h-1.613Z" fill="#fff"/>
      <path id="Trazado_37825" data-name="Trazado 37825" d="M439.291,3189.143a.848.848,0,0,1-.911.858.84.84,0,0,1-.883-.858.9.9,0,0,1,1.794,0Zm-1.7,8.1v-6.331H439.2v6.331Z" fill="#fff"/>
      <path id="Trazado_37826" data-name="Trazado 37826" d="M446.753,3188.012v7.449c0,.65.026,1.352.052,1.781h-1.43l-.065-1h-.026a2.278,2.278,0,0,1-2.067,1.144c-1.509,0-2.7-1.287-2.7-3.237-.013-2.119,1.313-3.38,2.834-3.38a2.017,2.017,0,0,1,1.781.832h.026v-3.588Zm-1.6,5.538a2.251,2.251,0,0,0-.039-.416,1.4,1.4,0,0,0-1.378-1.131c-1.027,0-1.6.91-1.6,2.093,0,1.157.572,2,1.586,2a1.41,1.41,0,0,0,1.378-1.131,1.782,1.782,0,0,0,.052-.468Z" fill="#fff"/>
      <path id="Trazado_37827" data-name="Trazado 37827" d="M453.383,3195.721a10.142,10.142,0,0,0,.091,1.521H452.03l-.1-.7h-.039a2.353,2.353,0,0,1-1.872.845,1.88,1.88,0,0,1-1.99-1.885c0-1.6,1.417-2.405,3.758-2.392v-.1c0-.416-.17-1.1-1.287-1.1a3.36,3.36,0,0,0-1.7.468l-.312-1.04a4.564,4.564,0,0,1,2.289-.559,2.368,2.368,0,0,1,2.613,2.665Zm-1.561-1.573c-1.131-.026-2.21.221-2.21,1.183a.84.84,0,0,0,.91.91,1.3,1.3,0,0,0,1.249-.871,1.146,1.146,0,0,0,.051-.35Z" fill="#fff"/>
      <path id="Trazado_37828" data-name="Trazado 37828" d="M460.91,3188.012v7.449c0,.65.026,1.352.051,1.781h-1.429l-.065-1h-.027a2.278,2.278,0,0,1-2.066,1.144c-1.509,0-2.7-1.287-2.7-3.237-.013-2.119,1.313-3.38,2.834-3.38a2.018,2.018,0,0,1,1.782.832h.026v-3.588Zm-1.6,5.538a2.252,2.252,0,0,0-.04-.416,1.4,1.4,0,0,0-1.377-1.131c-1.028,0-1.6.91-1.6,2.093,0,1.157.572,2,1.586,2a1.411,1.411,0,0,0,1.379-1.131,1.825,1.825,0,0,0,.052-.468Z" fill="#fff"/>
      <path id="Trazado_37829" data-name="Trazado 37829" d="M463.756,3194.525a1.72,1.72,0,0,0,1.95,1.638,4.735,4.735,0,0,0,1.755-.286l.234,1.1a5.934,5.934,0,0,1-2.21.4,3,3,0,0,1-3.263-3.211,3.135,3.135,0,0,1,3.094-3.406c2.067,0,2.73,1.69,2.73,3.081a3.831,3.831,0,0,1-.052.676Zm2.782-1.118a1.361,1.361,0,0,0-1.313-1.547,1.564,1.564,0,0,0-1.469,1.547Z" fill="#fff"/>
      <path id="Trazado_37830" data-name="Trazado 37830" d="M469.255,3195.773a3.568,3.568,0,0,0,1.625.456c.7,0,1.014-.287,1.014-.7s-.26-.65-1.04-.922c-1.235-.43-1.755-1.106-1.742-1.847a2.118,2.118,0,0,1,2.392-1.989,3.717,3.717,0,0,1,1.677.377l-.312,1.131a2.846,2.846,0,0,0-1.339-.364c-.572,0-.884.273-.884.663s.3.6,1.105.884c1.145.416,1.677,1,1.69,1.937,0,1.144-.9,1.989-2.574,1.989a4.079,4.079,0,0,1-1.924-.455Z" fill="#fff"/>
    </g>
    <g id="Grupo_15875" data-name="Grupo 15875">
      <path id="Trazado_37831" data-name="Trazado 37831" d="M379.673,3308.479v3.511h3.7v-3.511h1.6v8.763h-1.6v-3.861h-3.7v3.861h-1.6v-8.763Z" fill="#fff"/>
      <path id="Trazado_37832" data-name="Trazado 37832" d="M392.764,3314.018a3.136,3.136,0,0,1-3.25,3.367,3.061,3.061,0,0,1-3.172-3.263,3.126,3.126,0,0,1,3.276-3.354A3.037,3.037,0,0,1,392.764,3314.018Zm-4.771.065c0,1.222.6,2.146,1.573,2.146.91,0,1.547-.9,1.547-2.172,0-.988-.442-2.119-1.534-2.119C388.448,3311.938,387.993,3313.03,387.993,3314.083Z" fill="#fff"/>
      <path id="Trazado_37833" data-name="Trazado 37833" d="M399.81,3316.319a3.05,3.05,0,0,1-3.38,3.64,4.478,4.478,0,0,1-2.21-.507l.351-1.209a3.809,3.809,0,0,0,1.846.482,1.684,1.684,0,0,0,1.82-1.912v-.545h-.026a2.139,2.139,0,0,1-1.846.935,2.808,2.808,0,0,1-2.691-3.094,3.032,3.032,0,0,1,2.873-3.341,1.993,1.993,0,0,1,1.833.988h.026l.065-.845h1.391c-.026.429-.052.949-.052,1.82Zm-1.6-2.873a1.551,1.551,0,0,0-.052-.429,1.328,1.328,0,0,0-1.3-1.027c-.9,0-1.56.78-1.56,2.067,0,1.079.546,1.95,1.547,1.95a1.365,1.365,0,0,0,1.3-.962,2.753,2.753,0,0,0,.065-.572Z" fill="#fff"/>
      <path id="Trazado_37834" data-name="Trazado 37834" d="M406.44,3315.721a10.142,10.142,0,0,0,.091,1.521h-1.443l-.1-.7h-.039a2.352,2.352,0,0,1-1.872.845,1.879,1.879,0,0,1-1.989-1.885c0-1.6,1.417-2.405,3.757-2.392v-.1c0-.416-.169-1.1-1.287-1.1a3.353,3.353,0,0,0-1.7.468l-.312-1.04a4.56,4.56,0,0,1,2.288-.559,2.368,2.368,0,0,1,2.613,2.665Zm-1.56-1.573c-1.131-.026-2.21.221-2.21,1.183a.839.839,0,0,0,.91.91,1.3,1.3,0,0,0,1.248-.871,1.149,1.149,0,0,0,.052-.35Z" fill="#fff"/>
      <path id="Trazado_37835" data-name="Trazado 37835" d="M408.13,3312.952c0-.858-.013-1.469-.052-2.041h1.391l.052,1.209h.052a1.888,1.888,0,0,1,1.729-1.352,1.687,1.687,0,0,1,.377.039v1.508a2.231,2.231,0,0,0-.468-.052,1.41,1.41,0,0,0-1.43,1.209,2.745,2.745,0,0,0-.052.494v3.276h-1.6Z" fill="#fff"/>
      <path id="Trazado_37836" data-name="Trazado 37836" d="M413.772,3314.525a1.721,1.721,0,0,0,1.95,1.638,4.74,4.74,0,0,0,1.756-.286l.233,1.1a5.934,5.934,0,0,1-2.21.4,3,3,0,0,1-3.263-3.211,3.135,3.135,0,0,1,3.1-3.406c2.066,0,2.729,1.69,2.729,3.081a3.834,3.834,0,0,1-.052.676Zm2.782-1.118a1.36,1.36,0,0,0-1.313-1.547,1.564,1.564,0,0,0-1.469,1.547Z" fill="#fff"/>
      <path id="Trazado_37837" data-name="Trazado 37837" d="M419.271,3315.773a3.568,3.568,0,0,0,1.625.456c.7,0,1.014-.287,1.014-.7s-.26-.65-1.04-.922c-1.235-.43-1.755-1.106-1.742-1.847a2.119,2.119,0,0,1,2.393-1.989,3.715,3.715,0,0,1,1.676.377l-.312,1.131a2.846,2.846,0,0,0-1.339-.364c-.572,0-.884.273-.884.663s.3.6,1.106.884c1.143.416,1.676,1,1.69,1.937,0,1.144-.9,1.989-2.575,1.989a4.078,4.078,0,0,1-1.924-.455Z" fill="#fff"/>
      <path id="Trazado_37838" data-name="Trazado 37838" d="M430.308,3313.225v1.1h-3.315v-1.1Z" fill="#fff"/>
      <path id="Trazado_37839" data-name="Trazado 37839" d="M435.911,3308.479v8.763h-1.6v-8.763Z" fill="#fff"/>
      <path id="Trazado_37840" data-name="Trazado 37840" d="M437.756,3312.8c0-.728-.012-1.339-.051-1.885h1.4l.079.949h.039a2.281,2.281,0,0,1,2.015-1.092c1.105,0,2.249.715,2.249,2.717v3.757h-1.6v-3.575c0-.91-.338-1.6-1.209-1.6a1.341,1.341,0,0,0-1.248.936,1.6,1.6,0,0,0-.065.52v3.718h-1.613Z" fill="#fff"/>
      <path id="Trazado_37841" data-name="Trazado 37841" d="M451.03,3308.012v7.449c0,.65.026,1.352.052,1.781h-1.43l-.065-1h-.026a2.279,2.279,0,0,1-2.067,1.144c-1.509,0-2.7-1.287-2.7-3.237-.014-2.119,1.313-3.38,2.834-3.38a2.017,2.017,0,0,1,1.781.832h.026v-3.588Zm-1.6,5.538a2.341,2.341,0,0,0-.039-.416,1.4,1.4,0,0,0-1.378-1.131c-1.028,0-1.6.91-1.6,2.093,0,1.157.571,2,1.585,2a1.411,1.411,0,0,0,1.379-1.131,1.825,1.825,0,0,0,.052-.468Z" fill="#fff"/>
      <path id="Trazado_37842" data-name="Trazado 37842" d="M454.448,3309.143a.9.9,0,1,1-.9-.872A.847.847,0,0,1,454.448,3309.143Zm-1.7,8.1v-6.331h1.612v6.331Z" fill="#fff"/>
      <path id="Trazado_37843" data-name="Trazado 37843" d="M457.087,3310.911l1.027,3.211c.182.559.312,1.066.429,1.586h.04c.116-.52.259-1.014.429-1.586l1-3.211h1.69l-2.418,6.331h-1.574l-2.353-6.331Z" fill="#fff"/>
      <path id="Trazado_37844" data-name="Trazado 37844" d="M464.38,3309.143a.9.9,0,1,1-.9-.872A.847.847,0,0,1,464.38,3309.143Zm-1.7,8.1v-6.331h1.613v6.331Z" fill="#fff"/>
      <path id="Trazado_37845" data-name="Trazado 37845" d="M471.843,3308.012v7.449c0,.65.026,1.352.052,1.781h-1.43l-.066-1h-.025a2.28,2.28,0,0,1-2.067,1.144c-1.509,0-2.7-1.287-2.7-3.237-.014-2.119,1.313-3.38,2.834-3.38a2.017,2.017,0,0,1,1.781.832h.026v-3.588Zm-1.6,5.538a2.338,2.338,0,0,0-.039-.416,1.4,1.4,0,0,0-1.378-1.131c-1.027,0-1.6.91-1.6,2.093,0,1.157.572,2,1.585,2a1.409,1.409,0,0,0,1.378-1.131,1.781,1.781,0,0,0,.053-.468Z" fill="#fff"/>
      <path id="Trazado_37846" data-name="Trazado 37846" d="M479.227,3315.344c0,.754.025,1.379.051,1.9h-1.4l-.079-.962h-.025a2.29,2.29,0,0,1-2.029,1.1c-1.157,0-2.21-.689-2.21-2.756v-3.718h1.6v3.445c0,1.053.338,1.729,1.183,1.729a1.348,1.348,0,0,0,1.222-.857,1.464,1.464,0,0,0,.091-.5v-3.822h1.6Z" fill="#fff"/>
      <path id="Trazado_37847" data-name="Trazado 37847" d="M486.975,3314.018a3.137,3.137,0,0,1-3.251,3.367,3.061,3.061,0,0,1-3.172-3.263,3.126,3.126,0,0,1,3.276-3.354A3.038,3.038,0,0,1,486.975,3314.018Zm-4.772.065c0,1.222.6,2.146,1.573,2.146.911,0,1.547-.9,1.547-2.172,0-.988-.442-2.119-1.534-2.119C482.658,3311.938,482.2,3313.03,482.2,3314.083Z" fill="#fff"/>
      <path id="Trazado_37848" data-name="Trazado 37848" d="M488.209,3315.773a3.568,3.568,0,0,0,1.625.456c.7,0,1.014-.287,1.014-.7s-.26-.65-1.04-.922c-1.235-.43-1.755-1.106-1.742-1.847a2.118,2.118,0,0,1,2.392-1.989,3.717,3.717,0,0,1,1.677.377l-.312,1.131a2.846,2.846,0,0,0-1.339-.364c-.572,0-.884.273-.884.663s.3.6,1.1.884c1.145.416,1.677,1,1.691,1.937,0,1.144-.9,1.989-2.575,1.989a4.078,4.078,0,0,1-1.924-.455Z" fill="#fff"/>
    </g>
    <g id="Grupo_15876" data-name="Grupo 15876">
      <path id="Trazado_37849" data-name="Trazado 37849" d="M180.456,3187.759l-.754,2.483h-1.651l2.808-8.763H182.9l2.847,8.763h-1.716l-.793-2.483Zm2.509-1.209-.689-2.158c-.169-.533-.312-1.131-.442-1.638h-.026c-.13.507-.26,1.118-.416,1.638l-.676,2.158Z" fill="#fff"/>
      <path id="Trazado_37850" data-name="Trazado 37850" d="M192.39,3188.344c0,.754.026,1.379.052,1.9h-1.4l-.078-.962h-.026a2.289,2.289,0,0,1-2.028,1.1c-1.157,0-2.21-.689-2.21-2.756v-3.718h1.6v3.445c0,1.053.338,1.729,1.183,1.729a1.348,1.348,0,0,0,1.222-.857,1.464,1.464,0,0,0,.091-.5v-3.822h1.6Z" fill="#fff"/>
      <path id="Trazado_37851" data-name="Trazado 37851" d="M195.952,3182.286v1.625h1.521v1.2h-1.521v2.8c0,.767.208,1.17.819,1.17a1.972,1.972,0,0,0,.624-.078l.026,1.222a3.423,3.423,0,0,1-1.157.169,1.861,1.861,0,0,1-1.378-.532,2.527,2.527,0,0,1-.494-1.769v-2.977h-.91v-1.2h.91v-1.17Z" fill="#fff"/>
      <path id="Trazado_37852" data-name="Trazado 37852" d="M204.624,3187.018a3.137,3.137,0,0,1-3.251,3.367,3.061,3.061,0,0,1-3.172-3.263,3.126,3.126,0,0,1,3.276-3.354A3.038,3.038,0,0,1,204.624,3187.018Zm-4.772.065c0,1.222.6,2.146,1.573,2.146.91,0,1.547-.9,1.547-2.172,0-.988-.442-2.119-1.534-2.119C200.307,3184.938,199.852,3186.03,199.852,3187.083Z" fill="#fff"/>
      <path id="Trazado_37853" data-name="Trazado 37853" d="M205.936,3185.8c0-.728-.013-1.339-.052-1.885h1.4l.078.949h.039a2.282,2.282,0,0,1,2.015-1.092c1.1,0,2.249.715,2.249,2.717v3.757h-1.6v-3.575c0-.91-.338-1.6-1.209-1.6a1.342,1.342,0,0,0-1.248.936,1.63,1.63,0,0,0-.065.52v3.718h-1.612Z" fill="#fff"/>
      <path id="Trazado_37854" data-name="Trazado 37854" d="M219.392,3187.018a3.137,3.137,0,0,1-3.251,3.367,3.061,3.061,0,0,1-3.172-3.263,3.126,3.126,0,0,1,3.276-3.354A3.038,3.038,0,0,1,219.392,3187.018Zm-4.772.065c0,1.222.6,2.146,1.573,2.146.911,0,1.547-.9,1.547-2.172,0-.988-.442-2.119-1.534-2.119C215.075,3184.938,214.62,3186.03,214.62,3187.083Z" fill="#fff"/>
      <path id="Trazado_37855" data-name="Trazado 37855" d="M220.7,3185.8c0-.728-.013-1.339-.052-1.885h1.378l.065.936h.039a2.191,2.191,0,0,1,1.95-1.079,1.824,1.824,0,0,1,1.755,1.17h.026a2.4,2.4,0,0,1,.781-.793,2.111,2.111,0,0,1,1.273-.377c1.054,0,2.12.715,2.12,2.743v3.731h-1.56v-3.5c0-1.053-.365-1.677-1.131-1.677a1.22,1.22,0,0,0-1.119.845,2.288,2.288,0,0,0-.078.533v3.8h-1.56v-3.666c0-.884-.351-1.508-1.091-1.508a1.248,1.248,0,0,0-1.145.911,1.359,1.359,0,0,0-.091.519v3.744H220.7Z" fill="#fff"/>
      <path id="Trazado_37856" data-name="Trazado 37856" d="M231.728,3190.242v-6.331h1.612v6.331Zm2.756-9.074-1.6,1.924h-1.1l1.131-1.924Z" fill="#fff"/>
      <path id="Trazado_37857" data-name="Trazado 37857" d="M239.971,3188.721a10.142,10.142,0,0,0,.091,1.521h-1.444l-.1-.7h-.039a2.355,2.355,0,0,1-1.872.845,1.88,1.88,0,0,1-1.99-1.885c0-1.6,1.417-2.405,3.758-2.392v-.1c0-.416-.17-1.1-1.288-1.1a3.356,3.356,0,0,0-1.7.468l-.312-1.04a4.56,4.56,0,0,1,2.288-.559,2.368,2.368,0,0,1,2.614,2.665Zm-1.561-1.573c-1.131-.026-2.21.221-2.21,1.183a.84.84,0,0,0,.91.91,1.294,1.294,0,0,0,1.248-.871,1.149,1.149,0,0,0,.052-.35Z" fill="#fff"/>
      <path id="Trazado_37858" data-name="Trazado 37858" d="M241.582,3188.773a3.568,3.568,0,0,0,1.626.456c.7,0,1.013-.287,1.013-.7s-.26-.65-1.04-.922c-1.235-.43-1.755-1.106-1.742-1.847a2.119,2.119,0,0,1,2.393-1.989,3.712,3.712,0,0,1,1.676.377l-.312,1.131a2.842,2.842,0,0,0-1.339-.364c-.572,0-.884.273-.884.663s.3.6,1.1.884c1.145.416,1.677,1,1.691,1.937,0,1.144-.9,1.989-2.575,1.989a4.071,4.071,0,0,1-1.923-.455Z" fill="#fff"/>
      <path id="Trazado_37859" data-name="Trazado 37859" d="M185.721,3204.321a10.158,10.158,0,0,0,.091,1.522h-1.443l-.1-.7h-.039a2.351,2.351,0,0,1-1.872.844,1.879,1.879,0,0,1-1.989-1.884c0-1.6,1.417-2.406,3.757-2.392v-.1c0-.416-.169-1.1-1.287-1.1a3.344,3.344,0,0,0-1.7.468l-.312-1.04a4.558,4.558,0,0,1,2.288-.56,2.368,2.368,0,0,1,2.613,2.665Zm-1.56-1.572c-1.131-.026-2.21.221-2.21,1.183a.839.839,0,0,0,.91.91,1.3,1.3,0,0,0,1.248-.871,1.148,1.148,0,0,0,.052-.351Z" fill="#fff"/>
      <path id="Trazado_37860" data-name="Trazado 37860" d="M187.411,3196.612h1.612v9.231h-1.612Z" fill="#fff"/>
      <path id="Trazado_37861" data-name="Trazado 37861" d="M192.455,3197.743a.9.9,0,1,1-.9-.871A.848.848,0,0,1,192.455,3197.743Zm-1.7,8.1v-6.331h1.613v6.331Z" fill="#fff"/>
      <path id="Trazado_37862" data-name="Trazado 37862" d="M194.08,3201.4c0-.727-.013-1.338-.052-1.884h1.378l.065.935h.039a2.19,2.19,0,0,1,1.95-1.079,1.826,1.826,0,0,1,1.755,1.171h.026a2.408,2.408,0,0,1,.78-.794,2.114,2.114,0,0,1,1.274-.377c1.053,0,2.119.716,2.119,2.743v3.732h-1.56v-3.5c0-1.053-.364-1.677-1.131-1.677a1.22,1.22,0,0,0-1.118.845,2.283,2.283,0,0,0-.078.533v3.8h-1.56v-3.666c0-.884-.351-1.508-1.092-1.508a1.249,1.249,0,0,0-1.144.909,1.374,1.374,0,0,0-.091.521v3.744h-1.56Z" fill="#fff"/>
      <path id="Trazado_37863" data-name="Trazado 37863" d="M206.235,3203.126a1.72,1.72,0,0,0,1.95,1.638,4.76,4.76,0,0,0,1.755-.286l.234,1.1a5.94,5.94,0,0,1-2.21.4,3,3,0,0,1-3.263-3.211,3.135,3.135,0,0,1,3.094-3.406c2.067,0,2.73,1.691,2.73,3.081a3.95,3.95,0,0,1-.052.677Zm2.782-1.118a1.361,1.361,0,0,0-1.313-1.547,1.564,1.564,0,0,0-1.469,1.547Z" fill="#fff"/>
      <path id="Trazado_37864" data-name="Trazado 37864" d="M211.812,3201.4c0-.727-.013-1.338-.052-1.884h1.4l.078.949h.039a2.283,2.283,0,0,1,2.015-1.093c1.1,0,2.249.716,2.249,2.718v3.757h-1.6v-3.575c0-.911-.338-1.6-1.209-1.6a1.342,1.342,0,0,0-1.248.935,1.635,1.635,0,0,0-.065.521v3.718h-1.612Z" fill="#fff"/>
      <path id="Trazado_37865" data-name="Trazado 37865" d="M221.016,3197.887v1.625h1.521v1.2h-1.521v2.795c0,.767.208,1.17.819,1.17a2,2,0,0,0,.624-.078l.026,1.221a3.422,3.422,0,0,1-1.157.169,1.86,1.86,0,0,1-1.378-.532,2.522,2.522,0,0,1-.494-1.768v-2.977h-.91v-1.2h.91v-1.17Z" fill="#fff"/>
      <path id="Trazado_37866" data-name="Trazado 37866" d="M228.66,3204.321a10.158,10.158,0,0,0,.091,1.522h-1.443l-.1-.7h-.039a2.351,2.351,0,0,1-1.872.844,1.879,1.879,0,0,1-1.989-1.884c0-1.6,1.417-2.406,3.757-2.392v-.1c0-.416-.169-1.1-1.287-1.1a3.344,3.344,0,0,0-1.7.468l-.312-1.04a4.559,4.559,0,0,1,2.288-.56,2.368,2.368,0,0,1,2.613,2.665Zm-1.56-1.572c-1.131-.026-2.21.221-2.21,1.183a.839.839,0,0,0,.91.91,1.3,1.3,0,0,0,1.248-.871,1.148,1.148,0,0,0,.052-.351Z" fill="#fff"/>
      <path id="Trazado_37867" data-name="Trazado 37867" d="M230.35,3201.553c0-.859-.013-1.469-.052-2.041h1.391l.052,1.209h.052a1.888,1.888,0,0,1,1.729-1.353,1.746,1.746,0,0,1,.377.039v1.509a2.208,2.208,0,0,0-.468-.053,1.41,1.41,0,0,0-1.43,1.209,2.765,2.765,0,0,0-.052.494v3.277h-1.6Z" fill="#fff"/>
      <path id="Trazado_37868" data-name="Trazado 37868" d="M236.681,3197.743a.9.9,0,1,1-.9-.871A.848.848,0,0,1,236.681,3197.743Zm-1.7,8.1v-6.331h1.612v6.331Z" fill="#fff"/>
      <path id="Trazado_37869" data-name="Trazado 37869" d="M243.22,3204.321a10.158,10.158,0,0,0,.091,1.522h-1.443l-.1-.7h-.039a2.351,2.351,0,0,1-1.872.844,1.879,1.879,0,0,1-1.989-1.884c0-1.6,1.417-2.406,3.757-2.392v-.1c0-.416-.169-1.1-1.287-1.1a3.344,3.344,0,0,0-1.7.468l-.312-1.04a4.559,4.559,0,0,1,2.288-.56,2.368,2.368,0,0,1,2.613,2.665Zm-1.56-1.572c-1.131-.026-2.21.221-2.21,1.183a.839.839,0,0,0,.91.91,1.3,1.3,0,0,0,1.248-.871,1.148,1.148,0,0,0,.052-.351Z" fill="#fff"/>
    </g>
    <g id="Grupo_15877" data-name="Grupo 15877">
      <path id="Trazado_37870" data-name="Trazado 37870" d="M150.466,3306.5a4.422,4.422,0,0,0,2.118.56c1.028,0,1.6-.482,1.6-1.2,0-.663-.442-1.052-1.56-1.456-1.443-.52-2.366-1.287-2.366-2.548,0-1.43,1.2-2.522,3.094-2.522a4.626,4.626,0,0,1,2.106.442l-.39,1.287a3.7,3.7,0,0,0-1.742-.416c-1.014,0-1.456.546-1.456,1.053,0,.676.506.988,1.677,1.443,1.521.572,2.262,1.339,2.262,2.6,0,1.4-1.066,2.639-3.329,2.639a5.189,5.189,0,0,1-2.365-.559Z" fill="#eae699"/>
      <path id="Trazado_37871" data-name="Trazado 37871" d="M158.4,3305.525a1.72,1.72,0,0,0,1.95,1.638,4.735,4.735,0,0,0,1.755-.286l.234,1.1a5.938,5.938,0,0,1-2.21.4,3,3,0,0,1-3.263-3.211,3.135,3.135,0,0,1,3.094-3.406c2.067,0,2.73,1.69,2.73,3.081a3.932,3.932,0,0,1-.052.676Zm2.782-1.118a1.361,1.361,0,0,0-1.313-1.547,1.564,1.564,0,0,0-1.469,1.547Z" fill="#eae699"/>
      <path id="Trazado_37872" data-name="Trazado 37872" d="M169.706,3307.319a3.05,3.05,0,0,1-3.38,3.64,4.478,4.478,0,0,1-2.21-.507l.351-1.209a3.809,3.809,0,0,0,1.846.482,1.684,1.684,0,0,0,1.82-1.912v-.545h-.026a2.139,2.139,0,0,1-1.846.935,2.808,2.808,0,0,1-2.691-3.094,3.032,3.032,0,0,1,2.873-3.341,1.993,1.993,0,0,1,1.833.988h.026l.065-.845h1.391c-.026.429-.052.949-.052,1.82Zm-1.6-2.873a1.551,1.551,0,0,0-.052-.429,1.328,1.328,0,0,0-1.3-1.027c-.9,0-1.56.78-1.56,2.067,0,1.079.546,1.95,1.547,1.95a1.365,1.365,0,0,0,1.3-.962,2.754,2.754,0,0,0,.065-.572Z" fill="#eae699"/>
      <path id="Trazado_37873" data-name="Trazado 37873" d="M177.09,3306.344c0,.754.026,1.379.052,1.9h-1.4l-.078-.962h-.026a2.29,2.29,0,0,1-2.029,1.1c-1.156,0-2.209-.689-2.209-2.756v-3.718h1.6v3.445c0,1.053.338,1.729,1.183,1.729a1.348,1.348,0,0,0,1.221-.857,1.44,1.44,0,0,0,.092-.5v-3.822h1.6Z" fill="#eae699"/>
      <path id="Trazado_37874" data-name="Trazado 37874" d="M178.818,3303.952c0-.858-.012-1.469-.051-2.041h1.391l.051,1.209h.053a1.887,1.887,0,0,1,1.729-1.352,1.694,1.694,0,0,1,.377.039v1.508a2.233,2.233,0,0,0-.469-.052,1.409,1.409,0,0,0-1.429,1.209,2.652,2.652,0,0,0-.053.494v3.276h-1.6Z" fill="#eae699"/>
      <path id="Trazado_37875" data-name="Trazado 37875" d="M185.149,3300.143a.9.9,0,1,1-.9-.872A.847.847,0,0,1,185.149,3300.143Zm-1.7,8.1v-6.331h1.613v6.331Z" fill="#eae699"/>
      <path id="Trazado_37876" data-name="Trazado 37876" d="M192.612,3299.012v7.449c0,.65.026,1.352.052,1.781h-1.43l-.065-1h-.026a2.279,2.279,0,0,1-2.067,1.144c-1.509,0-2.7-1.287-2.7-3.237-.014-2.119,1.313-3.38,2.834-3.38a2.017,2.017,0,0,1,1.781.832h.026v-3.588Zm-1.6,5.538a2.251,2.251,0,0,0-.039-.416A1.4,1.4,0,0,0,189.6,3303c-1.028,0-1.6.91-1.6,2.093,0,1.157.571,2,1.586,2a1.411,1.411,0,0,0,1.378-1.131,1.782,1.782,0,0,0,.052-.468Z" fill="#eae699"/>
      <path id="Trazado_37877" data-name="Trazado 37877" d="M199.241,3306.721a10.129,10.129,0,0,0,.092,1.521H197.89l-.1-.7h-.038a2.355,2.355,0,0,1-1.872.845,1.88,1.88,0,0,1-1.99-1.885c0-1.6,1.417-2.405,3.758-2.392v-.1c0-.416-.169-1.1-1.288-1.1a3.354,3.354,0,0,0-1.7.468l-.312-1.04a4.56,4.56,0,0,1,2.288-.559,2.368,2.368,0,0,1,2.613,2.665Zm-1.559-1.573c-1.132-.026-2.211.221-2.211,1.183a.84.84,0,0,0,.91.91,1.294,1.294,0,0,0,1.248-.871,1.152,1.152,0,0,0,.053-.35Z" fill="#eae699"/>
      <path id="Trazado_37878" data-name="Trazado 37878" d="M206.769,3299.012v7.449c0,.65.025,1.352.051,1.781h-1.429l-.066-1H205.3a2.278,2.278,0,0,1-2.067,1.144c-1.508,0-2.7-1.287-2.7-3.237-.013-2.119,1.313-3.38,2.834-3.38a2.02,2.02,0,0,1,1.782.832h.025v-3.588Zm-1.6,5.538a2.251,2.251,0,0,0-.039-.416,1.4,1.4,0,0,0-1.378-1.131c-1.026,0-1.6.91-1.6,2.093,0,1.157.573,2,1.586,2a1.409,1.409,0,0,0,1.378-1.131,1.782,1.782,0,0,0,.052-.468Z" fill="#eae699"/>
      <path id="Trazado_37879" data-name="Trazado 37879" d="M216.089,3306.721a10.144,10.144,0,0,0,.091,1.521h-1.443l-.1-.7h-.039a2.352,2.352,0,0,1-1.872.845,1.879,1.879,0,0,1-1.989-1.885c0-1.6,1.417-2.405,3.757-2.392v-.1c0-.416-.169-1.1-1.287-1.1a3.354,3.354,0,0,0-1.7.468l-.312-1.04a4.56,4.56,0,0,1,2.288-.559,2.368,2.368,0,0,1,2.613,2.665Zm-1.56-1.573c-1.131-.026-2.21.221-2.21,1.183a.839.839,0,0,0,.91.91,1.3,1.3,0,0,0,1.248-.871,1.149,1.149,0,0,0,.052-.35Z" fill="#eae699"/>
      <path id="Trazado_37880" data-name="Trazado 37880" d="M217.779,3299.012h1.612v9.23h-1.612Z" fill="#eae699"/>
      <path id="Trazado_37881" data-name="Trazado 37881" d="M222.823,3300.143a.9.9,0,1,1-.9-.872A.847.847,0,0,1,222.823,3300.143Zm-1.7,8.1v-6.331h1.612v6.331Z" fill="#eae699"/>
      <path id="Trazado_37882" data-name="Trazado 37882" d="M224.448,3303.8c0-.728-.013-1.339-.052-1.885h1.378l.065.936h.039a2.19,2.19,0,0,1,1.95-1.079,1.825,1.825,0,0,1,1.755,1.17h.026a2.4,2.4,0,0,1,.78-.793,2.114,2.114,0,0,1,1.274-.377c1.053,0,2.119.715,2.119,2.743v3.731h-1.56v-3.5c0-1.053-.364-1.677-1.131-1.677a1.219,1.219,0,0,0-1.118.845,2.288,2.288,0,0,0-.078.533v3.8h-1.56v-3.666c0-.884-.351-1.508-1.092-1.508a1.248,1.248,0,0,0-1.144.911,1.359,1.359,0,0,0-.091.519v3.744h-1.56Z" fill="#eae699"/>
      <path id="Trazado_37883" data-name="Trazado 37883" d="M236.6,3305.525a1.72,1.72,0,0,0,1.95,1.638,4.735,4.735,0,0,0,1.755-.286l.234,1.1a5.938,5.938,0,0,1-2.21.4,3,3,0,0,1-3.263-3.211,3.135,3.135,0,0,1,3.094-3.406c2.067,0,2.73,1.69,2.73,3.081a3.932,3.932,0,0,1-.052.676Zm2.782-1.118a1.361,1.361,0,0,0-1.313-1.547,1.564,1.564,0,0,0-1.469,1.547Z" fill="#eae699"/>
      <path id="Trazado_37884" data-name="Trazado 37884" d="M242.18,3303.8c0-.728-.013-1.339-.052-1.885h1.4l.078.949h.039a2.282,2.282,0,0,1,2.015-1.092c1.1,0,2.249.715,2.249,2.717v3.757h-1.6v-3.575c0-.91-.338-1.6-1.209-1.6a1.342,1.342,0,0,0-1.248.936,1.63,1.63,0,0,0-.065.52v3.718H242.18Z" fill="#eae699"/>
      <path id="Trazado_37885" data-name="Trazado 37885" d="M251.384,3300.286v1.625H252.9v1.2h-1.521v2.8c0,.767.208,1.17.819,1.17a1.972,1.972,0,0,0,.624-.078l.026,1.222a3.423,3.423,0,0,1-1.157.169,1.861,1.861,0,0,1-1.378-.532,2.527,2.527,0,0,1-.494-1.769v-2.977h-.91v-1.2h.91v-1.17Z" fill="#eae699"/>
      <path id="Trazado_37886" data-name="Trazado 37886" d="M259.028,3306.721a10.143,10.143,0,0,0,.091,1.521h-1.443l-.1-.7h-.039a2.352,2.352,0,0,1-1.872.845,1.879,1.879,0,0,1-1.989-1.885c0-1.6,1.417-2.405,3.757-2.392v-.1c0-.416-.169-1.1-1.287-1.1a3.354,3.354,0,0,0-1.7.468l-.312-1.04a4.56,4.56,0,0,1,2.288-.559,2.368,2.368,0,0,1,2.613,2.665Zm-1.56-1.573c-1.131-.026-2.21.221-2.21,1.183a.839.839,0,0,0,.91.91,1.3,1.3,0,0,0,1.248-.871,1.149,1.149,0,0,0,.052-.35Z" fill="#eae699"/>
      <path id="Trazado_37887" data-name="Trazado 37887" d="M260.718,3303.952c0-.858-.013-1.469-.052-2.041h1.391l.052,1.209h.052a1.888,1.888,0,0,1,1.729-1.352,1.687,1.687,0,0,1,.377.039v1.508a2.231,2.231,0,0,0-.468-.052,1.41,1.41,0,0,0-1.43,1.209,2.745,2.745,0,0,0-.052.494v3.276h-1.6Z" fill="#eae699"/>
      <path id="Trazado_37888" data-name="Trazado 37888" d="M267.049,3300.143a.9.9,0,1,1-.9-.872A.847.847,0,0,1,267.049,3300.143Zm-1.7,8.1v-6.331h1.612v6.331Z" fill="#eae699"/>
      <path id="Trazado_37889" data-name="Trazado 37889" d="M273.588,3306.721a10.147,10.147,0,0,0,.091,1.521h-1.443l-.1-.7h-.039a2.352,2.352,0,0,1-1.872.845,1.879,1.879,0,0,1-1.989-1.885c0-1.6,1.417-2.405,3.757-2.392v-.1c0-.416-.169-1.1-1.287-1.1a3.354,3.354,0,0,0-1.7.468l-.312-1.04a4.56,4.56,0,0,1,2.288-.559,2.368,2.368,0,0,1,2.613,2.665Zm-1.56-1.573c-1.131-.026-2.21.221-2.21,1.183a.839.839,0,0,0,.91.91,1.3,1.3,0,0,0,1.248-.871,1.149,1.149,0,0,0,.052-.35Z" fill="#eae699"/>
      <path id="Trazado_37890" data-name="Trazado 37890" d="M178.649,3317.512l1.144,3.392c.13.391.26.871.351,1.236h.039c.1-.365.221-.832.338-1.248l.988-3.38h1.716l-1.586,4.316c-.871,2.365-1.456,3.419-2.21,4.068a3.211,3.211,0,0,1-1.677.82l-.364-1.352a2.74,2.74,0,0,0,.936-.442,2.789,2.789,0,0,0,.871-1,.642.642,0,0,0,.1-.286.681.681,0,0,0-.091-.313l-2.314-5.81Z" fill="#eae699"/>
      <path id="Trazado_37891" data-name="Trazado 37891" d="M186.839,3319.4c0-.727-.013-1.338-.052-1.884h1.4l.078.949h.039a2.283,2.283,0,0,1,2.015-1.093c1.1,0,2.249.716,2.249,2.718v3.757h-1.6v-3.575c0-.911-.338-1.6-1.209-1.6a1.342,1.342,0,0,0-1.248.935,1.635,1.635,0,0,0-.065.521v3.718h-1.612Z" fill="#eae699"/>
      <path id="Trazado_37892" data-name="Trazado 37892" d="M199.943,3321.944c0,.755.026,1.378.052,1.9h-1.4l-.078-.962h-.026a2.289,2.289,0,0,1-2.028,1.1c-1.157,0-2.21-.688-2.21-2.756v-3.717h1.6v3.445c0,1.053.338,1.729,1.183,1.729a1.349,1.349,0,0,0,1.222-.858,1.452,1.452,0,0,0,.091-.494v-3.822h1.6Z" fill="#eae699"/>
      <path id="Trazado_37893" data-name="Trazado 37893" d="M203.505,3315.887v1.625h1.521v1.2h-1.521v2.795c0,.767.208,1.17.819,1.17a2,2,0,0,0,.624-.078l.026,1.221a3.422,3.422,0,0,1-1.157.169,1.86,1.86,0,0,1-1.378-.532,2.522,2.522,0,0,1-.494-1.768v-2.977h-.91v-1.2h.91v-1.17Z" fill="#eae699"/>
      <path id="Trazado_37894" data-name="Trazado 37894" d="M206.235,3319.553c0-.859-.013-1.469-.052-2.041h1.391l.052,1.209h.052a1.888,1.888,0,0,1,1.729-1.353,1.746,1.746,0,0,1,.377.039v1.509a2.207,2.207,0,0,0-.468-.053,1.41,1.41,0,0,0-1.43,1.209,2.765,2.765,0,0,0-.052.494v3.277h-1.6Z" fill="#eae699"/>
      <path id="Trazado_37895" data-name="Trazado 37895" d="M212.566,3315.743a.9.9,0,1,1-.9-.871A.848.848,0,0,1,212.566,3315.743Zm-1.7,8.1v-6.331h1.612v6.331Z" fill="#eae699"/>
      <path id="Trazado_37896" data-name="Trazado 37896" d="M218.845,3323.647a4.567,4.567,0,0,1-1.794.338,3.05,3.05,0,0,1-3.263-3.236,3.274,3.274,0,0,1,3.523-3.381,3.972,3.972,0,0,1,1.547.3l-.286,1.2a2.818,2.818,0,0,0-1.209-.247,2.051,2.051,0,0,0,0,4.1,3.13,3.13,0,0,0,1.261-.247Z" fill="#eae699"/>
      <path id="Trazado_37897" data-name="Trazado 37897" d="M221.731,3315.743a.9.9,0,1,1-.9-.871A.848.848,0,0,1,221.731,3315.743Zm-1.7,8.1v-6.331h1.612v6.331Z" fill="#eae699"/>
      <path id="Trazado_37898" data-name="Trazado 37898" d="M229.375,3320.619a3.136,3.136,0,0,1-3.25,3.366,3.06,3.06,0,0,1-3.172-3.262,3.127,3.127,0,0,1,3.276-3.355A3.038,3.038,0,0,1,229.375,3320.619Zm-4.771.065c0,1.221.6,2.145,1.573,2.145.91,0,1.547-.9,1.547-2.172,0-.987-.442-2.118-1.534-2.118C225.059,3318.539,224.6,3319.631,224.6,3320.684Z" fill="#eae699"/>
      <path id="Trazado_37899" data-name="Trazado 37899" d="M230.688,3319.4c0-.727-.013-1.338-.052-1.884h1.4l.078.949h.039a2.283,2.283,0,0,1,2.015-1.093c1.1,0,2.249.716,2.249,2.718v3.757h-1.6v-3.575c0-.911-.338-1.6-1.209-1.6a1.342,1.342,0,0,0-1.248.935,1.635,1.635,0,0,0-.065.521v3.718h-1.612Z" fill="#eae699"/>
      <path id="Trazado_37900" data-name="Trazado 37900" d="M243.038,3322.321a10.158,10.158,0,0,0,.091,1.522h-1.442l-.1-.7h-.039a2.351,2.351,0,0,1-1.872.844,1.879,1.879,0,0,1-1.989-1.884c0-1.6,1.417-2.406,3.757-2.392v-.1c0-.416-.168-1.1-1.287-1.1a3.344,3.344,0,0,0-1.7.468l-.312-1.04a4.559,4.559,0,0,1,2.288-.56,2.368,2.368,0,0,1,2.613,2.665Zm-1.559-1.572c-1.132-.026-2.211.221-2.211,1.183a.839.839,0,0,0,.91.91,1.3,1.3,0,0,0,1.248-.871,1.151,1.151,0,0,0,.053-.351Z" fill="#eae699"/>
      <path id="Trazado_37901" data-name="Trazado 37901" d="M244.728,3314.612h1.612v9.231h-1.612Z" fill="#eae699"/>
    </g>
    <g id="Grupo_15879" data-name="Grupo 15879">
      <g id="Grupo_15878" data-name="Grupo 15878">
        <path id="Trazado_37902" data-name="Trazado 37902" d="M596.256,3179.467h1.52l-1.417,7.436H599.8l-.247,1.326h-4.966Z" fill="#fff"/>
        <path id="Trazado_37903" data-name="Trazado 37903" d="M604.771,3188.229c.013-.376.065-.883.117-1.429h-.039a2.536,2.536,0,0,1-2.262,1.572,1.923,1.923,0,0,1-1.872-2.157,4.336,4.336,0,0,1,4.459-4.46,6.726,6.726,0,0,1,1.911.286l-.65,3.3a14.663,14.663,0,0,0-.26,2.885Zm.624-5.239a2.552,2.552,0,0,0-.624-.064c-1.4,0-2.483,1.572-2.483,3.015,0,.663.247,1.209.909,1.209.7,0,1.561-.883,1.86-2.5Z" fill="#fff"/>
        <path id="Trazado_37904" data-name="Trazado 37904" d="M607.786,3186.813a3.471,3.471,0,0,0,1.522.428c.61-.012.974-.364.974-.78s-.208-.649-.832-.975a1.962,1.962,0,0,1-1.248-1.651c0-1.222,1.067-2.08,2.562-2.08a3.138,3.138,0,0,1,1.494.325l-.39,1.092a2.524,2.524,0,0,0-1.182-.285c-.573,0-.962.311-.962.74,0,.352.285.6.818.871a2.06,2.06,0,0,1,1.313,1.7c0,1.392-1.169,2.171-2.691,2.171a3.391,3.391,0,0,1-1.768-.468Z" fill="#fff"/>
        <path id="Trazado_37905" data-name="Trazado 37905" d="M622.281,3179l-1.326,6.981a17.452,17.452,0,0,0-.286,2.249h-1.391l.13-1.13h-.025a2.566,2.566,0,0,1-2.172,1.273c-1.131,0-1.924-.923-1.924-2.352a4.1,4.1,0,0,1,3.952-4.265,2.646,2.646,0,0,1,.976.183l.558-2.939Zm-2.288,4.173a1.539,1.539,0,0,0-.871-.246c-1.3,0-2.262,1.442-2.262,2.859,0,.768.3,1.365,1.014,1.365.677,0,1.482-.741,1.742-2.053Z" fill="#fff"/>
        <path id="Trazado_37906" data-name="Trazado 37906" d="M627.209,3187.865a5.094,5.094,0,0,1-2.236.507,2.387,2.387,0,0,1-2.6-2.626,3.853,3.853,0,0,1,3.589-3.991,1.813,1.813,0,0,1,2.041,1.781c0,1.625-1.7,2.146-4.148,2.093a1.756,1.756,0,0,0,.169.9,1.4,1.4,0,0,0,1.3.651,3.752,3.752,0,0,0,1.742-.416Zm-.638-4.329c0-.4-.325-.649-.8-.649a1.947,1.947,0,0,0-1.755,1.611c1.559.026,2.56-.194,2.56-.949Z" fill="#fff"/>
        <path id="Trazado_37907" data-name="Trazado 37907" d="M628.664,3188.229l.988-5.161h-.832l.221-1.17h.832l.052-.273a3.132,3.132,0,0,1,3.3-2.756,3.611,3.611,0,0,1,1.611.351l-.429,1.171a3.274,3.274,0,0,0-1.326-.287,1.615,1.615,0,0,0-1.677,1.535l-.039.259H634.9l-1.2,6.331h-1.521l.975-5.161h-2.015l-.975,5.161Z" fill="#fff"/>
        <path id="Trazado_37908" data-name="Trazado 37908" d="M635.424,3188.229l.819-4.368c.156-.754.247-1.417.325-1.963h1.339l-.13,1.144h.026a2.714,2.714,0,0,1,2.275-1.287,1.546,1.546,0,0,1,1.612,1.742,6.123,6.123,0,0,1-.117,1.054l-.7,3.678h-1.508l.676-3.575a4.782,4.782,0,0,0,.078-.754c0-.52-.2-.91-.793-.91-.689,0-1.573.832-1.845,2.315l-.547,2.924Z" fill="#fff"/>
        <path id="Trazado_37909" data-name="Trazado 37909" d="M642.573,3188.229l1.209-6.331h1.509l-1.209,6.331Zm2.21-7.241a.754.754,0,0,1-.766-.8.9.9,0,0,1,.91-.924.781.781,0,0,1,.8.819.9.9,0,0,1-.935.91Z" fill="#fff"/>
        <path id="Trazado_37910" data-name="Trazado 37910" d="M650.335,3188.009a4.29,4.29,0,0,1-1.82.363,2.388,2.388,0,0,1-2.561-2.534,4,4,0,0,1,4.03-4.083,3.433,3.433,0,0,1,1.287.247l-.39,1.184a2.239,2.239,0,0,0-.949-.2,2.54,2.54,0,0,0-2.392,2.665,1.325,1.325,0,0,0,1.391,1.483,3.273,3.273,0,0,0,1.352-.3Z" fill="#fff"/>
        <path id="Trazado_37911" data-name="Trazado 37911" d="M651.4,3188.229l1.209-6.331h1.509l-1.21,6.331Zm2.21-7.241a.754.754,0,0,1-.766-.8.9.9,0,0,1,.91-.924.782.782,0,0,1,.806.819.9.9,0,0,1-.936.91Z" fill="#fff"/>
        <path id="Trazado_37912" data-name="Trazado 37912" d="M661.047,3184.381a3.789,3.789,0,0,1-3.666,3.991,2.462,2.462,0,0,1-2.587-2.612,3.791,3.791,0,0,1,3.653-4.005A2.481,2.481,0,0,1,661.047,3184.381Zm-4.693,1.34c0,.871.468,1.481,1.235,1.481,1.131,0,1.886-1.559,1.886-2.821,0-.65-.287-1.455-1.21-1.455C657.056,3182.926,656.354,3184.537,656.354,3185.721Z" fill="#fff"/>
        <path id="Trazado_37913" data-name="Trazado 37913" d="M661.7,3188.229l.82-4.368c.156-.754.247-1.417.325-1.963h1.339l-.13,1.144h.025a2.714,2.714,0,0,1,2.276-1.287,1.547,1.547,0,0,1,1.612,1.742,6.221,6.221,0,0,1-.117,1.054l-.7,3.678h-1.508l.676-3.575a4.782,4.782,0,0,0,.078-.754c0-.52-.2-.91-.793-.91-.69,0-1.574.832-1.846,2.315l-.546,2.924Z" fill="#fff"/>
        <path id="Trazado_37914" data-name="Trazado 37914" d="M673.812,3187.865a5.091,5.091,0,0,1-2.236.507,2.386,2.386,0,0,1-2.6-2.626,3.853,3.853,0,0,1,3.588-3.991,1.813,1.813,0,0,1,2.041,1.781c0,1.625-1.7,2.146-4.147,2.093a1.746,1.746,0,0,0,.169.9,1.4,1.4,0,0,0,1.3.651,3.752,3.752,0,0,0,1.742-.416Zm-.637-4.329c0-.4-.325-.649-.806-.649a1.949,1.949,0,0,0-1.755,1.611c1.56.026,2.561-.194,2.561-.949Z" fill="#fff"/>
        <path id="Trazado_37915" data-name="Trazado 37915" d="M675.229,3186.813a3.471,3.471,0,0,0,1.521.428c.61-.012.975-.364.975-.78s-.208-.649-.832-.975a1.958,1.958,0,0,1-1.248-1.651c0-1.222,1.066-2.08,2.561-2.08a3.143,3.143,0,0,1,1.495.325l-.39,1.092a2.536,2.536,0,0,0-1.183-.285c-.572,0-.962.311-.962.74,0,.352.285.6.818.871a2.059,2.059,0,0,1,1.314,1.7c0,1.392-1.17,2.171-2.692,2.171a3.387,3.387,0,0,1-1.767-.468Z" fill="#fff"/>
        <path id="Trazado_37916" data-name="Trazado 37916" d="M689.724,3179l-1.327,6.981a17.636,17.636,0,0,0-.286,2.249h-1.39l.13-1.13h-.027a2.562,2.562,0,0,1-2.171,1.273c-1.131,0-1.924-.923-1.924-2.352a4.105,4.105,0,0,1,3.953-4.265,2.627,2.627,0,0,1,.974.183l.56-2.939Zm-2.288,4.173a1.545,1.545,0,0,0-.872-.246c-1.3,0-2.261,1.442-2.261,2.859,0,.768.3,1.365,1.013,1.365.676,0,1.483-.741,1.743-2.053Z" fill="#fff"/>
        <path id="Trazado_37917" data-name="Trazado 37917" d="M694.651,3187.865a5.091,5.091,0,0,1-2.236.507,2.387,2.387,0,0,1-2.6-2.626,3.853,3.853,0,0,1,3.589-3.991,1.813,1.813,0,0,1,2.041,1.781c0,1.625-1.7,2.146-4.147,2.093a1.746,1.746,0,0,0,.169.9,1.4,1.4,0,0,0,1.3.651,3.758,3.758,0,0,0,1.742-.416Zm-.637-4.329c0-.4-.325-.649-.806-.649a1.949,1.949,0,0,0-1.755,1.611c1.56.026,2.561-.194,2.561-.949Z" fill="#fff"/>
        <path id="Trazado_37918" data-name="Trazado 37918" d="M698.615,3186.5a3.692,3.692,0,0,0,1.977.56c.845,0,1.625-.456,1.625-1.3,0-.572-.377-.963-1.236-1.417-1.013-.547-1.781-1.248-1.781-2.288,0-1.678,1.456-2.731,3.225-2.731a3.9,3.9,0,0,1,1.95.443l-.494,1.26a3.29,3.29,0,0,0-1.586-.39c-.963,0-1.509.559-1.509,1.144s.494.949,1.314,1.417a2.6,2.6,0,0,1,1.7,2.327c0,1.755-1.417,2.847-3.381,2.847a4.117,4.117,0,0,1-2.326-.624Z" fill="#fff"/>
        <path id="Trazado_37919" data-name="Trazado 37919" d="M711.173,3184.381a3.789,3.789,0,0,1-3.666,3.991,2.462,2.462,0,0,1-2.587-2.612,3.791,3.791,0,0,1,3.653-4.005A2.481,2.481,0,0,1,711.173,3184.381Zm-4.693,1.34c0,.871.468,1.481,1.235,1.481,1.131,0,1.885-1.559,1.885-2.821,0-.65-.286-1.455-1.209-1.455C707.182,3182.926,706.48,3184.537,706.48,3185.721Z" fill="#fff"/>
        <path id="Trazado_37920" data-name="Trazado 37920" d="M714.007,3185.733l-1.2,2.5H711.2l4.4-8.762h1.9l1.106,8.762H717.01l-.247-2.5Zm2.665-1.17-.247-2.184c-.039-.468-.091-1.144-.13-1.664h-.026c-.234.52-.468,1.144-.715,1.664l-1.067,2.184Z" fill="#fff"/>
        <path id="Trazado_37921" data-name="Trazado 37921" d="M723.86,3181.9l.494,3.055c.118.676.2,1.145.248,1.573h.026c.155-.389.311-.819.61-1.507l1.366-3.121h1.6l-2.314,4.667a12.45,12.45,0,0,1-2.315,3.485,4.168,4.168,0,0,1-1.95,1.092l-.351-1.3a3.951,3.951,0,0,0,1.119-.546,4.074,4.074,0,0,0,1.118-1.262.389.389,0,0,0,.025-.3l-1.261-5.837Z" fill="#fff"/>
        <path id="Trazado_37922" data-name="Trazado 37922" d="M732.648,3185.733l-1.2,2.5H729.84l4.394-8.762h1.9l1.1,8.762h-1.586l-.247-2.5Zm2.665-1.17-.247-2.184c-.039-.468-.09-1.144-.129-1.664h-.027c-.234.52-.468,1.144-.715,1.664l-1.066,2.184Z" fill="#fff"/>
        <path id="Trazado_37923" data-name="Trazado 37923" d="M744.7,3181.9l-.832,4.369c-.143.754-.234,1.417-.312,1.962h-1.339l.13-1.1h-.026a2.791,2.791,0,0,1-2.2,1.248c-.923,0-1.651-.493-1.651-1.794a5.39,5.39,0,0,1,.13-1.131l.675-3.549h1.509l-.65,3.458a4.507,4.507,0,0,0-.1.872c0,.519.208.9.806.9.7,0,1.52-.832,1.767-2.145l.585-3.081Z" fill="#fff"/>
        <path id="Trazado_37924" data-name="Trazado 37924" d="M747.417,3185.733l-1.2,2.5h-1.613l4.4-8.762h1.9l1.106,8.762H750.42l-.247-2.5Zm2.665-1.17-.247-2.184c-.039-.468-.091-1.144-.13-1.664h-.026c-.234.52-.468,1.144-.715,1.664l-1.067,2.184Z" fill="#fff"/>
        <path id="Trazado_37925" data-name="Trazado 37925" d="M591.433,3202.413a3.457,3.457,0,0,0,1.521.429c.61-.013.975-.363.975-.779s-.208-.651-.832-.976a1.961,1.961,0,0,1-1.248-1.651c0-1.222,1.066-2.081,2.561-2.081a3.14,3.14,0,0,1,1.494.326l-.389,1.091a2.545,2.545,0,0,0-1.183-.285c-.572,0-.962.312-.962.741,0,.351.285.6.818.871a2.058,2.058,0,0,1,1.314,1.7c0,1.391-1.17,2.171-2.691,2.171a3.383,3.383,0,0,1-1.768-.468Z" fill="#fff"/>
        <path id="Trazado_37926" data-name="Trazado 37926" d="M601.4,3203.466a5.09,5.09,0,0,1-2.236.507,2.386,2.386,0,0,1-2.6-2.626,3.854,3.854,0,0,1,3.589-3.992,1.814,1.814,0,0,1,2.041,1.782c0,1.625-1.7,2.145-4.147,2.093a1.739,1.739,0,0,0,.169.9,1.4,1.4,0,0,0,1.3.65,3.743,3.743,0,0,0,1.742-.416Zm-.637-4.329c0-.4-.326-.65-.806-.65a1.95,1.95,0,0,0-1.755,1.612c1.56.026,2.561-.2,2.561-.949Z" fill="#fff"/>
        <path id="Trazado_37927" data-name="Trazado 37927" d="M610.01,3203.466a5.1,5.1,0,0,1-2.237.507,2.386,2.386,0,0,1-2.6-2.626,3.854,3.854,0,0,1,3.589-3.992,1.814,1.814,0,0,1,2.041,1.782c0,1.625-1.7,2.145-4.148,2.093a1.76,1.76,0,0,0,.169.9,1.4,1.4,0,0,0,1.3.65,3.74,3.74,0,0,0,1.742-.416Zm-.638-4.329c0-.4-.325-.65-.806-.65a1.947,1.947,0,0,0-1.754,1.612c1.559.026,2.56-.2,2.56-.949Z" fill="#fff"/>
        <path id="Trazado_37928" data-name="Trazado 37928" d="M611.27,3203.83l.819-4.368c.156-.754.247-1.417.325-1.963h1.339l-.13,1.144h.025a2.714,2.714,0,0,1,2.276-1.288,1.547,1.547,0,0,1,1.612,1.743,6.208,6.208,0,0,1-.117,1.053l-.7,3.679h-1.508l.676-3.575a4.776,4.776,0,0,0,.078-.754c0-.521-.2-.91-.793-.91-.69,0-1.573.832-1.846,2.314l-.547,2.925Z" fill="#fff"/>
        <path id="Trazado_37929" data-name="Trazado 37929" d="M622.943,3203.609a4.266,4.266,0,0,1-1.82.364,2.388,2.388,0,0,1-2.561-2.535,4,4,0,0,1,4.031-4.083,3.423,3.423,0,0,1,1.286.248l-.39,1.183a2.249,2.249,0,0,0-.949-.195,2.539,2.539,0,0,0-2.392,2.665,1.324,1.324,0,0,0,1.391,1.482,3.263,3.263,0,0,0,1.353-.3Z" fill="#fff"/>
        <path id="Trazado_37930" data-name="Trazado 37930" d="M630.562,3197.5l-.833,4.368c-.143.754-.234,1.417-.312,1.963h-1.339l.13-1.1h-.025a2.794,2.794,0,0,1-2.2,1.248c-.923,0-1.651-.494-1.651-1.794a5.39,5.39,0,0,1,.13-1.131l.676-3.549h1.508l-.65,3.458a4.581,4.581,0,0,0-.1.871c0,.52.208.9.8.9.7,0,1.521-.832,1.768-2.145l.585-3.081Z" fill="#fff"/>
        <path id="Trazado_37931" data-name="Trazado 37931" d="M636.061,3203.466a5.1,5.1,0,0,1-2.237.507,2.385,2.385,0,0,1-2.6-2.626,3.853,3.853,0,0,1,3.588-3.992,1.814,1.814,0,0,1,2.042,1.782c0,1.625-1.7,2.145-4.148,2.093a1.749,1.749,0,0,0,.169.9,1.4,1.4,0,0,0,1.3.65,3.74,3.74,0,0,0,1.742-.416Zm-.638-4.329c0-.4-.325-.65-.806-.65a1.95,1.95,0,0,0-1.755,1.612c1.56.026,2.561-.2,2.561-.949Z" fill="#fff"/>
        <path id="Trazado_37932" data-name="Trazado 37932" d="M637.32,3203.83l.82-4.368c.156-.754.247-1.417.325-1.963H639.8l-.13,1.144h.025a2.714,2.714,0,0,1,2.276-1.288,1.547,1.547,0,0,1,1.612,1.743,6.208,6.208,0,0,1-.117,1.053l-.7,3.679H641.26l.676-3.575a4.776,4.776,0,0,0,.078-.754c0-.521-.2-.91-.793-.91-.69,0-1.574.832-1.846,2.314l-.547,2.925Z" fill="#fff"/>
        <path id="Trazado_37933" data-name="Trazado 37933" d="M647.694,3195.874l-.312,1.625h1.43l-.234,1.17h-1.417l-.507,2.561a5.44,5.44,0,0,0-.1.884.5.5,0,0,0,.559.572,3.239,3.239,0,0,0,.52-.039l-.143,1.2a3.438,3.438,0,0,1-.988.13c-1.04,0-1.508-.585-1.508-1.313a5.184,5.184,0,0,1,.143-1.17l.546-2.821h-.858l.221-1.17h.858l.221-1.17Z" fill="#fff"/>
        <path id="Trazado_37934" data-name="Trazado 37934" d="M648.8,3203.83l.741-3.9c.169-.9.247-1.859.325-2.431h1.313c-.039.429-.077.871-.143,1.339h.039a2.328,2.328,0,0,1,1.989-1.483,2.734,2.734,0,0,1,.326.027l-.3,1.482a1.787,1.787,0,0,0-.286-.026c-1.078,0-1.768,1.092-2.015,2.444l-.481,2.548Z" fill="#fff"/>
        <path id="Trazado_37935" data-name="Trazado 37935" d="M657.313,3203.83c.014-.377.066-.884.118-1.43h-.039a2.537,2.537,0,0,1-2.262,1.573,1.923,1.923,0,0,1-1.872-2.158,4.336,4.336,0,0,1,4.459-4.46,6.729,6.729,0,0,1,1.911.287l-.65,3.3a14.667,14.667,0,0,0-.26,2.886Zm.624-5.239a2.523,2.523,0,0,0-.624-.066c-1.4,0-2.482,1.574-2.482,3.017,0,.663.247,1.209.909,1.209.7,0,1.561-.884,1.86-2.5Z" fill="#fff"/>
        <path id="Trazado_37936" data-name="Trazado 37936" d="M660.212,3203.83l.819-4.368c.156-.754.247-1.417.325-1.963H662.7l-.13,1.144h.026a2.711,2.711,0,0,1,2.275-1.288,1.548,1.548,0,0,1,1.613,1.743,6.115,6.115,0,0,1-.118,1.053l-.7,3.679h-1.508l.676-3.575a4.776,4.776,0,0,0,.078-.754c0-.521-.2-.91-.793-.91-.689,0-1.573.832-1.845,2.314l-.546,2.925Z" fill="#fff"/>
        <path id="Trazado_37937" data-name="Trazado 37937" d="M674.707,3203.466a5.093,5.093,0,0,1-2.236.507,2.386,2.386,0,0,1-2.6-2.626,3.854,3.854,0,0,1,3.589-3.992,1.814,1.814,0,0,1,2.041,1.782c0,1.625-1.7,2.145-4.147,2.093a1.747,1.747,0,0,0,.168.9,1.4,1.4,0,0,0,1.3.65,3.74,3.74,0,0,0,1.742-.416Zm-.638-4.329c0-.4-.325-.65-.8-.65a1.948,1.948,0,0,0-1.755,1.612c1.559.026,2.56-.2,2.56-.949Z" fill="#fff"/>
        <path id="Trazado_37938" data-name="Trazado 37938" d="M675.967,3203.83l.819-4.368c.156-.754.247-1.417.325-1.963h1.339l-.13,1.144h.026a2.712,2.712,0,0,1,2.275-1.288,1.547,1.547,0,0,1,1.612,1.743,6.11,6.11,0,0,1-.117,1.053l-.7,3.679h-1.508l.676-3.575a4.776,4.776,0,0,0,.078-.754c0-.521-.195-.91-.793-.91-.689,0-1.573.832-1.846,2.314l-.546,2.925Z" fill="#fff"/>
        <path id="Trazado_37939" data-name="Trazado 37939" d="M685.495,3203.83l.741-3.9c.169-.9.247-1.859.326-2.431h1.312c-.038.429-.077.871-.143,1.339h.04a2.327,2.327,0,0,1,1.989-1.483,2.737,2.737,0,0,1,.325.027l-.3,1.482a1.784,1.784,0,0,0-.285-.026c-1.079,0-1.769,1.092-2.016,2.444l-.48,2.548Z" fill="#fff"/>
        <path id="Trazado_37940" data-name="Trazado 37940" d="M694.921,3203.466a5.094,5.094,0,0,1-2.236.507,2.386,2.386,0,0,1-2.6-2.626,3.854,3.854,0,0,1,3.589-3.992,1.814,1.814,0,0,1,2.041,1.782c0,1.625-1.7,2.145-4.148,2.093a1.76,1.76,0,0,0,.169.9,1.4,1.4,0,0,0,1.3.65,3.743,3.743,0,0,0,1.742-.416Zm-.638-4.329c0-.4-.324-.65-.8-.65a1.948,1.948,0,0,0-1.755,1.612c1.559.026,2.56-.2,2.56-.949Z" fill="#fff"/>
        <path id="Trazado_37941" data-name="Trazado 37941" d="M698.1,3197.5l.4,3.146c.078.754.156,1.235.182,1.651h.039c.156-.4.338-.858.689-1.612l1.573-3.185h1.677l-3.523,6.331h-1.521l-1.079-6.331Z" fill="#fff"/>
        <path id="Trazado_37942" data-name="Trazado 37942" d="M702.5,3203.83l1.209-6.331h1.509l-1.209,6.331Zm2.21-7.241a.755.755,0,0,1-.767-.806.9.9,0,0,1,.911-.924.782.782,0,0,1,.8.82.9.9,0,0,1-.935.91Z" fill="#fff"/>
        <path id="Trazado_37943" data-name="Trazado 37943" d="M705.893,3202.413a3.457,3.457,0,0,0,1.521.429c.61-.013.975-.363.975-.779s-.208-.651-.832-.976a1.959,1.959,0,0,1-1.248-1.651c0-1.222,1.066-2.081,2.561-2.081a3.145,3.145,0,0,1,1.495.326l-.39,1.091a2.548,2.548,0,0,0-1.183-.285c-.572,0-.962.312-.962.741,0,.351.285.6.818.871a2.058,2.058,0,0,1,1.314,1.7c0,1.391-1.17,2.171-2.691,2.171a3.384,3.384,0,0,1-1.768-.468Z" fill="#fff"/>
        <path id="Trazado_37944" data-name="Trazado 37944" d="M710.9,3203.83l1.209-6.331h1.509l-1.209,6.331Zm2.21-7.241a.754.754,0,0,1-.766-.806.9.9,0,0,1,.91-.924.782.782,0,0,1,.806.82.9.9,0,0,1-.936.91Z" fill="#fff"/>
        <path id="Trazado_37945" data-name="Trazado 37945" d="M716.878,3203.973a2.463,2.463,0,0,1-2.587-2.613,3.791,3.791,0,0,1,3.653-4.005,2.482,2.482,0,0,1,2.6,2.627,3.787,3.787,0,0,1-3.653,3.991Zm.208-1.17c1.131,0,1.885-1.56,1.885-2.821,0-.65-.285-1.457-1.209-1.457-1.209,0-1.91,1.613-1.91,2.8,0,.871.467,1.482,1.221,1.482Zm3.107-7.995-1.715,1.923h-1.145l1.261-1.923Z" fill="#fff"/>
        <path id="Trazado_37946" data-name="Trazado 37946" d="M721.193,3203.83l.82-4.368c.156-.754.247-1.417.325-1.963h1.339l-.13,1.144h.025a2.714,2.714,0,0,1,2.276-1.288,1.547,1.547,0,0,1,1.612,1.743,6.208,6.208,0,0,1-.117,1.053l-.7,3.679h-1.508l.676-3.575a4.776,4.776,0,0,0,.078-.754c0-.521-.2-.91-.793-.91-.69,0-1.573.832-1.846,2.314l-.547,2.925Z" fill="#fff"/>
        <path id="Trazado_37947" data-name="Trazado 37947" d="M730.188,3206.4l1.236-6.552c.143-.754.286-1.743.364-2.379h1.365l-.143,1.066h.026a2.671,2.671,0,0,1,2.145-1.184c1.365,0,2,1.119,2,2.354,0,2.21-1.535,4.264-3.693,4.264a2.549,2.549,0,0,1-1.261-.273H732.2l-.507,2.7Zm2.263-3.913a1.547,1.547,0,0,0,1.014.312c1.17,0,2.132-1.56,2.132-2.977,0-.585-.26-1.235-1-1.235-.767,0-1.6.871-1.872,2.353Z" fill="#fff"/>
        <path id="Trazado_37948" data-name="Trazado 37948" d="M741.967,3203.83c.013-.377.065-.884.117-1.43h-.039a2.536,2.536,0,0,1-2.262,1.573,1.923,1.923,0,0,1-1.872-2.158,4.336,4.336,0,0,1,4.459-4.46,6.723,6.723,0,0,1,1.911.287l-.65,3.3a14.746,14.746,0,0,0-.26,2.886Zm.624-5.239a2.523,2.523,0,0,0-.624-.066c-1.4,0-2.483,1.574-2.483,3.017,0,.663.246,1.209.91,1.209.7,0,1.56-.884,1.859-2.5Z" fill="#fff"/>
        <path id="Trazado_37949" data-name="Trazado 37949" d="M744.865,3203.83l.741-3.9c.169-.9.248-1.859.326-2.431h1.312c-.039.429-.077.871-.142,1.339h.039a2.327,2.327,0,0,1,1.989-1.483,2.719,2.719,0,0,1,.325.027l-.3,1.482a1.776,1.776,0,0,0-.286-.026c-1.078,0-1.767,1.092-2.015,2.444l-.481,2.548Z" fill="#fff"/>
        <path id="Trazado_37950" data-name="Trazado 37950" d="M753.38,3203.83c.014-.377.065-.884.117-1.43h-.039a2.536,2.536,0,0,1-2.262,1.573,1.923,1.923,0,0,1-1.872-2.158,4.336,4.336,0,0,1,4.459-4.46,6.717,6.717,0,0,1,1.911.287l-.65,3.3a14.746,14.746,0,0,0-.26,2.886Zm.624-5.239a2.528,2.528,0,0,0-.624-.066c-1.4,0-2.483,1.574-2.483,3.017,0,.663.248,1.209.91,1.209.7,0,1.56-.884,1.859-2.5Z" fill="#fff"/>
        <path id="Trazado_37951" data-name="Trazado 37951" d="M594.526,3219.43c.014-.377.066-.884.118-1.43h-.04a2.535,2.535,0,0,1-2.261,1.572,1.923,1.923,0,0,1-1.872-2.157,4.336,4.336,0,0,1,4.459-4.46,6.767,6.767,0,0,1,1.911.286l-.651,3.3a14.73,14.73,0,0,0-.259,2.886Zm.624-5.24a2.532,2.532,0,0,0-.624-.065c-1.4,0-2.482,1.573-2.482,3.017,0,.663.247,1.209.909,1.209.7,0,1.561-.884,1.859-2.5Z" fill="#fff"/>
        <path id="Trazado_37952" data-name="Trazado 37952" d="M604.5,3210.2l-1.326,6.982a17.409,17.409,0,0,0-.286,2.249h-1.391l.13-1.131H601.6a2.564,2.564,0,0,1-2.171,1.273c-1.131,0-1.924-.923-1.924-2.352a4.1,4.1,0,0,1,3.952-4.265,2.656,2.656,0,0,1,.975.183l.559-2.939Zm-2.288,4.173a1.542,1.542,0,0,0-.871-.247c-1.3,0-2.262,1.443-2.262,2.86,0,.768.3,1.366,1.014,1.366.676,0,1.482-.742,1.742-2.054Z" fill="#fff"/>
        <path id="Trazado_37953" data-name="Trazado 37953" d="M610.867,3215.582a3.788,3.788,0,0,1-3.666,3.99,2.463,2.463,0,0,1-2.587-2.612,3.791,3.791,0,0,1,3.654-4A2.481,2.481,0,0,1,610.867,3215.582Zm-4.693,1.339c0,.871.469,1.481,1.235,1.481,1.131,0,1.886-1.559,1.886-2.82,0-.65-.286-1.457-1.21-1.457C606.876,3214.125,606.174,3215.737,606.174,3216.921Z" fill="#fff"/>
        <path id="Trazado_37954" data-name="Trazado 37954" d="M610.983,3222l1.236-6.553c.143-.754.286-1.742.364-2.379h1.365l-.143,1.067h.026a2.672,2.672,0,0,1,2.145-1.184c1.365,0,2,1.118,2,2.354,0,2.21-1.535,4.263-3.693,4.263a2.564,2.564,0,0,1-1.261-.272H613l-.507,2.7Zm2.263-3.913a1.552,1.552,0,0,0,1.014.311c1.17,0,2.132-1.559,2.132-2.976,0-.585-.26-1.236-1-1.236-.767,0-1.6.872-1.872,2.354Z" fill="#fff"/>
        <path id="Trazado_37955" data-name="Trazado 37955" d="M621.826,3211.474l-.312,1.625h1.43l-.234,1.17h-1.417l-.507,2.561a5.409,5.409,0,0,0-.1.884.5.5,0,0,0,.559.571,3.4,3.4,0,0,0,.52-.038l-.143,1.195a3.4,3.4,0,0,1-.988.13c-1.04,0-1.508-.585-1.508-1.312a5.176,5.176,0,0,1,.143-1.17l.546-2.821h-.858l.221-1.17h.858l.221-1.17Z" fill="#fff"/>
        <path id="Trazado_37956" data-name="Trazado 37956" d="M627.091,3219.43c.013-.377.065-.884.117-1.43h-.039a2.536,2.536,0,0,1-2.262,1.572,1.923,1.923,0,0,1-1.872-2.157,4.336,4.336,0,0,1,4.459-4.46,6.756,6.756,0,0,1,1.911.286l-.65,3.3a14.741,14.741,0,0,0-.26,2.886Zm.624-5.24a2.538,2.538,0,0,0-.624-.065c-1.4,0-2.483,1.573-2.483,3.017,0,.663.247,1.209.91,1.209.7,0,1.56-.884,1.859-2.5Z" fill="#fff"/>
        <path id="Trazado_37957" data-name="Trazado 37957" d="M629.989,3219.43l.741-3.9c.169-.9.248-1.858.326-2.43h1.312c-.038.428-.077.871-.142,1.339h.039a2.327,2.327,0,0,1,1.989-1.483,2.993,2.993,0,0,1,.325.026l-.3,1.483a1.653,1.653,0,0,0-.285-.026c-1.079,0-1.768,1.091-2.015,2.444l-.481,2.548Z" fill="#fff"/>
        <path id="Trazado_37958" data-name="Trazado 37958" d="M638.79,3213.1l.494,3.054c.117.677.2,1.145.247,1.574h.027c.155-.39.311-.82.61-1.508l1.365-3.12h1.6l-2.315,4.667a12.41,12.41,0,0,1-2.314,3.484,4.166,4.166,0,0,1-1.95,1.092l-.351-1.3a3.978,3.978,0,0,0,1.118-.546,4.041,4.041,0,0,0,1.118-1.262.392.392,0,0,0,.026-.3L637.2,3213.1Z" fill="#fff"/>
        <path id="Trazado_37959" data-name="Trazado 37959" d="M649.554,3219.43c.013-.377.065-.884.117-1.43h-.039a2.536,2.536,0,0,1-2.262,1.572,1.923,1.923,0,0,1-1.872-2.157,4.336,4.336,0,0,1,4.459-4.46,6.761,6.761,0,0,1,1.911.286l-.65,3.3a14.741,14.741,0,0,0-.26,2.886Zm.624-5.24a2.543,2.543,0,0,0-.624-.065c-1.4,0-2.483,1.573-2.483,3.017,0,.663.247,1.209.909,1.209.7,0,1.561-.884,1.86-2.5Z" fill="#fff"/>
        <path id="Trazado_37960" data-name="Trazado 37960" d="M659.524,3210.2l-1.326,6.982a17.593,17.593,0,0,0-.286,2.249h-1.391l.13-1.131h-.026a2.563,2.563,0,0,1-2.171,1.273c-1.131,0-1.924-.923-1.924-2.352a4.1,4.1,0,0,1,3.952-4.265,2.648,2.648,0,0,1,.975.183l.56-2.939Zm-2.288,4.173a1.539,1.539,0,0,0-.871-.247c-1.3,0-2.261,1.443-2.261,2.86,0,.768.3,1.366,1.013,1.366.676,0,1.483-.742,1.742-2.054Z" fill="#fff"/>
        <path id="Trazado_37961" data-name="Trazado 37961" d="M663.646,3219.43c.013-.377.065-.884.117-1.43h-.039a2.536,2.536,0,0,1-2.262,1.572,1.923,1.923,0,0,1-1.872-2.157,4.336,4.336,0,0,1,4.459-4.46,6.762,6.762,0,0,1,1.911.286l-.65,3.3a14.666,14.666,0,0,0-.26,2.886Zm.624-5.24a2.544,2.544,0,0,0-.624-.065c-1.4,0-2.483,1.573-2.483,3.017,0,.663.247,1.209.909,1.209.7,0,1.561-.884,1.86-2.5Z" fill="#fff"/>
        <path id="Trazado_37962" data-name="Trazado 37962" d="M666.011,3222l1.235-6.553c.144-.754.286-1.742.364-2.379h1.366l-.144,1.067h.026a2.673,2.673,0,0,1,2.145-1.184c1.365,0,2,1.118,2,2.354,0,2.21-1.534,4.263-3.693,4.263a2.56,2.56,0,0,1-1.26-.272h-.027l-.506,2.7Zm2.262-3.913a1.556,1.556,0,0,0,1.014.311c1.17,0,2.132-1.559,2.132-2.976,0-.585-.26-1.236-1-1.236-.767,0-1.6.872-1.872,2.354Z" fill="#fff"/>
        <path id="Trazado_37963" data-name="Trazado 37963" d="M676.854,3211.474l-.313,1.625h1.431l-.235,1.17H676.32l-.507,2.561a5.525,5.525,0,0,0-.1.884.5.5,0,0,0,.56.571,3.388,3.388,0,0,0,.519-.038l-.142,1.195a3.407,3.407,0,0,1-.989.13c-1.04,0-1.508-.585-1.508-1.312a5.176,5.176,0,0,1,.143-1.17l.546-2.821h-.858l.221-1.17h.859l.22-1.17Z" fill="#fff"/>
        <path id="Trazado_37964" data-name="Trazado 37964" d="M682.118,3219.43c.014-.377.066-.884.117-1.43H682.2a2.535,2.535,0,0,1-2.261,1.572,1.924,1.924,0,0,1-1.873-2.157,4.336,4.336,0,0,1,4.459-4.46,6.768,6.768,0,0,1,1.912.286l-.651,3.3a14.822,14.822,0,0,0-.26,2.886Zm.624-5.24a2.532,2.532,0,0,0-.624-.065c-1.4,0-2.482,1.573-2.482,3.017,0,.663.247,1.209.909,1.209.7,0,1.56-.884,1.859-2.5Z" fill="#fff"/>
        <path id="Trazado_37965" data-name="Trazado 37965" d="M685.016,3219.43l.741-3.9c.169-.9.247-1.858.325-2.43H687.4c-.04.428-.078.871-.143,1.339h.039a2.328,2.328,0,0,1,1.989-1.483,2.974,2.974,0,0,1,.325.026l-.3,1.483a1.657,1.657,0,0,0-.286-.026c-1.079,0-1.768,1.091-2.015,2.444l-.482,2.548Z" fill="#fff"/>
        <path id="Trazado_37966" data-name="Trazado 37966" d="M691.372,3222l1.235-6.553c.144-.754.287-1.742.365-2.379h1.365l-.144,1.067h.027a2.671,2.671,0,0,1,2.144-1.184c1.365,0,2,1.118,2,2.354,0,2.21-1.534,4.263-3.692,4.263a2.561,2.561,0,0,1-1.261-.272h-.026l-.507,2.7Zm2.263-3.913a1.551,1.551,0,0,0,1.013.311c1.17,0,2.132-1.559,2.132-2.976,0-.585-.259-1.236-1-1.236-.766,0-1.6.872-1.872,2.354Z" fill="#fff"/>
        <path id="Trazado_37967" data-name="Trazado 37967" d="M703.15,3219.43c.014-.377.066-.884.118-1.43h-.039a2.538,2.538,0,0,1-2.262,1.572,1.923,1.923,0,0,1-1.872-2.157,4.336,4.336,0,0,1,4.459-4.46,6.773,6.773,0,0,1,1.911.286l-.651,3.3a14.735,14.735,0,0,0-.259,2.886Zm.624-5.24a2.526,2.526,0,0,0-.624-.065c-1.4,0-2.482,1.573-2.482,3.017,0,.663.246,1.209.909,1.209.7,0,1.561-.884,1.86-2.5Z" fill="#fff"/>
        <path id="Trazado_37968" data-name="Trazado 37968" d="M706.049,3219.43l.741-3.9c.169-.9.247-1.858.325-2.43h1.313c-.039.428-.077.871-.143,1.339h.039a2.328,2.328,0,0,1,1.989-1.483,3.011,3.011,0,0,1,.326.026l-.3,1.483a1.656,1.656,0,0,0-.286-.026c-1.078,0-1.768,1.091-2.015,2.444l-.481,2.548Z" fill="#fff"/>
        <path id="Trazado_37969" data-name="Trazado 37969" d="M714.564,3219.43c.014-.377.066-.884.118-1.43h-.039a2.536,2.536,0,0,1-2.262,1.572,1.923,1.923,0,0,1-1.872-2.157,4.336,4.336,0,0,1,4.459-4.46,6.773,6.773,0,0,1,1.911.286l-.65,3.3a14.666,14.666,0,0,0-.26,2.886Zm.624-5.24a2.526,2.526,0,0,0-.624-.065c-1.4,0-2.482,1.573-2.482,3.017,0,.663.246,1.209.909,1.209.7,0,1.561-.884,1.86-2.5Z" fill="#fff"/>
        <path id="Trazado_37970" data-name="Trazado 37970" d="M724.77,3219.065a5.078,5.078,0,0,1-2.237.507,2.386,2.386,0,0,1-2.6-2.626,3.852,3.852,0,0,1,3.588-3.991,1.813,1.813,0,0,1,2.041,1.781c0,1.625-1.7,2.146-4.147,2.094a1.751,1.751,0,0,0,.169.9,1.4,1.4,0,0,0,1.3.65,3.749,3.749,0,0,0,1.742-.416Zm-.638-4.329c0-.4-.325-.649-.806-.649a1.95,1.95,0,0,0-1.755,1.611c1.56.027,2.561-.194,2.561-.948Z" fill="#fff"/>
        <path id="Trazado_37971" data-name="Trazado 37971" d="M726.029,3219.43l1.769-9.231h1.508l-1.755,9.231Z" fill="#fff"/>
        <path id="Trazado_37972" data-name="Trazado 37972" d="M731.112,3222l1.236-6.553c.143-.754.286-1.742.364-2.379h1.365l-.143,1.067h.026a2.671,2.671,0,0,1,2.144-1.184c1.366,0,2,1.118,2,2.354,0,2.21-1.534,4.263-3.692,4.263a2.565,2.565,0,0,1-1.261-.272h-.026l-.507,2.7Zm2.263-3.913a1.552,1.552,0,0,0,1.014.311c1.17,0,2.132-1.559,2.132-2.976,0-.585-.26-1.236-1-1.236-.767,0-1.6.872-1.873,2.354Z" fill="#fff"/>
        <path id="Trazado_37973" data-name="Trazado 37973" d="M742.891,3219.43c.013-.377.065-.884.117-1.43h-.039a2.536,2.536,0,0,1-2.262,1.572,1.923,1.923,0,0,1-1.872-2.157,4.336,4.336,0,0,1,4.459-4.46,6.767,6.767,0,0,1,1.911.286l-.65,3.3a14.741,14.741,0,0,0-.26,2.886Zm.624-5.24a2.538,2.538,0,0,0-.624-.065c-1.4,0-2.483,1.573-2.483,3.017,0,.663.246,1.209.909,1.209.7,0,1.561-.884,1.86-2.5Z" fill="#fff"/>
        <path id="Trazado_37974" data-name="Trazado 37974" d="M745.788,3219.43,747,3213.1h1.509l-1.209,6.331Zm4.226-9.023-1.716,1.924h-1.132l1.248-1.924Z" fill="#fff"/>
        <path id="Trazado_37975" data-name="Trazado 37975" d="M749.182,3218.013a3.467,3.467,0,0,0,1.521.428c.61-.012.975-.363.975-.779s-.208-.65-.832-.975a1.959,1.959,0,0,1-1.248-1.652c0-1.222,1.066-2.08,2.561-2.08a3.146,3.146,0,0,1,1.495.325l-.39,1.092a2.532,2.532,0,0,0-1.183-.285c-.572,0-.962.311-.962.74,0,.352.285.6.818.871a2.059,2.059,0,0,1,1.314,1.7c0,1.392-1.17,2.171-2.691,2.171a3.365,3.365,0,0,1-1.768-.468Z" fill="#fff"/>
        <path id="Trazado_37976" data-name="Trazado 37976" d="M754.941,3219.56a.885.885,0,0,1-.9-.936,1.074,1.074,0,0,1,1.066-1.118.9.9,0,0,1,.923.962,1.056,1.056,0,0,1-1.079,1.092Z" fill="#fff"/>
      </g>
    </g>
  </g>
</svg>
