<svg xmlns="http://www.w3.org/2000/svg" xmlns:xlink="http://www.w3.org/1999/xlink" width="242" height="242" viewBox="0 0 242 242">
  <defs>
    <clipPath id="clip-path">
      <rect id="Rectángulo_25716" data-name="Rectángulo 25716" width="175.193" height="163.76" fill="none"/>
    </clipPath>
  </defs>
  <g id="Grupo_25330" data-name="Grupo 25330" transform="translate(-139 -8537)">
    <g id="Elipse_61" data-name="Elipse 61" transform="translate(139 8537)" fill="#fff" stroke="#d9a171" stroke-width="4">
      <circle cx="121" cy="121" r="121" stroke="none"/>
      <circle cx="121" cy="121" r="119" fill="none"/>
    </g>
    <g id="Grupo_25026" data-name="Grupo 25026" transform="translate(172 8571)">
      <g id="Grupo_25025" data-name="Grupo 25025" clip-path="url(#clip-path)">
        <path id="Trazado_65048" data-name="Trazado 65048" d="M140.368,127.069a71.31,71.31,0,0,1,.187-40.4l.309.195a70.719,70.719,0,0,0-.174,40.048Z" fill="#d4edff"/>
        <path id="Trazado_65049" data-name="Trazado 65049" d="M140.476,87.294a6.178,6.178,0,0,1,.339-2.7c.184-.459.769-1.069,1.1-.843s.353.993.084,1.662a4.231,4.231,0,0,1-1.519,1.884" fill="#d4edff"/>
        <path id="Trazado_65050" data-name="Trazado 65050" d="M139.87,89.653a4.3,4.3,0,0,1,1.328-1.764c.318-.22.991-.3,1.138.068a1.236,1.236,0,0,1-.6,1.266,2.732,2.732,0,0,1-1.863.43" fill="#d4edff"/>
        <path id="Trazado_65051" data-name="Trazado 65051" d="M139.114,93.763a3.005,3.005,0,0,1,1.259-1.377.764.764,0,0,1,.98.406,1.012,1.012,0,0,1-.6,1.093,2.044,2.044,0,0,1-1.638-.122" fill="#d4edff"/>
        <path id="Trazado_65052" data-name="Trazado 65052" d="M140.01,89.555a2.417,2.417,0,0,1-1.434-1.016c-.2-.305-.327-1.056-.075-1.335s.707-.117.991.326a4.178,4.178,0,0,1,.518,2.025" fill="#d4edff"/>
        <path id="Trazado_65053" data-name="Trazado 65053" d="M138.229,115.907a2.4,2.4,0,0,1-1.732-.293c-.3-.192-.7-.814-.565-1.178s.623-.415,1.056-.137a3.767,3.767,0,0,1,1.241,1.608" fill="#d4edff"/>
        <path id="Trazado_65054" data-name="Trazado 65054" d="M138.92,93.69a3.358,3.358,0,0,1-1.669-1.333c-.24-.374-.438-1.251-.174-1.541s.779-.051,1.127.49a5.483,5.483,0,0,1,.716,2.384" fill="#d4edff"/>
        <path id="Trazado_65055" data-name="Trazado 65055" d="M138.142,98.086a2.353,2.353,0,0,1-1.607-1,1.55,1.55,0,0,1-.005-1.507c.312-.342.83-.206,1.133.266a4.265,4.265,0,0,1,.479,2.246" fill="#d4edff"/>
        <path id="Trazado_65056" data-name="Trazado 65056" d="M138.4,98.064a3.662,3.662,0,0,1,1.156-1.814.8.8,0,0,1,1.127.26,1.225,1.225,0,0,1-.484,1.356,2.165,2.165,0,0,1-1.8.2" fill="#d4edff"/>
        <path id="Trazado_65057" data-name="Trazado 65057" d="M138.346,116.066a4.506,4.506,0,0,1,.539-2.173c.214-.379.819-.908,1.111-.753s.258.761-.053,1.312a4.728,4.728,0,0,1-1.6,1.614" fill="#d4edff"/>
        <path id="Trazado_65058" data-name="Trazado 65058" d="M137.708,106.787a2.486,2.486,0,0,1,1.222-1.038c.3-.115.963-.109,1.128.144s-.09.607-.532.775a3.752,3.752,0,0,1-1.818.119" fill="#d4edff"/>
        <path id="Trazado_65059" data-name="Trazado 65059" d="M137.724,102.7a2.2,2.2,0,0,1-1.251-2.35c.137-.269.454-.1.689.344a6.314,6.314,0,0,1,.562,2.006" fill="#d4edff"/>
        <path id="Trazado_65060" data-name="Trazado 65060" d="M137.979,111.677a6.413,6.413,0,0,1,.419-2.3c.154-.322.577-.565.772-.181a2.064,2.064,0,0,1-.068,1.571,1.421,1.421,0,0,1-1.123.91" fill="#d4edff"/>
        <path id="Trazado_65061" data-name="Trazado 65061" d="M137.787,106.953a4.465,4.465,0,0,1-2.075-1c-.3-.287-.551-.972-.229-1.21s.962-.067,1.4.35a3.162,3.162,0,0,1,.908,1.856" fill="#d4edff"/>
        <path id="Trazado_65062" data-name="Trazado 65062" d="M137.85,111.878a3.905,3.905,0,0,1-1.908-.951c-.262-.271-.446-.922-.115-1.146a1.141,1.141,0,0,1,1.312.333,2.739,2.739,0,0,1,.711,1.764" fill="#d4edff"/>
        <path id="Trazado_65063" data-name="Trazado 65063" d="M150.06,93.291A2.4,2.4,0,0,1,148.328,93c-.3-.191-.7-.815-.566-1.179s.623-.415,1.056-.137a3.788,3.788,0,0,1,1.242,1.609" fill="#d4edff"/>
        <path id="Trazado_65064" data-name="Trazado 65064" d="M139.807,123.983a4.5,4.5,0,0,1,.539-2.172c.214-.38.819-.908,1.112-.753s.257.76-.052,1.311a4.722,4.722,0,0,1-1.6,1.614" fill="#d4edff"/>
        <path id="Trazado_65065" data-name="Trazado 65065" d="M138.919,120.108a3.548,3.548,0,0,1,.64-1.713c.215-.3.788-.738,1.032-.629s.167.585-.148,1.026a4.85,4.85,0,0,1-1.524,1.316" fill="#d4edff"/>
        <path id="Trazado_65066" data-name="Trazado 65066" d="M141.715,102.279a5.594,5.594,0,0,1,1-1.868c.226-.236.673-.331.746.053a1.8,1.8,0,0,1-.486,1.336,1.354,1.354,0,0,1-1.256.479" fill="#d4edff"/>
        <path id="Trazado_65067" data-name="Trazado 65067" d="M139.784,124.153a4.186,4.186,0,0,1-2.153-.644c-.324-.234-.642-.873-.346-1.163a1.208,1.208,0,0,1,1.419.116,2.92,2.92,0,0,1,1.08,1.691" fill="#d4edff"/>
        <path id="Trazado_65068" data-name="Trazado 65068" d="M138.9,120.2a3.358,3.358,0,0,1-1.869-.606c-.262-.218-.462-.811-.152-1.078a1.05,1.05,0,0,1,1.274.112,2.305,2.305,0,0,1,.747,1.572" fill="#d4edff"/>
        <path id="Trazado_65069" data-name="Trazado 65069" d="M137.822,102.988a4.654,4.654,0,0,1,1.17-1.861c.314-.3,1.036-.64,1.254-.431s0,.754-.457,1.186a5.087,5.087,0,0,1-1.967,1.106" fill="#d4edff"/>
        <path id="Trazado_65070" data-name="Trazado 65070" d="M39.814,123.62a1.873,1.873,0,0,1-1.427-.324,1.136,1.136,0,0,1-.379-1.066c.142-.318.556-.346.9-.086a3.163,3.163,0,0,1,.911,1.476" fill="#8dcfff"/>
        <path id="Trazado_65071" data-name="Trazado 65071" d="M40.934,124.345a2.758,2.758,0,0,1-.676-1.384c-.046-.3.073-.871.319-.937s.5.265.571.7a3.316,3.316,0,0,1-.214,1.619" fill="#8dcfff"/>
        <path id="Trazado_65072" data-name="Trazado 65072" d="M42.093,125.507a3.343,3.343,0,0,1-.187-1.625c.052-.3.339-.756.584-.684s.377.511.3.946a2.709,2.709,0,0,1-.7,1.363" fill="#8dcfff"/>
        <path id="Trazado_65073" data-name="Trazado 65073" d="M40.955,124.39a2.656,2.656,0,0,1-.921,1.062c-.215.123-.652.137-.734-.109a.77.77,0,0,1,.435-.781,1.753,1.753,0,0,1,1.22-.172" fill="#8dcfff"/>
        <path id="Trazado_65074" data-name="Trazado 65074" d="M42.148,125.409a2.6,2.6,0,0,1-.913,1.087c-.214.123-.655.126-.742-.134a.778.778,0,0,1,.426-.807,1.691,1.691,0,0,1,1.229-.146" fill="#8dcfff"/>
        <path id="Trazado_65075" data-name="Trazado 65075" d="M43.569,127.182a1.855,1.855,0,0,1-.659.942.447.447,0,0,1-.6-.214.654.654,0,0,1,.287-.728,1.135,1.135,0,0,1,.976,0" fill="#8dcfff"/>
        <path id="Trazado_65076" data-name="Trazado 65076" d="M43.617,127.1a2.828,2.828,0,0,1-.256-1.271c.014-.248.183-.664.362-.646s.307.347.287.708a2.648,2.648,0,0,1-.393,1.209" fill="#8dcfff"/>
        <path id="Trazado_65077" data-name="Trazado 65077" d="M50.36,132.542a.85.85,0,0,0,.186-.273l-.118-.077.059.038-.059-.039a.786.786,0,0,1-.585.444,2.713,2.713,0,0,1-1.949-.774,22.607,22.607,0,0,1-3.969-4.393,13.536,13.536,0,0,0-3.865-3.774c-.212-.139-.4-.258-.543-.378l-.069.146c.152.124.338.246.553.387a13.374,13.374,0,0,1,3.829,3.739c3.423,4.628,5.174,5.391,6.04,5.216a.937.937,0,0,0,.49-.262" fill="#8dcfff"/>
        <path id="Trazado_65078" data-name="Trazado 65078" d="M32.3,136.347c-.632-3.312.969-5.845,6-6.638a20.577,20.577,0,0,1,14.338,3.366C44,122.151,34.212,107.122,44.851,106.944c3.318-.055,7.936,3.8,12.9,9.523-4.962-11.058-7.351-19.925-3.4-20.988,3.675-.99,9.784,8.281,16.02,20.335-3.191-9.832-4.7-18.244-2.3-21.8,1.967-2.9,4.912,1.118,7.991,8.248.538-5.839,2.177-9.193,4.848-8.122,2.512,1.007,3.789,8.018,4.3,16.3,4.023-12.2,11.532-18.99,17.695-14.308,7.24,5.5-2.693,34.706-7.926,48.524Z" fill="#aed3f2"/>
        <path id="Trazado_65079" data-name="Trazado 65079" d="M153.066,128.2c-5.2,3.009-8.633,9.108-9.624,15.966,4.539,3.659,10.293,4.441,15.494,1.432s8.634-9.107,9.625-15.965c-4.54-3.659-10.294-4.441-15.5-1.433" fill="#d9a171"/>
        <line id="Línea_183" data-name="Línea 183" x1="22.187" y2="12.837" transform="translate(144.36 130.672)" fill="none" stroke="#fff" stroke-miterlimit="10" stroke-width="0.35"/>
        <line id="Línea_184" data-name="Línea 184" x2="3.723" y2="2.301" transform="translate(161.981 133.355)" fill="none" stroke="#fff" stroke-miterlimit="10" stroke-width="0.35"/>
        <line id="Línea_185" data-name="Línea 185" x2="4.588" y2="2.836" transform="translate(158.199 135.544)" fill="none" stroke="#fff" stroke-miterlimit="10" stroke-width="0.35"/>
        <line id="Línea_186" data-name="Línea 186" x2="7.67" y2="4.742" transform="translate(154.416 137.732)" fill="none" stroke="#fff" stroke-miterlimit="10" stroke-width="0.35"/>
        <line id="Línea_187" data-name="Línea 187" x2="7.462" y2="4.614" transform="translate(150.633 139.921)" fill="none" stroke="#fff" stroke-miterlimit="10" stroke-width="0.35"/>
        <line id="Línea_188" data-name="Línea 188" x2="4.155" y2="2.569" transform="translate(146.849 142.11)" fill="none" stroke="#fff" stroke-miterlimit="10" stroke-width="0.35"/>
        <line id="Línea_189" data-name="Línea 189" y1="5.153" x2="1.207" transform="translate(162.409 127.851)" fill="none" stroke="#fff" stroke-miterlimit="10" stroke-width="0.35"/>
        <line id="Línea_190" data-name="Línea 190" y1="8.035" x2="1.882" transform="translate(158.626 127.158)" fill="none" stroke="#fff" stroke-miterlimit="10" stroke-width="0.35"/>
        <line id="Línea_191" data-name="Línea 191" y1="10.058" x2="2.356" transform="translate(154.842 127.324)" fill="none" stroke="#fff" stroke-miterlimit="10" stroke-width="0.35"/>
        <line id="Línea_192" data-name="Línea 192" y1="10.332" x2="2.42" transform="translate(151.06 129.239)" fill="none" stroke="#fff" stroke-miterlimit="10" stroke-width="0.35"/>
        <line id="Línea_193" data-name="Línea 193" y1="8.875" x2="2.079" transform="translate(147.277 132.884)" fill="none" stroke="#fff" stroke-miterlimit="10" stroke-width="0.35"/>
        <path id="Trazado_65080" data-name="Trazado 65080" d="M136.267,126.141a30.545,30.545,0,0,0-1.984,22.322c5.888-.006,11.646-3.638,15.206-10.416a30.548,30.548,0,0,0,1.984-22.323c-5.888.007-11.646,3.639-15.206,10.417" fill="#d9a171"/>
        <line id="Línea_194" data-name="Línea 194" x1="15.184" y2="28.915" transform="translate(134.856 118.235)" fill="none" stroke="#fff" stroke-miterlimit="10" stroke-width="0.387"/>
        <line id="Línea_195" data-name="Línea 195" y1="0.662" x2="4.52" transform="translate(146.934 123.561)" fill="none" stroke="#fff" stroke-miterlimit="10" stroke-width="0.387"/>
        <line id="Línea_196" data-name="Línea 196" y1="0.815" x2="5.571" transform="translate(144.345 128.338)" fill="none" stroke="#fff" stroke-miterlimit="10" stroke-width="0.387"/>
        <line id="Línea_197" data-name="Línea 197" y1="1.364" x2="9.313" transform="translate(141.757 132.72)" fill="none" stroke="#fff" stroke-miterlimit="10" stroke-width="0.387"/>
        <line id="Línea_198" data-name="Línea 198" y1="1.325" x2="9.061" transform="translate(139.167 137.689)" fill="none" stroke="#fff" stroke-miterlimit="10" stroke-width="0.387"/>
        <line id="Línea_199" data-name="Línea 199" y1="0.738" x2="5.045" transform="translate(136.579 143.207)" fill="none" stroke="#fff" stroke-miterlimit="10" stroke-width="0.387"/>
        <line id="Línea_200" data-name="Línea 200" x1="1.146" y1="5.763" transform="translate(146.034 117.805)" fill="none" stroke="#fff" stroke-miterlimit="10" stroke-width="0.387"/>
        <line id="Línea_201" data-name="Línea 201" x1="1.787" y1="8.985" transform="translate(142.805 119.513)" fill="none" stroke="#fff" stroke-miterlimit="10" stroke-width="0.387"/>
        <line id="Línea_202" data-name="Línea 202" x1="2.236" y1="11.249" transform="translate(139.767 122.181)" fill="none" stroke="#fff" stroke-miterlimit="10" stroke-width="0.387"/>
        <line id="Línea_203" data-name="Línea 203" x1="2.298" y1="11.554" transform="translate(137.117 126.806)" fill="none" stroke="#fff" stroke-miterlimit="10" stroke-width="0.387"/>
        <line id="Línea_204" data-name="Línea 204" x1="1.973" y1="9.925" transform="translate(134.852 133.365)" fill="none" stroke="#fff" stroke-miterlimit="10" stroke-width="0.387"/>
        <path id="Trazado_65081" data-name="Trazado 65081" d="M138.772,140.213c-11.311-.158-46.36-.844-67.63-2.847C31.7,133.652-.513,139.787,20.648,146.8c5.913,1.959-11.142,13.7,30.607,16.355,36.649,2.332,74.009-2.647,92.09-4.784s26.426-5.934,30.3-7.645c3.407-1.505,4.665-9.956-34.873-10.51" fill="#f2e9e4"/>
        <path id="Trazado_65082" data-name="Trazado 65082" d="M146.75,106.1a6.006,6.006,0,0,1,.107-2.838c.163-.489.754-1.153,1.142-.933s.5,1.019.26,1.729a4.2,4.2,0,0,1-1.509,2.042" fill="#8dcfff"/>
        <path id="Trazado_65083" data-name="Trazado 65083" d="M146.132,108.411a3.465,3.465,0,0,1,1.447-1.57c.333-.145,1-.017,1.122.45a1.155,1.155,0,0,1-.691,1.241,2.361,2.361,0,0,1-1.878-.121" fill="#8dcfff"/>
        <path id="Trazado_65084" data-name="Trazado 65084" d="M145.024,110.879a2.559,2.559,0,0,1,1.811-.659,1.137,1.137,0,0,1,.884,1.01.879.879,0,0,1-1.018.763,2.919,2.919,0,0,1-1.677-1.114" fill="#8dcfff"/>
        <path id="Trazado_65085" data-name="Trazado 65085" d="M146.085,108.458a3.779,3.779,0,0,1-1.374-1.6c-.179-.4-.274-1.243-.011-1.448s.706.129.967.7a5.609,5.609,0,0,1,.418,2.345" fill="#8dcfff"/>
        <path id="Trazado_65086" data-name="Trazado 65086" d="M145.146,110.969a3.59,3.59,0,0,1-1.4-1.579c-.18-.395-.263-1.253.016-1.47s.734.108.994.683a5.437,5.437,0,0,1,.391,2.366" fill="#8dcfff"/>
        <path id="Trazado_65087" data-name="Trazado 65087" d="M143.391,114.06a2.23,2.23,0,0,1-1.19-1.11c-.137-.3-.146-1,.132-1.217s.681-.01.88.428a3.674,3.674,0,0,1,.178,1.9" fill="#8dcfff"/>
        <path id="Trazado_65088" data-name="Trazado 65088" d="M143.493,114.138a2.367,2.367,0,0,1,1.4-.73c.285-.02.787.233.8.586a.752.752,0,0,1-.751.689,2.228,2.228,0,0,1-1.444-.545" fill="#8dcfff"/>
        <path id="Trazado_65089" data-name="Trazado 65089" d="M138.548,128.264a1.011,1.011,0,0,0,.344.312l.065-.243-.033.121.034-.12c-.018-.008-.433-.218-.611-1.06a8.115,8.115,0,0,1,.522-3.937,42.479,42.479,0,0,1,4.263-8.532,28.056,28.056,0,0,0,3.579-8.216c.118-.439.222-.818.33-1.127l-.179-.108c-.113.32-.216.7-.337,1.148a27.758,27.758,0,0,1-3.546,8.141c-4.629,7.511-5.176,11.06-4.819,12.715a2.253,2.253,0,0,0,.388.906" fill="#8dcfff"/>
        <path id="Trazado_65090" data-name="Trazado 65090" d="M45.288,150.189c.676-1.362-.165-2.52-3.378-3.135a20.192,20.192,0,0,0-9.615.617c6.5-4.125,14.082-9.919,7.161-10.589-2.158-.208-5.476,1.159-9.167,3.3,4.117-4.388,6.382-7.995,3.888-8.665-2.316-.623-7.038,2.947-12.065,7.683,2.864-3.969,4.523-7.434,3.236-9.068-1.05-1.334-3.29.2-5.866,3.034.115-2.494-.685-4-2.512-3.7-1.718.284-3.109,3.17-4.1,6.634-1.648-5.371-6-8.656-10.392-7.026-5.158,1.916-1.015,14.794,1.293,20.916Z" fill="#acd4f8"/>
        <path id="Trazado_65091" data-name="Trazado 65091" d="M18.646,144.529l-.235-.092c1.674-7.344,4.692-18.075,9.556-27.492a43.5,43.5,0,0,1,5.163-8.191l.16.243a43.4,43.4,0,0,0-5.127,8.142c-2.673,5.178-6.494,14.133-9.517,27.39" fill="#acd4f8"/>
        <path id="Trazado_65092" data-name="Trazado 65092" d="M17.4,141.68l-.245-.026a92.009,92.009,0,0,1,6.9-28.571l.211.164A91.57,91.57,0,0,0,17.4,141.68" fill="#acd4f8"/>
        <path id="Trazado_65093" data-name="Trazado 65093" d="M21.8,143.12l-.245-.028c.478-7.349,2.855-12,4.765-14.617a14.445,14.445,0,0,1,4.084-3.954l.094.3a14.19,14.19,0,0,0-4.009,3.891c-1.879,2.573-4.218,7.162-4.689,14.411" fill="#acd4f8"/>
        <path id="Trazado_65094" data-name="Trazado 65094" d="M34.3,106.841c1.607,1.481,2.539,3.374,2.08,4.227s-2.133.343-3.74-1.139-2.539-3.374-2.08-4.227,2.133-.342,3.74,1.139" fill="#acd4f8"/>
        <path id="Trazado_65095" data-name="Trazado 65095" d="M33.736,107.895c.51.47.806,1.071.661,1.342s-.678.109-1.188-.361-.806-1.072-.661-1.343.678-.109,1.188.362" fill="#0063cb"/>
        <path id="Trazado_65096" data-name="Trazado 65096" d="M24.611,112.318c.669.617,1.057,1.4.866,1.76s-.888.143-1.557-.473-1.057-1.406-.866-1.761.888-.143,1.557.474" fill="#acd4f8"/>
        <path id="Trazado_65097" data-name="Trazado 65097" d="M24.375,112.756c.213.2.336.446.275.559s-.281.045-.494-.15-.336-.446-.275-.559.282-.046.494.15" fill="#0063cb"/>
        <path id="Trazado_65098" data-name="Trazado 65098" d="M31.05,124.022c.674,1.063.955,2.214.626,2.572s-1.142-.214-1.816-1.276-.955-2.214-.626-2.573,1.142.214,1.816,1.277" fill="#acd4f8"/>
        <path id="Trazado_65099" data-name="Trazado 65099" d="M30.644,124.464c.213.337.3.7.2.817s-.362-.068-.577-.4-.3-.7-.2-.817.363.068.577.4" fill="#0063cb"/>
        <path id="Trazado_65100" data-name="Trazado 65100" d="M25.98,141.053c.027-.029.056-.056.084-.082l-.044-.021c-.386-.2-.635-.572-.555-.836s.456-.317.84-.119a1.1,1.1,0,0,1,.1.055c0-.02-.006-.04-.008-.061-.062-.536.061-1.005.275-1.048s.437.359.5.9c.006.046.009.091.012.136.012-.013.024-.028.036-.04.323-.338.695-.433.831-.211s-.018.675-.342,1.012c-.028.03-.056.056-.084.081.014.008.029.014.044.021.385.2.634.572.555.836s-.455.318-.84.12a.83.83,0,0,1-.1-.056c0,.021.006.041.008.061.062.537-.062,1-.275,1.048s-.438-.358-.5-.894c-.006-.046-.009-.091-.011-.136l-.036.04c-.323.338-.695.433-.83.212s.018-.675.341-1.013m.923.365a.528.528,0,0,0,.34-.6c-.034-.291-.241-.49-.462-.446a.53.53,0,0,0-.34.605c.034.289.24.489.462.445" fill="#fff"/>
        <path id="Trazado_65101" data-name="Trazado 65101" d="M111.539,49.575l12.859-14.7,39.226,34.311L129.313,108.4,114.082,95.083a2.776,2.776,0,0,1-.136-.324c0-.013-.008-.027-.012-.045a2.4,2.4,0,0,1-.082-.324.24.24,0,0,1,0-.024,2.415,2.415,0,0,1-.022-.617c.005-.038,0-.07.005-.1.009-.068.026-.139.04-.2s.031-.15.052-.222a1.247,1.247,0,0,1,.063-.171,2.388,2.388,0,0,1,.112-.254c.026-.047.046-.09.073-.133a2.573,2.573,0,0,1,.26-.362,2.524,2.524,0,0,1,2.025-.849,8.545,8.545,0,1,0-7.852-6.869,2.544,2.544,0,0,1-.572,2.122,2.426,2.426,0,0,1-.324.3c-.04.032-.079.06-.122.089-.078.055-.158.1-.237.149-.055.03-.106.055-.161.08-.071.032-.141.06-.212.086s-.133.048-.2.064c-.033.012-.07.011-.1.02a2.314,2.314,0,0,1-.61.058.122.122,0,0,1-.027,0c-.11-.005-.221-.018-.336-.034l-.045-.009a2.993,2.993,0,0,1-.332-.087L90.089,74.1l12.862-14.708a2.513,2.513,0,0,0-2.51-3.93,8.544,8.544,0,1,1,6.862-7.848,2.515,2.515,0,0,0,4.236,1.964" fill="#6595bf"/>
        <path id="Trazado_65102" data-name="Trazado 65102" d="M68.754,98.428l-12.86,14.7L16.669,78.821,50.98,39.6,66.211,52.921a2.691,2.691,0,0,1,.136.323c0,.014.008.028.012.045a2.394,2.394,0,0,1,.082.326c0,.007,0,.015,0,.023a2.457,2.457,0,0,1,.02.617c0,.037,0,.07,0,.1-.009.067-.026.138-.041.2s-.03.151-.051.223a1.339,1.339,0,0,1-.063.17,2.207,2.207,0,0,1-.112.253c-.026.049-.046.091-.073.133a2.41,2.41,0,0,1-.26.362,2.525,2.525,0,0,1-2.025.85,8.543,8.543,0,1,0,7.853,6.869,2.54,2.54,0,0,1,.571-2.122,2.439,2.439,0,0,1,.324-.3c.04-.031.079-.059.122-.088.078-.054.158-.1.237-.15.055-.029.106-.055.161-.08.071-.032.141-.06.212-.086s.133-.047.2-.064c.032-.011.07-.01.1-.02a2.306,2.306,0,0,1,.61-.057.122.122,0,0,1,.027,0,3.291,3.291,0,0,1,.336.033.134.134,0,0,0,.045.009,3.394,3.394,0,0,1,.333.088L90.2,73.907,77.342,88.616a2.513,2.513,0,0,0,2.51,3.929,8.543,8.543,0,1,1-6.862,7.847,2.516,2.516,0,0,0-4.236-1.964" fill="#e9f6ff"/>
        <path id="Trazado_65103" data-name="Trazado 65103" d="M49.914,104.83l12.893,14.6-1.817,4.3a27.811,27.811,0,0,1-8.912-6.174c-4.056-4.267-2.164-12.725-2.164-12.725" fill="#5e6178"/>
        <path id="Trazado_65104" data-name="Trazado 65104" d="M49.6,111.575a9.582,9.582,0,0,0,2.742,3.388,30.626,30.626,0,0,0,10.286,4.885l.177-.418-12.893-14.6a22.585,22.585,0,0,0-.312,6.745" fill="#5e6178"/>
        <path id="Trazado_65105" data-name="Trazado 65105" d="M63.173,141.938c-1.208-3.664-3.654-10.012-4.013-12.419a34.365,34.365,0,0,1-.354-7.661l4.257-2.12L65.852,141.6Z" fill="#5e6178"/>
        <path id="Trazado_65106" data-name="Trazado 65106" d="M48.569,101.22l4.805,8.546L50.22,127.34l-4.507-2.929a52.22,52.22,0,0,0-1.577-9.689c-1.8-7.21,4.433-13.5,4.433-13.5" fill="#5e6178"/>
        <path id="Trazado_65107" data-name="Trazado 65107" d="M44.069,141.431a92.668,92.668,0,0,1,.818-12.739c.513-4.48,1.728-5.859,1.728-5.859l4.281.45L47.421,141.8Z" fill="#5e6178"/>
        <path id="Trazado_65108" data-name="Trazado 65108" d="M45.234,140.63l-.622,1.766-.212,1.578.449.61.4.3.039.293,1.163,1.581a2.866,2.866,0,0,0,1.672.729c.262.03.166-.751.119-.881a12.9,12.9,0,0,0-.789-1.643l-.658-1.914-.681-2.344Z" fill="#194866"/>
        <path id="Trazado_65109" data-name="Trazado 65109" d="M63.909,141.007l-.322.739-.139.812.139,1.263.691.043.508-.154.358.207a27.045,27.045,0,0,0,2.7.181c1.21-.063,1.861-.244,2.078-.5.121-.141-.462-.349-.651-.362a14.281,14.281,0,0,1-2.806-.663l-.969-.923-.231-.692Z" fill="#163f59"/>
        <path id="Trazado_65110" data-name="Trazado 65110" d="M62.54,95.179s-1.729,1.726,3.406,6.947,6.11,3.866,6.11,3.866l1.6-.929,1.265-5.332-2.51-.75-.279.3a1.015,1.015,0,0,1-.809-.384,48.772,48.772,0,0,1-4.407-5.129c-1.125-1.538-4.04,1.075-4.371,1.41" fill="#e5ae85"/>
        <path id="Trazado_65111" data-name="Trazado 65111" d="M74.494,100.012s5.265.264,5.779-5.113c.153-1.6.543-.016.8,1.538s-.777,5.817-3.623,7.362-4.05,1.889-5.125,1.108,2.165-4.895,2.165-4.895" fill="#e9d6b8"/>
        <path id="Trazado_65112" data-name="Trazado 65112" d="M70.413,100.658l.707-1.176.311-.453a1.084,1.084,0,0,0,.7.253l-.7.769-.646,1.064-.383,1.663Z" fill="#9fc400"/>
        <path id="Trazado_65113" data-name="Trazado 65113" d="M80.69,96.693s-1.379-.684-1.472-1.114-.325-2.027-.325-2.027l-.021-.414s.443-.281.587.794.361.509.361.509l.24-1.027.392-1.24.1-.57s.034-.328.11-.4c.215-.206.292.034.292.034l-.218,2.251L81.5,91.46s.142-.244.287-.222.109.108.109.108l-.327,2.492.512-1s.143-.236.287-.222.2.015.2.015l-1.44,4.132Z" fill="#e9d6b8"/>
        <path id="Trazado_65114" data-name="Trazado 65114" d="M81.146,93.493l.621-1.4a1.237,1.237,0,0,1,.248-.45.2.2,0,0,1,.289-.005l-.73,2.2Z" fill="#e9d6b8"/>
        <path id="Trazado_65115" data-name="Trazado 65115" d="M125.455,105.409l-10.839.064a1.5,1.5,0,0,0,.591,1.13,24.081,24.081,0,0,0,6.927,1.946,28.41,28.41,0,0,0,5.013-.117Z" fill="#e9d6b8"/>
        <path id="Trazado_65116" data-name="Trazado 65116" d="M115.948,106.93l-1.325.057a4.613,4.613,0,0,1-1.37-.133,1.323,1.323,0,0,1-.944-1.55,1.969,1.969,0,0,1,.305-1.061,1.232,1.232,0,0,1,1.348.336c.445.648,2.19,1.375,2.055,1.667a1.373,1.373,0,0,0-.069.684" fill="#e9d6b8"/>
        <path id="Trazado_65117" data-name="Trazado 65117" d="M112.994,104.1l-1.475-.113-1.375-.042.1.292.972.167,1.344.981.144-.429Z" fill="#e9d6b8"/>
        <path id="Trazado_65118" data-name="Trazado 65118" d="M111.235,104.937l-1.178.317.019.308,1.217-.1,1.26.331.151-.83Z" fill="#e9d6b8"/>
        <path id="Trazado_65119" data-name="Trazado 65119" d="M110.257,106.059l.923-.313.583-.293.707.129.094.694-.759-.164-1.283.207Z" fill="#e9d6b8"/>
        <path id="Trazado_65120" data-name="Trazado 65120" d="M110.763,106.895l1.545-.835.495.126.091.472-.831.117-1.021.242Z" fill="#e9d6b8"/>
        <path id="Trazado_65121" data-name="Trazado 65121" d="M116.68,106.223a1.792,1.792,0,0,1-1.259-.729s-1.228-1.693-1.684-1.737a3.574,3.574,0,0,1-1.2-.567s-.415-.067.074.625a3.492,3.492,0,0,0,.731.743,5.193,5.193,0,0,0,.638,1.456,5.789,5.789,0,0,0,2.482.544s.318-.332.218-.335" fill="#e9d6b8"/>
        <path id="Trazado_65122" data-name="Trazado 65122" d="M129.713,104.508l-7.761.922-.31,3.044,4.675,1.377Z" fill="#954f3f"/>
        <path id="Trazado_65123" data-name="Trazado 65123" d="M128.127,105.659s4.2-3.221,5.633-4.074a35.256,35.256,0,0,1,3.849-1.634,4.565,4.565,0,0,1,.763,2.35,8.142,8.142,0,0,1-3,4.522l-9.054,3.027-.566-1.918Z" fill="#895a4c"/>
        <path id="Trazado_65124" data-name="Trazado 65124" d="M117.724,95.394l14.7,12.859-34.31,39.225L58.9,113.167l13.32-15.231a2.771,2.771,0,0,1,.324-.135l.046-.013a2.374,2.374,0,0,1,.325-.081.1.1,0,0,1,.023,0,2.408,2.408,0,0,1,.616-.021c.038,0,.071,0,.1,0,.068.008.139.026.2.04s.15.031.222.052a1.257,1.257,0,0,1,.172.062,2.6,2.6,0,0,1,.253.113c.047.025.09.045.133.072a2.609,2.609,0,0,1,.361.26,2.523,2.523,0,0,1,.85,2.025,8.544,8.544,0,1,0,6.869-7.852,2.538,2.538,0,0,1-2.122-.572,2.367,2.367,0,0,1-.3-.324c-.032-.04-.06-.078-.089-.122-.055-.078-.1-.158-.15-.237-.029-.055-.055-.106-.079-.16-.033-.071-.06-.141-.086-.212s-.048-.134-.064-.2a.87.87,0,0,1-.02-.1,2.265,2.265,0,0,1-.058-.61.075.075,0,0,1,0-.026c0-.111.018-.222.034-.336a.34.34,0,0,0,.009-.046,2.7,2.7,0,0,1,.088-.332L93.2,73.943,107.91,86.805a2.512,2.512,0,0,0,3.929-2.51,8.545,8.545,0,1,1,7.849,6.863,2.515,2.515,0,0,0-1.964,4.236" fill="#5e6178"/>
        <path id="Trazado_65125" data-name="Trazado 65125" d="M138.072,100.053l-2.136-2.2-2.847.6,1.221,2.374,1.456,1.738Z" fill="#e9d6b8"/>
        <path id="Trazado_65126" data-name="Trazado 65126" d="M130.174,95.86a1.1,1.1,0,0,0,1.335.793l4.024-1.018a1.1,1.1,0,0,0-.541-2.131l-4.022,1.02a1.1,1.1,0,0,0-.8,1.336" fill="#163f59"/>
        <path id="Trazado_65127" data-name="Trazado 65127" d="M131.381,97.517a2.029,2.029,0,0,0,2.465,1.47l2.1-.533a2.03,2.03,0,1,0-1-3.935l-2.1.534a2.025,2.025,0,0,0-1.467,2.464" fill="#163f59"/>
        <path id="Trazado_65128" data-name="Trazado 65128" d="M130.6,101.07l-1.56-6.152c-.247-.982.795-.2,1.777-.451l.946-.238a1.827,1.827,0,0,1,2.224,1.323l1.109,4.379Z" fill="#e9d6b8"/>
        <path id="Trazado_65129" data-name="Trazado 65129" d="M133.549,97.124a.8.8,0,1,0,1.56-.4.8.8,0,1,0-1.56.4" fill="#e9d6b8"/>
        <path id="Trazado_65130" data-name="Trazado 65130" d="M130.625,99.012a.459.459,0,0,1-.325.561l-.363.094a.457.457,0,0,1-.551-.342s.206-2.536.447-2.6a.757.757,0,0,1,.313.4Z" fill="#e9d6b8"/>
        <path id="Trazado_65131" data-name="Trazado 65131" d="M133,100.1c1.776-.449,1.823-1.039,1.716-1.675a13.375,13.375,0,0,1,1,1.94l.141.559a2.343,2.343,0,0,1-1.989,2.589l-2.485.63-.7-2.76-.164-.653Z" fill="#163f59"/>
        <path id="Trazado_65132" data-name="Trazado 65132" d="M130.223,99.59l1.419-.359a1.221,1.221,0,0,1,1.484.885,1.136,1.136,0,0,1,.033.305l-2.561.649Z" fill="#163f59"/>
        <path id="Trazado_65133" data-name="Trazado 65133" d="M132.373,100.368l.1.394a.2.2,0,0,1-.148.248l-1.15.29a.2.2,0,0,1-.248-.146l-.1-.393Z" fill="#e9d6b8"/>
        <path id="Trazado_65134" data-name="Trazado 65134" d="M129.375,93.667l3.64-.921a.729.729,0,0,1,.888.53l.362,1.42-4.35,1.1Z" fill="#163f59"/>
        <path id="Trazado_65135" data-name="Trazado 65135" d="M127.387,95.3a1.108,1.108,0,0,0,1.345.8l2.462-.626a1.106,1.106,0,1,0-.543-2.144l-2.463.624a1.109,1.109,0,0,0-.8,1.345" fill="#163f59"/>
        <rect id="Rectángulo_25714" data-name="Rectángulo 25714" width="1.015" height="2.673" transform="translate(132.727 94.539) rotate(-14.2)" fill="#163f59"/>
        <rect id="Rectángulo_25715" data-name="Rectángulo 25715" width="2.987" height="3.145" transform="translate(130.227 93.988) rotate(-14.208)" fill="#163f59"/>
        <path id="Trazado_65136" data-name="Trazado 65136" d="M133.227,96.515a1.512,1.512,0,0,0-1.835-1.094l-.756.192a1.333,1.333,0,0,0-.873,1.779,1.512,1.512,0,0,0,1.837,1.1l.535-.134a1.51,1.51,0,0,0,1.092-1.838" fill="#e9d6b8"/>
        <path id="Trazado_65137" data-name="Trazado 65137" d="M148.029,152.145a12.527,12.527,0,0,0,1.515.514,3.267,3.267,0,0,0,1.4-.283,1.953,1.953,0,0,0,1-.7,19.991,19.991,0,0,0,.78-2.169l.3.224.586-1.129s-.561-1.591-1.049-1.686c-.652-.125-2.145,1.576-2.145,1.576l-.324,2.06-.8,1.018s-.725.107-.921.161-.337.412-.337.412" fill="#081832"/>
        <path id="Trazado_65138" data-name="Trazado 65138" d="M126.22,150.572l-1.252,1.98-1.749-.94.143-.56-.842-.372-1.2-.311-3.291-3.1s.154-.375.343-.394c.544-.059,1.957,1.1,1.957,1.1l2.833.667Z" fill="#081832"/>
        <path id="Trazado_65139" data-name="Trazado 65139" d="M139.107,128.818l1.093,5.934,9.623,14.73,3.175-2.4L145,132.574l.454-11.676Z" fill="#5e6178"/>
        <path id="Trazado_65140" data-name="Trazado 65140" d="M141.093,114.747s-8.268,18.163-10.714,22.345-8.539,10.936-8.539,10.936l4.58,2.865s10.4-13.709,12.923-18.623a56.613,56.613,0,0,1,7.08-9.984,7.273,7.273,0,0,0,3.524-7.577c-.75-5.421-8.854.038-8.854.038" fill="#5e6178"/>
        <path id="Trazado_65141" data-name="Trazado 65141" d="M133.671,104.214l5.552,14.031,11.457-2.6a66.422,66.422,0,0,0-2.7-6.435,39.705,39.705,0,0,0-8.848-9.982s-2.851-2.039-5.465,4.981" fill="#a66d58"/>
        <path id="Trazado_65142" data-name="Trazado 65142" d="M136.705,98.476l.942.59-3.23,3.578-.275-1.134Z" fill="#954f3f"/>
        <path id="Trazado_65143" data-name="Trazado 65143" d="M132.167,110.257l-8.988,6.06a1.49,1.49,0,0,0,1.118.61,24.086,24.086,0,0,0,6.846-2.213,28.733,28.733,0,0,0,4.107-2.877Z" fill="#e9d6b8"/>
        <path id="Trazado_65144" data-name="Trazado 65144" d="M125.055,116.125l-.724.9a3.445,3.445,0,0,1-.882.8c-.559.349-1.135.074-1.626-.484a2.27,2.27,0,0,1-.565-.947s.3-.8,1.013-.638,2.221-.449,2.346-.155a1.565,1.565,0,0,0,.438.529" fill="#e9d6b8"/>
        <path id="Trazado_65145" data-name="Trazado 65145" d="M121.38,116.043l-.927.879-.822.863.261.14.675-.511,1.461-.181-.216-.4Z" fill="#e9d6b8"/>
        <path id="Trazado_65146" data-name="Trazado 65146" d="M120.949,117.775l-.456.989.224.206.629-.864.957-.583-.491-.687Z" fill="#e9d6b8"/>
        <path id="Trazado_65147" data-name="Trazado 65147" d="M121.17,119.206l.312-.823.131-.585.5-.369.537.429-.55.377-.595.981Z" fill="#e9d6b8"/>
        <path id="Trazado_65148" data-name="Trazado 65148" d="M122.044,119.468l.306-1.594.373-.232.383.273-.4.623-.418.834Z" fill="#e9d6b8"/>
        <path id="Trazado_65149" data-name="Trazado 65149" d="M124.984,115.148a1.42,1.42,0,0,1-1.232.3s-1.892-.4-2.185-.137a2.707,2.707,0,0,1-1.086.38s-.285.224.478.393a2.968,2.968,0,0,0,.941.052,5.153,5.153,0,0,0,1.381.613c.68-.023,1.812-1.226,1.812-1.226s-.049-.441-.109-.379" fill="#e9d6b8"/>
        <path id="Trazado_65150" data-name="Trazado 65150" d="M134.363,107.813l-5.95,5.07,1.43,2.7,4.653-1.442Z" fill="#895a4c"/>
        <path id="Trazado_65151" data-name="Trazado 65151" d="M133.682,109.653s1.713-5.011,2.432-6.513a35.233,35.233,0,0,1,2.3-3.493s1.555.686,1.937,1.532a8.16,8.16,0,0,1,.008,5.43l-5.861,7.536-1.534-1.284Z" fill="#895a4c"/>
        <path id="Trazado_65152" data-name="Trazado 65152" d="M54.153,109.966l-9.567-2.68s5.1-9.5,7.21-12.392c1.725-2.362,7.07-7.827,10.665-4.806s4.942,4,4.942,4,.568,4.148-13.25,15.882" fill="#d9a171"/>
        <path id="Trazado_65153" data-name="Trazado 65153" d="M69.757,85.221s-1.666,6.3-3.3,6.507a3.5,3.5,0,0,0-1.745-.044c-.644.254-.847.734-1.089.864a1.31,1.31,0,0,1-.378.195c-.836.191-1.423-2.012-1.42-2.355,0-.237-.377-.476-.112-.676a3.405,3.405,0,0,0,1.236-1.432c.388-1.372-.133-4.372,2.749-5,.843-.184,4.041,1.489,4.061,1.942" fill="#e9d6b8"/>
        <path id="Trazado_65154" data-name="Trazado 65154" d="M63.851,92.247l-.929,1.126-1.65-3.741.636-.22Z" fill="#e5ae85"/>
        <path id="Trazado_65155" data-name="Trazado 65155" d="M66.5,91.642s-.15-.175-.406-.529a3.673,3.673,0,0,0-.5-.585,5.544,5.544,0,0,1-1.112-.9,14.788,14.788,0,0,1-1.126-1.693s.1.744.13,1.042A1.838,1.838,0,0,0,64.1,90.15c1.184,1.114,1.053,1.183,1.243,1.262a7.631,7.631,0,0,1,1.164.23" fill="#dbc9ad"/>
        <path id="Trazado_65156" data-name="Trazado 65156" d="M68.753,87.681a13.279,13.279,0,0,0-.011,1.437c.007.208.022.473-.034.526a2.1,2.1,0,0,1-.419.2c-.106.037-.526.2-.406-.287a14.412,14.412,0,0,1,.87-1.877" fill="#e9d6b8"/>
        <path id="Trazado_65157" data-name="Trazado 65157" d="M65.695,82.981c1.458-.463,3.638.624,4.631,2.681a1.138,1.138,0,0,1-.844.43,2.983,2.983,0,0,0-1.993-1.882c-1.6-.4-.823.741-1.323.981-.419.2-.8.364-.8.364l-.553.77-.42-.108s.129-1-.177-.8c-.372.236-.52.966-.55,1.068s-.078.268-.137.276a10.984,10.984,0,0,1-.582,1.429c-.19-.068-.326-.417-.228-1.027.221-1.37,1.2-3.613,2.976-4.178" fill="#163f59"/>
        <path id="Trazado_65158" data-name="Trazado 65158" d="M64.32,85.387a.669.669,0,0,0-.523,1.231" fill="#e9d6b8"/>
        <path id="Trazado_65159" data-name="Trazado 65159" d="M67.6,89.208a7.175,7.175,0,0,1,.864.142c.069.049.246.143.222.219s-.207.222-.646.288c-.107.016.016-.151-.44-.649" fill="#dbc9ad"/>
        <path id="Trazado_65160" data-name="Trazado 65160" d="M65.19,107.333l10.892,4.09s-.355.823-1.014.915a25.777,25.777,0,0,1-7.7-.609,30.493,30.493,0,0,1-5.007-1.979Z" fill="#e9d6b8"/>
        <path id="Trazado_65161" data-name="Trazado 65161" d="M62.52,97.16l2.76,9.31-.388.609.655.288-2.714,2.738-3.089-1.51L56.207,95.81a7.855,7.855,0,0,1,2.771-5.679c2.084-1.846,3.284,6.274,3.542,7.029" fill="#e5ae85"/>
        <path id="Trazado_65162" data-name="Trazado 65162" d="M61.419,108.487s2.408-1.071,3.642-1.674l-.17.266.656.288-.947.94-1.541,1.133-.665-.433.374-.44Z" fill="#d9a171"/>
        <path id="Trazado_65163" data-name="Trazado 65163" d="M74.2,112.394l1.314.548a4.877,4.877,0,0,0,1.429.376c.817.085,1.3-.446,1.526-1.212a2.1,2.1,0,0,0,.086-1.18,1.323,1.323,0,0,0-1.483-.161c-.688.485-2.715.57-2.688.915a1.458,1.458,0,0,1-.184.714" fill="#e9d6b8"/>
        <path id="Trazado_65164" data-name="Trazado 65164" d="M78.226,110.642l1.527.434,1.4.468-.211.257-1.039-.194-1.72.492.015-.487Z" fill="#e9d6b8"/>
        <path id="Trazado_65165" data-name="Trazado 65165" d="M79.688,112.135l1.067.758-.131.3-1.188-.557-1.393-.135.157-.892Z" fill="#e9d6b8"/>
        <path id="Trazado_65166" data-name="Trazado 65166" d="M80.254,113.63l-.811-.658-.479-.51-.761-.133-.351.664.824.116,1.216.685Z" fill="#e9d6b8"/>
        <path id="Trazado_65167" data-name="Trazado 65167" d="M79.436,114.284l-1.246-1.415-.545-.057-.267.44.793.428.937.624Z" fill="#e9d6b8"/>
        <path id="Trazado_65168" data-name="Trazado 65168" d="M73.726,111.41a1.923,1.923,0,0,0,1.539-.266s1.865-1.251,2.34-1.126a3.832,3.832,0,0,0,1.419-.125s.443.088-.306.6a3.714,3.714,0,0,1-1.013.477s-.81,1.087-1.182,1.227a6.214,6.214,0,0,1-2.7-.37s-.2-.453-.1-.42" fill="#e9d6b8"/>
        <path id="Trazado_65169" data-name="Trazado 65169" d="M64.33,91.908l.175-.126-.119.774-.592,1.014-.055-1.381Z" fill="#e5ae85"/>
        <path id="Trazado_65170" data-name="Trazado 65170" d="M65.615,52.084l-14.7-12.859L85.223,0l39.221,34.311-13.32,15.231a2.607,2.607,0,0,1-.324.135l-.046.013a2.374,2.374,0,0,1-.325.081.189.189,0,0,1-.023.005,2.414,2.414,0,0,1-.617.021c-.038-.005-.07,0-.1-.005-.068-.008-.139-.026-.2-.04a2.243,2.243,0,0,1-.222-.052,1.177,1.177,0,0,1-.172-.062,2.381,2.381,0,0,1-.253-.113c-.047-.025-.09-.045-.132-.072a2.6,2.6,0,0,1-.363-.26,2.525,2.525,0,0,1-.849-2.025,8.544,8.544,0,1,0-6.869,7.852,2.54,2.54,0,0,1,2.122.571,2.433,2.433,0,0,1,.3.325c.032.04.06.078.089.122a2.744,2.744,0,0,1,.149.237c.029.055.056.1.08.161s.061.14.086.211.048.134.064.2a.886.886,0,0,1,.02.1,2.306,2.306,0,0,1,.058.61.113.113,0,0,1,0,.026,3.271,3.271,0,0,1-.034.336.34.34,0,0,0-.009.046,2.892,2.892,0,0,1-.087.332L90.138,73.535,75.429,60.673a2.513,2.513,0,0,0-3.93,2.51,8.543,8.543,0,1,1-7.848-6.863,2.515,2.515,0,0,0,1.964-4.236" fill="#aed3f2"/>
      </g>
    </g>
  </g>
</svg>
