<svg id="Grupo_24954" data-name="Grupo 24954" xmlns="http://www.w3.org/2000/svg" xmlns:xlink="http://www.w3.org/1999/xlink" width="121.478" height="106.58" viewBox="0 0 121.478 106.58">
  <defs>
    <clipPath id="clip-path">
      <rect id="Rectángulo_25628" data-name="Rectángulo 25628" width="121.478" height="106.58" fill="none"/>
    </clipPath>
  </defs>
  <g id="Grupo_24953" data-name="Grupo 24953" clip-path="url(#clip-path)">
    <path id="Trazado_64741" data-name="Trazado 64741" d="M58.873,89.083l-2.055-7.266A23.37,23.37,0,0,0,44.165,66.98l-5.1-2.365a11.4,11.4,0,0,1-6.173-7.235l-2.469-8.706.195-1.465a7.5,7.5,0,0,0-3.486-7.365l-.125-.077" transform="translate(-3.011 -4.433)" fill="none" stroke="#344154" stroke-linecap="round" stroke-linejoin="round" stroke-width="3"/>
    <path id="Trazado_64742" data-name="Trazado 64742" d="M30.925,77.452q-.546.076-1.073.121a17.508,17.508,0,0,1-15.21-6.8C7.181,61.216,1.5,67.181,1.5,67.181A122.073,122.073,0,0,1,11.849,81.849a22.122,22.122,0,0,0,13.66,10.6q.538.135,1.1.251a12.868,12.868,0,0,1,8.763,6.626" transform="translate(-0.167 -7.285)" fill="none" stroke="#344154" stroke-linecap="round" stroke-linejoin="round" stroke-width="3"/>
    <path id="Trazado_64743" data-name="Trazado 64743" d="M7.449,61.1,4.909,49.483l7.46-22.9s4.28,1.072,3.176,7.606l-3.385,14.9,2.31,9.416" transform="translate(-0.547 -2.964)" fill="none" stroke="#344154" stroke-linecap="round" stroke-linejoin="round" stroke-width="3"/>
    <path id="Trazado_64744" data-name="Trazado 64744" d="M16.34,28.522l2-6.183s5.539,2.036,3.67,9.416l-3.1,16.175,2.475,8.749" transform="translate(-1.822 -2.49)" fill="none" stroke="#344154" stroke-linecap="round" stroke-linejoin="round" stroke-width="3"/>
    <path id="Trazado_64745" data-name="Trazado 64745" d="M23.147,29.276l.282.206a8.408,8.408,0,0,1,3.295,8.329l-1.794,9.58,2.56,8.91" transform="translate(-2.581 -3.264)" fill="none" stroke="#344154" stroke-linecap="round" stroke-linejoin="round" stroke-width="3"/>
    <path id="Trazado_64746" data-name="Trazado 64746" d="M57.234,110.5,39.79,115.868l-4.7-11.719,24.68-8.883v5.941" transform="translate(-3.913 -10.621)" fill="none" stroke="#344154" stroke-linecap="round" stroke-linejoin="round" stroke-width="3"/>
    <line id="Línea_160" data-name="Línea 160" y1="8.007" x2="22.651" transform="translate(33.212 90.586)" fill="none" stroke="#344154" stroke-linecap="round" stroke-linejoin="round" stroke-width="3"/>
    <path id="Trazado_64747" data-name="Trazado 64747" d="M73.849,89.083,75.9,81.817A23.37,23.37,0,0,1,88.557,66.98l5.1-2.365a11.4,11.4,0,0,0,6.173-7.235l2.469-8.706-.195-1.465a7.5,7.5,0,0,1,3.486-7.365l.125-.077" transform="translate(-8.233 -4.433)" fill="none" stroke="#344154" stroke-linecap="round" stroke-linejoin="round" stroke-width="3"/>
    <path id="Trazado_64748" data-name="Trazado 64748" d="M101.546,77.452q.546.076,1.073.121a17.508,17.508,0,0,0,15.21-6.8c7.46-9.554,13.141-3.589,13.141-3.589a122.075,122.075,0,0,0-10.349,14.668,22.122,22.122,0,0,1-13.66,10.6q-.538.135-1.1.251A12.868,12.868,0,0,0,97.1,99.326" transform="translate(-10.825 -7.285)" fill="none" stroke="#344154" stroke-linecap="round" stroke-linejoin="round" stroke-width="3"/>
    <path id="Trazado_64749" data-name="Trazado 64749" d="M127.914,61.1l2.54-11.613-7.46-22.9s-4.28,1.072-3.176,7.606l3.385,14.9-2.31,9.416" transform="translate(-13.338 -2.964)" fill="none" stroke="#344154" stroke-linecap="round" stroke-linejoin="round" stroke-width="3"/>
    <path id="Trazado_64750" data-name="Trazado 64750" d="M119.621,28.522l-2-6.183s-5.539,2.036-3.67,9.416l3.1,16.175-2.475,8.749" transform="translate(-12.661 -2.49)" fill="none" stroke="#344154" stroke-linecap="round" stroke-linejoin="round" stroke-width="3"/>
    <path id="Trazado_64751" data-name="Trazado 64751" d="M113.029,29.276l-.282.206a8.408,8.408,0,0,0-3.295,8.329l1.794,9.58-2.56,8.91" transform="translate(-12.117 -3.264)" fill="none" stroke="#344154" stroke-linecap="round" stroke-linejoin="round" stroke-width="3"/>
    <path id="Trazado_64752" data-name="Trazado 64752" d="M76.391,110.5l17.443,5.368,4.7-11.719L73.85,95.266v5.941" transform="translate(-8.233 -10.621)" fill="none" stroke="#344154" stroke-linecap="round" stroke-linejoin="round" stroke-width="3"/>
    <line id="Línea_161" data-name="Línea 161" x1="22.651" y1="8.007" transform="translate(65.616 90.586)" fill="none" stroke="#344154" stroke-linecap="round" stroke-linejoin="round" stroke-width="3"/>
    <path id="Trazado_64753" data-name="Trazado 64753" d="M65.637,0A26.012,26.012,0,1,0,91.649,26.012,26.012,26.012,0,0,0,65.637,0m0,45.726A19.714,19.714,0,1,1,85.352,26.012,19.714,19.714,0,0,1,65.637,45.726" transform="translate(-4.418)" fill="#56bcc7"/>
    <path id="Trazado_64754" data-name="Trazado 64754" d="M62.9,33.25a5.334,5.334,0,1,0,10.667,0c0-2.945-2.187-4.307-5.334-5.333C65.431,27,62.9,25.529,62.9,22.584a5.334,5.334,0,1,1,10.667,0" transform="translate(-7.012 -1.923)" fill="none" stroke="#344154" stroke-linecap="round" stroke-linejoin="round" stroke-width="3"/>
    <line id="Línea_162" data-name="Línea 162" y2="3.009" transform="translate(61.219 12.353)" fill="none" stroke="#344154" stroke-linecap="round" stroke-linejoin="round" stroke-width="3"/>
    <line id="Línea_163" data-name="Línea 163" y2="3.009" transform="translate(61.219 36.661)" fill="none" stroke="#344154" stroke-linecap="round" stroke-linejoin="round" stroke-width="3"/>
  </g>
</svg>
