<svg id="Grupo_24960" data-name="Grupo 24960" xmlns="http://www.w3.org/2000/svg" xmlns:xlink="http://www.w3.org/1999/xlink" width="79" height="110.97" viewBox="0 0 79 110.97">
  <defs>
    <clipPath id="clip-path">
      <rect id="Rectángulo_25631" data-name="Rectángulo 25631" width="79" height="110.97" fill="none"/>
    </clipPath>
  </defs>
  <g id="Grupo_24959" data-name="Grupo 24959" clip-path="url(#clip-path)">
    <path id="Trazado_64775" data-name="Trazado 64775" d="M38.1,52.417a6.615,6.615,0,1,0,13.23,0c0-3.653-2.711-5.342-6.615-6.615-3.473-1.133-6.615-2.961-6.615-6.615a6.615,6.615,0,0,1,13.23,0" transform="translate(-5.217 -4.46)" fill="none" stroke="#344154" stroke-linecap="round" stroke-linejoin="round" stroke-width="3"/>
    <line id="Línea_168" data-name="Línea 168" y2="3.733" transform="translate(39.5 24.425)" fill="none" stroke="#344154" stroke-linecap="round" stroke-linejoin="round" stroke-width="3"/>
    <line id="Línea_169" data-name="Línea 169" y2="3.733" transform="translate(39.5 54.572)" fill="none" stroke="#344154" stroke-linecap="round" stroke-linejoin="round" stroke-width="3"/>
    <path id="Trazado_64776" data-name="Trazado 64776" d="M12.8,1.5V24.63l5.743-3.514,5.826,3.514V1.5" transform="translate(-1.752 -0.205)" fill="none" stroke="#344154" stroke-linecap="round" stroke-linejoin="round" stroke-width="3"/>
    <path id="Trazado_64777" data-name="Trazado 64777" d="M8.23,1.5A6.73,6.73,0,0,0,1.5,8.23v95.415a6.731,6.731,0,0,1,6.73-6.731H77.91V1.5Z" transform="translate(-0.205 -0.205)" fill="none" stroke="#344154" stroke-linecap="round" stroke-linejoin="round" stroke-width="3"/>
    <path id="Trazado_64778" data-name="Trazado 64778" d="M1.5,118.783h0a6.235,6.235,0,0,0,6.236,6.236H72.417V112.053" transform="translate(-0.205 -15.344)" fill="none" stroke="#344154" stroke-linecap="round" stroke-linejoin="round" stroke-width="3"/>
    <line id="Línea_170" data-name="Línea 170" x2="29.344" transform="translate(24.828 70.428)" fill="none" stroke="#344154" stroke-linecap="round" stroke-linejoin="round" stroke-width="3"/>
    <line id="Línea_171" data-name="Línea 171" x2="29.344" transform="translate(24.828 81.216)" fill="none" stroke="#344154" stroke-linecap="round" stroke-linejoin="round" stroke-width="3"/>
    <path id="Trazado_64779" data-name="Trazado 64779" d="M79.872,54.979V7.5H53.643a48.127,48.127,0,0,1,21.03,28.284Z" transform="translate(-7.345 -1.027)" fill="#ac8585"/>
  </g>
</svg>
