<svg xmlns="http://www.w3.org/2000/svg" xmlns:xlink="http://www.w3.org/1999/xlink" width="116.76" height="108.718" viewBox="0 0 116.76 108.718">
  <defs>
    <clipPath id="clip-path">
      <rect id="Rectángulo_25627" data-name="Rectángulo 25627" width="116.76" height="108.718" fill="none"/>
    </clipPath>
  </defs>
  <g id="Grupo_24952" data-name="Grupo 24952" transform="translate(0)">
    <g id="Grupo_24951" data-name="Grupo 24951" transform="translate(0 0)" clip-path="url(#clip-path)">
      <path id="Trazado_64730" data-name="Trazado 64730" d="M115,17.5a16,16,0,1,0-16,16A16,16,0,0,0,115,17.5Z" transform="translate(-9.253 -0.167)" fill="none" stroke="#344154" stroke-linecap="round" stroke-linejoin="round" stroke-width="3"/>
      <path id="Trazado_64731" data-name="Trazado 64731" d="M99.666,21.06a10.68,10.68,0,0,1-9.761-6.38,10.668,10.668,0,1,0,19.522,0,10.678,10.678,0,0,1-9.76,6.38" transform="translate(-9.922 -1.637)" fill="#f37e5f"/>
      <path id="Trazado_64732" data-name="Trazado 64732" d="M106.885,35.6l10.246,10.246V35.634h10.212L117.1,25.387" transform="translate(-11.916 -2.83)" fill="none" stroke="#344154" stroke-linecap="round" stroke-linejoin="round" stroke-width="3"/>
      <path id="Trazado_64733" data-name="Trazado 64733" d="M92.557,35.6,82.31,45.845V35.634H72.1L82.345,25.387" transform="translate(-8.038 -2.83)" fill="none" stroke="#344154" stroke-linecap="round" stroke-linejoin="round" stroke-width="3"/>
      <line id="Línea_154" data-name="Línea 154" x2="31.966" transform="translate(55.919 75.386)" fill="none" stroke="#344154" stroke-linecap="round" stroke-linejoin="round" stroke-width="3"/>
      <line id="Línea_155" data-name="Línea 155" y2="27.744" transform="translate(99.185 49.353)" fill="none" stroke="#344154" stroke-linecap="round" stroke-linejoin="round" stroke-width="3"/>
      <line id="Línea_156" data-name="Línea 156" x2="43.735" transform="translate(25.064 7.059)" fill="none" stroke="#344154" stroke-linecap="round" stroke-linejoin="round" stroke-width="3"/>
      <line id="Línea_157" data-name="Línea 157" y1="30.663" transform="translate(25.064 14.773)" fill="none" stroke="#344154" stroke-linecap="round" stroke-linejoin="round" stroke-width="3"/>
      <path id="Trazado_64734" data-name="Trazado 64734" d="M104.342,120.859H46.255" transform="translate(-5.157 -13.474)" fill="none" stroke="#344154" stroke-linecap="round" stroke-linejoin="round" stroke-width="3"/>
      <path id="Trazado_64735" data-name="Trazado 64735" d="M106.689,118.042a13.176,13.176,0,0,0,9.36-22.449H67.308" transform="translate(-7.504 -10.657)" fill="none" stroke="#344154" stroke-linecap="round" stroke-linejoin="round" stroke-width="3"/>
      <path id="Trazado_64736" data-name="Trazado 64736" d="M26.344,28.989H11.481S12.409,7.945,26.344,7.945" transform="translate(-1.28 -0.886)" fill="none" stroke="#344154" stroke-linecap="round" stroke-linejoin="round" stroke-width="3"/>
      <path id="Trazado_64737" data-name="Trazado 64737" d="M31.253,107.038c2.493.288,9.332.419,13.268-2.319a2.938,2.938,0,0,0-3.148-4.947,11.074,11.074,0,0,1-8.922.36c-8.325-5.224-16.112-4.3-21.986-.114" transform="translate(-1.167 -10.763)" fill="none" stroke="#344154" stroke-linecap="round" stroke-linejoin="round" stroke-width="3"/>
      <path id="Trazado_64738" data-name="Trazado 64738" d="M10.464,112.343s9.5.67,23.28,1.454c8.395.478,14.076-4.1,22.253-12.024a2.62,2.62,0,0,0-2.981-4.231L45.742,102.8" transform="translate(-1.167 -10.844)" fill="none" stroke="#344154" stroke-linecap="round" stroke-linejoin="round" stroke-width="3"/>
      <path id="Trazado_64739" data-name="Trazado 64739" d="M1.5,117.757H6.469a2.784,2.784,0,0,0,2.784-2.784V95.816a2.784,2.784,0,0,0-2.784-2.784H1.5" transform="translate(-0.167 -10.372)" fill="none" stroke="#344154" stroke-linecap="round" stroke-linejoin="round" stroke-width="3"/>
      <path id="Trazado_64740" data-name="Trazado 64740" d="M36.665,75.3a4.428,4.428,0,1,0,8.857,0c0-2.445-1.815-3.575-4.428-4.428-2.325-.759-4.428-1.982-4.428-4.428a4.428,4.428,0,0,1,8.857,0" transform="translate(-4.088 -6.913)" fill="none" stroke="#344154" stroke-linecap="round" stroke-linejoin="round" stroke-width="3"/>
      <line id="Línea_158" data-name="Línea 158" y2="2.499" transform="translate(37.006 52.629)" fill="none" stroke="#344154" stroke-linecap="round" stroke-linejoin="round" stroke-width="3"/>
      <line id="Línea_159" data-name="Línea 159" y2="2.499" transform="translate(37.006 72.812)" fill="none" stroke="#344154" stroke-linecap="round" stroke-linejoin="round" stroke-width="3"/>
      <ellipse id="Elipse_59" data-name="Elipse 59" cx="16.729" cy="16.729" rx="16.729" ry="16.729" transform="translate(20.277 47.241)" fill="none" stroke="#344154" stroke-linecap="round" stroke-linejoin="round" stroke-width="3"/>
    </g>
  </g>
</svg>
