<svg id="Grupo_24962" data-name="Grupo 24962" xmlns="http://www.w3.org/2000/svg" xmlns:xlink="http://www.w3.org/1999/xlink" width="109.591" height="106" viewBox="0 0 109.591 106">
  <defs>
    <clipPath id="clip-path">
      <rect id="Rectángulo_25632" data-name="Rectángulo 25632" width="109.591" height="106" fill="none"/>
    </clipPath>
  </defs>
  <g id="Grupo_24961" data-name="Grupo 24961" clip-path="url(#clip-path)">
    <path id="Trazado_64780" data-name="Trazado 64780" d="M52.53,21.625V15.546L38.415,1.5H1.5V54.683" transform="translate(-0.264 -0.264)" fill="none" stroke="#344154" stroke-linecap="round" stroke-linejoin="round" stroke-width="3"/>
    <path id="Trazado_64781" data-name="Trazado 64781" d="M42.946,32.855H15.395a1.648,1.648,0,1,1,0-3.3H42.946a1.648,1.648,0,1,1,0,3.3" transform="translate(-2.42 -5.203)" fill="#48a5d9"/>
    <path id="Trazado_64782" data-name="Trazado 64782" d="M42.616,42H15.065a1.648,1.648,0,0,1,0-3.3H42.616a1.648,1.648,0,1,1,0,3.3" transform="translate(-2.361 -6.812)" fill="#48a5d9"/>
    <path id="Trazado_64783" data-name="Trazado 64783" d="M43.111,23.714H15.559a1.648,1.648,0,0,1,0-3.3H43.111a1.648,1.648,0,1,1,0,3.3" transform="translate(-2.448 -3.594)" fill="#48a5d9"/>
    <path id="Trazado_64784" data-name="Trazado 64784" d="M102.848,49.668a67.44,67.44,0,0,1,1.113,10.468,13.29,13.29,0,0,1-3.02,8.41,8.106,8.106,0,0,0-1.7,6.057l.117,1a2.65,2.65,0,0,0,1.152,1.891,2.613,2.613,0,0,0,.742.348l12.175,3.535a11.5,11.5,0,0,1,4.72,2.478,14.056,14.056,0,0,1,4.816,8.053l2.848,21.6" transform="translate(-17.457 -8.742)" fill="none" stroke="#344154" stroke-linecap="round" stroke-linejoin="round" stroke-width="3"/>
    <path id="Trazado_64785" data-name="Trazado 64785" d="M87.188,20.525c7.109,0,14.557,3.955,17.535,10.607a31.64,31.64,0,0,1,2.214,9.326c.522,4.493.751,8.768,2.9,12.82a9.7,9.7,0,0,0,7.786,5.494,14.363,14.363,0,0,1-14.778,6.242" transform="translate(-15.346 -3.613)" fill="none" stroke="#344154" stroke-linecap="round" stroke-linejoin="round" stroke-width="3"/>
    <path id="Trazado_64786" data-name="Trazado 64786" d="M80.686,20.525c-7.11,0-14.558,3.955-17.536,10.607a31.64,31.64,0,0,0-2.214,9.326c-.522,4.493-.752,8.768-2.9,12.82a9.7,9.7,0,0,1-7.786,5.494,14.363,14.363,0,0,0,14.778,6.242" transform="translate(-8.844 -3.613)" fill="none" stroke="#344154" stroke-linecap="round" stroke-linejoin="round" stroke-width="3"/>
    <path id="Trazado_64787" data-name="Trazado 64787" d="M73.58,83.439,84.793,91.81,96,83.439" transform="translate(-12.951 -14.686)" fill="none" stroke="#344154" stroke-linecap="round" stroke-linejoin="round" stroke-width="3"/>
    <line id="Línea_172" data-name="Línea 172" x2="10.397" transform="translate(84.07 96.462)" fill="none" stroke="#344154" stroke-linecap="round" stroke-linejoin="round" stroke-width="3"/>
    <path id="Trazado_64788" data-name="Trazado 64788" d="M42.875,111.278l2.847-21.6a14.058,14.058,0,0,1,4.816-8.052,11.5,11.5,0,0,1,4.72-2.478l12.175-3.535a2.654,2.654,0,0,0,1.9-2.24l.116-1a8.1,8.1,0,0,0-1.7-6.056,13.287,13.287,0,0,1-3.02-8.41A76.433,76.433,0,0,1,66.17,45.543a10.821,10.821,0,0,1,6.285-7.97A6.5,6.5,0,0,1,80.1,39.33l.039.047c1.29,1.594,2.247,3.453,3.673,4.924a10.521,10.521,0,0,0,9.132,3" transform="translate(-7.546 -6.514)" fill="none" stroke="#344154" stroke-linecap="round" stroke-linejoin="round" stroke-width="3"/>
    <path id="Trazado_64789" data-name="Trazado 64789" d="M84.295,29.983a9.258,9.258,0,0,1,7.16,3.588C92.774,35.3,93.469,37.49,95.034,39a6.524,6.524,0,0,0,6.108,1.572" transform="translate(-14.837 -5.277)" fill="none" stroke="#344154" stroke-linecap="round" stroke-linejoin="round" stroke-width="3"/>
    <path id="Trazado_64790" data-name="Trazado 64790" d="M6.315,76.058a15.8,15.8,0,1,0,15.8-15.8A15.8,15.8,0,0,0,6.315,76.058Z" transform="translate(-1.111 -10.606)" fill="none" stroke="#344154" stroke-linecap="round" stroke-linejoin="round" stroke-width="3"/>
    <path id="Trazado_64791" data-name="Trazado 64791" d="M17.268,79.18,22.668,84l8.741-10.69" transform="translate(-3.039 -12.902)" fill="none" stroke="#344154" stroke-linecap="round" stroke-linejoin="round" stroke-width="3"/>
  </g>
</svg>
